<?xml version="1.0" encoding="utf-8"?>
<!-- Generator: Adobe Illustrator 24.3.0, SVG Export Plug-In . SVG Version: 6.00 Build 0)  -->
<svg version="1.1" id="레이어_1" xmlns="http://www.w3.org/2000/svg" xmlns:xlink="http://www.w3.org/1999/xlink" x="0px"
	 y="0px" viewBox="0 0 116 22" enable-background="new 0 0 116 22" xml:space="preserve">
<g>
	<g>
		<path d="M40.26,20.37c-0.23,0-0.42-0.03-0.59-0.09c-0.17-0.06-0.31-0.14-0.43-0.23c-0.12-0.09-0.23-0.19-0.32-0.28l0.14-0.16
			c0.13,0.14,0.29,0.27,0.47,0.38c0.19,0.12,0.43,0.18,0.74,0.18c0.2,0,0.38-0.04,0.54-0.12c0.16-0.08,0.28-0.2,0.37-0.35
			c0.09-0.15,0.13-0.32,0.13-0.52c0-0.21-0.05-0.39-0.16-0.54c-0.11-0.15-0.27-0.28-0.5-0.36s-0.52-0.13-0.88-0.13v-0.21
			c0.34,0,0.61-0.04,0.81-0.13c0.2-0.09,0.34-0.21,0.43-0.35c0.09-0.15,0.13-0.31,0.13-0.49c0-0.25-0.08-0.45-0.24-0.61
			c-0.16-0.15-0.38-0.23-0.66-0.23c-0.2,0-0.39,0.05-0.56,0.14c-0.17,0.09-0.32,0.21-0.44,0.34l-0.14-0.15
			c0.14-0.14,0.31-0.27,0.49-0.37c0.18-0.1,0.4-0.16,0.65-0.16c0.21,0,0.4,0.04,0.58,0.12s0.31,0.2,0.41,0.35
			c0.1,0.15,0.15,0.34,0.15,0.55c0,0.29-0.08,0.52-0.24,0.69s-0.36,0.3-0.59,0.38v0.02c0.18,0.04,0.34,0.1,0.49,0.2
			c0.15,0.1,0.27,0.23,0.36,0.38c0.09,0.15,0.14,0.33,0.14,0.54c0,0.25-0.06,0.46-0.17,0.64c-0.11,0.18-0.27,0.32-0.46,0.42
			C40.72,20.32,40.5,20.37,40.26,20.37z"/>
		<path d="M42.56,20.29v-4.42h0.99c0.46,0,0.83,0.09,1.13,0.27c0.29,0.18,0.51,0.44,0.65,0.77c0.14,0.33,0.21,0.71,0.21,1.16
			c0,0.44-0.07,0.83-0.21,1.16c-0.14,0.33-0.36,0.59-0.65,0.78c-0.29,0.19-0.67,0.28-1.12,0.28H42.56z M42.78,20.09h0.74
			c0.42,0,0.76-0.09,1.02-0.26c0.26-0.17,0.45-0.41,0.58-0.72s0.18-0.65,0.18-1.04c0-0.39-0.06-0.73-0.18-1.03
			c-0.12-0.3-0.31-0.54-0.58-0.71c-0.26-0.17-0.6-0.26-1.02-0.26h-0.74V20.09z"/>
		<path d="M46.58,20.29v-4.42h1.06c0.34,0,0.62,0.04,0.86,0.12s0.41,0.21,0.54,0.38c0.12,0.17,0.19,0.41,0.19,0.71
			c0,0.28-0.06,0.52-0.18,0.71c-0.12,0.19-0.3,0.33-0.53,0.42c-0.23,0.09-0.51,0.14-0.85,0.14h-0.86v1.95H46.58z M46.81,18.14h0.79
			c0.47,0,0.82-0.08,1.05-0.25c0.23-0.17,0.34-0.44,0.34-0.82c0-0.38-0.12-0.65-0.35-0.79c-0.23-0.14-0.59-0.21-1.07-0.21h-0.76
			V18.14z"/>
		<path d="M50.22,20.29v-4.42h1.22c0.29,0,0.54,0.04,0.76,0.12s0.38,0.2,0.49,0.37s0.17,0.39,0.17,0.66c0,0.26-0.06,0.48-0.17,0.66
			s-0.28,0.31-0.49,0.4c-0.21,0.09-0.47,0.14-0.76,0.14h-1v2.08H50.22z M50.45,18.01h0.92c0.41,0,0.72-0.08,0.93-0.25
			c0.22-0.16,0.33-0.42,0.33-0.76c0-0.34-0.11-0.59-0.33-0.73c-0.22-0.14-0.53-0.21-0.93-0.21h-0.92V18.01z M52.67,20.29l-1.29-2.15
			l0.26-0.02l1.3,2.17H52.67z"/>
		<path d="M53.81,20.29v-4.42h0.23v4.42H53.81z"/>
		<path d="M55.37,20.29v-4.42h0.24l1.95,3.22l0.5,0.87h0.03c-0.01-0.21-0.02-0.42-0.03-0.63c-0.01-0.2-0.01-0.41-0.01-0.62v-2.84
			h0.22v4.42h-0.24l-1.94-3.22l-0.51-0.87h-0.02c0.01,0.21,0.01,0.41,0.02,0.6c0,0.19,0.01,0.4,0.01,0.61v2.88H55.37z"/>
		<path d="M60.56,20.29v-4.22h-1.42v-0.2h3.09v0.2H60.8v4.22H60.56z"/>
		<path d="M64.43,20.29v-4.42h2.36v0.2h-2.14v1.84h1.8v0.19h-1.8v2.18H64.43z"/>
		<path d="M66.98,20.29l1.58-4.42h0.2l1.58,4.42H70.1l-0.92-2.65c-0.09-0.27-0.18-0.52-0.26-0.76c-0.08-0.24-0.16-0.5-0.24-0.78
			h-0.02c-0.08,0.28-0.16,0.54-0.25,0.78c-0.08,0.24-0.17,0.5-0.26,0.76l-0.93,2.65H66.98z M67.66,18.72v-0.19h1.97v0.19H67.66z"/>
		<path d="M71.08,20.29v-4.42h1.22c0.29,0,0.54,0.04,0.76,0.12s0.38,0.2,0.49,0.37s0.17,0.39,0.17,0.66c0,0.26-0.06,0.48-0.17,0.66
			s-0.28,0.31-0.49,0.4c-0.21,0.09-0.47,0.14-0.76,0.14h-1v2.08H71.08z M71.3,18.01h0.92c0.41,0,0.72-0.08,0.93-0.25
			c0.22-0.16,0.33-0.42,0.33-0.76c0-0.34-0.11-0.59-0.33-0.73c-0.22-0.14-0.53-0.21-0.93-0.21H71.3V18.01z M73.53,20.29l-1.29-2.15
			l0.26-0.02l1.3,2.17H73.53z"/>
		<path d="M74.66,20.29v-4.42h0.36l0.94,2.67c0.06,0.16,0.12,0.33,0.18,0.5c0.06,0.17,0.12,0.34,0.18,0.5h0.02
			c0.06-0.17,0.12-0.33,0.18-0.5c0.06-0.17,0.11-0.33,0.17-0.5l0.95-2.67h0.36v4.42h-0.23v-3.05c0-0.12,0-0.24,0-0.38
			s0.01-0.27,0.01-0.4s0.01-0.26,0.01-0.38h-0.02l-0.34,0.97l-0.99,2.74h-0.24l-1-2.74l-0.35-0.97h-0.02
			c0.01,0.12,0.01,0.25,0.02,0.38c0,0.14,0.01,0.27,0.01,0.4s0,0.26,0,0.38v3.05H74.66z"/>
	</g>
</g>
<g>
	<g id="HATCH_62_">
		<polygon fill-rule="evenodd" clip-rule="evenodd" fill="#292927" points="0.83,10.31 0.83,1.13 2.41,1.13 2.41,8.96 6.85,8.96 
			6.85,10.31 		"/>
	</g>
	<g id="HATCH_61_">
		<polygon fill-rule="evenodd" clip-rule="evenodd" fill="#292927" points="108.27,10.31 108.27,1.13 115.33,1.13 115.33,2.48 
			109.84,2.48 109.84,4.93 114.95,4.93 114.95,6.27 109.84,6.27 109.84,8.96 115.58,8.96 115.58,10.31 		"/>
	</g>
	<g id="HATCH_60_">
		<polygon fill-rule="evenodd" clip-rule="evenodd" fill="#292927" points="82.45,3.78 82.37,3.56 82.28,3.33 82.11,2.83 
			81.96,3.28 81.77,3.79 79.22,10.31 77.57,10.31 81.32,1.13 82.93,1.13 86.62,10.31 84.99,10.31 83.99,7.74 80.8,7.74 81.3,6.43 
			83.48,6.43 		"/>
	</g>
	<g id="HATCH_59_">
		<polygon fill-rule="evenodd" clip-rule="evenodd" fill="#292927" points="50.43,3.7 51.54,1.77 51.68,1.86 51.81,1.96 51.94,2.06 
			52.07,2.17 52.19,2.28 52.31,2.39 52.42,2.51 52.53,2.63 52.64,2.76 52.74,2.89 52.83,3.02 52.93,3.16 53.01,3.3 53.09,3.44 
			53.17,3.58 53.24,3.73 53.31,3.88 53.37,4.04 53.43,4.19 53.48,4.35 53.52,4.5 53.56,4.66 53.6,4.83 53.62,4.99 53.65,5.15 
			53.66,5.31 53.67,5.48 53.68,5.64 53.68,5.81 53.67,5.97 53.66,6.13 53.65,6.3 53.62,6.46 53.59,6.62 53.56,6.78 53.52,6.94 
			53.47,7.1 53.42,7.26 53.37,7.41 53.31,7.56 53.24,7.71 53.17,7.86 53.09,8.01 53.01,8.15 52.92,8.29 52.83,8.42 52.73,8.56 
			52.63,8.69 52.52,8.81 52.41,8.93 52.3,9.05 52.18,9.17 52.06,9.28 51.93,9.38 51.81,9.48 51.67,9.58 51.54,9.67 51.4,9.76 
			51.25,9.84 51.11,9.92 50.96,9.99 50.81,10.06 50.66,10.12 50.51,10.18 50.35,10.23 50.19,10.27 50.03,10.31 49.87,10.35 
			49.71,10.38 49.55,10.4 49.38,10.42 49.22,10.43 49.05,10.44 48.89,10.44 48.73,10.43 48.56,10.42 48.4,10.4 48.24,10.38 
			48.07,10.35 47.91,10.32 47.75,10.28 47.6,10.23 47.44,10.18 47.28,10.13 47.13,10.07 46.98,10 46.83,9.93 47.49,8.79 47.56,8.82 
			47.62,8.85 47.69,8.88 47.76,8.91 47.83,8.93 47.9,8.96 47.98,8.98 48.05,9 48.12,9.02 48.2,9.04 48.28,9.06 48.35,9.07 
			48.43,9.08 48.51,9.1 48.59,9.1 48.67,9.11 48.75,9.12 48.83,9.12 48.91,9.13 48.99,9.13 49.07,9.12 49.15,9.12 49.24,9.11 
			49.32,9.11 49.4,9.1 49.48,9.09 49.57,9.07 49.65,9.06 49.73,9.04 49.81,9.02 49.89,9 49.97,8.97 50.05,8.95 50.13,8.92 
			50.21,8.89 50.28,8.86 50.36,8.83 50.43,8.79 50.51,8.75 50.58,8.72 50.65,8.68 50.73,8.63 50.8,8.59 50.86,8.55 50.93,8.5 
			51,8.45 51.06,8.4 51.12,8.35 51.18,8.3 51.24,8.25 51.3,8.19 51.36,8.14 51.41,8.08 51.47,8.03 51.52,7.97 51.57,7.91 
			51.62,7.85 51.67,7.79 51.71,7.73 51.75,7.67 51.8,7.61 51.84,7.55 51.88,7.48 51.91,7.42 51.95,7.36 51.98,7.29 52.02,7.23 
			52.05,7.16 52.08,7.1 52.11,7.03 52.13,6.96 52.16,6.89 52.18,6.83 52.2,6.76 52.22,6.69 52.24,6.61 52.26,6.54 52.27,6.47 
			52.28,6.4 52.29,6.33 52.3,6.26 52.31,6.18 52.31,6.11 52.31,6.04 52.31,5.97 52.31,5.89 52.3,5.82 52.29,5.75 52.28,5.68 
			52.27,5.61 52.26,5.54 52.24,5.47 52.22,5.4 52.2,5.33 52.18,5.26 52.15,5.19 52.12,5.13 52.09,5.06 52.06,5 52.03,4.93 
			51.99,4.87 51.95,4.81 51.91,4.75 51.87,4.69 51.83,4.63 51.78,4.57 51.73,4.52 51.68,4.46 51.63,4.41 51.58,4.36 51.52,4.31 
			51.47,4.26 51.41,4.22 51.35,4.17 51.29,4.13 51.23,4.09 51.17,4.04 51.1,4.01 51.04,3.97 50.98,3.93 50.91,3.9 50.84,3.87 
			50.77,3.83 50.71,3.81 50.64,3.78 50.57,3.75 50.5,3.73 		"/>
	</g>
	<g id="HATCH_58_">
		<polygon fill-rule="evenodd" clip-rule="evenodd" fill="#292927" points="47.5,7.73 46.38,9.67 46.24,9.58 46.11,9.48 45.98,9.38 
			45.86,9.27 45.73,9.16 45.62,9.05 45.5,8.93 45.39,8.8 45.29,8.68 45.19,8.55 45.09,8.42 45,8.28 44.91,8.14 44.83,8 44.75,7.85 
			44.68,7.7 44.61,7.55 44.55,7.4 44.5,7.25 44.45,7.09 44.4,6.93 44.36,6.77 44.33,6.61 44.3,6.45 44.28,6.29 44.26,6.12 
			44.25,5.96 44.24,5.8 44.24,5.63 44.25,5.47 44.26,5.3 44.28,5.14 44.3,4.98 44.33,4.81 44.36,4.65 44.4,4.49 44.45,4.34 
			44.5,4.18 44.56,4.03 44.62,3.87 44.69,3.72 44.76,3.58 44.83,3.43 44.92,3.29 45,3.15 45.1,3.01 45.19,2.88 45.29,2.75 
			45.4,2.62 45.51,2.5 45.62,2.38 45.74,2.27 45.86,2.16 45.99,2.05 46.12,1.95 46.25,1.86 46.39,1.76 46.53,1.68 46.67,1.59 
			46.81,1.52 46.96,1.44 47.11,1.38 47.26,1.32 47.42,1.26 47.58,1.21 47.73,1.16 47.89,1.12 48.05,1.09 48.21,1.06 48.38,1.04 
			48.54,1.02 48.7,1.01 48.87,1 49.03,1 49.2,1.01 49.36,1.02 49.53,1.03 49.69,1.06 49.85,1.08 50.01,1.12 50.17,1.16 50.33,1.2 
			50.49,1.25 50.64,1.31 50.79,1.37 50.94,1.44 51.09,1.51 50.43,2.65 50.37,2.61 50.3,2.59 50.23,2.56 50.16,2.53 50.09,2.5 
			50.02,2.48 49.95,2.46 49.88,2.44 49.8,2.42 49.73,2.4 49.65,2.38 49.57,2.37 49.49,2.35 49.42,2.34 49.34,2.33 49.26,2.32 
			49.18,2.32 49.1,2.31 49.01,2.31 48.93,2.31 48.85,2.31 48.77,2.32 48.69,2.32 48.6,2.33 48.52,2.34 48.44,2.35 48.36,2.36 
			48.28,2.38 48.2,2.4 48.11,2.42 48.03,2.44 47.95,2.46 47.87,2.49 47.8,2.52 47.72,2.55 47.64,2.58 47.56,2.61 47.49,2.65 
			47.41,2.68 47.34,2.72 47.27,2.76 47.2,2.8 47.13,2.85 47.06,2.89 46.99,2.94 46.93,2.99 46.86,3.03 46.8,3.08 46.74,3.14 
			46.68,3.19 46.62,3.24 46.56,3.3 46.51,3.35 46.46,3.41 46.4,3.47 46.35,3.53 46.3,3.59 46.26,3.65 46.21,3.71 46.17,3.77 
			46.13,3.83 46.09,3.89 46.05,3.95 46.01,4.01 45.98,4.08 45.94,4.14 45.91,4.21 45.88,4.27 45.85,4.34 45.82,4.41 45.79,4.47 
			45.77,4.54 45.74,4.61 45.72,4.68 45.7,4.75 45.68,4.82 45.67,4.89 45.65,4.96 45.64,5.04 45.63,5.11 45.62,5.18 45.62,5.25 
			45.61,5.32 45.61,5.4 45.61,5.47 45.62,5.54 45.62,5.61 45.63,5.69 45.64,5.76 45.65,5.83 45.67,5.9 45.68,5.97 45.7,6.04 
			45.72,6.11 45.75,6.18 45.77,6.24 45.8,6.31 45.83,6.38 45.86,6.44 45.9,6.5 45.93,6.57 45.97,6.63 46.01,6.69 46.05,6.75 
			46.1,6.81 46.14,6.86 46.19,6.92 46.24,6.97 46.29,7.02 46.35,7.08 46.4,7.13 46.46,7.17 46.51,7.22 46.57,7.27 46.63,7.31 
			46.69,7.35 46.76,7.39 46.82,7.43 46.88,7.47 46.95,7.5 47.02,7.54 47.08,7.57 47.15,7.6 47.22,7.63 47.29,7.66 47.36,7.69 
			47.43,7.71 		"/>
	</g>
	<g id="HATCH_57_">
		<polygon fill-rule="evenodd" clip-rule="evenodd" fill="#292927" points="17.56,10.44 17.77,10.43 17.87,10.43 17.98,10.42 
			18.08,10.41 18.18,10.4 18.29,10.39 18.39,10.38 18.49,10.36 18.58,10.34 18.68,10.33 18.77,10.3 18.86,10.28 18.96,10.25 
			19.05,10.23 19.14,10.2 19.23,10.17 19.31,10.13 19.4,10.1 19.48,10.06 19.57,10.02 19.65,9.98 19.73,9.94 19.81,9.89 19.88,9.85 
			19.96,9.8 20.03,9.75 20.1,9.7 20.17,9.65 20.24,9.59 20.31,9.54 20.38,9.48 20.44,9.42 20.5,9.35 20.56,9.29 20.62,9.23 
			20.67,9.16 20.73,9.09 20.78,9.02 20.83,8.95 20.88,8.88 20.93,8.8 20.97,8.72 21.02,8.65 21.06,8.57 21.1,8.48 21.13,8.4 
			21.17,8.32 21.2,8.23 21.23,8.15 21.26,8.06 21.29,7.97 21.31,7.88 21.33,7.79 21.35,7.7 21.37,7.61 21.39,7.51 21.4,7.41 
			21.41,7.31 21.42,7.21 21.43,7.11 21.43,7.01 21.43,6.91 21.44,6.81 21.44,1.13 19.87,1.13 19.87,6.74 19.87,6.88 19.87,6.95 
			19.86,7.02 19.86,7.09 19.85,7.16 19.84,7.23 19.83,7.3 19.82,7.36 19.81,7.42 19.8,7.48 19.79,7.54 19.77,7.6 19.75,7.66 
			19.74,7.72 19.72,7.78 19.7,7.83 19.68,7.88 19.66,7.93 19.63,7.98 19.61,8.03 19.58,8.08 19.56,8.13 19.53,8.17 19.5,8.22 
			19.47,8.26 19.44,8.3 19.41,8.34 19.38,8.38 19.34,8.42 19.31,8.46 19.27,8.5 19.23,8.53 19.19,8.57 19.15,8.6 19.11,8.64 
			19.07,8.67 19.03,8.7 18.98,8.73 18.94,8.76 18.89,8.78 18.85,8.81 18.8,8.83 18.75,8.86 18.7,8.88 18.65,8.9 18.6,8.92 
			18.55,8.94 18.49,8.96 18.43,8.98 18.38,8.99 18.32,9.01 18.26,9.02 18.2,9.03 18.14,9.04 18.09,9.05 18.02,9.06 17.95,9.07 
			17.89,9.08 17.82,9.08 17.75,9.09 17.69,9.09 17.55,9.09 17.42,9.09 17.36,9.09 17.3,9.08 17.23,9.08 17.17,9.07 17.1,9.06 
			17.04,9.05 16.98,9.05 16.93,9.03 16.87,9.02 16.82,9.01 16.76,9 16.71,8.98 16.65,8.96 16.6,8.95 16.55,8.93 16.5,8.91 
			16.45,8.89 16.41,8.87 16.36,8.84 16.32,8.82 16.27,8.8 16.23,8.77 16.18,8.74 16.14,8.71 16.1,8.69 16.07,8.65 16.03,8.62 
			15.99,8.59 15.96,8.56 15.92,8.52 15.89,8.49 15.85,8.45 15.82,8.41 15.79,8.37 15.76,8.33 15.73,8.29 15.71,8.25 15.68,8.21 
			15.65,8.16 15.63,8.12 15.6,8.07 15.58,8.02 15.56,7.97 15.54,7.92 15.52,7.87 15.51,7.83 15.49,7.77 15.47,7.71 15.46,7.65 
			15.44,7.6 15.43,7.54 15.42,7.48 15.41,7.42 15.4,7.36 15.39,7.3 15.38,7.23 15.38,7.16 15.37,7.09 15.36,6.96 15.36,6.82 
			15.36,1.13 13.79,1.13 13.79,6.92 13.79,7.02 13.8,7.12 13.8,7.21 13.81,7.31 13.82,7.41 13.83,7.5 13.84,7.6 13.86,7.7 
			13.87,7.78 13.89,7.87 13.91,7.96 13.94,8.05 13.96,8.13 13.99,8.22 14.02,8.31 14.05,8.39 14.09,8.47 14.13,8.55 14.16,8.63 
			14.2,8.71 14.25,8.78 14.29,8.86 14.34,8.93 14.39,9 14.43,9.07 14.49,9.14 14.54,9.2 14.59,9.27 14.65,9.33 14.71,9.39 
			14.77,9.45 14.83,9.51 14.89,9.57 14.96,9.62 15.03,9.68 15.1,9.73 15.17,9.78 15.24,9.82 15.31,9.87 15.38,9.91 15.46,9.96 
			15.54,10 15.62,10.04 15.7,10.08 15.78,10.11 15.87,10.14 15.95,10.18 16.03,10.21 16.12,10.23 16.21,10.26 16.3,10.29 
			16.39,10.31 16.48,10.33 16.58,10.35 16.67,10.36 16.76,10.38 16.86,10.39 16.96,10.41 17.06,10.42 17.16,10.42 17.26,10.43 
			17.36,10.43 		"/>
	</g>
	<g id="HATCH_56_">
		<polygon fill-rule="evenodd" clip-rule="evenodd" fill="#292927" points="28.59,5.68 28.59,5.9 28.6,6.11 28.62,6.33 28.64,6.54 
			28.67,6.74 28.69,6.84 28.71,6.94 28.73,7.04 28.75,7.14 28.78,7.24 28.8,7.34 28.83,7.43 28.86,7.52 28.89,7.62 28.92,7.71 
			28.96,7.8 28.99,7.89 29.03,7.98 29.07,8.06 29.11,8.15 29.16,8.23 29.2,8.31 29.25,8.4 29.29,8.48 29.34,8.56 29.39,8.63 
			29.45,8.71 29.5,8.78 29.56,8.86 29.61,8.93 29.67,9 29.73,9.06 29.79,9.13 29.86,9.2 29.92,9.26 29.99,9.32 30.06,9.38 
			30.12,9.44 30.2,9.5 30.27,9.56 30.34,9.61 30.41,9.66 30.49,9.71 30.57,9.76 30.65,9.81 30.73,9.86 30.81,9.9 30.9,9.94 
			30.98,9.98 31.07,10.02 31.15,10.06 31.24,10.1 31.33,10.13 31.42,10.16 31.51,10.19 31.61,10.22 31.7,10.25 31.79,10.27 
			31.89,10.29 31.99,10.32 32.09,10.34 32.19,10.35 32.29,10.37 32.39,10.39 32.49,10.4 32.7,10.42 32.91,10.43 33.13,10.44 
			33.32,10.44 33.52,10.43 33.7,10.42 33.89,10.41 34.07,10.39 34.25,10.36 34.43,10.33 34.6,10.3 34.78,10.26 34.95,10.21 
			35.12,10.16 35.29,10.11 35.45,10.05 35.62,9.98 35.77,9.91 35.93,9.84 36.08,9.77 36.23,9.68 36.37,9.6 36.51,9.51 36.65,9.42 
			36.71,9.37 36.78,9.32 36.91,9.22 36.97,9.16 37.03,9.11 37.09,9.06 37.15,9 37.21,8.94 37.27,8.89 37.32,8.83 37.32,5.53 
			33.22,5.53 33.22,6.91 35.85,6.91 35.85,8.22 35.8,8.26 35.76,8.3 35.71,8.34 35.66,8.37 35.61,8.41 35.57,8.44 35.52,8.48 
			35.47,8.51 35.41,8.54 35.35,8.57 35.3,8.61 35.24,8.64 35.18,8.67 35.12,8.69 35.06,8.72 35,8.75 34.94,8.77 34.87,8.8 
			34.74,8.85 34.67,8.87 34.59,8.89 34.52,8.92 34.44,8.94 34.37,8.96 34.29,8.98 34.21,8.99 34.14,9.01 33.98,9.03 33.82,9.06 
			33.66,9.07 33.5,9.08 33.33,9.09 33.17,9.09 33.03,9.09 32.89,9.08 32.82,9.07 32.75,9.07 32.68,9.06 32.62,9.05 32.55,9.04 
			32.49,9.03 32.43,9.01 32.36,9 32.3,8.98 32.24,8.97 32.18,8.95 32.12,8.93 32.06,8.91 32,8.89 31.95,8.87 31.89,8.84 31.84,8.82 
			31.78,8.79 31.73,8.77 31.67,8.74 31.62,8.71 31.57,8.68 31.52,8.65 31.47,8.61 31.42,8.58 31.37,8.55 31.33,8.51 31.28,8.47 
			31.24,8.43 31.19,8.39 31.15,8.35 31.1,8.31 31.06,8.27 31.02,8.22 30.98,8.18 30.94,8.13 30.9,8.08 30.86,8.04 30.83,7.99 
			30.79,7.94 30.76,7.89 30.72,7.83 30.69,7.78 30.66,7.73 30.63,7.67 30.6,7.62 30.57,7.56 30.54,7.5 30.51,7.45 30.49,7.39 
			30.46,7.33 30.44,7.27 30.42,7.2 30.39,7.14 30.37,7.08 30.35,7.01 30.34,6.95 30.32,6.88 30.29,6.75 30.27,6.68 30.26,6.61 
			30.24,6.46 30.22,6.31 30.2,6.17 30.19,6.01 30.18,5.86 30.18,5.69 30.18,5.53 30.19,5.38 30.2,5.22 30.21,5.07 30.23,4.92 
			30.25,4.78 30.28,4.64 30.31,4.5 30.32,4.44 30.34,4.37 30.36,4.31 30.38,4.24 30.4,4.18 30.42,4.12 30.44,4.06 30.46,4 
			30.49,3.94 30.51,3.88 30.54,3.83 30.56,3.78 30.59,3.72 30.62,3.67 30.65,3.62 30.68,3.57 30.71,3.51 30.74,3.46 30.78,3.42 
			30.81,3.37 30.85,3.32 30.88,3.28 30.92,3.23 30.96,3.19 31,3.15 31.04,3.11 31.08,3.07 31.12,3.03 31.16,2.99 31.2,2.95 
			31.25,2.92 31.29,2.88 31.34,2.85 31.38,2.82 31.43,2.78 31.48,2.75 31.53,2.72 31.58,2.7 31.63,2.67 31.68,2.64 31.73,2.62 
			31.79,2.6 31.84,2.57 31.9,2.55 31.95,2.53 32.01,2.51 32.07,2.49 32.13,2.48 32.19,2.46 32.25,2.45 32.31,2.43 32.38,2.42 
			32.44,2.41 32.51,2.4 32.58,2.39 32.64,2.38 32.77,2.37 32.92,2.36 33.06,2.35 33.15,2.35 33.24,2.35 33.33,2.36 33.42,2.36 
			33.5,2.37 33.59,2.37 33.67,2.38 33.75,2.39 33.84,2.41 33.92,2.42 34,2.44 34.09,2.46 34.16,2.47 34.23,2.49 34.3,2.52 
			34.37,2.54 34.44,2.56 34.51,2.59 34.58,2.62 34.64,2.65 34.71,2.69 34.74,2.71 34.77,2.73 34.81,2.74 34.84,2.76 34.87,2.78 
			34.9,2.8 34.93,2.82 34.96,2.85 34.98,2.87 35.01,2.89 35.06,2.93 35.12,2.98 35.17,3.03 35.21,3.08 35.26,3.13 35.31,3.18 
			35.35,3.24 35.4,3.3 35.44,3.36 35.49,3.42 35.53,3.49 35.56,3.55 35.6,3.62 35.63,3.68 35.71,3.83 35.86,3.78 37.2,3.38 
			37.11,3.18 37.06,3.06 37,2.95 36.93,2.83 36.87,2.72 36.8,2.61 36.73,2.51 36.65,2.4 36.61,2.35 36.57,2.31 36.54,2.26 
			36.5,2.21 36.45,2.17 36.41,2.12 36.37,2.08 36.33,2.04 36.28,1.99 36.24,1.95 36.19,1.91 36.15,1.87 36.1,1.83 36.06,1.8 
			36.01,1.76 35.96,1.73 35.91,1.69 35.86,1.66 35.81,1.62 35.76,1.59 35.71,1.56 35.65,1.53 35.55,1.48 35.45,1.43 35.35,1.38 
			35.24,1.34 35.12,1.29 35,1.25 34.88,1.21 34.75,1.18 34.62,1.15 34.48,1.12 34.34,1.09 34.21,1.07 34.06,1.05 33.91,1.03 
			33.76,1.02 33.61,1.01 33.46,1 33.3,1 33.03,1 32.81,1.01 32.59,1.02 32.48,1.03 32.37,1.04 32.26,1.06 32.15,1.08 32.05,1.09 
			31.95,1.11 31.85,1.13 31.75,1.15 31.65,1.18 31.55,1.21 31.45,1.24 31.35,1.27 31.26,1.3 31.17,1.33 31.08,1.37 30.99,1.41 
			30.91,1.45 30.82,1.49 30.73,1.53 30.65,1.58 30.57,1.63 30.49,1.68 30.41,1.73 30.33,1.78 30.25,1.83 30.18,1.89 30.1,1.95 
			30.03,2.01 29.96,2.07 29.89,2.14 29.82,2.2 29.76,2.27 29.69,2.34 29.63,2.41 29.57,2.48 29.51,2.56 29.45,2.63 29.4,2.71 
			29.34,2.79 29.29,2.87 29.24,2.95 29.2,3.03 29.15,3.12 29.11,3.2 29.06,3.29 29.02,3.38 28.98,3.47 28.95,3.56 28.91,3.66 
			28.88,3.75 28.85,3.84 28.82,3.94 28.79,4.04 28.76,4.14 28.74,4.24 28.72,4.35 28.7,4.45 28.68,4.56 28.66,4.66 28.65,4.77 
			28.63,4.88 28.62,4.99 28.6,5.22 28.59,5.45 		"/>
	</g>
	<g id="HATCH_55_">
		<polygon fill-rule="evenodd" clip-rule="evenodd" fill="#292927" points="66.16,4.58 67.72,10.31 69.43,10.31 72.14,1.13 
			70.5,1.13 70.46,1.27 68.75,7.45 68.7,7.64 68.56,8.24 68.19,6.75 66.62,1.13 65.19,1.13 65.15,1.27 63.46,7.33 63.41,7.53 
			63.25,8.21 62.91,6.86 61.29,1.13 59.65,1.13 62.36,10.31 64.07,10.31 64.1,10.17 65.76,4.11 65.81,3.9 65.9,3.52 65.97,3.84 
			66.07,4.26 		"/>
	</g>
	<g id="HATCH_54_">
		<polygon fill-rule="evenodd" clip-rule="evenodd" fill="#292927" points="94.7,6.66 94.7,5.34 94.7,2.46 94.7,1.13 93.13,1.13 
			93.13,10.31 94.7,10.31 		"/>
	</g>
	<g id="HATCH_44_">
		<polygon fill-rule="evenodd" clip-rule="evenodd" fill="#292927" points="98.72,6.46 98.81,6.43 98.9,6.41 98.99,6.38 99.07,6.35 
			99.16,6.32 99.24,6.28 99.32,6.24 99.4,6.2 99.45,6.17 99.5,6.14 99.56,6.11 99.61,6.08 99.65,6.04 99.7,6.01 99.75,5.97 
			99.8,5.94 99.84,5.9 99.89,5.86 99.93,5.82 99.97,5.78 100.02,5.74 100.06,5.7 100.1,5.65 100.14,5.61 100.17,5.56 100.21,5.52 
			100.25,5.47 100.28,5.42 100.31,5.38 100.35,5.33 100.38,5.28 100.41,5.23 100.44,5.18 100.46,5.12 100.49,5.07 100.51,5.02 
			100.54,4.97 100.56,4.91 100.58,4.86 100.6,4.8 100.62,4.75 100.64,4.69 100.65,4.63 100.67,4.57 100.68,4.51 100.69,4.46 
			100.71,4.4 100.72,4.34 100.72,4.28 100.73,4.21 100.74,4.15 100.74,4.09 100.75,4.03 100.75,3.96 100.75,3.9 100.75,3.84 
			100.75,3.76 100.75,3.69 100.75,3.61 100.74,3.54 100.73,3.46 100.72,3.39 100.71,3.31 100.7,3.24 100.69,3.17 100.67,3.1 
			100.65,3.04 100.63,2.97 100.61,2.9 100.59,2.84 100.56,2.77 100.54,2.71 100.51,2.64 100.48,2.58 100.45,2.52 100.41,2.46 
			100.38,2.4 100.34,2.35 100.3,2.29 100.26,2.24 100.22,2.18 100.17,2.13 100.13,2.08 100.08,2.03 100.03,1.98 99.98,1.93 
			99.93,1.88 99.88,1.84 99.82,1.79 99.76,1.75 99.7,1.71 99.64,1.67 99.58,1.63 99.52,1.59 99.46,1.56 99.39,1.53 99.33,1.49 
			99.26,1.46 99.19,1.43 99.12,1.4 99.05,1.38 98.97,1.35 98.9,1.33 98.83,1.3 98.75,1.28 98.67,1.26 98.59,1.24 98.51,1.23 
			98.43,1.21 98.35,1.2 98.18,1.17 98.09,1.16 98,1.15 97.82,1.14 97.64,1.13 97.46,1.13 95.22,1.13 95.22,2.46 97.34,2.46 
			97.45,2.47 97.56,2.47 97.67,2.48 97.78,2.49 97.88,2.5 97.97,2.52 98.02,2.53 98.06,2.54 98.11,2.55 98.16,2.56 98.2,2.57 
			98.24,2.58 98.28,2.59 98.32,2.61 98.36,2.62 98.4,2.64 98.43,2.66 98.47,2.67 98.51,2.69 98.54,2.71 98.57,2.72 98.6,2.74 
			98.64,2.76 98.67,2.78 98.7,2.81 98.73,2.83 98.75,2.85 98.78,2.87 98.81,2.89 98.83,2.92 98.86,2.94 98.88,2.97 98.9,2.99 
			98.92,3.02 98.94,3.05 98.96,3.07 98.98,3.1 99,3.13 99.02,3.16 99.03,3.19 99.05,3.22 99.06,3.25 99.08,3.28 99.09,3.32 
			99.1,3.35 99.11,3.38 99.12,3.42 99.13,3.45 99.14,3.49 99.15,3.52 99.15,3.56 99.16,3.61 99.17,3.65 99.17,3.69 99.17,3.73 
			99.17,3.77 99.18,3.81 99.18,3.85 99.18,3.89 99.17,3.94 99.17,3.98 99.17,4.02 99.17,4.06 99.16,4.11 99.15,4.15 99.15,4.19 
			99.14,4.23 99.13,4.27 99.12,4.3 99.11,4.34 99.1,4.38 99.09,4.41 99.08,4.45 99.06,4.48 99.05,4.52 99.03,4.55 99.02,4.58 
			99,4.61 98.98,4.64 98.96,4.67 98.94,4.7 98.92,4.73 98.9,4.76 98.88,4.79 98.86,4.81 98.83,4.84 98.81,4.87 98.78,4.89 
			98.75,4.92 98.73,4.94 98.7,4.96 98.67,4.99 98.64,5.01 98.61,5.03 98.57,5.05 98.54,5.07 98.51,5.09 98.48,5.11 98.44,5.13 
			98.4,5.15 98.37,5.16 98.33,5.18 98.29,5.19 98.25,5.21 98.21,5.22 98.17,5.23 98.13,5.25 98.08,5.26 98.04,5.27 97.99,5.28 
			97.95,5.29 97.9,5.3 97.86,5.3 97.81,5.31 97.76,5.32 97.71,5.32 97.6,5.33 97.5,5.33 97.39,5.34 95.22,5.34 95.22,6.66 
			97.15,6.66 99.44,10.31 101.26,10.31 		"/>
	</g>
</g>
</svg>
