<?xml version="1.0" encoding="utf-8"?>
<!-- Generator: Adobe Illustrator 24.3.0, SVG Export Plug-In . SVG Version: 6.00 Build 0)  -->
<svg version="1.1" id="레이어_1" xmlns="http://www.w3.org/2000/svg" xmlns:xlink="http://www.w3.org/1999/xlink" x="0px"
	 y="0px" viewBox="0 0 41 45" enable-background="new 0 0 41 45" xml:space="preserve">
<g>
	<polygon fill-rule="evenodd" clip-rule="evenodd" fill="#112123" points="26,10.66 29.99,3.75 30.36,4 30.73,4.27 31.09,4.54 
		31.45,4.82 31.79,5.11 32.13,5.41 32.46,5.72 32.78,6.04 33.09,6.37 33.4,6.7 33.69,7.05 33.98,7.4 34.26,7.75 34.52,8.12 
		34.78,8.49 35.02,8.87 35.26,9.26 35.49,9.65 35.7,10.05 35.91,10.45 36.1,10.86 36.28,11.28 36.45,11.69 36.61,12.12 36.76,12.54 
		36.9,12.98 37.02,13.41 37.14,13.85 37.24,14.29 37.33,14.73 37.41,15.18 37.47,15.63 37.53,16.08 37.57,16.53 37.6,16.98 
		37.62,17.43 37.62,17.88 37.62,18.33 37.6,18.79 37.57,19.24 37.53,19.69 37.47,20.14 37.4,20.58 37.33,21.03 37.23,21.47 
		37.13,21.91 37.02,22.35 36.89,22.79 36.75,23.22 36.61,23.64 36.44,24.07 36.27,24.49 36.09,24.9 35.9,25.31 35.69,25.71 
		35.48,26.11 35.25,26.5 35.01,26.89 34.77,27.27 34.51,27.64 34.24,28 33.97,28.36 33.68,28.71 33.38,29.05 33.08,29.39 
		32.77,29.72 32.44,30.03 32.11,30.34 31.78,30.64 31.43,30.93 31.07,31.22 30.71,31.49 30.34,31.75 29.97,32 29.59,32.24 
		29.2,32.48 28.8,32.7 28.4,32.91 28,33.11 27.59,33.3 27.17,33.47 26.75,33.64 26.32,33.8 25.89,33.94 25.46,34.07 25.03,34.19 
		24.59,34.3 24.14,34.4 23.7,34.48 23.25,34.56 22.81,34.62 22.36,34.67 21.91,34.7 21.45,34.73 21,34.74 20.55,34.74 20.1,34.73 
		19.64,34.71 19.19,34.67 18.74,34.62 18.3,34.56 17.85,34.49 17.4,34.41 16.96,34.31 16.52,34.2 16.09,34.08 15.65,33.95 
		15.22,33.81 14.8,33.66 14.38,33.49 13.96,33.31 13.55,33.13 13.14,32.93 15.49,28.86 15.73,28.97 15.97,29.07 16.21,29.17 
		16.46,29.27 16.71,29.36 16.97,29.45 17.23,29.53 17.49,29.61 17.75,29.68 18.02,29.74 18.3,29.8 18.57,29.86 18.85,29.9 
		19.13,29.94 19.41,29.98 19.7,30.01 19.99,30.03 20.28,30.04 20.57,30.05 20.86,30.05 21.15,30.05 21.44,30.03 21.74,30.01 
		22.03,29.99 22.32,29.95 22.62,29.91 22.91,29.86 23.2,29.8 23.49,29.74 23.78,29.67 24.07,29.59 24.36,29.51 24.64,29.42 
		24.92,29.32 25.2,29.21 25.48,29.1 25.75,28.98 26.02,28.86 26.28,28.72 26.55,28.59 26.8,28.44 27.06,28.29 27.31,28.14 
		27.55,27.98 27.79,27.81 28.03,27.64 28.26,27.47 28.48,27.29 28.7,27.1 28.91,26.91 29.12,26.72 29.33,26.52 29.52,26.33 
		29.71,26.12 29.9,25.92 30.08,25.71 30.25,25.5 30.42,25.28 30.58,25.07 30.74,24.85 30.89,24.63 31.03,24.41 31.17,24.18 
		31.3,23.96 31.43,23.74 31.55,23.51 31.67,23.28 31.78,23.04 31.89,22.8 31.99,22.56 32.09,22.32 32.18,22.08 32.26,21.83 
		32.34,21.58 32.41,21.33 32.47,21.08 32.53,20.82 32.58,20.57 32.62,20.31 32.66,20.05 32.69,19.79 32.71,19.54 32.72,19.28 
		32.72,19.02 32.72,18.76 32.71,18.5 32.69,18.24 32.67,17.99 32.63,17.73 32.59,17.48 32.54,17.22 32.48,16.97 32.41,16.72 
		32.33,16.48 32.25,16.23 32.16,15.99 32.06,15.75 31.95,15.52 31.84,15.29 31.71,15.06 31.58,14.84 31.45,14.62 31.3,14.4 
		31.15,14.19 30.99,13.98 30.83,13.78 30.66,13.58 30.48,13.39 30.29,13.2 30.11,13.02 29.91,12.84 29.71,12.67 29.51,12.5 
		29.3,12.34 29.08,12.18 28.86,12.03 28.64,11.89 28.41,11.75 28.18,11.61 27.95,11.49 27.71,11.36 27.47,11.25 27.23,11.14 
		26.99,11.03 26.74,10.93 26.5,10.84 26.25,10.75 	"/>
	<polygon fill-rule="evenodd" clip-rule="evenodd" fill="#112123" points="15.51,25.08 11.52,31.99 11.14,31.74 10.77,31.47 
		10.41,31.2 10.06,30.92 9.71,30.63 9.37,30.33 9.04,30.02 8.72,29.7 8.41,29.37 8.11,29.04 7.81,28.7 7.53,28.34 7.25,27.99 
		6.98,27.62 6.73,27.25 6.48,26.87 6.24,26.48 6.02,26.09 5.8,25.69 5.6,25.29 5.41,24.88 5.22,24.47 5.05,24.05 4.89,23.62 
		4.74,23.2 4.61,22.76 4.48,22.33 4.37,21.89 4.27,21.45 4.18,21.01 4.1,20.56 4.03,20.11 3.98,19.67 3.93,19.21 3.9,18.76 
		3.89,18.31 3.88,17.86 3.89,17.41 3.91,16.95 3.94,16.5 3.98,16.05 4.03,15.6 4.1,15.16 4.18,14.71 4.27,14.27 4.37,13.83 
		4.49,13.39 4.61,12.95 4.75,12.52 4.9,12.1 5.06,11.67 5.23,11.25 5.42,10.84 5.61,10.43 5.81,10.03 6.03,9.63 6.26,9.24 
		6.49,8.85 6.74,8.47 7,8.1 7.26,7.74 7.54,7.38 7.83,7.03 8.12,6.69 8.43,6.35 8.74,6.02 9.06,5.71 9.39,5.4 9.73,5.1 10.08,4.81 
		10.43,4.52 10.79,4.25 11.16,3.99 11.54,3.74 11.92,3.5 12.31,3.26 12.7,3.04 13.1,2.83 13.51,2.63 13.92,2.44 14.34,2.27 
		14.76,2.1 15.18,1.95 15.61,1.8 16.04,1.67 16.48,1.55 16.92,1.44 17.36,1.34 17.8,1.26 18.25,1.19 18.7,1.12 19.15,1.08 
		19.6,1.04 20.05,1.01 20.5,1 20.96,1 21.41,1.01 21.86,1.04 22.31,1.07 22.76,1.12 23.21,1.18 23.66,1.25 24.1,1.33 24.54,1.43 
		24.98,1.54 25.42,1.66 25.85,1.79 26.28,1.93 26.71,2.08 27.13,2.25 27.54,2.43 27.96,2.61 28.36,2.81 26.01,6.88 25.78,6.77 
		25.54,6.67 25.29,6.57 25.05,6.47 24.79,6.38 24.54,6.29 24.28,6.21 24.02,6.13 23.75,6.06 23.48,6 23.21,5.94 22.93,5.89 
		22.66,5.84 22.37,5.8 22.09,5.76 21.81,5.73 21.52,5.71 21.23,5.7 20.94,5.69 20.65,5.69 20.36,5.69 20.06,5.71 19.77,5.73 
		19.48,5.76 19.18,5.79 18.89,5.83 18.6,5.88 18.3,5.94 18.01,6 17.72,6.07 17.43,6.15 17.15,6.23 16.86,6.33 16.58,6.42 16.3,6.53 
		16.03,6.64 15.76,6.76 15.49,6.89 15.22,7.02 14.96,7.15 14.7,7.3 14.45,7.45 14.2,7.6 13.95,7.76 13.71,7.93 13.48,8.1 
		13.25,8.27 13.02,8.45 12.8,8.64 12.59,8.83 12.38,9.02 12.18,9.22 11.98,9.42 11.79,9.62 11.61,9.82 11.43,10.03 11.25,10.24 
		11.08,10.46 10.92,10.67 10.77,10.89 10.62,11.11 10.47,11.33 10.33,11.56 10.2,11.78 10.08,12 9.95,12.23 9.84,12.47 9.72,12.7 
		9.62,12.94 9.52,13.18 9.42,13.42 9.33,13.66 9.25,13.91 9.17,14.16 9.1,14.41 9.03,14.66 8.98,14.92 8.93,15.17 8.88,15.43 
		8.85,15.69 8.82,15.95 8.8,16.2 8.79,16.46 8.78,16.72 8.78,16.98 8.79,17.24 8.81,17.5 8.84,17.75 8.87,18.01 8.92,18.26 
		8.97,18.52 9.03,18.77 9.1,19.02 9.17,19.26 9.25,19.51 9.35,19.75 9.45,19.99 9.55,20.22 9.67,20.45 9.79,20.68 9.92,20.9 
		10.06,21.12 10.2,21.34 10.35,21.55 10.51,21.76 10.68,21.96 10.85,22.16 11.03,22.35 11.21,22.54 11.4,22.72 11.59,22.9 
		11.79,23.07 12,23.24 12.21,23.4 12.42,23.56 12.64,23.71 12.87,23.85 13.09,23.99 13.32,24.13 13.56,24.25 13.79,24.38 
		14.03,24.49 14.27,24.6 14.52,24.71 14.76,24.81 15.01,24.9 15.26,24.99 	"/>
</g>
<g>
	<path d="M1.92,44.37c-0.23,0-0.43-0.03-0.6-0.09c-0.17-0.06-0.32-0.13-0.45-0.23c-0.13-0.09-0.24-0.19-0.33-0.29l0.19-0.24
		c0.13,0.13,0.29,0.26,0.47,0.37c0.18,0.11,0.42,0.17,0.7,0.17c0.19,0,0.37-0.04,0.51-0.11s0.26-0.18,0.35-0.32
		c0.09-0.14,0.13-0.29,0.13-0.48c0-0.2-0.05-0.36-0.15-0.51c-0.1-0.14-0.26-0.26-0.47-0.34c-0.22-0.08-0.5-0.12-0.85-0.12v-0.3
		c0.33,0,0.59-0.04,0.78-0.12c0.19-0.08,0.32-0.19,0.41-0.33s0.12-0.29,0.12-0.46c0-0.24-0.07-0.42-0.23-0.57
		c-0.15-0.14-0.35-0.21-0.61-0.21c-0.19,0-0.38,0.04-0.54,0.13c-0.17,0.09-0.31,0.2-0.43,0.33l-0.21-0.24
		c0.15-0.15,0.33-0.27,0.52-0.37c0.19-0.1,0.41-0.16,0.66-0.16c0.23,0,0.43,0.04,0.61,0.12c0.18,0.08,0.33,0.2,0.43,0.36
		s0.16,0.35,0.16,0.57c0,0.28-0.08,0.5-0.23,0.67c-0.15,0.17-0.35,0.3-0.58,0.38v0.02c0.17,0.04,0.34,0.11,0.48,0.21
		s0.27,0.23,0.35,0.38c0.09,0.15,0.13,0.33,0.13,0.53c0,0.25-0.06,0.47-0.18,0.65c-0.12,0.18-0.28,0.32-0.48,0.42
		C2.4,44.32,2.18,44.37,1.92,44.37z"/>
	<path d="M4.26,44.29v-4.44H5.3c0.46,0,0.84,0.09,1.14,0.27s0.52,0.43,0.67,0.76c0.15,0.33,0.22,0.72,0.22,1.17
		s-0.07,0.85-0.22,1.18s-0.37,0.59-0.67,0.78s-0.68,0.27-1.13,0.27H4.26z M4.63,43.98h0.64c0.39,0,0.71-0.08,0.96-0.24
		s0.44-0.39,0.55-0.68s0.18-0.63,0.18-1.01c0-0.39-0.06-0.72-0.18-1c-0.12-0.28-0.3-0.5-0.55-0.66c-0.25-0.15-0.57-0.23-0.96-0.23
		H4.63V43.98z"/>
	<path d="M8.35,44.29v-4.44H9.5c0.34,0,0.63,0.04,0.87,0.12c0.24,0.08,0.43,0.21,0.56,0.39c0.13,0.18,0.19,0.43,0.19,0.73
		c0,0.3-0.06,0.54-0.19,0.73c-0.13,0.19-0.31,0.34-0.55,0.44s-0.52,0.15-0.85,0.15H8.72v1.87H8.35z M8.72,42.11h0.74
		c0.44,0,0.76-0.08,0.98-0.23c0.21-0.16,0.32-0.41,0.32-0.77c0-0.36-0.11-0.61-0.33-0.74s-0.55-0.2-0.99-0.2H8.72V42.11z"/>
	<path d="M12.08,44.29v-4.44h1.3c0.3,0,0.55,0.04,0.78,0.12s0.39,0.21,0.52,0.38c0.12,0.17,0.19,0.4,0.19,0.69
		c0,0.27-0.06,0.5-0.19,0.69c-0.12,0.19-0.3,0.33-0.52,0.42c-0.22,0.09-0.48,0.14-0.78,0.14h-0.93v2H12.08z M12.44,41.98h0.85
		c0.38,0,0.67-0.08,0.88-0.23c0.2-0.15,0.3-0.39,0.3-0.71c0-0.32-0.1-0.55-0.3-0.68c-0.2-0.13-0.5-0.2-0.88-0.2h-0.85V41.98z
		 M14.53,44.29l-1.24-2.11l0.33-0.13l1.32,2.24H14.53z"/>
	<path d="M15.78,44.29v-4.44h0.37v4.44H15.78z"/>
	<path d="M17.43,44.29v-4.44h0.38l1.81,3.05l0.5,0.89h0.03c-0.02-0.22-0.03-0.44-0.04-0.66c-0.01-0.22-0.02-0.44-0.02-0.65v-2.63
		h0.35v4.44h-0.38l-1.81-3.05l-0.49-0.89h-0.02c0.01,0.21,0.02,0.43,0.03,0.64c0.01,0.21,0.02,0.43,0.02,0.65v2.66H17.43z"/>
	<path d="M22.68,44.29v-4.12h-1.39v-0.32h3.16v0.32h-1.39v4.12H22.68z"/>
	<path d="M26.63,44.29v-4.44h2.45v0.32H27v1.7h1.76v0.31H27v2.11H26.63z"/>
	<path d="M29.02,44.29l1.55-4.44h0.38l1.56,4.44h-0.39l-0.86-2.59c-0.09-0.26-0.17-0.51-0.25-0.75c-0.08-0.24-0.16-0.5-0.23-0.77
		h-0.02c-0.08,0.27-0.16,0.53-0.23,0.77c-0.08,0.24-0.16,0.5-0.25,0.75l-0.88,2.59H29.02z M29.74,42.81v-0.3h2.01v0.3H29.74z"/>
	<path d="M33.19,44.29v-4.44h1.3c0.3,0,0.55,0.04,0.78,0.12s0.39,0.21,0.52,0.38c0.12,0.17,0.19,0.4,0.19,0.69
		c0,0.27-0.06,0.5-0.19,0.69c-0.12,0.19-0.3,0.33-0.52,0.42c-0.22,0.09-0.48,0.14-0.78,0.14h-0.93v2H33.19z M33.56,41.98h0.85
		c0.38,0,0.67-0.08,0.88-0.23c0.2-0.15,0.3-0.39,0.3-0.71c0-0.32-0.1-0.55-0.3-0.68c-0.2-0.13-0.5-0.2-0.88-0.2h-0.85V41.98z
		 M35.65,44.29l-1.24-2.11l0.33-0.13l1.32,2.24H35.65z"/>
	<path d="M36.89,44.29v-4.44h0.49l0.91,2.55c0.06,0.16,0.11,0.32,0.17,0.48c0.06,0.16,0.12,0.33,0.18,0.49h0.02
		c0.06-0.16,0.11-0.33,0.17-0.49c0.05-0.17,0.11-0.33,0.16-0.48l0.91-2.55h0.49v4.44h-0.35v-2.81c0-0.13,0-0.26,0.01-0.4
		c0-0.14,0.01-0.28,0.02-0.43c0.01-0.14,0.01-0.28,0.02-0.4h-0.02l-0.35,0.99l-0.93,2.57h-0.29l-0.94-2.57l-0.35-0.99h-0.02
		c0.01,0.12,0.02,0.25,0.03,0.4c0.01,0.14,0.01,0.29,0.02,0.43c0,0.14,0.01,0.27,0.01,0.4v2.81H36.89z"/>
</g>
</svg>
