<?xml version="1.0" encoding="utf-8"?>
<!-- Generator: Adobe Illustrator 24.3.0, SVG Export Plug-In . SVG Version: 6.00 Build 0)  -->
<svg version="1.1" id="레이어_1" xmlns="http://www.w3.org/2000/svg" xmlns:xlink="http://www.w3.org/1999/xlink" x="0px"
	 y="0px" viewBox="0 0 560 125" enable-background="new 0 0 560 125" xml:space="preserve">
<g>
	<g id="HATCH_2_">
		<polygon fill-rule="evenodd" clip-rule="evenodd" fill="#F4F4F4" points="25.77,83.15 25.77,42.41 32.74,42.41 32.74,77.15 
			52.48,77.15 52.48,83.15 		"/>
	</g>
	<g id="HATCH_3_">
		<polygon fill-rule="evenodd" clip-rule="evenodd" fill="#F4F4F4" points="502.55,83.15 502.55,42.41 533.86,42.41 533.86,48.41 
			509.52,48.41 509.52,59.27 532.2,59.27 532.2,65.21 509.52,65.21 509.52,77.15 535,77.15 535,83.15 		"/>
	</g>
	<g id="HATCH_4_">
		<polygon fill-rule="evenodd" clip-rule="evenodd" fill="#F4F4F4" points="387.97,54.18 387.59,53.21 387.21,52.19 386.45,49.97 
			385.76,51.95 384.93,54.22 373.62,83.15 366.32,83.15 382.94,42.41 390.09,42.41 406.46,83.15 399.24,83.15 394.77,71.73 
			380.61,71.73 382.88,65.92 392.54,65.92 		"/>
	</g>
	<g id="HATCH_5_">
		<polygon fill-rule="evenodd" clip-rule="evenodd" fill="#F4F4F4" points="245.86,53.82 250.81,45.24 251.41,45.65 252,46.08 
			252.57,46.53 253.13,47 253.67,47.49 254.2,48 254.7,48.53 255.19,49.07 255.65,49.63 256.1,50.21 256.53,50.8 256.94,51.4 
			257.32,52.02 257.68,52.66 258.03,53.3 258.34,53.96 258.64,54.62 258.91,55.3 259.16,55.99 259.38,56.68 259.58,57.38 
			259.76,58.09 259.91,58.8 260.03,59.52 260.13,60.24 260.21,60.97 260.26,61.7 260.28,62.43 260.28,63.16 260.26,63.89 
			260.21,64.61 260.13,65.34 260.03,66.06 259.9,66.78 259.75,67.49 259.57,68.2 259.37,68.9 259.14,69.59 258.89,70.28 
			258.62,70.96 258.32,71.62 258,72.28 257.66,72.92 257.3,73.55 256.91,74.17 256.5,74.78 256.07,75.37 255.63,75.94 255.16,76.5 
			254.67,77.04 254.16,77.57 253.64,78.07 253.1,78.56 252.54,79.03 251.96,79.48 251.37,79.91 250.77,80.32 250.15,80.71 
			249.52,81.07 248.88,81.41 248.22,81.74 247.56,82.03 246.88,82.31 246.19,82.56 245.5,82.78 244.8,82.99 244.09,83.16 
			243.38,83.32 242.66,83.44 241.94,83.55 241.21,83.63 240.49,83.68 239.76,83.71 239.03,83.71 238.3,83.68 237.57,83.63 
			236.85,83.56 236.12,83.46 235.41,83.33 234.69,83.19 233.98,83.01 233.28,82.81 232.59,82.59 231.9,82.34 231.22,82.07 
			230.56,81.78 229.9,81.46 232.82,76.41 233.11,76.54 233.41,76.67 233.71,76.8 234.02,76.92 234.33,77.03 234.65,77.14 
			234.97,77.24 235.29,77.34 235.62,77.42 235.96,77.5 236.3,77.58 236.64,77.64 236.98,77.7 237.33,77.75 237.68,77.8 
			238.04,77.83 238.4,77.86 238.75,77.88 239.11,77.89 239.48,77.89 239.84,77.88 240.2,77.86 240.57,77.84 240.93,77.81 
			241.3,77.76 241.66,77.71 242.02,77.65 242.39,77.58 242.75,77.5 243.11,77.41 243.46,77.32 243.82,77.21 244.17,77.1 
			244.52,76.98 244.87,76.84 245.21,76.71 245.55,76.56 245.88,76.4 246.21,76.24 246.54,76.07 246.86,75.89 247.17,75.71 
			247.48,75.51 247.79,75.31 248.08,75.11 248.37,74.9 248.66,74.68 248.94,74.46 249.21,74.23 249.48,73.99 249.74,73.75 
			249.99,73.51 250.23,73.26 250.47,73.01 250.7,72.75 250.92,72.5 251.14,72.23 251.35,71.97 251.55,71.7 251.74,71.43 
			251.93,71.16 252.11,70.88 252.28,70.61 252.44,70.33 252.6,70.05 252.75,69.76 252.9,69.48 253.04,69.19 253.17,68.89 
			253.29,68.59 253.41,68.29 253.52,67.99 253.63,67.68 253.72,67.37 253.81,67.06 253.89,66.75 253.96,66.43 254.03,66.11 
			254.08,65.8 254.12,65.48 254.16,65.16 254.18,64.84 254.2,64.51 254.21,64.19 254.2,63.87 254.19,63.55 254.17,63.23 
			254.13,62.91 254.09,62.59 254.04,62.28 253.97,61.97 253.9,61.65 253.82,61.35 253.72,61.04 253.62,60.74 253.5,60.44 
			253.38,60.14 253.25,59.85 253.1,59.56 252.95,59.28 252.79,59 252.62,58.73 252.44,58.46 252.25,58.2 252.06,57.94 251.85,57.69 
			251.64,57.44 251.42,57.2 251.19,56.97 250.96,56.74 250.71,56.52 250.47,56.31 250.21,56.1 249.95,55.9 249.68,55.71 
			249.41,55.52 249.14,55.34 248.85,55.17 248.57,55 248.28,54.84 247.99,54.69 247.69,54.55 247.39,54.41 247.09,54.28 
			246.78,54.15 246.48,54.04 246.17,53.93 		"/>
	</g>
	<g id="HATCH_6_">
		<polygon fill-rule="evenodd" clip-rule="evenodd" fill="#F4F4F4" points="232.84,71.71 227.88,80.29 227.28,79.88 226.69,79.45 
			226.12,79 225.56,78.53 225.02,78.04 224.5,77.53 223.99,77.01 223.51,76.46 223.04,75.9 222.59,75.33 222.16,74.74 221.76,74.13 
			221.37,73.51 221.01,72.88 220.67,72.24 220.35,71.58 220.05,70.91 219.78,70.24 219.53,69.55 219.31,68.86 219.11,68.15 
			218.93,67.45 218.78,66.73 218.66,66.01 218.56,65.29 218.48,64.57 218.43,63.84 218.41,63.11 218.41,62.38 218.44,61.65 
			218.49,60.92 218.56,60.2 218.67,59.48 218.79,58.76 218.95,58.04 219.12,57.34 219.32,56.64 219.55,55.94 219.8,55.26 
			220.07,54.58 220.37,53.91 220.69,53.26 221.03,52.61 221.4,51.98 221.78,51.36 222.19,50.76 222.62,50.17 223.07,49.59 
			223.54,49.04 224.02,48.49 224.53,47.97 225.05,47.46 225.6,46.97 226.15,46.5 226.73,46.05 227.32,45.63 227.92,45.22 
			228.54,44.83 229.17,44.46 229.82,44.12 230.47,43.8 231.14,43.5 231.81,43.23 232.5,42.98 233.19,42.75 233.89,42.55 
			234.6,42.37 235.31,42.22 236.03,42.09 236.75,41.99 237.48,41.91 238.21,41.86 238.93,41.83 239.66,41.83 240.39,41.85 
			241.12,41.9 241.85,41.98 242.57,42.08 243.29,42.2 244,42.35 244.71,42.53 245.41,42.72 246.11,42.95 246.79,43.2 247.47,43.47 
			248.14,43.76 248.79,44.08 245.88,49.13 245.58,48.99 245.29,48.86 244.98,48.74 244.68,48.62 244.36,48.5 244.05,48.4 
			243.72,48.3 243.4,48.2 243.07,48.11 242.73,48.03 242.4,47.96 242.05,47.89 241.71,47.83 241.36,47.78 241.01,47.74 240.65,47.7 
			240.3,47.68 239.94,47.66 239.58,47.65 239.22,47.65 238.85,47.66 238.49,47.67 238.13,47.7 237.76,47.73 237.4,47.77 
			237.03,47.83 236.67,47.89 236.31,47.96 235.94,48.04 235.59,48.12 235.23,48.22 234.87,48.32 234.52,48.44 234.17,48.56 
			233.83,48.69 233.48,48.83 233.14,48.98 232.81,49.13 232.48,49.3 232.16,49.47 231.84,49.65 231.52,49.83 231.21,50.02 
			230.91,50.22 230.61,50.43 230.32,50.64 230.03,50.86 229.75,51.08 229.48,51.31 229.22,51.54 228.96,51.78 228.71,52.03 
			228.46,52.27 228.22,52.53 227.99,52.78 227.77,53.04 227.55,53.3 227.35,53.57 227.15,53.84 226.95,54.11 226.77,54.38 
			226.59,54.65 226.42,54.93 226.25,55.21 226.09,55.49 225.94,55.77 225.8,56.06 225.66,56.35 225.52,56.65 225.4,56.94 
			225.28,57.24 225.17,57.55 225.06,57.85 224.97,58.16 224.88,58.48 224.8,58.79 224.73,59.1 224.67,59.42 224.61,59.74 
			224.57,60.06 224.53,60.38 224.51,60.7 224.49,61.02 224.49,61.34 224.49,61.67 224.5,61.99 224.53,62.31 224.56,62.62 
			224.6,62.94 224.66,63.26 224.72,63.57 224.79,63.88 224.88,64.19 224.97,64.5 225.08,64.8 225.19,65.1 225.31,65.39 
			225.45,65.69 225.59,65.97 225.74,66.26 225.9,66.53 226.07,66.81 226.25,67.08 226.44,67.34 226.64,67.6 226.84,67.85 
			227.05,68.09 227.27,68.33 227.5,68.57 227.74,68.79 227.98,69.01 228.23,69.23 228.48,69.43 228.74,69.63 229.01,69.83 
			229.28,70.02 229.56,70.19 229.84,70.37 230.12,70.53 230.41,70.69 230.71,70.84 231,70.99 231.3,71.13 231.61,71.26 
			231.91,71.38 232.22,71.5 232.53,71.61 		"/>
	</g>
	<g id="HATCH_7_">
		<polygon fill-rule="evenodd" clip-rule="evenodd" fill="#F4F4F4" points="99.99,83.71 100.92,83.69 101.38,83.67 101.84,83.65 
			102.3,83.61 102.76,83.56 103.22,83.51 103.68,83.44 104.1,83.38 104.52,83.3 104.94,83.21 105.36,83.12 105.78,83.01 
			106.19,82.9 106.6,82.78 107.01,82.64 107.39,82.51 107.78,82.36 108.15,82.21 108.53,82.04 108.89,81.87 109.26,81.69 
			109.62,81.5 109.97,81.3 110.31,81.1 110.64,80.89 110.96,80.67 111.28,80.44 111.59,80.21 111.9,79.96 112.19,79.71 
			112.49,79.45 112.77,79.18 113.04,78.91 113.3,78.62 113.56,78.33 113.81,78.04 114.05,77.73 114.28,77.42 114.51,77.11 
			114.72,76.78 114.93,76.45 115.13,76.11 115.33,75.76 115.51,75.41 115.68,75.05 115.85,74.68 116,74.31 116.15,73.93 
			116.29,73.54 116.41,73.15 116.53,72.75 116.64,72.35 116.73,71.95 116.82,71.55 116.9,71.14 116.97,70.7 117.03,70.27 
			117.08,69.83 117.12,69.39 117.15,68.95 117.17,68.5 117.19,68.06 117.19,67.62 117.19,42.41 110.25,42.41 110.25,67.32 
			110.24,67.93 110.23,68.24 110.21,68.55 110.18,68.86 110.15,69.17 110.12,69.48 110.07,69.78 110.03,70.05 109.98,70.32 
			109.93,70.59 109.87,70.85 109.8,71.12 109.73,71.38 109.65,71.64 109.56,71.9 109.48,72.13 109.39,72.35 109.3,72.58 109.2,72.8 
			109.09,73.02 108.98,73.24 108.86,73.45 108.73,73.66 108.6,73.86 108.47,74.05 108.34,74.23 108.19,74.42 108.05,74.6 
			107.89,74.77 107.74,74.94 107.57,75.11 107.41,75.27 107.23,75.42 107.06,75.57 106.88,75.72 106.69,75.86 106.5,75.99 
			106.31,76.12 106.11,76.25 105.91,76.37 105.7,76.49 105.48,76.6 105.26,76.7 105.05,76.8 104.82,76.89 104.6,76.98 104.37,77.07 
			104.12,77.15 103.87,77.23 103.62,77.3 103.36,77.36 103.1,77.42 102.85,77.48 102.59,77.52 102.33,77.57 102.03,77.61 
			101.74,77.64 101.45,77.67 101.15,77.7 100.85,77.71 100.56,77.73 99.97,77.74 99.39,77.73 99.11,77.71 98.82,77.7 98.53,77.67 
			98.25,77.65 97.96,77.61 97.68,77.57 97.43,77.53 97.18,77.49 96.93,77.43 96.69,77.38 96.44,77.31 96.2,77.25 95.96,77.17 
			95.72,77.09 95.5,77.01 95.29,76.93 95.08,76.84 94.87,76.74 94.67,76.64 94.47,76.54 94.27,76.42 94.07,76.3 93.89,76.19 
			93.71,76.06 93.54,75.93 93.36,75.8 93.2,75.66 93.03,75.52 92.87,75.37 92.72,75.21 92.57,75.05 92.42,74.89 92.28,74.72 
			92.14,74.55 92.01,74.37 91.88,74.19 91.76,74.01 91.65,73.82 91.53,73.62 91.42,73.41 91.32,73.2 91.22,72.99 91.12,72.78 
			91.04,72.56 90.95,72.34 90.88,72.12 90.8,71.87 90.72,71.61 90.65,71.36 90.59,71.1 90.54,70.85 90.49,70.59 90.44,70.33 
			90.4,70.07 90.36,69.77 90.33,69.47 90.3,69.18 90.28,68.88 90.25,68.28 90.24,67.68 90.24,42.41 83.27,42.41 83.27,68.12 
			83.27,68.55 83.29,68.98 83.31,69.41 83.34,69.84 83.38,70.27 83.43,70.69 83.49,71.12 83.56,71.54 83.63,71.94 83.72,72.33 
			83.81,72.72 83.92,73.1 84.03,73.49 84.16,73.87 84.29,74.25 84.44,74.62 84.59,74.98 84.75,75.33 84.92,75.68 85.1,76.03 
			85.29,76.36 85.48,76.69 85.69,77.02 85.9,77.33 86.12,77.64 86.35,77.94 86.59,78.23 86.83,78.52 87.08,78.8 87.34,79.07 
			87.61,79.34 87.88,79.6 88.16,79.85 88.46,80.1 88.75,80.33 89.06,80.56 89.37,80.78 89.68,80.99 90.01,81.19 90.33,81.39 
			90.68,81.58 91.03,81.77 91.38,81.94 91.74,82.11 92.11,82.26 92.47,82.41 92.84,82.55 93.22,82.68 93.61,82.81 94.01,82.93 
			94.41,83.04 94.81,83.14 95.22,83.23 95.62,83.31 96.03,83.39 96.44,83.45 96.88,83.52 97.33,83.57 97.77,83.61 98.21,83.65 
			98.66,83.68 99.1,83.69 		"/>
	</g>
	<g id="HATCH_8_">
		<polygon fill-rule="evenodd" clip-rule="evenodd" fill="#F4F4F4" points="148.95,62.6 148.96,63.56 149,64.52 149.08,65.48 
			149.18,66.43 149.31,67.32 149.39,67.77 149.47,68.21 149.57,68.65 149.67,69.09 149.78,69.53 149.89,69.96 150.01,70.37 
			150.14,70.78 150.28,71.19 150.42,71.59 150.58,71.99 150.74,72.39 150.91,72.79 151.09,73.18 151.26,73.55 151.45,73.92 
			151.65,74.29 151.85,74.65 152.06,75.01 152.28,75.36 152.51,75.7 152.75,76.05 152.98,76.37 153.23,76.69 153.48,77.01 
			153.74,77.32 154.01,77.62 154.28,77.92 154.56,78.2 154.85,78.49 155.14,78.76 155.44,79.03 155.75,79.29 156.06,79.55 
			156.38,79.8 156.71,80.03 157.04,80.27 157.38,80.49 157.73,80.71 158.08,80.93 158.44,81.13 158.81,81.33 159.18,81.52 
			159.55,81.7 159.93,81.87 160.31,82.03 160.71,82.19 161.11,82.35 161.51,82.49 161.92,82.62 162.33,82.75 162.74,82.87 
			163.16,82.98 163.58,83.08 164.02,83.17 164.47,83.26 164.91,83.34 165.36,83.42 165.81,83.48 166.26,83.53 167.17,83.62 
			168.12,83.68 169.08,83.71 169.95,83.71 170.81,83.68 171.63,83.64 172.44,83.57 173.25,83.48 174.06,83.37 174.85,83.24 
			175.63,83.08 176.4,82.9 177.17,82.7 177.92,82.48 178.66,82.24 179.4,81.98 180.12,81.69 180.82,81.39 181.5,81.07 182.18,80.73 
			182.84,80.36 183.48,79.99 184.09,79.6 184.7,79.18 185,78.97 185.29,78.74 185.86,78.3 186.13,78.06 186.41,77.83 186.67,77.58 
			186.94,77.34 187.2,77.09 187.46,76.83 187.7,76.59 187.7,61.93 169.47,61.93 169.47,68.04 181.14,68.04 181.14,73.89 
			180.94,74.06 180.74,74.23 180.54,74.4 180.33,74.56 180.11,74.71 179.9,74.86 179.68,75.01 179.46,75.15 179.21,75.3 
			178.96,75.44 178.71,75.58 178.45,75.72 178.19,75.85 177.93,75.97 177.67,76.09 177.41,76.2 177.12,76.32 176.82,76.44 
			176.23,76.65 175.91,76.76 175.58,76.87 175.25,76.96 174.92,77.05 174.58,77.14 174.24,77.22 173.9,77.3 173.56,77.36 
			172.86,77.48 172.17,77.58 171.45,77.65 170.72,77.7 170,77.73 169.27,77.73 168.65,77.72 168.03,77.68 167.73,77.65 
			167.42,77.62 167.11,77.59 166.8,77.54 166.52,77.5 166.24,77.44 165.96,77.39 165.69,77.32 165.41,77.26 165.14,77.18 
			164.86,77.1 164.59,77.02 164.34,76.93 164.08,76.84 163.84,76.74 163.59,76.64 163.34,76.53 163.1,76.41 162.86,76.29 
			162.62,76.17 162.39,76.04 162.17,75.9 161.95,75.76 161.73,75.62 161.51,75.47 161.3,75.31 161.09,75.15 160.89,74.99 
			160.68,74.82 160.48,74.64 160.29,74.46 160.09,74.27 159.91,74.08 159.72,73.88 159.54,73.68 159.37,73.48 159.2,73.27 
			159.03,73.05 158.86,72.83 158.7,72.61 158.55,72.39 158.4,72.16 158.25,71.92 158.11,71.69 157.98,71.44 157.84,71.19 
			157.71,70.94 157.59,70.69 157.47,70.43 157.36,70.17 157.25,69.91 157.15,69.65 157.05,69.36 156.95,69.08 156.86,68.79 
			156.77,68.51 156.69,68.22 156.61,67.93 156.47,67.34 156.41,67.02 156.35,66.7 156.24,66.06 156.16,65.42 156.09,64.77 
			156.04,64.07 156.01,63.38 156,62.65 156.01,61.93 156.03,61.25 156.08,60.57 156.14,59.89 156.22,59.21 156.31,58.59 
			156.42,57.98 156.55,57.38 156.63,57.07 156.71,56.77 156.78,56.5 156.87,56.23 156.95,55.96 157.05,55.69 157.14,55.42 
			157.25,55.15 157.35,54.89 157.47,54.63 157.58,54.39 157.7,54.15 157.82,53.91 157.94,53.68 158.08,53.44 158.21,53.21 
			158.35,52.99 158.5,52.77 158.65,52.55 158.8,52.35 158.95,52.14 159.11,51.94 159.28,51.74 159.45,51.55 159.62,51.36 
			159.8,51.17 159.98,51 160.16,50.82 160.34,50.66 160.54,50.49 160.73,50.33 160.93,50.18 161.13,50.03 161.34,49.89 
			161.55,49.75 161.76,49.61 161.98,49.48 162.21,49.36 162.43,49.24 162.66,49.13 162.89,49.02 163.12,48.91 163.37,48.81 
			163.62,48.72 163.87,48.63 164.12,48.54 164.38,48.46 164.65,48.38 164.91,48.31 165.18,48.25 165.47,48.18 165.76,48.12 
			166.05,48.07 166.34,48.02 166.63,47.98 166.92,47.95 167.51,47.89 168.14,47.85 168.78,47.83 169.18,47.83 169.57,47.83 
			169.97,47.84 170.36,47.86 170.74,47.89 171.11,47.92 171.48,47.96 171.86,48.01 172.23,48.07 172.6,48.13 172.96,48.2 
			173.33,48.29 173.65,48.37 173.97,48.46 174.28,48.55 174.59,48.66 174.9,48.77 175.21,48.9 175.51,49.03 175.8,49.17 
			176.1,49.32 176.24,49.4 176.38,49.49 176.52,49.57 176.66,49.66 176.8,49.75 176.94,49.84 177.06,49.93 177.19,50.02 
			177.31,50.11 177.43,50.21 177.67,50.4 177.9,50.61 178.12,50.82 178.34,51.04 178.55,51.27 178.75,51.5 178.96,51.76 
			179.16,52.03 179.36,52.3 179.54,52.58 179.72,52.86 179.89,53.15 180.05,53.45 180.2,53.74 180.52,54.37 181.19,54.17 
			187.16,52.4 186.76,51.52 186.51,50.99 186.24,50.47 185.96,49.95 185.67,49.45 185.37,48.98 185.05,48.51 184.72,48.06 
			184.55,47.84 184.37,47.62 184.2,47.41 184.02,47.21 183.84,47.01 183.66,46.81 183.47,46.62 183.28,46.42 183.08,46.24 
			182.89,46.05 182.69,45.88 182.48,45.7 182.28,45.53 182.07,45.37 181.86,45.21 181.64,45.05 181.42,44.89 181.2,44.75 
			180.98,44.6 180.75,44.46 180.52,44.32 180.29,44.19 179.85,43.95 179.39,43.73 178.93,43.52 178.46,43.33 177.93,43.13 
			177.38,42.94 176.83,42.78 176.28,42.63 175.68,42.48 175.08,42.35 174.48,42.24 173.87,42.14 173.21,42.06 172.56,41.98 
			171.9,41.93 171.24,41.88 170.54,41.85 169.84,41.83 168.63,41.83 167.65,41.87 166.68,41.93 166.19,41.97 165.7,42.03 
			165.22,42.09 164.73,42.16 164.28,42.24 163.84,42.32 163.39,42.42 162.95,42.52 162.51,42.63 162.07,42.75 161.64,42.88 
			161.21,43.02 160.8,43.16 160.4,43.31 160,43.47 159.61,43.63 159.21,43.81 158.83,44 158.45,44.19 158.07,44.4 157.71,44.61 
			157.35,44.83 157,45.05 156.65,45.29 156.31,45.53 155.98,45.78 155.65,46.04 155.33,46.31 155.02,46.59 154.71,46.87 
			154.41,47.17 154.12,47.47 153.84,47.77 153.56,48.09 153.29,48.41 153.03,48.73 152.77,49.07 152.53,49.42 152.29,49.77 
			152.06,50.12 151.84,50.48 151.63,50.85 151.43,51.22 151.23,51.59 151.04,51.99 150.86,52.39 150.69,52.79 150.52,53.2 
			150.37,53.61 150.22,54.03 150.08,54.45 149.96,54.87 149.83,55.32 149.71,55.77 149.61,56.23 149.51,56.69 149.42,57.15 
			149.34,57.61 149.26,58.07 149.2,58.54 149.14,59.04 149.08,59.55 149.01,60.57 148.96,61.58 		"/>
	</g>
	<g id="HATCH_9_">
		<polygon fill-rule="evenodd" clip-rule="evenodd" fill="#F4F4F4" points="315.66,57.72 322.59,83.15 330.18,83.15 342.18,42.41 
			334.91,42.41 334.74,43.02 327.16,70.43 326.94,71.3 326.31,73.98 324.65,67.35 317.69,42.41 311.34,42.41 311.17,43.02 
			303.69,69.94 303.47,70.81 302.75,73.83 301.25,67.84 294.06,42.41 286.79,42.41 298.79,83.15 306.38,83.15 306.54,82.54 
			313.9,55.62 314.12,54.72 314.51,53.03 314.83,54.44 315.28,56.31 		"/>
	</g>
	<g id="HATCH_10_">
		<polygon fill-rule="evenodd" clip-rule="evenodd" fill="#F4F4F4" points="442.31,66.93 442.31,61.07 442.31,48.33 442.31,42.41 
			435.34,42.41 435.34,83.15 442.31,83.15 		"/>
	</g>
	<g id="HATCH_11_">
		<polygon fill-rule="evenodd" clip-rule="evenodd" fill="#F4F4F4" points="460.18,66.05 460.57,65.94 460.96,65.83 461.34,65.7 
			461.72,65.56 462.09,65.42 462.46,65.26 462.83,65.08 463.18,64.9 463.41,64.77 463.64,64.64 463.87,64.5 464.09,64.36 
			464.31,64.21 464.52,64.06 464.73,63.9 464.94,63.74 465.14,63.58 465.34,63.4 465.54,63.23 465.73,63.05 465.91,62.87 
			466.09,62.68 466.27,62.48 466.44,62.29 466.61,62.09 466.77,61.88 466.93,61.68 467.08,61.47 467.23,61.25 467.37,61.03 
			467.51,60.81 467.64,60.59 467.77,60.36 467.89,60.13 468.01,59.9 468.12,59.67 468.22,59.43 468.32,59.19 468.41,58.95 
			468.5,58.7 468.59,58.45 468.66,58.2 468.74,57.94 468.8,57.68 468.86,57.43 468.92,57.17 468.97,56.9 469.01,56.64 469.05,56.37 
			469.09,56.09 469.12,55.81 469.14,55.54 469.16,55.26 469.17,54.98 469.18,54.7 469.18,54.42 469.18,54.09 469.17,53.76 
			469.15,53.42 469.13,53.09 469.09,52.76 469.05,52.43 469,52.1 468.94,51.77 468.88,51.47 468.81,51.17 468.73,50.86 
			468.64,50.56 468.55,50.27 468.45,49.97 468.34,49.68 468.22,49.4 468.09,49.12 467.96,48.85 467.81,48.58 467.67,48.32 
			467.51,48.06 467.34,47.81 467.17,47.56 466.99,47.31 466.8,47.07 466.6,46.84 466.4,46.61 466.19,46.38 465.97,46.17 
			465.75,45.96 465.52,45.75 465.29,45.55 465.04,45.35 464.78,45.16 464.52,44.98 464.26,44.8 463.99,44.63 463.71,44.47 
			463.43,44.31 463.15,44.16 462.85,44.01 462.54,43.87 462.23,43.74 461.92,43.61 461.61,43.49 461.29,43.38 460.97,43.28 
			460.64,43.18 460.29,43.08 459.94,42.99 459.58,42.91 459.22,42.83 458.86,42.77 458.5,42.7 457.78,42.6 457.38,42.55 
			456.98,42.51 456.18,42.45 455.37,42.42 454.56,42.41 444.64,42.41 444.64,48.33 454.04,48.33 454.53,48.33 455.01,48.35 
			455.5,48.39 455.99,48.43 456.41,48.49 456.83,48.56 457.04,48.6 457.25,48.64 457.46,48.69 457.66,48.75 457.84,48.8 
			458.02,48.85 458.2,48.91 458.37,48.97 458.55,49.03 458.72,49.1 458.89,49.17 459.06,49.25 459.21,49.32 459.36,49.4 
			459.5,49.48 459.65,49.57 459.79,49.65 459.92,49.75 460.06,49.84 460.19,49.94 460.31,50.04 460.43,50.13 460.54,50.24 
			460.65,50.34 460.76,50.45 460.87,50.56 460.97,50.67 461.06,50.79 461.15,50.91 461.24,51.03 461.32,51.16 461.4,51.28 
			461.48,51.41 461.55,51.54 461.61,51.68 461.68,51.81 461.74,51.96 461.8,52.11 461.85,52.26 461.9,52.41 461.95,52.57 
			461.99,52.72 462.02,52.88 462.05,53.03 462.09,53.21 462.11,53.39 462.14,53.57 462.15,53.75 462.17,53.93 462.18,54.11 
			462.18,54.3 462.18,54.48 462.18,54.67 462.18,54.86 462.17,55.05 462.15,55.24 462.14,55.43 462.11,55.61 462.09,55.8 
			462.05,55.99 462.02,56.15 461.99,56.32 461.94,56.48 461.9,56.65 461.85,56.81 461.8,56.97 461.74,57.13 461.68,57.28 
			461.61,57.43 461.55,57.57 461.48,57.71 461.4,57.85 461.32,57.99 461.24,58.12 461.15,58.26 461.06,58.38 460.96,58.51 
			460.86,58.64 460.76,58.76 460.65,58.88 460.54,58.99 460.43,59.1 460.31,59.21 460.19,59.32 460.06,59.42 459.93,59.53 
			459.79,59.63 459.65,59.72 459.51,59.82 459.37,59.9 459.23,59.99 459.08,60.07 458.92,60.15 458.75,60.23 458.59,60.31 
			458.42,60.38 458.25,60.44 458.08,60.5 457.9,60.56 457.73,60.62 457.53,60.67 457.33,60.73 457.13,60.78 456.93,60.82 
			456.73,60.86 456.53,60.89 456.33,60.93 456.12,60.96 455.89,60.98 455.66,61.01 455.19,61.04 454.73,61.06 454.26,61.07 
			444.64,61.07 444.64,66.93 453.18,66.93 463.33,83.15 471.45,83.15 		"/>
	</g>
</g>
</svg>
