<?xml version="1.0" encoding="utf-8"?>
<!-- Generator: Adobe Illustrator 24.3.0, SVG Export Plug-In . SVG Version: 6.00 Build 0)  -->
<svg version="1.1" id="레이어_1" xmlns="http://www.w3.org/2000/svg" xmlns:xlink="http://www.w3.org/1999/xlink" x="0px"
	 y="0px" viewBox="0 0 218 206" enable-background="new 0 0 218 206" xml:space="preserve">
<g>
	<g id="HATCH_5_">
		<polygon fill-rule="evenodd" clip-rule="evenodd" fill="#252523" points="139.05,64.6 158.3,31.26 160.64,32.85 162.93,34.53 
			165.15,36.28 167.32,38.11 169.42,40.01 171.45,41.98 173.42,44.03 175.31,46.14 177.12,48.31 178.86,50.55 180.52,52.85 
			182.1,55.2 183.6,57.61 185.01,60.07 186.33,62.57 187.57,65.12 188.72,67.71 189.77,70.34 190.74,73.01 191.61,75.7 
			192.39,78.43 193.07,81.18 193.65,83.95 194.14,86.74 194.53,89.55 194.82,92.37 195.02,95.2 195.11,98.03 195.11,100.86 
			195.01,103.69 194.81,106.52 194.51,109.34 194.11,112.14 193.62,114.93 193.03,117.71 192.34,120.46 191.56,123.18 
			190.68,125.87 189.71,128.54 188.65,131.16 187.49,133.75 186.25,136.3 184.92,138.8 183.5,141.26 182,143.66 180.42,146.01 
			178.75,148.3 177.01,150.54 175.19,152.71 173.29,154.81 171.32,156.85 169.29,158.82 167.18,160.72 165.01,162.54 162.78,164.29 
			160.49,165.96 158.14,167.54 155.74,169.05 153.29,170.47 150.79,171.8 148.24,173.05 145.65,174.2 143.03,175.27 140.37,176.24 
			137.67,177.12 134.95,177.91 132.2,178.6 129.43,179.19 126.64,179.69 123.84,180.09 121.02,180.39 118.19,180.6 115.36,180.7 
			112.53,180.71 109.69,180.61 106.87,180.42 104.05,180.13 101.24,179.75 98.45,179.26 95.67,178.68 92.92,178 90.2,177.23 
			87.5,176.36 84.83,175.4 82.2,174.35 79.61,173.2 77.06,171.97 88.39,152.34 89.53,152.87 90.68,153.38 91.86,153.86 
			93.05,154.33 94.27,154.77 95.5,155.19 96.75,155.58 98.02,155.95 99.3,156.29 100.6,156.61 101.91,156.89 103.24,157.15 
			104.59,157.38 105.94,157.58 107.3,157.74 108.68,157.88 110.06,157.98 111.46,158.06 112.86,158.09 114.26,158.1 115.67,158.07 
			117.09,158.01 118.5,157.91 119.92,157.78 121.34,157.61 122.75,157.41 124.16,157.17 125.57,156.9 126.98,156.59 128.37,156.25 
			129.76,155.88 131.14,155.47 132.51,155.03 133.87,154.55 135.21,154.04 136.54,153.5 137.86,152.93 139.15,152.33 140.44,151.7 
			141.7,151.03 142.94,150.34 144.17,149.62 145.37,148.87 146.55,148.1 147.7,147.3 148.84,146.48 149.95,145.63 151.03,144.76 
			152.09,143.88 153.12,142.97 154.13,142.04 155.1,141.09 156.05,140.13 156.98,139.15 157.87,138.15 158.74,137.15 159.57,136.13 
			160.38,135.1 161.16,134.05 161.92,133 162.64,131.94 163.33,130.88 164,129.8 164.64,128.73 165.25,127.64 165.84,126.54 
			166.41,125.42 166.95,124.29 167.46,123.14 167.95,121.99 168.41,120.82 168.85,119.64 169.25,118.44 169.62,117.24 
			169.97,116.03 170.27,114.81 170.55,113.59 170.79,112.36 171,111.12 171.17,109.88 171.31,108.63 171.41,107.38 171.47,106.14 
			171.5,104.89 171.48,103.64 171.43,102.39 171.34,101.15 171.21,99.91 171.04,98.68 170.84,97.45 170.59,96.24 170.3,95.03 
			169.98,93.83 169.61,92.64 169.21,91.46 168.77,90.3 168.29,89.15 167.77,88.02 167.21,86.9 166.62,85.8 165.99,84.72 
			165.33,83.66 164.63,82.62 163.9,81.6 163.14,80.6 162.34,79.62 161.52,78.66 160.66,77.73 159.78,76.83 158.86,75.94 
			157.92,75.09 156.96,74.26 155.97,73.45 154.96,72.67 153.92,71.92 152.87,71.2 151.8,70.5 150.7,69.83 149.59,69.18 
			148.47,68.57 147.33,67.98 146.18,67.41 145.01,66.88 143.84,66.37 142.65,65.89 141.46,65.43 140.26,65 		"/>
	</g>
	<g id="HATCH_6_">
		<polygon fill-rule="evenodd" clip-rule="evenodd" fill="#252523" points="88.47,134.11 69.22,167.45 66.88,165.85 64.59,164.18 
			62.37,162.43 60.2,160.6 58.1,158.7 56.07,156.72 54.1,154.68 52.21,152.57 50.4,150.39 48.66,148.16 47,145.86 45.42,143.51 
			43.92,141.1 42.51,138.64 41.19,136.14 39.95,133.59 38.8,131 37.75,128.37 36.78,125.7 35.91,123 35.13,120.28 34.45,117.53 
			33.87,114.76 33.38,111.96 32.99,109.16 32.7,106.34 32.5,103.51 32.41,100.68 32.41,97.84 32.51,95.01 32.71,92.19 33.01,89.37 
			33.41,86.56 33.9,83.77 34.49,81 35.18,78.25 35.96,75.53 36.84,72.83 37.81,70.17 38.87,67.54 40.03,64.95 41.27,62.41 
			42.6,59.91 44.02,57.45 45.52,55.05 47.1,52.7 48.77,50.41 50.51,48.17 52.33,46 54.23,43.89 56.2,41.85 58.23,39.88 60.34,37.99 
			62.51,36.16 64.74,34.42 67.03,32.75 69.38,31.16 71.78,29.66 74.23,28.24 76.73,26.9 79.28,25.66 81.87,24.5 84.49,23.44 
			87.15,22.46 89.85,21.58 92.57,20.8 95.32,20.11 98.09,19.51 100.88,19.02 103.68,18.62 106.5,18.32 109.33,18.11 112.16,18.01 
			114.99,18 117.83,18.09 120.65,18.28 123.47,18.57 126.28,18.96 129.07,19.44 131.85,20.03 134.6,20.7 137.32,21.48 140.02,22.35 
			142.69,23.31 145.32,24.36 147.91,25.5 150.46,26.74 139.13,46.37 137.99,45.84 136.84,45.33 135.66,44.84 134.47,44.38 
			133.25,43.93 132.02,43.52 130.77,43.12 129.5,42.75 128.22,42.41 126.92,42.1 125.61,41.81 124.28,41.55 122.93,41.33 
			121.58,41.13 120.22,40.96 118.84,40.83 117.46,40.72 116.06,40.65 114.66,40.61 113.26,40.61 111.85,40.64 110.43,40.7 
			109.02,40.8 107.6,40.93 106.18,41.1 104.77,41.3 103.36,41.53 101.95,41.81 100.54,42.11 99.15,42.45 97.76,42.83 96.38,43.24 
			95.01,43.68 93.65,44.15 92.31,44.66 90.98,45.2 89.66,45.77 88.37,46.38 87.08,47.01 85.82,47.67 84.58,48.37 83.35,49.09 
			82.15,49.83 80.97,50.61 79.82,51.41 78.68,52.23 77.57,53.07 76.49,53.94 75.43,54.83 74.4,55.74 73.4,56.67 72.42,57.62 
			71.47,58.58 70.54,59.56 69.65,60.55 68.78,61.56 67.95,62.58 67.14,63.61 66.36,64.65 65.6,65.7 64.88,66.76 64.19,67.83 
			63.52,68.9 62.88,69.98 62.27,71.07 61.68,72.17 61.11,73.29 60.57,74.42 60.06,75.56 59.57,76.72 59.11,77.89 58.67,79.07 
			58.27,80.26 57.9,81.46 57.56,82.67 57.25,83.89 56.97,85.12 56.73,86.35 56.52,87.59 56.35,88.83 56.21,90.08 56.11,91.32 
			56.05,92.57 56.02,93.82 56.04,95.07 56.09,96.31 56.18,97.56 56.31,98.79 56.48,100.03 56.68,101.25 56.93,102.47 57.22,103.68 
			57.54,104.88 57.91,106.07 58.31,107.24 58.75,108.41 59.23,109.56 59.75,110.69 60.31,111.81 60.9,112.91 61.53,113.99 
			62.19,115.05 62.89,116.09 63.62,117.11 64.38,118.11 65.18,119.09 66,120.04 66.86,120.97 67.74,121.88 68.66,122.76 
			69.6,123.62 70.56,124.45 71.55,125.25 72.56,126.03 73.6,126.79 74.65,127.51 75.72,128.21 76.82,128.88 77.93,129.52 
			79.05,130.14 80.19,130.73 81.34,131.29 82.51,131.83 83.68,132.34 84.87,132.82 86.06,133.27 87.26,133.7 		"/>
	</g>
</g>
</svg>
