<?xml version="1.0" encoding="utf-8"?>
<!-- Generator: Adobe Illustrator 24.3.0, SVG Export Plug-In . SVG Version: 6.00 Build 0)  -->
<svg version="1.1" id="레이어_1" xmlns="http://www.w3.org/2000/svg" xmlns:xlink="http://www.w3.org/1999/xlink" x="0px"
	 y="0px" viewBox="0 0 218 206" enable-background="new 0 0 218 206" xml:space="preserve">
<g>
	<g id="HATCH_13_">
		<path fill-rule="evenodd" clip-rule="evenodd" fill="#D6D6D6" d="M150.25,50.74l14.95-25.9c0.01-0.01,0.01-0.02,0.01-0.02
			c0.01-0.01,0.02-0.02,0.02-0.02c0.01-0.01,0.02-0.02,0.02-0.02c0.02-0.02,0.03-0.03,0.03-0.03c0.01-0.01,0.02-0.02,0.02-0.02
			c0.01-0.01,0.02-0.02,0.02-0.02c0.01-0.01,0.02-0.01,0.02-0.01c0.01-0.01,0.02-0.01,0.02-0.01c0.01-0.01,0.02-0.01,0.02-0.01
			c0.01,0,0.02-0.01,0.02-0.01c0.01,0,0.02-0.01,0.02-0.01c0.01,0,0.03-0.01,0.03-0.01c0.01,0,0.03,0,0.03,0c0.01,0,0.03,0,0.03,0
			c0.01,0,0.03,0,0.03,0c0.01,0,0.03,0,0.03,0c0.01,0,0.03,0,0.03,0c0.01,0,0.03,0.01,0.03,0.01c0.01,0,0.03,0.01,0.03,0.01
			c0.01,0,0.02,0.01,0.02,0.01c0.01,0,0.02,0.01,0.02,0.01c0.01,0.01,0.02,0.01,0.02,0.01c0.01,0.01,0.02,0.01,0.02,0.01
			c0.01,0.01,0.02,0.01,0.02,0.01l0.6,0.45l2.68,2.08l2.61,2.17l2.53,2.26l2.45,2.34l2.37,2.43l2.28,2.51l2.2,2.58l2.11,2.66
			l2.01,2.73l1.92,2.8l1.82,2.86l1.72,2.92l1.62,2.98l1.51,3.04l1.41,3.09l1.3,3.13l1.19,3.18l1.08,3.21l0.97,3.25l0.85,3.28
			l0.74,3.31l0.63,3.33l0.51,3.35l0.39,3.37l0.28,3.38l0.16,3.39l0.04,3.39l-0.07,3.39l-0.19,3.39l-0.31,3.38l-0.43,3.36l-0.54,3.35
			l-0.66,3.33l-0.77,3.3l-0.89,3.27l-1,3.24l-1.11,3.2l-1.22,3.16l-1.33,3.12l-1.44,3.07l-1.54,3.02l-1.64,2.97l-1.75,2.91
			l-1.85,2.84l-1.94,2.78l-2.04,2.71l-2.13,2.64l-2.22,2.56l-2.31,2.48l-2.39,2.4l-2.47,2.32l-2.55,2.23l-2.63,2.14l-2.7,2.05
			l-2.77,1.96l-2.84,1.86l-2.9,1.76l-2.96,1.66l-3.01,1.56l-3.07,1.45l-3.11,1.34l-3.16,1.23l-3.2,1.12l-3.24,1.01l-3.27,0.9
			l-3.3,0.79l-3.32,0.67l-3.34,0.56l-3.36,0.44l-3.38,0.32l-3.38,0.21l-3.39,0.09l-3.39-0.03l-3.39-0.14l-3.38-0.26l-3.37-0.38
			l-3.35-0.49l-3.34-0.61l-3.31-0.72l-3.29-0.84l-3.25-0.95l-3.22-1.06l-3.18-1.17L69,193.8l-0.69-0.3
			c-0.01-0.01-0.02-0.01-0.02-0.01c-0.01-0.01-0.02-0.01-0.02-0.01c-0.01-0.01-0.02-0.01-0.02-0.01c-0.01-0.01-0.02-0.02-0.02-0.02
			c-0.01-0.01-0.02-0.02-0.02-0.02c-0.02-0.02-0.03-0.03-0.03-0.03c-0.01-0.01-0.02-0.02-0.02-0.02c-0.01-0.01-0.02-0.02-0.02-0.02
			c-0.01-0.01-0.01-0.02-0.01-0.02c-0.01-0.01-0.01-0.02-0.01-0.02c-0.01-0.01-0.01-0.02-0.01-0.02c0-0.01-0.01-0.02-0.01-0.02
			c0-0.01-0.01-0.03-0.01-0.03c0-0.01-0.01-0.03-0.01-0.03c0-0.01,0-0.03,0-0.03c0-0.01,0-0.03,0-0.03c0-0.01,0-0.03,0-0.03
			c0-0.01,0-0.03,0-0.03c0-0.01,0-0.03,0-0.03c0-0.01,0.01-0.03,0.01-0.03c0-0.01,0.01-0.03,0.01-0.03c0-0.01,0.01-0.02,0.01-0.02
			c0.01-0.01,0.01-0.02,0.01-0.02c0.01-0.01,0.01-0.02,0.01-0.02l9.3-16.11c0.01-0.01,0.01-0.02,0.01-0.02
			c0.01-0.01,0.02-0.02,0.02-0.02c0.01-0.01,0.02-0.02,0.02-0.02c0.01-0.01,0.02-0.02,0.02-0.02c0.01-0.01,0.02-0.02,0.02-0.02
			c0.01-0.01,0.02-0.02,0.02-0.02c0.01-0.01,0.02-0.01,0.02-0.01c0.01-0.01,0.02-0.01,0.02-0.01c0.01-0.01,0.02-0.01,0.02-0.01
			c0.01-0.01,0.02-0.01,0.02-0.01c0.01,0,0.03-0.01,0.03-0.01c0.01,0,0.03-0.01,0.03-0.01c0.01,0,0.03,0,0.03,0
			c0.01,0,0.03,0,0.03,0c0.01,0,0.03,0,0.03,0c0.01,0,0.03,0,0.03,0c0.01,0,0.03,0,0.03,0c0.01,0,0.03,0,0.03,0
			c0.01,0,0.03,0.01,0.03,0.01c0.01,0,0.03,0.01,0.03,0.01c0.01,0,0.55,0.22,0.55,0.22l2.57,0.97l2.6,0.88l2.63,0.79l2.65,0.7
			l2.68,0.61l2.7,0.51l2.71,0.42l2.72,0.33l2.73,0.23l2.74,0.14l2.74,0.04l2.74-0.06l2.74-0.15l2.73-0.25l2.72-0.34l2.71-0.44
			l2.69-0.53l2.67-0.62l2.65-0.72l2.62-0.81l2.59-0.9l2.56-0.99l2.52-1.08l2.48-1.16l2.44-1.25l2.4-1.33l2.35-1.42l2.3-1.5
			l2.25-1.58l2.19-1.65l2.13-1.73l2.07-1.8l2.01-1.87l1.94-1.94l1.87-2.01l1.8-2.07l1.73-2.13l1.65-2.19l1.57-2.25l1.49-2.3
			l1.41-2.35l0.91-1.63l0.87-1.65l0.83-1.67l0.79-1.69l0.54-1.23l0.52-1.24l0.5-1.25l0.47-1.26l0.49-1.38l0.46-1.39l0.43-1.4
			l0.39-1.41l0.28-1.08l0.26-1.09l0.24-1.09l0.22-1.1l0.2-1.1l0.18-1.1l0.16-1.11l0.14-1.11l0.12-1.1l0.1-1.1l0.08-1.1l0.06-1.1
			l0.03-1.1l0.01-1.1l-0.01-1.1l-0.03-1.1l-0.05-1l-0.07-1l-0.08-1l-0.1-1l-0.12-1l-0.14-0.99l-0.16-0.99l-0.18-0.99l-0.32-1.56
			l-0.36-1.55l-0.41-1.53l-0.45-1.52l-0.29-0.91l-0.31-0.9l-0.33-0.89l-0.34-0.89l-0.36-0.89l-0.38-0.88l-0.39-0.87l-0.41-0.86
			l-0.42-0.86l-0.44-0.85l-0.45-0.84l-0.47-0.83l-0.49-0.83l-0.5-0.82l-0.51-0.81l-0.53-0.8l-1.1-1.57l-1.15-1.53l-0.67-0.84
			l-0.68-0.82l-0.7-0.81l-0.71-0.8l-0.73-0.79l-0.74-0.77l-0.75-0.76l-0.77-0.74l-1.25-1.16l-1.28-1.12l-1.31-1.09l-1.34-1.05
			l-1.66-1.23l-1.7-1.17l-1.74-1.12l-1.77-1.07l-1.4-0.8l-1.42-0.76l-1.44-0.73l-1.45-0.7l-1.47-0.67l-1.48-0.64l-1.49-0.61
			l-1.51-0.58l-0.04-0.01l-0.04-0.01l-0.04-0.01l-0.04-0.01l-0.04-0.01l-0.04-0.01l-0.04-0.01l-0.04-0.01l-0.04-0.01L144,56.49
			l-0.04,0l-0.04,0l-0.04,0l-0.04,0l-0.04,0l-0.04,0l-0.04,0l-0.04,0l-0.04,0l-0.04,0.01l-0.04,0.01l-0.04,0.01l-0.04,0.01
			l-0.04,0.01l-0.04,0.01l-0.04,0.01l-0.04,0.01l-0.04,0.01l-0.04,0.02l-0.04,0.02l-0.04,0.02l-0.04,0.02L143,56.66l-0.04,0.02
			l-0.04,0.02l-0.04,0.02l-0.04,0.02l-0.04,0.02l-0.04,0.03l-0.04,0.03l-0.04,0.03l-0.04,0.03l-0.03,0.03l-0.03,0.03l-0.03,0.03
			l-0.03,0.03l-0.03,0.03l-0.03,0.03l-0.03,0.03l-0.03,0.03l-0.03,0.03l-0.03,0.03l-0.03,0.03l-0.02,0.04l-0.02,0.04l-0.02,0.04
			l-0.02,0.04l-0.02,0.04l-0.02,0.04l-0.02,0.04l-0.02,0.04l-0.02,0.04l-0.02,0.04l-0.01,0.04l-0.01,0.04l-0.01,0.04l-0.01,0.04
			l-0.01,0.04l-0.01,0.04l-0.01,0.04l-0.01,0.04l-0.01,0.04L142.02,58l-0.01,0.04L142,58.08l0,0.04l0,0.04l0,0.04l0,0.04l0,0.04
			l0,0.04l0,0.04l0,0.04l0,0.04l0.01,0.04l0.01,0.04l0.01,0.04l0.01,0.04l0.01,0.04l0.01,0.04l0.01,0.04l0.01,0.04l0.01,0.04
			l0.02,0.04l0.02,0.04l0.02,0.04l0.02,0.04l0.02,0.04l0.02,0.04l0.02,0.04l0.02,0.04l0.02,0.04l0.02,0.04l0.03,0.04l0.03,0.04
			l0.03,0.04l0.03,0.04l0.03,0.03l0.03,0.03l0.03,0.03l0.03,0.03l0.03,0.03l0.03,0.03l0.03,0.03l0.03,0.03l0.03,0.03l0.03,0.03
			l0.03,0.03l0.03,0.02l0.04,0.02l0.04,0.02l0.04,0.02l0.04,0.02l0.04,0.02l0.04,0.02l0.04,0.02l0.04,0.02l0.04,0.02l1.48,0.57
			l1.46,0.6l1.45,0.63l1.44,0.66l1.42,0.69l1.41,0.72l1.39,0.76l1.37,0.79l1.35,0.82l1.33,0.85l1.31,0.89l1.29,0.92l1.27,0.95
			l1.24,0.98l1.21,1.02l1.18,1.05l1.15,1.07l1.11,1.11l1.08,1.14l1.05,1.17l1.02,1.2l0.98,1.23l0.94,1.26l0.9,1.28l0.86,1.3
			l0.82,1.32l0.78,1.35l0.73,1.37l0.69,1.39l0.65,1.42l0.6,1.44l0.55,1.45l0.51,1.47l0.46,1.48l0.41,1.5l0.36,1.51l0.32,1.52
			l0.27,1.53l0.22,1.54l0.17,1.54l0.13,1.55l0.08,1.56l0.04,1.56l-0.01,1.56l-0.06,1.56l-0.1,1.56l-0.15,1.55l-0.19,1.55l-0.23,1.55
			l-0.28,1.54l-0.32,1.53l-0.36,1.52l-0.4,1.51l-0.44,1.5l-0.48,1.49l-0.51,1.48l-0.54,1.46l-0.58,1.45l-0.61,1.44l-0.64,1.42
			l-0.68,1.41l-0.71,1.39l-0.74,1.38l-0.77,1.36l-1.34,2.24l-1.42,2.19l-1.5,2.14l-1.57,2.09l-1.64,2.03l-1.71,1.97l-1.78,1.91
			l-1.84,1.85l-1.91,1.78l-1.97,1.72l-2.03,1.65l-2.08,1.58l-2.14,1.5l-2.19,1.43l-2.23,1.35l-2.28,1.27l-2.32,1.19l-2.36,1.11
			l-2.4,1.03l-2.43,0.94l-2.47,0.86l-2.49,0.77l-2.52,0.69l-2.54,0.6l-2.56,0.51l-2.58,0.42l-2.59,0.33l-2.6,0.24l-2.61,0.15
			l-2.61,0.06l-2.61-0.03l-2.61-0.12l-2.6-0.21l-2.59-0.3l-2.58-0.39l-2.57-0.48l-2.55-0.57l-2.53-0.66l-2.5-0.75l-2.47-0.83
			l-2.44-0.92l-2.41-1l-0.06-0.03l-0.06-0.02l-0.06-0.02l-0.06-0.02l-0.06-0.02l-0.06-0.01l-0.06-0.01l-0.06-0.01l-0.07-0.01
			l-0.07-0.01l-0.07,0l-0.07,0l-0.07,0l-0.07,0l-0.07,0.01l-0.07,0.01l-0.06,0.01l-0.06,0.01l-0.06,0.02l-0.06,0.02l-0.06,0.02
			l-0.06,0.02l-0.06,0.02l-0.06,0.03l-0.06,0.03l-0.06,0.03l-0.06,0.03l-0.06,0.03l-0.06,0.04l-0.05,0.04l-0.05,0.04l-0.05,0.04
			l-0.05,0.04l-0.05,0.04l-0.05,0.05l-0.04,0.05l-0.04,0.05l-0.04,0.05l-0.04,0.05l-0.04,0.05l-0.04,0.06l-0.03,0.06l-11.39,19.73
			l-0.03,0.06l-0.03,0.06l-0.03,0.06l-0.03,0.06l-0.02,0.06l-0.02,0.06l-0.02,0.06l-0.02,0.06l-0.01,0.06l-0.01,0.06l-0.01,0.06
			l-0.01,0.06l-0.01,0.07l0,0.07l0,0.07l0,0.07l0,0.07l0.01,0.07l0.01,0.06l0.01,0.06l0.01,0.06l0.01,0.06l0.02,0.06l0.02,0.06
			l0.02,0.06l0.02,0.06l0.02,0.06l0.03,0.06l0.03,0.06l0.03,0.06l0.03,0.06l0.03,0.06l0.04,0.05l0.04,0.05l0.04,0.05l0.04,0.05
			l0.04,0.05l0.05,0.05l0.05,0.05l0.05,0.04l0.05,0.04l0.05,0.04l0.05,0.04l0.05,0.04l0.06,0.03l0.06,0.03l0.06,0.03l0.06,0.03
			l3.2,1.43l3.25,1.32l3.29,1.2l3.33,1.09l3.37,0.97l3.4,0.86l3.43,0.74l3.45,0.62l3.47,0.5l3.49,0.38l3.5,0.26l3.51,0.14l3.51,0.02
			l3.51-0.1l3.5-0.22l3.49-0.34l3.48-0.46l3.46-0.58l3.44-0.7l3.41-0.82l3.38-0.94l3.35-1.05l3.31-1.17l3.27-1.28l3.22-1.39
			l3.17-1.5l3.12-1.61l3.06-1.72l3-1.82l2.93-1.93l2.86-2.03l2.79-2.12l2.72-2.22l2.64-2.31l2.56-2.4l2.47-2.49l2.39-2.57l2.3-2.65
			l2.2-2.73l2.11-2.8l2.01-2.88l1.91-2.94l1.81-3.01l1.7-3.07l1.59-3.12l1.49-3.18l1.38-3.23l1.26-3.27l1.15-3.31l1.03-3.35
			l0.92-3.39l0.8-3.42l0.68-3.44l0.56-3.46l0.44-3.48l0.32-3.49l0.2-3.5l0.08-3.51l-0.04-3.51l-0.16-3.5l-0.28-3.5l-0.4-3.49
			l-0.52-3.47l-0.64-3.45l-0.76-3.42l-0.88-3.4l-0.99-3.36l-1.11-3.33l-1.22-3.29l-1.34-3.24l-1.45-3.2l-1.56-3.14l-1.66-3.09
			l-1.77-3.03l-1.87-2.97l-1.98-2.9l-2.07-2.83l-2.17-2.76l-2.26-2.68l-2.36-2.6l-2.44-2.52l-2.53-2.43l-2.61-2.34l-2.69-2.25
			l-2.77-2.16l-2.84-2.06l-0.05-0.04l-0.06-0.03l-0.06-0.03l-0.06-0.03l-0.06-0.03l-0.06-0.03l-0.06-0.02l-0.06-0.02l-0.06-0.02
			l-0.06-0.02l-0.06-0.02l-0.06-0.01l-0.06-0.01l-0.06-0.01l-0.06-0.01l-0.07,0l-0.07,0l-0.07,0l-0.07,0l-0.07,0l-0.07,0.01
			l-0.06,0.01l-0.06,0.01l-0.06,0.01l-0.06,0.02l-0.06,0.02l-0.06,0.02l-0.06,0.02l-0.06,0.02l-0.06,0.03l-0.06,0.03l-0.06,0.03
			l-0.06,0.03l-0.06,0.03l-0.05,0.04l-0.05,0.04l-0.05,0.04l-0.05,0.04l-0.05,0.04l-0.05,0.04l-0.05,0.05l-0.04,0.05l-0.04,0.05
			l-0.04,0.05l-0.04,0.05l-0.04,0.05l-0.04,0.05l-0.03,0.06L145.9,51.04l-0.03,0.06l-0.03,0.06l-0.03,0.06l-0.03,0.06l-0.02,0.06
			l-0.02,0.06l-0.02,0.06l-0.02,0.06l-0.01,0.06l-0.01,0.06l-0.01,0.06l-0.01,0.06l-0.01,0.06l0,0.07l0,0.07l0,0.07l0,0.07
			l0.01,0.06l0.01,0.06l0.01,0.06l0.01,0.06l0.01,0.06l0.02,0.06l0.02,0.06l0.02,0.06l0.02,0.06l0.02,0.06l0.03,0.06l0.03,0.06
			l0.03,0.06l0.03,0.06l0.03,0.06l0.04,0.05l0.04,0.05l0.04,0.05l0.04,0.05l0.04,0.05l0.05,0.05l0.05,0.05l0.05,0.04l0.05,0.04
			l0.05,0.04l0.05,0.04l0.05,0.04l0.06,0.03l0.06,0.03l0.06,0.03l0.06,0.03l0.06,0.03l0.06,0.02l1.35,0.54l1.34,0.57l1.33,0.59
			l1.32,0.61l1.8,0.89l1.78,0.93l1.75,0.98l1.72,1.03l1.75,1.11l1.72,1.16l1.68,1.21l1.64,1.26l1.56,1.27l1.52,1.32l0.87,0.8
			l0.86,0.81l0.84,0.83l0.83,0.84l1.23,1.32l1.19,1.35l1.15,1.39l1.11,1.42l1.03,1.41l0.99,1.44l0.95,1.47l0.9,1.5l0.55,0.97
			l0.53,0.98l0.51,0.99l0.49,1l0.67,1.44l0.63,1.46l0.42,1.03l0.39,1.04l0.37,1.05l0.35,1.06l0.33,1.06l0.31,1.07l0.29,1.07
			l0.27,1.08l0.25,1.08l0.23,1.09l0.2,1.09l0.18,1.1l0.16,1.13l0.14,1.13l0.12,1.13l0.1,1.14l0.08,1.22l0.05,1.22l0.03,1.22l0,1.22
			l-0.02,1.32l-0.05,1.32l-0.08,1.31l-0.11,1.31l-0.2,1.86l-0.26,1.86l-0.31,1.85l-0.37,1.84l-0.28,1.25l-0.3,1.24l-0.33,1.23
			l-0.35,1.23l-0.54,1.75l-0.59,1.74l-0.48,1.33l-0.51,1.33l-0.54,1.32l-0.56,1.31l-0.89,1.95l-0.94,1.92l-1,1.9l-1.05,1.87
			l-1.46,2.44l-1.55,2.39l-1.63,2.33l-1.71,2.27l-1.79,2.21l-1.86,2.15l-1.94,2.09l-2.01,2.02l-2.08,1.95l-2.14,1.87l-2.2,1.8
			l-2.27,1.72l-2.32,1.64l-2.38,1.56l-2.43,1.48l-2.48,1.39l-2.53,1.31l-2.57,1.22l-2.61,1.13l-2.65,1.04l-2.68,0.95l-2.71,0.85
			l-2.74,0.76l-2.77,0.66l-2.79,0.57l-2.81,0.47l-2.82,0.37l-2.83,0.28l-2.84,0.18l-2.84,0.08l-2.85-0.02l-2.84-0.12l-2.84-0.22
			l-2.83-0.31l-2.82-0.41l-2.8-0.51l-2.78-0.6l-2.76-0.7l-2.73-0.8l-2.7-0.89l-0.06-0.02l-0.06-0.02l-0.06-0.02l-0.06-0.01
			l-0.06-0.01l-0.06-0.01l-0.06-0.01l-0.07,0l-0.07,0l-0.07,0l-0.07,0l-0.07,0l-0.07,0.01l-0.06,0.01l-0.06,0.01l-0.06,0.01
			l-0.06,0.02l-0.06,0.02l-0.06,0.02l-0.06,0.02l-0.06,0.02l-0.06,0.03l-0.06,0.03l-0.06,0.03l-0.06,0.03l-0.06,0.03l-0.05,0.04
			l-0.05,0.04l-0.05,0.04l-0.05,0.04l-0.05,0.04l-0.05,0.04l-0.05,0.05L78.57,182l-0.04,0.05l-0.04,0.05l-0.04,0.05l-0.04,0.05
			l-0.04,0.05l-0.03,0.06l-4.27,7.39l-0.03,0.06l-0.03,0.06l-0.03,0.06l-0.03,0.06l-0.02,0.06l-0.02,0.06l-0.02,0.06l-0.02,0.06
			l-0.01,0.06l-0.01,0.06l-0.01,0.07l-0.01,0.07l-0.01,0.07l0,0.07l0,0.07l0,0.07l0,0.07l0.01,0.07l0.01,0.07l0.01,0.07l0.01,0.06
			l0.01,0.06l0.02,0.06l0.02,0.06l0.02,0.06l0.02,0.06l0.03,0.06l0.03,0.06l0.03,0.06l0.03,0.06l0.03,0.06l0.04,0.06l0.04,0.05
			l0.04,0.05l0.04,0.05l0.04,0.05l0.04,0.05l0.05,0.05l0.05,0.05l0.05,0.04l0.05,0.04l0.05,0.04l0.05,0.04l0.06,0.04l0.06,0.03
			l0.06,0.03l0.06,0.03l0.06,0.03l0.06,0.03l0.06,0.02l3.08,1.07l3.12,0.97l3.15,0.86l3.18,0.75l3.2,0.64l3.22,0.53l3.24,0.42
			l3.25,0.3l3.26,0.19l3.27,0.08l3.27-0.03l3.26-0.15l3.26-0.26l3.24-0.37l3.23-0.48l3.21-0.6l3.19-0.71l3.16-0.82l3.13-0.92
			l3.1-1.03l3.06-1.14l3.02-1.24l2.98-1.35l2.93-1.45l2.88-1.55l2.82-1.65l2.76-1.74l2.7-1.84l2.63-1.93l2.57-2.02l2.49-2.11
			l2.42-2.19l2.34-2.28l2.26-2.35l2.18-2.43l2.1-2.51l2.01-2.58l1.92-2.64l1.82-2.71l1.73-2.77l1.63-2.83l1.53-2.88l1.43-2.93
			l1.33-2.98l1.23-3.03l1.12-3.07l1.02-3.1l0.91-3.14l0.8-3.17l0.69-3.19l0.58-3.21l0.47-3.23l0.36-3.25l0.24-3.26l0.13-3.26
			l0.02-3.27l-0.1-3.26l-0.21-3.26l-0.32-3.25l-0.43-3.24l-0.54-3.22l-0.66-3.2l-0.77-3.18l-0.87-3.15l-0.98-3.11l-1.09-3.08
			l-1.2-3.04l-1.3-3l-1.4-2.95l-1.5-2.9l-1.6-2.85l-1.7-2.79l-1.8-2.73l-1.89-2.66l-1.98-2.6l-2.07-2.53l-2.15-2.45l-2.24-2.38
			l-2.32-2.3l-2.4-2.22l-2.47-2.13l-0.05-0.04l-0.05-0.04l-0.05-0.04l-0.06-0.04l-0.06-0.03l-0.06-0.03l-0.06-0.03l-0.06-0.03
			l-0.06-0.03l-0.06-0.02l-0.06-0.02l-0.06-0.02l-0.06-0.02l-0.06-0.01l-0.06-0.01l-0.07-0.01l-0.07-0.01l-0.07-0.01l-0.07,0
			l-0.07,0l-0.07,0l-0.07,0l-0.07,0.01l-0.07,0.01l-0.07,0.01l-0.06,0.01l-0.06,0.01l-0.06,0.02l-0.06,0.02l-0.06,0.02l-0.06,0.02
			l-0.06,0.03l-0.06,0.03l-0.06,0.03l-0.06,0.03l-0.06,0.03L165.93,31l-0.05,0.04l-0.05,0.04l-0.05,0.04l-0.05,0.04l-0.05,0.04
			l-0.05,0.05l-0.04,0.05l-0.04,0.05l-0.04,0.05l-0.04,0.05l-0.04,0.05l-0.04,0.06l-0.03,0.06l-9.38,16.24l-0.03,0.05l-0.03,0.06
			l-0.03,0.06l-0.02,0.06l-0.02,0.06l-0.02,0.06l-0.02,0.06l-0.02,0.06l-0.01,0.06l-0.01,0.06l-0.01,0.06l-0.01,0.06l-0.01,0.06
			l0,0.06l0,0.06l0,0.06l0,0.06l0.01,0.06l0.01,0.06l0.01,0.06l0.01,0.06l0.01,0.06l0.02,0.06l0.02,0.06l0.02,0.06l0.02,0.06
			l0.02,0.06l0.03,0.06l0.03,0.06l0.03,0.05l0.03,0.05l0.03,0.05l0.04,0.05l0.04,0.05l0.04,0.05l0.04,0.05l0.04,0.05l0.04,0.04
			l0.05,0.04l0.05,0.04l0.05,0.04l0.05,0.04l0.05,0.04l0.05,0.03l0.05,0.03l0.05,0.03l0.06,0.03l0.06,0.03l0.06,0.03l0.06,0.02
			l0.06,0.02l0.06,0.02l0.06,0.02l0.06,0.02l0.06,0.01l0.06,0.01l0.06,0.01l0.06,0.01l0.06,0l0.06,0l0.06,0l0.06,0l0.06,0l0.06-0.01
			l0.06-0.01l0.06-0.01l0.06-0.01l0.06-0.01l0.06-0.02l0.06-0.02l0.06-0.02l0.06-0.02l0.06-0.02l0.06-0.03l0.06-0.03l0.05-0.03
			l0.05-0.03l0.05-0.03l0.05-0.04l0.05-0.04l0.05-0.04l0.05-0.04l0.05-0.04l0.04-0.04l0.04-0.05l0.04-0.05l0.04-0.05l0.04-0.05
			l0.04-0.05l0.03-0.05l0.03-0.05l8.11-14.05c0.01-0.01,0.01-0.02,0.01-0.02c0.01-0.01,0.02-0.02,0.02-0.02
			c0.01-0.01,0.02-0.02,0.02-0.02c0.01-0.01,0.02-0.02,0.02-0.02c0.01-0.01,0.02-0.02,0.02-0.02c0.01-0.01,0.02-0.02,0.02-0.02
			c0.01-0.01,0.02-0.01,0.02-0.01c0.01-0.01,0.02-0.01,0.02-0.01c0.01-0.01,0.02-0.01,0.02-0.01c0.01-0.01,0.02-0.01,0.02-0.01
			c0.01,0,0.03-0.01,0.03-0.01c0.01,0,0.03-0.01,0.03-0.01c0.01,0,0.03,0,0.03,0c0.01,0,0.03,0,0.03,0c0.01,0,0.03,0,0.03,0
			c0.01,0,0.03,0,0.03,0c0.01,0,0.03,0,0.03,0c0.01,0,0.03,0,0.03,0c0.01,0,0.03,0.01,0.03,0.01c0.01,0,0.03,0.01,0.03,0.01
			c0.01,0,0.02,0.01,0.02,0.01c0.01,0.01,0.02,0.01,0.02,0.01c0.01,0.01,0.02,0.01,0.02,0.01c0.01,0.01,0.02,0.01,0.02,0.01
			c0.01,0.01,0.02,0.02,0.02,0.02c0.01,0.01,0.62,0.56,0.62,0.56l2.3,2.13l2.22,2.21l2.14,2.29l2.06,2.36l1.98,2.43l1.9,2.5
			l1.81,2.56l1.72,2.62l1.63,2.68l1.53,2.73l1.44,2.79l1.34,2.83l1.24,2.88l1.14,2.92l1.04,2.96l0.94,2.99l0.84,3.02l0.73,3.05
			l0.63,3.07l0.52,3.09l0.41,3.11l0.31,3.12l0.2,3.13l0.09,3.13l-0.02,3.14l-0.13,3.13l-0.24,3.13l-0.34,3.12l-0.45,3.1l-0.56,3.09
			l-0.66,3.07l-0.77,3.04l-0.87,3.01l-0.98,2.98l-1.08,2.94l-1.18,2.91l-1.28,2.86l-1.38,2.82l-1.47,2.77l-1.57,2.72l-1.66,2.66
			l-1.75,2.6l-1.84,2.54l-1.93,2.47l-2.01,2.41l-2.09,2.34l-2.17,2.26l-2.25,2.19l-2.32,2.11l-2.39,2.03l-2.46,1.94l-2.53,1.86
			l-2.59,1.77l-2.65,1.68l-2.71,1.58l-2.76,1.49l-2.81,1.39l-2.86,1.3l-2.9,1.2l-2.94,1.1l-2.97,0.99l-3.01,0.89l-3.04,0.79
			l-3.06,0.68l-3.08,0.58l-3.1,0.47l-3.12,0.36l-3.13,0.25l-3.13,0.15l-3.14,0.04l-3.14-0.07l-3.13-0.18l-3.12-0.29l-3.11-0.39
			l-3.1-0.5l-3.08-0.61l-3.05-0.71l-3.03-0.82l-3-0.92l-0.78-0.26c-0.01,0-0.02-0.01-0.02-0.01c-0.01-0.01-0.02-0.01-0.02-0.01
			c-0.01-0.01-0.02-0.01-0.02-0.01c-0.01-0.01-0.02-0.01-0.02-0.01c-0.01-0.01-0.02-0.02-0.02-0.02c-0.01-0.01-0.02-0.02-0.02-0.02
			c-0.01-0.01-0.02-0.02-0.02-0.02c-0.01-0.01-0.02-0.02-0.02-0.02c-0.01-0.01-0.02-0.02-0.02-0.02c-0.01-0.01-0.01-0.02-0.01-0.02
			c-0.01-0.01-0.01-0.02-0.01-0.02c-0.01-0.01-0.01-0.02-0.01-0.02c-0.01-0.01-0.01-0.02-0.01-0.02c0-0.01-0.01-0.03-0.01-0.03
			c0-0.01-0.01-0.03-0.01-0.03c0-0.01,0-0.03,0-0.03c0-0.01,0-0.03,0-0.03c0-0.01,0-0.03,0-0.03c0-0.01,0-0.03,0-0.03
			c0-0.01,0-0.03,0-0.03c0-0.01,0-0.03,0-0.03c0-0.01,0.01-0.03,0.01-0.03c0-0.01,0.01-0.03,0.01-0.03c0-0.01,0.01-0.02,0.01-0.02
			c0.01-0.01,0.01-0.02,0.01-0.02c0.01-0.01,2.15-3.72,2.15-3.72c0.01-0.01,0.01-0.02,0.01-0.02c0.01-0.01,0.02-0.02,0.02-0.02
			c0.01-0.01,0.02-0.02,0.02-0.02c0.01-0.01,0.02-0.02,0.02-0.02c0.01-0.01,0.02-0.02,0.02-0.02c0.01-0.01,0.02-0.02,0.02-0.02
			c0.01-0.01,0.02-0.01,0.02-0.01c0.01-0.01,0.02-0.01,0.02-0.01c0.01-0.01,0.02-0.01,0.02-0.01c0.01-0.01,0.02-0.01,0.02-0.01
			c0.01,0,0.02-0.01,0.02-0.01c0.01,0,0.03-0.01,0.03-0.01c0.01,0,0.03,0,0.03,0c0.01,0,0.03,0,0.03,0c0.01,0,0.03,0,0.03,0
			c0.01,0,0.03,0,0.03,0c0.01,0,0.03,0,0.03,0c0.01,0,0.03,0,0.03,0c0.01,0,0.03,0.01,0.03,0.01c0.01,0,0.52,0.17,0.52,0.17
			l2.86,0.86l2.89,0.76l2.91,0.66l2.94,0.56l2.95,0.45l2.97,0.35l2.98,0.25l2.98,0.14l2.99,0.04l2.99-0.06l2.98-0.17l2.98-0.27
			l2.96-0.38l2.95-0.48l2.93-0.58l2.91-0.68l2.88-0.78l2.85-0.88l2.82-0.98l2.79-1.08l2.75-1.17l2.71-1.27l2.66-1.36l2.61-1.45
			l2.56-1.54l2.5-1.63l2.44-1.72l2.38-1.8l2.32-1.88l2.25-1.96l2.18-2.04l2.11-2.12l2.04-2.19l1.96-2.26l1.88-2.32l1.8-2.39
			l1.71-2.45l1.63-2.51l1.54-2.56l1.18-2.11l1.11-2.14l1.05-2.17l0.98-2.2l0.68-1.63l0.64-1.64l0.6-1.65l0.56-1.67l0.54-1.73
			l0.5-1.75l0.45-1.76l0.41-1.77l0.38-1.9l0.33-1.91l0.28-1.92l0.22-1.92l0.15-1.81l0.1-1.81l0.05-1.82l0-1.82l-0.04-1.44
			l-0.07-1.44l-0.1-1.44l-0.14-1.43l-0.17-1.43l-0.2-1.43l-0.24-1.42l-0.27-1.41l-0.34-1.58L190.4,95l-0.43-1.56l-0.47-1.55
			l-0.44-1.32l-0.47-1.31l-0.5-1.3l-0.53-1.28l-0.55-1.26l-0.58-1.25l-0.61-1.23l-0.64-1.22l-0.61-1.11l-0.64-1.1l-0.66-1.08
			l-0.68-1.07l-0.87-1.3l-0.9-1.28l-0.66-0.89l-0.67-0.88l-1.39-1.72l-0.9-1.05l-0.92-1.03l-0.94-1.01l-0.96-0.99l-1.15-1.13
			l-1.18-1.11l-1.21-1.08l-1.23-1.05l-1.65-1.33l-1.69-1.28l-1.73-1.23l-1.76-1.18l-1.4-0.89l-1.42-0.86l-1.44-0.83l-1.45-0.8
			l-1.47-0.77l-1.49-0.74l-1.5-0.71l-1.51-0.68l-0.68-0.3c-0.01-0.01-0.02-0.01-0.02-0.01c-0.01-0.01-0.02-0.01-0.02-0.01
			c-0.01-0.01-0.02-0.01-0.02-0.01c-0.01-0.01-0.02-0.02-0.02-0.02c-0.01-0.01-0.02-0.02-0.02-0.02c-0.02-0.02-0.03-0.03-0.03-0.03
			c-0.01-0.01-0.02-0.02-0.02-0.02c-0.01-0.01-0.01-0.02-0.01-0.02c-0.01-0.01-0.01-0.02-0.01-0.02c-0.01-0.01-0.01-0.02-0.01-0.02
			c-0.01-0.01-0.01-0.02-0.01-0.02c0-0.01-0.01-0.02-0.01-0.02c0-0.01-0.01-0.03-0.01-0.03c0-0.01-0.01-0.03-0.01-0.03
			c0-0.01,0-0.03,0-0.03c0-0.01,0-0.03,0-0.03c0-0.01,0-0.03,0-0.03c0-0.01,0-0.03,0-0.03c0-0.01,0-0.03,0-0.03
			c0-0.01,0.01-0.03,0.01-0.03c0-0.01,0.01-0.02,0.01-0.02c0-0.01,0.01-0.02,0.01-0.02c0.01-0.01,0.01-0.02,0.01-0.02
			C150.24,50.75,150.25,50.74,150.25,50.74z"/>
	</g>
	<g id="HATCH_12_">
		<path fill-rule="evenodd" clip-rule="evenodd" fill="#D6D6D6" d="M65.12,156.7l-14.95,25.9c-0.01,0.01-0.01,0.02-0.01,0.02
			c-0.01,0.01-0.02,0.02-0.02,0.02c-0.01,0.01-0.02,0.02-0.02,0.02c-0.02,0.02-0.03,0.03-0.03,0.03c-0.01,0.01-0.02,0.02-0.02,0.02
			c-0.01,0.01-0.02,0.02-0.02,0.02c-0.01,0.01-0.02,0.01-0.02,0.01c-0.01,0.01-0.02,0.01-0.02,0.01c-0.01,0.01-0.02,0.01-0.02,0.01
			c-0.01,0-0.02,0.01-0.02,0.01c-0.01,0-0.03,0.01-0.03,0.01c-0.01,0-0.03,0.01-0.03,0.01c-0.01,0-0.03,0-0.03,0
			c-0.01,0-0.03,0-0.03,0c-0.01,0-0.03,0-0.03,0c-0.01,0-0.03,0-0.03,0c-0.01,0-0.03,0-0.03,0c-0.01,0-0.03-0.01-0.03-0.01
			c-0.01,0-0.03-0.01-0.03-0.01c-0.01,0-0.02-0.01-0.02-0.01c-0.01,0-0.02-0.01-0.02-0.01c-0.01-0.01-0.02-0.01-0.02-0.01
			c-0.01-0.01-0.02-0.01-0.02-0.01c-0.01-0.01-0.02-0.01-0.02-0.01l-0.6-0.45l-2.68-2.08l-2.61-2.17l-2.53-2.26l-2.45-2.34
			l-2.37-2.43l-2.28-2.51l-2.2-2.58l-2.11-2.66l-2.01-2.73l-1.92-2.8l-1.82-2.86l-1.72-2.92l-1.62-2.98l-1.51-3.04l-1.41-3.09
			l-1.3-3.13l-1.19-3.18l-1.08-3.21l-0.97-3.25l-0.85-3.28l-0.74-3.31l-0.63-3.33l-0.51-3.35l-0.39-3.37l-0.28-3.38l-0.16-3.39
			l-0.04-3.39l0.07-3.39l0.19-3.39l0.31-3.38l0.43-3.36l0.54-3.35l0.66-3.33l0.77-3.3l0.89-3.27l1-3.24l1.11-3.2l1.22-3.16
			l1.33-3.12l1.44-3.07l1.54-3.02l1.64-2.97l1.75-2.91l1.85-2.84l1.94-2.78l2.04-2.71l2.13-2.64l2.22-2.56l2.31-2.48l2.39-2.4
			l2.47-2.32l2.55-2.23l2.63-2.14l2.7-2.05l2.77-1.96l2.84-1.86l2.9-1.76l2.96-1.66l3.01-1.56l3.07-1.45l3.11-1.34l3.16-1.23
			l3.2-1.12L80,9.67l3.27-0.9l3.3-0.79l3.32-0.67l3.34-0.56l3.36-0.44l3.38-0.32l3.38-0.21l3.39-0.09l3.39,0.03l3.39,0.14l3.38,0.26
			l3.37,0.38l3.35,0.49l3.34,0.61l3.31,0.72l3.29,0.84l3.25,0.95l3.22,1.06l3.18,1.17l3.14,1.28l0.69,0.3
			c0.01,0.01,0.02,0.01,0.02,0.01c0.01,0.01,0.02,0.01,0.02,0.01c0.01,0.01,0.02,0.01,0.02,0.01c0.01,0.01,0.02,0.02,0.02,0.02
			c0.01,0.01,0.02,0.02,0.02,0.02c0.02,0.02,0.03,0.03,0.03,0.03c0.01,0.01,0.02,0.02,0.02,0.02c0.01,0.01,0.02,0.02,0.02,0.02
			c0.01,0.01,0.01,0.02,0.01,0.02c0.01,0.01,0.01,0.02,0.01,0.02c0.01,0.01,0.01,0.02,0.01,0.02c0,0.01,0.01,0.02,0.01,0.02
			c0,0.01,0.01,0.03,0.01,0.03c0,0.01,0.01,0.03,0.01,0.03c0,0.01,0,0.03,0,0.03c0,0.01,0,0.03,0,0.03c0,0.01,0,0.03,0,0.03
			c0,0.01,0,0.03,0,0.03c0,0.01,0,0.03,0,0.03c0,0.01-0.01,0.03-0.01,0.03c0,0.01-0.01,0.03-0.01,0.03c0,0.01-0.01,0.02-0.01,0.02
			c-0.01,0.01-0.01,0.02-0.01,0.02c-0.01,0.01-0.01,0.02-0.01,0.02l-9.3,16.11c-0.01,0.01-0.01,0.02-0.01,0.02
			c-0.01,0.01-0.02,0.02-0.02,0.02c-0.01,0.01-0.02,0.02-0.02,0.02c-0.01,0.01-0.02,0.02-0.02,0.02c-0.01,0.01-0.02,0.02-0.02,0.02
			c-0.01,0.01-0.02,0.02-0.02,0.02c-0.01,0.01-0.02,0.01-0.02,0.01c-0.01,0.01-0.02,0.01-0.02,0.01c-0.01,0.01-0.02,0.01-0.02,0.01
			c-0.01,0.01-0.02,0.01-0.02,0.01c-0.01,0-0.03,0.01-0.03,0.01c-0.01,0-0.03,0.01-0.03,0.01c-0.01,0-0.03,0-0.03,0
			c-0.01,0-0.03,0-0.03,0c-0.01,0-0.03,0-0.03,0c-0.01,0-0.03,0-0.03,0c-0.01,0-0.03,0-0.03,0c-0.01,0-0.03,0-0.03,0
			c-0.01,0-0.03-0.01-0.03-0.01c-0.01,0-0.03-0.01-0.03-0.01c-0.01,0-0.55-0.22-0.55-0.22l-2.57-0.97l-2.6-0.88l-2.63-0.79
			l-2.65-0.7l-2.68-0.61l-2.7-0.51l-2.71-0.42l-2.72-0.33l-2.73-0.23l-2.74-0.14l-2.74-0.04l-2.74,0.06l-2.74,0.15l-2.73,0.25
			l-2.72,0.34l-2.71,0.44l-2.69,0.53l-2.67,0.62L85.8,28l-2.62,0.81l-2.59,0.9l-2.56,0.99l-2.52,1.08l-2.48,1.16l-2.44,1.25
			l-2.4,1.33l-2.35,1.42l-2.3,1.5l-2.25,1.58l-2.19,1.65l-2.13,1.73l-2.07,1.8l-2.01,1.87L50.95,49l-1.87,2.01l-1.8,2.07l-1.73,2.13
			l-1.65,2.19l-1.57,2.25l-1.49,2.3l-1.41,2.35l-0.91,1.63l-0.87,1.65l-0.83,1.67l-0.79,1.69l-0.54,1.23l-0.52,1.24l-0.5,1.25
			l-0.47,1.26l-0.49,1.38l-0.46,1.39l-0.43,1.4l-0.39,1.41l-0.28,1.08l-0.26,1.09l-0.24,1.09l-0.22,1.1l-0.2,1.1l-0.18,1.1
			l-0.16,1.11l-0.14,1.11l-0.12,1.1l-0.1,1.1l-0.08,1.1l-0.06,1.1l-0.03,1.1l-0.01,1.1l0.01,1.1l0.03,1.1l0.05,1l0.07,1l0.08,1
			l0.1,1l0.12,1l0.14,0.99l0.16,0.99l0.18,0.99l0.32,1.56l0.36,1.55l0.41,1.53l0.45,1.52l0.29,0.91l0.31,0.9l0.33,0.89l0.34,0.89
			l0.36,0.89l0.38,0.88l0.39,0.87l0.41,0.86l0.42,0.86l0.44,0.85l0.45,0.84l0.47,0.83l0.49,0.83l0.5,0.82l0.51,0.81l0.53,0.8
			l1.1,1.57l1.15,1.53l0.67,0.84l0.68,0.82l0.7,0.81l0.71,0.8l0.73,0.79l0.74,0.77l0.75,0.76l0.77,0.74l1.25,1.16l1.28,1.12
			l1.31,1.09l1.34,1.05l1.66,1.23l1.7,1.17l1.74,1.12l1.77,1.07l1.4,0.8l1.42,0.76l1.44,0.73l1.45,0.7l1.47,0.67l1.48,0.64
			l1.49,0.61l1.51,0.58l0.04,0.01l0.04,0.01l0.04,0.01l0.04,0.01l0.04,0.01l0.04,0.01l0.04,0.01l0.04,0.01l0.04,0.01l0.04,0.01
			l0.04,0l0.04,0l0.04,0l0.04,0l0.04,0l0.04,0l0.04,0l0.04,0l0.04,0l0.04-0.01l0.04-0.01l0.04-0.01l0.04-0.01l0.04-0.01l0.04-0.01
			l0.04-0.01l0.04-0.01l0.04-0.01l0.04-0.02l0.04-0.02l0.04-0.02l0.04-0.02l0.04-0.02l0.04-0.02l0.04-0.02l0.04-0.02l0.04-0.02
			l0.04-0.02l0.04-0.03l0.04-0.03l0.04-0.03l0.04-0.03l0.03-0.03l0.03-0.03l0.03-0.03l0.03-0.03l0.03-0.03l0.03-0.03l0.03-0.03
			l0.03-0.03l0.03-0.03l0.03-0.03l0.03-0.03l0.02-0.04l0.02-0.04l0.02-0.04l0.02-0.04l0.02-0.04l0.02-0.04l0.02-0.04l0.02-0.04
			l0.02-0.04l0.02-0.04l0.01-0.04l0.01-0.04l0.01-0.04l0.01-0.04l0.01-0.04l0.01-0.04l0.01-0.04l0.01-0.04l0.01-0.04l0.01-0.04
			l0.01-0.04l0.01-0.04l0-0.04l0-0.04l0-0.04l0-0.04l0-0.04l0-0.04l0-0.04l0-0.04l0-0.04l-0.01-0.04l-0.01-0.04l-0.01-0.04
			l-0.01-0.04l-0.01-0.04l-0.01-0.04l-0.01-0.04l-0.01-0.04l-0.01-0.04l-0.02-0.04l-0.02-0.04l-0.02-0.04l-0.02-0.04l-0.02-0.04
			l-0.02-0.04l-0.02-0.04l-0.02-0.04l-0.02-0.04l-0.02-0.04l-0.03-0.04l-0.03-0.04L73,148.04L72.97,148l-0.03-0.03l-0.03-0.03
			l-0.03-0.03l-0.03-0.03l-0.03-0.03l-0.03-0.03l-0.03-0.03l-0.03-0.03l-0.03-0.03l-0.03-0.03l-0.03-0.03l-0.03-0.02l-0.04-0.02
			l-0.04-0.02l-0.04-0.02l-0.04-0.02l-0.04-0.02l-0.04-0.02l-0.04-0.02l-0.04-0.02l-0.04-0.02l-1.48-0.57l-1.46-0.6l-1.45-0.63
			l-1.44-0.66l-1.42-0.69l-1.41-0.72l-1.39-0.76l-1.37-0.79l-1.35-0.82l-1.33-0.85l-1.31-0.89l-1.29-0.92l-1.27-0.95l-1.24-0.98
			l-1.21-1.02l-1.18-1.05l-1.15-1.07l-1.11-1.11l-1.08-1.14l-1.05-1.17l-1.02-1.2l-0.98-1.23l-0.94-1.26l-0.9-1.28l-0.86-1.3
			l-0.82-1.32l-0.78-1.35l-0.73-1.37l-0.69-1.39l-0.65-1.42l-0.6-1.44l-0.55-1.45l-0.51-1.47l-0.46-1.48l-0.41-1.5l-0.36-1.51
			l-0.32-1.52l-0.27-1.53l-0.22-1.54l-0.17-1.54l-0.13-1.55L33.8,98.9l-0.04-1.56l0.01-1.56l0.06-1.56l0.1-1.56l0.15-1.55l0.19-1.55
			l0.23-1.55l0.28-1.54l0.32-1.53l0.36-1.52l0.4-1.51l0.44-1.5l0.48-1.49l0.51-1.48l0.54-1.46l0.58-1.45l0.61-1.44l0.64-1.42
			l0.68-1.41l0.71-1.39l0.74-1.38l0.77-1.36l1.34-2.24l1.42-2.19l1.5-2.14l1.57-2.09l1.64-2.03l1.71-1.97l1.78-1.91l1.84-1.85
			l1.91-1.78l1.97-1.72l2.03-1.65l2.08-1.58l2.14-1.5l2.19-1.43l2.23-1.35l2.28-1.27l2.32-1.19l2.36-1.11l2.4-1.03l2.43-0.94
			l2.47-0.86l2.49-0.77l2.52-0.69l2.54-0.6l2.56-0.51l2.58-0.42l2.59-0.33l2.6-0.24l2.61-0.15l2.61-0.06l2.61,0.03l2.61,0.12
			l2.6,0.21l2.59,0.3l2.58,0.39l2.57,0.48l2.55,0.57l2.53,0.66l2.5,0.75l2.47,0.83l2.44,0.92l2.41,1l0.06,0.03l0.06,0.02l0.06,0.02
			l0.06,0.02l0.06,0.02l0.06,0.01l0.06,0.01l0.06,0.01l0.07,0.01l0.07,0.01l0.07,0l0.07,0l0.07,0l0.07,0l0.07-0.01l0.07-0.01
			l0.06-0.01l0.06-0.01l0.06-0.02l0.06-0.02l0.06-0.02l0.06-0.02l0.06-0.02l0.06-0.03l0.06-0.03l0.06-0.03l0.06-0.03l0.06-0.03
			l0.06-0.04l0.05-0.04l0.05-0.04l0.05-0.04l0.05-0.04l0.05-0.04l0.05-0.05l0.04-0.05l0.04-0.05l0.04-0.05l0.04-0.05l0.04-0.05
			l0.04-0.06l0.03-0.06l11.39-19.73l0.03-0.06l0.03-0.06l0.03-0.06l0.03-0.06l0.02-0.06l0.02-0.06l0.02-0.06l0.02-0.06l0.01-0.06
			l0.01-0.06l0.01-0.06l0.01-0.06l0.01-0.07l0-0.07l0-0.07l0-0.07l0-0.07l-0.01-0.07l-0.01-0.06l-0.01-0.06l-0.01-0.06l-0.01-0.06
			l-0.02-0.06l-0.02-0.06l-0.02-0.06l-0.02-0.06l-0.02-0.06l-0.03-0.06l-0.03-0.06l-0.03-0.06l-0.03-0.06l-0.03-0.06l-0.04-0.05
			l-0.04-0.05l-0.04-0.05l-0.04-0.05l-0.04-0.05l-0.05-0.05l-0.05-0.05l-0.05-0.04l-0.05-0.04l-0.05-0.04l-0.05-0.04l-0.05-0.04
			l-0.06-0.03l-0.06-0.03l-0.06-0.03l-0.06-0.03l-3.2-1.43l-3.25-1.32l-3.29-1.2l-3.33-1.09l-3.37-0.97l-3.4-0.86l-3.43-0.74
			l-3.45-0.62l-3.47-0.5l-3.49-0.38l-3.5-0.26l-3.51-0.14l-3.51-0.02l-3.51,0.1l-3.5,0.22l-3.49,0.34L92.5,3.2l-3.46,0.58l-3.44,0.7
			L82.2,5.31l-3.38,0.94L75.47,7.3l-3.31,1.17L68.9,9.75l-3.22,1.39l-3.17,1.5l-3.12,1.61l-3.06,1.72l-3,1.82l-2.93,1.93l-2.86,2.03
			l-2.79,2.12l-2.72,2.22l-2.64,2.31l-2.56,2.4l-2.47,2.49l-2.39,2.57l-2.3,2.65l-2.2,2.73l-2.11,2.8l-2.01,2.88l-1.91,2.94
			l-1.81,3.01l-1.7,3.07l-1.59,3.12l-1.49,3.18l-1.38,3.23l-1.26,3.27l-1.15,3.31l-1.03,3.35l-0.92,3.39l-0.8,3.42l-0.68,3.44
			l-0.56,3.46l-0.44,3.48l-0.32,3.49l-0.2,3.5l-0.08,3.51l0.04,3.51l0.16,3.5l0.28,3.5l0.4,3.49l0.52,3.47l0.64,3.45l0.76,3.42
			l0.88,3.4l0.99,3.36l1.11,3.33l1.22,3.29l1.34,3.24l1.45,3.2l1.56,3.14l1.66,3.09l1.77,3.03l1.87,2.97l1.98,2.9l2.07,2.83
			l2.17,2.76l2.26,2.68l2.36,2.6l2.44,2.52l2.53,2.43l2.61,2.34l2.69,2.25l2.77,2.16l2.84,2.06l0.05,0.04l0.06,0.03l0.06,0.03
			l0.06,0.03l0.06,0.03l0.06,0.03l0.06,0.02l0.06,0.02l0.06,0.02l0.06,0.02l0.06,0.02l0.06,0.01l0.06,0.01l0.06,0.01l0.06,0.01
			l0.07,0l0.07,0l0.07,0l0.07,0l0.07,0l0.07-0.01l0.06-0.01l0.06-0.01l0.06-0.01l0.06-0.02l0.06-0.02l0.06-0.02l0.06-0.02l0.06-0.02
			l0.06-0.03l0.06-0.03l0.06-0.03l0.06-0.03l0.06-0.03l0.05-0.04l0.05-0.04l0.05-0.04l0.05-0.04l0.05-0.04l0.05-0.04l0.05-0.05
			l0.04-0.05l0.04-0.05l0.04-0.05l0.04-0.05l0.04-0.05l0.04-0.05l0.03-0.06l17.33-30.01l0.03-0.06l0.03-0.06l0.03-0.06l0.03-0.06
			l0.02-0.06l0.02-0.06l0.02-0.06l0.02-0.06l0.01-0.06l0.01-0.06l0.01-0.06l0.01-0.06l0.01-0.06l0-0.07l0-0.07l0-0.07l0-0.07
			l-0.01-0.06l-0.01-0.06l-0.01-0.06l-0.01-0.06l-0.01-0.06l-0.02-0.06l-0.02-0.06l-0.02-0.06l-0.02-0.06l-0.02-0.06l-0.03-0.06
			l-0.03-0.06l-0.03-0.06l-0.03-0.06l-0.03-0.06l-0.04-0.05l-0.04-0.05l-0.04-0.05l-0.04-0.05l-0.04-0.05l-0.05-0.05l-0.05-0.05
			l-0.05-0.04l-0.05-0.04l-0.05-0.04l-0.05-0.04l-0.05-0.04l-0.06-0.03l-0.06-0.03l-0.06-0.03l-0.06-0.03l-0.06-0.03l-0.06-0.02
			l-1.35-0.54l-1.34-0.57L64.49,152l-1.32-0.61l-1.8-0.89l-1.78-0.93l-1.75-0.98l-1.72-1.03l-1.75-1.11l-1.72-1.16l-1.68-1.21
			l-1.64-1.26l-1.56-1.27l-1.52-1.32l-0.87-0.8l-0.86-0.81l-0.84-0.83l-0.83-0.84l-1.23-1.32l-1.19-1.35l-1.15-1.39l-1.11-1.42
			l-1.03-1.41l-0.99-1.44l-0.95-1.47l-0.9-1.5l-0.55-0.97l-0.53-0.98l-0.51-0.99l-0.49-1l-0.67-1.44l-0.63-1.46l-0.42-1.03
			l-0.39-1.04l-0.37-1.05l-0.35-1.06l-0.33-1.06l-0.31-1.07l-0.29-1.07l-0.27-1.08l-0.25-1.08l-0.23-1.09l-0.2-1.09l-0.18-1.1
			l-0.16-1.13l-0.14-1.13l-0.12-1.13l-0.1-1.14l-0.08-1.22l-0.05-1.22l-0.03-1.22l0-1.22l0.02-1.32l0.05-1.32l0.08-1.31l0.11-1.31
			l0.2-1.86l0.26-1.86l0.31-1.85l0.37-1.84l0.28-1.25l0.3-1.24l0.33-1.23l0.35-1.23l0.54-1.75l0.59-1.74l0.48-1.33l0.51-1.33
			l0.54-1.32l0.56-1.31l0.89-1.95l0.94-1.92l1-1.9l1.05-1.87l1.46-2.44l1.55-2.39l1.63-2.33l1.71-2.27l1.79-2.21l1.86-2.15
			l1.94-2.09l2.01-2.02l2.08-1.95l2.14-1.87l2.2-1.8l2.27-1.72l2.32-1.64l2.38-1.56l2.43-1.48l2.48-1.39l2.53-1.31l2.57-1.22
			l2.61-1.13l2.65-1.04l2.68-0.95l2.71-0.85l2.74-0.76l2.77-0.66l2.79-0.57l2.81-0.47l2.82-0.37l2.83-0.28l2.84-0.18l2.84-0.08
			l2.85,0.02l2.84,0.12l2.84,0.22l2.83,0.31l2.82,0.41l2.8,0.51l2.78,0.6l2.76,0.7l2.73,0.8l2.7,0.89l0.06,0.02l0.06,0.02l0.06,0.02
			l0.06,0.01l0.06,0.01l0.06,0.01l0.07,0.01l0.07,0l0.07,0l0.07,0l0.07,0l0.07,0l0.07-0.01l0.06-0.01l0.06-0.01l0.06-0.01l0.06-0.02
			l0.06-0.02l0.06-0.02l0.06-0.02l0.06-0.02l0.06-0.03l0.06-0.03l0.06-0.03l0.06-0.03l0.06-0.03l0.05-0.04l0.05-0.04l0.05-0.04
			l0.05-0.04l0.05-0.04l0.05-0.04l0.05-0.05l0.04-0.05l0.04-0.05l0.04-0.05l0.04-0.05l0.04-0.05l0.04-0.05l0.03-0.06l4.27-7.39
			l0.03-0.06l0.03-0.06l0.03-0.06l0.03-0.06l0.02-0.06l0.02-0.06l0.02-0.06l0.02-0.06l0.01-0.06l0.01-0.06l0.01-0.07l0.01-0.07
			l0.01-0.07l0-0.07l0-0.07l0-0.07l0-0.07l-0.01-0.07l-0.01-0.07l-0.01-0.07l-0.01-0.06l-0.01-0.06l-0.02-0.06l-0.02-0.06
			l-0.02-0.06l-0.02-0.06l-0.03-0.06l-0.03-0.06l-0.03-0.06l-0.03-0.06l-0.03-0.06l-0.04-0.06l-0.04-0.05l-0.04-0.05l-0.04-0.05
			l-0.04-0.05l-0.04-0.05l-0.05-0.05l-0.05-0.05l-0.05-0.04l-0.05-0.04l-0.05-0.04l-0.05-0.04l-0.06-0.04l-0.06-0.03l-0.06-0.03
			l-0.06-0.03l-0.06-0.03l-0.06-0.03l-0.06-0.02l-3.08-1.07l-3.12-0.97l-3.15-0.86l-3.18-0.75l-3.2-0.64l-3.22-0.53l-3.24-0.42
			l-3.25-0.3l-3.26-0.19l-3.27-0.08l-3.27,0.03l-3.26,0.15l-3.26,0.26l-3.24,0.37l-3.23,0.48l-3.21,0.6l-3.19,0.71l-3.16,0.82
			l-3.13,0.92l-3.1,1.03l-3.06,1.14l-3.02,1.24l-2.98,1.35l-2.93,1.45l-2.88,1.55l-2.82,1.65l-2.76,1.74l-2.7,1.84l-2.63,1.93
			l-2.57,2.02l-2.49,2.11l-2.42,2.19l-2.34,2.28l-2.26,2.35l-2.18,2.43l-2.1,2.51l-2.01,2.58l-1.92,2.64l-1.82,2.71l-1.73,2.77
			l-1.63,2.83l-1.53,2.88l-1.43,2.93l-1.33,2.98l-1.23,3.03l-1.12,3.07l-1.02,3.1l-0.91,3.14l-0.8,3.17l-0.69,3.19l-0.58,3.21
			l-0.47,3.23l-0.36,3.25l-0.24,3.26l-0.13,3.26l-0.02,3.27l0.1,3.26l0.21,3.26l0.32,3.25l0.43,3.24l0.54,3.22l0.66,3.2l0.77,3.18
			l0.87,3.15l0.98,3.11l1.09,3.08l1.2,3.04l1.3,3l1.4,2.95l1.5,2.9l1.6,2.85l1.7,2.79l1.8,2.73l1.89,2.66l1.98,2.6l2.07,2.53
			l2.15,2.45l2.24,2.38l2.32,2.3l2.4,2.22l2.47,2.13l0.05,0.04l0.05,0.04l0.05,0.04l0.06,0.04l0.06,0.03l0.06,0.03l0.06,0.03
			l0.06,0.03l0.06,0.03l0.06,0.02l0.06,0.02l0.06,0.02l0.06,0.02l0.06,0.01l0.06,0.01l0.07,0.01l0.07,0.01l0.07,0.01l0.07,0l0.07,0
			l0.07,0l0.07,0l0.07-0.01l0.07-0.01l0.07-0.01l0.06-0.01l0.06-0.01l0.06-0.02l0.06-0.02l0.06-0.02l0.06-0.02l0.06-0.03l0.06-0.03
			l0.06-0.03l0.06-0.03l0.06-0.03l0.06-0.04l0.05-0.04l0.05-0.04l0.05-0.04l0.05-0.04l0.05-0.04l0.05-0.05l0.04-0.05l0.04-0.05
			l0.04-0.05l0.04-0.05l0.04-0.05l0.04-0.06l0.03-0.06l9.38-16.24l0.03-0.05l0.03-0.06l0.03-0.06l0.02-0.06l0.02-0.06l0.02-0.06
			l0.02-0.06l0.02-0.06l0.01-0.06l0.01-0.06l0.01-0.06l0.01-0.06l0.01-0.06l0-0.06l0-0.06l0-0.06l0-0.06l-0.01-0.06l-0.01-0.06
			l-0.01-0.06l-0.01-0.06l-0.01-0.06l-0.02-0.06l-0.02-0.06l-0.02-0.06l-0.02-0.06l-0.02-0.06l-0.03-0.06l-0.03-0.06l-0.03-0.05
			l-0.03-0.05l-0.03-0.05l-0.04-0.05l-0.04-0.05l-0.04-0.05l-0.04-0.05l-0.04-0.05l-0.04-0.04l-0.05-0.04l-0.05-0.04l-0.05-0.04
			l-0.05-0.04l-0.05-0.04l-0.05-0.03l-0.05-0.03l-0.05-0.03l-0.06-0.03l-0.06-0.03l-0.06-0.03l-0.06-0.02l-0.06-0.02l-0.06-0.02
			l-0.06-0.02l-0.06-0.02l-0.06-0.01l-0.06-0.01l-0.06-0.01l-0.06-0.01l-0.06,0l-0.06,0l-0.06,0l-0.06,0l-0.06,0l-0.06,0.01
			l-0.06,0.01l-0.06,0.01l-0.06,0.01l-0.06,0.01l-0.06,0.02l-0.06,0.02l-0.06,0.02L57.14,157l-0.06,0.02l-0.06,0.03l-0.06,0.03
			l-0.05,0.03l-0.05,0.03l-0.05,0.03l-0.05,0.04l-0.05,0.04l-0.05,0.04l-0.05,0.04l-0.05,0.04l-0.04,0.04l-0.04,0.05l-0.04,0.05
			l-0.04,0.05l-0.04,0.05l-0.04,0.05l-0.03,0.05l-0.03,0.05l-8.11,14.05c-0.01,0.01-0.01,0.02-0.01,0.02
			c-0.01,0.01-0.02,0.02-0.02,0.02c-0.01,0.01-0.02,0.02-0.02,0.02c-0.01,0.01-0.02,0.02-0.02,0.02c-0.01,0.01-0.02,0.02-0.02,0.02
			c-0.01,0.01-0.02,0.02-0.02,0.02c-0.01,0.01-0.02,0.01-0.02,0.01c-0.01,0.01-0.02,0.01-0.02,0.01c-0.01,0.01-0.02,0.01-0.02,0.01
			c-0.01,0.01-0.02,0.01-0.02,0.01c-0.01,0-0.03,0.01-0.03,0.01c-0.01,0-0.03,0.01-0.03,0.01c-0.01,0-0.03,0-0.03,0
			c-0.01,0-0.03,0-0.03,0c-0.01,0-0.03,0-0.03,0c-0.01,0-0.03,0-0.03,0c-0.01,0-0.03,0-0.03,0c-0.01,0-0.03,0-0.03,0
			c-0.01,0-0.03-0.01-0.03-0.01c-0.01,0-0.03-0.01-0.03-0.01c-0.01,0-0.02-0.01-0.02-0.01c-0.01-0.01-0.02-0.01-0.02-0.01
			c-0.01-0.01-0.02-0.01-0.02-0.01c-0.01-0.01-0.02-0.01-0.02-0.01c-0.01-0.01-0.02-0.02-0.02-0.02c-0.01-0.01-0.62-0.56-0.62-0.56
			l-2.3-2.13l-2.22-2.21l-2.14-2.29l-2.06-2.36l-1.98-2.43l-1.9-2.5l-1.81-2.56l-1.72-2.62l-1.63-2.68l-1.53-2.73l-1.44-2.79
			l-1.34-2.83l-1.24-2.88l-1.14-2.92l-1.04-2.96l-0.94-2.99l-0.84-3.02l-0.73-3.05l-0.63-3.07l-0.52-3.09l-0.41-3.11L17.07,111
			l-0.2-3.13l-0.09-3.13l0.02-3.14l0.13-3.13l0.24-3.13l0.34-3.12l0.45-3.1l0.56-3.09l0.66-3.07l0.77-3.04l0.87-3.01l0.98-2.98
			l1.08-2.94l1.18-2.91l1.28-2.86l1.38-2.82l1.47-2.77l1.57-2.72l1.66-2.66l1.75-2.6l1.84-2.54l1.93-2.47l2.01-2.41l2.09-2.34
			l2.17-2.26l2.25-2.19l2.32-2.11l2.39-2.03l2.46-1.94l2.53-1.86l2.59-1.77l2.65-1.68l2.71-1.58L65.87,23l2.81-1.39l2.86-1.3
			l2.9-1.2l2.94-1.1l2.97-0.99l3.01-0.89l3.04-0.79l3.06-0.68l3.08-0.58l3.1-0.47l3.12-0.36l3.13-0.25l3.13-0.15l3.14-0.04
			l3.14,0.07l3.13,0.18l3.12,0.29l3.11,0.39l3.1,0.5l3.08,0.61l3.05,0.71l3.03,0.82l3,0.92l0.78,0.26c0.01,0,0.02,0.01,0.02,0.01
			c0.01,0.01,0.02,0.01,0.02,0.01c0.01,0.01,0.02,0.01,0.02,0.01c0.01,0.01,0.02,0.01,0.02,0.01c0.01,0.01,0.02,0.02,0.02,0.02
			c0.01,0.01,0.02,0.02,0.02,0.02c0.01,0.01,0.02,0.02,0.02,0.02c0.01,0.01,0.02,0.02,0.02,0.02c0.01,0.01,0.02,0.02,0.02,0.02
			c0.01,0.01,0.01,0.02,0.01,0.02c0.01,0.01,0.01,0.02,0.01,0.02c0.01,0.01,0.01,0.02,0.01,0.02c0.01,0.01,0.01,0.02,0.01,0.02
			c0,0.01,0.01,0.03,0.01,0.03c0,0.01,0.01,0.03,0.01,0.03c0,0.01,0,0.03,0,0.03c0,0.01,0,0.03,0,0.03c0,0.01,0,0.03,0,0.03
			c0,0.01,0,0.03,0,0.03c0,0.01,0,0.03,0,0.03c0,0.01,0,0.03,0,0.03c0,0.01-0.01,0.03-0.01,0.03c0,0.01-0.01,0.03-0.01,0.03
			c0,0.01-0.01,0.02-0.01,0.02c-0.01,0.01-0.01,0.02-0.01,0.02c-0.01,0.01-2.15,3.72-2.15,3.72c-0.01,0.01-0.01,0.02-0.01,0.02
			c-0.01,0.01-0.02,0.02-0.02,0.02c-0.01,0.01-0.02,0.02-0.02,0.02c-0.01,0.01-0.02,0.02-0.02,0.02c-0.01,0.01-0.02,0.02-0.02,0.02
			c-0.01,0.01-0.02,0.02-0.02,0.02c-0.01,0.01-0.02,0.01-0.02,0.01c-0.01,0.01-0.02,0.01-0.02,0.01c-0.01,0.01-0.02,0.01-0.02,0.01
			c-0.01,0.01-0.02,0.01-0.02,0.01c-0.01,0-0.03,0.01-0.03,0.01c-0.01,0-0.03,0.01-0.03,0.01c-0.01,0-0.03,0-0.03,0
			c-0.01,0-0.03,0-0.03,0c-0.01,0-0.03,0-0.03,0c-0.01,0-0.03,0-0.03,0c-0.01,0-0.03,0-0.03,0c-0.01,0-0.03,0-0.03,0
			c-0.01,0-0.03-0.01-0.03-0.01c-0.01,0-0.52-0.17-0.52-0.17l-2.86-0.86l-2.89-0.76l-2.91-0.66L122.19,19l-2.95-0.45l-2.97-0.35
			l-2.98-0.25l-2.98-0.14l-2.99-0.04l-2.99,0.06L101.35,18l-2.98,0.27l-2.96,0.38l-2.95,0.48l-2.93,0.58l-2.91,0.68l-2.88,0.78
			l-2.85,0.88l-2.82,0.98l-2.79,1.08l-2.75,1.17l-2.71,1.27l-2.66,1.36l-2.61,1.45l-2.56,1.54l-2.5,1.63l-2.44,1.72l-2.38,1.8
			l-2.32,1.88l-2.25,1.96l-2.18,2.04l-2.11,2.12l-2.04,2.19l-1.96,2.26l-1.88,2.32l-1.8,2.39l-1.71,2.45l-1.63,2.51l-1.54,2.56
			l-1.18,2.11l-1.11,2.14l-1.05,2.17l-0.98,2.2l-0.68,1.63l-0.64,1.64L27,74.28l-0.56,1.67l-0.54,1.73l-0.5,1.75l-0.45,1.76
			l-0.41,1.77l-0.38,1.9l-0.33,1.91l-0.28,1.92l-0.22,1.92l-0.15,1.81l-0.1,1.81l-0.05,1.82l0,1.82l0.04,1.44l0.07,1.44l0.1,1.44
			l0.14,1.43l0.17,1.43l0.2,1.43l0.24,1.42l0.27,1.41l0.34,1.58l0.39,1.57L25.4,114l0.47,1.55l0.44,1.32l0.47,1.31l0.5,1.3
			l0.53,1.28l0.55,1.26l0.58,1.25l0.61,1.23l0.64,1.22l0.61,1.11l0.64,1.1l0.66,1.08l0.68,1.07l0.87,1.3l0.9,1.28l0.66,0.89
			l0.67,0.88l1.39,1.72l0.9,1.05l0.92,1.03l0.94,1.01l0.96,0.99l1.15,1.13l1.18,1.11l1.21,1.08l1.23,1.05l1.65,1.33l1.69,1.28
			l1.73,1.23l1.76,1.18l1.4,0.89l1.42,0.86l1.44,0.83l1.45,0.8l1.47,0.77l1.49,0.74l1.5,0.71l1.51,0.68l0.68,0.3
			c0.01,0.01,0.02,0.01,0.02,0.01c0.01,0.01,0.02,0.01,0.02,0.01c0.01,0.01,0.02,0.01,0.02,0.01c0.01,0.01,0.02,0.02,0.02,0.02
			c0.01,0.01,0.02,0.02,0.02,0.02c0.02,0.02,0.03,0.03,0.03,0.03c0.01,0.01,0.02,0.02,0.02,0.02c0.01,0.01,0.01,0.02,0.01,0.02
			c0.01,0.01,0.01,0.02,0.01,0.02c0.01,0.01,0.01,0.02,0.01,0.02c0.01,0.01,0.01,0.02,0.01,0.02c0,0.01,0.01,0.02,0.01,0.02
			c0,0.01,0.01,0.03,0.01,0.03c0,0.01,0.01,0.03,0.01,0.03c0,0.01,0,0.03,0,0.03c0,0.01,0,0.03,0,0.03c0,0.01,0,0.03,0,0.03
			c0,0.01,0,0.03,0,0.03c0,0.01,0,0.03,0,0.03c0,0.01-0.01,0.03-0.01,0.03c0,0.01-0.01,0.02-0.01,0.02c0,0.01-0.01,0.02-0.01,0.02
			c-0.01,0.01-0.01,0.02-0.01,0.02C65.12,156.69,65.12,156.7,65.12,156.7z"/>
	</g>
</g>
</svg>
