<?xml version="1.0" encoding="utf-8"?>
<!-- Generator: Adobe Illustrator 24.3.0, SVG Export Plug-In . SVG Version: 6.00 Build 0)  -->
<svg version="1.1" id="레이어_1" xmlns="http://www.w3.org/2000/svg" xmlns:xlink="http://www.w3.org/1999/xlink" x="0px"
	 y="0px" viewBox="0 0 320 21" enable-background="new 0 0 320 21" xml:space="preserve">
<g>
	<g>
		<polygon fill-rule="evenodd" clip-rule="evenodd" fill="#D3D3D3" points="0.21,19.98 0.21,0.68 3.51,0.68 3.51,17.14 12.87,17.14 
			12.87,19.98 		"/>
		<polygon fill-rule="evenodd" clip-rule="evenodd" fill="#D3D3D3" points="226.14,19.98 226.14,0.68 240.98,0.68 240.98,3.52 
			229.44,3.52 229.44,8.66 240.19,8.66 240.19,11.48 229.44,11.48 229.44,17.14 241.52,17.14 241.52,19.98 		"/>
		<polygon fill-rule="evenodd" clip-rule="evenodd" fill="#D3D3D3" points="171.84,6.25 171.66,5.79 171.48,5.31 171.12,4.26 
			170.8,5.2 170.4,6.27 165.04,19.98 161.58,19.98 169.46,0.68 172.85,0.68 180.6,19.98 177.18,19.98 175.07,14.57 168.36,14.57 
			169.43,11.82 174.01,11.82 		"/>
		<polygon fill-rule="evenodd" clip-rule="evenodd" fill="#D3D3D3" points="104.5,6.08 106.85,2.02 107.13,2.21 107.41,2.42 
			107.68,2.63 107.95,2.85 108.2,3.09 108.45,3.33 108.69,3.58 108.92,3.83 109.14,4.1 109.36,4.37 109.56,4.65 109.75,4.94 
			109.93,5.23 110.11,5.53 110.27,5.84 110.42,6.15 110.56,6.46 110.69,6.78 110.8,7.11 110.91,7.44 111.01,7.77 111.09,8.11 
			111.16,8.44 111.22,8.79 111.27,9.13 111.3,9.47 111.33,9.82 111.34,10.16 111.34,10.51 111.32,10.85 111.3,11.2 111.26,11.54 
			111.22,11.88 111.16,12.22 111.08,12.56 111,12.9 110.9,13.23 110.8,13.56 110.68,13.88 110.55,14.2 110.41,14.52 110.26,14.83 
			110.09,15.13 109.92,15.43 109.74,15.73 109.55,16.01 109.34,16.29 109.13,16.57 108.91,16.83 108.68,17.09 108.44,17.34 
			108.19,17.58 107.93,17.81 107.67,18.03 107.39,18.24 107.11,18.45 106.83,18.64 106.54,18.82 106.24,19 105.93,19.16 
			105.62,19.31 105.31,19.45 104.99,19.58 104.66,19.7 104.33,19.81 104,19.9 103.66,19.99 103.33,20.06 102.99,20.12 102.64,20.17 
			102.3,20.21 101.96,20.23 101.61,20.24 101.27,20.25 100.92,20.23 100.57,20.21 100.23,20.18 99.89,20.13 99.55,20.07 99.21,20 
			98.87,19.92 98.54,19.82 98.21,19.72 97.89,19.6 97.57,19.47 97.25,19.33 96.94,19.18 98.32,16.79 98.46,16.85 98.6,16.91 
			98.74,16.97 98.89,17.03 99.04,17.08 99.19,17.13 99.34,17.18 99.5,17.23 99.65,17.27 99.81,17.31 99.97,17.34 100.13,17.37 
			100.3,17.4 100.46,17.42 100.63,17.44 100.8,17.46 100.96,17.47 101.13,17.48 101.31,17.49 101.48,17.49 101.65,17.48 
			101.82,17.48 101.99,17.46 102.17,17.45 102.34,17.43 102.51,17.4 102.68,17.38 102.86,17.34 103.03,17.3 103.2,17.26 
			103.37,17.22 103.54,17.17 103.7,17.11 103.87,17.06 104.03,16.99 104.19,16.93 104.35,16.86 104.51,16.78 104.67,16.71 
			104.82,16.63 104.97,16.54 105.12,16.45 105.27,16.36 105.41,16.27 105.56,16.17 105.69,16.07 105.83,15.97 105.96,15.86 
			106.09,15.75 106.22,15.64 106.34,15.53 106.46,15.41 106.57,15.3 106.69,15.18 106.8,15.06 106.9,14.93 107,14.81 107.1,14.68 
			107.2,14.56 107.29,14.43 107.38,14.3 107.46,14.17 107.54,14.04 107.62,13.91 107.7,13.77 107.77,13.64 107.84,13.5 107.9,13.36 
			107.97,13.22 108.03,13.08 108.08,12.94 108.13,12.8 108.18,12.65 108.23,12.51 108.27,12.36 108.31,12.21 108.34,12.06 
			108.37,11.91 108.4,11.76 108.42,11.61 108.43,11.45 108.45,11.3 108.45,11.15 108.46,11 108.46,10.85 108.45,10.69 108.44,10.54 
			108.42,10.39 108.4,10.24 108.38,10.09 108.35,9.94 108.31,9.8 108.27,9.65 108.23,9.5 108.18,9.36 108.12,9.22 108.07,9.08 
			108,8.94 107.93,8.8 107.86,8.67 107.79,8.54 107.71,8.41 107.62,8.28 107.53,8.16 107.44,8.04 107.34,7.92 107.24,7.8 
			107.14,7.69 107.03,7.58 106.92,7.47 106.8,7.36 106.68,7.26 106.56,7.16 106.44,7.07 106.31,6.98 106.19,6.89 106.05,6.8 
			105.92,6.72 105.79,6.64 105.65,6.57 105.51,6.5 105.37,6.43 105.23,6.36 105.08,6.3 104.94,6.24 104.79,6.19 104.65,6.13 		"/>
		<polygon fill-rule="evenodd" clip-rule="evenodd" fill="#D3D3D3" points="98.33,14.56 95.98,18.63 95.7,18.43 95.42,18.23 
			95.15,18.02 94.88,17.79 94.63,17.56 94.38,17.32 94.14,17.07 93.91,16.81 93.69,16.55 93.48,16.28 93.27,16 93.08,15.71 
			92.9,15.41 92.73,15.12 92.56,14.81 92.41,14.5 92.27,14.18 92.14,13.86 92.03,13.54 91.92,13.21 91.83,12.88 91.74,12.54 
			91.67,12.2 91.61,11.86 91.56,11.52 91.53,11.18 91.51,10.83 91.49,10.48 91.49,10.14 91.51,9.79 91.53,9.45 91.57,9.11 
			91.62,8.76 91.68,8.42 91.75,8.08 91.83,7.75 91.93,7.42 92.03,7.09 92.15,6.76 92.28,6.44 92.42,6.13 92.57,5.82 92.74,5.51 
			92.91,5.21 93.09,4.92 93.29,4.63 93.49,4.35 93.7,4.08 93.92,3.82 94.15,3.56 94.39,3.31 94.64,3.07 94.9,2.84 95.16,2.62 
			95.44,2.4 95.72,2.2 96,2.01 96.3,1.82 96.59,1.65 96.9,1.49 97.21,1.34 97.53,1.19 97.85,1.06 98.17,0.95 98.5,0.84 98.83,0.74 
			99.17,0.66 99.5,0.59 99.84,0.53 100.19,0.48 100.53,0.44 100.88,0.41 101.22,0.4 101.57,0.4 101.91,0.41 102.26,0.44 102.6,0.47 
			102.94,0.52 103.28,0.58 103.62,0.65 103.96,0.73 104.29,0.83 104.62,0.93 104.94,1.05 105.26,1.18 105.58,1.32 105.89,1.47 
			104.51,3.86 104.37,3.8 104.23,3.73 104.09,3.67 103.94,3.62 103.79,3.56 103.64,3.51 103.49,3.47 103.34,3.42 103.18,3.38 
			103.02,3.34 102.86,3.31 102.7,3.27 102.53,3.25 102.37,3.22 102.2,3.2 102.04,3.19 101.87,3.17 101.7,3.16 101.53,3.16 
			101.35,3.16 101.18,3.16 101.01,3.17 100.84,3.18 100.66,3.2 100.49,3.22 100.32,3.24 100.15,3.27 99.97,3.3 99.8,3.34 
			99.63,3.38 99.46,3.43 99.3,3.48 99.13,3.53 98.96,3.59 98.8,3.65 98.64,3.72 98.48,3.79 98.32,3.86 98.16,3.94 98.01,4.02 
			97.86,4.1 97.71,4.19 97.56,4.28 97.42,4.38 97.28,4.48 97.14,4.58 97,4.68 96.87,4.78 96.74,4.89 96.62,5 96.49,5.12 96.37,5.23 
			96.26,5.35 96.14,5.47 96.04,5.59 95.93,5.71 95.83,5.84 95.73,5.96 95.63,6.09 95.54,6.22 95.45,6.35 95.37,6.48 95.29,6.61 
			95.21,6.74 95.14,6.87 95.06,7.01 94.99,7.14 94.93,7.28 94.87,7.42 94.81,7.56 94.75,7.71 94.7,7.85 94.65,8 94.6,8.14 
			94.56,8.29 94.52,8.44 94.49,8.59 94.46,8.74 94.43,8.89 94.41,9.04 94.4,9.19 94.38,9.34 94.38,9.5 94.37,9.65 94.38,9.8 
			94.38,9.95 94.39,10.1 94.41,10.26 94.43,10.41 94.45,10.55 94.48,10.7 94.52,10.85 94.56,11 94.6,11.14 94.65,11.29 94.71,11.43 
			94.77,11.57 94.83,11.71 94.9,11.84 94.97,11.98 95.04,12.11 95.13,12.24 95.21,12.36 95.3,12.49 95.39,12.61 95.49,12.73 
			95.59,12.85 95.7,12.96 95.8,13.07 95.91,13.18 96.03,13.28 96.15,13.38 96.27,13.48 96.39,13.58 96.52,13.67 96.65,13.76 
			96.78,13.84 96.91,13.92 97.05,14 97.18,14.08 97.32,14.15 97.46,14.22 97.6,14.28 97.75,14.35 97.89,14.4 98.04,14.46 
			98.18,14.51 		"/>
		<polygon fill-rule="evenodd" clip-rule="evenodd" fill="#D3D3D3" points="35.38,20.25 35.82,20.24 36.04,20.23 36.26,20.22 
			36.47,20.2 36.69,20.18 36.91,20.15 37.13,20.12 37.33,20.09 37.53,20.05 37.73,20.01 37.92,19.97 38.12,19.92 38.32,19.86 
			38.51,19.8 38.71,19.74 38.89,19.68 39.07,19.61 39.25,19.54 39.42,19.46 39.6,19.38 39.77,19.29 39.94,19.2 40.11,19.1 
			40.27,19.01 40.42,18.91 40.58,18.81 40.73,18.7 40.88,18.59 41.02,18.47 41.16,18.35 41.3,18.23 41.43,18.1 41.56,17.97 
			41.69,17.84 41.81,17.7 41.93,17.56 42.04,17.42 42.15,17.27 42.26,17.12 42.36,16.96 42.46,16.8 42.56,16.64 42.65,16.48 
			42.73,16.31 42.82,16.14 42.89,15.97 42.97,15.79 43.04,15.61 43.1,15.43 43.16,15.24 43.22,15.05 43.27,14.86 43.31,14.67 
			43.35,14.48 43.39,14.29 43.42,14.08 43.45,13.88 43.48,13.67 43.5,13.46 43.51,13.25 43.52,13.04 43.53,12.83 43.53,12.62 
			43.53,0.68 40.24,0.68 40.24,12.48 40.24,12.77 40.23,12.92 40.22,13.06 40.21,13.21 40.2,13.36 40.18,13.5 40.16,13.65 
			40.14,13.78 40.11,13.9 40.09,14.03 40.06,14.15 40.03,14.28 39.99,14.4 39.96,14.53 39.92,14.65 39.88,14.76 39.83,14.87 
			39.79,14.97 39.74,15.08 39.69,15.18 39.64,15.28 39.58,15.39 39.52,15.49 39.46,15.58 39.4,15.67 39.33,15.76 39.27,15.84 
			39.2,15.93 39.12,16.01 39.05,16.09 38.97,16.17 38.89,16.25 38.81,16.32 38.73,16.39 38.64,16.46 38.55,16.53 38.46,16.59 
			38.37,16.65 38.28,16.71 38.18,16.77 38.08,16.82 37.98,16.88 37.88,16.93 37.77,16.97 37.67,17.02 37.56,17.06 37.46,17.1 
			37.34,17.14 37.22,17.17 37.1,17.21 36.98,17.24 36.85,17.27 36.73,17.29 36.61,17.32 36.49,17.34 36.35,17.36 36.21,17.37 
			36.07,17.39 35.93,17.4 35.79,17.41 35.65,17.41 35.37,17.42 35.1,17.41 34.96,17.41 34.82,17.4 34.69,17.39 34.55,17.37 
			34.42,17.36 34.28,17.34 34.17,17.32 34.05,17.3 33.93,17.27 33.81,17.25 33.7,17.22 33.58,17.18 33.47,17.15 33.36,17.11 
			33.25,17.07 33.15,17.03 33.05,16.99 32.95,16.95 32.86,16.9 32.76,16.85 32.67,16.79 32.58,16.74 32.49,16.68 32.4,16.62 
			32.32,16.56 32.24,16.5 32.16,16.43 32.08,16.36 32.01,16.29 31.93,16.22 31.86,16.15 31.79,16.07 31.72,15.99 31.66,15.91 
			31.6,15.82 31.54,15.74 31.48,15.65 31.43,15.56 31.37,15.47 31.32,15.37 31.27,15.27 31.22,15.17 31.18,15.07 31.14,14.96 
			31.1,14.86 31.06,14.75 31.02,14.63 30.99,14.52 30.96,14.39 30.93,14.27 30.9,14.15 30.88,14.03 30.85,13.91 30.84,13.78 
			30.82,13.64 30.8,13.5 30.79,13.36 30.78,13.22 30.76,12.93 30.76,12.65 30.76,0.68 27.46,0.68 27.46,12.86 27.46,13.06 
			27.46,13.27 27.47,13.47 27.49,13.67 27.51,13.88 27.53,14.08 27.56,14.28 27.59,14.48 27.63,14.67 27.67,14.85 27.71,15.04 
			27.76,15.22 27.82,15.4 27.88,15.58 27.94,15.76 28.01,15.94 28.08,16.11 28.16,16.28 28.24,16.44 28.32,16.61 28.41,16.77 
			28.5,16.92 28.6,17.08 28.7,17.23 28.81,17.37 28.92,17.51 29.03,17.65 29.14,17.79 29.26,17.92 29.38,18.05 29.51,18.18 
			29.64,18.3 29.78,18.42 29.91,18.53 30.05,18.65 30.2,18.75 30.35,18.86 30.5,18.96 30.65,19.05 30.8,19.15 30.97,19.24 
			31.13,19.33 31.3,19.41 31.47,19.49 31.64,19.56 31.82,19.63 31.99,19.7 32.17,19.76 32.36,19.82 32.54,19.88 32.73,19.93 
			32.93,19.98 33.12,20.02 33.31,20.06 33.5,20.09 33.7,20.13 33.91,20.15 34.12,20.18 34.33,20.2 34.54,20.22 34.75,20.23 
			34.96,20.24 		"/>
		<polygon fill-rule="evenodd" clip-rule="evenodd" fill="#D3D3D3" points="58.58,10.24 58.58,10.7 58.61,11.15 58.64,11.61 
			58.69,12.06 58.75,12.48 58.79,12.69 58.83,12.9 58.87,13.11 58.92,13.32 58.97,13.53 59.03,13.73 59.08,13.93 59.14,14.12 
			59.21,14.31 59.28,14.51 59.35,14.7 59.43,14.88 59.51,15.07 59.59,15.26 59.68,15.43 59.77,15.61 59.86,15.78 59.95,15.95 
			60.06,16.12 60.16,16.29 60.27,16.45 60.38,16.61 60.49,16.77 60.61,16.92 60.73,17.07 60.85,17.22 60.98,17.36 61.11,17.5 
			61.24,17.64 61.37,17.77 61.51,17.9 61.66,18.03 61.8,18.15 61.95,18.28 62.1,18.39 62.26,18.51 62.41,18.62 62.57,18.72 
			62.74,18.83 62.91,18.93 63.08,19.02 63.25,19.12 63.43,19.21 63.6,19.29 63.78,19.37 63.96,19.45 64.15,19.53 64.34,19.6 
			64.53,19.67 64.73,19.73 64.92,19.79 65.12,19.85 65.31,19.9 65.51,19.95 65.72,19.99 65.93,20.04 66.14,20.07 66.36,20.11 
			66.57,20.14 66.78,20.16 67.21,20.2 67.66,20.23 68.12,20.25 68.53,20.25 68.94,20.23 69.33,20.21 69.71,20.18 70.1,20.14 
			70.48,20.08 70.85,20.02 71.22,19.95 71.59,19.87 71.95,19.77 72.31,19.67 72.66,19.55 73.01,19.43 73.35,19.29 73.68,19.15 
			74.01,19 74.33,18.83 74.64,18.66 74.94,18.48 75.23,18.3 75.52,18.1 75.66,18 75.8,17.89 76.07,17.68 76.2,17.57 76.33,17.46 
			76.46,17.34 76.58,17.23 76.7,17.11 76.83,16.99 76.94,16.87 76.94,9.93 68.3,9.93 68.3,12.82 73.83,12.82 73.83,15.59 
			73.74,15.67 73.64,15.76 73.55,15.83 73.45,15.91 73.35,15.98 73.25,16.05 73.14,16.12 73.04,16.19 72.92,16.26 72.8,16.33 
			72.68,16.4 72.56,16.46 72.44,16.52 72.31,16.58 72.19,16.64 72.06,16.69 71.93,16.75 71.79,16.8 71.51,16.9 71.35,16.95 71.2,17 
			71.04,17.05 70.89,17.09 70.73,17.13 70.56,17.17 70.4,17.21 70.24,17.24 69.91,17.3 69.58,17.34 69.24,17.38 68.9,17.4 
			68.55,17.41 68.21,17.42 67.92,17.41 67.62,17.39 67.48,17.38 67.33,17.36 67.19,17.34 67.04,17.32 66.91,17.3 66.77,17.28 
			66.64,17.25 66.51,17.22 66.38,17.19 66.25,17.15 66.12,17.12 65.99,17.07 65.87,17.03 65.75,16.99 65.63,16.94 65.52,16.89 
			65.4,16.84 65.28,16.79 65.17,16.73 65.06,16.67 64.95,16.61 64.84,16.55 64.74,16.48 64.63,16.41 64.53,16.34 64.43,16.27 
			64.33,16.19 64.24,16.11 64.14,16.03 64.04,15.95 63.95,15.86 63.86,15.77 63.77,15.68 63.68,15.59 63.6,15.5 63.52,15.4 
			63.44,15.3 63.36,15.2 63.28,15.09 63.2,14.99 63.13,14.88 63.06,14.77 62.99,14.66 62.92,14.55 62.86,14.43 62.79,14.32 
			62.73,14.2 62.67,14.08 62.62,13.95 62.56,13.83 62.51,13.71 62.46,13.58 62.42,13.45 62.37,13.31 62.33,13.18 62.28,13.04 
			62.25,12.91 62.21,12.77 62.14,12.49 62.11,12.34 62.08,12.19 62.03,11.88 61.99,11.58 61.96,11.27 61.94,10.94 61.93,10.61 
			61.92,10.27 61.92,9.93 61.94,9.6 61.96,9.28 61.99,8.96 62.02,8.64 62.07,8.35 62.12,8.06 62.18,7.77 62.22,7.63 62.26,7.48 
			62.29,7.35 62.33,7.22 62.37,7.1 62.42,6.97 62.46,6.84 62.51,6.72 62.56,6.59 62.62,6.47 62.67,6.35 62.72,6.24 62.78,6.13 
			62.84,6.01 62.9,5.9 62.97,5.8 63.04,5.69 63.1,5.58 63.17,5.48 63.25,5.38 63.32,5.29 63.39,5.19 63.47,5.1 63.55,5.01 
			63.64,4.92 63.72,4.83 63.8,4.75 63.89,4.66 63.98,4.58 64.07,4.51 64.16,4.43 64.26,4.36 64.35,4.29 64.45,4.22 64.55,4.15 
			64.65,4.09 64.76,4.03 64.86,3.97 64.97,3.91 65.08,3.86 65.19,3.81 65.3,3.76 65.41,3.71 65.53,3.67 65.65,3.62 65.77,3.58 
			65.89,3.54 66.02,3.51 66.14,3.47 66.27,3.44 66.41,3.41 66.54,3.38 66.68,3.36 66.82,3.34 66.96,3.32 67.1,3.3 67.37,3.27 
			67.68,3.25 67.98,3.24 68.16,3.24 68.35,3.25 68.54,3.25 68.73,3.26 68.9,3.27 69.08,3.29 69.26,3.31 69.43,3.33 69.61,3.36 
			69.78,3.39 69.96,3.42 70.13,3.46 70.28,3.5 70.43,3.54 70.58,3.59 70.73,3.64 70.88,3.69 71.02,3.75 71.16,3.81 71.31,3.88 
			71.44,3.95 71.51,3.99 71.58,4.03 71.65,4.07 71.71,4.11 71.78,4.15 71.84,4.2 71.9,4.24 71.96,4.28 72.02,4.33 72.08,4.37 
			72.19,4.46 72.3,4.56 72.4,4.66 72.51,4.77 72.61,4.87 72.7,4.98 72.8,5.11 72.9,5.23 72.99,5.36 73.08,5.49 73.16,5.63 
			73.24,5.77 73.32,5.91 73.39,6.05 73.54,6.34 73.86,6.25 76.69,5.41 76.5,5 76.38,4.74 76.25,4.5 76.12,4.25 75.98,4.01 
			75.84,3.79 75.69,3.57 75.53,3.35 75.45,3.25 75.37,3.15 75.28,3.05 75.2,2.95 75.11,2.86 75.03,2.76 74.94,2.67 74.85,2.58 
			74.75,2.49 74.66,2.4 74.57,2.32 74.47,2.24 74.37,2.16 74.27,2.08 74.17,2 74.07,1.93 73.97,1.85 73.86,1.78 73.76,1.71 
			73.65,1.65 73.54,1.58 73.43,1.52 73.22,1.41 73.01,1.3 72.79,1.2 72.57,1.11 72.31,1.02 72.05,0.93 71.79,0.85 71.53,0.78 
			71.25,0.71 70.96,0.65 70.68,0.6 70.39,0.55 70.08,0.51 69.77,0.47 69.45,0.45 69.14,0.43 68.81,0.41 68.48,0.4 67.91,0.4 
			67.44,0.42 66.98,0.45 66.75,0.47 66.52,0.5 66.29,0.53 66.06,0.56 65.85,0.6 65.63,0.63 65.42,0.68 65.21,0.73 65.01,0.78 
			64.8,0.84 64.59,0.9 64.39,0.96 64.2,1.03 64.01,1.1 63.82,1.18 63.63,1.26 63.44,1.34 63.26,1.43 63.08,1.52 62.9,1.62 
			62.73,1.72 62.56,1.82 62.39,1.93 62.23,2.04 62.07,2.16 61.91,2.27 61.76,2.4 61.6,2.53 61.46,2.66 61.31,2.79 61.17,2.93 
			61.03,3.07 60.89,3.22 60.76,3.37 60.64,3.52 60.51,3.67 60.39,3.83 60.28,4 60.16,4.16 60.05,4.33 59.95,4.5 59.85,4.67 
			59.75,4.85 59.66,5.03 59.57,5.22 59.48,5.41 59.4,5.6 59.32,5.79 59.25,5.99 59.18,6.18 59.12,6.38 59.06,6.58 59,6.79 
			58.94,7.01 58.89,7.22 58.84,7.44 58.8,7.66 58.76,7.88 58.73,8.1 58.7,8.32 58.67,8.56 58.64,8.8 58.61,9.28 58.59,9.76 		"/>
		<polygon fill-rule="evenodd" clip-rule="evenodd" fill="#D3D3D3" points="137.58,7.93 140.86,19.98 144.46,19.98 150.15,0.68 
			146.7,0.68 146.62,0.97 143.03,13.96 142.92,14.37 142.62,15.64 141.84,12.5 138.54,0.68 135.53,0.68 135.45,0.97 131.9,13.72 
			131.8,14.13 131.46,15.57 130.75,12.73 127.34,0.68 123.9,0.68 129.58,19.98 133.18,19.98 133.26,19.69 136.74,6.94 136.85,6.51 
			137.03,5.71 137.19,6.38 137.4,7.26 		"/>
		<polygon fill-rule="evenodd" clip-rule="evenodd" fill="#D3D3D3" points="197.6,12.3 197.6,9.52 197.6,3.48 197.6,0.68 
			194.29,0.68 194.29,19.98 197.6,19.98 		"/>
		<polygon fill-rule="evenodd" clip-rule="evenodd" fill="#D3D3D3" points="206.06,11.88 206.25,11.83 206.43,11.77 206.61,11.71 
			206.79,11.65 206.97,11.58 207.14,11.5 207.32,11.42 207.48,11.33 207.59,11.27 207.7,11.21 207.81,11.15 207.91,11.08 
			208.02,11.01 208.12,10.94 208.22,10.86 208.32,10.78 208.41,10.71 208.51,10.63 208.6,10.54 208.69,10.46 208.78,10.37 
			208.86,10.28 208.95,10.19 209.03,10.1 209.11,10 209.19,9.9 209.26,9.81 209.33,9.71 209.4,9.6 209.47,9.5 209.54,9.4 
			209.6,9.29 209.66,9.18 209.72,9.07 209.77,8.96 209.82,8.85 209.87,8.74 209.92,8.63 209.96,8.51 210.01,8.4 210.05,8.28 
			210.08,8.16 210.12,8.04 210.15,7.91 210.18,7.79 210.2,7.67 210.23,7.54 210.25,7.42 210.27,7.29 210.28,7.16 210.3,7.03 
			210.31,6.9 210.32,6.76 210.32,6.63 210.33,6.5 210.33,6.37 210.33,6.21 210.32,6.05 210.31,5.9 210.3,5.74 210.28,5.58 
			210.27,5.42 210.24,5.27 210.21,5.11 210.18,4.97 210.15,4.83 210.11,4.68 210.07,4.54 210.03,4.4 209.98,4.26 209.93,4.12 
			209.87,3.99 209.81,3.86 209.75,3.73 209.68,3.6 209.61,3.48 209.53,3.35 209.46,3.23 209.37,3.12 209.29,3 209.2,2.89 
			209.11,2.77 209.01,2.67 208.91,2.56 208.81,2.46 208.7,2.36 208.59,2.26 208.48,2.17 208.36,2.07 208.24,1.98 208.12,1.89 
			207.99,1.81 207.87,1.73 207.74,1.65 207.6,1.58 207.47,1.51 207.33,1.44 207.18,1.37 207.03,1.31 206.89,1.25 206.74,1.19 
			206.59,1.14 206.43,1.09 206.28,1.04 206.11,1 205.95,0.95 205.78,0.91 205.61,0.88 205.44,0.85 205.27,0.82 204.92,0.77 
			204.73,0.74 204.54,0.73 204.16,0.7 203.78,0.68 203.4,0.68 198.7,0.68 198.7,3.48 203.15,3.48 203.38,3.48 203.61,3.49 
			203.85,3.51 204.08,3.53 204.28,3.56 204.48,3.59 204.57,3.61 204.67,3.63 204.77,3.65 204.87,3.68 204.95,3.7 205.04,3.73 
			205.12,3.75 205.21,3.78 205.29,3.81 205.37,3.85 205.45,3.88 205.53,3.92 205.6,3.95 205.67,3.99 205.74,4.03 205.81,4.07 
			205.88,4.11 205.94,4.15 206.01,4.2 206.07,4.24 206.12,4.29 206.18,4.34 206.23,4.38 206.29,4.43 206.34,4.49 206.39,4.54 
			206.43,4.59 206.48,4.65 206.52,4.7 206.56,4.76 206.6,4.82 206.64,4.88 206.68,4.94 206.71,5 206.74,5.07 206.77,5.13 206.8,5.2 
			206.83,5.27 206.85,5.34 206.88,5.42 206.9,5.49 206.92,5.56 206.93,5.64 206.95,5.71 206.96,5.79 206.98,5.88 206.99,5.97 
			207,6.05 207,6.14 207.01,6.22 207.01,6.31 207.01,6.39 207.01,6.48 207.01,6.57 207,6.66 207,6.75 206.99,6.84 206.98,6.93 
			206.96,7.02 206.95,7.11 206.93,7.19 206.92,7.27 206.9,7.35 206.88,7.42 206.85,7.5 206.83,7.58 206.8,7.65 206.77,7.72 
			206.74,7.79 206.71,7.86 206.68,7.93 206.64,7.99 206.6,8.06 206.56,8.12 206.52,8.18 206.48,8.25 206.43,8.31 206.38,8.37 
			206.34,8.42 206.28,8.48 206.23,8.53 206.18,8.59 206.12,8.64 206.07,8.69 206,8.74 205.94,8.79 205.88,8.84 205.81,8.88 
			205.75,8.92 205.68,8.97 205.61,9.01 205.54,9.04 205.46,9.08 205.38,9.12 205.31,9.16 205.23,9.19 205.15,9.22 205.06,9.25 
			204.98,9.28 204.9,9.3 204.81,9.33 204.71,9.36 204.62,9.38 204.52,9.4 204.43,9.42 204.33,9.44 204.24,9.45 204.14,9.46 
			204.03,9.48 203.92,9.49 203.7,9.51 203.48,9.52 203.26,9.52 198.7,9.52 198.7,12.3 202.75,12.3 207.56,19.98 211.4,19.98 		"/>
	</g>
	<g>
		<path fill="#D3D3D3" d="M255.38,19.98V9.05h2.83c0.83,0,1.54,0.1,2.14,0.3c0.59,0.2,1.05,0.52,1.37,0.97
			c0.32,0.44,0.48,1.05,0.48,1.81c0,0.73-0.16,1.33-0.47,1.81c-0.31,0.48-0.76,0.83-1.35,1.07c-0.58,0.24-1.29,0.36-2.11,0.36h-2
			v4.62H255.38z M256.28,14.6h1.82c1.08,0,1.88-0.19,2.41-0.58c0.52-0.38,0.79-1.02,0.79-1.9c0-0.89-0.27-1.5-0.81-1.83
			s-1.36-0.5-2.45-0.5h-1.75V14.6z"/>
		<path fill="#D3D3D3" d="M264.47,19.98v-8.01h0.72l0.11,1.48h0.03c0.27-0.49,0.6-0.89,0.99-1.21s0.82-0.47,1.28-0.47
			c0.16,0,0.3,0.01,0.43,0.04s0.25,0.07,0.38,0.13l-0.18,0.78c-0.13-0.04-0.25-0.07-0.35-0.1c-0.1-0.02-0.23-0.04-0.39-0.04
			c-0.35,0-0.72,0.15-1.11,0.46c-0.39,0.31-0.73,0.83-1.03,1.57v5.37H264.47z"/>
		<path fill="#D3D3D3" d="M270.3,10.11c-0.21,0-0.38-0.07-0.5-0.2c-0.12-0.14-0.19-0.31-0.19-0.53c0-0.21,0.06-0.38,0.19-0.51
			c0.12-0.13,0.29-0.19,0.5-0.19c0.2,0,0.36,0.07,0.49,0.19c0.13,0.13,0.2,0.3,0.2,0.51c0,0.22-0.07,0.4-0.2,0.53
			C270.67,10.05,270.5,10.11,270.3,10.11z M269.85,19.98v-8.01h0.87v8.01H269.85z"/>
		<path fill="#D3D3D3" d="M273.71,19.98v-8.01h0.72l0.1,1.23h0.03c0.4-0.4,0.82-0.74,1.25-1.01c0.44-0.27,0.93-0.41,1.48-0.41
			c0.83,0,1.44,0.26,1.84,0.77c0.39,0.52,0.59,1.29,0.59,2.32v5.11h-0.87v-4.99c0-0.83-0.14-1.44-0.41-1.84
			c-0.27-0.4-0.73-0.59-1.36-0.59c-0.46,0-0.88,0.12-1.25,0.36c-0.37,0.24-0.79,0.6-1.26,1.08v5.98H273.71z"/>
		<path fill="#D3D3D3" d="M284.84,20.18c-0.53,0-0.94-0.1-1.24-0.31s-0.5-0.49-0.63-0.86s-0.19-0.8-0.19-1.29v-4.99h-1.23v-0.66
			l1.26-0.09l0.1-2.3h0.74v2.3h2.29v0.75h-2.29v5.05c0,0.5,0.09,0.9,0.26,1.2c0.17,0.3,0.53,0.45,1.07,0.45
			c0.15,0,0.31-0.02,0.5-0.07c0.18-0.05,0.34-0.1,0.48-0.17l0.21,0.69c-0.23,0.08-0.46,0.15-0.7,0.21
			C285.24,20.15,285.03,20.18,284.84,20.18z"/>
		<path fill="#D3D3D3" d="M287.96,19.98V9.05h6.03v0.78h-5.13v4.2h4.33v0.77h-4.33v5.19H287.96z"/>
		<path fill="#D3D3D3" d="M297.08,20.18c-0.43,0-0.82-0.08-1.17-0.25c-0.35-0.17-0.63-0.41-0.84-0.73
			c-0.21-0.33-0.31-0.74-0.31-1.24c0-0.88,0.41-1.55,1.22-2.02c0.81-0.46,2.1-0.79,3.86-0.98c0.02-0.4-0.02-0.78-0.11-1.15
			c-0.1-0.37-0.28-0.67-0.54-0.91c-0.27-0.24-0.65-0.36-1.16-0.36c-0.52,0-1,0.1-1.43,0.31c-0.44,0.21-0.8,0.41-1.09,0.61
			l-0.38-0.65c0.2-0.14,0.45-0.29,0.76-0.45c0.3-0.16,0.65-0.3,1.03-0.41c0.38-0.11,0.79-0.17,1.21-0.17c0.64,0,1.15,0.14,1.53,0.41
			c0.38,0.27,0.65,0.65,0.82,1.12c0.17,0.47,0.25,1,0.25,1.6v5.07H300l-0.09-1.02h-0.06c-0.39,0.33-0.82,0.62-1.29,0.86
			C298.09,20.06,297.6,20.18,297.08,20.18z M297.26,19.43c0.44,0,0.87-0.1,1.28-0.31c0.41-0.21,0.84-0.51,1.3-0.92V15.6
			c-1.04,0.11-1.87,0.27-2.49,0.48s-1.06,0.46-1.33,0.76c-0.27,0.3-0.4,0.66-0.4,1.07c0,0.56,0.16,0.95,0.48,1.18
			C296.42,19.32,296.81,19.43,297.26,19.43z"/>
		<path fill="#D3D3D3" d="M303.51,19.98v-8.01h0.72l0.1,1.48h0.03c0.27-0.49,0.6-0.89,0.99-1.21c0.39-0.31,0.81-0.47,1.27-0.47
			c0.16,0,0.3,0.01,0.44,0.04c0.13,0.02,0.25,0.07,0.38,0.13l-0.18,0.78c-0.13-0.04-0.25-0.07-0.34-0.1
			c-0.1-0.02-0.23-0.04-0.39-0.04c-0.35,0-0.72,0.15-1.11,0.46c-0.39,0.31-0.74,0.83-1.04,1.57v5.37H303.51z"/>
		<path fill="#D3D3D3" d="M308.9,19.98v-8.01h0.72l0.1,1.23h0.03c0.36-0.4,0.76-0.74,1.19-1.01c0.43-0.27,0.88-0.41,1.33-0.41
			c0.64,0,1.13,0.15,1.48,0.44s0.59,0.69,0.73,1.19c0.46-0.49,0.91-0.88,1.35-1.18c0.44-0.29,0.89-0.44,1.36-0.44
			c0.79,0,1.38,0.26,1.79,0.77c0.4,0.52,0.6,1.29,0.6,2.32v5.11h-0.87v-4.99c0-0.83-0.14-1.44-0.42-1.84
			c-0.28-0.4-0.72-0.59-1.31-0.59c-0.36,0-0.72,0.12-1.09,0.36c-0.37,0.24-0.78,0.6-1.21,1.08v5.98h-0.87v-4.99
			c0-0.83-0.14-1.44-0.42-1.84c-0.28-0.4-0.71-0.59-1.3-0.59c-0.35,0-0.72,0.12-1.1,0.36c-0.39,0.24-0.79,0.6-1.21,1.08v5.98H308.9z
			"/>
	</g>
</g>
</svg>
