<?xml version="1.0" encoding="utf-8"?>
<!-- Generator: Adobe Illustrator 24.3.0, SVG Export Plug-In . SVG Version: 6.00 Build 0)  -->
<svg version="1.1" id="레이어_1" xmlns="http://www.w3.org/2000/svg" xmlns:xlink="http://www.w3.org/1999/xlink" x="0px"
	 y="0px" viewBox="0 0 64 64" style="enable-background:new 0 0 64 64;" xml:space="preserve">
<style type="text/css">
	.st0{fill-rule:evenodd;clip-rule:evenodd;fill:#D3D3D3;}
	.st1{fill-rule:evenodd;clip-rule:evenodd;fill:#292927;}
	.st2{fill-rule:evenodd;clip-rule:evenodd;fill:#00FFFF;}
	.st3{fill-rule:evenodd;clip-rule:evenodd;fill:#FFFFFF;}
</style>
<polygon class="st0" points="41.9,18.4 49.43,5.35 50.14,5.82 50.84,6.32 51.52,6.84 52.19,7.37 52.84,7.92 53.48,8.48 54.1,9.07 
	54.71,9.67 55.3,10.29 55.87,10.92 56.43,11.57 56.97,12.23 57.49,12.91 57.99,13.6 58.47,14.3 58.94,15.02 59.39,15.74 
	59.81,16.48 60.22,17.24 60.6,18 60.97,18.77 61.31,19.55 61.64,20.34 61.94,21.14 62.22,21.95 62.48,22.76 62.71,23.58 
	62.93,24.41 63.12,25.24 63.29,26.08 63.44,26.92 63.56,27.76 63.67,28.61 63.75,29.46 63.8,30.31 63.84,31.17 63.85,32.02 
	63.83,32.88 63.8,33.73 63.74,34.58 63.66,35.43 63.56,36.28 63.43,37.12 63.28,37.96 63.11,38.8 62.92,39.63 62.7,40.46 
	62.46,41.28 62.21,42.09 61.92,42.9 61.62,43.7 61.3,44.49 60.95,45.27 60.58,46.04 60.2,46.8 59.79,47.55 59.36,48.29 58.92,49.02 
	58.45,49.74 57.97,50.44 57.46,51.13 56.94,51.8 56.4,52.47 55.84,53.11 55.27,53.74 54.68,54.36 54.07,54.96 53.45,55.54 
	52.81,56.11 52.15,56.66 51.48,57.19 50.8,57.7 50.11,58.2 49.4,58.68 48.68,59.13 47.94,59.57 47.2,59.99 46.44,60.38 45.67,60.76 
	44.9,61.12 44.11,61.45 43.32,61.77 42.52,62.06 41.71,62.33 40.89,62.58 40.07,62.81 39.24,63.01 38.4,63.2 37.56,63.36 
	36.72,63.49 35.88,63.61 35.03,63.7 34.18,63.77 33.32,63.82 32.47,63.84 31.62,63.84 30.76,63.82 29.91,63.78 29.06,63.71 
	28.21,63.62 27.36,63.51 26.52,63.37 25.68,63.21 24.84,63.03 24.01,62.83 23.19,62.6 22.37,62.36 21.56,62.09 20.76,61.8 
	19.97,61.48 19.18,61.15 18.4,60.8 17.63,60.42 22.07,52.74 22.51,52.95 22.97,53.15 23.43,53.34 23.89,53.52 24.37,53.69 
	24.85,53.86 25.34,54.01 25.84,54.15 26.34,54.29 26.85,54.41 27.36,54.52 27.88,54.62 28.41,54.71 28.94,54.79 29.47,54.86 
	30.01,54.91 30.55,54.95 31.1,54.98 31.65,54.99 32.2,54.99 32.75,54.98 33.3,54.96 33.86,54.92 34.41,54.87 34.97,54.8 
	35.52,54.72 36.07,54.63 36.62,54.52 37.17,54.41 37.72,54.27 38.26,54.13 38.8,53.97 39.34,53.79 39.87,53.61 40.4,53.41 
	40.92,53.2 41.43,52.97 41.94,52.74 42.44,52.49 42.94,52.23 43.42,51.96 43.9,51.68 44.37,51.38 44.83,51.08 45.29,50.77 
	45.73,50.45 46.16,50.11 46.59,49.77 47,49.43 47.41,49.07 47.8,48.71 48.18,48.34 48.55,47.96 48.92,47.58 49.27,47.19 49.6,46.79 
	49.93,46.39 50.25,45.99 50.55,45.58 50.85,45.17 51.13,44.76 51.4,44.34 51.66,43.92 51.91,43.5 52.15,43.07 52.38,42.64 
	52.61,42.2 52.82,41.76 53.02,41.31 53.21,40.86 53.39,40.4 53.56,39.94 53.72,39.47 53.87,39 54,38.53 54.12,38.05 54.23,37.57 
	54.32,37.09 54.4,36.6 54.47,36.12 54.53,35.63 54.56,35.14 54.59,34.65 54.6,34.17 54.59,33.68 54.57,33.19 54.54,32.7 
	54.49,32.22 54.42,31.74 54.34,31.26 54.24,30.78 54.13,30.31 54,29.84 53.86,29.37 53.7,28.91 53.53,28.46 53.34,28.01 
	53.14,27.56 52.92,27.13 52.69,26.7 52.45,26.27 52.19,25.86 51.91,25.45 51.63,25.05 51.33,24.66 51.02,24.28 50.69,23.9 
	50.36,23.54 50.01,23.18 49.65,22.84 49.29,22.5 48.91,22.18 48.52,21.86 48.13,21.56 47.72,21.26 47.31,20.98 46.89,20.71 
	46.46,20.44 46.03,20.19 45.59,19.95 45.14,19.72 44.69,19.5 44.23,19.29 43.77,19.09 43.31,18.9 42.84,18.72 42.37,18.55 "/>
<polygon class="st0" points="22.1,45.6 14.57,58.65 13.86,58.18 13.16,57.68 12.48,57.16 11.81,56.63 11.16,56.08 10.52,55.52 
	9.9,54.93 9.29,54.33 8.7,53.71 8.13,53.08 7.57,52.43 7.03,51.77 6.51,51.09 6.01,50.4 5.53,49.7 5.06,48.98 4.61,48.26 
	4.19,47.52 3.78,46.76 3.4,46 3.03,45.23 2.69,44.45 2.36,43.66 2.06,42.86 1.78,42.05 1.52,41.24 1.29,40.42 1.07,39.59 
	0.88,38.76 0.71,37.92 0.56,37.08 0.44,36.24 0.33,35.39 0.25,34.54 0.2,33.69 0.16,32.83 0.15,31.98 0.17,31.12 0.2,30.27 
	0.26,29.42 0.34,28.57 0.44,27.72 0.57,26.88 0.72,26.04 0.89,25.2 1.08,24.37 1.3,23.54 1.54,22.72 1.79,21.91 2.08,21.1 
	2.38,20.3 2.7,19.51 3.05,18.73 3.42,17.96 3.8,17.2 4.21,16.45 4.64,15.71 5.08,14.98 5.55,14.26 6.03,13.56 6.54,12.87 7.06,12.2 
	7.6,11.53 8.16,10.89 8.73,10.26 9.32,9.64 9.93,9.04 10.55,8.46 11.19,7.89 11.85,7.34 12.52,6.81 13.2,6.3 13.89,5.8 14.6,5.32 
	15.32,4.87 16.06,4.43 16.8,4.01 17.56,3.62 18.33,3.24 19.1,2.88 19.89,2.55 20.68,2.23 21.48,1.94 22.29,1.67 23.11,1.42 
	23.93,1.19 24.76,0.99 25.6,0.8 26.44,0.64 27.28,0.51 28.12,0.39 28.97,0.3 29.82,0.23 30.68,0.18 31.53,0.16 32.38,0.16 
	33.24,0.18 34.09,0.22 34.94,0.29 35.79,0.38 36.64,0.49 37.48,0.63 38.32,0.79 39.16,0.97 39.99,1.17 40.81,1.4 41.63,1.64 
	42.44,1.91 43.24,2.2 44.03,2.52 44.82,2.85 45.6,3.2 46.37,3.58 41.93,11.26 41.49,11.05 41.03,10.85 40.57,10.66 40.11,10.48 
	39.63,10.31 39.15,10.14 38.66,9.99 38.16,9.85 37.66,9.71 37.15,9.59 36.64,9.48 36.12,9.38 35.59,9.29 35.06,9.21 34.53,9.14 
	33.99,9.09 33.45,9.05 32.9,9.02 32.35,9.01 31.8,9.01 31.25,9.02 30.7,9.04 30.14,9.08 29.59,9.13 29.03,9.2 28.48,9.28 
	27.93,9.37 27.38,9.48 26.83,9.59 26.28,9.73 25.74,9.87 25.2,10.03 24.66,10.21 24.13,10.39 23.6,10.59 23.08,10.8 22.57,11.03 
	22.06,11.26 21.56,11.51 21.06,11.77 20.58,12.04 20.1,12.32 19.63,12.62 19.17,12.92 18.71,13.23 18.27,13.55 17.84,13.89 
	17.41,14.23 17,14.57 16.59,14.93 16.2,15.29 15.82,15.66 15.45,16.04 15.08,16.42 14.73,16.81 14.4,17.21 14.07,17.61 13.75,18.01 
	13.45,18.42 13.15,18.83 12.87,19.24 12.6,19.66 12.34,20.08 12.09,20.5 11.85,20.93 11.62,21.36 11.39,21.8 11.18,22.24 
	10.98,22.69 10.79,23.14 10.61,23.6 10.44,24.06 10.28,24.53 10.13,25 10,25.47 9.88,25.95 9.77,26.43 9.68,26.91 9.6,27.4 
	9.53,27.88 9.47,28.37 9.44,28.86 9.41,29.35 9.4,29.83 9.41,30.32 9.43,30.81 9.46,31.3 9.51,31.78 9.58,32.26 9.66,32.74 
	9.76,33.22 9.87,33.69 10,34.16 10.14,34.63 10.3,35.09 10.47,35.54 10.66,35.99 10.86,36.44 11.08,36.87 11.31,37.3 11.55,37.73 
	11.81,38.14 12.09,38.55 12.37,38.95 12.67,39.34 12.98,39.72 13.31,40.1 13.64,40.46 13.99,40.82 14.35,41.16 14.71,41.5 
	15.09,41.82 15.48,42.14 15.87,42.44 16.28,42.74 16.69,43.02 17.11,43.29 17.54,43.56 17.97,43.81 18.41,44.05 18.86,44.28 
	19.31,44.5 19.77,44.71 20.23,44.91 20.69,45.1 21.16,45.28 21.63,45.45 "/>
<g id="HATCH_8_">
	<path class="st1" d="M22.1,45.6l19.83-34.34l-0.44-0.21l-0.45-0.2l-0.46-0.19l-0.47-0.18l-0.48-0.17l-0.48-0.16l-0.49-0.15
		l-0.5-0.14l-0.5-0.13l-0.51-0.12l-0.51-0.11l-0.52-0.1l-0.53-0.09l-0.53-0.08l-0.53-0.07l-0.54-0.05l-0.54-0.04L32.9,9.02
		l-0.55-0.01l-0.55,0l-0.55,0.01L30.7,9.04l-0.55,0.04l-0.55,0.05L29.03,9.2l-0.55,0.08l-0.55,0.09l-0.55,0.11l-0.55,0.12
		l-0.55,0.13l-0.54,0.15l-0.54,0.16l-0.54,0.17l-0.53,0.19l-0.53,0.2l-0.52,0.21l-0.51,0.22l-0.51,0.24l-0.5,0.25l-0.49,0.26
		l-0.49,0.27l-0.48,0.28l-0.47,0.29l-0.46,0.3l-0.45,0.31l-0.44,0.32l-0.43,0.33l-0.42,0.34L17,14.57l-0.4,0.36l-0.39,0.36
		l-0.38,0.37l-0.37,0.38l-0.36,0.38l-0.35,0.39l-0.34,0.39l-0.33,0.4l-0.32,0.4l-0.31,0.41l-0.29,0.41l-0.28,0.41l-0.27,0.42
		l-0.26,0.42l-0.25,0.42l-0.24,0.43l-0.23,0.43l-0.22,0.44l-0.21,0.44l-0.2,0.45l-0.19,0.45l-0.18,0.46l-0.17,0.46l-0.16,0.47
		L10.13,25L10,25.47l-0.12,0.48l-0.11,0.48l-0.09,0.48L9.6,27.4l-0.07,0.49l-0.05,0.49l-0.04,0.49l-0.02,0.49L9.4,29.83l0.01,0.49
		l0.02,0.49l0.04,0.49l0.05,0.48l0.07,0.48l0.08,0.48l0.1,0.48l0.11,0.47L10,34.16l0.14,0.47l0.16,0.46l0.17,0.46l0.19,0.45
		l0.2,0.44l0.22,0.44l0.23,0.43l0.25,0.42l0.26,0.42l0.27,0.41l0.29,0.4l0.3,0.39l0.31,0.38l0.32,0.37l0.34,0.36l0.35,0.35
		l0.36,0.35l0.37,0.34l0.38,0.33l0.39,0.32l0.4,0.3l0.4,0.29l0.41,0.28l0.42,0.27l0.43,0.26l0.43,0.25l0.44,0.24l0.45,0.23
		l0.45,0.22l0.46,0.21l0.46,0.2l0.46,0.19l0.47,0.18l0.47,0.17L22.1,45.6z M32.86,15.06l0.02,0.03l0.02,0.03l0.02,0.03l0.02,0.03
		l0.02,0.03l0.02,0.03l0.02,0.03L33,15.3l0.02,0.03l0.02,0.03l0.02,0.03l0.01,0.03l0.01,0.04l0.01,0.04l0.01,0.04l0.01,0.04
		l0.01,0.04l0.01,0.04l0.01,0.04l0.01,0.04l0.01,0.04l0.01,0.04l0.01,0.04l0.01,0.04l0.01,0.04l0.01,0.04l0,0.04l0,0.04l0,0.04
		l0,0.04l0,0.09l0,0.09l0,0.09l-0.01,0.09l-0.01,0.1l-0.01,0.1l-0.02,0.1l-0.02,0.1l-0.02,0.1l-0.03,0.1l-0.03,0.1l-0.03,0.1
		L33,17.43l-0.04,0.11l-0.04,0.11l-0.05,0.11l-0.05,0.11l-0.05,0.11l-0.05,0.11l-0.06,0.11l-0.06,0.11l-0.06,0.11l-0.07,0.11
		l-0.07,0.11l-0.07,0.11l-0.07,0.11l-0.08,0.11l-0.16,0.21l-0.17,0.21l-0.18,0.2l-0.18,0.2l-0.19,0.19l-0.19,0.19l-0.2,0.18
		l-0.2,0.18l-0.2,0.17l-0.2,0.16l-0.2,0.15l-0.21,0.15l-0.21,0.15l-0.22,0.14l-0.23,0.14L29,21.7l-0.24,0.13l-0.24,0.12l-0.25,0.11
		l-0.25,0.11l-0.25,0.1l-0.25,0.09l-0.13,0.04l-0.13,0.04l-0.13,0.04l-0.12,0.03l-0.12,0.03l-0.12,0.03l-0.12,0.02l-0.12,0.02
		l-0.12,0.02l-0.12,0.02l-0.12,0.01l-0.12,0.01l-0.12,0.01l-0.11,0.01l-0.11,0l-0.11,0l-0.11,0l-0.11-0.01l-0.1-0.01l-0.1-0.01
		l-0.1-0.01l-0.1-0.02l-0.09-0.02l-0.09-0.02l-0.09-0.02l-0.09-0.03l-0.08-0.03l-0.04-0.02l-0.04-0.02l-0.04-0.02l-0.04-0.02
		l-0.04-0.02l-0.04-0.02l-0.04-0.02l-0.04-0.02l-0.04-0.02l-0.03-0.02l-0.03-0.02l-0.03-0.02l-0.03-0.02l-0.03-0.02L24,22.2
		l-0.03-0.02l-0.03-0.02l-0.03-0.02l-0.03-0.02l-0.03-0.02l-0.03-0.03l-0.03-0.03l-0.03-0.03l-0.03-0.03l-0.02-0.03l-0.02-0.03
		l-0.02-0.03l-0.02-0.03l-0.02-0.03l-0.02-0.03l-0.02-0.03l-0.02-0.03l-0.02-0.03l-0.02-0.03l-0.02-0.03l-0.02-0.03l-0.02-0.03
		l-0.02-0.03l-0.02-0.03l-0.02-0.03l-0.02-0.03l-0.01-0.03l-0.01-0.04l-0.01-0.04l-0.01-0.04l-0.01-0.04l-0.01-0.04l-0.01-0.04
		l-0.01-0.04l-0.01-0.04l-0.01-0.04l-0.01-0.04l-0.01-0.04l-0.01-0.04l-0.01-0.04l-0.01-0.04l0-0.04l0-0.04l0-0.04l0-0.04l0-0.09
		l0-0.09l0-0.09l0.01-0.09l0.01-0.1l0.01-0.1l0.02-0.1l0.02-0.1l0.02-0.1l0.03-0.1l0.03-0.1l0.03-0.1l0.04-0.11l0.04-0.11l0.04-0.11
		l0.05-0.11l0.05-0.11l0.05-0.11l0.05-0.11l0.06-0.11l0.06-0.11l0.06-0.11L24,18.37l0.07-0.11l0.07-0.11l0.07-0.11l0.08-0.11
		l0.16-0.21l0.17-0.21l0.18-0.2l0.18-0.2l0.19-0.19l0.19-0.19l0.2-0.18l0.2-0.18l0.2-0.17l0.2-0.16l0.2-0.15l0.21-0.15l0.21-0.15
		l0.22-0.14l0.23-0.14l0.23-0.13l0.24-0.13l0.24-0.12l0.25-0.11l0.25-0.11l0.25-0.1l0.25-0.09l0.13-0.04l0.13-0.04l0.13-0.04
		l0.12-0.03l0.12-0.03l0.12-0.03l0.12-0.02l0.12-0.02l0.12-0.02l0.12-0.02l0.12-0.01l0.12-0.01l0.12-0.01l0.11-0.01l0.11,0l0.11,0
		l0.11,0l0.11,0.01l0.1,0.01l0.1,0.01l0.1,0.01l0.1,0.02l0.09,0.02l0.09,0.02l0.09,0.02l0.09,0.03l0.08,0.03l0.04,0.02l0.04,0.02
		l0.04,0.02l0.04,0.02l0.04,0.02l0.04,0.02l0.04,0.02l0.04,0.02l0.04,0.02l0.03,0.02l0.03,0.02l0.03,0.02l0.03,0.02l0.03,0.02
		l0.03,0.02l0.03,0.02l0.03,0.02l0.03,0.02l0.03,0.02l0.03,0.02l0.03,0.03l0.03,0.03l0.03,0.03l0.03,0.03l0.02,0.03l0.02,0.03
		l0.02,0.03L32.81,15l0.02,0.03L32.86,15.06z"/>
</g>
<g id="HATCH_7_">
	<polygon class="st1" points="41.9,18.4 22.07,52.74 22.51,52.95 22.97,53.15 23.43,53.34 23.89,53.52 24.37,53.69 24.85,53.86 
		25.34,54.01 25.84,54.15 26.34,54.29 26.85,54.41 27.36,54.52 27.88,54.62 28.41,54.71 28.94,54.79 29.47,54.86 30.01,54.91 
		30.55,54.95 31.1,54.98 31.65,54.99 32.2,54.99 32.75,54.98 33.3,54.96 33.86,54.92 34.41,54.87 34.97,54.8 35.52,54.72 
		36.07,54.63 36.62,54.52 37.17,54.41 37.72,54.27 38.26,54.13 38.8,53.97 39.34,53.79 39.87,53.61 40.4,53.41 40.92,53.2 
		41.43,52.97 41.94,52.74 42.44,52.49 42.94,52.23 43.42,51.96 43.9,51.68 44.37,51.38 44.83,51.08 45.29,50.77 45.73,50.45 
		46.16,50.11 46.59,49.77 47,49.43 47.41,49.07 47.8,48.71 48.18,48.34 48.55,47.96 48.92,47.58 49.27,47.19 49.6,46.79 
		49.93,46.39 50.25,45.99 50.55,45.58 50.85,45.17 51.13,44.76 51.4,44.34 51.66,43.92 51.91,43.5 52.15,43.07 52.38,42.64 
		52.61,42.2 52.82,41.76 53.02,41.31 53.21,40.86 53.39,40.4 53.56,39.94 53.72,39.47 53.87,39 54,38.53 54.12,38.05 54.23,37.57 
		54.32,37.09 54.4,36.6 54.47,36.12 54.53,35.63 54.56,35.14 54.59,34.65 54.6,34.17 54.59,33.68 54.57,33.19 54.54,32.7 
		54.49,32.22 54.42,31.74 54.34,31.26 54.24,30.78 54.13,30.31 54,29.84 53.86,29.37 53.7,28.91 53.53,28.46 53.34,28.01 
		53.14,27.56 52.92,27.13 52.69,26.7 52.45,26.27 52.19,25.86 51.91,25.45 51.63,25.05 51.33,24.66 51.02,24.28 50.69,23.9 
		50.36,23.54 50.01,23.18 49.65,22.84 49.29,22.5 48.91,22.18 48.52,21.86 48.13,21.56 47.72,21.26 47.31,20.98 46.89,20.71 
		46.46,20.44 46.03,20.19 45.59,19.95 45.14,19.72 44.69,19.5 44.23,19.29 43.77,19.09 43.31,18.9 42.84,18.72 42.37,18.55 	"/>
</g>
<g id="HATCH_6_">
	<polygon class="st2" points="19,50.97 19.59,51.36 20.2,51.73 20.81,52.09 21.44,52.42 22.07,52.74 45,13.03 44.41,12.64 
		43.8,12.27 43.19,11.91 42.56,11.58 41.93,11.26 	"/>
</g>
<g id="HATCH_5_">
	<polygon class="st3" points="32.86,15.06 32.88,15.09 32.9,15.12 32.91,15.15 32.93,15.18 32.95,15.21 32.97,15.24 32.99,15.27 
		33,15.3 33.02,15.34 33.04,15.37 33.05,15.4 33.07,15.44 33.08,15.47 33.09,15.51 33.11,15.55 33.12,15.58 33.13,15.62 
		33.14,15.66 33.15,15.69 33.16,15.73 33.17,15.77 33.18,15.81 33.18,15.85 33.19,15.89 33.2,15.94 33.2,15.98 33.21,16.02 
		33.21,16.06 33.21,16.11 33.22,16.15 33.22,16.24 33.22,16.33 33.21,16.42 33.21,16.52 33.2,16.61 33.18,16.71 33.17,16.81 
		33.15,16.91 33.12,17.01 33.1,17.11 33.07,17.22 33.03,17.32 33,17.43 32.96,17.53 32.92,17.64 32.87,17.75 32.82,17.86 
		32.77,17.97 32.72,18.07 32.66,18.18 32.6,18.29 32.53,18.4 32.47,18.51 32.4,18.62 32.33,18.73 32.25,18.84 32.17,18.94 
		32.02,19.16 31.85,19.37 31.67,19.57 31.49,19.77 31.3,19.97 31.11,20.15 30.91,20.34 30.71,20.51 30.51,20.68 30.31,20.84 
		30.1,20.99 29.89,21.14 29.68,21.29 29.46,21.43 29.23,21.57 29,21.7 28.76,21.82 28.51,21.95 28.27,22.06 28.02,22.16 
		27.77,22.26 27.52,22.35 27.39,22.39 27.27,22.43 27.14,22.46 27.02,22.49 26.89,22.52 26.77,22.55 26.65,22.58 26.53,22.6 
		26.41,22.62 26.29,22.63 26.17,22.65 26.05,22.66 25.94,22.67 25.82,22.67 25.71,22.67 25.6,22.67 25.49,22.67 25.39,22.67 
		25.28,22.66 25.18,22.64 25.08,22.63 24.99,22.61 24.89,22.59 24.8,22.57 24.71,22.55 24.62,22.52 24.54,22.49 24.5,22.48 
		24.46,22.46 24.42,22.44 24.38,22.43 24.34,22.41 24.3,22.39 24.27,22.37 24.23,22.35 24.2,22.33 24.16,22.31 24.13,22.29 
		24.09,22.27 24.06,22.25 24.03,22.23 24,22.2 23.97,22.18 23.94,22.16 23.91,22.13 23.88,22.11 23.85,22.08 23.82,22.06 
		23.8,22.03 23.77,22.01 23.75,21.98 23.72,21.96 23.7,21.93 23.68,21.9 23.65,21.87 23.63,21.85 23.61,21.82 23.59,21.79 
		23.57,21.76 23.55,21.73 23.53,21.7 23.51,21.67 23.5,21.64 23.48,21.61 23.46,21.57 23.45,21.54 23.43,21.51 23.42,21.47 
		23.4,21.44 23.39,21.4 23.37,21.37 23.36,21.33 23.35,21.3 23.34,21.26 23.33,21.22 23.32,21.18 23.31,21.14 23.3,21.11 
		23.29,21.07 23.28,21.03 23.28,20.98 23.27,20.94 23.26,20.9 23.26,20.86 23.26,20.82 23.25,20.77 23.25,20.73 23.25,20.64 
		23.25,20.55 23.25,20.46 23.26,20.36 23.27,20.27 23.28,20.17 23.3,20.07 23.32,19.97 23.34,19.87 23.37,19.77 23.4,19.66 
		23.43,19.56 23.47,19.45 23.51,19.35 23.55,19.24 23.6,19.13 23.64,19.02 23.7,18.91 23.75,18.8 23.81,18.69 23.87,18.59 
		23.93,18.48 24,18.37 24.07,18.26 24.14,18.15 24.22,18.04 24.29,17.93 24.45,17.72 24.62,17.51 24.8,17.31 24.98,17.11 
		25.17,16.91 25.36,16.72 25.56,16.54 25.76,16.37 25.96,16.2 26.16,16.04 26.37,15.88 26.57,15.74 26.79,15.59 27.01,15.45 
		27.24,15.31 27.47,15.18 27.71,15.05 27.95,14.93 28.2,14.82 28.45,14.71 28.7,14.62 28.95,14.53 29.07,14.49 29.2,14.45 
		29.32,14.42 29.45,14.38 29.57,14.35 29.7,14.33 29.82,14.3 29.94,14.28 30.06,14.26 30.18,14.24 30.3,14.23 30.42,14.22 
		30.53,14.21 30.64,14.21 30.76,14.2 30.87,14.2 30.97,14.21 31.08,14.21 31.18,14.22 31.29,14.23 31.38,14.25 31.48,14.26 
		31.58,14.28 31.67,14.31 31.76,14.33 31.84,14.36 31.93,14.39 31.97,14.4 32.01,14.42 32.05,14.43 32.09,14.45 32.13,14.47 
		32.16,14.49 32.2,14.51 32.24,14.53 32.27,14.55 32.31,14.57 32.34,14.59 32.37,14.61 32.41,14.63 32.44,14.65 32.47,14.67 
		32.5,14.7 32.53,14.72 32.56,14.74 32.59,14.77 32.62,14.79 32.64,14.82 32.67,14.84 32.69,14.87 32.72,14.9 32.74,14.92 
		32.77,14.95 32.79,14.98 32.81,15 32.83,15.03 	"/>
</g>
</svg>
