<?xml version="1.0" encoding="utf-8"?>
<!-- Generator: Adobe Illustrator 24.3.0, SVG Export Plug-In . SVG Version: 6.00 Build 0)  -->
<svg version="1.1" id="레이어_1" xmlns="http://www.w3.org/2000/svg" xmlns:xlink="http://www.w3.org/1999/xlink" x="0px"
	 y="0px" viewBox="0 0 560 125" style="enable-background:new 0 0 560 125;" xml:space="preserve">
<style type="text/css">
	.st0{fill-rule:evenodd;clip-rule:evenodd;fill:#D3D3D3;}
	.st1{fill-rule:evenodd;clip-rule:evenodd;fill:#292927;}
	.st2{fill-rule:evenodd;clip-rule:evenodd;fill:#019687;}
	.st3{fill-rule:evenodd;clip-rule:evenodd;fill:#FFFFFF;}
	.st4{fill:none;stroke:#FFFFFF;stroke-width:0.25;stroke-miterlimit:10;}
	.st5{fill:#019687;}
	.st6{fill:#D3D3D3;}
</style>
<polygon class="st0" points="79.44,39.78 91.78,18.4 92.94,19.18 94.08,19.99 95.2,20.84 96.29,21.71 97.36,22.61 98.41,23.54 
	99.43,24.5 100.43,25.48 101.39,26.49 102.33,27.53 103.25,28.59 104.13,29.67 104.98,30.78 105.81,31.91 106.6,33.07 107.36,34.24 
	108.09,35.43 108.79,36.65 109.46,37.88 110.09,39.12 110.69,40.39 111.25,41.67 111.78,42.97 112.27,44.27 112.73,45.6 
	113.16,46.93 113.55,48.27 113.9,49.63 114.21,50.99 114.49,52.36 114.73,53.74 114.94,55.12 115.1,56.51 115.23,57.91 115.33,59.3 
	115.38,60.7 115.4,62.1 115.38,63.5 115.32,64.9 115.23,66.29 115.1,67.69 114.93,69.08 114.72,70.46 114.48,71.84 114.2,73.21 
	113.88,74.57 113.53,75.92 113.14,77.27 112.71,78.6 112.25,79.92 111.75,81.23 111.22,82.53 110.66,83.8 110.06,85.07 
	109.42,86.32 108.76,87.55 108.06,88.76 107.32,89.95 106.56,91.12 105.77,92.28 104.94,93.41 104.09,94.51 103.2,95.6 
	102.29,96.66 101.35,97.69 100.38,98.7 99.38,99.68 98.36,100.64 97.31,101.57 96.24,102.47 95.15,103.34 94.03,104.18 
	92.89,104.99 91.73,105.77 90.54,106.52 89.34,107.24 88.12,107.92 86.88,108.57 85.63,109.19 84.36,109.77 83.07,110.32 
	81.77,110.84 80.45,111.32 79.13,111.76 77.79,112.17 76.44,112.54 75.08,112.88 73.71,113.18 72.34,113.44 70.96,113.67 
	69.57,113.86 68.18,114.01 66.79,114.12 65.39,114.2 63.99,114.24 62.59,114.24 61.19,114.2 59.8,114.13 58.4,114.02 57.01,113.87 
	55.62,113.69 54.24,113.47 52.87,113.21 51.5,112.91 50.14,112.58 48.79,112.21 47.45,111.8 46.12,111.36 44.81,110.89 43.5,110.37 
	42.22,109.83 40.94,109.25 39.69,108.63 46.95,96.05 47.68,96.39 48.42,96.71 49.18,97.02 49.94,97.32 50.72,97.61 51.51,97.87 
	52.31,98.13 53.13,98.36 53.95,98.58 54.78,98.78 55.63,98.97 56.48,99.13 57.34,99.28 58.21,99.41 59.08,99.51 59.97,99.6 
	60.85,99.67 61.75,99.71 62.64,99.74 63.55,99.74 64.45,99.72 65.36,99.68 66.26,99.62 67.17,99.53 68.08,99.43 68.99,99.3 
	69.9,99.15 70.8,98.97 71.7,98.77 72.59,98.56 73.48,98.32 74.37,98.05 75.25,97.77 76.12,97.47 76.98,97.14 77.83,96.79 
	78.68,96.43 79.51,96.04 80.33,95.63 81.14,95.21 81.94,94.76 82.72,94.3 83.49,93.82 84.25,93.33 84.99,92.82 85.72,92.29 
	86.43,91.74 87.12,91.19 87.8,90.62 88.46,90.03 89.11,89.44 89.74,88.83 90.35,88.21 90.94,87.59 91.51,86.95 92.07,86.3 
	92.6,85.65 93.12,84.99 93.62,84.32 94.11,83.65 94.57,82.97 95.01,82.28 95.44,81.59 95.85,80.9 96.24,80.21 96.62,79.5 
	96.98,78.78 97.33,78.06 97.66,77.32 97.98,76.58 98.27,75.83 98.55,75.07 98.81,74.31 99.05,73.54 99.27,72.76 99.47,71.98 
	99.64,71.19 99.8,70.4 99.93,69.61 100.04,68.81 100.13,68.02 100.19,67.22 100.23,66.42 100.25,65.61 100.24,64.81 100.21,64.02 
	100.15,63.22 100.07,62.42 99.96,61.63 99.83,60.85 99.67,60.07 99.48,59.29 99.27,58.52 99.04,57.76 98.78,57.01 98.5,56.26 
	98.19,55.52 97.86,54.8 97.5,54.08 97.12,53.38 96.72,52.68 96.3,52 95.85,51.33 95.38,50.68 94.89,50.04 94.38,49.41 93.85,48.8 
	93.3,48.2 92.73,47.62 92.15,47.05 91.55,46.5 90.93,45.97 90.29,45.46 89.64,44.96 88.98,44.47 88.3,44.01 87.62,43.56 
	86.91,43.13 86.2,42.72 85.48,42.32 84.75,41.94 84.01,41.58 83.26,41.24 82.51,40.91 81.75,40.6 80.99,40.31 80.21,40.04 "/>
<polygon class="st0" points="47.01,84.35 34.66,105.73 33.5,104.95 32.36,104.14 31.25,103.3 30.15,102.42 29.08,101.52 
	28.04,100.59 27.01,99.64 26.02,98.65 25.05,97.64 24.11,96.6 23.2,95.54 22.32,94.46 21.46,93.35 20.64,92.22 19.85,91.07 
	19.08,89.89 18.35,88.7 17.66,87.49 16.99,86.26 16.36,85.01 15.76,83.74 15.2,82.46 14.67,81.17 14.17,79.86 13.71,78.54 
	13.29,77.2 12.9,75.86 12.55,74.5 12.23,73.14 11.96,71.77 11.71,70.39 11.51,69.01 11.34,67.62 11.21,66.22 11.12,64.83 
	11.06,63.43 11.05,62.03 11.06,60.63 11.12,59.23 11.22,57.84 11.35,56.45 11.52,55.06 11.72,53.67 11.97,52.29 12.25,50.92 
	12.57,49.56 12.92,48.21 13.31,46.86 13.73,45.53 14.2,44.21 14.69,42.9 15.22,41.61 15.79,40.33 16.39,39.06 17.02,37.82 
	17.69,36.59 18.39,35.37 19.12,34.18 19.88,33.01 20.68,31.86 21.5,30.73 22.36,29.62 23.24,28.54 24.16,27.48 25.1,26.44 
	26.07,25.43 27.06,24.45 28.09,23.49 29.13,22.56 30.2,21.66 31.3,20.79 32.42,19.95 33.56,19.14 34.72,18.36 35.9,17.61 37.1,16.9 
	38.32,16.21 39.56,15.56 40.82,14.94 42.09,14.36 43.38,13.81 44.68,13.29 45.99,12.81 47.32,12.37 48.66,11.96 50.01,11.59 
	51.36,11.25 52.73,10.95 54.11,10.69 55.49,10.46 56.87,10.28 58.26,10.12 59.66,10.01 61.06,9.93 62.45,9.89 63.85,9.89 
	65.25,9.93 66.65,10 68.04,10.11 69.44,10.26 70.82,10.44 72.2,10.67 73.58,10.93 74.95,11.22 76.31,11.55 77.66,11.92 78.99,12.33 
	80.32,12.77 81.64,13.25 82.94,13.76 84.23,14.3 85.5,14.88 86.76,15.5 79.49,28.09 78.76,27.75 78.02,27.42 77.27,27.11 
	76.5,26.81 75.72,26.53 74.93,26.26 74.13,26.01 73.32,25.77 72.5,25.55 71.66,25.35 70.82,25.16 69.97,25 69.11,24.85 68.24,24.73 
	67.36,24.62 66.48,24.53 65.59,24.47 64.7,24.42 63.8,24.4 62.9,24.39 62,24.41 61.09,24.45 60.18,24.51 59.27,24.6 58.36,24.71 
	57.46,24.84 56.55,24.99 55.65,25.16 54.75,25.36 53.85,25.58 52.96,25.82 52.08,26.08 51.2,26.36 50.33,26.67 49.47,26.99 
	48.61,27.34 47.77,27.71 46.94,28.09 46.12,28.5 45.31,28.92 44.51,29.37 43.72,29.83 42.95,30.31 42.2,30.8 41.45,31.32 
	40.73,31.84 40.02,32.39 39.32,32.94 38.64,33.51 37.98,34.1 37.34,34.69 36.71,35.3 36.1,35.92 35.51,36.55 34.93,37.18 
	34.38,37.83 33.84,38.48 33.32,39.14 32.82,39.81 32.34,40.49 31.88,41.17 31.43,41.85 31,42.54 30.6,43.23 30.2,43.93 29.82,44.63 
	29.46,45.35 29.11,46.08 28.78,46.81 28.47,47.55 28.17,48.3 27.9,49.06 27.64,49.82 27.4,50.59 27.18,51.37 26.98,52.15 
	26.8,52.94 26.65,53.73 26.51,54.52 26.4,55.32 26.32,56.12 26.25,56.92 26.21,57.72 26.2,58.52 26.2,59.32 26.24,60.12 26.3,60.91 
	26.38,61.71 26.49,62.5 26.62,63.28 26.78,64.07 26.96,64.84 27.17,65.61 27.4,66.37 27.66,67.13 27.95,67.87 28.26,68.61 
	28.59,69.34 28.94,70.05 29.32,70.76 29.73,71.45 30.15,72.13 30.6,72.8 31.07,73.45 31.56,74.1 32.07,74.72 32.6,75.33 
	33.14,75.93 33.71,76.51 34.3,77.08 34.9,77.63 35.52,78.16 36.15,78.68 36.8,79.18 37.47,79.66 38.14,80.12 38.83,80.57 39.53,81 
	40.24,81.41 40.96,81.81 41.69,82.19 42.43,82.55 43.18,82.89 43.93,83.22 44.7,83.53 45.46,83.82 46.23,84.1 "/>
<path class="st1" d="M47.01,84.35l32.49-56.27l-0.73-0.34l-0.74-0.33l-0.75-0.31l-0.77-0.3l-0.78-0.28l-0.79-0.27l-0.8-0.25
	l-0.81-0.24l-0.82-0.22l-0.83-0.2l-0.84-0.18L69.97,25l-0.86-0.15l-0.87-0.13l-0.88-0.11l-0.88-0.09l-0.89-0.07l-0.89-0.05
	l-0.9-0.02l-0.9,0L62,24.41l-0.91,0.04l-0.91,0.06l-0.91,0.08l-0.91,0.11l-0.91,0.13l-0.91,0.15l-0.9,0.17l-0.9,0.2l-0.9,0.22
	l-0.89,0.24l-0.88,0.26l-0.88,0.28l-0.87,0.31l-0.86,0.33l-0.85,0.35l-0.84,0.37l-0.83,0.39l-0.82,0.41l-0.81,0.43l-0.8,0.44
	l-0.78,0.46l-0.77,0.48l-0.76,0.5l-0.74,0.51l-0.73,0.53l-0.71,0.54l-0.69,0.56l-0.68,0.57l-0.66,0.58l-0.64,0.6l-0.63,0.61
	l-0.61,0.62l-0.59,0.63l-0.57,0.64l-0.56,0.65l-0.54,0.65l-0.52,0.66l-0.5,0.67l-0.48,0.67l-0.46,0.68l-0.45,0.68L31,42.54
	l-0.41,0.69l-0.39,0.7l-0.38,0.71l-0.36,0.72l-0.35,0.73l-0.33,0.73l-0.31,0.74l-0.3,0.75l-0.28,0.76l-0.26,0.76l-0.24,0.77
	l-0.22,0.78l-0.2,0.78l-0.18,0.79l-0.16,0.79l-0.13,0.79l-0.11,0.8l-0.09,0.8l-0.06,0.8l-0.04,0.8l-0.02,0.8l0.01,0.8l0.03,0.8
	l0.06,0.8l0.08,0.79l0.11,0.79l0.13,0.79l0.16,0.78l0.18,0.78l0.21,0.77l0.23,0.76l0.26,0.75l0.28,0.75l0.31,0.74l0.33,0.73
	l0.36,0.72l0.38,0.71l0.4,0.69l0.43,0.68l0.45,0.67l0.47,0.65l0.49,0.64l0.51,0.63l0.53,0.61l0.55,0.6l0.57,0.58l0.59,0.57l0.6,0.55
	l0.62,0.53l0.63,0.52l0.65,0.5l0.66,0.48l0.68,0.47l0.69,0.45l0.7,0.43l0.71,0.41l0.72,0.4l0.73,0.38l0.74,0.36l0.75,0.34l0.75,0.33
	l0.76,0.31l0.77,0.29l0.77,0.28L47.01,84.35z M64.62,34.31l0.03,0.05l0.03,0.05l0.03,0.05l0.03,0.05l0.03,0.05l0.03,0.05l0.03,0.05
	l0.03,0.05l0.03,0.05l0.03,0.05l0.02,0.06l0.02,0.06l0.02,0.06l0.02,0.06l0.02,0.06l0.02,0.06l0.02,0.06l0.02,0.06l0.02,0.06
	l0.02,0.06l0.01,0.06l0.01,0.07l0.01,0.07l0.01,0.07l0.01,0.07l0.01,0.07l0.01,0.07l0.01,0.07l0.01,0.07l0,0.07l0,0.15l0,0.15
	l-0.01,0.15L65.2,36.7l-0.02,0.16l-0.02,0.16l-0.03,0.16l-0.03,0.16l-0.04,0.17l-0.04,0.17l-0.05,0.17l-0.05,0.17l-0.06,0.17
	l-0.06,0.17l-0.07,0.18l-0.07,0.18l-0.08,0.18l-0.09,0.18l-0.09,0.18l-0.09,0.18l-0.1,0.18l-0.1,0.18l-0.11,0.18l-0.11,0.18
	l-0.12,0.18l-0.12,0.18l-0.13,0.18l-0.26,0.35l-0.28,0.34l-0.29,0.34l-0.3,0.33l-0.31,0.32l-0.32,0.31l-0.32,0.3l-0.33,0.29
	l-0.33,0.28l-0.33,0.26l-0.33,0.25l-0.34,0.24l-0.35,0.24l-0.36,0.23l-0.37,0.22l-0.38,0.22l-0.39,0.21l-0.4,0.2l-0.4,0.19
	l-0.41,0.17l-0.41,0.16l-0.41,0.14l-0.21,0.07l-0.21,0.06l-0.2,0.06l-0.2,0.05l-0.2,0.05l-0.2,0.05l-0.2,0.04l-0.2,0.04l-0.2,0.03
	l-0.2,0.03l-0.19,0.02l-0.19,0.02l-0.19,0.01l-0.19,0.01l-0.18,0l-0.18,0l-0.18-0.01l-0.17-0.01l-0.17-0.01l-0.17-0.02l-0.16-0.02
	l-0.16-0.03l-0.15-0.03l-0.15-0.04l-0.15-0.04l-0.14-0.04L51,46.49l-0.07-0.03l-0.07-0.03l-0.06-0.03l-0.06-0.03l-0.06-0.03
	l-0.06-0.03l-0.06-0.03l-0.06-0.03l-0.06-0.03l-0.06-0.03l-0.06-0.03l-0.05-0.03l-0.05-0.04l-0.05-0.04l-0.05-0.04l-0.05-0.04
	l-0.05-0.04l-0.05-0.04l-0.05-0.04l-0.05-0.04l-0.04-0.04l-0.04-0.04l-0.04-0.04l-0.04-0.04l-0.04-0.04l-0.04-0.04l-0.04-0.04
	l-0.04-0.05l-0.04-0.05l-0.03-0.05l-0.03-0.05l-0.03-0.05l-0.03-0.05l-0.03-0.05l-0.03-0.05l-0.03-0.05l-0.03-0.05l-0.03-0.05
	l-0.03-0.05l-0.03-0.05l-0.02-0.06l-0.02-0.06l-0.02-0.06l-0.02-0.06l-0.02-0.06l-0.02-0.06l-0.02-0.06l-0.02-0.06L49,44.34
	l-0.02-0.06l-0.01-0.06l-0.01-0.07l-0.01-0.07l-0.01-0.07l-0.01-0.07l-0.01-0.07l-0.01-0.07l-0.01-0.07l-0.01-0.07l0-0.07l0-0.15
	l0-0.15l0.01-0.15L48.9,43l0.02-0.16l0.02-0.16l0.03-0.16L49,42.36l0.04-0.17l0.04-0.17l0.05-0.17l0.05-0.17l0.06-0.17l0.06-0.17
	l0.07-0.18l0.07-0.18l0.08-0.18l0.09-0.18l0.09-0.18l0.09-0.18l0.1-0.18l0.1-0.18l0.11-0.18l0.11-0.18l0.12-0.18l0.12-0.18
	l0.13-0.18l0.26-0.35l0.28-0.34l0.29-0.34l0.3-0.33l0.31-0.32l0.32-0.31l0.32-0.3l0.33-0.29l0.33-0.28l0.33-0.26l0.33-0.25
	l0.34-0.24l0.35-0.24l0.36-0.23l0.37-0.22l0.38-0.22l0.39-0.21l0.4-0.2l0.4-0.19l0.41-0.17l0.41-0.16l0.41-0.14l0.21-0.07l0.21-0.06
	l0.2-0.06l0.2-0.05l0.2-0.05l0.2-0.05l0.2-0.04l0.2-0.04l0.2-0.03l0.2-0.03l0.19-0.02l0.19-0.02l0.19-0.01L61,32.91l0.18,0l0.18,0
	l0.18,0.01l0.17,0.01l0.17,0.01l0.17,0.02l0.16,0.02l0.16,0.03l0.15,0.03l0.15,0.04l0.15,0.04l0.14,0.04l0.14,0.05l0.07,0.03
	l0.07,0.03l0.06,0.03l0.06,0.03l0.06,0.03l0.06,0.03l0.06,0.03l0.06,0.03l0.06,0.03l0.06,0.03l0.06,0.03l0.05,0.03l0.05,0.04
	l0.05,0.04l0.05,0.04l0.05,0.04l0.05,0.04l0.05,0.04l0.05,0.04l0.05,0.04l0.04,0.04l0.04,0.04L64.36,34l0.04,0.04l0.04,0.04
	l0.04,0.04l0.04,0.04l0.04,0.05l0.04,0.05L64.62,34.31z"/>
<polygon class="st1" points="79.44,39.78 46.95,96.05 47.68,96.39 48.42,96.71 49.18,97.02 49.94,97.32 50.72,97.61 51.51,97.87 
	52.31,98.13 53.13,98.36 53.95,98.58 54.78,98.78 55.63,98.97 56.48,99.13 57.34,99.28 58.21,99.41 59.08,99.51 59.97,99.6 
	60.85,99.67 61.75,99.71 62.64,99.74 63.55,99.74 64.45,99.72 65.36,99.68 66.26,99.62 67.17,99.53 68.08,99.43 68.99,99.3 
	69.9,99.15 70.8,98.97 71.7,98.77 72.59,98.56 73.48,98.32 74.37,98.05 75.25,97.77 76.12,97.47 76.98,97.14 77.83,96.79 
	78.68,96.43 79.51,96.04 80.33,95.63 81.14,95.21 81.94,94.76 82.72,94.3 83.49,93.82 84.25,93.33 84.99,92.82 85.72,92.29 
	86.43,91.74 87.12,91.19 87.8,90.62 88.46,90.03 89.11,89.44 89.74,88.83 90.35,88.21 90.94,87.59 91.51,86.95 92.07,86.3 
	92.6,85.65 93.12,84.99 93.62,84.32 94.11,83.65 94.57,82.97 95.01,82.28 95.44,81.59 95.85,80.9 96.24,80.21 96.62,79.5 
	96.98,78.78 97.33,78.06 97.66,77.32 97.98,76.58 98.27,75.83 98.55,75.07 98.81,74.31 99.05,73.54 99.27,72.76 99.47,71.98 
	99.64,71.19 99.8,70.4 99.93,69.61 100.04,68.81 100.13,68.02 100.19,67.22 100.23,66.42 100.25,65.61 100.24,64.81 100.21,64.02 
	100.15,63.22 100.07,62.42 99.96,61.63 99.83,60.85 99.67,60.07 99.48,59.29 99.27,58.52 99.04,57.76 98.78,57.01 98.5,56.26 
	98.19,55.52 97.86,54.8 97.5,54.08 97.12,53.38 96.72,52.68 96.3,52 95.85,51.33 95.38,50.68 94.89,50.04 94.38,49.41 93.85,48.8 
	93.3,48.2 92.73,47.62 92.15,47.05 91.55,46.5 90.93,45.97 90.29,45.46 89.64,44.96 88.98,44.47 88.3,44.01 87.62,43.56 
	86.91,43.13 86.2,42.72 85.48,42.32 84.75,41.94 84.01,41.58 83.26,41.24 82.51,40.91 81.75,40.6 80.99,40.31 80.21,40.04 "/>
<polygon class="st2" points="41.93,93.15 42.9,93.79 43.88,94.4 44.89,94.98 45.91,95.53 46.95,96.05 84.52,30.99 83.55,30.34 
	82.56,29.73 81.56,29.15 80.53,28.6 79.49,28.09 "/>
<polygon class="st3" points="64.62,34.31 64.66,34.36 64.69,34.41 64.72,34.45 64.75,34.5 64.78,34.55 64.81,34.61 64.84,34.66 
	64.87,34.71 64.9,34.76 64.92,34.82 64.95,34.87 64.97,34.93 64.99,34.99 65.01,35.05 65.03,35.11 65.05,35.17 65.07,35.23 
	65.09,35.29 65.11,35.35 65.12,35.41 65.14,35.48 65.15,35.54 65.16,35.61 65.17,35.68 65.18,35.74 65.19,35.81 65.2,35.88 
	65.21,35.95 65.21,36.02 65.21,36.1 65.22,36.24 65.22,36.39 65.21,36.54 65.2,36.7 65.18,36.85 65.16,37.01 65.13,37.17 
	65.1,37.34 65.06,37.5 65.02,37.67 64.97,37.84 64.92,38.01 64.86,38.19 64.79,38.36 64.72,38.54 64.65,38.72 64.57,38.89 
	64.48,39.07 64.39,39.25 64.3,39.43 64.2,39.61 64.1,39.79 63.99,39.97 63.87,40.14 63.76,40.32 63.63,40.5 63.51,40.67 
	63.25,41.02 62.97,41.37 62.68,41.7 62.39,42.03 62.08,42.35 61.76,42.66 61.44,42.96 61.11,43.24 60.78,43.52 60.45,43.78 
	60.11,44.03 59.77,44.28 59.42,44.51 59.06,44.75 58.68,44.97 58.3,45.19 57.91,45.39 57.51,45.59 57.11,45.78 56.7,45.95 
	56.29,46.11 55.88,46.25 55.67,46.32 55.47,46.38 55.26,46.44 55.06,46.49 54.86,46.54 54.65,46.59 54.45,46.63 54.25,46.66 
	54.06,46.69 53.86,46.72 53.67,46.74 53.48,46.76 53.29,46.77 53.1,46.78 52.92,46.79 52.74,46.79 52.56,46.78 52.39,46.77 
	52.22,46.76 52.05,46.74 51.89,46.71 51.73,46.69 51.58,46.66 51.43,46.62 51.28,46.58 51.14,46.54 51,46.49 50.93,46.46 
	50.87,46.44 50.8,46.41 50.74,46.38 50.67,46.35 50.61,46.32 50.55,46.29 50.49,46.26 50.44,46.23 50.38,46.19 50.32,46.16 
	50.27,46.12 50.21,46.09 50.16,46.05 50.11,46.02 50.06,45.98 50.01,45.94 49.96,45.9 49.92,45.86 49.87,45.82 49.83,45.78 
	49.78,45.74 49.74,45.69 49.7,45.65 49.66,45.61 49.62,45.56 49.59,45.52 49.55,45.47 49.51,45.43 49.48,45.38 49.45,45.34 
	49.41,45.29 49.38,45.24 49.35,45.19 49.32,45.14 49.29,45.09 49.26,45.04 49.23,44.98 49.21,44.93 49.18,44.88 49.16,44.82 
	49.13,44.76 49.11,44.71 49.09,44.65 49.07,44.59 49.05,44.53 49.03,44.47 49.01,44.41 49,44.34 48.98,44.28 48.97,44.22 
	48.95,44.15 48.94,44.08 48.93,44.02 48.92,43.95 48.91,43.88 48.9,43.81 48.9,43.74 48.89,43.67 48.89,43.6 48.88,43.45 
	48.89,43.31 48.89,43.15 48.9,43 48.92,42.84 48.94,42.68 48.97,42.52 49,42.36 49.04,42.19 49.08,42.02 49.13,41.85 49.18,41.68 
	49.24,41.51 49.31,41.33 49.38,41.16 49.45,40.98 49.53,40.8 49.62,40.62 49.71,40.45 49.8,40.27 49.9,40.09 50.01,39.91 
	50.12,39.73 50.23,39.55 50.35,39.37 50.47,39.2 50.59,39.02 50.86,38.67 51.13,38.33 51.42,37.99 51.72,37.67 52.03,37.35 
	52.34,37.04 52.66,36.74 52.99,36.45 53.32,36.18 53.66,35.91 53.99,35.66 54.33,35.42 54.68,35.18 55.05,34.95 55.42,34.72 
	55.8,34.51 56.19,34.3 56.59,34.1 56.99,33.92 57.4,33.75 57.81,33.59 58.22,33.44 58.43,33.38 58.63,33.31 58.84,33.26 59.04,33.2 
	59.25,33.15 59.45,33.11 59.65,33.07 59.85,33.03 60.05,33 60.24,32.97 60.44,32.95 60.63,32.93 60.82,32.92 61,32.91 61.19,32.91 
	61.37,32.91 61.54,32.91 61.72,32.92 61.89,32.94 62.05,32.96 62.21,32.98 62.37,33.01 62.53,33.04 62.68,33.08 62.82,33.12 
	62.97,33.16 63.1,33.21 63.17,33.23 63.24,33.26 63.3,33.29 63.37,33.31 63.43,33.34 63.49,33.37 63.55,33.4 63.61,33.44 
	63.67,33.47 63.72,33.5 63.78,33.54 63.84,33.57 63.89,33.61 63.94,33.64 63.99,33.68 64.04,33.72 64.09,33.76 64.14,33.79 
	64.19,33.83 64.23,33.88 64.28,33.92 64.32,33.96 64.36,34 64.4,34.04 64.44,34.09 64.48,34.13 64.52,34.18 64.55,34.22 
	64.59,34.27 "/>
<line class="st4" x1="39.69" y1="108.63" x2="91.78" y2="18.4"/>
<path class="st4" d="M91.78,18.4c22.24,14.55,30,43.49,18.01,67.2c-13,25.72-44.39,36.03-70.1,23.03"/>
<line class="st4" x1="34.66" y1="105.73" x2="86.76" y2="15.5"/>
<path class="st4" d="M86.76,15.5c-25.72-13-57.11-2.69-70.1,23.03c-11.99,23.72-4.23,52.66,18.01,67.2"/>
<polygon class="st0" points="146.14,105.32 146.14,75.29 151.27,75.29 151.27,100.9 165.83,100.9 165.83,105.32 "/>
<polygon class="st0" points="497.61,105.32 497.61,75.29 520.7,75.29 520.7,79.71 502.75,79.71 502.75,87.72 519.47,87.72 
	519.47,92.1 502.75,92.1 502.75,100.9 521.54,100.9 521.54,105.32 "/>
<polygon class="st0" points="413.15,83.96 412.87,83.25 412.59,82.5 412.03,80.86 411.52,82.32 410.9,84 402.57,105.32 
	397.18,105.32 409.44,75.29 414.71,75.29 426.78,105.32 421.46,105.32 418.16,96.9 407.73,96.9 409.39,92.62 416.52,92.62 "/>
<polygon class="st0" points="308.38,83.7 312.03,77.38 312.48,77.68 312.91,78 313.34,78.33 313.75,78.67 314.14,79.04 
	314.53,79.41 314.9,79.8 315.26,80.2 315.61,80.61 315.94,81.04 316.25,81.47 316.55,81.92 316.83,82.37 317.1,82.84 317.35,83.32 
	317.59,83.8 317.81,84.29 318.01,84.79 318.19,85.3 318.35,85.81 318.5,86.33 318.63,86.85 318.74,87.37 318.84,87.9 318.91,88.44 
	318.96,88.97 319,89.51 319.02,90.04 319.02,90.58 319,91.12 318.96,91.66 318.9,92.19 318.83,92.72 318.74,93.25 318.62,93.78 
	318.49,94.3 318.34,94.82 318.18,95.33 317.99,95.83 317.79,96.33 317.57,96.82 317.34,97.31 317.09,97.78 316.82,98.25 
	316.53,98.7 316.23,99.15 315.92,99.58 315.58,100.01 315.24,100.42 314.88,100.82 314.51,101.21 314.12,101.58 313.72,101.94 
	313.31,102.29 312.89,102.62 312.45,102.93 312,103.23 311.55,103.52 311.08,103.79 310.61,104.04 310.13,104.28 309.64,104.5 
	309.14,104.7 308.63,104.88 308.12,105.05 307.6,105.2 307.08,105.33 306.56,105.44 306.03,105.54 305.5,105.61 304.96,105.67 
	304.42,105.71 303.89,105.73 303.35,105.73 302.81,105.71 302.28,105.68 301.74,105.62 301.21,105.55 300.68,105.46 300.15,105.35 
	299.63,105.22 299.11,105.07 298.6,104.91 298.1,104.72 297.6,104.52 297.1,104.31 296.62,104.07 298.77,100.35 298.99,100.45 
	299.21,100.55 299.43,100.64 299.65,100.73 299.89,100.81 300.12,100.89 300.36,100.96 300.6,101.03 300.84,101.1 301.09,101.16 
	301.34,101.21 301.59,101.26 301.84,101.31 302.1,101.34 302.36,101.37 302.62,101.4 302.88,101.42 303.15,101.43 303.41,101.44 
	303.68,101.44 303.95,101.44 304.22,101.42 304.48,101.41 304.75,101.38 305.02,101.35 305.29,101.31 305.56,101.27 305.83,101.21 
	306.09,101.16 306.36,101.09 306.62,101.02 306.88,100.94 307.14,100.86 307.4,100.77 307.65,100.67 307.91,100.57 308.16,100.46 
	308.4,100.35 308.65,100.23 308.88,100.1 309.12,99.97 309.35,99.83 309.58,99.69 309.8,99.54 310.02,99.39 310.24,99.24 
	310.45,99.08 310.66,98.91 310.86,98.74 311.05,98.57 311.24,98.39 311.43,98.21 311.61,98.03 311.78,97.85 311.95,97.66 
	312.12,97.47 312.28,97.27 312.43,97.08 312.58,96.88 312.72,96.68 312.86,96.48 312.99,96.28 313.12,96.07 313.24,95.87 
	313.35,95.66 313.47,95.45 313.57,95.24 313.68,95.03 313.77,94.81 313.87,94.59 313.95,94.37 314.04,94.14 314.11,93.92 
	314.18,93.69 314.25,93.46 314.31,93.23 314.36,93 314.41,92.76 314.44,92.53 314.48,92.29 314.5,92.06 314.52,91.82 314.53,91.58 
	314.54,91.35 314.54,91.11 314.53,90.87 314.51,90.64 314.48,90.4 314.45,90.17 314.41,89.94 314.37,89.7 314.31,89.47 
	314.25,89.25 314.18,89.02 314.1,88.8 314.02,88.58 313.93,88.36 313.83,88.14 313.73,87.93 313.61,87.72 313.49,87.52 
	313.37,87.32 313.24,87.12 313.1,86.93 312.95,86.74 312.8,86.55 312.65,86.37 312.48,86.19 312.32,86.02 312.14,85.85 
	311.96,85.69 311.78,85.53 311.59,85.38 311.4,85.23 311.2,85.09 311,84.95 310.8,84.82 310.59,84.69 310.38,84.57 310.17,84.45 
	309.95,84.34 309.73,84.24 309.51,84.13 309.29,84.04 309.07,83.95 308.84,83.86 308.61,83.78 "/>
<polygon class="st0" points="298.79,96.89 295.13,103.22 294.69,102.91 294.25,102.6 293.83,102.26 293.42,101.92 293.02,101.56 
	292.64,101.18 292.26,100.79 291.91,100.39 291.56,99.98 291.23,99.56 290.92,99.12 290.62,98.67 290.33,98.22 290.07,97.75 
	289.81,97.27 289.58,96.79 289.36,96.3 289.16,95.8 288.98,95.29 288.81,94.78 288.67,94.27 288.54,93.74 288.43,93.22 
	288.33,92.69 288.26,92.16 288.2,91.62 288.17,91.08 288.15,90.55 288.15,90.01 288.17,89.47 288.21,88.94 288.26,88.4 
	288.34,87.87 288.43,87.34 288.54,86.81 288.67,86.29 288.82,85.77 288.99,85.26 289.17,84.76 289.38,84.26 289.59,83.77 
	289.83,83.29 290.08,82.81 290.35,82.35 290.64,81.89 290.94,81.44 291.25,81.01 291.58,80.58 291.93,80.17 292.29,79.77 
	292.66,79.39 293.05,79.01 293.45,78.65 293.86,78.31 294.28,77.97 294.72,77.66 295.16,77.36 295.62,77.07 296.08,76.8 
	296.56,76.55 297.04,76.31 297.53,76.09 298.03,75.89 298.54,75.71 299.05,75.54 299.56,75.39 300.08,75.26 300.61,75.15 
	301.14,75.05 301.67,74.98 302.21,74.92 302.74,74.88 303.28,74.86 303.82,74.86 304.36,74.88 304.89,74.91 305.43,74.97 
	305.96,75.04 306.49,75.13 307.02,75.24 307.54,75.37 308.05,75.52 308.57,75.68 309.07,75.87 309.57,76.07 310.06,76.28 
	310.55,76.52 308.4,80.24 308.18,80.14 307.96,80.05 307.74,79.95 307.51,79.86 307.28,79.78 307.05,79.7 306.81,79.63 
	306.57,79.56 306.33,79.49 306.08,79.43 305.83,79.38 305.58,79.33 305.32,79.29 305.07,79.25 304.81,79.22 304.55,79.19 
	304.29,79.17 304.02,79.16 303.76,79.15 303.49,79.15 303.22,79.15 302.95,79.17 302.68,79.19 302.42,79.21 302.15,79.24 
	301.88,79.28 301.61,79.33 301.34,79.38 301.08,79.43 300.81,79.5 300.55,79.57 300.29,79.65 300.03,79.73 299.77,79.82 
	299.51,79.92 299.26,80.02 299.01,80.13 298.77,80.24 298.52,80.36 298.28,80.49 298.05,80.62 297.81,80.76 297.59,80.9 
	297.36,81.05 297.14,81.2 296.93,81.35 296.72,81.51 296.51,81.68 296.31,81.85 296.12,82.02 295.93,82.2 295.74,82.38 
	295.56,82.56 295.38,82.74 295.21,82.93 295.05,83.12 294.89,83.32 294.74,83.51 294.59,83.71 294.45,83.91 294.31,84.11 
	294.18,84.31 294.05,84.52 293.93,84.72 293.81,84.93 293.7,85.14 293.6,85.35 293.49,85.56 293.39,85.78 293.3,86 293.21,86.22 
	293.13,86.45 293.06,86.67 292.98,86.9 292.92,87.13 292.86,87.36 292.81,87.59 292.76,87.83 292.72,88.06 292.69,88.3 
	292.66,88.54 292.65,88.77 292.63,89.01 292.63,89.25 292.63,89.48 292.64,89.72 292.66,89.95 292.68,90.19 292.71,90.42 
	292.75,90.66 292.8,90.89 292.86,91.12 292.92,91.34 292.99,91.57 293.06,91.79 293.15,92.01 293.24,92.23 293.34,92.45 
	293.44,92.66 293.55,92.87 293.67,93.07 293.8,93.27 293.93,93.47 294.07,93.66 294.21,93.85 294.37,94.04 294.52,94.22 
	294.68,94.4 294.85,94.57 295.03,94.74 295.2,94.9 295.39,95.06 295.57,95.21 295.77,95.36 295.96,95.5 296.16,95.64 296.37,95.77 
	296.57,95.9 296.78,96.02 297,96.14 297.21,96.25 297.43,96.36 297.65,96.46 297.88,96.55 298.1,96.65 298.33,96.73 298.56,96.81 
	"/>
<polygon class="st0" points="200.85,105.73 201.54,105.72 201.88,105.71 202.22,105.69 202.56,105.66 202.89,105.63 203.23,105.59 
	203.57,105.54 203.88,105.49 204.19,105.43 204.5,105.37 204.81,105.3 205.12,105.22 205.42,105.14 205.73,105.04 206.03,104.95 
	206.31,104.85 206.59,104.74 206.87,104.63 207.14,104.51 207.42,104.38 207.68,104.25 207.95,104.1 208.21,103.96 208.46,103.81 
	208.7,103.65 208.94,103.49 209.17,103.32 209.4,103.15 209.63,102.97 209.85,102.78 210.06,102.59 210.27,102.39 210.47,102.19 
	210.67,101.98 210.85,101.77 211.04,101.55 211.22,101.33 211.39,101.1 211.55,100.87 211.71,100.63 211.87,100.38 212.02,100.13 
	212.16,99.87 212.29,99.61 212.42,99.35 212.54,99.08 212.65,98.81 212.76,98.52 212.86,98.24 212.96,97.95 213.04,97.65 
	213.12,97.36 213.19,97.06 213.26,96.77 213.31,96.47 213.37,96.15 213.41,95.82 213.45,95.5 213.48,95.18 213.5,94.85 
	213.52,94.52 213.53,94.2 213.53,93.87 213.53,75.29 208.41,75.29 208.41,93.65 208.41,94.1 208.4,94.33 208.38,94.56 208.37,94.79 
	208.34,95.01 208.32,95.24 208.28,95.47 208.25,95.67 208.22,95.86 208.18,96.06 208.13,96.25 208.08,96.45 208.03,96.64 
	207.97,96.83 207.91,97.02 207.85,97.19 207.78,97.36 207.71,97.53 207.64,97.69 207.56,97.85 207.47,98.01 207.39,98.17 
	207.29,98.33 207.2,98.47 207.1,98.61 207,98.75 206.9,98.88 206.79,99.02 206.68,99.14 206.56,99.27 206.44,99.39 206.32,99.51 
	206.19,99.62 206.06,99.73 205.93,99.84 205.79,99.94 205.65,100.04 205.51,100.14 205.36,100.23 205.21,100.32 205.06,100.41 
	204.9,100.49 204.74,100.57 204.58,100.64 204.41,100.71 204.25,100.77 204.08,100.84 203.9,100.9 203.71,100.95 203.52,101.01 
	203.34,101.05 203.15,101.1 202.96,101.14 202.77,101.17 202.57,101.2 202.36,101.24 202.14,101.26 201.92,101.28 201.71,101.3 
	201.49,101.31 201.27,101.32 200.83,101.33 200.41,101.32 200.2,101.31 199.99,101.3 199.78,101.28 199.57,101.26 199.36,101.24 
	199.15,101.21 198.96,101.18 198.78,101.15 198.6,101.11 198.42,101.07 198.24,101.02 198.06,100.97 197.88,100.91 197.7,100.85 
	197.54,100.8 197.39,100.73 197.23,100.67 197.08,100.6 196.93,100.52 196.78,100.44 196.63,100.36 196.49,100.27 196.35,100.19 
	196.22,100.1 196.09,100 195.97,99.9 195.84,99.8 195.72,99.69 195.6,99.58 195.49,99.47 195.38,99.35 195.27,99.23 195.17,99.11 
	195.07,98.98 194.97,98.85 194.88,98.72 194.79,98.58 194.7,98.45 194.62,98.3 194.53,98.14 194.46,97.99 194.38,97.83 
	194.31,97.67 194.25,97.51 194.19,97.35 194.13,97.19 194.07,97 194.02,96.82 193.97,96.63 193.92,96.44 193.88,96.25 193.84,96.06 
	193.81,95.87 193.78,95.68 193.75,95.46 193.73,95.24 193.71,95.02 193.69,94.8 193.67,94.36 193.66,93.91 193.66,75.29 
	188.52,75.29 188.52,94.24 188.53,94.56 188.54,94.87 188.55,95.19 188.57,95.51 188.6,95.82 188.64,96.14 188.69,96.45 
	188.74,96.76 188.79,97.05 188.86,97.34 188.93,97.63 189,97.92 189.09,98.2 189.18,98.48 189.28,98.76 189.39,99.03 189.5,99.3 
	189.62,99.56 189.74,99.82 189.87,100.07 190.01,100.32 190.16,100.56 190.31,100.8 190.47,101.03 190.63,101.26 190.8,101.48 
	190.97,101.7 191.15,101.91 191.33,102.12 191.53,102.32 191.72,102.51 191.92,102.7 192.13,102.89 192.35,103.07 192.57,103.24 
	192.79,103.41 193.02,103.57 193.25,103.73 193.49,103.88 193.73,104.02 193.99,104.16 194.24,104.3 194.51,104.43 194.77,104.55 
	195.04,104.67 195.31,104.78 195.58,104.88 195.86,104.98 196.15,105.07 196.44,105.16 196.74,105.24 197.03,105.31 197.33,105.38 
	197.63,105.44 197.93,105.5 198.24,105.54 198.56,105.59 198.89,105.63 199.21,105.66 199.54,105.69 199.87,105.71 200.2,105.72 "/>
<polygon class="st0" points="236.94,90.17 236.95,90.88 236.98,91.59 237.04,92.29 237.12,93 237.21,93.65 237.27,93.98 
	237.33,94.31 237.4,94.63 237.47,94.96 237.55,95.28 237.64,95.6 237.73,95.9 237.82,96.2 237.92,96.5 238.03,96.8 238.14,97.1 
	238.26,97.39 238.39,97.68 238.52,97.97 238.65,98.24 238.79,98.52 238.93,98.79 239.08,99.05 239.24,99.32 239.4,99.58 
	239.57,99.83 239.74,100.08 239.92,100.32 240.1,100.56 240.28,100.79 240.47,101.02 240.67,101.24 240.87,101.46 241.08,101.68 
	241.29,101.88 241.51,102.09 241.73,102.29 241.96,102.48 242.19,102.67 242.42,102.85 242.66,103.02 242.91,103.2 243.15,103.36 
	243.41,103.52 243.68,103.68 243.94,103.83 244.21,103.98 244.48,104.12 244.76,104.25 245.04,104.38 245.32,104.5 245.61,104.62 
	245.91,104.73 246.2,104.83 246.51,104.93 246.81,105.03 247.11,105.11 247.42,105.19 247.73,105.27 248.05,105.34 248.38,105.4 
	248.71,105.46 249.04,105.52 249.37,105.56 249.71,105.6 250.37,105.67 251.08,105.71 251.78,105.73 252.42,105.73 253.06,105.71 
	253.66,105.68 254.26,105.63 254.86,105.56 255.46,105.48 256.03,105.38 256.61,105.27 257.18,105.14 257.75,104.99 258.3,104.83 
	258.85,104.65 259.39,104.46 259.92,104.25 260.44,104.02 260.94,103.79 261.44,103.54 261.93,103.27 262.4,102.99 262.85,102.7 
	263.3,102.39 263.52,102.24 263.73,102.07 264.15,101.74 264.36,101.57 264.56,101.4 264.75,101.22 264.95,101.04 265.14,100.85 
	265.33,100.66 265.51,100.48 265.51,89.68 252.07,89.68 252.07,94.18 260.67,94.18 260.67,98.49 260.53,98.62 260.38,98.75 
	260.23,98.87 260.08,98.99 259.92,99.1 259.76,99.21 259.6,99.32 259.43,99.42 259.25,99.53 259.07,99.64 258.88,99.74 
	258.69,99.84 258.5,99.94 258.31,100.03 258.12,100.12 257.92,100.2 257.71,100.29 257.49,100.37 257.06,100.53 256.82,100.61 
	256.58,100.69 256.33,100.76 256.09,100.83 255.84,100.89 255.59,100.95 255.34,101.01 255.08,101.06 254.57,101.14 254.06,101.21 
	253.53,101.27 252.99,101.31 252.46,101.33 251.92,101.33 251.47,101.32 251.01,101.29 250.79,101.27 250.56,101.25 250.33,101.22 
	250.11,101.19 249.9,101.15 249.69,101.11 249.49,101.07 249.28,101.03 249.08,100.98 248.88,100.92 248.67,100.86 248.47,100.8 
	248.29,100.73 248.1,100.67 247.92,100.59 247.73,100.52 247.55,100.44 247.38,100.35 247.2,100.27 247.02,100.17 246.86,100.08 
	246.69,99.98 246.52,99.88 246.36,99.77 246.2,99.66 246.05,99.54 245.89,99.43 245.74,99.31 245.59,99.18 245.45,99.05 
	245.3,98.91 245.16,98.77 245.02,98.63 244.89,98.49 244.75,98.34 244.63,98.19 244.5,98.04 244.37,97.88 244.25,97.72 
	244.13,97.55 244.02,97.39 243.91,97.22 243.8,97.05 243.7,96.87 243.6,96.69 243.5,96.51 243.4,96.32 243.31,96.13 243.23,95.94 
	243.14,95.75 243.06,95.56 242.99,95.37 242.91,95.16 242.84,94.95 242.77,94.74 242.71,94.53 242.65,94.31 242.59,94.1 
	242.49,93.67 242.44,93.43 242.4,93.2 242.32,92.72 242.26,92.25 242.21,91.77 242.17,91.26 242.15,90.75 242.14,90.21 
	242.15,89.68 242.17,89.18 242.2,88.67 242.24,88.17 242.3,87.67 242.37,87.22 242.45,86.77 242.55,86.32 242.6,86.1 242.66,85.88 
	242.72,85.68 242.78,85.47 242.84,85.27 242.91,85.08 242.98,84.88 243.06,84.68 243.14,84.49 243.22,84.3 243.31,84.12 
	243.39,83.94 243.48,83.77 243.57,83.59 243.67,83.42 243.77,83.25 243.88,83.09 243.98,82.92 244.09,82.77 244.2,82.61 
	244.32,82.46 244.44,82.31 244.56,82.17 244.68,82.02 244.81,81.88 244.94,81.75 245.07,81.62 245.21,81.49 245.34,81.37 
	245.48,81.25 245.63,81.13 245.77,81.02 245.92,80.91 246.07,80.8 246.23,80.7 246.39,80.6 246.55,80.5 246.72,80.41 246.88,80.32 
	247.05,80.24 247.22,80.16 247.39,80.08 247.57,80.01 247.76,79.94 247.94,79.87 248.13,79.81 248.32,79.75 248.51,79.69 
	248.71,79.64 248.91,79.59 249.12,79.54 249.33,79.5 249.55,79.46 249.76,79.43 249.98,79.4 250.19,79.37 250.63,79.33 251.09,79.3 
	251.56,79.28 251.85,79.28 252.15,79.29 252.44,79.29 252.73,79.31 253,79.33 253.28,79.35 253.56,79.38 253.83,79.42 254.1,79.46 
	254.38,79.5 254.65,79.56 254.92,79.62 255.15,79.68 255.39,79.75 255.62,79.82 255.85,79.89 256.08,79.98 256.3,80.07 
	256.52,80.17 256.74,80.27 256.96,80.38 257.06,80.44 257.17,80.5 257.27,80.57 257.37,80.63 257.48,80.7 257.58,80.76 
	257.67,80.83 257.76,80.9 257.85,80.97 257.94,81.04 258.12,81.18 258.29,81.33 258.45,81.49 258.61,81.65 258.76,81.82 
	258.91,81.99 259.07,82.18 259.22,82.38 259.36,82.58 259.5,82.78 259.63,82.99 259.75,83.21 259.87,83.42 259.98,83.64 
	260.21,84.11 260.71,83.96 265.11,82.65 264.82,82.01 264.63,81.62 264.44,81.23 264.23,80.85 264.01,80.48 263.79,80.13 
	263.56,79.79 263.31,79.45 263.19,79.29 263.06,79.13 262.93,78.98 262.8,78.83 262.67,78.68 262.53,78.53 262.39,78.39 
	262.25,78.25 262.11,78.11 261.96,77.97 261.81,77.84 261.67,77.71 261.51,77.59 261.36,77.47 261.2,77.35 261.04,77.23 
	260.88,77.12 260.72,77.01 260.56,76.9 260.39,76.8 260.22,76.7 260.05,76.6 259.72,76.43 259.39,76.26 259.05,76.11 258.7,75.97 
	258.31,75.82 257.9,75.68 257.5,75.56 257.09,75.45 256.65,75.34 256.21,75.25 255.76,75.16 255.31,75.09 254.83,75.03 
	254.35,74.97 253.86,74.93 253.37,74.9 252.86,74.87 252.34,74.86 251.46,74.86 250.73,74.89 250.01,74.93 249.65,74.97 
	249.29,75.01 248.94,75.05 248.58,75.11 248.25,75.16 247.92,75.22 247.59,75.29 247.27,75.37 246.94,75.45 246.62,75.54 
	246.3,75.63 245.98,75.73 245.68,75.84 245.38,75.95 245.09,76.07 244.8,76.19 244.51,76.32 244.23,76.46 243.94,76.6 243.67,76.75 
	243.4,76.91 243.14,77.07 242.88,77.24 242.62,77.41 242.37,77.59 242.13,77.77 241.89,77.97 241.65,78.16 241.42,78.37 
	241.19,78.58 240.97,78.79 240.76,79.01 240.55,79.24 240.34,79.47 240.14,79.71 239.95,79.95 239.76,80.2 239.58,80.45 
	239.41,80.71 239.24,80.97 239.08,81.24 238.92,81.51 238.77,81.78 238.63,82.06 238.49,82.35 238.35,82.64 238.22,82.94 
	238.1,83.24 237.99,83.55 237.88,83.85 237.78,84.16 237.69,84.47 237.59,84.8 237.51,85.14 237.43,85.47 237.35,85.81 
	237.29,86.15 237.23,86.49 237.17,86.83 237.13,87.18 237.08,87.55 237.04,87.92 236.99,88.67 236.95,89.42 "/>
<polygon class="st0" points="359.84,86.58 364.95,105.32 370.55,105.32 379.4,75.29 374.03,75.29 373.91,75.74 368.32,95.95 
	368.16,96.58 367.69,98.56 366.47,93.68 361.34,75.29 356.66,75.29 356.53,75.74 351.02,95.58 350.85,96.22 350.32,98.45 
	349.22,94.04 343.92,75.29 338.56,75.29 347.4,105.32 353,105.32 353.12,104.87 358.54,85.03 358.71,84.36 359,83.11 359.23,84.15 
	359.57,85.53 "/>
<polygon class="st0" points="453.21,93.37 453.21,89.04 453.21,79.65 453.21,75.29 448.07,75.29 448.07,105.32 453.21,105.32 "/>
<polygon class="st0" points="466.38,92.71 466.67,92.64 466.95,92.55 467.24,92.46 467.52,92.36 467.79,92.25 468.06,92.13 
	468.33,92 468.6,91.87 468.77,91.77 468.93,91.68 469.1,91.58 469.26,91.47 469.43,91.36 469.58,91.25 469.74,91.13 469.89,91.01 
	470.04,90.89 470.19,90.77 470.33,90.64 470.47,90.5 470.61,90.37 470.74,90.23 470.87,90.09 471,89.94 471.12,89.79 471.24,89.64 
	471.36,89.49 471.47,89.34 471.58,89.18 471.69,89.02 471.79,88.85 471.88,88.69 471.98,88.52 472.07,88.35 472.15,88.18 
	472.23,88.01 472.31,87.83 472.38,87.66 472.45,87.48 472.52,87.3 472.58,87.11 472.64,86.93 472.69,86.74 472.74,86.55 
	472.78,86.36 472.82,86.17 472.86,85.97 472.89,85.78 472.92,85.58 472.95,85.37 472.97,85.17 472.99,84.96 473,84.76 473.01,84.55 
	473.02,84.35 473.02,84.14 473.02,83.9 473.01,83.65 473,83.41 472.98,83.16 472.95,82.92 472.92,82.67 472.88,82.43 472.84,82.19 
	472.8,81.97 472.74,81.74 472.69,81.52 472.62,81.3 472.55,81.08 472.48,80.86 472.39,80.65 472.31,80.44 472.21,80.24 
	472.11,80.03 472.01,79.84 471.9,79.64 471.78,79.45 471.66,79.27 471.54,79.08 471.4,78.9 471.26,78.73 471.12,78.55 470.97,78.38 
	470.81,78.22 470.65,78.06 470.49,77.9 470.32,77.75 470.15,77.6 469.96,77.46 469.77,77.32 469.58,77.18 469.39,77.05 
	469.19,76.92 468.99,76.8 468.78,76.69 468.57,76.58 468.35,76.47 468.12,76.37 467.9,76.27 467.67,76.17 467.43,76.09 467.2,76 
	466.96,75.93 466.72,75.86 466.46,75.78 466.2,75.72 465.94,75.66 465.68,75.6 465.41,75.55 465.15,75.5 464.61,75.43 464.32,75.39 
	464.02,75.36 463.43,75.32 462.84,75.3 462.24,75.29 454.93,75.29 454.93,79.65 461.85,79.65 462.21,79.65 462.57,79.67 
	462.93,79.69 463.29,79.73 463.6,79.77 463.91,79.82 464.07,79.85 464.22,79.88 464.37,79.92 464.53,79.96 464.66,80 464.79,80.03 
	464.92,80.08 465.05,80.12 465.18,80.17 465.31,80.22 465.43,80.27 465.56,80.33 465.67,80.39 465.78,80.44 465.88,80.5 
	465.99,80.56 466.09,80.63 466.19,80.7 466.29,80.77 466.39,80.84 466.48,80.91 466.57,80.98 466.65,81.06 466.73,81.13 
	466.81,81.21 466.89,81.3 466.96,81.38 467.03,81.47 467.1,81.55 467.16,81.64 467.22,81.74 467.28,81.83 467.34,81.92 
	467.39,82.02 467.44,82.12 467.49,82.22 467.53,82.33 467.57,82.44 467.61,82.55 467.65,82.66 467.68,82.77 467.71,82.89 467.74,83 
	467.76,83.12 467.79,83.25 467.81,83.38 467.82,83.52 467.84,83.65 467.85,83.78 467.85,83.92 467.86,84.05 467.86,84.18 
	467.86,84.32 467.85,84.46 467.85,84.6 467.84,84.74 467.82,84.88 467.81,85.02 467.79,85.16 467.76,85.3 467.74,85.42 
	467.71,85.54 467.68,85.66 467.65,85.78 467.61,85.9 467.57,86.02 467.53,86.14 467.48,86.25 467.44,86.36 467.39,86.47 
	467.34,86.57 467.28,86.67 467.22,86.77 467.16,86.87 467.1,86.97 467.03,87.06 466.96,87.16 466.88,87.25 466.81,87.34 
	466.73,87.43 466.65,87.51 466.56,87.59 466.48,87.67 466.39,87.75 466.29,87.83 466.2,87.91 466.1,87.98 465.99,88.05 
	465.89,88.12 465.79,88.18 465.68,88.25 465.57,88.31 465.45,88.37 465.33,88.43 465.21,88.48 465.08,88.53 464.96,88.58 
	464.83,88.63 464.7,88.67 464.57,88.71 464.43,88.75 464.28,88.79 464.14,88.83 463.99,88.86 463.84,88.89 463.69,88.91 
	463.54,88.94 463.39,88.96 463.22,88.98 463.05,89 462.71,89.02 462.36,89.04 462.02,89.04 454.93,89.04 454.93,93.37 461.22,93.37 
	468.71,105.32 474.69,105.32 "/>
<g>
	<path class="st5" d="M157.96,62.03c-3.2,0-6.04-0.71-8.51-2.13c-2.47-1.42-4.42-3.38-5.84-5.87c-1.42-2.49-2.13-5.32-2.13-8.48
		c0-3.2,0.71-6.05,2.13-8.54s3.37-4.45,5.84-5.87c2.47-1.42,5.31-2.13,8.51-2.13c3.16,0,5.97,0.71,8.42,2.13
		c2.45,1.42,4.39,3.38,5.81,5.87c1.42,2.49,2.15,5.34,2.19,8.54c0,3.16-0.71,5.99-2.13,8.48c-1.42,2.49-3.37,4.45-5.84,5.87
		C163.94,61.32,161.12,62.03,157.96,62.03z M157.96,57.53c2.21,0,4.19-0.52,5.93-1.57c1.74-1.05,3.1-2.47,4.09-4.27
		c0.99-1.8,1.48-3.84,1.48-6.14c0-2.29-0.49-4.35-1.48-6.17c-0.99-1.82-2.35-3.25-4.09-4.3c-1.74-1.05-3.72-1.57-5.93-1.57
		c-2.21,0-4.2,0.52-5.96,1.57c-1.76,1.05-3.14,2.48-4.15,4.3c-1.01,1.82-1.51,3.87-1.51,6.17c0,2.29,0.5,4.34,1.51,6.14
		c1.01,1.8,2.39,3.22,4.15,4.27C153.76,57,155.75,57.53,157.96,57.53z"/>
	<path class="st5" d="M185.77,61.73c-0.79,0-1.4-0.22-1.84-0.65c-0.44-0.43-0.65-1.05-0.65-1.84V31.8c0-0.79,0.22-1.4,0.65-1.84
		c0.43-0.43,1.05-0.65,1.84-0.65c0.79,0,1.39,0.22,1.81,0.65c0.42,0.44,0.62,1.05,0.62,1.84v27.45c0,0.79-0.21,1.4-0.62,1.84
		C187.16,61.52,186.56,61.73,185.77,61.73z M185.47,41.64c0.08-2.41,0.7-4.57,1.87-6.49c1.17-1.92,2.71-3.43,4.62-4.53
		c1.92-1.11,4.02-1.66,6.31-1.66c2.02,0,3.55,0.3,4.59,0.89c1.05,0.59,1.43,1.4,1.16,2.43c-0.12,0.55-0.37,0.95-0.74,1.19
		c-0.38,0.24-0.81,0.36-1.3,0.36c-0.49,0-1.06-0.04-1.69-0.12c-2.33-0.28-4.4-0.13-6.2,0.44c-1.8,0.57-3.23,1.51-4.3,2.82
		s-1.6,2.87-1.6,4.68H185.47z"/>
	<path class="st5" d="M223.11,62.03c-3.12,0-5.91-0.72-8.36-2.16c-2.45-1.44-4.38-3.41-5.78-5.9c-1.4-2.49-2.1-5.3-2.1-8.42
		c0-3.16,0.68-5.99,2.05-8.48c1.36-2.49,3.22-4.46,5.57-5.9c2.35-1.44,5.07-2.16,8.15-2.16c2.37,0,4.56,0.47,6.58,1.39
		c2.02,0.93,3.79,2.32,5.34,4.18c0.47,0.55,0.64,1.12,0.5,1.69c-0.14,0.57-0.5,1.08-1.1,1.51c-0.47,0.32-1,0.43-1.57,0.33
		c-0.57-0.1-1.1-0.4-1.57-0.92c-2.17-2.45-4.9-3.68-8.18-3.68c-2.17,0-4.08,0.51-5.72,1.54c-1.64,1.03-2.92,2.44-3.82,4.24
		c-0.91,1.8-1.36,3.88-1.36,6.25c0,2.29,0.48,4.34,1.45,6.14c0.97,1.8,2.31,3.22,4.03,4.27c1.72,1.05,3.69,1.57,5.9,1.57
		c1.5,0,2.85-0.2,4.06-0.59c1.21-0.39,2.28-1.01,3.23-1.84c0.55-0.43,1.11-0.67,1.66-0.71c0.55-0.04,1.07,0.12,1.54,0.47
		c0.51,0.47,0.81,1.01,0.89,1.6c0.08,0.59-0.12,1.13-0.59,1.6C231.02,60.71,227.42,62.03,223.11,62.03z"/>
	<path class="st5" d="M258.03,62.03c-3,0-5.69-0.72-8.06-2.16c-2.37-1.44-4.25-3.41-5.63-5.9c-1.38-2.49-2.07-5.3-2.07-8.42
		c0-3.16,0.72-5.99,2.16-8.48c1.44-2.49,3.41-4.46,5.9-5.9c2.49-1.44,5.3-2.16,8.42-2.16c3.08,0,5.86,0.72,8.33,2.16
		c2.47,1.44,4.43,3.41,5.87,5.9c1.44,2.49,2.18,5.32,2.22,8.48l-2.02,1.01c0,2.93-0.66,5.55-1.99,7.88
		c-1.32,2.33-3.12,4.18-5.4,5.54C263.49,61.35,260.92,62.03,258.03,62.03z M258.74,57.53c2.21,0,4.18-0.52,5.9-1.57
		c1.72-1.05,3.08-2.48,4.09-4.3c1.01-1.82,1.51-3.85,1.51-6.11c0-2.29-0.5-4.34-1.51-6.14c-1.01-1.8-2.37-3.23-4.09-4.3
		c-1.72-1.07-3.69-1.6-5.9-1.6c-2.17,0-4.14,0.53-5.9,1.6c-1.76,1.07-3.15,2.5-4.18,4.3c-1.03,1.8-1.54,3.84-1.54,6.14
		c0,2.25,0.51,4.29,1.54,6.11c1.03,1.82,2.42,3.25,4.18,4.3C254.6,57,256.57,57.53,258.74,57.53z M272.61,61.73
		c-0.71,0-1.31-0.23-1.81-0.68c-0.49-0.45-0.74-1.06-0.74-1.81v-9.78l1.13-5.16l3.97,1.25v13.69c0,0.75-0.24,1.35-0.71,1.81
		C273.98,61.51,273.37,61.73,272.61,61.73z"/>
	<path class="st6" d="M312.87,62.03c-2.45,0-4.83-0.4-7.14-1.22c-2.31-0.81-4.16-1.97-5.54-3.47c-0.47-0.51-0.67-1.11-0.59-1.78
		c0.08-0.67,0.39-1.22,0.95-1.66c0.63-0.47,1.27-0.67,1.93-0.59c0.65,0.08,1.19,0.36,1.63,0.83c0.87,1.03,2.08,1.85,3.62,2.46
		c1.54,0.61,3.24,0.92,5.1,0.92c2.73,0,4.73-0.46,6.02-1.39c1.28-0.93,1.95-2.08,1.99-3.47c0-1.34-0.64-2.47-1.93-3.38
		c-1.28-0.91-3.47-1.62-6.55-2.13c-3.99-0.67-6.91-1.8-8.74-3.38c-1.84-1.58-2.76-3.48-2.76-5.69c0-2.02,0.55-3.69,1.66-5.04
		c1.11-1.34,2.56-2.35,4.36-3.02c1.8-0.67,3.74-1.01,5.84-1.01c2.65,0,4.94,0.44,6.88,1.33c1.94,0.89,3.5,2.08,4.68,3.59
		c0.43,0.55,0.62,1.14,0.56,1.75c-0.06,0.61-0.39,1.1-0.98,1.45c-0.51,0.36-1.12,0.47-1.81,0.36c-0.69-0.12-1.27-0.43-1.75-0.95
		c-0.99-1.07-2.11-1.85-3.38-2.34c-1.27-0.49-2.71-0.74-4.33-0.74c-2.06,0-3.72,0.41-4.98,1.22c-1.27,0.81-1.9,1.85-1.9,3.11
		c0,0.87,0.23,1.62,0.68,2.25c0.45,0.63,1.26,1.2,2.43,1.69c1.17,0.49,2.83,0.94,5.01,1.33c2.96,0.51,5.31,1.24,7.02,2.16
		c1.72,0.93,2.94,2.01,3.68,3.23c0.73,1.23,1.1,2.59,1.1,4.09c0,1.86-0.52,3.49-1.57,4.89c-1.05,1.4-2.52,2.52-4.42,3.35
		C317.73,61.62,315.48,62.03,312.87,62.03z"/>
	<path class="st6" d="M340.67,61.73c-1.66,0-3.12-0.44-4.39-1.33c-1.27-0.89-2.25-2.12-2.96-3.71c-0.71-1.58-1.07-3.4-1.07-5.45
		V17.92c0-0.75,0.23-1.35,0.68-1.81c0.45-0.45,1.06-0.68,1.81-0.68c0.71,0,1.29,0.23,1.75,0.68c0.45,0.45,0.68,1.06,0.68,1.81v33.32
		c0,1.62,0.33,2.96,0.98,4c0.65,1.05,1.49,1.57,2.52,1.57h1.48c0.63,0,1.15,0.23,1.54,0.68c0.39,0.46,0.59,1.04,0.59,1.75
		c0,0.75-0.29,1.35-0.86,1.81c-0.57,0.45-1.31,0.68-2.22,0.68H340.67z"/>
	<path class="st6" d="M353.83,23.44c-0.95,0-1.76-0.35-2.43-1.04c-0.67-0.69-1.01-1.51-1.01-2.46c0-0.99,0.35-1.8,1.04-2.43
		c0.69-0.63,1.49-0.95,2.4-0.95c0.91,0,1.71,0.32,2.4,0.95c0.69,0.63,1.04,1.44,1.04,2.43c0,0.95-0.34,1.77-1.01,2.46
		C355.59,23.09,354.78,23.44,353.83,23.44z M353.89,61.73c-0.75,0-1.36-0.23-1.84-0.68c-0.47-0.45-0.71-1.08-0.71-1.87V31.86
		c0-0.79,0.24-1.41,0.71-1.87c0.47-0.45,1.09-0.68,1.84-0.68c0.75,0,1.35,0.23,1.81,0.68c0.45,0.45,0.68,1.08,0.68,1.87v27.33
		c0,0.79-0.23,1.41-0.68,1.87C355.24,61.51,354.64,61.73,353.89,61.73z"/>
	<path class="st6" d="M382.4,62.03c-3.12,0-5.91-0.72-8.36-2.16c-2.45-1.44-4.38-3.41-5.78-5.9c-1.4-2.49-2.1-5.3-2.1-8.42
		c0-3.16,0.68-5.99,2.05-8.48c1.36-2.49,3.22-4.46,5.57-5.9c2.35-1.44,5.07-2.16,8.15-2.16c2.37,0,4.56,0.47,6.58,1.39
		c2.02,0.93,3.79,2.32,5.34,4.18c0.47,0.55,0.64,1.12,0.5,1.69c-0.14,0.57-0.5,1.08-1.1,1.51c-0.47,0.32-1,0.43-1.57,0.33
		c-0.57-0.1-1.1-0.4-1.57-0.92c-2.17-2.45-4.9-3.68-8.18-3.68c-2.17,0-4.08,0.51-5.72,1.54c-1.64,1.03-2.92,2.44-3.82,4.24
		c-0.91,1.8-1.36,3.88-1.36,6.25c0,2.29,0.48,4.34,1.45,6.14c0.97,1.8,2.31,3.22,4.03,4.27c1.72,1.05,3.69,1.57,5.9,1.57
		c1.5,0,2.85-0.2,4.06-0.59c1.21-0.39,2.28-1.01,3.23-1.84c0.55-0.43,1.11-0.67,1.66-0.71c0.55-0.04,1.07,0.12,1.54,0.47
		c0.51,0.47,0.81,1.01,0.89,1.6c0.08,0.59-0.12,1.13-0.59,1.6C390.31,60.71,386.71,62.03,382.4,62.03z"/>
	<path class="st6" d="M418.15,62.03c-3.24,0-6.11-0.7-8.6-2.1c-2.49-1.4-4.45-3.35-5.87-5.84s-2.13-5.34-2.13-8.54
		c0-3.24,0.67-6.1,2.02-8.57c1.34-2.47,3.19-4.42,5.54-5.84c2.35-1.42,5.07-2.13,8.15-2.13c3,0,5.62,0.68,7.85,2.05
		c2.23,1.36,3.95,3.25,5.16,5.66c1.21,2.41,1.81,5.16,1.81,8.24c0,0.67-0.22,1.22-0.65,1.63c-0.44,0.42-0.99,0.62-1.66,0.62h-24.78
		v-4.09h25.08l-2.55,1.78c0.04-2.17-0.36-4.13-1.19-5.87c-0.83-1.74-2.02-3.1-3.56-4.09c-1.54-0.99-3.38-1.48-5.51-1.48
		c-2.25,0-4.22,0.51-5.9,1.54c-1.68,1.03-2.96,2.46-3.85,4.3s-1.33,3.92-1.33,6.25c0,2.33,0.51,4.41,1.54,6.22
		c1.03,1.82,2.44,3.24,4.24,4.27c1.8,1.03,3.86,1.54,6.19,1.54c1.34,0,2.72-0.24,4.12-0.71c1.4-0.47,2.52-1.07,3.35-1.78
		c0.47-0.36,1.02-0.54,1.63-0.56c0.61-0.02,1.12,0.15,1.51,0.5c0.59,0.51,0.9,1.07,0.92,1.66c0.02,0.59-0.25,1.11-0.8,1.54
		c-1.3,1.11-2.96,2.02-4.98,2.73S419.97,62.03,418.15,62.03z"/>
	<path class="st6" d="M442.28,61.73c-0.79,0-1.4-0.22-1.84-0.65c-0.44-0.43-0.65-1.05-0.65-1.84V31.8c0-0.79,0.22-1.4,0.65-1.84
		c0.43-0.43,1.05-0.65,1.84-0.65c0.79,0,1.39,0.22,1.81,0.65c0.42,0.44,0.62,1.05,0.62,1.84v27.45c0,0.79-0.21,1.4-0.62,1.84
		C443.67,61.52,443.07,61.73,442.28,61.73z M441.98,41.64c0.08-2.41,0.7-4.57,1.87-6.49c1.17-1.92,2.71-3.43,4.62-4.53
		c1.92-1.11,4.02-1.66,6.31-1.66c2.02,0,3.55,0.3,4.59,0.89c1.05,0.59,1.43,1.4,1.16,2.43c-0.12,0.55-0.37,0.95-0.74,1.19
		c-0.38,0.24-0.81,0.36-1.3,0.36c-0.49,0-1.06-0.04-1.69-0.12c-2.33-0.28-4.4-0.13-6.2,0.44c-1.8,0.57-3.23,1.51-4.3,2.82
		s-1.6,2.87-1.6,4.68H441.98z"/>
	<path class="st6" d="M481.08,49.17c-0.33,0-0.6-0.1-0.79-0.29c-0.19-0.19-0.29-0.43-0.29-0.71c0-0.29,0.1-0.54,0.29-0.73
		c0.19-0.19,0.46-0.29,0.79-0.29h7.11c0.31,0,0.57,0.1,0.76,0.29c0.19,0.19,0.29,0.44,0.29,0.73c0,0.28-0.1,0.51-0.29,0.71
		c-0.19,0.19-0.45,0.29-0.76,0.29H481.08z M483.8,61.73c-0.3,0-0.55-0.11-0.77-0.32c-0.22-0.21-0.33-0.5-0.33-0.87V46.66
		c0-1.31,0.23-2.45,0.69-3.43s1.14-1.74,2.03-2.28c0.89-0.54,1.96-0.82,3.2-0.82c0.35,0,0.64,0.1,0.86,0.3
		c0.22,0.2,0.33,0.45,0.33,0.75c0,0.31-0.11,0.57-0.33,0.77c-0.22,0.2-0.51,0.3-0.86,0.3c-0.77,0-1.43,0.18-1.96,0.54
		c-0.54,0.36-0.94,0.86-1.22,1.49c-0.28,0.64-0.42,1.37-0.42,2.2v14.05c0,0.37-0.11,0.66-0.32,0.87
		C484.48,61.63,484.18,61.73,483.8,61.73z"/>
	<path class="st6" d="M498.46,61.87c-1.49,0-2.82-0.33-3.97-1c-1.15-0.66-2.06-1.58-2.73-2.74c-0.66-1.16-1-2.48-1-3.96
		c0-1.49,0.33-2.82,1-3.98c0.66-1.16,1.57-2.08,2.73-2.74c1.15-0.66,2.48-1,3.97-1c1.48,0,2.78,0.33,3.93,1
		c1.14,0.66,2.05,1.58,2.71,2.74c0.66,1.16,1,2.49,1.02,3.98c0,1.48-0.33,2.79-1,3.96c-0.66,1.16-1.57,2.08-2.73,2.74
		C501.25,61.54,499.93,61.87,498.46,61.87z M498.46,59.77c1.03,0,1.95-0.24,2.77-0.73c0.81-0.49,1.45-1.15,1.91-1.99
		c0.46-0.84,0.69-1.79,0.69-2.86c0-1.07-0.23-2.03-0.69-2.88c-0.46-0.85-1.1-1.52-1.91-2.01c-0.81-0.49-1.73-0.73-2.77-0.73
		c-1.03,0-1.96,0.24-2.78,0.73c-0.82,0.49-1.47,1.16-1.94,2.01c-0.47,0.85-0.71,1.81-0.71,2.88c0,1.07,0.24,2.02,0.71,2.86
		c0.47,0.84,1.12,1.5,1.94,1.99C496.5,59.53,497.43,59.77,498.46,59.77z"/>
	<path class="st6" d="M511.43,61.73c-0.37,0-0.65-0.1-0.86-0.3c-0.2-0.2-0.3-0.49-0.3-0.86V47.76c0-0.37,0.1-0.65,0.3-0.86
		c0.2-0.2,0.49-0.3,0.86-0.3c0.37,0,0.65,0.1,0.84,0.3c0.19,0.2,0.29,0.49,0.29,0.86v12.81c0,0.37-0.1,0.66-0.29,0.86
		C512.08,61.63,511.8,61.73,511.43,61.73z M511.3,52.36c0.04-1.12,0.33-2.13,0.87-3.03c0.54-0.89,1.26-1.6,2.16-2.12
		c0.89-0.52,1.88-0.77,2.95-0.77c0.94,0,1.66,0.14,2.14,0.42c0.49,0.28,0.67,0.65,0.54,1.13c-0.06,0.26-0.17,0.44-0.35,0.55
		s-0.38,0.17-0.61,0.17c-0.23,0-0.49-0.02-0.79-0.06c-1.09-0.13-2.05-0.06-2.89,0.21s-1.51,0.71-2.01,1.31
		c-0.5,0.61-0.75,1.34-0.75,2.19H511.3z"/>
</g>
</svg>
