<?xml version="1.0" encoding="utf-8"?>
<!-- Generator: Adobe Illustrator 24.3.0, SVG Export Plug-In . SVG Version: 6.00 Build 0)  -->
<svg version="1.1" id="레이어_1" xmlns="http://www.w3.org/2000/svg" xmlns:xlink="http://www.w3.org/1999/xlink" x="0px"
	 y="0px" viewBox="0 0 560 125" enable-background="new 0 0 560 125" xml:space="preserve">
<polygon fill-rule="evenodd" clip-rule="evenodd" fill="#D3D3D3" points="71.75,48.18 80.47,33.55 81.28,34.09 82.09,34.64 
	82.88,35.22 83.65,35.82 84.4,36.43 85.14,37.07 85.86,37.73 86.56,38.4 87.25,39.09 87.91,39.8 88.55,40.53 89.18,41.27 
	89.78,42.03 90.36,42.8 90.92,43.59 91.46,44.39 91.98,45.21 92.47,46.04 92.94,46.88 93.38,47.74 93.81,48.6 94.2,49.48 
	94.58,50.36 94.93,51.26 95.25,52.16 95.55,53.08 95.82,54 96.07,54.92 96.29,55.86 96.49,56.8 96.66,57.74 96.81,58.69 
	96.92,59.64 97.02,60.59 97.08,61.54 97.12,62.5 97.13,63.46 97.12,64.42 97.08,65.37 97.01,66.33 96.92,67.28 96.8,68.23 
	96.65,69.18 96.48,70.12 96.28,71.06 96.06,71.99 95.81,72.92 95.54,73.84 95.24,74.75 94.91,75.65 94.56,76.55 94.18,77.44 
	93.79,78.31 93.36,79.18 92.91,80.03 92.44,80.87 91.95,81.7 91.43,82.52 90.89,83.32 90.33,84.11 89.75,84.88 89.15,85.64 
	88.52,86.38 87.88,87.11 87.21,87.81 86.53,88.5 85.83,89.18 85.11,89.83 84.37,90.47 83.61,91.08 82.84,91.68 82.05,92.25 
	81.24,92.81 80.42,93.34 79.59,93.86 78.74,94.35 77.88,94.81 77.01,95.26 76.12,95.68 75.22,96.08 74.32,96.46 73.4,96.81 
	72.47,97.14 71.53,97.44 70.59,97.72 69.64,97.98 68.68,98.21 67.71,98.41 66.74,98.59 65.77,98.75 64.79,98.88 63.81,98.98 
	62.82,99.06 61.84,99.11 60.85,99.14 59.86,99.14 58.88,99.11 57.89,99.06 56.91,98.99 55.92,98.89 54.95,98.76 53.97,98.61 
	53,98.43 52.03,98.23 51.08,98 50.12,97.75 49.18,97.47 48.24,97.17 47.31,96.84 46.39,96.49 45.48,96.12 44.58,95.72 43.7,95.3 
	48.83,86.69 49.34,86.92 49.86,87.14 50.4,87.36 50.94,87.56 51.49,87.76 52.04,87.94 52.61,88.11 53.18,88.27 53.76,88.42 
	54.35,88.56 54.95,88.69 55.55,88.8 56.16,88.9 56.77,88.99 57.39,89.06 58.01,89.12 58.64,89.17 59.27,89.2 59.9,89.21 
	60.54,89.22 61.17,89.2 61.81,89.17 62.46,89.13 63.1,89.07 63.74,89 64.38,88.91 65.02,88.81 65.66,88.69 66.29,88.56 66.92,88.41 
	67.55,88.24 68.17,88.06 68.79,87.87 69.41,87.66 70.02,87.44 70.62,87.2 71.21,86.95 71.8,86.68 72.38,86.41 72.95,86.11 
	73.52,85.81 74.07,85.49 74.61,85.17 75.15,84.83 75.67,84.48 76.18,84.12 76.69,83.74 77.18,83.36 77.66,82.97 78.12,82.57 
	78.58,82.17 79.02,81.75 79.45,81.33 79.87,80.9 80.27,80.46 80.67,80.02 81.04,79.57 81.41,79.12 81.76,78.66 82.1,78.2 
	82.43,77.74 82.75,77.27 83.05,76.8 83.34,76.33 83.61,75.85 83.88,75.36 84.14,74.87 84.38,74.38 84.61,73.88 84.84,73.37 
	85.05,72.85 85.24,72.34 85.42,71.81 85.59,71.29 85.75,70.75 85.89,70.22 86.01,69.68 86.12,69.14 86.22,68.6 86.29,68.05 
	86.36,67.51 86.4,66.96 86.43,66.41 86.44,65.86 86.43,65.32 86.41,64.77 86.37,64.22 86.31,63.68 86.24,63.14 86.14,62.6 
	86.03,62.07 85.9,61.54 85.75,61.01 85.59,60.49 85.4,59.97 85.2,59.46 84.99,58.96 84.75,58.46 84.5,57.97 84.23,57.49 
	83.95,57.01 83.65,56.55 83.33,56.09 83,55.64 82.66,55.2 82.3,54.77 81.92,54.36 81.54,53.95 81.14,53.55 80.72,53.16 80.3,52.79 
	79.86,52.42 79.41,52.07 78.96,51.73 78.49,51.4 78.01,51.08 77.52,50.77 77.03,50.48 76.53,50.19 76.02,49.92 75.5,49.67 
	74.98,49.42 74.45,49.18 73.92,48.96 73.38,48.75 72.84,48.55 72.3,48.36 "/>
<polygon fill-rule="evenodd" clip-rule="evenodd" fill="#D3D3D3" points="48.86,78.69 40.15,93.32 39.33,92.78 38.53,92.23 
	37.74,91.65 36.97,91.05 36.21,90.44 35.47,89.8 34.75,89.14 34.05,88.47 33.37,87.78 32.71,87.07 32.06,86.34 31.44,85.6 
	30.84,84.84 30.26,84.07 29.7,83.28 29.16,82.48 28.64,81.66 28.15,80.83 27.68,79.99 27.23,79.13 26.81,78.27 26.41,77.39 
	26.04,76.51 25.69,75.61 25.37,74.71 25.07,73.79 24.79,72.87 24.55,71.95 24.32,71.01 24.13,70.08 23.96,69.13 23.81,68.19 
	23.69,67.23 23.6,66.28 23.54,65.33 23.5,64.37 23.48,63.41 23.5,62.45 23.54,61.5 23.6,60.54 23.7,59.59 23.82,58.64 23.96,57.69 
	24.14,56.75 24.33,55.81 24.56,54.88 24.81,53.95 25.08,53.03 25.38,52.12 25.71,51.22 26.06,50.32 26.43,49.43 26.83,48.56 
	27.26,47.69 27.7,46.84 28.17,46 28.67,45.17 29.18,44.35 29.72,43.55 30.28,42.76 30.87,41.99 31.47,41.23 32.09,40.49 
	32.74,39.76 33.4,39.06 34.09,38.37 34.79,37.69 35.51,37.04 36.25,36.4 37.01,35.79 37.78,35.19 38.57,34.62 39.37,34.06 
	40.19,33.53 41.03,33.02 41.88,32.53 42.74,32.06 43.61,31.61 44.5,31.19 45.39,30.79 46.3,30.41 47.22,30.06 48.15,29.73 
	49.08,29.43 50.03,29.15 50.98,28.89 51.94,28.66 52.9,28.46 53.87,28.28 54.85,28.12 55.83,28 56.81,27.89 57.79,27.81 
	58.78,27.76 59.77,27.73 60.75,27.73 61.74,27.76 62.73,27.81 63.71,27.88 64.69,27.98 65.67,28.11 66.65,28.26 67.62,28.44 
	68.58,28.64 69.54,28.87 70.49,29.12 71.44,29.4 72.38,29.7 73.31,30.03 74.22,30.38 75.13,30.75 76.03,31.15 76.92,31.57 
	71.79,40.18 71.28,39.95 70.75,39.73 70.22,39.51 69.68,39.31 69.13,39.12 68.57,38.93 68.01,38.76 67.43,38.6 66.85,38.45 
	66.26,38.31 65.67,38.18 65.07,38.07 64.46,37.97 63.85,37.88 63.23,37.81 62.61,37.75 61.98,37.71 61.35,37.67 60.72,37.66 
	60.08,37.66 59.44,37.67 58.8,37.7 58.16,37.74 57.52,37.8 56.88,37.87 56.24,37.96 55.6,38.06 54.96,38.18 54.33,38.32 53.7,38.46 
	53.07,38.63 52.44,38.81 51.82,39 51.21,39.21 50.6,39.43 50,39.67 49.4,39.92 48.82,40.19 48.24,40.47 47.66,40.76 47.1,41.06 
	46.55,41.38 46,41.7 45.47,42.04 44.95,42.39 44.43,42.75 43.93,43.13 43.44,43.51 42.96,43.9 42.49,44.3 42.04,44.7 41.6,45.12 
	41.17,45.54 40.75,45.97 40.34,46.41 39.95,46.85 39.57,47.3 39.21,47.75 38.85,48.21 38.51,48.67 38.19,49.13 37.87,49.6 
	37.57,50.07 37.28,50.54 37,51.02 36.74,51.51 36.48,52 36.24,52.49 36,53 35.78,53.5 35.57,54.02 35.38,54.53 35.19,55.06 
	35.02,55.58 34.87,56.12 34.73,56.65 34.61,57.19 34.5,57.73 34.4,58.27 34.32,58.82 34.26,59.36 34.22,59.91 34.19,60.46 
	34.18,61.01 34.18,61.55 34.21,62.1 34.25,62.65 34.31,63.19 34.38,63.73 34.48,64.27 34.59,64.8 34.72,65.33 34.86,65.86 
	35.03,66.38 35.21,66.9 35.41,67.41 35.63,67.91 35.86,68.41 36.12,68.9 36.38,69.38 36.67,69.86 36.97,70.32 37.28,70.78 
	37.61,71.23 37.96,71.67 38.32,72.1 38.69,72.51 39.08,72.92 39.48,73.32 39.89,73.71 40.32,74.08 40.76,74.45 41.2,74.8 
	41.66,75.14 42.13,75.47 42.61,75.79 43.09,76.1 43.59,76.39 44.09,76.68 44.6,76.95 45.11,77.21 45.64,77.45 46.16,77.69 
	46.7,77.91 47.23,78.12 47.77,78.32 48.32,78.51 "/>
<path fill-rule="evenodd" clip-rule="evenodd" fill="#292927" d="M48.86,78.69l22.93-38.5l-0.51-0.23l-0.52-0.22l-0.53-0.21
	l-0.54-0.2l-0.55-0.19l-0.56-0.18l-0.57-0.17l-0.57-0.16l-0.58-0.15l-0.59-0.14l-0.59-0.13l-0.6-0.11l-0.61-0.1l-0.61-0.09
	l-0.62-0.07l-0.62-0.06l-0.63-0.05l-0.63-0.03l-0.63-0.02l-0.64,0l-0.64,0.01L58.8,37.7l-0.64,0.04l-0.64,0.06l-0.64,0.07
	l-0.64,0.09l-0.64,0.1l-0.64,0.12l-0.63,0.13l-0.63,0.15l-0.63,0.16l-0.62,0.18L51.82,39l-0.61,0.21l-0.61,0.22L50,39.67l-0.6,0.25
	l-0.59,0.26l-0.58,0.28l-0.57,0.29l-0.56,0.3l-0.55,0.32L46,41.7l-0.53,0.34l-0.52,0.35l-0.51,0.36l-0.5,0.37l-0.49,0.38l-0.48,0.39
	l-0.47,0.4l-0.45,0.41l-0.44,0.42l-0.43,0.42l-0.42,0.43l-0.4,0.44l-0.39,0.44l-0.38,0.45l-0.37,0.45l-0.35,0.46l-0.34,0.46
	l-0.33,0.46l-0.31,0.47l-0.3,0.47l-0.29,0.47L37,51.02l-0.27,0.48L36.48,52l-0.25,0.5L36,53l-0.22,0.51l-0.21,0.51l-0.2,0.52
	l-0.18,0.52l-0.17,0.53l-0.15,0.53l-0.14,0.53l-0.13,0.54l-0.11,0.54l-0.09,0.54l-0.08,0.54l-0.06,0.55l-0.05,0.55l-0.03,0.55
	l-0.01,0.55l0.01,0.55l0.02,0.55l0.04,0.55l0.06,0.54l0.08,0.54l0.09,0.54l0.11,0.53l0.13,0.53l0.15,0.53l0.17,0.52l0.18,0.52
	l0.2,0.51l0.22,0.5l0.23,0.5l0.25,0.49l0.27,0.48l0.28,0.47l0.3,0.47l0.32,0.46l0.33,0.45l0.35,0.44l0.36,0.43l0.37,0.42l0.39,0.41
	l0.4,0.4l0.41,0.39l0.43,0.38l0.44,0.36l0.45,0.35l0.46,0.34l0.47,0.33l0.48,0.32l0.49,0.31l0.49,0.29l0.5,0.28l0.51,0.27l0.52,0.26
	l0.52,0.25l0.53,0.24l0.53,0.22l0.54,0.21l0.54,0.2l0.54,0.19L48.86,78.69z M61.3,44.44l0.02,0.03l0.02,0.03l0.02,0.03l0.02,0.03
	l0.02,0.03l0.02,0.04l0.02,0.04l0.02,0.04l0.02,0.04l0.02,0.04l0.02,0.04l0.02,0.04l0.02,0.04l0.02,0.04l0.01,0.04l0.01,0.04
	l0.01,0.04l0.01,0.04l0.01,0.04l0.01,0.04l0.01,0.04l0.01,0.04l0.01,0.05l0.01,0.05l0.01,0.05l0.01,0.05l0.01,0.05l0,0.05l0,0.05
	l0,0.05l0,0.1l0,0.1l0,0.1l-0.01,0.11l-0.01,0.11l-0.02,0.11l-0.02,0.11l-0.02,0.11l-0.03,0.11l-0.03,0.12l-0.03,0.12l-0.04,0.12
	l-0.04,0.12l-0.05,0.12l-0.05,0.12l-0.05,0.12l-0.06,0.12L61.2,47.7l-0.06,0.12l-0.07,0.12L61,48.07l-0.07,0.12l-0.08,0.12
	l-0.08,0.12l-0.08,0.12l-0.09,0.12l-0.09,0.12l-0.18,0.24l-0.19,0.23l-0.2,0.23l-0.21,0.22l-0.22,0.22l-0.22,0.21l-0.23,0.2
	l-0.23,0.2l-0.23,0.19l-0.24,0.18l-0.24,0.17l-0.24,0.17l-0.25,0.16l-0.26,0.16l-0.26,0.15l-0.27,0.15l-0.28,0.14l-0.28,0.13
	l-0.28,0.13l-0.29,0.12l-0.29,0.11l-0.29,0.1l-0.15,0.05l-0.14,0.04l-0.14,0.04l-0.14,0.04l-0.14,0.03l-0.14,0.03l-0.14,0.03
	l-0.14,0.02l-0.14,0.02l-0.14,0.02l-0.14,0.02l-0.13,0.01l-0.13,0.01l-0.13,0.01l-0.13,0l-0.13,0l-0.12,0l-0.12-0.01l-0.12-0.01
	l-0.12-0.01l-0.11-0.02l-0.11-0.02l-0.11-0.02l-0.11-0.02l-0.1-0.03l-0.1-0.03l-0.1-0.03l-0.05-0.02l-0.05-0.02l-0.05-0.02
	L51.5,52.7l-0.04-0.02l-0.04-0.02l-0.04-0.02l-0.04-0.02l-0.04-0.02l-0.04-0.02l-0.04-0.02l-0.04-0.02l-0.04-0.02l-0.04-0.02
	l-0.04-0.03l-0.04-0.03l-0.03-0.03l-0.03-0.03l-0.03-0.03l-0.03-0.03l-0.03-0.03l-0.03-0.03l-0.03-0.03l-0.03-0.03l-0.03-0.03
	l-0.03-0.03l-0.03-0.03l-0.03-0.03l-0.03-0.03l-0.02-0.03l-0.02-0.03l-0.02-0.03l-0.02-0.03l-0.02-0.03l-0.02-0.03l-0.02-0.04
	l-0.02-0.04l-0.02-0.04l-0.02-0.04l-0.02-0.04l-0.02-0.04l-0.02-0.04l-0.02-0.04l-0.02-0.04l-0.01-0.04l-0.01-0.04l-0.01-0.04
	l-0.01-0.04l-0.01-0.04l-0.01-0.04l-0.01-0.04l-0.01-0.04l-0.01-0.05l-0.01-0.05l-0.01-0.05l-0.01-0.05l-0.01-0.05l0-0.05l0-0.05
	l0-0.05l0-0.1l0-0.1l0-0.1l0.01-0.11l0.01-0.11l0.02-0.11l0.02-0.11l0.02-0.11l0.03-0.11l0.03-0.12l0.03-0.12l0.04-0.12l0.04-0.12
	l0.05-0.12l0.05-0.12l0.05-0.12l0.06-0.12l0.06-0.12l0.06-0.12l0.07-0.12l0.07-0.12l0.07-0.12l0.08-0.12l0.08-0.12l0.08-0.12
	l0.09-0.12l0.09-0.12l0.18-0.24l0.19-0.23l0.2-0.23l0.21-0.22l0.22-0.22l0.22-0.21l0.23-0.2l0.23-0.2l0.23-0.19l0.24-0.18l0.24-0.17
	l0.24-0.17l0.25-0.16l0.26-0.16l0.26-0.15l0.27-0.15l0.28-0.14l0.28-0.13l0.28-0.13l0.29-0.12l0.29-0.11l0.29-0.1l0.15-0.05
	l0.14-0.04l0.14-0.04l0.14-0.04l0.14-0.03l0.14-0.03l0.14-0.03l0.14-0.02l0.14-0.02l0.14-0.02l0.14-0.02l0.13-0.01l0.13-0.01
	l0.13-0.01l0.13,0l0.13,0l0.12,0l0.12,0.01l0.12,0.01l0.12,0.01l0.11,0.02l0.11,0.02l0.11,0.02l0.11,0.02l0.1,0.03l0.1,0.03
	l0.1,0.03l0.05,0.02l0.05,0.02l0.05,0.02l0.05,0.02l0.04,0.02l0.04,0.02l0.04,0.02l0.04,0.02l0.04,0.02l0.04,0.02l0.04,0.02
	l0.04,0.02l0.04,0.02l0.04,0.02l0.04,0.03l0.04,0.03l0.03,0.03l0.03,0.03l0.03,0.03l0.03,0.03l0.03,0.03l0.03,0.03l0.03,0.03
	l0.03,0.03l0.03,0.03l0.03,0.03l0.03,0.03l0.03,0.03l0.03,0.03L61.3,44.44z"/>
<polygon fill-rule="evenodd" clip-rule="evenodd" fill="#292927" points="71.75,48.18 48.83,86.69 49.34,86.92 49.86,87.14 
	50.4,87.36 50.94,87.56 51.49,87.76 52.04,87.94 52.61,88.11 53.18,88.27 53.76,88.42 54.35,88.56 54.95,88.69 55.55,88.8 
	56.16,88.9 56.77,88.99 57.39,89.06 58.01,89.12 58.64,89.17 59.27,89.2 59.9,89.21 60.54,89.22 61.17,89.2 61.81,89.17 
	62.46,89.13 63.1,89.07 63.74,89 64.38,88.91 65.02,88.81 65.66,88.69 66.29,88.56 66.92,88.41 67.55,88.24 68.17,88.06 
	68.79,87.87 69.41,87.66 70.02,87.44 70.62,87.2 71.21,86.95 71.8,86.68 72.38,86.41 72.95,86.11 73.52,85.81 74.07,85.49 
	74.61,85.17 75.15,84.83 75.67,84.48 76.18,84.12 76.69,83.74 77.18,83.36 77.66,82.97 78.12,82.57 78.58,82.17 79.02,81.75 
	79.45,81.33 79.87,80.9 80.27,80.46 80.67,80.02 81.04,79.57 81.41,79.12 81.76,78.66 82.1,78.2 82.43,77.74 82.75,77.27 
	83.05,76.8 83.34,76.33 83.61,75.85 83.88,75.36 84.14,74.87 84.38,74.38 84.61,73.88 84.84,73.37 85.05,72.85 85.24,72.34 
	85.42,71.81 85.59,71.29 85.75,70.75 85.89,70.22 86.01,69.68 86.12,69.14 86.22,68.6 86.29,68.05 86.36,67.51 86.4,66.96 
	86.43,66.41 86.44,65.86 86.43,65.32 86.41,64.77 86.37,64.22 86.31,63.68 86.24,63.14 86.14,62.6 86.03,62.07 85.9,61.54 
	85.75,61.01 85.59,60.49 85.4,59.97 85.2,59.46 84.99,58.96 84.75,58.46 84.5,57.97 84.23,57.49 83.95,57.01 83.65,56.55 
	83.33,56.09 83,55.64 82.66,55.2 82.3,54.77 81.92,54.36 81.54,53.95 81.14,53.55 80.72,53.16 80.3,52.79 79.86,52.42 79.41,52.07 
	78.96,51.73 78.49,51.4 78.01,51.08 77.52,50.77 77.03,50.48 76.53,50.19 76.02,49.92 75.5,49.67 74.98,49.42 74.45,49.18 
	73.92,48.96 73.38,48.75 72.84,48.55 72.3,48.36 "/>
<polygon fill-rule="evenodd" clip-rule="evenodd" fill="#00FFFF" points="45.28,84.7 45.96,85.14 46.66,85.56 47.37,85.96 
	48.09,86.33 48.83,86.69 75.34,42.17 74.65,41.73 73.96,41.31 73.25,40.91 72.52,40.54 71.79,40.18 "/>
<polygon fill-rule="evenodd" clip-rule="evenodd" fill="#FFFFFF" points="61.3,44.44 61.32,44.47 61.34,44.51 61.37,44.54 
	61.39,44.57 61.41,44.61 61.43,44.64 61.45,44.68 61.47,44.72 61.49,44.75 61.51,44.79 61.52,44.83 61.54,44.87 61.56,44.91 
	61.57,44.95 61.59,44.99 61.6,45.03 61.61,45.07 61.63,45.11 61.64,45.15 61.65,45.2 61.66,45.24 61.67,45.29 61.68,45.33 
	61.69,45.38 61.69,45.42 61.7,45.47 61.7,45.52 61.71,45.57 61.71,45.61 61.71,45.66 61.72,45.76 61.72,45.87 61.71,45.97 
	61.7,46.07 61.69,46.18 61.68,46.29 61.66,46.4 61.63,46.51 61.61,46.63 61.58,46.74 61.54,46.86 61.51,46.98 61.46,47.1 
	61.42,47.22 61.37,47.34 61.32,47.46 61.26,47.58 61.2,47.7 61.14,47.82 61.07,47.94 61,48.07 60.92,48.19 60.85,48.31 60.77,48.43 
	60.69,48.56 60.6,48.68 60.51,48.8 60.33,49.04 60.13,49.27 59.93,49.5 59.72,49.72 59.5,49.94 59.28,50.15 59.05,50.36 
	58.82,50.55 58.58,50.74 58.35,50.92 58.11,51.1 57.87,51.26 57.62,51.42 57.37,51.58 57.1,51.74 56.83,51.89 56.56,52.03 
	56.28,52.16 55.99,52.29 55.71,52.41 55.42,52.52 55.13,52.61 54.98,52.66 54.84,52.7 54.69,52.74 54.55,52.78 54.4,52.81 
	54.26,52.84 54.12,52.87 53.98,52.9 53.84,52.92 53.7,52.94 53.56,52.95 53.43,52.96 53.3,52.97 53.17,52.98 53.04,52.98 
	52.91,52.98 52.78,52.98 52.66,52.97 52.54,52.96 52.42,52.95 52.31,52.93 52.2,52.91 52.09,52.89 51.98,52.87 51.88,52.84 
	51.78,52.81 51.68,52.77 51.63,52.76 51.59,52.74 51.54,52.72 51.5,52.7 51.45,52.68 51.41,52.66 51.37,52.64 51.32,52.62 
	51.28,52.6 51.24,52.57 51.2,52.55 51.17,52.53 51.13,52.5 51.09,52.48 51.05,52.45 51.02,52.43 50.98,52.4 50.95,52.37 
	50.92,52.35 50.89,52.32 50.85,52.29 50.82,52.26 50.79,52.23 50.77,52.2 50.74,52.17 50.71,52.14 50.68,52.11 50.66,52.08 
	50.63,52.05 50.61,52.02 50.59,51.99 50.56,51.95 50.54,51.92 50.52,51.89 50.5,51.85 50.48,51.82 50.46,51.78 50.44,51.75 
	50.42,51.71 50.4,51.67 50.38,51.63 50.37,51.6 50.35,51.56 50.33,51.52 50.32,51.48 50.3,51.43 50.29,51.39 50.28,51.35 
	50.27,51.31 50.26,51.26 50.25,51.22 50.24,51.18 50.23,51.13 50.22,51.09 50.21,51.04 50.21,50.99 50.2,50.94 50.2,50.9 
	50.19,50.85 50.19,50.8 50.19,50.7 50.19,50.6 50.19,50.49 50.2,50.39 50.21,50.28 50.23,50.17 50.25,50.06 50.27,49.95 50.3,49.83 
	50.33,49.72 50.36,49.6 50.4,49.49 50.44,49.37 50.49,49.25 50.54,49.13 50.59,49.01 50.65,48.88 50.71,48.76 50.77,48.64 
	50.84,48.52 50.91,48.4 50.98,48.27 51.06,48.15 51.14,48.03 51.22,47.91 51.31,47.79 51.4,47.67 51.58,47.43 51.77,47.19 
	51.98,46.96 52.19,46.74 52.41,46.52 52.63,46.31 52.86,46.1 53.09,45.91 53.32,45.72 53.56,45.54 53.79,45.37 54.03,45.2 
	54.28,45.04 54.54,44.88 54.8,44.73 55.07,44.58 55.35,44.44 55.63,44.3 55.91,44.17 56.2,44.06 56.49,43.95 56.78,43.85 
	56.93,43.8 57.07,43.76 57.21,43.72 57.36,43.68 57.5,43.65 57.65,43.62 57.79,43.59 57.93,43.57 58.07,43.55 58.21,43.53 
	58.34,43.51 58.48,43.5 58.61,43.49 58.74,43.48 58.87,43.48 59,43.48 59.12,43.49 59.24,43.49 59.36,43.5 59.48,43.52 59.6,43.53 
	59.71,43.55 59.82,43.57 59.92,43.6 60.03,43.62 60.13,43.65 60.22,43.69 60.27,43.7 60.32,43.72 60.36,43.74 60.41,43.76 
	60.45,43.78 60.5,43.8 60.54,43.82 60.58,43.84 60.62,43.87 60.66,43.89 60.7,43.91 60.74,43.94 60.78,43.96 60.82,43.99 
	60.85,44.01 60.89,44.04 60.92,44.06 60.96,44.09 60.99,44.12 61.02,44.14 61.05,44.17 61.08,44.2 61.11,44.23 61.14,44.26 
	61.17,44.29 61.2,44.32 61.22,44.35 61.25,44.38 61.27,44.41 "/>
<polygon fill-rule="evenodd" clip-rule="evenodd" fill="#292927" points="118.82,93.04 118.82,72.48 122.45,72.48 122.45,90.01 
	132.72,90.01 132.72,93.04 "/>
<polygon fill-rule="evenodd" clip-rule="evenodd" fill="#292927" points="366.88,93.04 366.88,72.48 383.18,72.48 383.18,75.51 
	370.51,75.51 370.51,80.99 382.31,80.99 382.31,83.99 370.51,83.99 370.51,90.01 383.77,90.01 383.77,93.04 "/>
<polygon fill-rule="evenodd" clip-rule="evenodd" fill="#292927" points="307.27,78.42 307.07,77.93 306.88,77.42 306.48,76.3 
	306.12,77.3 305.69,78.44 299.81,93.04 296,93.04 304.66,72.48 308.37,72.48 316.89,93.04 313.13,93.04 310.81,87.27 303.44,87.27 
	304.62,84.34 309.65,84.34 "/>
<polygon fill-rule="evenodd" clip-rule="evenodd" fill="#292927" points="233.33,78.24 235.91,73.91 236.22,74.12 236.53,74.34 
	236.83,74.56 237.12,74.8 237.4,75.05 237.67,75.3 237.93,75.57 238.19,75.84 238.43,76.13 238.66,76.42 238.89,76.71 239.1,77.02 
	239.3,77.33 239.49,77.65 239.66,77.98 239.83,78.31 239.98,78.64 240.12,78.99 240.25,79.33 240.37,79.68 240.47,80.04 
	240.57,80.39 240.64,80.75 240.71,81.12 240.76,81.48 240.8,81.85 240.83,82.21 240.84,82.58 240.84,82.95 240.82,83.32 
	240.8,83.68 240.76,84.05 240.71,84.41 240.64,84.78 240.56,85.14 240.47,85.49 240.36,85.85 240.25,86.2 240.12,86.54 
	239.97,86.88 239.82,87.22 239.65,87.55 239.47,87.87 239.28,88.19 239.08,88.51 238.87,88.81 238.65,89.11 238.41,89.4 
	238.17,89.68 237.92,89.95 237.65,90.22 237.38,90.47 237.1,90.72 236.81,90.96 236.51,91.18 236.2,91.4 235.89,91.61 235.57,91.8 
	235.24,91.99 234.9,92.16 234.56,92.32 234.22,92.47 233.86,92.61 233.51,92.74 233.15,92.85 232.78,92.95 232.41,93.04 
	232.04,93.12 231.67,93.18 231.29,93.24 230.92,93.27 230.54,93.3 230.16,93.32 229.78,93.32 229.4,93.3 229.02,93.28 228.64,93.24 
	228.27,93.19 227.89,93.13 227.52,93.05 227.15,92.96 226.79,92.86 226.43,92.75 226.07,92.63 225.72,92.49 225.37,92.34 
	225.03,92.18 226.55,89.63 226.7,89.7 226.85,89.77 227.01,89.83 227.17,89.89 227.33,89.95 227.5,90 227.67,90.05 227.84,90.1 
	228.01,90.15 228.18,90.19 228.36,90.22 228.54,90.26 228.72,90.29 228.9,90.31 229.08,90.33 229.26,90.35 229.45,90.37 
	229.64,90.37 229.82,90.38 230.01,90.38 230.2,90.38 230.39,90.37 230.58,90.36 230.77,90.34 230.96,90.32 231.15,90.29 
	231.34,90.26 231.53,90.22 231.71,90.19 231.9,90.14 232.09,90.09 232.27,90.04 232.46,89.98 232.64,89.92 232.82,89.85 233,89.78 
	233.17,89.71 233.35,89.63 233.52,89.55 233.69,89.46 233.85,89.37 234.02,89.28 234.18,89.18 234.34,89.08 234.49,88.98 
	234.64,88.87 234.79,88.76 234.94,88.65 235.08,88.53 235.22,88.42 235.35,88.3 235.48,88.17 235.61,88.05 235.73,87.92 
	235.85,87.79 235.97,87.66 236.08,87.53 236.19,87.39 236.29,87.26 236.39,87.12 236.49,86.98 236.58,86.85 236.67,86.71 
	236.76,86.57 236.84,86.43 236.92,86.28 237,86.14 237.07,85.99 237.14,85.84 237.2,85.69 237.26,85.54 237.32,85.39 237.38,85.23 
	237.43,85.08 237.47,84.92 237.51,84.76 237.55,84.6 237.58,84.44 237.61,84.28 237.63,84.12 237.65,83.96 237.67,83.8 
	237.67,83.63 237.68,83.47 237.68,83.31 237.67,83.15 237.66,82.99 237.64,82.83 237.62,82.67 237.59,82.51 237.56,82.35 
	237.52,82.19 237.47,82.04 237.42,81.88 237.37,81.73 237.31,81.58 237.25,81.43 237.18,81.28 237.1,81.14 237.02,80.99 
	236.94,80.85 236.85,80.72 236.76,80.58 236.66,80.45 236.56,80.32 236.45,80.19 236.34,80.07 236.23,79.95 236.11,79.83 
	235.99,79.71 235.86,79.6 235.73,79.49 235.6,79.39 235.46,79.29 235.32,79.19 235.18,79.1 235.04,79.01 234.89,78.92 234.74,78.84 
	234.59,78.76 234.44,78.68 234.29,78.61 234.13,78.54 233.97,78.47 233.81,78.41 233.65,78.35 233.49,78.29 "/>
<polygon fill-rule="evenodd" clip-rule="evenodd" fill="#292927" points="226.56,87.27 223.98,91.59 223.67,91.39 223.36,91.17 
	223.06,90.94 222.77,90.71 222.49,90.46 222.22,90.2 221.96,89.94 221.7,89.66 221.46,89.38 221.23,89.09 221.01,88.79 
	220.79,88.49 220.59,88.17 220.4,87.85 220.23,87.53 220.06,87.2 219.91,86.86 219.77,86.52 219.64,86.17 219.52,85.82 
	219.42,85.47 219.33,85.11 219.25,84.75 219.18,84.39 219.13,84.03 219.09,83.66 219.06,83.29 219.05,82.93 219.05,82.56 
	219.07,82.19 219.09,81.82 219.13,81.46 219.19,81.09 219.25,80.73 219.33,80.37 219.42,80.01 219.53,79.66 219.65,79.31 
	219.78,78.96 219.92,78.62 220.07,78.29 220.24,77.96 220.42,77.63 220.61,77.31 220.81,77 221.02,76.7 221.24,76.4 221.48,76.11 
	221.72,75.83 221.97,75.55 222.24,75.29 222.51,75.03 222.79,74.79 223.08,74.55 223.38,74.32 223.69,74.11 224,73.9 224.32,73.7 
	224.65,73.52 224.99,73.35 225.33,73.18 225.67,73.03 226.03,72.9 226.38,72.77 226.74,72.66 227.11,72.55 227.48,72.46 
	227.85,72.39 228.22,72.32 228.6,72.27 228.97,72.23 229.35,72.2 229.73,72.19 230.11,72.19 230.49,72.2 230.87,72.23 231.25,72.26 
	231.62,72.31 232,72.38 232.37,72.45 232.74,72.54 233.1,72.64 233.46,72.75 233.82,72.88 234.17,73.02 234.52,73.16 234.86,73.32 
	233.34,75.87 233.19,75.8 233.04,75.74 232.88,75.68 232.72,75.61 232.56,75.56 232.39,75.5 232.22,75.45 232.05,75.4 231.88,75.36 
	231.71,75.32 231.53,75.28 231.35,75.25 231.17,75.22 230.99,75.19 230.81,75.17 230.63,75.15 230.44,75.14 230.25,75.13 
	230.07,75.13 229.88,75.13 229.69,75.13 229.5,75.14 229.31,75.15 229.12,75.17 228.93,75.19 228.74,75.22 228.55,75.25 
	228.36,75.28 228.18,75.32 227.99,75.37 227.8,75.41 227.62,75.47 227.43,75.52 227.25,75.59 227.07,75.65 226.89,75.72 
	226.72,75.8 226.54,75.87 226.37,75.96 226.2,76.04 226.04,76.13 225.87,76.23 225.71,76.32 225.55,76.42 225.4,76.53 225.25,76.63 
	225.1,76.74 224.95,76.86 224.81,76.97 224.67,77.09 224.54,77.21 224.41,77.33 224.28,77.46 224.16,77.59 224.04,77.72 
	223.92,77.85 223.81,77.98 223.7,78.11 223.6,78.25 223.5,78.38 223.4,78.52 223.31,78.66 223.22,78.8 223.13,78.94 223.05,79.08 
	222.97,79.22 222.9,79.37 222.82,79.52 222.75,79.66 222.69,79.81 222.63,79.97 222.57,80.12 222.51,80.27 222.46,80.43 
	222.42,80.59 222.38,80.75 222.34,80.9 222.31,81.06 222.28,81.23 222.26,81.39 222.24,81.55 222.23,81.71 222.22,81.87 
	222.21,82.03 222.22,82.2 222.22,82.36 222.23,82.52 222.25,82.68 222.27,82.84 222.3,83 222.34,83.16 222.37,83.31 222.42,83.47 
	222.47,83.62 222.52,83.78 222.58,83.93 222.64,84.08 222.71,84.22 222.79,84.37 222.87,84.51 222.95,84.65 223.04,84.79 
	223.13,84.93 223.23,85.06 223.33,85.19 223.44,85.32 223.55,85.44 223.66,85.56 223.78,85.68 223.91,85.79 224.03,85.9 
	224.16,86.01 224.29,86.12 224.43,86.22 224.57,86.31 224.71,86.41 224.85,86.5 225,86.59 225.15,86.67 225.3,86.75 225.45,86.83 
	225.6,86.9 225.76,86.97 225.92,87.04 226.08,87.1 226.24,87.16 226.4,87.21 "/>
<polygon fill-rule="evenodd" clip-rule="evenodd" fill="#292927" points="157.44,93.32 157.92,93.31 158.16,93.3 158.4,93.29 
	158.64,93.27 158.88,93.24 159.12,93.22 159.36,93.18 159.58,93.15 159.8,93.11 160.02,93.07 160.24,93.02 160.45,92.97 
	160.67,92.91 160.88,92.85 161.09,92.78 161.29,92.71 161.49,92.64 161.69,92.56 161.88,92.48 162.07,92.39 162.26,92.3 
	162.45,92.2 162.63,92.1 162.81,92 162.98,91.89 163.15,91.78 163.31,91.67 163.48,91.55 163.64,91.43 163.79,91.3 163.94,91.17 
	164.09,91.03 164.23,90.89 164.37,90.75 164.5,90.61 164.63,90.46 164.76,90.3 164.88,90.15 164.99,89.99 165.11,89.82 
	165.22,89.65 165.32,89.48 165.42,89.31 165.51,89.13 165.61,88.95 165.69,88.76 165.77,88.58 165.85,88.38 165.92,88.19 
	165.98,87.99 166.05,87.79 166.1,87.59 166.15,87.38 166.2,87.18 166.24,86.98 166.27,86.76 166.31,86.54 166.33,86.31 
	166.35,86.09 166.37,85.87 166.38,85.65 166.39,85.42 166.39,85.2 166.39,72.48 162.78,72.48 162.78,85.05 162.77,85.36 
	162.77,85.52 162.76,85.67 162.74,85.83 162.73,85.98 162.71,86.14 162.69,86.29 162.66,86.43 162.64,86.56 162.61,86.7 
	162.58,86.83 162.55,86.96 162.51,87.1 162.47,87.23 162.42,87.36 162.38,87.47 162.33,87.59 162.28,87.7 162.23,87.81 
	162.17,87.93 162.12,88.03 162.05,88.14 161.99,88.25 161.92,88.35 161.85,88.44 161.78,88.54 161.71,88.63 161.63,88.72 
	161.55,88.81 161.47,88.89 161.39,88.98 161.3,89.06 161.21,89.14 161.12,89.21 161.02,89.29 160.93,89.36 160.83,89.42 
	160.73,89.49 160.63,89.55 160.52,89.61 160.41,89.67 160.3,89.73 160.18,89.78 160.07,89.83 159.96,89.88 159.84,89.92 
	159.72,89.97 159.59,90.01 159.46,90.05 159.33,90.08 159.19,90.12 159.06,90.15 158.93,90.17 158.79,90.2 158.66,90.22 
	158.5,90.24 158.35,90.26 158.2,90.27 158.04,90.28 157.89,90.29 157.74,90.3 157.43,90.3 157.13,90.3 156.98,90.29 156.83,90.28 
	156.68,90.27 156.53,90.26 156.39,90.24 156.24,90.22 156.11,90.2 155.98,90.18 155.85,90.15 155.72,90.12 155.6,90.09 
	155.47,90.06 155.34,90.02 155.22,89.98 155.11,89.94 155,89.9 154.89,89.85 154.78,89.8 154.67,89.75 154.57,89.7 154.46,89.64 
	154.36,89.58 154.27,89.52 154.17,89.46 154.08,89.39 153.99,89.33 153.91,89.26 153.82,89.18 153.74,89.11 153.66,89.03 
	153.58,88.95 153.5,88.87 153.43,88.78 153.36,88.7 153.29,88.61 153.22,88.52 153.16,88.42 153.1,88.33 153.04,88.23 152.98,88.12 
	152.93,88.02 152.88,87.91 152.83,87.8 152.78,87.69 152.74,87.58 152.7,87.47 152.66,87.34 152.62,87.22 152.58,87.09 
	152.55,86.96 152.52,86.83 152.5,86.7 152.47,86.57 152.45,86.44 152.43,86.29 152.41,86.14 152.4,85.99 152.39,85.83 152.37,85.53 
	152.37,85.23 152.37,72.48 148.74,72.48 148.74,85.45 148.74,85.67 148.75,85.89 148.76,86.1 148.78,86.32 148.8,86.54 
	148.82,86.75 148.86,86.97 148.89,87.18 148.93,87.38 148.98,87.58 149.02,87.77 149.08,87.97 149.14,88.16 149.2,88.35 
	149.27,88.54 149.35,88.73 149.43,88.91 149.51,89.09 149.6,89.27 149.69,89.44 149.79,89.61 149.89,89.78 150,89.94 150.11,90.1 
	150.23,90.26 150.34,90.41 150.47,90.56 150.59,90.7 150.72,90.84 150.86,90.98 151,91.11 151.14,91.24 151.29,91.37 151.44,91.49 
	151.59,91.61 151.75,91.73 151.91,91.84 152.08,91.95 152.25,92.05 152.42,92.15 152.6,92.24 152.78,92.34 152.96,92.42 
	153.15,92.51 153.34,92.59 153.53,92.66 153.72,92.73 153.92,92.8 154.12,92.86 154.33,92.92 154.54,92.98 154.75,93.03 
	154.96,93.08 155.17,93.12 155.38,93.15 155.59,93.19 155.82,93.22 156.05,93.25 156.29,93.27 156.52,93.29 156.75,93.3 
	156.98,93.31 "/>
<polygon fill-rule="evenodd" clip-rule="evenodd" fill="#292927" points="182.91,82.67 182.92,83.15 182.94,83.64 182.98,84.12 
	183.03,84.6 183.1,85.05 183.14,85.28 183.19,85.5 183.23,85.72 183.29,85.94 183.34,86.16 183.4,86.38 183.47,86.59 183.53,86.8 
	183.61,87 183.68,87.21 183.76,87.41 183.84,87.61 183.93,87.81 184.02,88 184.12,88.19 184.22,88.38 184.32,88.56 184.42,88.75 
	184.53,88.93 184.65,89.1 184.77,89.28 184.89,89.45 185.01,89.62 185.14,89.78 185.27,89.94 185.41,90.09 185.54,90.24 
	185.69,90.39 185.83,90.54 185.98,90.68 186.14,90.82 186.29,90.96 186.45,91.09 186.61,91.22 186.78,91.34 186.95,91.46 
	187.12,91.58 187.3,91.69 187.48,91.81 187.66,91.91 187.85,92.02 188.04,92.12 188.23,92.21 188.43,92.3 188.62,92.39 
	188.82,92.47 189.03,92.55 189.24,92.63 189.45,92.7 189.66,92.77 189.88,92.83 190.09,92.89 190.31,92.95 190.52,93 190.75,93.05 
	190.99,93.09 191.22,93.13 191.45,93.17 191.69,93.2 191.92,93.23 192.39,93.27 192.89,93.3 193.39,93.32 193.84,93.32 194.29,93.3 
	194.71,93.28 195.14,93.25 195.56,93.2 195.98,93.14 196.39,93.08 196.79,93 197.2,92.91 197.6,92.81 197.99,92.7 198.37,92.58 
	198.75,92.44 199.13,92.3 199.49,92.15 199.85,91.99 200.2,91.81 200.55,91.63 200.88,91.44 201.2,91.24 201.51,91.03 201.67,90.92 
	201.82,90.81 202.12,90.59 202.26,90.47 202.4,90.35 202.54,90.23 202.68,90.1 202.81,89.98 202.95,89.85 203.07,89.72 
	203.07,82.33 193.59,82.33 193.59,85.41 199.66,85.41 199.66,88.36 199.56,88.45 199.45,88.54 199.35,88.62 199.24,88.7 
	199.13,88.78 199.02,88.85 198.9,88.93 198.79,89 198.66,89.07 198.53,89.15 198.4,89.22 198.26,89.29 198.13,89.35 197.99,89.41 
	197.86,89.47 197.72,89.53 197.57,89.59 197.42,89.65 197.11,89.76 196.94,89.81 196.77,89.86 196.6,89.91 196.43,89.96 196.25,90 
	196.07,90.04 195.89,90.08 195.72,90.12 195.36,90.18 194.99,90.22 194.62,90.26 194.24,90.29 193.86,90.3 193.49,90.3 
	193.16,90.29 192.84,90.28 192.68,90.26 192.52,90.25 192.36,90.23 192.2,90.21 192.06,90.18 191.91,90.16 191.77,90.13 
	191.62,90.1 191.48,90.06 191.33,90.02 191.19,89.98 191.05,89.94 190.92,89.9 190.79,89.85 190.66,89.8 190.53,89.75 190.4,89.69 
	190.28,89.64 190.15,89.58 190.03,89.51 189.91,89.45 189.79,89.38 189.68,89.31 189.56,89.24 189.45,89.16 189.34,89.08 189.23,89 
	189.12,88.92 189.02,88.83 188.91,88.74 188.81,88.65 188.71,88.56 188.61,88.46 188.52,88.36 188.43,88.26 188.34,88.16 
	188.24,88.05 188.16,87.94 188.07,87.83 187.99,87.72 187.91,87.6 187.83,87.49 187.75,87.37 187.68,87.25 187.61,87.13 187.54,87 
	187.47,86.88 187.41,86.75 187.35,86.62 187.29,86.49 187.23,86.36 187.18,86.22 187.13,86.08 187.07,85.94 187.03,85.79 
	186.98,85.65 186.94,85.5 186.9,85.36 186.83,85.06 186.79,84.9 186.76,84.74 186.71,84.41 186.66,84.09 186.63,83.76 186.6,83.41 
	186.59,83.06 186.58,82.7 186.59,82.33 186.6,81.99 186.62,81.64 186.65,81.3 186.69,80.96 186.74,80.65 186.8,80.34 186.87,80.03 
	186.91,79.88 186.95,79.73 186.99,79.59 187.03,79.45 187.08,79.32 187.13,79.18 187.18,79.05 187.23,78.91 187.29,78.78 
	187.35,78.65 187.4,78.53 187.46,78.4 187.53,78.28 187.59,78.17 187.66,78.05 187.73,77.93 187.81,77.82 187.88,77.71 187.96,77.6 
	188.04,77.5 188.12,77.39 188.2,77.29 188.29,77.19 188.37,77.09 188.46,77 188.56,76.9 188.65,76.81 188.74,76.73 188.84,76.64 
	188.94,76.56 189.04,76.48 189.15,76.4 189.25,76.33 189.36,76.26 189.47,76.18 189.58,76.12 189.7,76.05 189.81,75.99 
	189.93,75.93 190.05,75.87 190.17,75.82 190.29,75.76 190.42,75.71 190.54,75.66 190.67,75.62 190.8,75.58 190.94,75.53 
	191.08,75.5 191.22,75.46 191.36,75.43 191.51,75.39 191.66,75.37 191.81,75.34 191.96,75.32 192.11,75.29 192.26,75.28 
	192.57,75.25 192.9,75.23 193.23,75.22 193.44,75.22 193.64,75.22 193.85,75.22 194.05,75.23 194.25,75.25 194.44,75.26 
	194.64,75.28 194.83,75.31 195.02,75.34 195.22,75.37 195.41,75.41 195.6,75.45 195.76,75.49 195.93,75.53 196.09,75.58 
	196.26,75.64 196.42,75.69 196.57,75.76 196.73,75.82 196.89,75.89 197.04,75.97 197.11,76.01 197.19,76.05 197.26,76.09 
	197.33,76.14 197.4,76.18 197.48,76.23 197.54,76.28 197.61,76.32 197.67,76.37 197.73,76.42 197.86,76.52 197.98,76.62 
	198.09,76.73 198.2,76.84 198.31,76.95 198.42,77.07 198.53,77.2 198.63,77.33 198.73,77.47 198.83,77.61 198.92,77.76 199.01,77.9 
	199.09,78.05 199.17,78.2 199.34,78.52 199.69,78.42 202.79,77.52 202.59,77.08 202.46,76.81 202.32,76.55 202.17,76.29 
	202.02,76.03 201.86,75.8 201.7,75.56 201.52,75.33 201.44,75.22 201.34,75.11 201.25,75.01 201.16,74.9 201.07,74.8 200.97,74.7 
	200.87,74.6 200.77,74.51 200.67,74.41 200.57,74.32 200.47,74.23 200.36,74.14 200.25,74.06 200.15,73.97 200.03,73.89 
	199.92,73.81 199.81,73.74 199.69,73.66 199.58,73.59 199.46,73.52 199.34,73.45 199.22,73.38 198.99,73.26 198.75,73.15 
	198.51,73.05 198.27,72.95 197.99,72.85 197.71,72.75 197.42,72.67 197.13,72.59 196.82,72.52 196.51,72.45 196.19,72.4 
	195.88,72.35 195.54,72.3 195.2,72.27 194.85,72.24 194.51,72.22 194.15,72.2 193.78,72.19 193.15,72.19 192.65,72.21 192.14,72.24 
	191.88,72.26 191.63,72.29 191.38,72.32 191.12,72.36 190.89,72.4 190.66,72.44 190.43,72.49 190.2,72.54 189.97,72.59 
	189.74,72.65 189.52,72.72 189.29,72.79 189.08,72.86 188.87,72.94 188.66,73.02 188.46,73.1 188.25,73.19 188.05,73.28 
	187.85,73.38 187.66,73.49 187.47,73.59 187.28,73.7 187.1,73.82 186.92,73.93 186.74,74.06 186.57,74.18 186.4,74.32 186.23,74.45 
	186.07,74.59 185.91,74.73 185.76,74.88 185.6,75.03 185.46,75.19 185.31,75.35 185.17,75.51 185.04,75.67 184.9,75.84 
	184.78,76.02 184.65,76.19 184.53,76.37 184.42,76.55 184.31,76.74 184.2,76.93 184.1,77.12 184,77.32 183.91,77.52 183.82,77.72 
	183.73,77.93 183.65,78.13 183.58,78.34 183.5,78.56 183.44,78.77 183.37,79 183.31,79.22 183.25,79.45 183.2,79.69 183.16,79.92 
	183.11,80.15 183.08,80.38 183.04,80.62 183.01,80.87 182.98,81.13 182.94,81.64 182.92,82.16 "/>
<polygon fill-rule="evenodd" clip-rule="evenodd" fill="#292927" points="269.65,80.21 273.26,93.04 277.21,93.04 283.45,72.48 
	279.67,72.48 279.58,72.79 275.63,86.62 275.52,87.06 275.19,88.41 274.33,85.07 270.7,72.48 267.4,72.48 267.31,72.79 
	263.42,86.37 263.31,86.81 262.93,88.34 262.15,85.31 258.41,72.48 254.63,72.48 260.87,93.04 264.82,93.04 264.91,92.73 
	268.73,79.15 268.85,78.69 269.05,77.84 269.22,78.55 269.45,79.49 "/>
<polygon fill-rule="evenodd" clip-rule="evenodd" fill="#292927" points="335.55,84.85 335.55,81.9 335.55,75.47 335.55,72.48 
	331.92,72.48 331.92,93.04 335.55,93.04 "/>
<polygon fill-rule="evenodd" clip-rule="evenodd" fill="#292927" points="344.84,84.41 345.04,84.36 345.24,84.3 345.44,84.23 
	345.64,84.16 345.84,84.09 346.03,84.01 346.22,83.92 346.4,83.83 346.52,83.76 346.64,83.7 346.76,83.63 346.88,83.56 
	346.99,83.48 347.1,83.41 347.21,83.33 347.32,83.24 347.42,83.16 347.53,83.07 347.63,82.99 347.73,82.9 347.82,82.8 347.92,82.71 
	348.01,82.61 348.1,82.51 348.19,82.41 348.27,82.31 348.35,82.2 348.43,82.1 348.51,81.99 348.58,81.88 348.66,81.77 348.72,81.65 
	348.79,81.54 348.85,81.42 348.91,81.31 348.97,81.19 349.03,81.07 349.08,80.95 349.13,80.83 349.17,80.7 349.21,80.58 
	349.26,80.45 349.29,80.32 349.33,80.19 349.36,80.06 349.39,79.93 349.41,79.8 349.44,79.66 349.46,79.52 349.48,79.38 
	349.49,79.24 349.5,79.1 349.51,78.96 349.52,78.82 349.52,78.68 349.53,78.54 349.52,78.37 349.52,78.21 349.51,78.04 349.5,77.87 
	349.48,77.7 349.46,77.54 349.43,77.37 349.4,77.21 349.37,77.05 349.33,76.9 349.29,76.75 349.25,76.6 349.2,76.45 349.14,76.3 
	349.08,76.15 349.02,76.01 348.96,75.87 348.89,75.73 348.81,75.6 348.74,75.46 348.65,75.33 348.57,75.21 348.48,75.08 
	348.38,74.96 348.29,74.84 348.18,74.72 348.08,74.6 347.97,74.49 347.85,74.38 347.74,74.27 347.62,74.17 347.5,74.07 
	347.37,73.97 347.24,73.87 347.1,73.78 346.96,73.69 346.82,73.6 346.68,73.52 346.53,73.44 346.39,73.37 346.23,73.29 
	346.07,73.22 345.91,73.15 345.75,73.09 345.58,73.03 345.42,72.97 345.25,72.92 345.08,72.87 344.9,72.82 344.72,72.78 
	344.53,72.74 344.34,72.7 344.16,72.66 343.97,72.63 343.59,72.58 343.38,72.56 343.18,72.54 342.76,72.51 342.34,72.49 
	341.92,72.48 336.76,72.48 336.76,75.47 341.65,75.47 341.9,75.47 342.15,75.48 342.41,75.5 342.66,75.52 342.88,75.55 343.1,75.59 
	343.21,75.61 343.32,75.63 343.42,75.65 343.53,75.68 343.63,75.7 343.72,75.73 343.81,75.76 343.9,75.79 343.99,75.82 
	344.08,75.86 344.17,75.9 344.26,75.93 344.34,75.97 344.41,76.01 344.49,76.05 344.56,76.09 344.64,76.14 344.71,76.18 
	344.78,76.23 344.85,76.28 344.91,76.33 344.97,76.38 345.03,76.43 345.09,76.48 345.14,76.54 345.2,76.59 345.25,76.65 
	345.3,76.71 345.35,76.77 345.39,76.83 345.44,76.9 345.48,76.96 345.52,77.02 345.55,77.09 345.59,77.16 345.62,77.23 345.65,77.3 
	345.68,77.38 345.71,77.45 345.74,77.53 345.76,77.61 345.78,77.68 345.8,77.76 345.82,77.84 345.83,77.93 345.85,78.02 
	345.86,78.11 345.87,78.2 345.87,78.3 345.88,78.39 345.88,78.48 345.88,78.57 345.88,78.67 345.88,78.76 345.87,78.86 
	345.87,78.95 345.86,79.05 345.85,79.14 345.83,79.24 345.82,79.33 345.8,79.42 345.78,79.5 345.76,79.58 345.74,79.67 
	345.71,79.75 345.68,79.83 345.65,79.91 345.62,79.99 345.59,80.06 345.55,80.13 345.51,80.2 345.48,80.27 345.43,80.34 
	345.39,80.41 345.35,80.48 345.3,80.54 345.25,80.61 345.2,80.67 345.14,80.73 345.09,80.79 345.03,80.85 344.97,80.9 344.91,80.96 
	344.85,81.01 344.78,81.07 344.71,81.12 344.64,81.17 344.57,81.22 344.49,81.26 344.42,81.31 344.34,81.35 344.27,81.39 
	344.18,81.43 344.1,81.47 344.01,81.51 343.92,81.55 343.84,81.58 343.75,81.61 343.66,81.64 343.57,81.67 343.46,81.7 
	343.36,81.72 343.26,81.75 343.15,81.77 343.05,81.79 342.94,81.81 342.84,81.82 342.73,81.84 342.61,81.85 342.49,81.87 
	342.25,81.88 342,81.89 341.76,81.9 336.76,81.9 336.76,84.85 341.2,84.85 346.48,93.04 350.71,93.04 "/>
<path fill="#019687" d="M127.17,63.41c-2.26,0-4.26-0.49-6-1.46c-1.74-0.97-3.12-2.31-4.12-4.02c-1-1.7-1.51-3.64-1.51-5.8
	c0-2.19,0.5-4.14,1.51-5.84c1-1.7,2.38-3.04,4.12-4.02c1.74-0.97,3.74-1.46,6-1.46c2.23,0,4.21,0.49,5.94,1.46
	c1.73,0.97,3.1,2.31,4.1,4.02c1,1.7,1.52,3.65,1.55,5.84c0,2.16-0.5,4.1-1.51,5.8c-1,1.7-2.38,3.04-4.12,4.02
	C131.39,62.92,129.4,63.41,127.17,63.41z M127.17,60.33c1.56,0,2.96-0.36,4.18-1.08c1.23-0.72,2.19-1.69,2.89-2.92
	c0.7-1.23,1.05-2.63,1.05-4.2c0-1.57-0.35-2.97-1.05-4.22c-0.7-1.24-1.66-2.22-2.89-2.94c-1.23-0.72-2.62-1.07-4.18-1.07
	c-1.56,0-2.96,0.36-4.21,1.07c-1.24,0.72-2.22,1.7-2.93,2.94c-0.71,1.24-1.07,2.65-1.07,4.22c0,1.57,0.36,2.97,1.07,4.2
	s1.69,2.2,2.93,2.92C124.21,59.97,125.61,60.33,127.17,60.33z"/>
<path fill="#019687" d="M146.8,63.21c-0.56,0-0.99-0.15-1.3-0.45c-0.31-0.3-0.46-0.72-0.46-1.26V42.72c0-0.54,0.15-0.96,0.46-1.26
	c0.31-0.3,0.74-0.45,1.3-0.45c0.56,0,0.98,0.15,1.28,0.45c0.29,0.3,0.44,0.72,0.44,1.26V61.5c0,0.54-0.15,0.96-0.44,1.26
	C147.78,63.06,147.35,63.21,146.8,63.21z M146.59,49.46c0.06-1.65,0.5-3.13,1.32-4.44c0.82-1.31,1.91-2.35,3.26-3.1
	c1.35-0.76,2.84-1.14,4.46-1.14c1.42,0,2.5,0.2,3.24,0.61c0.74,0.41,1.01,0.96,0.82,1.66c-0.08,0.38-0.26,0.65-0.52,0.81
	c-0.27,0.16-0.57,0.24-0.92,0.24c-0.35,0-0.75-0.03-1.19-0.08c-1.65-0.19-3.1-0.09-4.37,0.3c-1.27,0.39-2.28,1.03-3.03,1.93
	c-0.75,0.89-1.13,1.96-1.13,3.21H146.59z"/>
<path fill="#019687" d="M173.15,63.41c-2.2,0-4.17-0.49-5.9-1.48c-1.73-0.99-3.09-2.33-4.08-4.04c-0.99-1.7-1.49-3.62-1.49-5.76
	c0-2.16,0.48-4.1,1.44-5.8s2.27-3.05,3.93-4.04c1.66-0.99,3.58-1.48,5.75-1.48c1.67,0,3.22,0.32,4.64,0.95
	c1.42,0.64,2.68,1.59,3.77,2.86c0.33,0.38,0.45,0.76,0.36,1.16c-0.1,0.39-0.36,0.74-0.77,1.03c-0.33,0.22-0.71,0.29-1.11,0.22
	c-0.4-0.07-0.77-0.28-1.11-0.63c-1.53-1.68-3.46-2.51-5.77-2.51c-1.53,0-2.88,0.35-4.04,1.05c-1.16,0.7-2.06,1.67-2.7,2.9
	c-0.64,1.23-0.96,2.66-0.96,4.28c0,1.57,0.34,2.97,1.02,4.2s1.63,2.2,2.85,2.92s2.6,1.08,4.16,1.08c1.06,0,2.01-0.14,2.87-0.41
	c0.85-0.27,1.61-0.69,2.28-1.26c0.39-0.3,0.78-0.46,1.17-0.49c0.39-0.03,0.75,0.08,1.09,0.32c0.36,0.33,0.57,0.69,0.63,1.1
	c0.06,0.41-0.08,0.77-0.42,1.09C178.73,62.5,176.19,63.41,173.15,63.41z"/>
<path fill="#019687" d="M197.8,63.41c-2.12,0-4.02-0.49-5.69-1.48c-1.67-0.99-3-2.33-3.97-4.04c-0.98-1.7-1.46-3.62-1.46-5.76
	c0-2.16,0.51-4.1,1.53-5.8c1.02-1.7,2.41-3.05,4.16-4.04s3.74-1.48,5.94-1.48c2.18,0,4.13,0.49,5.88,1.48
	c1.74,0.99,3.12,2.33,4.14,4.04c1.02,1.7,1.54,3.64,1.57,5.8l-1.42,0.69c0,2-0.47,3.8-1.4,5.39c-0.94,1.6-2.2,2.86-3.81,3.79
	C201.65,62.94,199.83,63.41,197.8,63.41z M198.3,60.33c1.56,0,2.95-0.36,4.16-1.08c1.21-0.72,2.18-1.7,2.89-2.94
	c0.71-1.24,1.07-2.64,1.07-4.18c0-1.57-0.36-2.97-1.07-4.2c-0.71-1.23-1.67-2.21-2.89-2.94c-1.21-0.73-2.6-1.09-4.16-1.09
	c-1.53,0-2.92,0.36-4.16,1.09c-1.24,0.73-2.22,1.71-2.95,2.94c-0.73,1.23-1.09,2.63-1.09,4.2c0,1.54,0.36,2.94,1.09,4.18
	c0.73,1.24,1.71,2.22,2.95,2.94C195.38,59.97,196.76,60.33,198.3,60.33z M208.09,63.21c-0.5,0-0.93-0.16-1.28-0.47
	c-0.35-0.31-0.52-0.72-0.52-1.24v-6.69l0.79-3.53l2.8,0.85v9.37c0,0.51-0.17,0.93-0.5,1.24C209.05,63.05,208.62,63.21,208.09,63.21z
	"/>
<path fill="#7C8282" d="M236.5,63.41c-1.73,0-3.41-0.28-5.04-0.83c-1.63-0.55-2.94-1.34-3.91-2.37c-0.33-0.35-0.47-0.76-0.42-1.22
	c0.06-0.46,0.28-0.84,0.67-1.14c0.45-0.33,0.9-0.46,1.36-0.41c0.46,0.05,0.84,0.24,1.15,0.57c0.61,0.7,1.46,1.26,2.55,1.68
	c1.09,0.42,2.29,0.63,3.6,0.63c1.92,0,3.34-0.32,4.25-0.95c0.91-0.63,1.37-1.43,1.4-2.37c0-0.92-0.45-1.69-1.36-2.31
	c-0.91-0.62-2.45-1.11-4.62-1.46c-2.82-0.46-4.87-1.23-6.17-2.31c-1.3-1.08-1.95-2.38-1.95-3.89c0-1.38,0.39-2.53,1.17-3.45
	c0.78-0.92,1.81-1.61,3.08-2.07c1.27-0.46,2.64-0.69,4.12-0.69c1.87,0,3.49,0.3,4.85,0.91c1.37,0.61,2.47,1.43,3.31,2.45
	c0.31,0.38,0.44,0.78,0.4,1.2s-0.27,0.75-0.69,0.99c-0.36,0.24-0.79,0.32-1.28,0.24c-0.49-0.08-0.9-0.3-1.23-0.65
	c-0.7-0.73-1.49-1.26-2.38-1.6c-0.89-0.34-1.91-0.51-3.05-0.51c-1.45,0-2.62,0.28-3.51,0.83c-0.89,0.55-1.34,1.26-1.34,2.13
	c0,0.6,0.16,1.11,0.48,1.54c0.32,0.43,0.89,0.82,1.72,1.16c0.82,0.34,2,0.64,3.54,0.91c2.09,0.35,3.74,0.84,4.96,1.48
	s2.08,1.37,2.59,2.21c0.52,0.84,0.77,1.77,0.77,2.8c0,1.27-0.37,2.39-1.11,3.35c-0.74,0.96-1.78,1.72-3.12,2.29
	C239.93,63.13,238.34,63.41,236.5,63.41z"/>
<path fill="#7C8282" d="M256.12,63.21c-1.17,0-2.2-0.3-3.1-0.91c-0.89-0.61-1.59-1.45-2.09-2.54c-0.5-1.08-0.75-2.33-0.75-3.73
	v-22.8c0-0.51,0.16-0.93,0.48-1.24c0.32-0.31,0.75-0.47,1.28-0.47c0.5,0,0.91,0.16,1.23,0.47c0.32,0.31,0.48,0.72,0.48,1.24v22.8
	c0,1.11,0.23,2.02,0.69,2.74c0.46,0.72,1.05,1.08,1.78,1.08h1.05c0.45,0,0.81,0.16,1.09,0.47c0.28,0.31,0.42,0.71,0.42,1.2
	c0,0.51-0.2,0.93-0.61,1.24c-0.4,0.31-0.93,0.47-1.57,0.47H256.12z"/>
<path fill="#7C8282" d="M265.41,37c-0.67,0-1.24-0.24-1.72-0.71c-0.47-0.47-0.71-1.04-0.71-1.68c0-0.68,0.24-1.23,0.73-1.66
	c0.49-0.43,1.05-0.65,1.69-0.65c0.64,0,1.21,0.22,1.69,0.65c0.49,0.43,0.73,0.99,0.73,1.66c0,0.65-0.24,1.21-0.71,1.68
	C266.65,36.77,266.08,37,265.41,37z M265.45,63.21c-0.53,0-0.96-0.16-1.3-0.47c-0.33-0.31-0.5-0.74-0.5-1.28v-18.7
	c0-0.54,0.17-0.97,0.5-1.28c0.33-0.31,0.77-0.47,1.3-0.47c0.53,0,0.96,0.16,1.28,0.47c0.32,0.31,0.48,0.74,0.48,1.28v18.7
	c0,0.54-0.16,0.97-0.48,1.28C266.4,63.05,265.98,63.21,265.45,63.21z"/>
<path fill="#7C8282" d="M285.57,63.41c-2.2,0-4.17-0.49-5.9-1.48c-1.73-0.99-3.09-2.33-4.08-4.04c-0.99-1.7-1.49-3.62-1.49-5.76
	c0-2.16,0.48-4.1,1.44-5.8s2.27-3.05,3.93-4.04c1.66-0.99,3.58-1.48,5.75-1.48c1.67,0,3.22,0.32,4.64,0.95
	c1.42,0.64,2.68,1.59,3.77,2.86c0.33,0.38,0.45,0.76,0.36,1.16c-0.1,0.39-0.36,0.74-0.77,1.03c-0.33,0.22-0.71,0.29-1.11,0.22
	s-0.77-0.28-1.11-0.63c-1.53-1.68-3.46-2.51-5.77-2.51c-1.53,0-2.88,0.35-4.04,1.05s-2.06,1.67-2.7,2.9
	c-0.64,1.23-0.96,2.66-0.96,4.28c0,1.57,0.34,2.97,1.02,4.2s1.63,2.2,2.84,2.92c1.21,0.72,2.6,1.08,4.16,1.08
	c1.06,0,2.02-0.14,2.87-0.41c0.85-0.27,1.61-0.69,2.28-1.26c0.39-0.3,0.78-0.46,1.17-0.49c0.39-0.03,0.75,0.08,1.09,0.32
	c0.36,0.33,0.57,0.69,0.63,1.1c0.06,0.41-0.08,0.77-0.42,1.09C291.15,62.5,288.61,63.41,285.57,63.41z"/>
<path fill="#7C8282" d="M310.8,63.41c-2.29,0-4.31-0.48-6.07-1.44c-1.76-0.96-3.14-2.29-4.14-4c-1-1.7-1.51-3.65-1.51-5.84
	c0-2.22,0.47-4.17,1.42-5.86s2.25-3.02,3.91-4c1.66-0.97,3.58-1.46,5.75-1.46c2.12,0,3.97,0.47,5.54,1.4
	c1.58,0.93,2.79,2.22,3.64,3.87c0.85,1.65,1.28,3.53,1.28,5.64c0,0.46-0.15,0.83-0.46,1.12c-0.31,0.28-0.7,0.43-1.17,0.43h-17.49
	v-2.8h17.7l-1.8,1.22c0.03-1.49-0.25-2.83-0.84-4.02c-0.59-1.19-1.42-2.12-2.51-2.8s-2.38-1.01-3.89-1.01
	c-1.59,0-2.98,0.35-4.16,1.05c-1.19,0.7-2.09,1.68-2.72,2.94c-0.63,1.26-0.94,2.68-0.94,4.28c0,1.6,0.36,3.02,1.09,4.26
	c0.73,1.24,1.72,2.22,2.99,2.92c1.27,0.7,2.73,1.05,4.37,1.05c0.95,0,1.92-0.16,2.91-0.49c0.99-0.33,1.78-0.73,2.36-1.22
	c0.33-0.24,0.72-0.37,1.15-0.38c0.43-0.01,0.79,0.1,1.07,0.34c0.42,0.35,0.63,0.73,0.65,1.14c0.01,0.41-0.17,0.76-0.57,1.05
	c-0.92,0.76-2.09,1.38-3.51,1.87C313.44,63.17,312.08,63.41,310.8,63.41z"/>
<path fill="#7C8282" d="M327.83,63.21c-0.56,0-0.99-0.15-1.3-0.45c-0.31-0.3-0.46-0.72-0.46-1.26V42.72c0-0.54,0.15-0.96,0.46-1.26
	c0.31-0.3,0.74-0.45,1.3-0.45s0.98,0.15,1.28,0.45c0.29,0.3,0.44,0.72,0.44,1.26V61.5c0,0.54-0.15,0.96-0.44,1.26
	C328.81,63.06,328.39,63.21,327.83,63.21z M327.62,49.46c0.06-1.65,0.5-3.13,1.32-4.44c0.82-1.31,1.91-2.35,3.26-3.1
	c1.35-0.76,2.84-1.14,4.46-1.14c1.42,0,2.5,0.2,3.24,0.61c0.74,0.41,1.01,0.96,0.82,1.66c-0.08,0.38-0.26,0.65-0.52,0.81
	c-0.26,0.16-0.57,0.24-0.92,0.24c-0.35,0-0.75-0.03-1.19-0.08c-1.65-0.19-3.1-0.09-4.37,0.3c-1.27,0.39-2.28,1.03-3.03,1.93
	c-0.75,0.89-1.13,1.96-1.13,3.21H327.62z"/>
<path fill="#292927" d="M355.22,54.61c-0.23,0-0.42-0.07-0.56-0.2c-0.14-0.13-0.21-0.29-0.21-0.48c0-0.2,0.07-0.37,0.21-0.5
	c0.14-0.13,0.32-0.2,0.56-0.2h5.02c0.22,0,0.4,0.07,0.54,0.2c0.14,0.13,0.21,0.3,0.21,0.5c0,0.19-0.07,0.35-0.21,0.48
	c-0.14,0.13-0.32,0.2-0.54,0.2H355.22z M357.13,63.21c-0.21,0-0.39-0.07-0.55-0.22c-0.16-0.14-0.23-0.34-0.23-0.6v-9.5
	c0-0.9,0.16-1.68,0.49-2.35s0.8-1.19,1.44-1.56c0.63-0.37,1.38-0.56,2.25-0.56c0.25,0,0.45,0.07,0.61,0.21s0.23,0.31,0.23,0.51
	c0,0.21-0.08,0.39-0.23,0.53c-0.16,0.14-0.36,0.21-0.61,0.21c-0.55,0-1.01,0.12-1.39,0.37c-0.38,0.25-0.66,0.59-0.86,1.02
	s-0.29,0.94-0.29,1.5v9.62c0,0.25-0.08,0.45-0.22,0.6C357.62,63.14,357.41,63.21,357.13,63.21z"/>
<path fill="#292927" d="M367.48,63.3c-1.05,0-1.99-0.23-2.8-0.68s-1.46-1.08-1.92-1.87c-0.47-0.79-0.7-1.7-0.7-2.71
	c0-1.02,0.23-1.93,0.7-2.73c0.47-0.79,1.11-1.42,1.92-1.87s1.75-0.68,2.8-0.68c1.04,0,1.96,0.23,2.77,0.68
	c0.81,0.45,1.44,1.08,1.91,1.87s0.71,1.7,0.72,2.73c0,1.01-0.23,1.91-0.7,2.71s-1.11,1.42-1.92,1.87S368.52,63.3,367.48,63.3z
	 M367.48,61.86c0.73,0,1.38-0.17,1.95-0.5s1.02-0.79,1.35-1.36c0.33-0.57,0.49-1.23,0.49-1.96c0-0.73-0.16-1.39-0.49-1.97
	c-0.33-0.58-0.77-1.04-1.35-1.37c-0.57-0.33-1.22-0.5-1.95-0.5c-0.73,0-1.38,0.17-1.96,0.5c-0.58,0.33-1.03,0.79-1.37,1.37
	c-0.33,0.58-0.5,1.24-0.5,1.97c0,0.73,0.17,1.38,0.5,1.96s0.79,1.03,1.37,1.36S366.75,61.86,367.48,61.86z"/>
<path fill="#292927" d="M376.64,63.21c-0.26,0-0.46-0.07-0.61-0.21c-0.14-0.14-0.21-0.33-0.21-0.59v-8.77
	c0-0.25,0.07-0.45,0.21-0.59c0.14-0.14,0.34-0.21,0.61-0.21s0.46,0.07,0.6,0.21c0.14,0.14,0.21,0.33,0.21,0.59v8.77
	c0,0.25-0.07,0.45-0.21,0.59S376.9,63.21,376.64,63.21z M376.54,56.79c0.03-0.77,0.23-1.46,0.62-2.07s0.89-1.1,1.52-1.45
	c0.63-0.35,1.33-0.53,2.08-0.53c0.66,0,1.17,0.09,1.51,0.28c0.34,0.19,0.47,0.45,0.38,0.78c-0.04,0.18-0.12,0.3-0.24,0.38
	s-0.27,0.11-0.43,0.11c-0.16,0-0.35-0.01-0.56-0.04c-0.77-0.09-1.45-0.04-2.04,0.14c-0.59,0.18-1.06,0.48-1.42,0.9
	c-0.35,0.42-0.53,0.92-0.53,1.5H376.54z"/>
</svg>
