<?xml version="1.0" encoding="utf-8"?>
<!-- Generator: Adobe Illustrator 24.3.0, SVG Export Plug-In . SVG Version: 6.00 Build 0)  -->
<svg version="1.1" id="레이어_1" xmlns="http://www.w3.org/2000/svg" xmlns:xlink="http://www.w3.org/1999/xlink" x="0px"
	 y="0px" viewBox="0 0 64 64" enable-background="new 0 0 64 64" xml:space="preserve">
<g>
	<polygon fill-rule="evenodd" clip-rule="evenodd" fill="#D3D3D3" points="41.8,18.53 49.26,5.61 49.96,6.08 50.65,6.57 51.33,7.08 
		51.99,7.61 52.63,8.15 53.27,8.72 53.88,9.3 54.48,9.89 55.07,10.5 55.64,11.13 56.19,11.77 56.72,12.42 57.24,13.09 57.73,13.78 
		58.21,14.47 58.67,15.18 59.12,15.9 59.54,16.64 59.94,17.38 60.32,18.14 60.68,18.9 61.02,19.67 61.34,20.46 61.64,21.25 
		61.92,22.05 62.18,22.85 62.41,23.66 62.62,24.48 62.81,25.31 62.98,26.14 63.13,26.97 63.25,27.81 63.35,28.64 63.43,29.49 
		63.49,30.33 63.52,31.18 63.53,32.02 63.52,32.87 63.49,33.71 63.43,34.55 63.35,35.4 63.25,36.24 63.12,37.07 62.97,37.91 
		62.81,38.73 62.61,39.56 62.4,40.38 62.16,41.19 61.91,41.99 61.63,42.79 61.33,43.58 61.01,44.36 60.67,45.14 60.3,45.9 
		59.92,46.66 59.52,47.4 59.09,48.13 58.65,48.85 58.19,49.56 57.71,50.26 57.21,50.94 56.69,51.61 56.16,52.26 55.61,52.9 
		55.04,53.53 54.45,54.14 53.85,54.73 53.23,55.31 52.6,55.87 51.95,56.42 51.29,56.94 50.62,57.45 49.93,57.94 49.23,58.41 
		48.51,58.86 47.78,59.3 47.05,59.71 46.3,60.1 45.54,60.48 44.77,60.83 43.99,61.16 43.21,61.47 42.41,61.76 41.61,62.03 
		40.8,62.28 39.99,62.5 39.17,62.71 38.34,62.89 37.51,63.05 36.68,63.18 35.84,63.3 35,63.39 34.15,63.46 33.31,63.51 32.46,63.53 
		31.62,63.53 30.77,63.51 29.93,63.46 29.09,63.4 28.25,63.31 27.41,63.2 26.57,63.06 25.74,62.91 24.91,62.73 24.09,62.53 
		23.28,62.3 22.47,62.06 21.67,61.79 20.87,61.5 20.08,61.19 19.31,60.86 18.54,60.51 17.78,60.14 22.17,52.54 22.61,52.74 
		23.06,52.94 23.51,53.13 23.97,53.31 24.45,53.48 24.92,53.64 25.41,53.79 25.9,53.94 26.4,54.07 26.9,54.19 27.41,54.3 
		27.92,54.4 28.44,54.49 28.97,54.57 29.5,54.63 30.03,54.68 30.57,54.72 31.11,54.75 31.65,54.77 32.19,54.77 32.74,54.76 
		33.29,54.73 33.84,54.69 34.39,54.64 34.94,54.58 35.48,54.5 36.03,54.41 36.58,54.3 37.12,54.18 37.66,54.05 38.2,53.91 
		38.74,53.75 39.27,53.58 39.79,53.39 40.31,53.2 40.83,52.99 41.34,52.76 41.84,52.53 42.34,52.29 42.83,52.03 43.31,51.76 
		43.78,51.48 44.25,51.19 44.71,50.89 45.16,50.58 45.59,50.26 46.02,49.94 46.44,49.6 46.85,49.25 47.25,48.9 47.64,48.54 
		48.02,48.18 48.39,47.8 48.75,47.42 49.1,47.04 49.43,46.65 49.76,46.25 50.07,45.85 50.37,45.45 50.66,45.04 50.94,44.63 
		51.21,44.22 51.47,43.8 51.72,43.38 51.96,42.96 52.18,42.54 52.4,42.1 52.61,41.66 52.81,41.22 53,40.77 53.18,40.32 53.35,39.86 
		53.51,39.4 53.65,38.93 53.78,38.46 53.9,37.99 54.01,37.52 54.1,37.04 54.18,36.56 54.25,36.08 54.3,35.6 54.34,35.11 
		54.37,34.63 54.38,34.14 54.37,33.66 54.35,33.18 54.32,32.7 54.27,32.22 54.2,31.74 54.12,31.26 54.02,30.79 53.91,30.32 
		53.79,29.86 53.65,29.4 53.49,28.94 53.32,28.49 53.13,28.05 52.93,27.61 52.72,27.17 52.49,26.75 52.24,26.33 51.99,25.92 
		51.72,25.51 51.43,25.12 51.14,24.73 50.83,24.35 50.51,23.98 50.18,23.62 49.83,23.27 49.48,22.93 49.12,22.6 48.74,22.27 
		48.36,21.96 47.97,21.66 47.57,21.37 47.16,21.09 46.74,20.82 46.32,20.56 45.89,20.31 45.45,20.07 45.01,19.84 44.56,19.62 
		44.11,19.41 43.66,19.22 43.2,19.03 42.73,18.85 42.27,18.69 	"/>
	<polygon fill-rule="evenodd" clip-rule="evenodd" fill="#D3D3D3" points="22.2,45.47 14.74,58.39 14.04,57.92 13.35,57.43 
		12.67,56.92 12.01,56.39 11.37,55.85 10.73,55.28 10.12,54.7 9.52,54.11 8.93,53.5 8.36,52.87 7.81,52.23 7.28,51.58 6.76,50.91 
		6.27,50.22 5.79,49.53 5.33,48.82 4.88,48.1 4.46,47.36 4.06,46.62 3.68,45.86 3.32,45.1 2.98,44.33 2.66,43.54 2.36,42.75 
		2.08,41.95 1.82,41.15 1.59,40.34 1.38,39.52 1.19,38.69 1.02,37.86 0.87,37.03 0.75,36.19 0.65,35.36 0.57,34.51 0.51,33.67 
		0.48,32.82 0.47,31.98 0.48,31.13 0.51,30.29 0.57,29.45 0.65,28.6 0.75,27.76 0.88,26.93 1.03,26.09 1.19,25.27 1.39,24.44 
		1.6,23.62 1.84,22.81 2.09,22.01 2.37,21.21 2.67,20.42 2.99,19.64 3.33,18.86 3.7,18.1 4.08,17.34 4.48,16.6 4.91,15.87 
		5.35,15.15 5.81,14.44 6.29,13.74 6.79,13.06 7.31,12.39 7.84,11.74 8.39,11.1 8.96,10.47 9.55,9.86 10.15,9.27 10.77,8.69 
		11.4,8.13 12.05,7.58 12.71,7.06 13.38,6.55 14.07,6.06 14.77,5.59 15.49,5.14 16.22,4.7 16.95,4.29 17.7,3.9 18.46,3.52 
		19.23,3.17 20.01,2.84 20.79,2.53 21.59,2.24 22.39,1.97 23.2,1.72 24.01,1.5 24.83,1.29 25.66,1.11 26.49,0.95 27.32,0.82 
		28.16,0.7 29,0.61 29.85,0.54 30.69,0.49 31.54,0.47 32.38,0.47 33.23,0.49 34.07,0.54 34.91,0.6 35.75,0.69 36.59,0.8 37.43,0.94 
		38.26,1.09 39.09,1.27 39.91,1.47 40.72,1.7 41.53,1.94 42.33,2.21 43.13,2.5 43.92,2.81 44.69,3.14 45.46,3.49 46.22,3.86 
		41.83,11.46 41.39,11.26 40.94,11.06 40.49,10.87 40.03,10.69 39.55,10.52 39.08,10.36 38.59,10.21 38.1,10.06 37.6,9.93 
		37.1,9.81 36.59,9.7 36.08,9.6 35.56,9.51 35.03,9.43 34.5,9.37 33.97,9.32 33.43,9.28 32.89,9.25 32.35,9.23 31.81,9.23 
		31.26,9.24 30.71,9.27 30.16,9.31 29.61,9.36 29.06,9.42 28.52,9.5 27.97,9.59 27.42,9.7 26.88,9.82 26.34,9.95 25.8,10.09 
		25.26,10.25 24.73,10.42 24.21,10.61 23.69,10.8 23.17,11.01 22.66,11.24 22.16,11.47 21.66,11.71 21.17,11.97 20.69,12.24 
		20.22,12.52 19.75,12.81 19.29,13.11 18.84,13.42 18.41,13.74 17.98,14.06 17.56,14.4 17.15,14.75 16.75,15.1 16.36,15.46 
		15.98,15.82 15.61,16.2 15.25,16.58 14.9,16.96 14.57,17.35 14.24,17.75 13.93,18.15 13.63,18.55 13.34,18.96 13.06,19.37 
		12.79,19.78 12.53,20.2 12.28,20.62 12.04,21.04 11.82,21.46 11.6,21.9 11.39,22.34 11.19,22.78 11,23.23 10.82,23.68 10.65,24.14 
		10.49,24.6 10.35,25.07 10.22,25.54 10.1,26.01 9.99,26.48 9.9,26.96 9.82,27.44 9.75,27.92 9.7,28.4 9.66,28.89 9.63,29.37 
		9.62,29.86 9.63,30.34 9.65,30.82 9.68,31.3 9.73,31.78 9.8,32.26 9.88,32.74 9.98,33.21 10.09,33.68 10.21,34.14 10.35,34.6 
		10.51,35.06 10.68,35.51 10.87,35.95 11.07,36.39 11.28,36.83 11.51,37.25 11.76,37.67 12.01,38.08 12.28,38.49 12.57,38.88 
		12.86,39.27 13.17,39.65 13.49,40.02 13.82,40.38 14.17,40.73 14.52,41.07 14.88,41.4 15.26,41.73 15.64,42.04 16.03,42.34 
		16.43,42.63 16.84,42.91 17.26,43.18 17.68,43.44 18.11,43.69 18.55,43.93 18.99,44.16 19.44,44.38 19.89,44.59 20.34,44.78 
		20.8,44.97 21.27,45.15 21.73,45.31 	"/>
	<g id="HATCH_38_">
		<path fill-rule="evenodd" clip-rule="evenodd" fill="#292927" d="M22.2,45.47l19.63-34l-0.44-0.2l-0.45-0.2l-0.46-0.19l-0.46-0.18
			l-0.47-0.17l-0.48-0.16l-0.48-0.15l-0.49-0.14l-0.5-0.13l-0.5-0.12L36.59,9.7l-0.51-0.1l-0.52-0.09l-0.52-0.08L34.5,9.37
			l-0.53-0.05l-0.54-0.04l-0.54-0.03l-0.54-0.01l-0.54,0l-0.55,0.01l-0.55,0.02l-0.55,0.04l-0.55,0.05l-0.55,0.06L28.52,9.5
			l-0.55,0.09L27.42,9.7l-0.54,0.12l-0.54,0.13l-0.54,0.15l-0.53,0.16l-0.53,0.17l-0.53,0.18l-0.52,0.2l-0.52,0.21l-0.51,0.22
			l-0.5,0.23l-0.5,0.25l-0.49,0.26l-0.48,0.27l-0.47,0.28l-0.47,0.29l-0.46,0.3l-0.45,0.31l-0.44,0.32l-0.43,0.33l-0.42,0.34
			l-0.41,0.34l-0.4,0.35l-0.39,0.36l-0.38,0.37l-0.37,0.37l-0.36,0.38l-0.35,0.39l-0.34,0.39l-0.32,0.4l-0.31,0.4l-0.3,0.4
			l-0.29,0.41l-0.28,0.41l-0.27,0.41l-0.26,0.42l-0.25,0.42l-0.24,0.42l-0.23,0.43L11.6,21.9l-0.21,0.44l-0.2,0.44L11,23.23
			l-0.18,0.45l-0.17,0.46l-0.16,0.46l-0.14,0.47l-0.13,0.47l-0.12,0.47l-0.11,0.48L9.9,26.96l-0.08,0.48l-0.07,0.48L9.7,28.4
			l-0.04,0.48l-0.02,0.48l-0.01,0.48l0.01,0.48l0.02,0.48l0.03,0.48l0.05,0.48l0.07,0.48l0.08,0.48l0.1,0.47l0.11,0.47l0.13,0.46
			l0.14,0.46l0.16,0.46l0.17,0.45l0.19,0.45l0.2,0.44l0.22,0.43l0.23,0.43l0.24,0.42l0.26,0.41l0.27,0.4l0.28,0.4l0.3,0.39
			l0.31,0.38l0.32,0.37l0.33,0.36l0.34,0.35l0.35,0.34l0.36,0.33l0.37,0.32l0.38,0.31l0.39,0.3l0.4,0.29l0.41,0.28l0.42,0.27
			l0.42,0.26l0.43,0.25l0.44,0.24l0.44,0.23l0.45,0.22l0.45,0.21l0.46,0.2l0.46,0.19l0.46,0.18l0.47,0.17L22.2,45.47z M32.85,15.23
			l0.02,0.03l0.02,0.03l0.02,0.03l0.02,0.03l0.02,0.03l0.02,0.03l0.02,0.03l0.02,0.03l0.02,0.03l0.02,0.03l0.01,0.03l0.01,0.03
			l0.01,0.03l0.01,0.04l0.01,0.04l0.01,0.04l0.01,0.04l0.01,0.04l0.01,0.04l0.01,0.04l0.01,0.04l0.01,0.04l0.01,0.04l0.01,0.04
			l0.01,0.04l0.01,0.04l0,0.04l0,0.04l0,0.04l0,0.04l0,0.09l0,0.09l0,0.09l-0.01,0.09l-0.01,0.09l-0.01,0.1l-0.02,0.1l-0.02,0.1
			l-0.02,0.1l-0.03,0.1l-0.03,0.1l-0.03,0.1l-0.04,0.1l-0.04,0.11l-0.04,0.11l-0.05,0.11L32.81,18l-0.05,0.11l-0.05,0.11l-0.06,0.11
			l-0.06,0.11l-0.06,0.11l-0.07,0.11l-0.07,0.11l-0.07,0.11l-0.07,0.11l-0.08,0.11l-0.16,0.21l-0.17,0.21l-0.17,0.2l-0.18,0.2
			l-0.19,0.19l-0.19,0.19l-0.19,0.18l-0.2,0.17l-0.2,0.17l-0.2,0.16l-0.2,0.15l-0.21,0.15l-0.21,0.14l-0.22,0.14l-0.23,0.14
			l-0.23,0.13l-0.24,0.13l-0.24,0.12l-0.24,0.11l-0.25,0.1l-0.25,0.1l-0.25,0.09l-0.12,0.04l-0.12,0.04l-0.12,0.04l-0.12,0.03
			l-0.12,0.03l-0.12,0.03l-0.12,0.02l-0.12,0.02l-0.12,0.02l-0.12,0.02l-0.12,0.01l-0.12,0.01L26,22.76l-0.11,0.01l-0.11,0l-0.11,0
			l-0.11,0l-0.1-0.01l-0.1-0.01l-0.1-0.01l-0.1-0.01l-0.1-0.02l-0.09-0.02l-0.09-0.02l-0.09-0.02l-0.09-0.03l-0.08-0.03l-0.04-0.02
			l-0.04-0.02l-0.04-0.02l-0.04-0.02l-0.04-0.02l-0.04-0.02l-0.04-0.02l-0.04-0.02l-0.04-0.02l-0.03-0.02l-0.03-0.02l-0.03-0.02
			l-0.03-0.02l-0.03-0.02l-0.03-0.02l-0.03-0.02l-0.03-0.02l-0.03-0.02l-0.03-0.02l-0.03-0.02l-0.03-0.02l-0.03-0.03l-0.03-0.03
			l-0.02-0.03l-0.02-0.03l-0.02-0.03L23.76,22l-0.02-0.03l-0.02-0.03l-0.02-0.03l-0.02-0.03l-0.02-0.03l-0.02-0.03l-0.02-0.03
			l-0.02-0.03l-0.02-0.03l-0.02-0.03l-0.02-0.03l-0.02-0.03l-0.02-0.03l-0.01-0.03l-0.01-0.03l-0.01-0.03l-0.01-0.04l-0.01-0.04
			l-0.01-0.04l-0.01-0.04l-0.01-0.04l-0.01-0.04l-0.01-0.04l-0.01-0.04l-0.01-0.04l-0.01-0.04l-0.01-0.04l-0.01-0.04l-0.01-0.04
			l0-0.04l0-0.04l0-0.04l0-0.04l0-0.09l0-0.09l0-0.09l0.01-0.09l0.01-0.09l0.01-0.1l0.02-0.1l0.02-0.1l0.02-0.1l0.03-0.1l0.03-0.1
			l0.03-0.1l0.04-0.1l0.04-0.11l0.04-0.11l0.05-0.11l0.05-0.11l0.05-0.11l0.05-0.11l0.06-0.11l0.06-0.11l0.06-0.11l0.07-0.11
			l0.07-0.11l0.07-0.11l0.07-0.11l0.08-0.11l0.16-0.21l0.17-0.21l0.17-0.2l0.18-0.2l0.19-0.19l0.19-0.19l0.19-0.18l0.2-0.17
			l0.2-0.17l0.2-0.16l0.2-0.15l0.21-0.15l0.21-0.14l0.22-0.14l0.23-0.14l0.23-0.13l0.24-0.13l0.24-0.12l0.24-0.11l0.25-0.1l0.25-0.1
			l0.25-0.09l0.12-0.04l0.12-0.04l0.12-0.04l0.12-0.03l0.12-0.03l0.12-0.03l0.12-0.02l0.12-0.02l0.12-0.02l0.12-0.02l0.12-0.01
			l0.12-0.01l0.11-0.01l0.11-0.01l0.11,0l0.11,0l0.11,0l0.1,0.01l0.1,0.01l0.1,0.01l0.1,0.01l0.1,0.02l0.09,0.02l0.09,0.02
			l0.09,0.02l0.09,0.03l0.08,0.03l0.04,0.02l0.04,0.02l0.04,0.02l0.04,0.02l0.04,0.02l0.04,0.02l0.04,0.02l0.04,0.02l0.04,0.02
			l0.03,0.02l0.03,0.02l0.03,0.02l0.03,0.02l0.03,0.02l0.03,0.02l0.03,0.02l0.03,0.02l0.03,0.02l0.03,0.02l0.03,0.02l0.03,0.02
			l0.03,0.03l0.03,0.03l0.02,0.03l0.02,0.03l0.02,0.03l0.02,0.03l0.02,0.03l0.02,0.03L32.85,15.23z"/>
	</g>
	<g id="HATCH_37_">
		<polygon fill-rule="evenodd" clip-rule="evenodd" fill="#292927" points="41.8,18.53 22.17,52.54 22.61,52.74 23.06,52.94 
			23.51,53.13 23.97,53.31 24.45,53.48 24.92,53.64 25.41,53.79 25.9,53.94 26.4,54.07 26.9,54.19 27.41,54.3 27.92,54.4 
			28.44,54.49 28.97,54.57 29.5,54.63 30.03,54.68 30.57,54.72 31.11,54.75 31.65,54.77 32.19,54.77 32.74,54.76 33.29,54.73 
			33.84,54.69 34.39,54.64 34.94,54.58 35.48,54.5 36.03,54.41 36.58,54.3 37.12,54.18 37.66,54.05 38.2,53.91 38.74,53.75 
			39.27,53.58 39.79,53.39 40.31,53.2 40.83,52.99 41.34,52.76 41.84,52.53 42.34,52.29 42.83,52.03 43.31,51.76 43.78,51.48 
			44.25,51.19 44.71,50.89 45.16,50.58 45.59,50.26 46.02,49.94 46.44,49.6 46.85,49.25 47.25,48.9 47.64,48.54 48.02,48.18 
			48.39,47.8 48.75,47.42 49.1,47.04 49.43,46.65 49.76,46.25 50.07,45.85 50.37,45.45 50.66,45.04 50.94,44.63 51.21,44.22 
			51.47,43.8 51.72,43.38 51.96,42.96 52.18,42.54 52.4,42.1 52.61,41.66 52.81,41.22 53,40.77 53.18,40.32 53.35,39.86 53.51,39.4 
			53.65,38.93 53.78,38.46 53.9,37.99 54.01,37.52 54.1,37.04 54.18,36.56 54.25,36.08 54.3,35.6 54.34,35.11 54.37,34.63 
			54.38,34.14 54.37,33.66 54.35,33.18 54.32,32.7 54.27,32.22 54.2,31.74 54.12,31.26 54.02,30.79 53.91,30.32 53.79,29.86 
			53.65,29.4 53.49,28.94 53.32,28.49 53.13,28.05 52.93,27.61 52.72,27.17 52.49,26.75 52.24,26.33 51.99,25.92 51.72,25.51 
			51.43,25.12 51.14,24.73 50.83,24.35 50.51,23.98 50.18,23.62 49.83,23.27 49.48,22.93 49.12,22.6 48.74,22.27 48.36,21.96 
			47.97,21.66 47.57,21.37 47.16,21.09 46.74,20.82 46.32,20.56 45.89,20.31 45.45,20.07 45.01,19.84 44.56,19.62 44.11,19.41 
			43.66,19.22 43.2,19.03 42.73,18.85 42.27,18.69 		"/>
	</g>
	<g id="HATCH_36_">
		<polygon fill-rule="evenodd" clip-rule="evenodd" fill="#00FFFF" points="19.13,50.78 19.72,51.17 20.31,51.54 20.92,51.89 
			21.54,52.22 22.17,52.54 44.87,13.22 44.28,12.83 43.69,12.46 43.08,12.11 42.46,11.78 41.83,11.46 		"/>
	</g>
	<g id="HATCH_35_">
		<polygon fill-rule="evenodd" clip-rule="evenodd" fill="#FFFFFF" points="32.85,15.23 32.87,15.26 32.89,15.28 32.91,15.31 
			32.92,15.34 32.94,15.37 32.96,15.4 32.98,15.44 32.99,15.47 33.01,15.5 33.03,15.53 33.04,15.57 33.06,15.6 33.07,15.64 
			33.08,15.67 33.09,15.71 33.11,15.74 33.12,15.78 33.13,15.82 33.14,15.86 33.15,15.89 33.16,15.93 33.16,15.97 33.17,16.01 
			33.18,16.05 33.18,16.09 33.19,16.13 33.19,16.18 33.2,16.22 33.2,16.26 33.2,16.31 33.21,16.39 33.21,16.48 33.2,16.57 
			33.19,16.67 33.18,16.76 33.17,16.86 33.16,16.96 33.14,17.06 33.11,17.16 33.09,17.26 33.06,17.36 33.02,17.47 32.99,17.57 
			32.95,17.68 32.91,17.78 32.86,17.89 32.81,18 32.76,18.1 32.71,18.21 32.65,18.32 32.59,18.43 32.53,18.54 32.46,18.64 
			32.39,18.75 32.32,18.86 32.25,18.97 32.17,19.07 32.01,19.28 31.85,19.49 31.67,19.69 31.49,19.89 31.31,20.08 31.12,20.27 
			30.92,20.45 30.72,20.62 30.52,20.79 30.32,20.95 30.12,21.1 29.91,21.25 29.7,21.39 29.48,21.53 29.26,21.67 29.02,21.8 
			28.79,21.93 28.55,22.04 28.31,22.16 28.06,22.26 27.81,22.36 27.56,22.44 27.44,22.48 27.31,22.52 27.19,22.56 27.07,22.59 
			26.94,22.62 26.82,22.65 26.7,22.67 26.58,22.69 26.46,22.71 26.34,22.73 26.23,22.74 26.11,22.75 26,22.76 25.88,22.76 
			25.77,22.77 25.66,22.77 25.56,22.76 25.45,22.76 25.35,22.75 25.25,22.74 25.15,22.72 25.05,22.71 24.96,22.69 24.87,22.67 
			24.78,22.64 24.7,22.61 24.61,22.59 24.57,22.57 24.53,22.55 24.49,22.54 24.45,22.52 24.42,22.5 24.38,22.49 24.34,22.47 
			24.31,22.45 24.27,22.43 24.24,22.41 24.2,22.39 24.17,22.37 24.14,22.34 24.11,22.32 24.08,22.3 24.05,22.28 24.02,22.25 
			23.99,22.23 23.96,22.21 23.93,22.18 23.9,22.16 23.88,22.13 23.85,22.11 23.83,22.08 23.8,22.05 23.78,22.03 23.76,22 
			23.74,21.97 23.71,21.95 23.69,21.92 23.67,21.89 23.65,21.86 23.63,21.83 23.62,21.8 23.6,21.77 23.58,21.74 23.56,21.71 
			23.55,21.68 23.53,21.64 23.51,21.61 23.5,21.58 23.49,21.54 23.47,21.51 23.46,21.47 23.45,21.44 23.43,21.4 23.42,21.37 
			23.41,21.33 23.4,21.29 23.39,21.25 23.38,21.21 23.38,21.17 23.37,21.13 23.36,21.09 23.36,21.05 23.35,21.01 23.35,20.97 
			23.34,20.93 23.34,20.88 23.34,20.84 23.33,20.75 23.34,20.66 23.34,20.57 23.35,20.48 23.36,20.38 23.37,20.29 23.39,20.19 
			23.41,20.09 23.43,19.99 23.45,19.89 23.48,19.78 23.52,19.68 23.55,19.58 23.59,19.47 23.63,19.36 23.68,19.26 23.73,19.15 
			23.78,19.04 23.83,18.93 23.89,18.83 23.95,18.72 24.01,18.61 24.08,18.5 24.15,18.39 24.22,18.29 24.29,18.18 24.37,18.07 
			24.53,17.86 24.69,17.66 24.87,17.45 25.05,17.25 25.23,17.06 25.42,16.87 25.62,16.69 25.82,16.52 26.02,16.35 26.22,16.19 
			26.42,16.04 26.63,15.9 26.84,15.75 27.06,15.61 27.28,15.48 27.52,15.35 27.75,15.22 27.99,15.1 28.24,14.99 28.48,14.89 
			28.73,14.79 28.98,14.7 29.1,14.66 29.23,14.62 29.35,14.59 29.47,14.56 29.6,14.53 29.72,14.5 29.84,14.48 29.96,14.45 
			30.08,14.43 30.2,14.42 30.32,14.4 30.43,14.39 30.55,14.39 30.66,14.38 30.77,14.38 30.88,14.38 30.98,14.38 31.09,14.39 
			31.19,14.4 31.29,14.41 31.39,14.42 31.49,14.44 31.58,14.46 31.67,14.48 31.76,14.5 31.84,14.53 31.93,14.56 31.97,14.58 
			32.01,14.59 32.05,14.61 32.09,14.62 32.12,14.64 32.16,14.66 32.2,14.68 32.23,14.7 32.27,14.72 32.3,14.74 32.34,14.76 
			32.37,14.78 32.4,14.8 32.43,14.82 32.46,14.85 32.5,14.87 32.52,14.89 32.55,14.91 32.58,14.94 32.61,14.96 32.64,14.99 
			32.66,15.01 32.69,15.04 32.71,15.06 32.74,15.09 32.76,15.12 32.78,15.14 32.8,15.17 32.83,15.2 		"/>
	</g>
</g>
</svg>
