<?xml version="1.0" encoding="utf-8"?>
<!-- Generator: Adobe Illustrator 24.3.0, SVG Export Plug-In . SVG Version: 6.00 Build 0)  -->
<svg version="1.1" id="레이어_1" xmlns="http://www.w3.org/2000/svg" xmlns:xlink="http://www.w3.org/1999/xlink" x="0px"
	 y="0px" viewBox="0 0 560 125" style="enable-background:new 0 0 560 125;" xml:space="preserve">
<style type="text/css">
	.st0{fill-rule:evenodd;clip-rule:evenodd;fill:#7F7F7F;}
	.st1{fill-rule:evenodd;clip-rule:evenodd;fill:#292927;}
	.st2{fill-rule:evenodd;clip-rule:evenodd;fill:#019687;}
	.st3{fill-rule:evenodd;clip-rule:evenodd;fill:#FFFFFF;}
	.st4{fill:none;stroke:#000000;stroke-width:0.25;stroke-miterlimit:10;}
	.st5{fill:#019687;}
	.st6{fill:#7C8282;}
	.st7{fill:#292927;}
</style>
<g>
	<polygon class="st0" points="84.26,40.21 96.61,18.83 97.77,19.61 98.91,20.43 100.02,21.27 101.12,22.14 102.19,23.04 
		103.23,23.97 104.25,24.93 105.25,25.91 106.22,26.92 107.16,27.96 108.07,29.02 108.95,30.11 109.81,31.22 110.63,32.35 
		111.42,33.5 112.18,34.67 112.92,35.87 113.61,37.08 114.28,38.31 114.91,39.56 115.51,40.82 116.07,42.1 116.6,43.4 117.1,44.71 
		117.56,46.03 117.98,47.36 118.37,48.71 118.72,50.06 119.04,51.43 119.31,52.8 119.56,54.17 119.76,55.56 119.93,56.95 
		120.06,58.34 120.15,59.74 120.21,61.14 120.22,62.53 120.2,63.93 120.15,65.33 120.05,66.73 119.92,68.12 119.75,69.51 
		119.54,70.89 119.3,72.27 119.02,73.64 118.7,75.01 118.35,76.36 117.96,77.7 117.53,79.04 117.07,80.36 116.58,81.66 
		116.05,82.96 115.48,84.24 114.88,85.5 114.25,86.75 113.58,87.98 112.88,89.19 112.15,90.39 111.38,91.56 110.59,92.71 
		109.76,93.84 108.91,94.95 108.02,96.03 107.11,97.09 106.17,98.13 105.2,99.13 104.2,100.12 103.18,101.07 102.14,102 
		101.06,102.9 99.97,103.77 98.85,104.61 97.71,105.43 96.55,106.21 95.37,106.95 94.17,107.67 92.94,108.35 91.71,109.01 
		90.45,109.62 89.18,110.21 87.89,110.76 86.59,111.27 85.28,111.75 83.95,112.2 82.61,112.6 81.26,112.98 79.9,113.31 
		78.54,113.61 77.16,113.88 75.78,114.1 74.4,114.29 73.01,114.44 71.61,114.56 70.21,114.63 68.82,114.67 67.42,114.67 
		66.02,114.64 64.62,114.57 63.22,114.45 61.83,114.31 60.45,114.12 59.07,113.9 57.69,113.64 56.32,113.34 54.96,113.01 
		53.61,112.64 52.27,112.24 50.95,111.8 49.63,111.32 48.33,110.81 47.04,110.26 45.77,109.68 44.51,109.07 51.78,96.48 52.5,96.82 
		53.25,97.15 54,97.46 54.77,97.76 55.55,98.04 56.34,98.31 57.14,98.56 57.95,98.8 58.77,99.02 59.61,99.22 60.45,99.4 61.3,99.57 
		62.16,99.71 63.03,99.84 63.91,99.95 64.79,100.03 65.68,100.1 66.57,100.15 67.47,100.17 68.37,100.17 69.27,100.15 70.18,100.11 
		71.09,100.05 72,99.97 72.91,99.86 73.81,99.73 74.72,99.58 75.62,99.41 76.52,99.21 77.42,98.99 78.31,98.75 79.19,98.49 
		80.07,98.2 80.94,97.9 81.8,97.57 82.66,97.23 83.5,96.86 84.33,96.47 85.15,96.07 85.96,95.64 86.76,95.2 87.55,94.74 
		88.32,94.26 89.07,93.76 89.81,93.25 90.54,92.72 91.25,92.18 91.95,91.62 92.63,91.05 93.29,90.47 93.93,89.87 94.56,89.27 
		95.17,88.65 95.76,88.02 96.33,87.38 96.89,86.74 97.43,86.08 97.95,85.42 98.45,84.75 98.93,84.08 99.39,83.4 99.84,82.72 
		100.26,82.03 100.67,81.34 101.07,80.64 101.44,79.93 101.81,79.22 102.16,78.49 102.49,77.76 102.8,77.01 103.1,76.26 
		103.37,75.51 103.63,74.74 103.87,73.97 104.09,73.2 104.29,72.41 104.47,71.63 104.62,70.84 104.75,70.04 104.87,69.25 
		104.95,68.45 105.02,67.65 105.06,66.85 105.07,66.05 105.06,65.25 105.03,64.45 104.97,63.65 104.89,62.86 104.78,62.07 
		104.65,61.28 104.49,60.5 104.31,59.72 104.1,58.96 103.86,58.19 103.61,57.44 103.32,56.69 103.01,55.96 102.68,55.23 
		102.33,54.51 101.95,53.81 101.54,53.12 101.12,52.43 100.67,51.77 100.2,51.11 99.71,50.47 99.2,49.84 98.67,49.23 98.12,48.63 
		97.56,48.05 96.97,47.49 96.37,46.94 95.75,46.41 95.12,45.89 94.47,45.39 93.8,44.91 93.13,44.44 92.44,43.99 91.74,43.56 
		91.03,43.15 90.31,42.76 89.57,42.38 88.84,42.02 88.09,41.67 87.33,41.35 86.57,41.04 85.81,40.75 85.04,40.47 	"/>
	<polygon class="st0" points="51.83,84.79 39.49,106.17 38.33,105.39 37.19,104.57 36.07,103.73 34.97,102.86 33.9,101.96 
		32.86,101.03 31.84,100.07 30.84,99.09 29.88,98.07 28.94,97.04 28.02,95.98 27.14,94.89 26.29,93.78 25.46,92.65 24.67,91.5 
		23.91,90.33 23.18,89.13 22.48,87.92 21.81,86.69 21.18,85.44 20.58,84.18 20.02,82.9 19.49,81.6 19,80.29 18.54,78.97 
		18.11,77.64 17.72,76.29 17.37,74.94 17.06,73.57 16.78,72.2 16.54,70.83 16.33,69.44 16.16,68.05 16.03,66.66 15.94,65.26 
		15.89,63.86 15.87,62.47 15.89,61.07 15.95,59.67 16.04,58.27 16.17,56.88 16.34,55.49 16.55,54.11 16.79,52.73 17.07,51.36 
		17.39,49.99 17.74,48.64 18.13,47.3 18.56,45.96 19.02,44.64 19.52,43.34 20.05,42.04 20.61,40.76 21.21,39.5 21.85,38.25 
		22.51,37.02 23.21,35.81 23.94,34.61 24.71,33.44 25.5,32.29 26.33,31.16 27.18,30.05 28.07,28.97 28.98,27.91 29.92,26.87 
		30.89,25.87 31.89,24.88 32.91,23.93 33.96,23 35.03,22.1 36.12,21.23 37.24,20.39 38.38,19.57 39.54,18.79 40.73,18.05 
		41.93,17.33 43.15,16.65 44.39,15.99 45.64,15.38 46.91,14.79 48.2,14.24 49.5,13.73 50.82,13.25 52.14,12.8 53.48,12.4 
		54.83,12.02 56.19,11.69 57.55,11.39 58.93,11.12 60.31,10.9 61.7,10.71 63.09,10.56 64.48,10.44 65.88,10.37 67.28,10.33 
		68.68,10.33 70.08,10.36 71.47,10.43 72.87,10.55 74.26,10.69 75.65,10.88 77.03,11.1 78.4,11.36 79.77,11.66 81.13,11.99 
		82.48,12.36 83.82,12.76 85.15,13.2 86.46,13.68 87.76,14.19 89.05,14.74 90.33,15.32 91.58,15.93 84.32,28.52 83.59,28.18 
		82.85,27.85 82.09,27.54 81.33,27.24 80.55,26.96 79.76,26.69 78.96,26.44 78.14,26.2 77.32,25.98 76.49,25.78 75.64,25.6 
		74.79,25.43 73.93,25.29 73.06,25.16 72.19,25.05 71.3,24.97 70.42,24.9 69.52,24.85 68.63,24.83 67.72,24.83 66.82,24.85 
		65.91,24.89 65,24.95 64.1,25.03 63.19,25.14 62.28,25.27 61.37,25.42 60.47,25.59 59.57,25.79 58.68,26.01 57.79,26.25 
		56.9,26.51 56.02,26.8 55.15,27.1 54.29,27.43 53.44,27.77 52.59,28.14 51.76,28.53 50.94,28.93 50.13,29.36 49.33,29.8 
		48.55,30.26 47.78,30.74 47.02,31.24 46.28,31.75 45.55,32.28 44.84,32.82 44.15,33.38 43.47,33.95 42.8,34.53 42.16,35.13 
		41.53,35.73 40.92,36.35 40.33,36.98 39.76,37.62 39.2,38.26 38.67,38.92 38.15,39.58 37.65,40.25 37.16,40.92 36.7,41.6 
		36.26,42.28 35.83,42.97 35.42,43.66 35.03,44.36 34.65,45.07 34.28,45.78 33.94,46.51 33.61,47.24 33.29,47.99 33,48.74 
		32.72,49.49 32.46,50.26 32.22,51.03 32,51.8 31.8,52.59 31.63,53.37 31.47,54.16 31.34,54.96 31.23,55.75 31.14,56.55 
		31.08,57.35 31.04,58.15 31.02,58.95 31.03,59.75 31.06,60.55 31.12,61.35 31.2,62.14 31.31,62.93 31.44,63.72 31.6,64.5 
		31.79,65.28 31.99,66.04 32.23,66.81 32.49,67.56 32.77,68.31 33.08,69.04 33.41,69.77 33.77,70.49 34.15,71.19 34.55,71.88 
		34.97,72.57 35.42,73.23 35.89,73.89 36.38,74.53 36.89,75.16 37.42,75.77 37.97,76.37 38.54,76.95 39.12,77.51 39.72,78.06 
		40.34,78.59 40.98,79.11 41.63,79.61 42.29,80.09 42.97,80.56 43.65,81.01 44.35,81.44 45.07,81.85 45.79,82.24 46.52,82.62 
		47.26,82.98 48,83.33 48.76,83.65 49.52,83.96 50.28,84.25 51.05,84.53 	"/>
	<g id="HATCH_66_">
		<path class="st1" d="M51.83,84.79l32.49-56.27l-0.73-0.34l-0.74-0.33l-0.75-0.31l-0.77-0.3l-0.78-0.28l-0.79-0.27l-0.8-0.25
			l-0.81-0.24l-0.82-0.22l-0.83-0.2l-0.84-0.18l-0.85-0.17l-0.86-0.15l-0.87-0.13l-0.88-0.11l-0.88-0.09l-0.89-0.07l-0.89-0.05
			l-0.9-0.02l-0.9,0l-0.9,0.02l-0.91,0.04L65,24.95l-0.91,0.08l-0.91,0.11l-0.91,0.13l-0.91,0.15l-0.9,0.17l-0.9,0.2l-0.9,0.22
			l-0.89,0.24l-0.88,0.26l-0.88,0.28l-0.87,0.31l-0.86,0.33l-0.85,0.35l-0.84,0.37l-0.83,0.39l-0.82,0.41l-0.81,0.43l-0.8,0.44
			l-0.78,0.46l-0.77,0.48l-0.76,0.5l-0.74,0.51l-0.73,0.53l-0.71,0.54l-0.69,0.56l-0.68,0.57l-0.66,0.58l-0.64,0.6l-0.63,0.61
			l-0.61,0.62l-0.59,0.63l-0.57,0.64l-0.56,0.65l-0.54,0.65l-0.52,0.66l-0.5,0.67l-0.48,0.67L36.7,41.6l-0.45,0.68l-0.43,0.69
			l-0.41,0.69l-0.39,0.7l-0.38,0.71l-0.36,0.72l-0.35,0.73l-0.33,0.73l-0.31,0.74L33,48.74l-0.28,0.76l-0.26,0.76l-0.24,0.77
			L32,51.8l-0.2,0.78l-0.18,0.79l-0.16,0.79l-0.13,0.79l-0.11,0.8l-0.09,0.8l-0.06,0.8l-0.04,0.8l-0.02,0.8l0.01,0.8l0.03,0.8
			l0.06,0.8l0.08,0.79l0.11,0.79l0.13,0.79l0.16,0.78l0.18,0.78l0.21,0.77l0.23,0.76l0.26,0.75l0.28,0.75l0.31,0.74l0.33,0.73
			l0.36,0.72l0.38,0.71l0.4,0.69l0.43,0.68l0.45,0.67l0.47,0.65l0.49,0.64l0.51,0.63l0.53,0.61l0.55,0.6l0.57,0.58l0.59,0.57
			l0.6,0.55l0.62,0.53l0.63,0.52l0.65,0.5l0.66,0.48l0.68,0.47l0.69,0.45l0.7,0.43l0.71,0.41l0.72,0.4l0.73,0.38l0.74,0.36L48,83.33
			l0.75,0.33l0.76,0.31l0.77,0.29l0.77,0.28L51.83,84.79z M69.45,34.75l0.03,0.05l0.03,0.05l0.03,0.05l0.03,0.05l0.03,0.05
			l0.03,0.05l0.03,0.05l0.03,0.05l0.03,0.05l0.03,0.05l0.02,0.06l0.02,0.06l0.02,0.06l0.02,0.06l0.02,0.06l0.02,0.06l0.02,0.06
			l0.02,0.06l0.02,0.06l0.02,0.06l0.01,0.06l0.01,0.07l0.01,0.07L70,36.11l0.01,0.07l0.01,0.07l0.01,0.07l0.01,0.07l0.01,0.07
			l0,0.07l0,0.15l0,0.15l-0.01,0.15l-0.01,0.15l-0.02,0.16l-0.02,0.16l-0.03,0.16l-0.03,0.16l-0.04,0.17l-0.04,0.17l-0.05,0.17
			l-0.05,0.17l-0.06,0.17l-0.06,0.17l-0.07,0.18l-0.07,0.18l-0.08,0.18l-0.09,0.18l-0.09,0.18l-0.09,0.18l-0.1,0.18l-0.1,0.18
			l-0.11,0.18l-0.11,0.18l-0.12,0.18l-0.12,0.18l-0.13,0.18l-0.26,0.35L67.8,41.8l-0.29,0.34l-0.3,0.33l-0.31,0.32l-0.32,0.31
			l-0.32,0.3l-0.33,0.29l-0.33,0.28l-0.33,0.26l-0.33,0.25l-0.34,0.24l-0.35,0.24l-0.36,0.23l-0.37,0.22l-0.38,0.22l-0.39,0.21
			l-0.4,0.2l-0.4,0.19l-0.41,0.17l-0.41,0.16l-0.41,0.14l-0.21,0.07l-0.21,0.06l-0.2,0.06l-0.2,0.05l-0.2,0.05l-0.2,0.05l-0.2,0.04
			l-0.2,0.04l-0.2,0.03l-0.2,0.03l-0.19,0.02L58.3,47.2l-0.19,0.01l-0.19,0.01l-0.18,0l-0.18,0l-0.18-0.01l-0.17-0.01l-0.17-0.01
			l-0.17-0.02l-0.16-0.02l-0.16-0.03l-0.15-0.03l-0.15-0.04l-0.15-0.04l-0.14-0.04l-0.14-0.05l-0.07-0.03l-0.07-0.03l-0.06-0.03
			l-0.06-0.03l-0.06-0.03l-0.06-0.03l-0.06-0.03l-0.06-0.03l-0.06-0.03l-0.06-0.03l-0.06-0.03l-0.05-0.03l-0.05-0.04l-0.05-0.04
			l-0.05-0.04l-0.05-0.04l-0.05-0.04l-0.05-0.04l-0.05-0.04l-0.05-0.04l-0.04-0.04l-0.04-0.04l-0.04-0.04l-0.04-0.04l-0.04-0.04
			L54.45,46l-0.04-0.04l-0.04-0.05l-0.04-0.05l-0.03-0.05l-0.03-0.05l-0.03-0.05l-0.03-0.05l-0.03-0.05l-0.03-0.05l-0.03-0.05
			l-0.03-0.05l-0.03-0.05l-0.03-0.05l-0.03-0.05l-0.02-0.06l-0.02-0.06l-0.02-0.06l-0.02-0.06l-0.02-0.06l-0.02-0.06l-0.02-0.06
			l-0.02-0.06l-0.02-0.06l-0.02-0.06l-0.01-0.06l-0.01-0.07l-0.01-0.07l-0.01-0.07l-0.01-0.07l-0.01-0.07l-0.01-0.07l-0.01-0.07
			l-0.01-0.07l0-0.07l0-0.15l0-0.15l0.01-0.15l0.01-0.15l0.02-0.16l0.02-0.16l0.03-0.16l0.03-0.16l0.04-0.17l0.04-0.17l0.05-0.17
			l0.05-0.17l0.06-0.17l0.06-0.17l0.07-0.18l0.07-0.18l0.08-0.18l0.09-0.18l0.09-0.18l0.09-0.18l0.1-0.18l0.1-0.18l0.11-0.18
			l0.11-0.18l0.12-0.18l0.12-0.18l0.13-0.18l0.26-0.35l0.28-0.34l0.29-0.34l0.3-0.33l0.31-0.32l0.32-0.31l0.32-0.3l0.33-0.29
			l0.33-0.28l0.33-0.26l0.33-0.25l0.34-0.24l0.35-0.24l0.36-0.23l0.37-0.22l0.38-0.22l0.39-0.21l0.4-0.2l0.4-0.19l0.41-0.17
			l0.41-0.16l0.41-0.14l0.21-0.07l0.21-0.06l0.2-0.06l0.2-0.05l0.2-0.05l0.2-0.05l0.2-0.04l0.2-0.04l0.2-0.03l0.2-0.03l0.19-0.02
			l0.19-0.02l0.19-0.01l0.19-0.01l0.18,0l0.18,0l0.18,0.01l0.17,0.01l0.17,0.01l0.17,0.02l0.16,0.02l0.16,0.03l0.15,0.03l0.15,0.04
			l0.15,0.04l0.14,0.04l0.14,0.05l0.07,0.03l0.07,0.03l0.06,0.03l0.06,0.03l0.06,0.03l0.06,0.03l0.06,0.03l0.06,0.03l0.06,0.03
			l0.06,0.03l0.06,0.03L68.66,34l0.05,0.04l0.05,0.04l0.05,0.04l0.05,0.04l0.05,0.04l0.05,0.04l0.05,0.04l0.05,0.04l0.04,0.04
			l0.04,0.04l0.04,0.04l0.04,0.04l0.04,0.04l0.04,0.04l0.04,0.04l0.04,0.05l0.04,0.05L69.45,34.75z"/>
	</g>
	<g id="HATCH_65_">
		<polygon class="st1" points="84.26,40.21 51.78,96.48 52.5,96.82 53.25,97.15 54,97.46 54.77,97.76 55.55,98.04 56.34,98.31 
			57.14,98.56 57.95,98.8 58.77,99.02 59.61,99.22 60.45,99.4 61.3,99.57 62.16,99.71 63.03,99.84 63.91,99.95 64.79,100.03 
			65.68,100.1 66.57,100.15 67.47,100.17 68.37,100.17 69.27,100.15 70.18,100.11 71.09,100.05 72,99.97 72.91,99.86 73.81,99.73 
			74.72,99.58 75.62,99.41 76.52,99.21 77.42,98.99 78.31,98.75 79.19,98.49 80.07,98.2 80.94,97.9 81.8,97.57 82.66,97.23 
			83.5,96.86 84.33,96.47 85.15,96.07 85.96,95.64 86.76,95.2 87.55,94.74 88.32,94.26 89.07,93.76 89.81,93.25 90.54,92.72 
			91.25,92.18 91.95,91.62 92.63,91.05 93.29,90.47 93.93,89.87 94.56,89.27 95.17,88.65 95.76,88.02 96.33,87.38 96.89,86.74 
			97.43,86.08 97.95,85.42 98.45,84.75 98.93,84.08 99.39,83.4 99.84,82.72 100.26,82.03 100.67,81.34 101.07,80.64 101.44,79.93 
			101.81,79.22 102.16,78.49 102.49,77.76 102.8,77.01 103.1,76.26 103.37,75.51 103.63,74.74 103.87,73.97 104.09,73.2 
			104.29,72.41 104.47,71.63 104.62,70.84 104.75,70.04 104.87,69.25 104.95,68.45 105.02,67.65 105.06,66.85 105.07,66.05 
			105.06,65.25 105.03,64.45 104.97,63.65 104.89,62.86 104.78,62.07 104.65,61.28 104.49,60.5 104.31,59.72 104.1,58.96 
			103.86,58.19 103.61,57.44 103.32,56.69 103.01,55.96 102.68,55.23 102.33,54.51 101.95,53.81 101.54,53.12 101.12,52.43 
			100.67,51.77 100.2,51.11 99.71,50.47 99.2,49.84 98.67,49.23 98.12,48.63 97.56,48.05 96.97,47.49 96.37,46.94 95.75,46.41 
			95.12,45.89 94.47,45.39 93.8,44.91 93.13,44.44 92.44,43.99 91.74,43.56 91.03,43.15 90.31,42.76 89.57,42.38 88.84,42.02 
			88.09,41.67 87.33,41.35 86.57,41.04 85.81,40.75 85.04,40.47 		"/>
	</g>
	<g id="HATCH_64_">
		<polygon class="st2" points="46.75,93.58 47.72,94.22 48.71,94.83 49.71,95.41 50.74,95.96 51.78,96.48 89.34,31.42 88.37,30.78 
			87.38,30.17 86.38,29.59 85.36,29.04 84.32,28.52 		"/>
	</g>
	<g id="HATCH_63_">
		<polygon class="st3" points="69.45,34.75 69.48,34.79 69.51,34.84 69.55,34.89 69.58,34.94 69.61,34.99 69.64,35.04 69.66,35.09 
			69.69,35.14 69.72,35.2 69.74,35.25 69.77,35.31 69.79,35.36 69.82,35.42 69.84,35.48 69.86,35.54 69.88,35.6 69.9,35.66 
			69.91,35.72 69.93,35.79 69.95,35.85 69.96,35.91 69.97,35.98 69.99,36.04 70,36.11 70.01,36.18 70.02,36.25 70.02,36.32 
			70.03,36.39 70.03,36.46 70.04,36.53 70.04,36.68 70.04,36.82 70.03,36.98 70.02,37.13 70.01,37.29 69.99,37.45 69.96,37.61 
			69.93,37.77 69.89,37.94 69.84,38.11 69.8,38.28 69.74,38.45 69.68,38.62 69.62,38.8 69.55,38.97 69.47,39.15 69.39,39.33 
			69.31,39.51 69.22,39.68 69.12,39.86 69.02,40.04 68.92,40.22 68.81,40.4 68.7,40.58 68.58,40.76 68.46,40.93 68.33,41.11 
			68.07,41.46 67.8,41.8 67.51,42.14 67.21,42.46 66.9,42.78 66.58,43.09 66.26,43.39 65.93,43.68 65.6,43.95 65.27,44.22 
			64.93,44.47 64.59,44.71 64.24,44.95 63.88,45.18 63.51,45.4 63.12,45.62 62.73,45.83 62.34,46.03 61.93,46.21 61.53,46.38 
			61.11,46.54 60.7,46.69 60.5,46.75 60.29,46.81 60.09,46.87 59.88,46.93 59.68,46.98 59.48,47.02 59.28,47.06 59.08,47.1 
			58.88,47.13 58.68,47.16 58.49,47.18 58.3,47.2 58.11,47.21 57.92,47.22 57.74,47.22 57.56,47.22 57.38,47.22 57.21,47.21 
			57.04,47.19 56.87,47.17 56.71,47.15 56.55,47.12 56.4,47.09 56.25,47.05 56.1,47.01 55.96,46.97 55.82,46.92 55.76,46.9 
			55.69,46.87 55.62,46.84 55.56,46.81 55.5,46.79 55.44,46.76 55.38,46.72 55.32,46.69 55.26,46.66 55.2,46.63 55.15,46.59 
			55.09,46.56 55.04,46.52 54.99,46.49 54.93,46.45 54.88,46.41 54.84,46.37 54.79,46.33 54.74,46.29 54.7,46.25 54.65,46.21 
			54.61,46.17 54.57,46.13 54.52,46.09 54.48,46.04 54.45,46 54.41,45.95 54.37,45.91 54.34,45.86 54.3,45.82 54.27,45.77 
			54.24,45.72 54.2,45.67 54.17,45.63 54.14,45.58 54.11,45.52 54.09,45.47 54.06,45.42 54.03,45.37 54.01,45.31 53.98,45.25 
			53.96,45.2 53.93,45.14 53.91,45.08 53.89,45.02 53.87,44.96 53.85,44.9 53.84,44.84 53.82,44.78 53.8,44.71 53.79,44.65 
			53.78,44.59 53.76,44.52 53.75,44.45 53.74,44.38 53.73,44.32 53.73,44.25 53.72,44.18 53.72,44.11 53.71,44.03 53.71,43.89 
			53.71,43.74 53.71,43.59 53.73,43.43 53.74,43.28 53.76,43.12 53.79,42.96 53.82,42.79 53.86,42.62 53.91,42.46 53.95,42.29 
			54.01,42.11 54.07,41.94 54.13,41.77 54.2,41.59 54.28,41.41 54.36,41.24 54.44,41.06 54.53,40.88 54.63,40.7 54.73,40.52 
			54.83,40.34 54.94,40.16 55.05,39.99 55.17,39.81 55.29,39.63 55.42,39.45 55.68,39.11 55.95,38.76 56.24,38.43 56.54,38.1 
			56.85,37.78 57.17,37.47 57.49,37.17 57.82,36.89 58.15,36.61 58.48,36.35 58.82,36.1 59.16,35.85 59.51,35.62 59.87,35.38 
			60.24,35.16 60.63,34.94 61.02,34.73 61.41,34.54 61.82,34.35 62.22,34.18 62.64,34.02 63.05,33.88 63.25,33.81 63.46,33.75 
			63.66,33.69 63.87,33.64 64.07,33.59 64.27,33.54 64.47,33.5 64.67,33.47 64.87,33.43 65.07,33.41 65.26,33.39 65.45,33.37 
			65.64,33.35 65.83,33.35 66.01,33.34 66.19,33.34 66.37,33.35 66.54,33.36 66.71,33.37 66.88,33.39 67.04,33.41 67.2,33.44 
			67.35,33.47 67.5,33.51 67.65,33.55 67.79,33.59 67.93,33.64 67.99,33.67 68.06,33.69 68.13,33.72 68.19,33.75 68.25,33.78 
			68.31,33.81 68.37,33.84 68.43,33.87 68.49,33.9 68.55,33.94 68.6,33.97 68.66,34 68.71,34.04 68.76,34.08 68.82,34.11 
			68.87,34.15 68.91,34.19 68.96,34.23 69.01,34.27 69.05,34.31 69.1,34.35 69.14,34.39 69.18,34.43 69.23,34.48 69.26,34.52 
			69.3,34.56 69.34,34.61 69.38,34.65 69.41,34.7 		"/>
	</g>
	<g>
		<g id="LINE_17_">
			<line class="st4" x1="44.51" y1="109.07" x2="96.61" y2="18.83"/>
		</g>
		<g id="ARC_17_">
			<path class="st4" d="M96.61,18.83c22.24,14.55,30,43.49,18.01,67.2c-13,25.72-44.39,36.03-70.1,23.03"/>
		</g>
		<g id="LINE_16_">
			<line class="st4" x1="39.49" y1="106.17" x2="91.58" y2="15.93"/>
		</g>
		<g id="ARC_16_">
			<path class="st4" d="M91.58,15.93c-25.72-13-57.11-2.69-70.1,23.03c-11.99,23.72-4.23,52.66,18.01,67.2"/>
		</g>
	</g>
</g>
<g>
	<g id="HATCH_62_">
		<polygon class="st1" points="150.96,105.76 150.96,75.72 156.1,75.72 156.1,101.33 170.65,101.33 170.65,105.76 		"/>
	</g>
	<g id="HATCH_61_">
		<polygon class="st1" points="502.44,105.76 502.44,75.72 525.52,75.72 525.52,80.15 507.58,80.15 507.58,88.15 524.3,88.15 
			524.3,92.53 507.58,92.53 507.58,101.33 526.36,101.33 526.36,105.76 		"/>
	</g>
	<g id="HATCH_60_">
		<polygon class="st1" points="417.97,84.4 417.69,83.68 417.41,82.93 416.85,81.29 416.34,82.76 415.73,84.43 407.4,105.76 
			402.01,105.76 414.27,75.72 419.53,75.72 431.6,105.76 426.28,105.76 422.99,97.34 412.55,97.34 414.22,93.06 421.34,93.06 		"/>
	</g>
	<g id="HATCH_59_">
		<polygon class="st1" points="313.21,84.14 316.86,77.81 317.3,78.11 317.74,78.43 318.16,78.76 318.57,79.11 318.97,79.47 
			319.35,79.84 319.73,80.23 320.09,80.63 320.43,81.05 320.76,81.47 321.07,81.91 321.37,82.35 321.66,82.81 321.93,83.28 
			322.18,83.75 322.41,84.23 322.63,84.73 322.83,85.22 323.01,85.73 323.18,86.24 323.33,86.76 323.45,87.28 323.57,87.81 
			323.66,88.34 323.73,88.87 323.79,89.4 323.82,89.94 323.84,90.48 323.84,91.02 323.82,91.55 323.78,92.09 323.73,92.62 
			323.65,93.16 323.56,93.69 323.45,94.21 323.32,94.73 323.17,95.25 323,95.76 322.82,96.27 322.62,96.77 322.4,97.26 
			322.16,97.74 321.91,98.21 321.64,98.68 321.36,99.14 321.05,99.58 320.74,100.02 320.41,100.44 320.06,100.85 319.7,101.25 
			319.33,101.64 318.94,102.01 318.54,102.37 318.13,102.72 317.71,103.05 317.27,103.37 316.83,103.67 316.37,103.95 
			315.91,104.22 315.43,104.48 314.95,104.71 314.46,104.93 313.96,105.13 313.46,105.32 312.94,105.49 312.43,105.63 
			311.91,105.77 311.38,105.88 310.85,105.97 310.32,106.05 309.78,106.11 309.25,106.14 308.71,106.16 308.17,106.17 
			307.64,106.15 307.1,106.11 306.56,106.06 306.03,105.98 305.5,105.89 304.98,105.78 304.45,105.65 303.94,105.51 303.42,105.34 
			302.92,105.16 302.42,104.96 301.93,104.74 301.44,104.51 303.59,100.78 303.81,100.88 304.03,100.98 304.25,101.07 
			304.48,101.16 304.71,101.24 304.94,101.32 305.18,101.4 305.42,101.47 305.66,101.53 305.91,101.59 306.16,101.65 306.41,101.7 
			306.67,101.74 306.92,101.78 307.18,101.81 307.44,101.83 307.71,101.85 307.97,101.87 308.24,101.88 308.5,101.88 308.77,101.87 
			309.04,101.86 309.31,101.84 309.58,101.81 309.84,101.78 310.11,101.74 310.38,101.7 310.65,101.65 310.91,101.59 311.18,101.53 
			311.44,101.45 311.7,101.38 311.96,101.29 312.22,101.2 312.48,101.11 312.73,101 312.98,100.9 313.23,100.78 313.47,100.66 
			313.71,100.54 313.94,100.4 314.18,100.27 314.4,100.13 314.63,99.98 314.85,99.83 315.06,99.67 315.27,99.51 315.48,99.35 
			315.68,99.18 315.88,99 316.07,98.83 316.25,98.65 316.43,98.47 316.61,98.28 316.78,98.09 316.94,97.9 317.1,97.71 317.25,97.51 
			317.4,97.31 317.54,97.11 317.68,96.91 317.81,96.71 317.94,96.51 318.06,96.3 318.18,96.1 318.29,95.89 318.4,95.68 318.5,95.46 
			318.6,95.24 318.69,95.02 318.78,94.8 318.86,94.58 318.94,94.35 319.01,94.12 319.07,93.89 319.13,93.66 319.18,93.43 
			319.23,93.2 319.27,92.96 319.3,92.73 319.33,92.49 319.35,92.25 319.36,92.02 319.36,91.78 319.36,91.54 319.35,91.31 
			319.33,91.07 319.31,90.84 319.28,90.6 319.24,90.37 319.19,90.14 319.14,89.91 319.07,89.68 319,89.46 318.93,89.23 
			318.84,89.01 318.75,88.79 318.65,88.58 318.55,88.37 318.44,88.16 318.32,87.95 318.19,87.75 318.06,87.55 317.92,87.36 
			317.78,87.17 317.63,86.99 317.47,86.8 317.31,86.63 317.14,86.46 316.97,86.29 316.79,86.13 316.6,85.97 316.42,85.82 
			316.22,85.67 316.03,85.52 315.83,85.39 315.62,85.25 315.42,85.13 315.21,85.01 314.99,84.89 314.78,84.78 314.56,84.67 
			314.34,84.57 314.11,84.47 313.89,84.38 313.66,84.29 313.43,84.21 		"/>
	</g>
	<g id="HATCH_58_">
		<polygon class="st1" points="303.61,97.32 299.96,103.65 299.51,103.35 299.08,103.03 298.66,102.7 298.24,102.35 297.85,101.99 
			297.46,101.62 297.09,101.23 296.73,100.83 296.38,100.41 296.05,99.99 295.74,99.55 295.44,99.11 295.16,98.65 294.89,98.18 
			294.64,97.71 294.4,97.23 294.18,96.73 293.98,96.23 293.8,95.73 293.64,95.22 293.49,94.7 293.36,94.18 293.25,93.65 
			293.16,93.12 293.08,92.59 293.03,92.05 292.99,91.52 292.97,90.98 292.97,90.44 292.99,89.91 293.03,89.37 293.09,88.84 
			293.16,88.3 293.26,87.77 293.37,87.25 293.5,86.73 293.65,86.21 293.81,85.7 294,85.19 294.2,84.69 294.42,84.2 294.65,83.72 
			294.91,83.24 295.17,82.78 295.46,82.32 295.76,81.88 296.08,81.44 296.41,81.02 296.75,80.61 297.11,80.21 297.49,79.82 
			297.87,79.45 298.27,79.09 298.68,78.74 299.11,78.41 299.54,78.09 299.99,77.79 300.44,77.51 300.91,77.24 301.38,76.98 
			301.86,76.75 302.36,76.53 302.85,76.33 303.36,76.14 303.87,75.97 304.39,75.82 304.91,75.69 305.43,75.58 305.96,75.49 
			306.5,75.41 307.03,75.35 307.57,75.31 308.1,75.3 308.64,75.29 309.18,75.31 309.72,75.35 310.25,75.4 310.78,75.48 
			311.31,75.57 311.84,75.68 312.36,75.81 312.88,75.95 313.39,76.12 313.9,76.3 314.4,76.5 314.89,76.72 315.37,76.95 
			313.22,80.68 313.01,80.58 312.79,80.48 312.56,80.39 312.34,80.3 312.11,80.21 311.87,80.14 311.63,80.06 311.39,79.99 
			311.15,79.93 310.9,79.87 310.65,79.81 310.4,79.76 310.15,79.72 309.89,79.68 309.63,79.65 309.37,79.62 309.11,79.61 
			308.84,79.59 308.58,79.58 308.31,79.58 308.04,79.59 307.78,79.6 307.51,79.62 307.24,79.64 306.97,79.68 306.7,79.71 
			306.43,79.76 306.17,79.81 305.9,79.87 305.63,79.93 305.37,80 305.11,80.08 304.85,80.17 304.59,80.26 304.34,80.35 
			304.08,80.46 303.84,80.56 303.59,80.68 303.35,80.8 303.11,80.92 302.87,81.06 302.64,81.19 302.41,81.33 302.19,81.48 
			301.97,81.63 301.75,81.79 301.54,81.95 301.34,82.11 301.13,82.28 300.94,82.45 300.75,82.63 300.56,82.81 300.38,82.99 
			300.21,83.18 300.04,83.37 299.87,83.56 299.71,83.75 299.56,83.95 299.41,84.15 299.27,84.35 299.13,84.55 299,84.75 
			298.88,84.95 298.75,85.16 298.64,85.36 298.53,85.57 298.42,85.78 298.32,86 298.22,86.22 298.12,86.44 298.04,86.66 
			297.96,86.88 297.88,87.11 297.81,87.34 297.74,87.57 297.68,87.8 297.63,88.03 297.59,88.26 297.55,88.5 297.51,88.73 
			297.49,88.97 297.47,89.21 297.46,89.44 297.45,89.68 297.45,89.92 297.46,90.15 297.48,90.39 297.51,90.62 297.54,90.86 
			297.58,91.09 297.62,91.32 297.68,91.55 297.74,91.78 297.81,92 297.89,92.23 297.97,92.45 298.06,92.67 298.16,92.88 
			298.27,93.09 298.38,93.3 298.5,93.51 298.62,93.71 298.75,93.91 298.89,94.1 299.04,94.29 299.19,94.47 299.35,94.66 
			299.51,94.83 299.68,95 299.85,95.17 300.03,95.33 300.21,95.49 300.4,95.64 300.59,95.79 300.79,95.93 300.99,96.07 301.19,96.2 
			301.4,96.33 301.61,96.45 301.82,96.57 302.04,96.68 302.26,96.79 302.48,96.89 302.7,96.99 302.93,97.08 303.15,97.17 
			303.38,97.25 		"/>
	</g>
	<g id="HATCH_57_">
		<polygon class="st1" points="205.68,106.17 206.36,106.16 206.7,106.14 207.04,106.12 207.38,106.09 207.72,106.06 208.06,106.02 
			208.39,105.97 208.71,105.92 209.02,105.86 209.33,105.8 209.63,105.73 209.94,105.65 210.25,105.57 210.55,105.48 210.85,105.38 
			211.13,105.28 211.41,105.17 211.69,105.06 211.97,104.94 212.24,104.81 212.51,104.68 212.77,104.54 213.03,104.39 
			213.28,104.24 213.52,104.09 213.76,103.93 214,103.76 214.23,103.58 214.45,103.4 214.67,103.22 214.89,103.03 215.09,102.83 
			215.29,102.63 215.49,102.42 215.68,102.2 215.86,101.99 216.04,101.76 216.21,101.53 216.38,101.3 216.54,101.06 216.69,100.81 
			216.84,100.56 216.98,100.31 217.11,100.05 217.24,99.78 217.36,99.51 217.48,99.24 217.59,98.96 217.69,98.67 217.78,98.38 
			217.87,98.09 217.95,97.79 218.02,97.5 218.08,97.2 218.14,96.9 218.19,96.58 218.23,96.26 218.27,95.93 218.3,95.61 
			218.33,95.28 218.34,94.96 218.35,94.63 218.36,94.31 218.36,75.72 213.24,75.72 213.24,94.08 213.23,94.54 213.22,94.77 
			213.21,94.99 213.19,95.22 213.17,95.45 213.14,95.68 213.11,95.9 213.08,96.1 213.04,96.3 213,96.49 212.96,96.69 212.91,96.88 
			212.85,97.08 212.8,97.27 212.73,97.46 212.67,97.63 212.6,97.8 212.53,97.96 212.46,98.13 212.38,98.29 212.3,98.45 
			212.21,98.61 212.12,98.76 212.02,98.9 211.93,99.04 211.83,99.18 211.72,99.32 211.61,99.45 211.5,99.58 211.38,99.7 
			211.26,99.82 211.14,99.94 211.01,100.06 210.88,100.17 210.75,100.28 210.61,100.38 210.47,100.48 210.33,100.57 210.19,100.67 
			210.04,100.76 209.88,100.84 209.72,100.92 209.56,101 209.4,101.07 209.24,101.14 209.07,101.21 208.9,101.27 208.72,101.33 
			208.53,101.39 208.35,101.44 208.16,101.49 207.97,101.53 207.78,101.57 207.59,101.61 207.4,101.64 207.18,101.67 206.96,101.7 
			206.75,101.72 206.53,101.73 206.31,101.75 206.09,101.76 205.66,101.76 205.23,101.76 205.02,101.75 204.81,101.74 204.6,101.72 
			204.39,101.7 204.18,101.67 203.97,101.64 203.79,101.61 203.6,101.58 203.42,101.54 203.24,101.5 203.06,101.45 202.88,101.4 
			202.7,101.35 202.53,101.29 202.37,101.23 202.21,101.17 202.06,101.1 201.9,101.03 201.75,100.96 201.6,100.88 201.46,100.8 
			201.31,100.71 201.18,100.62 201.05,100.53 200.92,100.44 200.79,100.34 200.67,100.23 200.54,100.13 200.43,100.02 200.31,99.91 
			200.2,99.79 200.09,99.67 199.99,99.54 199.89,99.42 199.79,99.29 199.7,99.15 199.61,99.02 199.53,98.88 199.44,98.73 
			199.36,98.58 199.28,98.42 199.21,98.27 199.14,98.11 199.07,97.95 199.01,97.79 198.96,97.62 198.9,97.44 198.84,97.25 
			198.79,97.06 198.75,96.88 198.71,96.69 198.67,96.5 198.63,96.3 198.61,96.11 198.58,95.89 198.55,95.67 198.53,95.45 
			198.51,95.23 198.49,94.79 198.49,94.35 198.49,75.72 193.35,75.72 193.35,94.67 193.35,94.99 193.36,95.31 193.38,95.63 
			193.4,95.94 193.43,96.26 193.46,96.57 193.51,96.88 193.56,97.2 193.62,97.49 193.68,97.78 193.75,98.06 193.83,98.35 
			193.91,98.63 194,98.91 194.1,99.19 194.21,99.47 194.32,99.73 194.44,99.99 194.56,100.25 194.7,100.51 194.84,100.75 
			194.98,100.99 195.13,101.23 195.29,101.47 195.45,101.69 195.62,101.91 195.79,102.13 195.97,102.34 196.16,102.55 
			196.35,102.75 196.55,102.95 196.75,103.14 196.96,103.32 197.17,103.5 197.39,103.68 197.62,103.85 197.84,104.01 198.08,104.16 
			198.31,104.31 198.56,104.46 198.81,104.6 199.07,104.73 199.33,104.86 199.59,104.99 199.86,105.1 200.13,105.21 200.41,105.31 
			200.68,105.41 200.97,105.5 201.27,105.59 201.56,105.67 201.86,105.75 202.16,105.81 202.46,105.88 202.76,105.93 203.06,105.98 
			203.38,106.02 203.71,106.06 204.04,106.1 204.36,106.12 204.69,106.14 205.02,106.16 		"/>
	</g>
	<g id="HATCH_56_">
		<polygon class="st1" points="241.76,90.61 241.78,91.31 241.81,92.02 241.86,92.73 241.94,93.43 242.03,94.09 242.09,94.42 
			242.15,94.74 242.22,95.07 242.3,95.39 242.38,95.71 242.46,96.03 242.55,96.34 242.65,96.64 242.75,96.94 242.85,97.24 
			242.97,97.53 243.09,97.82 243.21,98.12 243.34,98.4 243.47,98.68 243.61,98.95 243.76,99.22 243.91,99.49 244.06,99.75 
			244.22,100.01 244.39,100.27 244.57,100.52 244.74,100.76 244.92,100.99 245.11,101.23 245.3,101.45 245.49,101.68 245.7,101.9 
			245.9,102.11 246.11,102.32 246.33,102.52 246.55,102.72 246.78,102.91 247.01,103.1 247.25,103.28 247.49,103.46 247.73,103.63 
			247.98,103.79 248.24,103.96 248.5,104.12 248.76,104.27 249.03,104.41 249.31,104.55 249.58,104.68 249.86,104.81 250.14,104.93 
			250.43,105.05 250.73,105.16 251.03,105.27 251.33,105.37 251.63,105.46 251.94,105.55 252.24,105.63 252.55,105.7 252.88,105.77 
			253.21,105.84 253.54,105.9 253.87,105.95 254.2,106 254.53,106.04 255.2,106.1 255.9,106.15 256.61,106.17 257.25,106.16 
			257.88,106.15 258.49,106.11 259.09,106.06 259.68,106 260.28,105.92 260.86,105.82 261.43,105.7 262,105.57 262.57,105.43 
			263.12,105.26 263.67,105.09 264.21,104.89 264.75,104.68 265.26,104.46 265.77,104.22 266.26,103.97 266.75,103.7 267.22,103.43 
			267.68,103.14 268.12,102.83 268.34,102.67 268.56,102.51 268.97,102.18 269.18,102.01 269.38,101.83 269.58,101.65 
			269.77,101.47 269.96,101.29 270.15,101.1 270.33,100.92 270.33,90.11 256.89,90.11 256.89,94.62 265.5,94.62 265.5,98.93 
			265.35,99.05 265.2,99.18 265.05,99.3 264.9,99.42 264.74,99.53 264.58,99.65 264.42,99.75 264.26,99.86 264.08,99.97 
			263.89,100.07 263.71,100.18 263.52,100.28 263.33,100.37 263.13,100.46 262.94,100.55 262.75,100.63 262.53,100.72 
			262.32,100.81 261.88,100.97 261.64,101.05 261.4,101.12 261.16,101.19 260.91,101.26 260.66,101.32 260.41,101.38 260.16,101.44 
			259.91,101.49 259.4,101.58 258.88,101.65 258.35,101.7 257.82,101.74 257.28,101.76 256.75,101.76 256.29,101.75 255.84,101.72 
			255.61,101.7 255.38,101.68 255.16,101.65 254.93,101.62 254.72,101.59 254.52,101.55 254.31,101.51 254.11,101.46 253.9,101.41 
			253.7,101.36 253.5,101.3 253.3,101.23 253.11,101.17 252.92,101.1 252.74,101.03 252.56,100.95 252.38,100.87 252.2,100.79 
			252.02,100.7 251.85,100.61 251.68,100.51 251.51,100.41 251.35,100.31 251.19,100.2 251.03,100.09 250.87,99.98 250.72,99.86 
			250.57,99.74 250.42,99.61 250.27,99.48 250.12,99.35 249.98,99.21 249.84,99.07 249.71,98.92 249.58,98.78 249.45,98.63 
			249.32,98.47 249.2,98.31 249.08,98.15 248.96,97.99 248.84,97.82 248.73,97.65 248.63,97.48 248.52,97.31 248.42,97.13 
			248.32,96.94 248.23,96.76 248.14,96.57 248.05,96.38 247.97,96.19 247.89,96 247.81,95.8 247.74,95.59 247.66,95.38 247.6,95.17 
			247.53,94.96 247.47,94.75 247.41,94.53 247.31,94.1 247.26,93.87 247.22,93.63 247.14,93.16 247.08,92.68 247.03,92.2 247,91.69 
			246.97,91.18 246.97,90.65 246.97,90.11 246.99,89.61 247.02,89.11 247.07,88.61 247.12,88.11 247.19,87.65 247.28,87.2 
			247.37,86.75 247.43,86.53 247.49,86.31 247.54,86.11 247.6,85.91 247.67,85.71 247.74,85.51 247.81,85.31 247.88,85.12 
			247.96,84.92 248.05,84.73 248.13,84.55 248.21,84.37 248.3,84.2 248.4,84.03 248.49,83.86 248.6,83.69 248.7,83.52 248.81,83.36 
			248.91,83.2 249.03,83.05 249.14,82.89 249.26,82.75 249.38,82.6 249.5,82.46 249.63,82.32 249.76,82.18 249.9,82.05 
			250.03,81.92 250.17,81.8 250.31,81.68 250.45,81.56 250.6,81.45 250.75,81.34 250.9,81.23 251.06,81.13 251.21,81.03 
			251.38,80.94 251.54,80.84 251.71,80.76 251.87,80.67 252.05,80.59 252.22,80.52 252.4,80.44 252.58,80.37 252.76,80.3 
			252.95,80.24 253.14,80.18 253.34,80.13 253.53,80.07 253.73,80.02 253.94,79.98 254.16,79.93 254.37,79.89 254.59,79.86 
			254.8,79.83 255.02,79.8 255.45,79.76 255.92,79.73 256.39,79.72 256.68,79.72 256.97,79.72 257.26,79.73 257.55,79.74 
			257.83,79.76 258.1,79.78 258.38,79.81 258.65,79.85 258.93,79.89 259.2,79.94 259.47,79.99 259.74,80.05 259.98,80.11 
			260.21,80.18 260.44,80.25 260.67,80.33 260.9,80.41 261.12,80.5 261.35,80.6 261.56,80.71 261.78,80.82 261.89,80.88 
			261.99,80.94 262.1,81 262.2,81.06 262.3,81.13 262.4,81.2 262.49,81.26 262.58,81.33 262.68,81.4 262.76,81.47 262.94,81.61 
			263.11,81.77 263.27,81.92 263.43,82.08 263.59,82.25 263.74,82.42 263.89,82.61 264.04,82.81 264.18,83.01 264.32,83.22 
			264.45,83.43 264.57,83.64 264.69,83.86 264.81,84.08 265.04,84.54 265.53,84.39 269.93,83.09 269.64,82.44 269.46,82.05 
			269.26,81.66 269.05,81.28 268.83,80.91 268.61,80.56 268.38,80.22 268.14,79.89 268.01,79.73 267.88,79.56 267.75,79.41 
			267.62,79.26 267.49,79.11 267.35,78.97 267.22,78.82 267.07,78.68 266.93,78.54 266.78,78.41 266.64,78.28 266.49,78.15 
			266.34,78.02 266.18,77.9 266.03,77.78 265.87,77.67 265.71,77.55 265.54,77.44 265.38,77.34 265.21,77.23 265.04,77.13 
			264.87,77.04 264.54,76.86 264.21,76.7 263.87,76.54 263.52,76.4 263.13,76.25 262.73,76.12 262.32,75.99 261.91,75.88 
			261.47,75.77 261.03,75.68 260.59,75.6 260.14,75.53 259.65,75.46 259.17,75.41 258.68,75.36 258.2,75.33 257.68,75.31 
			257.17,75.3 256.28,75.3 255.56,75.32 254.84,75.37 254.48,75.4 254.12,75.44 253.76,75.49 253.4,75.54 253.07,75.6 252.74,75.66 
			252.42,75.73 252.09,75.8 251.76,75.88 251.44,75.97 251.12,76.07 250.8,76.17 250.5,76.27 250.21,76.38 249.91,76.5 
			249.62,76.62 249.33,76.75 249.05,76.89 248.77,77.04 248.49,77.19 248.22,77.34 247.96,77.5 247.7,77.67 247.45,77.84 
			247.2,78.02 246.95,78.21 246.71,78.4 246.47,78.6 246.24,78.8 246.02,79.01 245.79,79.23 245.58,79.45 245.37,79.67 
			245.17,79.91 244.97,80.14 244.77,80.38 244.59,80.63 244.41,80.89 244.23,81.14 244.06,81.41 243.9,81.67 243.74,81.94 
			243.59,82.22 243.45,82.49 243.31,82.78 243.17,83.08 243.05,83.38 242.93,83.68 242.81,83.98 242.7,84.29 242.6,84.59 
			242.51,84.91 242.42,85.24 242.33,85.57 242.25,85.91 242.18,86.25 242.11,86.59 242.05,86.93 242,87.27 241.95,87.61 
			241.91,87.98 241.87,88.36 241.81,89.11 241.78,89.86 		"/>
	</g>
	<g id="HATCH_55_">
		<polygon class="st1" points="364.67,87.01 369.78,105.76 375.37,105.76 384.22,75.72 378.86,75.72 378.73,76.17 373.14,96.38 
			372.98,97.02 372.52,98.99 371.3,94.11 366.16,75.72 361.48,75.72 361.36,76.17 355.84,96.01 355.68,96.66 355.15,98.89 
			354.04,94.47 348.74,75.72 343.38,75.72 352.23,105.76 357.82,105.76 357.95,105.31 363.37,85.46 363.53,84.8 363.82,83.55 
			364.06,84.59 364.39,85.97 		"/>
	</g>
	<g id="HATCH_54_">
		<polygon class="st1" points="458.03,93.8 458.03,89.48 458.03,80.08 458.03,75.72 452.89,75.72 452.89,105.76 458.03,105.76 		"/>
	</g>
	<g id="HATCH_44_">
		<polygon class="st1" points="471.21,93.15 471.49,93.07 471.78,92.99 472.06,92.89 472.34,92.79 472.61,92.68 472.89,92.56 
			473.16,92.44 473.42,92.3 473.59,92.21 473.76,92.11 473.92,92.01 474.09,91.9 474.25,91.8 474.41,91.68 474.56,91.57 
			474.72,91.45 474.87,91.33 475.01,91.2 475.15,91.07 475.29,90.94 475.43,90.8 475.57,90.66 475.7,90.52 475.82,90.37 
			475.95,90.23 476.07,90.08 476.18,89.92 476.29,89.77 476.4,89.61 476.51,89.45 476.61,89.29 476.71,89.12 476.8,88.96 
			476.89,88.79 476.98,88.62 477.06,88.44 477.13,88.27 477.21,88.09 477.28,87.91 477.34,87.73 477.4,87.55 477.46,87.36 
			477.51,87.17 477.56,86.98 477.61,86.79 477.65,86.6 477.68,86.41 477.72,86.21 477.75,86.01 477.77,85.81 477.79,85.6 
			477.81,85.4 477.82,85.19 477.83,84.99 477.84,84.78 477.84,84.58 477.84,84.33 477.83,84.09 477.82,83.84 477.8,83.6 
			477.78,83.35 477.74,83.11 477.71,82.87 477.67,82.63 477.62,82.4 477.57,82.18 477.51,81.95 477.45,81.73 477.38,81.51 
			477.3,81.3 477.22,81.08 477.13,80.87 477.04,80.67 476.94,80.47 476.83,80.27 476.72,80.08 476.61,79.89 476.49,79.7 
			476.36,79.52 476.23,79.34 476.09,79.16 475.94,78.99 475.79,78.82 475.64,78.65 475.48,78.49 475.31,78.34 475.14,78.18 
			474.97,78.04 474.79,77.89 474.6,77.75 474.41,77.61 474.21,77.48 474.01,77.36 473.81,77.24 473.6,77.12 473.4,77.01 
			473.17,76.9 472.95,76.8 472.72,76.7 472.49,76.61 472.26,76.52 472.02,76.44 471.79,76.36 471.55,76.29 471.29,76.22 
			471.03,76.15 470.76,76.09 470.5,76.03 470.24,75.98 469.97,75.94 469.44,75.86 469.14,75.83 468.85,75.8 468.25,75.75 
			467.66,75.73 467.06,75.72 459.75,75.72 459.75,80.08 466.68,80.08 467.04,80.09 467.4,80.1 467.76,80.13 468.12,80.16 
			468.43,80.2 468.74,80.25 468.89,80.28 469.05,80.32 469.2,80.35 469.35,80.39 469.48,80.43 469.61,80.47 469.74,80.51 
			469.87,80.56 470,80.6 470.13,80.65 470.26,80.71 470.38,80.77 470.49,80.82 470.6,80.88 470.71,80.94 470.81,81 470.92,81.06 
			471.02,81.13 471.12,81.2 471.22,81.27 471.3,81.34 471.39,81.42 471.47,81.49 471.55,81.57 471.63,81.65 471.71,81.73 
			471.78,81.81 471.86,81.9 471.92,81.99 471.99,82.08 472.05,82.17 472.11,82.26 472.16,82.36 472.21,82.46 472.26,82.55 
			472.31,82.65 472.36,82.76 472.4,82.87 472.44,82.98 472.47,83.1 472.51,83.21 472.54,83.32 472.56,83.44 472.59,83.55 
			472.61,83.68 472.63,83.82 472.65,83.95 472.66,84.08 472.67,84.22 472.68,84.35 472.68,84.48 472.68,84.62 472.68,84.76 
			472.68,84.9 472.67,85.04 472.66,85.18 472.65,85.32 472.63,85.46 472.61,85.59 472.59,85.73 472.56,85.85 472.54,85.98 
			472.51,86.1 472.47,86.22 472.44,86.34 472.4,86.45 472.35,86.57 472.31,86.69 472.26,86.79 472.21,86.9 472.16,87 472.1,87.11 
			472.05,87.21 471.98,87.31 471.92,87.4 471.85,87.5 471.78,87.59 471.71,87.68 471.63,87.77 471.55,87.86 471.47,87.95 
			471.39,88.03 471.3,88.11 471.21,88.19 471.12,88.26 471.02,88.34 470.92,88.41 470.82,88.49 470.71,88.55 470.61,88.62 
			470.5,88.68 470.39,88.74 470.27,88.8 470.15,88.86 470.03,88.91 469.91,88.97 469.78,89.02 469.65,89.06 469.53,89.1 
			469.4,89.14 469.25,89.19 469.11,89.23 468.96,89.26 468.81,89.29 468.66,89.32 468.51,89.35 468.36,89.37 468.22,89.39 
			468.04,89.41 467.87,89.43 467.53,89.46 467.18,89.47 466.84,89.48 459.75,89.48 459.75,93.8 466.05,93.8 473.53,105.76 
			479.52,105.76 		"/>
	</g>
</g>
<g>
	<path class="st5" d="M162.79,62.46c-3.2,0-6.04-0.71-8.51-2.13c-2.47-1.42-4.42-3.38-5.84-5.87c-1.42-2.49-2.13-5.32-2.13-8.48
		c0-3.2,0.71-6.05,2.13-8.54s3.37-4.45,5.84-5.87c2.47-1.42,5.31-2.13,8.51-2.13c3.16,0,5.97,0.71,8.42,2.13
		c2.45,1.42,4.39,3.38,5.81,5.87c1.42,2.49,2.15,5.34,2.19,8.54c0,3.16-0.71,5.99-2.13,8.48c-1.42,2.49-3.37,4.45-5.84,5.87
		C168.76,61.75,165.95,62.46,162.79,62.46z M162.79,57.96c2.21,0,4.19-0.52,5.93-1.57c1.74-1.05,3.1-2.47,4.09-4.27
		c0.99-1.8,1.48-3.84,1.48-6.14c0-2.29-0.49-4.35-1.48-6.17c-0.99-1.82-2.35-3.25-4.09-4.3c-1.74-1.05-3.72-1.57-5.93-1.57
		c-2.21,0-4.2,0.52-5.96,1.57c-1.76,1.05-3.14,2.48-4.15,4.3c-1.01,1.82-1.51,3.87-1.51,6.17c0,2.29,0.5,4.34,1.51,6.14
		c1.01,1.8,2.39,3.22,4.15,4.27C158.59,57.44,160.57,57.96,162.79,57.96z"/>
	<path class="st5" d="M190.59,62.17c-0.79,0-1.4-0.22-1.84-0.65c-0.44-0.43-0.65-1.05-0.65-1.84V32.23c0-0.79,0.22-1.4,0.65-1.84
		c0.43-0.43,1.05-0.65,1.84-0.65c0.79,0,1.39,0.22,1.81,0.65c0.42,0.44,0.62,1.05,0.62,1.84v27.45c0,0.79-0.21,1.4-0.62,1.84
		C191.98,61.95,191.38,62.17,190.59,62.17z M190.29,42.07c0.08-2.41,0.7-4.57,1.87-6.49c1.17-1.92,2.71-3.43,4.62-4.53
		c1.92-1.11,4.02-1.66,6.31-1.66c2.02,0,3.55,0.3,4.59,0.89c1.05,0.59,1.43,1.4,1.16,2.43c-0.12,0.55-0.37,0.95-0.74,1.19
		c-0.38,0.24-0.81,0.36-1.3,0.36c-0.49,0-1.06-0.04-1.69-0.12c-2.33-0.28-4.4-0.13-6.2,0.44c-1.8,0.57-3.23,1.51-4.3,2.82
		s-1.6,2.87-1.6,4.68H190.29z"/>
	<path class="st5" d="M227.94,62.46c-3.12,0-5.91-0.72-8.36-2.16c-2.45-1.44-4.38-3.41-5.78-5.9c-1.4-2.49-2.1-5.3-2.1-8.42
		c0-3.16,0.68-5.99,2.05-8.48c1.36-2.49,3.22-4.46,5.57-5.9c2.35-1.44,5.07-2.16,8.15-2.16c2.37,0,4.56,0.47,6.58,1.39
		c2.02,0.93,3.79,2.32,5.34,4.18c0.47,0.55,0.64,1.12,0.5,1.69c-0.14,0.57-0.5,1.08-1.1,1.51c-0.47,0.32-1,0.43-1.57,0.33
		c-0.57-0.1-1.1-0.4-1.57-0.92c-2.17-2.45-4.9-3.68-8.18-3.68c-2.17,0-4.08,0.51-5.72,1.54c-1.64,1.03-2.92,2.44-3.82,4.24
		c-0.91,1.8-1.36,3.88-1.36,6.25c0,2.29,0.48,4.34,1.45,6.14c0.97,1.8,2.31,3.22,4.03,4.27c1.72,1.05,3.69,1.57,5.9,1.57
		c1.5,0,2.85-0.2,4.06-0.59c1.21-0.39,2.28-1.01,3.23-1.84c0.55-0.43,1.11-0.67,1.66-0.71c0.55-0.04,1.07,0.12,1.54,0.47
		c0.51,0.47,0.81,1.01,0.89,1.6c0.08,0.59-0.12,1.13-0.59,1.6C235.84,61.14,232.25,62.46,227.94,62.46z"/>
	<path class="st5" d="M262.85,62.46c-3,0-5.69-0.72-8.06-2.16c-2.37-1.44-4.25-3.41-5.63-5.9c-1.38-2.49-2.07-5.3-2.07-8.42
		c0-3.16,0.72-5.99,2.16-8.48c1.44-2.49,3.41-4.46,5.9-5.9c2.49-1.44,5.3-2.16,8.42-2.16c3.08,0,5.86,0.72,8.33,2.16
		c2.47,1.44,4.43,3.41,5.87,5.9c1.44,2.49,2.18,5.32,2.22,8.48l-2.02,1.01c0,2.93-0.66,5.55-1.99,7.88
		c-1.32,2.33-3.12,4.18-5.4,5.54C268.32,61.78,265.74,62.46,262.85,62.46z M263.57,57.96c2.21,0,4.18-0.52,5.9-1.57
		c1.72-1.05,3.08-2.48,4.09-4.3c1.01-1.82,1.51-3.85,1.51-6.11c0-2.29-0.5-4.34-1.51-6.14c-1.01-1.8-2.37-3.23-4.09-4.3
		c-1.72-1.07-3.69-1.6-5.9-1.6c-2.17,0-4.14,0.53-5.9,1.6c-1.76,1.07-3.15,2.5-4.18,4.3c-1.03,1.8-1.54,3.84-1.54,6.14
		c0,2.25,0.51,4.29,1.54,6.11c1.03,1.82,2.42,3.25,4.18,4.3C259.43,57.44,261.39,57.96,263.57,57.96z M277.44,62.17
		c-0.71,0-1.31-0.23-1.81-0.68c-0.49-0.45-0.74-1.06-0.74-1.81V49.9l1.13-5.16l3.97,1.25v13.69c0,0.75-0.24,1.35-0.71,1.81
		C278.8,61.94,278.19,62.17,277.44,62.17z"/>
	<path class="st6" d="M317.69,62.46c-2.45,0-4.83-0.4-7.14-1.22c-2.31-0.81-4.16-1.97-5.54-3.47c-0.47-0.51-0.67-1.11-0.59-1.78
		c0.08-0.67,0.39-1.22,0.95-1.66c0.63-0.47,1.27-0.67,1.93-0.59c0.65,0.08,1.19,0.36,1.63,0.83c0.87,1.03,2.08,1.85,3.62,2.46
		c1.54,0.61,3.24,0.92,5.1,0.92c2.73,0,4.73-0.46,6.02-1.39c1.28-0.93,1.95-2.08,1.99-3.47c0-1.34-0.64-2.47-1.93-3.38
		c-1.28-0.91-3.47-1.62-6.55-2.13c-3.99-0.67-6.91-1.8-8.74-3.38c-1.84-1.58-2.76-3.48-2.76-5.69c0-2.02,0.55-3.69,1.66-5.04
		c1.11-1.34,2.56-2.35,4.36-3.02c1.8-0.67,3.74-1.01,5.84-1.01c2.65,0,4.94,0.44,6.88,1.33c1.94,0.89,3.5,2.08,4.68,3.59
		c0.43,0.55,0.62,1.14,0.56,1.75c-0.06,0.61-0.39,1.1-0.98,1.45c-0.51,0.36-1.12,0.47-1.81,0.36c-0.69-0.12-1.27-0.43-1.75-0.95
		c-0.99-1.07-2.11-1.85-3.38-2.34c-1.27-0.49-2.71-0.74-4.33-0.74c-2.06,0-3.72,0.41-4.98,1.22c-1.27,0.81-1.9,1.85-1.9,3.11
		c0,0.87,0.23,1.62,0.68,2.25c0.45,0.63,1.26,1.2,2.43,1.69c1.17,0.49,2.83,0.94,5.01,1.33c2.96,0.51,5.31,1.24,7.02,2.16
		c1.72,0.93,2.94,2.01,3.68,3.23c0.73,1.23,1.1,2.59,1.1,4.09c0,1.86-0.52,3.49-1.57,4.89c-1.05,1.4-2.52,2.52-4.42,3.35
		C322.55,62.05,320.3,62.46,317.69,62.46z"/>
	<path class="st6" d="M345.49,62.17c-1.66,0-3.12-0.44-4.39-1.33c-1.27-0.89-2.25-2.12-2.96-3.71c-0.71-1.58-1.07-3.4-1.07-5.45
		V18.36c0-0.75,0.23-1.35,0.68-1.81c0.45-0.45,1.06-0.68,1.81-0.68c0.71,0,1.29,0.23,1.75,0.68c0.45,0.45,0.68,1.06,0.68,1.81v33.32
		c0,1.62,0.33,2.96,0.98,4c0.65,1.05,1.49,1.57,2.52,1.57h1.48c0.63,0,1.15,0.23,1.54,0.68c0.39,0.46,0.59,1.04,0.59,1.75
		c0,0.75-0.29,1.35-0.86,1.81c-0.57,0.45-1.31,0.68-2.22,0.68H345.49z"/>
	<path class="st6" d="M358.65,23.87c-0.95,0-1.76-0.35-2.43-1.04c-0.67-0.69-1.01-1.51-1.01-2.46c0-0.99,0.35-1.8,1.04-2.43
		c0.69-0.63,1.49-0.95,2.4-0.95c0.91,0,1.71,0.32,2.4,0.95c0.69,0.63,1.04,1.44,1.04,2.43c0,0.95-0.34,1.77-1.01,2.46
		C360.41,23.53,359.6,23.87,358.65,23.87z M358.71,62.17c-0.75,0-1.36-0.23-1.84-0.68c-0.47-0.45-0.71-1.08-0.71-1.87V32.29
		c0-0.79,0.24-1.41,0.71-1.87c0.47-0.45,1.09-0.68,1.84-0.68c0.75,0,1.35,0.23,1.81,0.68c0.45,0.45,0.68,1.08,0.68,1.87v27.33
		c0,0.79-0.23,1.41-0.68,1.87C360.07,61.94,359.46,62.17,358.71,62.17z"/>
	<path class="st6" d="M387.23,62.46c-3.12,0-5.91-0.72-8.36-2.16c-2.45-1.44-4.38-3.41-5.78-5.9c-1.4-2.49-2.1-5.3-2.1-8.42
		c0-3.16,0.68-5.99,2.05-8.48c1.36-2.49,3.22-4.46,5.57-5.9c2.35-1.44,5.07-2.16,8.15-2.16c2.37,0,4.56,0.47,6.58,1.39
		c2.02,0.93,3.79,2.32,5.34,4.18c0.47,0.55,0.64,1.12,0.5,1.69c-0.14,0.57-0.5,1.08-1.1,1.51c-0.47,0.32-1,0.43-1.57,0.33
		c-0.57-0.1-1.1-0.4-1.57-0.92c-2.17-2.45-4.9-3.68-8.18-3.68c-2.17,0-4.08,0.51-5.72,1.54c-1.64,1.03-2.92,2.44-3.82,4.24
		c-0.91,1.8-1.36,3.88-1.36,6.25c0,2.29,0.48,4.34,1.45,6.14c0.97,1.8,2.31,3.22,4.03,4.27c1.72,1.05,3.69,1.57,5.9,1.57
		c1.5,0,2.85-0.2,4.06-0.59c1.21-0.39,2.28-1.01,3.23-1.84c0.55-0.43,1.11-0.67,1.66-0.71c0.55-0.04,1.07,0.12,1.54,0.47
		c0.51,0.47,0.81,1.01,0.89,1.6c0.08,0.59-0.12,1.13-0.59,1.6C395.13,61.14,391.54,62.46,387.23,62.46z"/>
	<path class="st6" d="M422.97,62.46c-3.24,0-6.11-0.7-8.6-2.1c-2.49-1.4-4.45-3.35-5.87-5.84s-2.13-5.34-2.13-8.54
		c0-3.24,0.67-6.1,2.02-8.57c1.34-2.47,3.19-4.42,5.54-5.84c2.35-1.42,5.07-2.13,8.15-2.13c3,0,5.62,0.68,7.85,2.05
		c2.23,1.36,3.95,3.25,5.16,5.66c1.21,2.41,1.81,5.16,1.81,8.24c0,0.67-0.22,1.22-0.65,1.63c-0.44,0.42-0.99,0.62-1.66,0.62h-24.78
		v-4.09h25.08l-2.55,1.78c0.04-2.17-0.36-4.13-1.19-5.87c-0.83-1.74-2.02-3.1-3.56-4.09c-1.54-0.99-3.38-1.48-5.51-1.48
		c-2.25,0-4.22,0.51-5.9,1.54c-1.68,1.03-2.96,2.46-3.85,4.3S411,43.65,411,45.98c0,2.33,0.51,4.41,1.54,6.22
		c1.03,1.82,2.44,3.24,4.24,4.27c1.8,1.03,3.86,1.54,6.19,1.54c1.34,0,2.72-0.24,4.12-0.71c1.4-0.47,2.52-1.07,3.35-1.78
		c0.47-0.36,1.02-0.54,1.63-0.56c0.61-0.02,1.12,0.15,1.51,0.5c0.59,0.51,0.9,1.07,0.92,1.66c0.02,0.59-0.25,1.11-0.8,1.54
		c-1.3,1.11-2.96,2.02-4.98,2.73S424.79,62.46,422.97,62.46z"/>
	<path class="st6" d="M447.1,62.17c-0.79,0-1.4-0.22-1.84-0.65c-0.44-0.43-0.65-1.05-0.65-1.84V32.23c0-0.79,0.22-1.4,0.65-1.84
		c0.43-0.43,1.05-0.65,1.84-0.65c0.79,0,1.39,0.22,1.81,0.65c0.42,0.44,0.62,1.05,0.62,1.84v27.45c0,0.79-0.21,1.4-0.62,1.84
		C448.49,61.95,447.89,62.17,447.1,62.17z M446.81,42.07c0.08-2.41,0.7-4.57,1.87-6.49c1.17-1.92,2.71-3.43,4.62-4.53
		c1.92-1.11,4.02-1.66,6.31-1.66c2.02,0,3.55,0.3,4.59,0.89c1.05,0.59,1.43,1.4,1.16,2.43c-0.12,0.55-0.37,0.95-0.74,1.19
		c-0.38,0.24-0.81,0.36-1.3,0.36c-0.49,0-1.06-0.04-1.69-0.12c-2.33-0.28-4.4-0.13-6.2,0.44c-1.8,0.57-3.23,1.51-4.3,2.82
		s-1.6,2.87-1.6,4.68H446.81z"/>
	<path class="st7" d="M485.91,49.61c-0.33,0-0.6-0.1-0.79-0.29c-0.19-0.19-0.29-0.43-0.29-0.71c0-0.29,0.1-0.54,0.29-0.73
		c0.19-0.19,0.46-0.29,0.79-0.29h7.11c0.31,0,0.57,0.1,0.76,0.29c0.19,0.19,0.29,0.44,0.29,0.73c0,0.28-0.1,0.51-0.29,0.71
		c-0.19,0.19-0.45,0.29-0.76,0.29H485.91z M488.62,62.17c-0.3,0-0.55-0.11-0.77-0.32c-0.22-0.21-0.33-0.5-0.33-0.87V47.09
		c0-1.31,0.23-2.45,0.69-3.43s1.14-1.74,2.03-2.28c0.89-0.54,1.96-0.82,3.2-0.82c0.35,0,0.64,0.1,0.86,0.3
		c0.22,0.2,0.33,0.45,0.33,0.75c0,0.31-0.11,0.57-0.33,0.77c-0.22,0.2-0.51,0.3-0.86,0.3c-0.77,0-1.43,0.18-1.96,0.54
		c-0.54,0.36-0.94,0.86-1.22,1.49c-0.28,0.64-0.42,1.37-0.42,2.2v14.05c0,0.37-0.11,0.66-0.32,0.87
		C489.31,62.06,489.01,62.17,488.62,62.17z"/>
	<path class="st7" d="M503.28,62.31c-1.49,0-2.82-0.33-3.97-1c-1.15-0.66-2.06-1.58-2.73-2.74c-0.66-1.16-1-2.48-1-3.96
		c0-1.49,0.33-2.82,1-3.98c0.66-1.16,1.57-2.08,2.73-2.74c1.15-0.66,2.48-1,3.97-1c1.48,0,2.78,0.33,3.93,1
		c1.14,0.66,2.05,1.58,2.71,2.74c0.66,1.16,1,2.49,1.02,3.98c0,1.48-0.33,2.79-1,3.96c-0.66,1.16-1.57,2.08-2.73,2.74
		C506.07,61.97,504.76,62.31,503.28,62.31z M503.28,60.2c1.03,0,1.95-0.24,2.77-0.73c0.81-0.49,1.45-1.15,1.91-1.99
		c0.46-0.84,0.69-1.79,0.69-2.86c0-1.07-0.23-2.03-0.69-2.88c-0.46-0.85-1.1-1.52-1.91-2.01c-0.81-0.49-1.73-0.73-2.77-0.73
		c-1.03,0-1.96,0.24-2.78,0.73c-0.82,0.49-1.47,1.16-1.94,2.01c-0.47,0.85-0.71,1.81-0.71,2.88c0,1.07,0.24,2.02,0.71,2.86
		c0.47,0.84,1.12,1.5,1.94,1.99C501.32,59.96,502.25,60.2,503.28,60.2z"/>
	<path class="st7" d="M516.26,62.17c-0.37,0-0.65-0.1-0.86-0.3c-0.2-0.2-0.3-0.49-0.3-0.86V48.2c0-0.37,0.1-0.65,0.3-0.86
		c0.2-0.2,0.49-0.3,0.86-0.3c0.37,0,0.65,0.1,0.84,0.3c0.19,0.2,0.29,0.49,0.29,0.86v12.81c0,0.37-0.1,0.66-0.29,0.86
		C516.91,62.07,516.63,62.17,516.26,62.17z M516.12,52.79c0.04-1.12,0.33-2.13,0.87-3.03s1.26-1.6,2.16-2.12
		c0.89-0.52,1.88-0.77,2.95-0.77c0.94,0,1.66,0.14,2.14,0.42c0.49,0.28,0.67,0.65,0.54,1.13c-0.06,0.26-0.17,0.44-0.35,0.55
		s-0.38,0.17-0.61,0.17c-0.23,0-0.49-0.02-0.79-0.06c-1.09-0.13-2.05-0.06-2.89,0.21s-1.51,0.71-2.01,1.31
		c-0.5,0.61-0.75,1.34-0.75,2.19H516.12z"/>
</g>
</svg>
