<?xml version="1.0" encoding="utf-8"?>
<!-- Generator: Adobe Illustrator 24.3.0, SVG Export Plug-In . SVG Version: 6.00 Build 0)  -->
<svg version="1.1" id="레이어_1" xmlns="http://www.w3.org/2000/svg" xmlns:xlink="http://www.w3.org/1999/xlink" x="0px"
	 y="0px" viewBox="0 0 560 125" style="enable-background:new 0 0 560 125;" xml:space="preserve">
<style type="text/css">
	.st0{fill-rule:evenodd;clip-rule:evenodd;fill:#D3D3D3;}
	.st1{fill-rule:evenodd;clip-rule:evenodd;fill:#292927;}
	.st2{fill-rule:evenodd;clip-rule:evenodd;fill:#00FFFF;}
	.st3{fill-rule:evenodd;clip-rule:evenodd;fill:#FFFFFF;}
	.st4{fill:#00FFFF;}
	.st5{fill:#7C8282;}
	.st6{fill:#292927;}
</style>
<g>
	<polygon class="st0" points="74.2,41.97 84.76,23.67 85.76,24.34 86.73,25.04 87.69,25.76 88.62,26.51 89.54,27.28 90.43,28.07 
		91.31,28.89 92.16,29.73 92.99,30.6 93.79,31.48 94.57,32.39 95.33,33.32 96.06,34.27 96.76,35.24 97.44,36.22 98.09,37.23 
		98.72,38.25 99.31,39.29 99.88,40.34 100.42,41.41 100.94,42.49 101.42,43.58 101.87,44.69 102.29,45.81 102.69,46.94 
		103.05,48.08 103.38,49.23 103.68,50.39 103.95,51.56 104.19,52.73 104.4,53.91 104.57,55.09 104.72,56.28 104.83,57.48 
		104.91,58.67 104.95,59.87 104.97,61.06 104.95,62.26 104.9,63.46 104.82,64.65 104.71,65.84 104.57,67.03 104.39,68.21 
		104.18,69.39 103.94,70.57 103.67,71.73 103.37,72.89 103.03,74.04 102.67,75.18 102.27,76.31 101.85,77.43 101.4,78.54 
		100.91,79.63 100.4,80.71 99.86,81.78 99.29,82.83 98.69,83.87 98.06,84.89 97.41,85.89 96.73,86.88 96.02,87.84 95.29,88.79 
		94.53,89.72 93.75,90.63 92.95,91.51 92.12,92.38 91.26,93.22 90.39,94.03 89.49,94.83 88.58,95.6 87.64,96.34 86.68,97.06 
		85.71,97.76 84.72,98.42 83.7,99.06 82.68,99.68 81.63,100.26 80.57,100.82 79.5,101.35 78.41,101.85 77.31,102.32 76.2,102.76 
		75.07,103.17 73.94,103.55 72.79,103.9 71.64,104.22 70.48,104.51 69.31,104.76 68.13,104.99 66.95,105.18 65.76,105.34 
		64.57,105.47 63.38,105.57 62.18,105.63 60.99,105.67 59.79,105.67 58.59,105.64 57.4,105.58 56.21,105.48 55.01,105.36 
		53.83,105.2 52.65,105.01 51.47,104.79 50.3,104.53 49.14,104.25 47.98,103.93 46.84,103.59 45.7,103.21 44.58,102.8 43.46,102.36 
		42.36,101.9 41.27,101.4 40.19,100.87 46.41,90.1 47.03,90.39 47.67,90.67 48.31,90.94 48.97,91.2 49.63,91.44 50.31,91.67 
		51,91.88 51.69,92.09 52.4,92.27 53.11,92.45 53.83,92.6 54.56,92.74 55.3,92.87 56.04,92.98 56.79,93.07 57.54,93.14 58.3,93.2 
		59.07,93.24 59.83,93.26 60.61,93.26 61.38,93.25 62.16,93.21 62.93,93.16 63.71,93.09 64.49,93 65.26,92.89 66.04,92.76 
		66.81,92.61 67.58,92.44 68.35,92.25 69.11,92.05 69.87,91.82 70.62,91.58 71.36,91.32 72.1,91.04 72.83,90.74 73.55,90.43 
		74.26,90.1 74.97,89.75 75.66,89.39 76.34,89.01 77.01,88.61 77.67,88.2 78.32,87.78 78.95,87.34 79.58,86.89 80.18,86.42 
		80.78,85.95 81.36,85.46 81.93,84.96 82.48,84.45 83.01,83.93 83.53,83.4 84.04,82.87 84.53,82.32 85.01,81.77 85.47,81.21 
		85.91,80.64 86.34,80.07 86.75,79.5 87.15,78.91 87.53,78.33 87.89,77.74 88.24,77.15 88.58,76.55 88.9,75.95 89.21,75.33 
		89.51,74.71 89.79,74.09 90.06,73.45 90.32,72.81 90.55,72.16 90.78,71.51 90.98,70.85 91.17,70.18 91.34,69.52 91.49,68.84 
		91.62,68.17 91.74,67.49 91.83,66.81 91.9,66.12 91.96,65.44 91.99,64.75 92.01,64.07 92,63.38 91.97,62.7 91.92,62.02 
		91.85,61.34 91.76,60.66 91.65,59.99 91.51,59.32 91.35,58.66 91.17,58 90.97,57.35 90.75,56.7 90.51,56.07 90.25,55.44 
		89.96,54.81 89.66,54.2 89.33,53.6 88.99,53 88.63,52.42 88.24,51.85 87.84,51.29 87.42,50.74 86.99,50.21 86.53,49.68 
		86.06,49.17 85.58,48.67 85.08,48.19 84.56,47.72 84.03,47.26 83.49,46.82 82.93,46.4 82.37,45.98 81.79,45.58 81.2,45.2 
		80.6,44.83 79.99,44.48 79.37,44.14 78.75,43.82 78.12,43.51 77.48,43.22 76.83,42.94 76.18,42.67 75.53,42.42 74.87,42.19 	"/>
	<polygon class="st0" points="46.46,80.1 35.9,98.39 34.9,97.72 33.93,97.03 32.97,96.31 32.04,95.56 31.12,94.79 30.23,93.99 
		29.35,93.18 28.5,92.33 27.67,91.47 26.87,90.58 26.09,89.67 25.33,88.75 24.6,87.8 23.9,86.83 23.22,85.84 22.57,84.84 
		21.94,83.82 21.35,82.78 20.78,81.73 20.24,80.66 19.72,79.58 19.24,78.48 18.79,77.37 18.37,76.25 17.97,75.12 17.61,73.98 
		17.28,72.83 16.98,71.67 16.71,70.51 16.47,69.33 16.26,68.16 16.09,66.97 15.94,65.78 15.83,64.59 15.75,63.4 15.71,62.2 
		15.69,61 15.71,59.81 15.76,58.61 15.84,57.42 15.95,56.22 16.09,55.04 16.27,53.85 16.48,52.67 16.72,51.5 16.99,50.33 
		17.29,49.18 17.63,48.03 17.99,46.89 18.39,45.76 18.81,44.64 19.27,43.53 19.75,42.43 20.26,41.35 20.8,40.29 21.38,39.23 
		21.97,38.2 22.6,37.18 23.25,36.17 23.93,35.19 24.64,34.22 25.37,33.27 26.13,32.35 26.91,31.44 27.71,30.55 28.54,29.69 
		29.4,28.85 30.27,28.03 31.17,27.24 32.08,26.47 33.02,25.72 33.98,25 34.95,24.31 35.95,23.64 36.96,23 37.98,22.39 39.03,21.8 
		40.09,21.25 41.16,20.72 42.25,20.22 43.35,19.75 44.46,19.31 45.59,18.9 46.72,18.52 47.87,18.17 49.02,17.85 50.18,17.56 
		51.35,17.31 52.53,17.08 53.71,16.89 54.9,16.73 56.09,16.6 57.28,16.5 58.48,16.43 59.67,16.4 60.87,16.4 62.07,16.43 
		63.26,16.49 64.46,16.58 65.65,16.71 66.83,16.87 68.01,17.06 69.19,17.28 70.36,17.53 71.52,17.82 72.68,18.14 73.82,18.48 
		74.96,18.86 76.09,19.27 77.2,19.7 78.3,20.17 79.39,20.67 80.47,21.19 74.25,31.96 73.63,31.67 72.99,31.39 72.35,31.13 
		71.69,30.87 71.03,30.63 70.35,30.4 69.66,30.18 68.97,29.98 68.26,29.79 67.55,29.62 66.83,29.46 66.1,29.32 65.36,29.2 
		64.62,29.09 63.87,29 63.12,28.92 62.36,28.87 61.59,28.83 60.83,28.81 60.05,28.8 59.28,28.82 58.5,28.85 57.73,28.91 
		56.95,28.98 56.17,29.07 55.4,29.18 54.62,29.31 53.85,29.46 53.08,29.63 52.31,29.81 51.55,30.02 50.79,30.24 50.04,30.49 
		49.3,30.75 48.56,31.03 47.83,31.32 47.11,31.64 46.4,31.97 45.69,32.32 45,32.68 44.32,33.06 43.65,33.45 42.99,33.86 
		42.34,34.29 41.71,34.73 41.08,35.18 40.48,35.64 39.88,36.12 39.3,36.61 38.74,37.11 38.18,37.61 37.65,38.13 37.13,38.66 
		36.62,39.2 36.13,39.75 35.65,40.3 35.19,40.86 34.75,41.42 34.32,41.99 33.91,42.57 33.51,43.15 33.13,43.74 32.77,44.33 
		32.42,44.92 32.08,45.51 31.76,46.12 31.45,46.73 31.15,47.35 30.87,47.98 30.6,48.62 30.34,49.26 30.11,49.91 29.89,50.56 
		29.68,51.22 29.49,51.88 29.32,52.55 29.17,53.22 29.04,53.9 28.93,54.58 28.83,55.26 28.76,55.94 28.7,56.63 28.67,57.31 
		28.65,58 28.66,58.68 28.69,59.37 28.74,60.05 28.81,60.73 28.9,61.4 29.02,62.08 29.15,62.74 29.31,63.41 29.49,64.07 
		29.69,64.72 29.91,65.36 30.15,66 30.41,66.63 30.7,67.25 31,67.87 31.33,68.47 31.67,69.06 32.04,69.64 32.42,70.22 32.82,70.78 
		33.24,71.32 33.67,71.86 34.13,72.38 34.6,72.9 35.08,73.39 35.58,73.88 36.1,74.35 36.63,74.8 37.17,75.24 37.73,75.67 
		38.29,76.08 38.87,76.48 39.46,76.87 40.06,77.23 40.67,77.59 41.29,77.93 41.91,78.25 42.54,78.56 43.18,78.85 43.83,79.13 
		44.48,79.39 45.13,79.64 45.79,79.88 	"/>
	<path class="st1" d="M46.46,80.1l27.79-48.14l-0.62-0.29l-0.63-0.28l-0.64-0.27l-0.66-0.26l-0.67-0.24l-0.68-0.23l-0.69-0.22
		l-0.7-0.2l-0.7-0.19l-0.71-0.17l-0.72-0.16l-0.73-0.14l-0.74-0.13l-0.74-0.11L63.87,29l-0.75-0.07l-0.76-0.06l-0.76-0.04
		l-0.77-0.02l-0.77,0l-0.77,0.02l-0.78,0.03l-0.78,0.05l-0.78,0.07l-0.78,0.09l-0.78,0.11l-0.77,0.13l-0.77,0.15l-0.77,0.17
		l-0.77,0.19l-0.76,0.21l-0.76,0.22l-0.75,0.24l-0.74,0.26l-0.74,0.28l-0.73,0.3l-0.72,0.31l-0.71,0.33l-0.7,0.35L45,32.68
		l-0.68,0.38l-0.67,0.39l-0.66,0.41l-0.65,0.42l-0.63,0.44l-0.62,0.45l-0.61,0.46l-0.59,0.48l-0.58,0.49l-0.57,0.5l-0.55,0.51
		l-0.54,0.52l-0.52,0.53l-0.51,0.54l-0.49,0.55l-0.48,0.55l-0.46,0.56l-0.44,0.57l-0.43,0.57l-0.41,0.58l-0.4,0.58l-0.38,0.59
		l-0.37,0.59l-0.35,0.59l-0.34,0.6l-0.32,0.61l-0.31,0.61l-0.3,0.62l-0.28,0.63l-0.27,0.64l-0.25,0.64l-0.24,0.65l-0.22,0.65
		l-0.2,0.66l-0.19,0.66l-0.17,0.67l-0.15,0.67l-0.13,0.68l-0.11,0.68l-0.09,0.68l-0.07,0.68l-0.05,0.68l-0.03,0.69L28.65,58
		l0.01,0.68l0.03,0.68l0.05,0.68l0.07,0.68l0.09,0.68l0.11,0.67l0.14,0.67l0.16,0.66l0.18,0.66l0.2,0.65l0.22,0.65L30.15,66
		l0.26,0.63l0.28,0.62l0.3,0.61l0.32,0.6l0.34,0.59l0.36,0.58l0.38,0.57l0.4,0.56l0.42,0.55l0.44,0.54l0.45,0.52l0.47,0.51l0.49,0.5
		l0.5,0.48l0.52,0.47l0.53,0.46l0.54,0.44l0.56,0.43l0.57,0.41l0.58,0.4l0.59,0.38l0.6,0.37l0.61,0.35l0.62,0.34l0.63,0.32
		l0.63,0.31l0.64,0.29l0.65,0.28l0.65,0.26l0.66,0.25l0.66,0.24L46.46,80.1z M61.53,37.29l0.03,0.04l0.03,0.04l0.03,0.04l0.03,0.04
		l0.03,0.04l0.03,0.04l0.02,0.04l0.02,0.05l0.02,0.05l0.02,0.05l0.02,0.05l0.02,0.05l0.02,0.05l0.02,0.05l0.02,0.05l0.02,0.05
		l0.02,0.05l0.02,0.05l0.01,0.05l0.01,0.05l0.01,0.06l0.01,0.06l0.01,0.06L62,38.46l0.01,0.06l0.01,0.06l0.01,0.06l0.01,0.06l0,0.06
		l0,0.06l0,0.12l0,0.13l-0.01,0.13l-0.01,0.13l-0.01,0.13l-0.02,0.14l-0.02,0.14l-0.03,0.14l-0.03,0.14l-0.04,0.14l-0.04,0.15
		l-0.05,0.15l-0.05,0.15l-0.06,0.15l-0.06,0.15l-0.06,0.15l-0.07,0.15l-0.07,0.15l-0.08,0.15l-0.08,0.15l-0.09,0.15l-0.09,0.15
		l-0.09,0.15l-0.1,0.15l-0.1,0.15l-0.1,0.15l-0.11,0.15l-0.22,0.3l-0.24,0.29l-0.25,0.29l-0.26,0.28l-0.26,0.27l-0.27,0.26
		l-0.28,0.26l-0.28,0.25l-0.28,0.24l-0.29,0.23l-0.29,0.21l-0.29,0.21l-0.3,0.2l-0.31,0.2l-0.32,0.19l-0.33,0.19l-0.33,0.18
		l-0.34,0.17L55.1,47.1l-0.35,0.15l-0.35,0.14l-0.35,0.12l-0.18,0.06l-0.18,0.05l-0.18,0.05l-0.17,0.05l-0.17,0.04L53,47.79
		l-0.17,0.03l-0.17,0.03l-0.17,0.03l-0.17,0.02l-0.17,0.02l-0.16,0.02l-0.16,0.01l-0.16,0.01l-0.16,0l-0.15,0l-0.15,0l-0.15-0.01
		l-0.15-0.01l-0.14-0.02l-0.14-0.02l-0.14-0.02l-0.13-0.03l-0.13-0.03l-0.13-0.03l-0.12-0.04l-0.12-0.04l-0.06-0.02l-0.06-0.02
		l-0.06-0.02l-0.05-0.02l-0.05-0.02l-0.05-0.03l-0.05-0.03l-0.05-0.03l-0.05-0.03l-0.05-0.03l-0.05-0.03l-0.05-0.03l-0.05-0.03
		l-0.04-0.03l-0.04-0.03l-0.04-0.03l-0.04-0.03l-0.04-0.03l-0.04-0.03l-0.04-0.03l-0.04-0.04l-0.04-0.04l-0.04-0.04l-0.04-0.04
		l-0.03-0.04l-0.03-0.04l-0.03-0.04l-0.03-0.04L48.6,46.8l-0.03-0.04l-0.03-0.04l-0.03-0.04l-0.03-0.04l-0.03-0.04l-0.03-0.04
		l-0.03-0.04l-0.02-0.04l-0.02-0.05l-0.02-0.05l-0.02-0.05l-0.02-0.05l-0.02-0.05l-0.02-0.05l-0.02-0.05l-0.02-0.05l-0.02-0.05
		l-0.02-0.05l-0.02-0.05l-0.01-0.05l-0.01-0.05l-0.01-0.06l-0.01-0.06l-0.01-0.06l-0.01-0.06l-0.01-0.06l-0.01-0.06l-0.01-0.06
		l-0.01-0.06l0-0.06l0-0.06l0-0.12l0-0.13l0.01-0.13l0.01-0.13l0.01-0.13l0.02-0.14l0.02-0.14l0.03-0.14l0.03-0.14l0.04-0.14
		l0.04-0.15l0.05-0.15l0.05-0.15l0.06-0.15l0.06-0.15l0.06-0.15l0.07-0.15l0.07-0.15l0.08-0.15l0.08-0.15l0.09-0.15l0.09-0.15
		l0.09-0.15l0.1-0.15l0.1-0.15l0.1-0.15l0.11-0.15l0.22-0.3l0.24-0.29l0.25-0.29l0.26-0.28l0.26-0.27l0.27-0.26l0.28-0.26l0.28-0.25
		l0.28-0.24l0.29-0.23l0.29-0.21l0.29-0.21l0.3-0.2l0.31-0.2l0.32-0.19l0.33-0.19l0.33-0.18l0.34-0.17L55,36.95l0.35-0.15l0.35-0.14
		l0.35-0.12l0.18-0.06l0.18-0.05l0.18-0.05l0.17-0.05l0.17-0.04l0.17-0.04l0.17-0.03l0.17-0.03l0.17-0.03l0.17-0.02l0.17-0.02
		l0.16-0.02l0.16-0.01l0.16-0.01l0.16,0l0.15,0l0.15,0l0.15,0.01l0.15,0.01l0.14,0.02l0.14,0.02l0.14,0.02l0.13,0.03l0.13,0.03
		l0.13,0.03l0.12,0.04l0.12,0.04l0.06,0.02l0.06,0.02l0.06,0.02l0.05,0.02l0.05,0.02l0.05,0.03l0.05,0.03l0.05,0.03l0.05,0.03
		l0.05,0.03l0.05,0.03l0.05,0.03l0.05,0.03l0.04,0.03l0.04,0.03l0.04,0.03l0.04,0.03l0.04,0.03l0.04,0.03l0.04,0.03l0.04,0.04
		l0.04,0.04l0.04,0.04l0.04,0.04l0.03,0.04l0.03,0.04l0.03,0.04l0.03,0.04l0.03,0.04L61.53,37.29z"/>
	<polygon class="st1" points="74.2,41.97 46.41,90.1 47.03,90.39 47.67,90.67 48.31,90.94 48.97,91.2 49.63,91.44 50.31,91.67 
		51,91.88 51.69,92.09 52.4,92.27 53.11,92.45 53.83,92.6 54.56,92.74 55.3,92.87 56.04,92.98 56.79,93.07 57.54,93.14 58.3,93.2 
		59.07,93.24 59.83,93.26 60.61,93.26 61.38,93.25 62.16,93.21 62.93,93.16 63.71,93.09 64.49,93 65.26,92.89 66.04,92.76 
		66.81,92.61 67.58,92.44 68.35,92.25 69.11,92.05 69.87,91.82 70.62,91.58 71.36,91.32 72.1,91.04 72.83,90.74 73.55,90.43 
		74.26,90.1 74.97,89.75 75.66,89.39 76.34,89.01 77.01,88.61 77.67,88.2 78.32,87.78 78.95,87.34 79.58,86.89 80.18,86.42 
		80.78,85.95 81.36,85.46 81.93,84.96 82.48,84.45 83.01,83.93 83.53,83.4 84.04,82.87 84.53,82.32 85.01,81.77 85.47,81.21 
		85.91,80.64 86.34,80.07 86.75,79.5 87.15,78.91 87.53,78.33 87.89,77.74 88.24,77.15 88.58,76.55 88.9,75.95 89.21,75.33 
		89.51,74.71 89.79,74.09 90.06,73.45 90.32,72.81 90.55,72.16 90.78,71.51 90.98,70.85 91.17,70.18 91.34,69.52 91.49,68.84 
		91.62,68.17 91.74,67.49 91.83,66.81 91.9,66.12 91.96,65.44 91.99,64.75 92.01,64.07 92,63.38 91.97,62.7 91.92,62.02 
		91.85,61.34 91.76,60.66 91.65,59.99 91.51,59.32 91.35,58.66 91.17,58 90.97,57.35 90.75,56.7 90.51,56.07 90.25,55.44 
		89.96,54.81 89.66,54.2 89.33,53.6 88.99,53 88.63,52.42 88.24,51.85 87.84,51.29 87.42,50.74 86.99,50.21 86.53,49.68 
		86.06,49.17 85.58,48.67 85.08,48.19 84.56,47.72 84.03,47.26 83.49,46.82 82.93,46.4 82.37,45.98 81.79,45.58 81.2,45.2 
		80.6,44.83 79.99,44.48 79.37,44.14 78.75,43.82 78.12,43.51 77.48,43.22 76.83,42.94 76.18,42.67 75.53,42.42 74.87,42.19 	"/>
	<polygon class="st2" points="42.11,87.62 42.94,88.17 43.79,88.7 44.65,89.19 45.52,89.66 46.41,90.1 78.55,34.44 77.72,33.89 
		76.87,33.37 76.01,32.87 75.14,32.4 74.25,31.96 	"/>
	<polygon class="st3" points="61.53,37.29 61.56,37.33 61.59,37.37 61.61,37.41 61.64,37.45 61.67,37.5 61.69,37.54 61.71,37.58 
		61.74,37.63 61.76,37.68 61.78,37.72 61.8,37.77 61.82,37.82 61.84,37.87 61.86,37.92 61.88,37.97 61.9,38.02 61.91,38.07 
		61.93,38.12 61.94,38.18 61.96,38.23 61.97,38.29 61.98,38.34 61.99,38.4 62,38.46 62.01,38.51 62.02,38.57 62.02,38.63 
		62.03,38.69 62.03,38.75 62.03,38.81 62.04,38.94 62.04,39.07 62.03,39.2 62.02,39.33 62.01,39.46 61.99,39.6 61.97,39.74 
		61.94,39.88 61.91,40.02 61.87,40.16 61.83,40.31 61.78,40.46 61.73,40.6 61.67,40.75 61.62,40.9 61.55,41.06 61.48,41.21 
		61.41,41.36 61.33,41.51 61.25,41.67 61.17,41.82 61.08,41.97 60.98,42.13 60.89,42.28 60.79,42.43 60.68,42.58 60.58,42.73 
		60.35,43.03 60.12,43.32 59.87,43.61 59.61,43.89 59.35,44.16 59.08,44.43 58.8,44.68 58.52,44.93 58.24,45.17 57.95,45.39 
		57.67,45.61 57.38,45.81 57.08,46.02 56.76,46.22 56.45,46.41 56.12,46.59 55.78,46.77 55.44,46.94 55.1,47.1 54.75,47.25 
		54.4,47.38 54.05,47.5 53.87,47.56 53.7,47.61 53.52,47.66 53.35,47.71 53.17,47.75 53,47.79 52.83,47.82 52.66,47.86 52.49,47.88 
		52.32,47.91 52.15,47.93 51.99,47.94 51.83,47.95 51.67,47.96 51.51,47.96 51.36,47.96 51.21,47.96 51.06,47.95 50.91,47.94 
		50.77,47.92 50.63,47.9 50.5,47.88 50.37,47.85 50.24,47.82 50.11,47.78 49.99,47.75 49.87,47.71 49.81,47.68 49.76,47.66 
		49.7,47.64 49.65,47.61 49.59,47.59 49.54,47.56 49.49,47.54 49.44,47.51 49.39,47.48 49.34,47.45 49.29,47.42 49.25,47.39 
		49.2,47.36 49.16,47.33 49.11,47.3 49.07,47.27 49.03,47.24 48.99,47.2 48.95,47.17 48.91,47.13 48.87,47.1 48.83,47.06 
		48.8,47.03 48.76,46.99 48.73,46.95 48.69,46.92 48.66,46.88 48.63,46.84 48.6,46.8 48.57,46.76 48.54,46.72 48.52,46.68 
		48.49,46.64 48.46,46.6 48.44,46.55 48.41,46.51 48.39,46.47 48.36,46.42 48.34,46.37 48.32,46.33 48.3,46.28 48.28,46.23 
		48.26,46.18 48.24,46.13 48.22,46.08 48.2,46.03 48.19,45.98 48.17,45.93 48.16,45.87 48.14,45.82 48.13,45.76 48.12,45.71 
		48.11,45.65 48.1,45.59 48.09,45.53 48.09,45.48 48.08,45.42 48.07,45.36 48.07,45.3 48.07,45.23 48.06,45.11 48.06,44.98 
		48.07,44.85 48.08,44.72 48.09,44.59 48.11,44.45 48.14,44.31 48.16,44.17 48.2,44.03 48.23,43.89 48.27,43.74 48.32,43.59 
		48.37,43.44 48.43,43.3 48.49,43.14 48.55,42.99 48.62,42.84 48.69,42.69 48.77,42.54 48.85,42.38 48.93,42.23 49.02,42.08 
		49.12,41.92 49.21,41.77 49.31,41.62 49.42,41.47 49.53,41.32 49.75,41.02 49.99,40.73 50.23,40.44 50.49,40.16 50.75,39.89 
		51.02,39.62 51.3,39.37 51.58,39.12 51.86,38.88 52.15,38.66 52.43,38.44 52.72,38.24 53.03,38.03 53.34,37.83 53.66,37.64 
		53.98,37.46 54.32,37.28 54.66,37.11 55,36.95 55.35,36.8 55.7,36.67 56.05,36.55 56.23,36.49 56.4,36.44 56.58,36.39 56.75,36.34 
		56.93,36.3 57.1,36.26 57.27,36.22 57.44,36.19 57.61,36.17 57.78,36.14 57.95,36.12 58.11,36.11 58.27,36.1 58.43,36.09 
		58.59,36.09 58.74,36.09 58.89,36.09 59.04,36.1 59.19,36.11 59.33,36.13 59.47,36.15 59.6,36.17 59.74,36.2 59.86,36.23 
		59.99,36.27 60.11,36.3 60.23,36.34 60.29,36.37 60.34,36.39 60.4,36.41 60.45,36.44 60.51,36.46 60.56,36.49 60.61,36.51 
		60.66,36.54 60.71,36.57 60.76,36.6 60.81,36.62 60.85,36.65 60.9,36.69 60.94,36.72 60.99,36.75 61.03,36.78 61.07,36.81 
		61.11,36.85 61.15,36.88 61.19,36.92 61.23,36.95 61.27,36.99 61.3,37.02 61.34,37.06 61.37,37.1 61.41,37.13 61.44,37.17 
		61.47,37.21 61.5,37.25 	"/>
</g>
<g>
	<g id="HATCH_62_">
		<polygon class="st1" points="126.88,92.58 126.88,71.88 130.42,71.88 130.42,89.53 140.46,89.53 140.46,92.58 		"/>
	</g>
	<g id="HATCH_61_">
		<polygon class="st1" points="369.14,92.58 369.14,71.88 385.05,71.88 385.05,74.93 372.68,74.93 372.68,80.45 384.21,80.45 
			384.21,83.47 372.68,83.47 372.68,89.53 385.63,89.53 385.63,92.58 		"/>
	</g>
	<g id="HATCH_60_">
		<polygon class="st1" points="310.92,77.86 310.73,77.37 310.53,76.85 310.15,75.72 309.8,76.73 309.37,77.88 303.63,92.58 
			299.92,92.58 308.37,71.88 312,71.88 320.31,92.58 316.65,92.58 314.38,86.78 307.18,86.78 308.33,83.83 313.24,83.83 		"/>
	</g>
	<g id="HATCH_59_">
		<polygon class="st1" points="238.71,77.68 241.23,73.32 241.53,73.53 241.83,73.75 242.12,73.98 242.41,74.22 242.68,74.46 
			242.95,74.72 243.21,74.99 243.45,75.27 243.69,75.55 243.92,75.84 244.13,76.14 244.34,76.45 244.54,76.77 244.72,77.09 
			244.89,77.41 245.06,77.75 245.21,78.09 245.34,78.43 245.47,78.78 245.58,79.13 245.69,79.49 245.77,79.85 245.85,80.21 
			245.92,80.58 245.97,80.94 246,81.31 246.03,81.68 246.04,82.05 246.04,82.42 246.03,82.79 246,83.16 245.96,83.53 245.91,83.9 
			245.85,84.26 245.77,84.63 245.68,84.98 245.58,85.34 245.46,85.69 245.34,86.04 245.2,86.39 245.05,86.72 244.88,87.06 
			244.71,87.38 244.52,87.7 244.33,88.02 244.12,88.33 243.9,88.63 243.67,88.92 243.44,89.2 243.19,89.48 242.93,89.74 242.66,90 
			242.39,90.25 242.11,90.49 241.81,90.72 241.51,90.94 241.21,91.14 240.89,91.34 240.57,91.53 240.25,91.7 239.91,91.86 
			239.57,92.01 239.23,92.15 238.88,92.28 238.53,92.4 238.17,92.5 237.82,92.59 237.45,92.67 237.09,92.73 236.72,92.78 
			236.35,92.82 235.98,92.85 235.61,92.86 235.24,92.86 234.87,92.85 234.5,92.83 234.13,92.79 233.77,92.74 233.4,92.68 
			233.04,92.6 232.68,92.51 232.32,92.41 231.97,92.3 231.62,92.17 231.28,92.03 230.94,91.88 230.6,91.72 232.09,89.15 
			232.23,89.22 232.39,89.29 232.54,89.35 232.7,89.41 232.85,89.47 233.02,89.53 233.18,89.58 233.34,89.63 233.51,89.67 
			233.68,89.71 233.85,89.75 234.03,89.78 234.2,89.81 234.38,89.84 234.56,89.86 234.74,89.88 234.92,89.89 235.1,89.9 
			235.29,89.91 235.47,89.91 235.65,89.9 235.84,89.9 236.02,89.88 236.21,89.87 236.39,89.84 236.58,89.82 236.76,89.79 
			236.95,89.75 237.13,89.71 237.31,89.67 237.5,89.62 237.68,89.56 237.86,89.51 238.03,89.44 238.21,89.38 238.38,89.31 
			238.55,89.23 238.72,89.15 238.89,89.07 239.06,88.98 239.22,88.89 239.38,88.8 239.54,88.7 239.69,88.6 239.84,88.5 
			239.99,88.39 240.14,88.28 240.28,88.16 240.42,88.05 240.55,87.93 240.68,87.81 240.81,87.68 240.93,87.56 241.05,87.43 
			241.17,87.3 241.29,87.17 241.39,87.03 241.5,86.9 241.6,86.76 241.7,86.63 241.8,86.49 241.89,86.35 241.97,86.21 242.06,86.07 
			242.14,85.92 242.21,85.78 242.29,85.63 242.36,85.49 242.43,85.34 242.49,85.18 242.55,85.03 242.61,84.88 242.66,84.72 
			242.71,84.56 242.75,84.41 242.79,84.25 242.83,84.09 242.86,83.93 242.89,83.76 242.91,83.6 242.93,83.44 242.94,83.28 
			242.95,83.11 242.95,82.95 242.95,82.79 242.95,82.62 242.93,82.46 242.92,82.3 242.89,82.14 242.87,81.98 242.84,81.82 
			242.8,81.66 242.76,81.5 242.71,81.35 242.65,81.19 242.6,81.04 242.53,80.89 242.47,80.74 242.39,80.6 242.32,80.45 
			242.23,80.31 242.15,80.17 242.06,80.04 241.96,79.9 241.86,79.77 241.76,79.64 241.65,79.52 241.54,79.4 241.42,79.28 
			241.3,79.16 241.18,79.05 241.05,78.94 240.92,78.84 240.79,78.74 240.66,78.64 240.52,78.54 240.38,78.45 240.23,78.36 
			240.09,78.28 239.94,78.2 239.79,78.12 239.64,78.05 239.49,77.98 239.34,77.91 239.18,77.85 239.03,77.79 238.87,77.73 		"/>
	</g>
	<g id="HATCH_58_">
		<polygon class="st1" points="232.1,86.77 229.58,91.13 229.27,90.92 228.97,90.7 228.68,90.47 228.4,90.23 228.12,89.99 
			227.86,89.73 227.6,89.46 227.35,89.18 227.12,88.9 226.89,88.61 226.67,88.31 226.47,88 226.27,87.68 226.09,87.36 225.91,87.04 
			225.75,86.7 225.6,86.36 225.46,86.02 225.34,85.67 225.22,85.32 225.12,84.96 225.03,84.6 224.96,84.24 224.89,83.87 
			224.84,83.51 224.8,83.14 224.78,82.77 224.76,82.4 224.76,82.03 224.78,81.66 224.8,81.29 224.84,80.92 224.9,80.55 
			224.96,80.19 225.04,79.82 225.13,79.47 225.23,79.11 225.34,78.76 225.47,78.41 225.61,78.06 225.76,77.73 225.92,77.39 
			226.1,77.07 226.28,76.75 226.48,76.43 226.69,76.12 226.9,75.82 227.13,75.53 227.37,75.25 227.62,74.97 227.88,74.71 
			228.14,74.45 228.42,74.2 228.7,73.96 228.99,73.73 229.29,73.51 229.6,73.31 229.91,73.11 230.23,72.92 230.56,72.75 
			230.89,72.59 231.23,72.44 231.58,72.3 231.92,72.17 232.28,72.05 232.63,71.95 232.99,71.86 233.35,71.78 233.72,71.72 
			234.09,71.67 234.45,71.63 234.82,71.6 235.19,71.59 235.56,71.59 235.94,71.6 236.3,71.62 236.67,71.66 237.04,71.71 
			237.41,71.77 237.77,71.85 238.13,71.94 238.48,72.04 238.84,72.15 239.19,72.28 239.53,72.42 239.87,72.57 240.2,72.73 
			238.72,75.3 238.57,75.23 238.42,75.16 238.27,75.1 238.11,75.04 237.95,74.98 237.79,74.92 237.63,74.87 237.46,74.82 
			237.29,74.78 237.12,74.74 236.95,74.7 236.78,74.67 236.6,74.64 236.43,74.61 236.25,74.59 236.07,74.57 235.89,74.56 
			235.7,74.55 235.52,74.54 235.34,74.54 235.15,74.55 234.97,74.55 234.78,74.57 234.6,74.58 234.41,74.61 234.23,74.63 
			234.04,74.66 233.86,74.7 233.67,74.74 233.49,74.78 233.31,74.83 233.13,74.89 232.95,74.94 232.77,75.01 232.6,75.07 
			232.42,75.14 232.25,75.22 232.08,75.3 231.91,75.38 231.75,75.47 231.59,75.56 231.43,75.65 231.27,75.75 231.12,75.85 
			230.96,75.95 230.82,76.06 230.67,76.17 230.53,76.29 230.39,76.4 230.26,76.52 230.12,76.64 230,76.77 229.87,76.89 
			229.75,77.02 229.63,77.15 229.52,77.28 229.41,77.42 229.31,77.55 229.2,77.69 229.11,77.82 229.01,77.96 228.92,78.1 
			228.83,78.24 228.75,78.38 228.67,78.53 228.59,78.67 228.52,78.82 228.45,78.96 228.38,79.11 228.32,79.27 228.26,79.42 
			228.2,79.57 228.15,79.73 228.1,79.89 228.05,80.04 228.01,80.2 227.98,80.36 227.94,80.52 227.92,80.69 227.89,80.85 
			227.88,81.01 227.86,81.17 227.86,81.34 227.85,81.5 227.85,81.66 227.86,81.83 227.87,81.99 227.89,82.15 227.91,82.31 
			227.94,82.47 227.97,82.63 228.01,82.79 228.05,82.95 228.1,83.1 228.15,83.26 228.21,83.41 228.27,83.56 228.34,83.71 
			228.41,83.85 228.49,84 228.57,84.14 228.66,84.28 228.75,84.41 228.85,84.55 228.95,84.68 229.05,84.81 229.16,84.93 
			229.27,85.05 229.39,85.17 229.5,85.29 229.63,85.4 229.75,85.51 229.88,85.61 230.02,85.71 230.15,85.81 230.29,85.91 230.43,86 
			230.57,86.09 230.72,86.17 230.86,86.25 231.01,86.33 231.16,86.4 231.32,86.47 231.47,86.54 231.62,86.6 231.78,86.66 
			231.94,86.72 		"/>
	</g>
	<g id="HATCH_57_">
		<polygon class="st1" points="164.6,92.87 165.07,92.86 165.3,92.85 165.54,92.83 165.77,92.81 166,92.79 166.24,92.76 
			166.47,92.73 166.68,92.7 166.9,92.66 167.11,92.61 167.32,92.56 167.54,92.51 167.75,92.45 167.95,92.39 168.16,92.32 
			168.36,92.25 168.55,92.18 168.74,92.1 168.93,92.02 169.12,91.93 169.3,91.84 169.49,91.74 169.67,91.64 169.84,91.54 170,91.43 
			170.17,91.32 170.33,91.2 170.49,91.09 170.64,90.96 170.8,90.83 170.94,90.7 171.09,90.56 171.22,90.42 171.36,90.28 
			171.49,90.13 171.62,89.98 171.74,89.83 171.86,89.67 171.97,89.51 172.08,89.34 172.19,89.17 172.29,89 172.39,88.83 
			172.48,88.65 172.57,88.46 172.65,88.28 172.73,88.09 172.8,87.89 172.87,87.7 172.94,87.5 173,87.3 173.05,87.09 173.1,86.89 
			173.15,86.69 173.18,86.48 173.22,86.26 173.25,86.04 173.28,85.81 173.3,85.59 173.31,85.36 173.33,85.14 173.33,84.92 
			173.33,84.69 173.33,71.88 169.81,71.88 169.81,84.54 169.8,84.85 169.8,85.01 169.79,85.16 169.77,85.32 169.76,85.48 
			169.74,85.63 169.72,85.79 169.7,85.93 169.67,86.06 169.64,86.2 169.61,86.33 169.58,86.47 169.54,86.6 169.5,86.73 
			169.46,86.86 169.42,86.98 169.37,87.1 169.32,87.21 169.27,87.32 169.22,87.43 169.16,87.55 169.1,87.65 169.04,87.76 
			168.97,87.86 168.9,87.96 168.84,88.05 168.76,88.14 168.69,88.23 168.61,88.32 168.53,88.41 168.45,88.49 168.36,88.58 
			168.28,88.65 168.19,88.73 168.09,88.8 168,88.88 167.9,88.94 167.81,89.01 167.71,89.07 167.6,89.14 167.49,89.19 167.38,89.25 
			167.27,89.3 167.16,89.36 167.05,89.4 166.94,89.45 166.82,89.49 166.69,89.53 166.57,89.57 166.44,89.61 166.31,89.64 
			166.18,89.67 166.05,89.7 165.91,89.72 165.78,89.74 165.63,89.77 165.48,89.78 165.33,89.8 165.18,89.81 165.03,89.82 
			164.88,89.83 164.58,89.83 164.29,89.83 164.15,89.82 164,89.81 163.85,89.8 163.71,89.78 163.56,89.77 163.42,89.75 
			163.29,89.73 163.17,89.7 163.04,89.68 162.92,89.65 162.79,89.62 162.67,89.58 162.55,89.54 162.42,89.5 162.32,89.46 
			162.21,89.42 162.1,89.37 162,89.33 161.89,89.27 161.79,89.22 161.69,89.16 161.59,89.1 161.5,89.04 161.4,88.98 161.31,88.91 
			161.23,88.85 161.14,88.78 161.06,88.7 160.98,88.63 160.9,88.55 160.82,88.47 160.75,88.38 160.68,88.3 160.61,88.21 
			160.54,88.12 160.48,88.03 160.41,87.94 160.36,87.84 160.3,87.74 160.24,87.63 160.19,87.53 160.14,87.42 160.09,87.31 
			160.04,87.2 160,87.09 159.96,86.98 159.92,86.85 159.89,86.72 159.85,86.59 159.82,86.46 159.79,86.33 159.77,86.2 159.74,86.07 
			159.72,85.94 159.7,85.78 159.68,85.63 159.67,85.48 159.66,85.33 159.64,85.02 159.64,84.72 159.64,71.88 156.1,71.88 
			156.1,84.94 156.1,85.16 156.11,85.38 156.12,85.6 156.13,85.82 156.15,86.03 156.18,86.25 156.21,86.47 156.25,86.68 
			156.28,86.88 156.33,87.08 156.38,87.28 156.43,87.48 156.49,87.67 156.55,87.87 156.62,88.06 156.69,88.25 156.77,88.43 
			156.85,88.61 156.94,88.79 157.03,88.96 157.12,89.13 157.22,89.3 157.33,89.46 157.44,89.63 157.55,89.78 157.66,89.93 
			157.78,90.08 157.91,90.23 158.04,90.37 158.17,90.51 158.3,90.65 158.44,90.78 158.59,90.91 158.73,91.03 158.89,91.15 
			159.04,91.27 159.2,91.38 159.36,91.48 159.52,91.59 159.69,91.69 159.86,91.78 160.04,91.88 160.22,91.97 160.4,92.05 
			160.59,92.13 160.77,92.21 160.96,92.28 161.15,92.34 161.35,92.41 161.56,92.47 161.76,92.52 161.96,92.58 162.17,92.62 
			162.38,92.66 162.58,92.7 162.79,92.74 163.02,92.77 163.24,92.79 163.47,92.82 163.69,92.83 163.92,92.85 164.14,92.86 		"/>
	</g>
	<g id="HATCH_56_">
		<polygon class="st1" points="189.47,82.14 189.48,82.63 189.5,83.12 189.54,83.6 189.59,84.09 189.66,84.54 189.69,84.77 
			189.74,84.99 189.78,85.21 189.84,85.44 189.89,85.66 189.95,85.88 190.01,86.09 190.08,86.3 190.15,86.5 190.22,86.71 
			190.3,86.91 190.38,87.12 190.47,87.32 190.56,87.51 190.65,87.7 190.74,87.89 190.84,88.08 190.95,88.26 191.05,88.44 
			191.17,88.62 191.28,88.8 191.4,88.97 191.52,89.14 191.65,89.3 191.77,89.46 191.91,89.62 192.04,89.77 192.18,89.92 
			192.32,90.07 192.47,90.21 192.62,90.35 192.77,90.49 192.93,90.62 193.09,90.75 193.25,90.88 193.41,91 193.58,91.12 
			193.75,91.23 193.93,91.34 194.11,91.45 194.29,91.56 194.48,91.66 194.67,91.75 194.86,91.84 195.05,91.93 195.24,92.01 
			195.44,92.1 195.65,92.17 195.85,92.25 196.06,92.31 196.27,92.38 196.48,92.44 196.69,92.49 196.9,92.54 197.13,92.59 
			197.36,92.64 197.58,92.68 197.81,92.72 198.04,92.75 198.27,92.78 198.73,92.82 199.21,92.85 199.7,92.86 200.14,92.86 
			200.58,92.85 200.99,92.83 201.41,92.79 201.82,92.75 202.23,92.69 202.63,92.62 203.03,92.55 203.42,92.46 203.81,92.35 
			204.19,92.24 204.57,92.12 204.94,91.99 205.31,91.84 205.66,91.69 206.01,91.52 206.36,91.35 206.69,91.17 207.01,90.98 
			207.33,90.78 207.64,90.56 207.79,90.46 207.94,90.34 208.22,90.11 208.36,90 208.5,89.88 208.64,89.75 208.77,89.63 208.91,89.5 
			209.04,89.37 209.16,89.25 209.16,81.8 199.9,81.8 199.9,84.9 205.83,84.9 205.83,87.87 205.73,87.96 205.63,88.05 205.52,88.13 
			205.41,88.21 205.31,88.29 205.2,88.37 205.09,88.44 204.97,88.52 204.85,88.59 204.72,88.67 204.59,88.74 204.46,88.8 
			204.33,88.87 204.2,88.93 204.07,88.99 203.93,89.05 203.78,89.11 203.64,89.17 203.34,89.28 203.17,89.34 203,89.39 
			202.84,89.44 202.67,89.48 202.5,89.53 202.32,89.57 202.15,89.61 201.97,89.64 201.62,89.7 201.27,89.75 200.9,89.79 
			200.53,89.81 200.17,89.83 199.8,89.83 199.48,89.82 199.17,89.8 199.01,89.79 198.86,89.77 198.7,89.75 198.54,89.73 
			198.4,89.71 198.26,89.68 198.12,89.65 197.98,89.62 197.84,89.59 197.7,89.55 197.56,89.51 197.42,89.46 197.29,89.42 
			197.16,89.37 197.03,89.32 196.91,89.27 196.78,89.22 196.66,89.16 196.54,89.1 196.42,89.03 196.3,88.97 196.19,88.9 
			196.08,88.83 195.96,88.75 195.85,88.68 195.75,88.6 195.64,88.52 195.54,88.43 195.43,88.35 195.33,88.26 195.23,88.16 
			195.13,88.07 195.04,87.97 194.95,87.87 194.85,87.77 194.77,87.67 194.68,87.56 194.59,87.45 194.51,87.34 194.43,87.23 
			194.35,87.11 194.27,87 194.2,86.88 194.13,86.76 194.06,86.63 193.99,86.51 193.92,86.38 193.86,86.25 193.8,86.12 193.74,85.99 
			193.69,85.85 193.64,85.72 193.59,85.58 193.54,85.43 193.49,85.29 193.44,85.14 193.4,84.99 193.36,84.85 193.29,84.55 
			193.26,84.39 193.23,84.22 193.18,83.9 193.13,83.57 193.1,83.24 193.08,82.89 193.06,82.53 193.05,82.17 193.06,81.8 
			193.07,81.45 193.09,81.11 193.12,80.76 193.16,80.42 193.21,80.1 193.27,79.79 193.33,79.49 193.37,79.33 193.41,79.18 
			193.45,79.04 193.49,78.9 193.54,78.76 193.59,78.63 193.63,78.49 193.69,78.36 193.74,78.22 193.8,78.09 193.86,77.97 
			193.92,77.84 193.98,77.72 194.04,77.6 194.11,77.49 194.18,77.37 194.25,77.26 194.32,77.14 194.4,77.03 194.47,76.93 
			194.55,76.82 194.63,76.72 194.72,76.62 194.8,76.52 194.89,76.43 194.98,76.33 195.07,76.24 195.17,76.16 195.26,76.07 
			195.36,75.99 195.46,75.91 195.56,75.83 195.66,75.75 195.77,75.68 195.87,75.61 195.98,75.54 196.09,75.47 196.21,75.41 
			196.32,75.35 196.44,75.29 196.56,75.24 196.67,75.19 196.8,75.13 196.92,75.09 197.05,75.04 197.18,75 197.31,74.95 
			197.45,74.92 197.58,74.88 197.72,74.85 197.86,74.81 198.01,74.78 198.16,74.76 198.31,74.73 198.45,74.71 198.6,74.69 
			198.9,74.66 199.22,74.64 199.55,74.63 199.75,74.63 199.95,74.64 200.15,74.64 200.35,74.65 200.54,74.66 200.73,74.68 
			200.92,74.7 201.11,74.73 201.3,74.75 201.49,74.79 201.67,74.82 201.86,74.87 202.02,74.91 202.18,74.95 202.34,75 202.5,75.06 
			202.66,75.11 202.81,75.18 202.97,75.24 203.12,75.32 203.27,75.39 203.34,75.43 203.41,75.48 203.48,75.52 203.55,75.56 
			203.62,75.61 203.69,75.66 203.76,75.7 203.82,75.75 203.88,75.79 203.94,75.84 204.06,75.94 204.18,76.05 204.29,76.15 
			204.4,76.27 204.51,76.38 204.61,76.5 204.72,76.63 204.82,76.77 204.92,76.91 205.02,77.05 205.11,77.19 205.19,77.34 
			205.27,77.49 205.35,77.64 205.51,77.96 205.85,77.86 208.89,76.96 208.68,76.51 208.56,76.24 208.42,75.98 208.28,75.71 
			208.13,75.46 207.98,75.22 207.82,74.98 207.65,74.75 207.56,74.64 207.47,74.53 207.38,74.42 207.29,74.32 207.2,74.22 
			207.11,74.12 207.01,74.02 206.91,73.92 206.82,73.82 206.71,73.73 206.61,73.64 206.51,73.55 206.41,73.47 206.3,73.38 
			206.19,73.3 206.08,73.22 205.97,73.14 205.86,73.07 205.75,72.99 205.63,72.92 205.51,72.85 205.4,72.79 205.17,72.67 
			204.94,72.55 204.71,72.45 204.47,72.35 204.19,72.25 203.92,72.15 203.64,72.07 203.36,71.99 203.05,71.92 202.75,71.85 
			202.44,71.79 202.13,71.75 201.8,71.7 201.47,71.66 201.13,71.63 200.8,71.61 200.44,71.6 200.09,71.59 199.47,71.59 198.98,71.6 
			198.48,71.64 198.23,71.66 197.98,71.69 197.74,71.72 197.49,71.76 197.26,71.79 197.04,71.84 196.81,71.88 196.59,71.93 
			196.36,71.99 196.14,72.05 195.92,72.12 195.7,72.19 195.49,72.26 195.29,72.34 195.09,72.42 194.89,72.5 194.69,72.59 
			194.49,72.69 194.3,72.79 194.11,72.89 193.92,73 193.74,73.11 193.56,73.22 193.39,73.34 193.21,73.47 193.04,73.59 
			192.88,73.73 192.72,73.86 192.56,74 192.4,74.15 192.25,74.3 192.1,74.45 191.95,74.61 191.81,74.76 191.68,74.93 191.54,75.09 
			191.41,75.27 191.29,75.44 191.17,75.62 191.05,75.8 190.94,75.98 190.83,76.17 190.73,76.36 190.63,76.55 190.53,76.75 
			190.44,76.95 190.35,77.16 190.27,77.36 190.19,77.57 190.12,77.78 190.05,78 189.98,78.21 189.92,78.44 189.86,78.67 189.8,78.9 
			189.75,79.14 189.71,79.37 189.67,79.6 189.63,79.84 189.6,80.08 189.57,80.33 189.54,80.59 189.5,81.11 189.48,81.62 		"/>
	</g>
	<g id="HATCH_55_">
		<polygon class="st1" points="274.18,79.66 277.7,92.58 281.56,92.58 287.66,71.88 283.96,71.88 283.87,72.19 280.02,86.12 
			279.91,86.56 279.59,87.92 278.75,84.56 275.21,71.88 271.99,71.88 271.9,72.19 268.1,85.87 267.98,86.31 267.62,87.85 
			266.86,84.8 263.2,71.88 259.51,71.88 265.61,92.58 269.46,92.58 269.55,92.27 273.28,78.59 273.4,78.14 273.6,77.27 
			273.76,77.99 273.99,78.94 		"/>
	</g>
	<g id="HATCH_54_">
		<polygon class="st1" points="338.53,84.34 338.53,81.36 338.53,74.89 338.53,71.88 334.99,71.88 334.99,92.58 338.53,92.58 		"/>
	</g>
	<g id="HATCH_44_">
		<polygon class="st1" points="347.61,83.89 347.81,83.84 348.01,83.78 348.2,83.72 348.39,83.65 348.58,83.57 348.77,83.49 
			348.96,83.4 349.14,83.31 349.26,83.24 349.37,83.18 349.49,83.11 349.6,83.03 349.71,82.96 349.82,82.88 349.93,82.8 
			350.03,82.72 350.13,82.64 350.24,82.55 350.33,82.46 350.43,82.37 350.52,82.27 350.62,82.18 350.71,82.08 350.79,81.98 
			350.88,81.88 350.96,81.78 351.04,81.67 351.12,81.56 351.19,81.45 351.27,81.34 351.34,81.23 351.4,81.12 351.47,81 
			351.53,80.89 351.59,80.77 351.64,80.65 351.7,80.53 351.75,80.41 351.8,80.28 351.84,80.16 351.88,80.03 351.92,79.9 
			351.96,79.77 351.99,79.64 352.02,79.51 352.05,79.38 352.08,79.25 352.1,79.11 352.12,78.97 352.14,78.83 352.15,78.69 
			352.17,78.55 352.17,78.41 352.18,78.27 352.18,78.13 352.19,77.98 352.18,77.81 352.18,77.65 352.17,77.48 352.16,77.31 
			352.14,77.14 352.12,76.97 352.09,76.81 352.06,76.64 352.03,76.48 352,76.33 351.96,76.18 351.91,76.02 351.86,75.87 
			351.81,75.72 351.76,75.58 351.69,75.43 351.63,75.29 351.56,75.15 351.49,75.02 351.42,74.88 351.34,74.75 351.25,74.62 
			351.16,74.5 351.07,74.37 350.98,74.25 350.88,74.13 350.77,74.01 350.67,73.9 350.56,73.79 350.44,73.68 350.33,73.58 
			350.21,73.48 350.08,73.38 349.95,73.28 349.82,73.19 349.68,73.1 349.55,73.01 349.41,72.93 349.27,72.85 349.12,72.77 
			348.97,72.7 348.81,72.62 348.66,72.56 348.5,72.49 348.34,72.43 348.17,72.37 348.01,72.32 347.85,72.27 347.67,72.22 
			347.49,72.18 347.31,72.13 347.13,72.1 346.94,72.06 346.76,72.03 346.39,71.98 346.19,71.95 345.99,71.93 345.58,71.9 
			345.17,71.89 344.76,71.88 339.72,71.88 339.72,74.89 344.49,74.89 344.74,74.89 344.99,74.9 345.24,74.92 345.48,74.94 
			345.7,74.97 345.91,75.01 346.02,75.03 346.12,75.05 346.23,75.07 346.33,75.1 346.42,75.13 346.51,75.15 346.6,75.18 
			346.69,75.21 346.78,75.25 346.87,75.28 346.96,75.32 347.04,75.36 347.12,75.39 347.19,75.43 347.27,75.47 347.34,75.52 
			347.41,75.56 347.48,75.61 347.55,75.66 347.62,75.71 347.68,75.76 347.74,75.81 347.8,75.86 347.85,75.91 347.91,75.97 
			347.96,76.02 348.01,76.08 348.06,76.14 348.11,76.2 348.15,76.26 348.19,76.33 348.23,76.39 348.27,76.46 348.31,76.52 
			348.34,76.59 348.37,76.66 348.4,76.73 348.43,76.81 348.46,76.89 348.49,76.96 348.51,77.04 348.53,77.12 348.55,77.2 
			348.56,77.28 348.58,77.37 348.59,77.46 348.61,77.55 348.61,77.64 348.62,77.74 348.63,77.83 348.63,77.92 348.63,78.01 
			348.63,78.11 348.63,78.21 348.62,78.3 348.61,78.4 348.61,78.49 348.59,78.59 348.58,78.69 348.56,78.78 348.55,78.86 
			348.53,78.95 348.51,79.03 348.49,79.11 348.46,79.2 348.43,79.28 348.4,79.36 348.37,79.44 348.34,79.51 348.31,79.58 
			348.27,79.66 348.23,79.73 348.19,79.8 348.15,79.87 348.1,79.93 348.06,80 348.01,80.06 347.96,80.13 347.91,80.19 347.85,80.25 
			347.8,80.31 347.74,80.36 347.68,80.42 347.62,80.47 347.55,80.53 347.48,80.58 347.41,80.63 347.34,80.68 347.27,80.72 
			347.2,80.77 347.13,80.81 347.05,80.85 346.97,80.9 346.89,80.94 346.8,80.97 346.72,81.01 346.63,81.04 346.54,81.08 
			346.45,81.1 346.37,81.13 346.27,81.16 346.17,81.19 346.06,81.21 345.96,81.23 345.86,81.25 345.76,81.27 345.65,81.29 
			345.55,81.3 345.43,81.32 345.31,81.33 345.08,81.35 344.84,81.36 344.6,81.36 339.72,81.36 339.72,84.34 344.06,84.34 
			349.21,92.58 353.34,92.58 		"/>
	</g>
</g>
<path class="st4" d="M135.03,55.99c-2.21,0-4.16-0.49-5.86-1.47c-1.7-0.98-3.04-2.33-4.02-4.05c-0.98-1.72-1.47-3.66-1.47-5.84
	c0-2.21,0.49-4.17,1.47-5.88c0.98-1.72,2.32-3.06,4.02-4.05c1.7-0.98,3.66-1.47,5.86-1.47c2.18,0,4.11,0.49,5.8,1.47
	c1.69,0.98,3.02,2.33,4,4.05c0.98,1.72,1.48,3.68,1.51,5.88c0,2.18-0.49,4.13-1.47,5.84c-0.98,1.72-2.32,3.06-4.02,4.05
	C139.15,55.5,137.21,55.99,135.03,55.99z M135.03,52.89c1.53,0,2.89-0.36,4.09-1.08c1.2-0.72,2.14-1.7,2.82-2.94
	c0.68-1.24,1.02-2.65,1.02-4.23c0-1.58-0.34-3-1.02-4.25c-0.68-1.25-1.62-2.24-2.82-2.96c-1.2-0.72-2.56-1.08-4.09-1.08
	c-1.53,0-2.89,0.36-4.11,1.08c-1.21,0.72-2.17,1.71-2.86,2.96c-0.69,1.25-1.04,2.67-1.04,4.25c0,1.58,0.35,2.99,1.04,4.23
	c0.69,1.24,1.65,2.22,2.86,2.94C132.14,52.53,133.51,52.89,135.03,52.89z"/>
<path class="st4" d="M154.2,55.79c-0.55,0-0.97-0.15-1.27-0.45c-0.3-0.3-0.45-0.72-0.45-1.27V35.16c0-0.54,0.15-0.97,0.45-1.27
	c0.3-0.3,0.72-0.45,1.27-0.45c0.54,0,0.96,0.15,1.25,0.45c0.29,0.3,0.43,0.72,0.43,1.27v18.92c0,0.55-0.14,0.97-0.43,1.27
	C155.16,55.64,154.74,55.79,154.2,55.79z M153.99,41.94c0.05-1.66,0.48-3.15,1.29-4.47c0.8-1.32,1.87-2.36,3.19-3.13
	c1.32-0.76,2.77-1.14,4.35-1.14c1.39,0,2.44,0.2,3.17,0.61s0.99,0.97,0.8,1.68c-0.08,0.38-0.25,0.65-0.51,0.82
	c-0.26,0.16-0.56,0.25-0.9,0.25c-0.34,0-0.73-0.03-1.16-0.08c-1.61-0.19-3.03-0.09-4.27,0.31c-1.24,0.4-2.23,1.04-2.96,1.94
	c-0.74,0.9-1.1,1.98-1.1,3.23H153.99z"/>
<path class="st4" d="M179.94,55.99c-2.15,0-4.07-0.5-5.76-1.49c-1.69-0.99-3.02-2.35-3.98-4.07c-0.97-1.72-1.45-3.65-1.45-5.8
	c0-2.18,0.47-4.13,1.41-5.84c0.94-1.72,2.22-3.07,3.84-4.07c1.62-0.99,3.49-1.49,5.62-1.49c1.63,0,3.15,0.32,4.54,0.96
	c1.39,0.64,2.61,1.6,3.68,2.88c0.33,0.38,0.44,0.77,0.35,1.16c-0.1,0.4-0.35,0.74-0.76,1.04c-0.33,0.22-0.69,0.29-1.08,0.23
	c-0.4-0.07-0.76-0.28-1.08-0.63c-1.5-1.69-3.38-2.53-5.64-2.53c-1.5,0-2.81,0.35-3.94,1.06c-1.13,0.71-2.01,1.68-2.64,2.92
	c-0.63,1.24-0.94,2.68-0.94,4.31c0,1.58,0.33,2.99,1,4.23c0.67,1.24,1.59,2.22,2.78,2.94c1.19,0.72,2.54,1.08,4.07,1.08
	c1.03,0,1.97-0.14,2.8-0.41c0.83-0.27,1.57-0.69,2.23-1.27c0.38-0.3,0.76-0.46,1.14-0.49c0.38-0.03,0.74,0.08,1.06,0.33
	c0.35,0.33,0.56,0.69,0.61,1.1c0.05,0.41-0.08,0.78-0.41,1.1C185.39,55.08,182.91,55.99,179.94,55.99z"/>
<path class="st4" d="M204.01,55.99c-2.07,0-3.92-0.5-5.56-1.49c-1.63-0.99-2.93-2.35-3.88-4.07c-0.95-1.72-1.43-3.65-1.43-5.8
	c0-2.18,0.5-4.13,1.49-5.84c0.99-1.72,2.35-3.07,4.07-4.07c1.72-0.99,3.65-1.49,5.8-1.49c2.12,0,4.04,0.5,5.74,1.49
	c1.7,0.99,3.05,2.35,4.04,4.07c0.99,1.72,1.5,3.66,1.53,5.84l-1.39,0.69c0,2.02-0.46,3.83-1.37,5.43c-0.91,1.61-2.15,2.88-3.72,3.82
	C207.77,55.52,205.99,55.99,204.01,55.99z M204.5,52.89c1.53,0,2.88-0.36,4.07-1.08c1.18-0.72,2.12-1.71,2.82-2.96
	c0.69-1.25,1.04-2.66,1.04-4.21c0-1.58-0.35-2.99-1.04-4.23c-0.69-1.24-1.63-2.23-2.82-2.96c-1.19-0.74-2.54-1.1-4.07-1.1
	c-1.5,0-2.85,0.37-4.07,1.1c-1.21,0.74-2.17,1.72-2.88,2.96c-0.71,1.24-1.06,2.65-1.06,4.23c0,1.55,0.35,2.96,1.06,4.21
	c0.71,1.25,1.67,2.24,2.88,2.96C201.64,52.53,203,52.89,204.5,52.89z M214.06,55.79c-0.49,0-0.91-0.16-1.25-0.47
	c-0.34-0.31-0.51-0.73-0.51-1.25v-6.74l0.78-3.56l2.74,0.86v9.44c0,0.52-0.16,0.93-0.49,1.25C215,55.63,214.57,55.79,214.06,55.79z"
	/>
<path class="st5" d="M241.8,55.99c-1.69,0-3.33-0.28-4.92-0.84c-1.59-0.56-2.87-1.35-3.82-2.39c-0.33-0.35-0.46-0.76-0.41-1.23
	c0.05-0.46,0.27-0.84,0.65-1.14c0.44-0.33,0.88-0.46,1.33-0.41c0.45,0.06,0.82,0.25,1.12,0.57c0.6,0.71,1.43,1.27,2.49,1.7
	c1.06,0.42,2.23,0.63,3.51,0.63c1.88,0,3.26-0.32,4.15-0.96c0.88-0.64,1.34-1.44,1.37-2.39c0-0.93-0.44-1.7-1.33-2.33
	c-0.89-0.63-2.39-1.12-4.52-1.47c-2.75-0.46-4.76-1.24-6.03-2.33c-1.27-1.09-1.9-2.4-1.9-3.92c0-1.39,0.38-2.55,1.14-3.47
	c0.76-0.93,1.76-1.62,3-2.08c1.24-0.46,2.58-0.69,4.02-0.69c1.82,0,3.4,0.31,4.74,0.92c1.33,0.61,2.41,1.44,3.23,2.47
	c0.3,0.38,0.43,0.78,0.39,1.21s-0.27,0.76-0.67,1c-0.35,0.25-0.77,0.33-1.25,0.25c-0.48-0.08-0.88-0.3-1.21-0.65
	c-0.68-0.74-1.46-1.27-2.33-1.61c-0.87-0.34-1.87-0.51-2.98-0.51c-1.42,0-2.56,0.28-3.43,0.84c-0.87,0.56-1.31,1.27-1.31,2.15
	c0,0.6,0.16,1.12,0.47,1.55c0.31,0.44,0.87,0.82,1.68,1.16c0.8,0.34,1.95,0.65,3.45,0.92c2.04,0.35,3.66,0.85,4.84,1.49
	c1.19,0.64,2.03,1.38,2.53,2.23c0.5,0.84,0.76,1.78,0.76,2.82c0,1.28-0.36,2.4-1.08,3.37c-0.72,0.97-1.74,1.74-3.04,2.31
	C245.15,55.71,243.6,55.99,241.8,55.99z"/>
<path class="st5" d="M260.97,55.79c-1.14,0-2.15-0.31-3.02-0.92c-0.87-0.61-1.55-1.46-2.04-2.55c-0.49-1.09-0.74-2.34-0.74-3.76
	V25.59c0-0.52,0.16-0.93,0.47-1.25c0.31-0.31,0.73-0.47,1.25-0.47c0.49,0,0.89,0.16,1.21,0.47c0.31,0.31,0.47,0.73,0.47,1.25v22.96
	c0,1.12,0.23,2.04,0.67,2.76c0.45,0.72,1.03,1.08,1.74,1.08h1.02c0.44,0,0.79,0.16,1.06,0.47c0.27,0.31,0.41,0.71,0.41,1.21
	c0,0.52-0.2,0.93-0.59,1.25c-0.4,0.31-0.91,0.47-1.53,0.47H260.97z"/>
<path class="st5" d="M270.04,29.39c-0.65,0-1.21-0.24-1.68-0.71c-0.46-0.48-0.69-1.04-0.69-1.7c0-0.68,0.24-1.24,0.71-1.68
	c0.48-0.44,1.03-0.65,1.66-0.65c0.63,0,1.18,0.22,1.65,0.65c0.48,0.44,0.71,0.99,0.71,1.68c0,0.65-0.23,1.22-0.69,1.7
	C271.25,29.16,270.69,29.39,270.04,29.39z M270.08,55.79c-0.52,0-0.94-0.16-1.27-0.47c-0.33-0.31-0.49-0.74-0.49-1.29V35.2
	c0-0.54,0.16-0.97,0.49-1.29c0.33-0.31,0.75-0.47,1.27-0.47c0.52,0,0.93,0.16,1.25,0.47c0.31,0.31,0.47,0.74,0.47,1.29v18.84
	c0,0.54-0.16,0.97-0.47,1.29C271.01,55.63,270.59,55.79,270.08,55.79z"/>
<path class="st5" d="M289.73,55.99c-2.15,0-4.07-0.5-5.76-1.49c-1.69-0.99-3.02-2.35-3.98-4.07c-0.97-1.72-1.45-3.65-1.45-5.8
	c0-2.18,0.47-4.13,1.41-5.84c0.94-1.72,2.22-3.07,3.84-4.07c1.62-0.99,3.49-1.49,5.62-1.49c1.63,0,3.15,0.32,4.54,0.96
	c1.39,0.64,2.61,1.6,3.68,2.88c0.33,0.38,0.44,0.77,0.35,1.16c-0.1,0.4-0.35,0.74-0.76,1.04c-0.33,0.22-0.69,0.29-1.08,0.23
	c-0.4-0.07-0.76-0.28-1.08-0.63c-1.5-1.69-3.38-2.53-5.64-2.53c-1.5,0-2.81,0.35-3.94,1.06c-1.13,0.71-2.01,1.68-2.64,2.92
	c-0.63,1.24-0.94,2.68-0.94,4.31c0,1.58,0.33,2.99,1,4.23c0.67,1.24,1.59,2.22,2.78,2.94c1.19,0.72,2.54,1.08,4.07,1.08
	c1.03,0,1.97-0.14,2.8-0.41c0.83-0.27,1.57-0.69,2.23-1.27c0.38-0.3,0.76-0.46,1.14-0.49c0.38-0.03,0.74,0.08,1.06,0.33
	c0.35,0.33,0.56,0.69,0.61,1.1c0.05,0.41-0.08,0.78-0.41,1.1C295.18,55.08,292.7,55.99,289.73,55.99z"/>
<path class="st5" d="M314.37,55.99c-2.23,0-4.21-0.48-5.92-1.45c-1.72-0.97-3.06-2.31-4.05-4.02c-0.98-1.72-1.47-3.68-1.47-5.88
	c0-2.23,0.46-4.2,1.39-5.9c0.93-1.7,2.2-3.04,3.82-4.02c1.62-0.98,3.49-1.47,5.62-1.47c2.07,0,3.88,0.47,5.41,1.41
	c1.54,0.94,2.72,2.24,3.56,3.9c0.83,1.66,1.25,3.55,1.25,5.68c0,0.46-0.15,0.84-0.45,1.12s-0.68,0.43-1.14,0.43H305.3v-2.82h17.28
	l-1.76,1.23c0.03-1.5-0.25-2.85-0.82-4.04c-0.57-1.2-1.39-2.14-2.45-2.82c-1.06-0.68-2.33-1.02-3.8-1.02
	c-1.55,0-2.91,0.35-4.07,1.06c-1.16,0.71-2.04,1.7-2.66,2.96c-0.61,1.27-0.92,2.7-0.92,4.31c0,1.61,0.35,3.04,1.06,4.29
	c0.71,1.25,1.68,2.23,2.92,2.94c1.24,0.71,2.66,1.06,4.27,1.06c0.93,0,1.87-0.16,2.84-0.49c0.97-0.33,1.74-0.74,2.31-1.23
	c0.33-0.25,0.7-0.37,1.12-0.39c0.42-0.01,0.77,0.1,1.04,0.35c0.41,0.35,0.62,0.74,0.63,1.14c0.01,0.41-0.17,0.76-0.55,1.06
	c-0.9,0.76-2.04,1.39-3.43,1.88S315.62,55.99,314.37,55.99z"/>
<path class="st5" d="M331,55.79c-0.55,0-0.97-0.15-1.27-0.45c-0.3-0.3-0.45-0.72-0.45-1.27V35.16c0-0.54,0.15-0.97,0.45-1.27
	c0.3-0.3,0.72-0.45,1.27-0.45c0.54,0,0.96,0.15,1.25,0.45c0.29,0.3,0.43,0.72,0.43,1.27v18.92c0,0.55-0.14,0.97-0.43,1.27
	C331.96,55.64,331.54,55.79,331,55.79z M330.79,41.94c0.05-1.66,0.48-3.15,1.29-4.47c0.8-1.32,1.87-2.36,3.19-3.13
	c1.32-0.76,2.77-1.14,4.35-1.14c1.39,0,2.44,0.2,3.17,0.61s0.99,0.97,0.8,1.68c-0.08,0.38-0.25,0.65-0.51,0.82
	c-0.26,0.16-0.56,0.25-0.9,0.25c-0.34,0-0.73-0.03-1.16-0.08c-1.61-0.19-3.03-0.09-4.27,0.31c-1.24,0.4-2.23,1.04-2.96,1.94
	c-0.74,0.9-1.1,1.98-1.1,3.23H330.79z"/>
<path class="st6" d="M357.75,47.13c-0.23,0-0.41-0.07-0.54-0.2c-0.13-0.13-0.2-0.3-0.2-0.49c0-0.2,0.07-0.37,0.2-0.51
	c0.13-0.13,0.31-0.2,0.54-0.2h4.9c0.22,0,0.39,0.07,0.52,0.2c0.13,0.13,0.2,0.3,0.2,0.51c0,0.19-0.07,0.35-0.2,0.49
	c-0.13,0.13-0.31,0.2-0.52,0.2H357.75z M359.61,55.79c-0.2,0-0.38-0.07-0.53-0.22c-0.15-0.15-0.23-0.35-0.23-0.6V45.4
	c0-0.9,0.16-1.69,0.48-2.36c0.32-0.67,0.78-1.2,1.4-1.57c0.62-0.38,1.35-0.56,2.2-0.56c0.24,0,0.44,0.07,0.59,0.21
	c0.15,0.14,0.23,0.31,0.23,0.52c0,0.22-0.08,0.39-0.23,0.53c-0.15,0.14-0.35,0.21-0.59,0.21c-0.53,0-0.99,0.12-1.35,0.37
	s-0.65,0.59-0.84,1.03c-0.19,0.44-0.29,0.94-0.29,1.52v9.69c0,0.25-0.07,0.45-0.22,0.6C360.09,55.72,359.88,55.79,359.61,55.79z"/>
<path class="st6" d="M369.72,55.89c-1.03,0-1.94-0.23-2.74-0.69c-0.79-0.46-1.42-1.09-1.88-1.89s-0.69-1.71-0.69-2.73
	c0-1.03,0.23-1.94,0.69-2.75c0.46-0.8,1.08-1.43,1.88-1.89c0.79-0.46,1.71-0.69,2.74-0.69c1.02,0,1.92,0.23,2.71,0.69
	c0.79,0.46,1.41,1.09,1.87,1.89c0.46,0.8,0.69,1.72,0.71,2.75c0,1.02-0.23,1.93-0.69,2.73s-1.08,1.43-1.88,1.89
	C371.64,55.66,370.74,55.89,369.72,55.89z M369.72,54.44c0.71,0,1.35-0.17,1.91-0.51c0.56-0.34,1-0.79,1.32-1.37
	s0.48-1.24,0.48-1.97s-0.16-1.4-0.48-1.98c-0.32-0.58-0.76-1.05-1.32-1.38c-0.56-0.34-1.2-0.51-1.91-0.51
	c-0.71,0-1.35,0.17-1.92,0.51c-0.57,0.34-1.01,0.8-1.33,1.38c-0.32,0.58-0.49,1.25-0.49,1.98s0.16,1.4,0.49,1.97
	s0.77,1.04,1.33,1.37C368.37,54.27,369.01,54.44,369.72,54.44z"/>
<path class="st6" d="M378.66,55.79c-0.25,0-0.45-0.07-0.59-0.21c-0.14-0.14-0.21-0.34-0.21-0.59v-8.83c0-0.25,0.07-0.45,0.21-0.59
	c0.14-0.14,0.34-0.21,0.59-0.21c0.25,0,0.45,0.07,0.58,0.21c0.13,0.14,0.2,0.34,0.2,0.59v8.83c0,0.25-0.07,0.45-0.2,0.59
	C379.11,55.72,378.92,55.79,378.66,55.79z M378.57,49.33c0.02-0.77,0.23-1.47,0.6-2.09c0.37-0.62,0.87-1.1,1.49-1.46
	c0.62-0.36,1.29-0.53,2.03-0.53c0.65,0,1.14,0.1,1.48,0.29c0.34,0.19,0.46,0.45,0.37,0.78c-0.04,0.18-0.12,0.31-0.24,0.38
	c-0.12,0.08-0.26,0.11-0.42,0.11c-0.16,0-0.34-0.01-0.54-0.04c-0.75-0.09-1.41-0.04-1.99,0.14c-0.58,0.18-1.04,0.49-1.38,0.91
	c-0.34,0.42-0.51,0.92-0.51,1.51H378.57z"/>
</svg>
