<?xml version="1.0" encoding="utf-8"?>
<!-- Generator: Adobe Illustrator 24.3.0, SVG Export Plug-In . SVG Version: 6.00 Build 0)  -->
<svg version="1.1" id="레이어_1" xmlns="http://www.w3.org/2000/svg" xmlns:xlink="http://www.w3.org/1999/xlink" x="0px"
	 y="0px" viewBox="0 0 480 480" style="enable-background:new 0 0 480 480;" xml:space="preserve">
<style type="text/css">
	.st0{fill-rule:evenodd;clip-rule:evenodd;fill:#D3D3D3;}
	.st1{fill-rule:evenodd;clip-rule:evenodd;fill:#292927;}
	.st2{fill-rule:evenodd;clip-rule:evenodd;fill:#00F9FF;}
	.st3{fill-rule:evenodd;clip-rule:evenodd;fill:#FFFFFF;}
	.st4{fill:#00F9FF;}
	.st5{fill:#D3D3D3;}
</style>
<g id="레이어_1_1_">
</g>
<polygon class="st0" points="256.92,76.95 276.25,43.45 278.07,44.68 279.86,45.95 281.61,47.27 283.32,48.64 285,50.05 
	286.64,51.51 288.24,53.01 289.79,54.55 291.31,56.13 292.78,57.76 294.21,59.42 295.6,61.12 296.93,62.86 298.22,64.63 
	299.47,66.43 300.66,68.27 301.81,70.14 302.9,72.04 303.94,73.97 304.93,75.93 305.87,77.91 306.75,79.91 307.58,81.94 
	308.36,83.99 309.08,86.06 309.74,88.15 310.35,90.26 310.9,92.38 311.39,94.52 311.83,96.67 312.21,98.83 312.53,100.99 
	312.79,103.17 313,105.35 313.14,107.54 313.23,109.73 313.26,111.92 313.23,114.12 313.14,116.31 312.99,118.49 312.78,120.68 
	312.52,122.85 312.19,125.02 311.81,127.18 311.37,129.33 310.87,131.46 310.32,133.58 309.71,135.69 309.04,137.78 308.32,139.85 
	307.54,141.9 306.71,143.92 305.82,145.93 304.88,147.91 303.89,149.86 302.85,151.79 301.75,153.69 300.6,155.56 299.41,157.39 
	298.16,159.2 296.87,160.97 295.53,162.7 294.14,164.4 292.71,166.06 291.24,167.68 289.72,169.27 288.16,170.81 286.56,172.3 
	284.92,173.76 283.24,175.17 281.52,176.53 279.77,177.85 277.98,179.12 276.16,180.34 274.31,181.52 272.43,182.64 270.52,183.71 
	268.58,184.73 266.61,185.7 264.62,186.61 262.6,187.47 260.56,188.28 258.5,189.03 256.42,189.73 254.33,190.37 252.21,190.95 
	250.09,191.48 247.95,191.95 245.79,192.36 243.63,192.71 241.46,193.01 239.28,193.25 237.09,193.43 234.9,193.55 232.71,193.61 
	230.52,193.61 228.33,193.56 226.14,193.44 223.95,193.27 221.77,193.04 219.6,192.75 217.44,192.4 215.28,191.99 213.14,191.53 
	211.01,191.01 208.9,190.43 206.8,189.79 204.72,189.1 202.66,188.36 200.61,187.56 198.6,186.7 196.6,185.79 194.63,184.83 
	206.02,165.11 207.16,165.64 208.32,166.15 209.5,166.64 210.7,167.11 211.92,167.55 213.16,167.97 214.42,168.37 215.69,168.74 
	216.98,169.08 218.29,169.4 219.61,169.68 220.94,169.94 222.29,170.17 223.65,170.37 225.02,170.54 226.4,170.67 227.79,170.78 
	229.19,170.85 230.6,170.89 232.01,170.89 233.43,170.86 234.85,170.8 236.27,170.7 237.7,170.57 239.12,170.4 240.54,170.2 
	241.96,169.96 243.38,169.69 244.79,169.38 246.19,169.04 247.58,168.66 248.97,168.25 250.35,167.81 251.71,167.33 253.06,166.82 
	254.4,166.28 255.72,165.7 257.02,165.1 258.31,164.46 259.58,163.79 260.83,163.1 262.06,162.37 263.27,161.62 264.45,160.85 
	265.61,160.04 266.75,159.22 267.87,158.37 268.95,157.5 270.02,156.6 271.05,155.69 272.06,154.76 273.05,153.8 274,152.84 
	274.93,151.85 275.83,150.85 276.7,149.84 277.54,148.82 278.35,147.78 279.14,146.73 279.89,145.68 280.62,144.61 281.32,143.54 
	281.98,142.47 282.63,141.38 283.24,140.29 283.83,139.18 284.4,138.06 284.95,136.92 285.47,135.77 285.96,134.61 286.42,133.43 
	286.86,132.25 287.26,131.05 287.64,129.84 287.98,128.63 288.29,127.4 288.57,126.17 288.81,124.93 289.02,123.69 289.19,122.44 
	289.33,121.19 289.43,119.94 289.49,118.68 289.52,117.43 289.51,116.17 289.45,114.92 289.36,113.67 289.23,112.43 289.06,111.19 
	288.85,109.96 288.61,108.74 288.32,107.52 287.99,106.32 287.62,105.12 287.22,103.94 286.78,102.77 286.29,101.62 285.77,100.48 
	285.21,99.36 284.62,98.25 283.99,97.17 283.32,96.1 282.62,95.05 281.89,94.03 281.12,93.02 280.32,92.04 279.49,91.08 
	278.63,90.15 277.74,89.24 276.83,88.35 275.88,87.49 274.91,86.65 273.92,85.84 272.9,85.06 271.86,84.31 270.8,83.58 
	269.72,82.88 268.63,82.2 267.51,81.55 266.38,80.94 265.24,80.34 264.08,79.78 262.91,79.24 261.73,78.73 260.54,78.24 
	259.34,77.79 258.13,77.36 "/>
<polygon class="st0" points="206.1,146.79 186.76,180.28 184.94,179.06 183.16,177.79 181.41,176.47 179.69,175.1 178.02,173.69 
	176.38,172.23 174.78,170.73 173.22,169.19 171.71,167.61 170.23,165.98 168.8,164.32 167.42,162.62 166.08,160.88 164.79,159.11 
	163.55,157.3 162.35,155.47 161.21,153.6 160.12,151.7 159.07,149.77 158.08,147.81 157.15,145.83 156.26,143.82 155.43,141.79 
	154.66,139.74 153.94,137.67 153.27,135.58 152.67,133.48 152.12,131.36 151.62,129.22 151.18,127.07 150.81,124.91 150.49,122.74 
	150.22,120.57 150.02,118.38 149.87,116.2 149.79,114.01 149.76,111.81 149.79,109.62 149.88,107.43 150.03,105.25 150.23,103.06 
	150.5,100.89 150.82,98.72 151.2,96.56 151.64,94.41 152.14,92.28 152.69,90.16 153.31,88.05 153.97,85.96 154.69,83.89 
	155.47,81.84 156.31,79.81 157.19,77.81 158.13,75.83 159.12,73.87 160.17,71.95 161.27,70.05 162.41,68.18 163.61,66.34 
	164.85,64.54 166.15,62.77 167.49,61.03 168.87,59.34 170.3,57.68 171.78,56.05 173.3,54.47 174.86,52.93 176.46,51.43 178.1,49.98 
	179.78,48.57 181.49,47.21 183.24,45.89 185.03,44.62 186.85,43.39 188.7,42.22 190.59,41.1 192.5,40.03 194.44,39.01 196.41,38.04 
	198.4,37.13 200.41,36.26 202.45,35.46 204.51,34.71 206.59,34.01 208.69,33.37 210.8,32.79 212.93,32.26 215.07,31.79 
	217.22,31.38 219.39,31.02 221.56,30.73 223.74,30.49 225.92,30.31 228.11,30.19 230.3,30.13 232.5,30.13 234.69,30.18 236.88,30.3 
	239.06,30.47 241.24,30.7 243.41,30.99 245.58,31.34 247.73,31.75 249.88,32.21 252,32.73 254.12,33.31 256.22,33.94 258.3,34.63 
	260.36,35.38 262.4,36.18 264.42,37.04 266.41,37.95 268.38,38.91 257,58.63 255.86,58.1 254.7,57.59 253.51,57.1 252.31,56.63 
	251.09,56.19 249.86,55.77 248.6,55.37 247.33,55 246.04,54.66 244.73,54.34 243.41,54.06 242.07,53.8 240.73,53.57 239.37,53.37 
	237.99,53.2 236.61,53.06 235.22,52.96 233.82,52.89 232.41,52.85 231,52.84 229.59,52.87 228.16,52.94 226.74,53.04 225.32,53.17 
	223.89,53.34 222.47,53.54 221.05,53.78 219.64,54.05 218.23,54.36 216.83,54.7 215.43,55.07 214.05,55.48 212.67,55.93 
	211.31,56.41 209.96,56.92 208.62,57.46 207.3,58.04 205.99,58.64 204.71,59.28 203.44,59.95 202.19,60.64 200.96,61.36 
	199.75,62.11 198.56,62.89 197.4,63.69 196.26,64.52 195.15,65.37 194.06,66.24 193,67.14 191.96,68.05 190.95,68.98 189.97,69.93 
	189.01,70.9 188.09,71.89 187.19,72.88 186.32,73.9 185.48,74.92 184.66,75.96 183.88,77 183.12,78.06 182.4,79.12 181.7,80.2 
	181.03,81.27 180.39,82.36 179.77,83.45 179.18,84.56 178.61,85.68 178.07,86.82 177.55,87.97 177.06,89.13 176.59,90.3 
	176.16,91.49 175.75,92.69 175.38,93.9 175.04,95.11 174.72,96.34 174.45,97.57 174.2,98.81 174,100.05 173.82,101.3 173.69,102.55 
	173.58,103.8 173.52,105.05 173.5,106.31 173.51,107.56 173.56,108.81 173.65,110.06 173.78,111.31 173.95,112.55 174.16,113.78 
	174.41,115 174.7,116.22 175.02,117.42 175.39,118.62 175.8,119.8 176.24,120.97 176.72,122.12 177.24,123.26 177.8,124.38 
	178.39,125.49 179.03,126.57 179.69,127.64 180.39,128.69 181.13,129.71 181.89,130.72 182.69,131.7 183.52,132.66 184.38,133.59 
	185.27,134.5 186.19,135.39 187.13,136.25 188.1,137.08 189.1,137.89 190.11,138.68 191.15,139.43 192.21,140.16 193.29,140.86 
	194.39,141.54 195.5,142.18 196.63,142.8 197.78,143.4 198.94,143.96 200.11,144.5 201.29,145.01 202.48,145.49 203.68,145.95 
	204.89,146.38 "/>
<path class="st1" d="M206.1,146.79L257,58.63l-1.14-0.53l-1.16-0.51l-1.18-0.49l-1.2-0.47l-1.22-0.44l-1.24-0.42l-1.26-0.4
	L247.33,55l-1.29-0.34l-1.31-0.32l-1.32-0.29l-1.33-0.26l-1.35-0.23l-1.36-0.2l-1.37-0.17l-1.38-0.14l-1.39-0.1l-1.4-0.07
	l-1.41-0.04l-1.41,0l-1.42,0.03l-1.42,0.06l-1.42,0.1l-1.42,0.13l-1.42,0.17l-1.42,0.2l-1.42,0.24l-1.42,0.27l-1.41,0.31l-1.4,0.34
	l-1.4,0.38l-1.39,0.41l-1.38,0.44l-1.36,0.48l-1.35,0.51l-1.34,0.54l-1.32,0.57l-1.3,0.61l-1.29,0.64l-1.27,0.67l-1.25,0.7
	l-1.23,0.72l-1.21,0.75l-1.19,0.78l-1.16,0.8l-1.14,0.83l-1.11,0.85l-1.09,0.87L193,67.14l-1.04,0.91l-1.01,0.93l-0.98,0.95
	l-0.95,0.97l-0.93,0.98l-0.9,1l-0.87,1.01l-0.84,1.02l-0.81,1.04L183.88,77l-0.76,1.06l-0.73,1.06l-0.7,1.07l-0.67,1.08l-0.64,1.08
	l-0.62,1.09l-0.59,1.11l-0.57,1.12l-0.54,1.14l-0.52,1.15l-0.49,1.16l-0.46,1.18l-0.44,1.19l-0.41,1.2l-0.37,1.21l-0.34,1.22
	l-0.31,1.22l-0.28,1.23l-0.24,1.24l-0.21,1.24l-0.17,1.25l-0.14,1.25l-0.1,1.25l-0.06,1.25l-0.03,1.25l0.01,1.25l0.05,1.25
	l0.09,1.25l0.13,1.24l0.17,1.24l0.21,1.23l0.25,1.22l0.29,1.22l0.33,1.21l0.37,1.19l0.41,1.18l0.44,1.17l0.48,1.15l0.52,1.14
	l0.56,1.12l0.59,1.1l0.63,1.09l0.67,1.07l0.7,1.05l0.73,1.03l0.77,1l0.8,0.98l0.83,0.96l0.86,0.94l0.89,0.91l0.92,0.89l0.94,0.86
	l0.97,0.83l0.99,0.81l1.02,0.78l1.04,0.76l1.06,0.73l1.08,0.7l1.1,0.67l1.11,0.65l1.13,0.62l1.14,0.59l1.16,0.57l1.17,0.54
	l1.18,0.51l1.19,0.48l1.2,0.46l1.21,0.43L206.1,146.79z M233.7,68.39l0.05,0.07l0.05,0.07l0.05,0.08l0.05,0.08l0.05,0.08l0.05,0.08
	l0.04,0.08l0.04,0.08l0.04,0.08l0.04,0.09l0.04,0.09l0.04,0.09l0.04,0.09l0.03,0.09l0.03,0.09l0.03,0.09l0.03,0.1l0.03,0.1l0.03,0.1
	l0.02,0.1l0.02,0.1l0.02,0.1l0.02,0.1l0.02,0.1l0.02,0.11l0.01,0.11l0.01,0.11l0.01,0.11l0.01,0.11l0.01,0.11l0.01,0.23l0,0.23
	l-0.01,0.24l-0.02,0.24l-0.03,0.25l-0.03,0.25l-0.04,0.25l-0.05,0.26l-0.06,0.26l-0.07,0.26l-0.08,0.27l-0.08,0.27l-0.09,0.27
	l-0.1,0.27l-0.11,0.28l-0.12,0.28l-0.13,0.28l-0.13,0.28l-0.14,0.28l-0.15,0.28l-0.16,0.28l-0.16,0.28l-0.17,0.28l-0.18,0.28
	l-0.18,0.28l-0.19,0.28l-0.2,0.28l-0.41,0.55l-0.43,0.54l-0.45,0.53l-0.47,0.51l-0.48,0.5l-0.5,0.48l-0.51,0.47l-0.51,0.45
	l-0.52,0.43l-0.52,0.41l-0.52,0.39L226.1,84l-0.55,0.37l-0.57,0.36l-0.58,0.35l-0.6,0.34l-0.61,0.32l-0.62,0.31l-0.63,0.29
	l-0.64,0.27l-0.64,0.25L220,87.09l-0.32,0.1l-0.32,0.1l-0.32,0.09l-0.32,0.08l-0.32,0.08l-0.32,0.07l-0.31,0.06l-0.31,0.06
	l-0.31,0.05l-0.31,0.04l-0.3,0.04l-0.3,0.03l-0.3,0.02l-0.29,0.01l-0.29,0.01l-0.28,0l-0.28-0.01l-0.27-0.02l-0.27-0.02L214,87.85
	l-0.25-0.04l-0.25-0.04l-0.24-0.05l-0.24-0.06l-0.23-0.06l-0.22-0.07l-0.22-0.08l-0.11-0.04l-0.1-0.04l-0.1-0.04l-0.1-0.04
	l-0.1-0.05l-0.1-0.05l-0.09-0.05l-0.09-0.05l-0.09-0.05L211.38,87l-0.09-0.05l-0.09-0.05l-0.08-0.06l-0.08-0.06l-0.08-0.06
	l-0.08-0.06l-0.08-0.06l-0.07-0.06l-0.07-0.06l-0.07-0.06l-0.07-0.06l-0.07-0.07l-0.07-0.07l-0.06-0.07l-0.06-0.07l-0.06-0.07
	l-0.06-0.07l-0.06-0.07l-0.06-0.07l-0.05-0.07l-0.05-0.07l-0.05-0.07l-0.05-0.08l-0.05-0.08l-0.05-0.08l-0.05-0.08l-0.04-0.08
	l-0.04-0.08l-0.04-0.08l-0.04-0.09l-0.04-0.09l-0.04-0.09l-0.04-0.09l-0.03-0.09l-0.03-0.09l-0.03-0.09l-0.03-0.1l-0.03-0.1
	l-0.03-0.1l-0.02-0.1l-0.02-0.1l-0.02-0.1l-0.02-0.1l-0.02-0.1l-0.02-0.11l-0.01-0.11l-0.01-0.11l-0.01-0.11l-0.01-0.11l-0.01-0.11
	l-0.01-0.23l0-0.23l0.01-0.24l0.02-0.24l0.03-0.25l0.03-0.25l0.04-0.25l0.05-0.26l0.06-0.26l0.07-0.26l0.08-0.27l0.08-0.27
	l0.09-0.27l0.1-0.27l0.11-0.28l0.12-0.28l0.13-0.28l0.13-0.28l0.14-0.28l0.15-0.28l0.16-0.28l0.16-0.28l0.17-0.28l0.18-0.28
	l0.18-0.28l0.19-0.28l0.2-0.28l0.41-0.55l0.43-0.54l0.45-0.53l0.47-0.51l0.48-0.5l0.5-0.48l0.51-0.47l0.51-0.45l0.52-0.43l0.52-0.41
	l0.52-0.39l0.53-0.38l0.55-0.37l0.57-0.36l0.58-0.35l0.6-0.34l0.61-0.32l0.62-0.31l0.63-0.29l0.64-0.27l0.64-0.25l0.64-0.23
	l0.32-0.1l0.32-0.1l0.32-0.09l0.32-0.08l0.32-0.08l0.32-0.07l0.31-0.06l0.31-0.06l0.31-0.05l0.31-0.04l0.3-0.04l0.3-0.03l0.3-0.02
	l0.29-0.01l0.29-0.01l0.28,0l0.28,0.01l0.27,0.02l0.27,0.02l0.26,0.03l0.25,0.04l0.25,0.04l0.24,0.05l0.24,0.06l0.23,0.06l0.22,0.07
	l0.22,0.08l0.11,0.04l0.1,0.04l0.1,0.04l0.1,0.04l0.1,0.05l0.1,0.05l0.09,0.05l0.09,0.05l0.09,0.05l0.09,0.05l0.09,0.05l0.09,0.05
	l0.08,0.06l0.08,0.06l0.08,0.06l0.08,0.06l0.08,0.06l0.07,0.06l0.07,0.06l0.07,0.06l0.07,0.06l0.07,0.07l0.07,0.07l0.06,0.07
	l0.06,0.07l0.06,0.07l0.06,0.07l0.06,0.07l0.06,0.07L233.7,68.39z"/>
<polygon class="st1" points="256.92,76.95 206.02,165.11 207.16,165.64 208.32,166.15 209.5,166.64 210.7,167.11 211.92,167.55 
	213.16,167.97 214.42,168.37 215.69,168.74 216.98,169.08 218.29,169.4 219.61,169.68 220.94,169.94 222.29,170.17 223.65,170.37 
	225.02,170.54 226.4,170.67 227.79,170.78 229.19,170.85 230.6,170.89 232.01,170.89 233.43,170.86 234.85,170.8 236.27,170.7 
	237.7,170.57 239.12,170.4 240.54,170.2 241.96,169.96 243.38,169.69 244.79,169.38 246.19,169.04 247.58,168.66 248.97,168.25 
	250.35,167.81 251.71,167.33 253.06,166.82 254.4,166.28 255.72,165.7 257.02,165.1 258.31,164.46 259.58,163.79 260.83,163.1 
	262.06,162.37 263.27,161.62 264.45,160.85 265.61,160.04 266.75,159.22 267.87,158.37 268.95,157.5 270.02,156.6 271.05,155.69 
	272.06,154.76 273.05,153.8 274,152.84 274.93,151.85 275.83,150.85 276.7,149.84 277.54,148.82 278.35,147.78 279.14,146.73 
	279.89,145.68 280.62,144.61 281.32,143.54 281.98,142.47 282.63,141.38 283.24,140.29 283.83,139.18 284.4,138.06 284.95,136.92 
	285.47,135.77 285.96,134.61 286.42,133.43 286.86,132.25 287.26,131.05 287.64,129.84 287.98,128.63 288.29,127.4 288.57,126.17 
	288.81,124.93 289.02,123.69 289.19,122.44 289.33,121.19 289.43,119.94 289.49,118.68 289.52,117.43 289.51,116.17 289.45,114.92 
	289.36,113.67 289.23,112.43 289.06,111.19 288.85,109.96 288.61,108.74 288.32,107.52 287.99,106.32 287.62,105.12 287.22,103.94 
	286.78,102.77 286.29,101.62 285.77,100.48 285.21,99.36 284.62,98.25 283.99,97.17 283.32,96.1 282.62,95.05 281.89,94.03 
	281.12,93.02 280.32,92.04 279.49,91.08 278.63,90.15 277.74,89.24 276.83,88.35 275.88,87.49 274.91,86.65 273.92,85.84 
	272.9,85.06 271.86,84.31 270.8,83.58 269.72,82.88 268.63,82.2 267.51,81.55 266.38,80.94 265.24,80.34 264.08,79.78 262.91,79.24 
	261.73,78.73 260.54,78.24 259.34,77.79 258.13,77.36 "/>
<polygon class="st2" points="198.15,160.56 199.66,161.57 201.21,162.53 202.79,163.44 204.39,164.3 206.02,165.11 264.87,63.17 
	263.35,62.17 261.8,61.21 260.23,60.3 258.63,59.44 257,58.63 "/>
<polygon class="st3" points="233.7,68.39 233.76,68.46 233.81,68.53 233.86,68.61 233.9,68.69 233.95,68.77 234,68.85 234.04,68.93 
	234.09,69.01 234.13,69.09 234.17,69.18 234.21,69.27 234.24,69.36 234.28,69.45 234.31,69.54 234.35,69.63 234.38,69.72 
	234.41,69.82 234.43,69.92 234.46,70.01 234.48,70.11 234.51,70.21 234.53,70.32 234.55,70.42 234.56,70.52 234.58,70.63 
	234.59,70.74 234.6,70.85 234.61,70.96 234.62,71.07 234.63,71.18 234.63,71.41 234.63,71.64 234.62,71.88 234.61,72.12 
	234.58,72.37 234.55,72.62 234.5,72.87 234.45,73.13 234.39,73.39 234.32,73.65 234.25,73.92 234.16,74.19 234.07,74.46 
	233.97,74.73 233.86,75.01 233.74,75.28 233.62,75.56 233.48,75.84 233.34,76.12 233.19,76.4 233.04,76.68 232.88,76.96 
	232.7,77.24 232.53,77.52 232.34,77.8 232.15,78.08 231.96,78.35 231.55,78.9 231.11,79.44 230.66,79.96 230.19,80.48 229.71,80.98 
	229.22,81.46 228.71,81.93 228.2,82.38 227.68,82.81 227.16,83.22 226.63,83.62 226.1,84 225.55,84.37 224.98,84.73 224.39,85.09 
	223.79,85.42 223.18,85.75 222.56,86.06 221.93,86.35 221.29,86.62 220.65,86.87 220,87.09 219.68,87.2 219.36,87.29 219.04,87.38 
	218.72,87.47 218.4,87.55 218.08,87.62 217.77,87.68 217.46,87.74 217.15,87.79 216.84,87.83 216.54,87.86 216.24,87.89 
	215.94,87.91 215.65,87.93 215.36,87.93 215.08,87.93 214.8,87.92 214.53,87.91 214.27,87.88 214,87.85 213.75,87.82 213.5,87.78 
	213.26,87.73 213.02,87.67 212.79,87.61 212.57,87.54 212.36,87.46 212.25,87.42 212.15,87.38 212.05,87.34 211.95,87.29 
	211.85,87.25 211.75,87.2 211.66,87.15 211.56,87.1 211.47,87.05 211.38,87 211.3,86.95 211.21,86.89 211.13,86.84 211.04,86.78 
	210.96,86.72 210.89,86.66 210.81,86.6 210.73,86.54 210.66,86.48 210.59,86.42 210.52,86.35 210.45,86.29 210.39,86.22 
	210.32,86.15 210.26,86.08 210.2,86.02 210.14,85.95 210.08,85.88 210.03,85.8 209.97,85.73 209.92,85.66 209.87,85.58 
	209.82,85.51 209.77,85.43 209.72,85.35 209.68,85.27 209.63,85.19 209.59,85.11 209.55,85.02 209.51,84.94 209.47,84.85 
	209.43,84.76 209.4,84.67 209.36,84.58 209.33,84.49 209.3,84.39 209.27,84.3 209.24,84.2 209.22,84.1 209.19,84 209.17,83.9 
	209.15,83.8 209.13,83.7 209.11,83.59 209.1,83.49 209.08,83.38 209.07,83.27 209.06,83.16 209.05,83.05 209.05,82.94 209.04,82.71 
	209.04,82.48 209.05,82.24 209.07,82 209.1,81.75 209.13,81.5 209.17,81.25 209.23,80.99 209.28,80.73 209.35,80.47 209.43,80.2 
	209.51,79.93 209.61,79.66 209.71,79.39 209.82,79.11 209.93,78.83 210.06,78.55 210.19,78.28 210.33,78 210.48,77.71 210.64,77.43 
	210.8,77.15 210.97,76.87 211.15,76.59 211.33,76.32 211.52,76.04 211.72,75.76 212.13,75.22 212.56,74.68 213.01,74.15 
	213.48,73.64 213.97,73.14 214.46,72.66 214.97,72.19 215.48,71.74 216,71.31 216.52,70.89 217.04,70.5 217.58,70.12 218.13,69.75 
	218.7,69.38 219.28,69.03 219.88,68.69 220.49,68.37 221.12,68.06 221.75,67.77 222.39,67.5 223.03,67.25 223.67,67.02 224,66.92 
	224.32,66.82 224.64,66.73 224.96,66.65 225.28,66.57 225.59,66.5 225.91,66.44 226.22,66.38 226.53,66.33 226.84,66.29 
	227.14,66.25 227.44,66.23 227.74,66.21 228.03,66.19 228.31,66.19 228.6,66.19 228.87,66.2 229.15,66.21 229.41,66.23 
	229.67,66.26 229.93,66.3 230.18,66.34 230.42,66.39 230.65,66.45 230.88,66.51 231.11,66.58 231.32,66.66 231.43,66.7 
	231.53,66.74 231.63,66.78 231.73,66.82 231.83,66.87 231.93,66.92 232.02,66.96 232.11,67.01 232.2,67.06 232.29,67.12 
	232.38,67.17 232.47,67.22 232.55,67.28 232.63,67.34 232.71,67.4 232.79,67.45 232.87,67.51 232.94,67.58 233.02,67.64 
	233.09,67.7 233.16,67.77 233.22,67.83 233.29,67.9 233.35,67.96 233.42,68.03 233.48,68.1 233.54,68.17 233.59,68.24 233.65,68.31 
	"/>
<polygon class="st0" points="107.63,305.38 107.63,285.11 111.1,285.11 111.1,302.39 120.92,302.39 120.92,305.38 "/>
<polygon class="st0" points="344.79,305.38 344.79,285.11 360.36,285.11 360.36,288.1 348.25,288.1 348.25,293.5 359.54,293.5 
	359.54,296.46 348.25,296.46 348.25,302.39 360.93,302.39 360.93,305.38 "/>
<polygon class="st0" points="287.79,290.97 287.6,290.49 287.42,289.98 287.04,288.87 286.7,289.86 286.28,290.99 280.66,305.38 
	277.02,305.38 285.29,285.11 288.85,285.11 296.99,305.38 293.4,305.38 291.18,299.7 284.14,299.7 285.26,296.81 290.07,296.81 "/>
<polygon class="st0" points="217.1,290.79 219.57,286.52 219.87,286.73 220.16,286.94 220.45,287.16 220.72,287.4 220.99,287.64 
	221.25,287.89 221.5,288.16 221.75,288.43 221.98,288.7 222.2,288.99 222.41,289.29 222.62,289.59 222.81,289.89 222.99,290.21 
	223.16,290.53 223.32,290.86 223.46,291.19 223.6,291.52 223.72,291.87 223.83,292.21 223.93,292.56 224.02,292.91 224.09,293.27 
	224.16,293.62 224.21,293.98 224.24,294.34 224.27,294.71 224.28,295.07 224.28,295.43 224.27,295.79 224.24,296.16 224.2,296.52 
	224.15,296.88 224.09,297.23 224.01,297.59 223.93,297.94 223.83,298.29 223.71,298.63 223.59,298.98 223.45,299.31 223.31,299.64 
	223.15,299.97 222.98,300.29 222.8,300.6 222.6,300.91 222.4,301.21 222.19,301.51 221.96,301.79 221.73,302.07 221.49,302.34 
	221.24,302.6 220.98,302.85 220.71,303.1 220.43,303.33 220.14,303.55 219.85,303.77 219.55,303.97 219.24,304.16 218.93,304.34 
	218.61,304.51 218.28,304.67 217.95,304.82 217.61,304.96 217.27,305.08 216.93,305.2 216.58,305.3 216.23,305.38 215.87,305.46 
	215.52,305.52 215.16,305.58 214.8,305.61 214.43,305.64 214.07,305.65 213.71,305.65 213.35,305.64 212.98,305.62 212.62,305.58 
	212.26,305.53 211.91,305.47 211.55,305.39 211.2,305.31 210.85,305.21 210.5,305.1 210.16,304.97 209.83,304.84 209.49,304.69 
	209.17,304.54 210.62,302.02 210.76,302.09 210.91,302.16 211.06,302.22 211.22,302.28 211.37,302.33 211.53,302.39 211.69,302.44 
	211.85,302.48 212.02,302.53 212.18,302.57 212.35,302.61 212.52,302.64 212.69,302.67 212.87,302.69 213.04,302.71 213.22,302.73 
	213.39,302.74 213.57,302.75 213.75,302.76 213.93,302.76 214.11,302.76 214.29,302.75 214.47,302.74 214.66,302.72 214.84,302.7 
	215.02,302.67 215.2,302.64 215.38,302.61 215.56,302.57 215.74,302.52 215.92,302.48 216.09,302.42 216.27,302.37 216.44,302.31 
	216.61,302.24 216.78,302.17 216.95,302.1 217.12,302.02 217.28,301.94 217.44,301.85 217.6,301.77 217.76,301.67 217.91,301.58 
	218.06,301.48 218.21,301.38 218.36,301.27 218.5,301.16 218.64,301.05 218.77,300.94 218.91,300.82 219.03,300.7 219.16,300.58 
	219.28,300.46 219.4,300.33 219.51,300.21 219.62,300.08 219.73,299.95 219.84,299.81 219.94,299.68 220.03,299.55 220.12,299.41 
	220.21,299.27 220.3,299.14 220.38,299 220.46,298.86 220.53,298.72 220.61,298.58 220.68,298.43 220.74,298.28 220.8,298.14 
	220.86,297.99 220.92,297.84 220.97,297.68 221.02,297.53 221.06,297.37 221.1,297.22 221.14,297.06 221.17,296.9 221.19,296.75 
	221.22,296.59 221.23,296.43 221.25,296.27 221.26,296.11 221.26,295.95 221.26,295.79 221.25,295.63 221.24,295.47 221.22,295.31 
	221.2,295.15 221.17,295 221.14,294.84 221.11,294.68 221.06,294.53 221.02,294.38 220.97,294.23 220.91,294.08 220.85,293.93 
	220.78,293.79 220.71,293.64 220.63,293.5 220.55,293.37 220.47,293.23 220.38,293.1 220.29,292.97 220.19,292.84 220.09,292.71 
	219.98,292.59 219.87,292.47 219.76,292.35 219.64,292.24 219.52,292.13 219.4,292.03 219.27,291.92 219.14,291.82 219.01,291.73 
	218.87,291.63 218.74,291.54 218.6,291.46 218.45,291.38 218.31,291.3 218.16,291.22 218.02,291.15 217.87,291.08 217.72,291.02 
	217.57,290.95 217.41,290.9 217.26,290.84 "/>
<polygon class="st0" points="210.63,299.69 208.17,303.96 207.87,303.75 207.57,303.54 207.29,303.31 207.01,303.08 206.74,302.84 
	206.48,302.58 206.23,302.32 205.99,302.05 205.75,301.77 205.53,301.49 205.32,301.19 205.12,300.89 204.93,300.58 204.75,300.27 
	204.58,299.95 204.42,299.62 204.27,299.29 204.14,298.95 204.01,298.61 203.9,298.27 203.8,297.92 203.71,297.57 203.64,297.21 
	203.58,296.85 203.53,296.49 203.49,296.13 203.46,295.77 203.45,295.41 203.45,295.05 203.47,294.68 203.49,294.32 203.53,293.96 
	203.58,293.6 203.64,293.24 203.72,292.89 203.81,292.54 203.91,292.19 204.02,291.84 204.14,291.5 204.28,291.17 204.43,290.83 
	204.59,290.51 204.76,290.19 204.94,289.87 205.13,289.57 205.33,289.27 205.55,288.97 205.77,288.69 206,288.41 206.25,288.14 
	206.5,287.88 206.76,287.63 207.03,287.38 207.31,287.15 207.59,286.93 207.88,286.71 208.18,286.51 208.49,286.32 208.81,286.13 
	209.13,285.96 209.45,285.8 209.78,285.66 210.12,285.52 210.46,285.4 210.81,285.28 211.15,285.18 211.51,285.09 211.86,285.02 
	212.22,284.95 212.58,284.9 212.94,284.86 213.3,284.84 213.66,284.82 214.02,284.82 214.39,284.84 214.75,284.86 215.11,284.9 
	215.47,284.95 215.83,285.01 216.18,285.08 216.53,285.17 216.88,285.27 217.23,285.38 217.57,285.5 217.91,285.64 218.24,285.78 
	218.57,285.94 217.11,288.46 216.97,288.39 216.82,288.32 216.67,288.26 216.52,288.2 216.36,288.14 216.2,288.09 216.04,288.04 
	215.88,287.99 215.72,287.95 215.55,287.91 215.38,287.87 215.21,287.84 215.04,287.81 214.87,287.78 214.69,287.76 214.52,287.75 
	214.34,287.73 214.16,287.72 213.98,287.72 213.8,287.72 213.62,287.72 213.44,287.73 213.26,287.74 213.08,287.76 212.9,287.78 
	212.72,287.81 212.53,287.84 212.35,287.87 212.17,287.91 212,287.95 211.82,288 211.64,288.05 211.47,288.11 211.29,288.17 
	211.12,288.24 210.95,288.31 210.78,288.38 210.62,288.46 210.45,288.54 210.29,288.62 210.13,288.71 209.97,288.8 209.82,288.9 
	209.67,289 209.52,289.1 209.38,289.21 209.23,289.31 209.1,289.43 208.96,289.54 208.83,289.66 208.7,289.77 208.57,289.9 
	208.45,290.02 208.33,290.14 208.22,290.27 208.11,290.4 208,290.53 207.9,290.66 207.8,290.8 207.7,290.93 207.61,291.07 
	207.52,291.2 207.44,291.34 207.35,291.48 207.28,291.62 207.2,291.76 207.13,291.9 207.06,292.05 206.99,292.19 206.93,292.34 
	206.87,292.49 206.81,292.64 206.76,292.79 206.72,292.95 206.67,293.1 206.63,293.26 206.6,293.42 206.57,293.57 206.54,293.73 
	206.52,293.89 206.5,294.05 206.49,294.21 206.48,294.37 206.48,294.53 206.48,294.69 206.48,294.85 206.5,295.01 206.51,295.17 
	206.53,295.33 206.56,295.48 206.59,295.64 206.63,295.79 206.67,295.95 206.72,296.1 206.77,296.25 206.82,296.4 206.89,296.54 
	206.95,296.69 207.02,296.83 207.1,296.97 207.18,297.11 207.26,297.25 207.35,297.38 207.45,297.51 207.55,297.64 207.65,297.77 
	207.75,297.89 207.86,298.01 207.98,298.12 208.09,298.24 208.21,298.35 208.34,298.45 208.46,298.55 208.59,298.65 208.72,298.75 
	208.86,298.84 209,298.93 209.14,299.02 209.28,299.1 209.42,299.18 209.57,299.26 209.72,299.33 209.87,299.4 210.02,299.46 
	210.17,299.52 210.32,299.58 210.47,299.64 "/>
<polygon class="st0" points="144.55,305.66 145.01,305.65 145.24,305.64 145.47,305.62 145.7,305.61 145.93,305.58 146.16,305.56 
	146.38,305.52 146.59,305.49 146.8,305.45 147.01,305.41 147.22,305.36 147.43,305.31 147.63,305.25 147.84,305.19 148.04,305.12 
	148.23,305.06 148.42,304.99 148.61,304.91 148.79,304.83 148.98,304.74 149.16,304.65 149.34,304.56 149.51,304.46 149.68,304.36 
	149.85,304.25 150.01,304.14 150.16,304.03 150.32,303.91 150.47,303.79 150.62,303.66 150.76,303.54 150.9,303.4 151.04,303.27 
	151.17,303.13 151.3,302.98 151.42,302.83 151.54,302.68 151.66,302.53 151.77,302.37 151.88,302.21 151.98,302.04 152.08,301.87 
	152.18,301.7 152.27,301.53 152.35,301.35 152.44,301.16 152.51,300.98 152.59,300.79 152.65,300.6 152.72,300.4 152.78,300.2 
	152.83,300.01 152.88,299.81 152.92,299.61 152.96,299.4 152.99,299.19 153.02,298.97 153.05,298.75 153.07,298.53 153.09,298.31 
	153.1,298.09 153.1,297.87 153.11,297.65 153.11,285.11 149.65,285.11 149.65,297.5 149.65,297.81 149.64,297.96 149.63,298.12 
	149.62,298.27 149.6,298.42 149.59,298.58 149.57,298.73 149.54,298.86 149.52,299 149.49,299.13 149.46,299.26 149.43,299.39 
	149.39,299.52 149.35,299.65 149.31,299.78 149.27,299.89 149.23,300.01 149.18,300.12 149.13,300.23 149.07,300.34 149.02,300.45 
	148.96,300.55 148.9,300.66 148.83,300.75 148.77,300.85 148.7,300.94 148.63,301.03 148.56,301.12 148.48,301.21 148.4,301.29 
	148.32,301.38 148.24,301.46 148.15,301.53 148.06,301.61 147.97,301.68 147.88,301.75 147.79,301.82 147.69,301.88 147.59,301.94 
	147.49,302 147.39,302.06 147.28,302.12 147.17,302.17 147.06,302.22 146.95,302.27 146.84,302.31 146.73,302.35 146.6,302.39 
	146.48,302.43 146.35,302.47 146.23,302.5 146.1,302.53 145.97,302.55 145.84,302.58 145.71,302.6 145.57,302.62 145.42,302.64 
	145.27,302.65 145.13,302.66 144.98,302.67 144.83,302.68 144.54,302.68 144.25,302.68 144.11,302.67 143.97,302.66 143.82,302.65 
	143.68,302.64 143.54,302.62 143.4,302.6 143.28,302.58 143.15,302.56 143.03,302.53 142.91,302.51 142.78,302.47 142.66,302.44 
	142.54,302.4 142.42,302.36 142.32,302.32 142.21,302.28 142.11,302.24 142,302.19 141.9,302.14 141.8,302.09 141.7,302.03 
	141.61,301.97 141.52,301.91 141.43,301.85 141.34,301.79 141.25,301.72 141.17,301.65 141.09,301.58 141.01,301.51 140.93,301.43 
	140.86,301.35 140.78,301.27 140.71,301.19 140.65,301.1 140.58,301.01 140.52,300.92 140.46,300.83 140.4,300.74 140.34,300.64 
	140.29,300.53 140.23,300.43 140.18,300.32 140.14,300.22 140.09,300.11 140.05,300 140.02,299.89 139.98,299.76 139.94,299.64 
	139.91,299.51 139.87,299.39 139.85,299.26 139.82,299.13 139.8,299 139.78,298.87 139.76,298.72 139.74,298.57 139.73,298.43 
	139.72,298.28 139.7,297.98 139.7,297.68 139.7,285.11 136.23,285.11 136.23,297.9 136.23,298.11 136.24,298.33 136.25,298.54 
	136.27,298.76 136.29,298.97 136.31,299.18 136.34,299.39 136.38,299.6 136.41,299.8 136.46,299.99 136.5,300.19 136.55,300.38 
	136.61,300.57 136.67,300.76 136.74,300.95 136.81,301.14 136.89,301.31 136.97,301.49 137.05,301.66 137.14,301.83 137.24,302 
	137.33,302.16 137.44,302.33 137.54,302.48 137.65,302.64 137.76,302.79 137.88,302.93 138,303.07 138.13,303.21 138.26,303.35 
	138.39,303.48 138.53,303.61 138.67,303.74 138.81,303.86 138.96,303.98 139.11,304.09 139.27,304.2 139.42,304.3 139.58,304.4 
	139.75,304.5 139.92,304.6 140.09,304.69 140.27,304.78 140.45,304.86 140.63,304.94 140.81,305.01 140.99,305.08 141.18,305.14 
	141.38,305.21 141.57,305.27 141.77,305.32 141.97,305.37 142.17,305.42 142.38,305.46 142.58,305.5 142.78,305.53 143,305.56 
	143.22,305.59 143.44,305.61 143.67,305.62 143.89,305.64 144.11,305.65 "/>
<polygon class="st0" points="168.9,295.16 168.91,295.63 168.93,296.11 168.97,296.59 169.02,297.06 169.08,297.5 169.12,297.73 
	169.16,297.95 169.21,298.16 169.26,298.38 169.31,298.6 169.37,298.82 169.43,299.02 169.5,299.23 169.56,299.43 169.64,299.63 
	169.71,299.83 169.79,300.03 169.88,300.22 169.96,300.42 170.05,300.6 170.15,300.79 170.24,300.97 170.35,301.15 170.45,301.33 
	170.56,301.5 170.67,301.67 170.79,301.84 170.91,302.01 171.03,302.16 171.16,302.32 171.28,302.48 171.42,302.63 171.55,302.77 
	171.69,302.92 171.84,303.06 171.98,303.2 172.13,303.33 172.29,303.46 172.44,303.59 172.6,303.71 172.76,303.83 172.93,303.94 
	173.09,304.05 173.27,304.16 173.44,304.27 173.62,304.37 173.81,304.47 173.99,304.56 174.17,304.65 174.36,304.74 174.55,304.82 
	174.75,304.9 174.95,304.98 175.15,305.05 175.35,305.12 175.56,305.18 175.76,305.24 175.97,305.29 176.18,305.34 176.4,305.39 
	176.62,305.43 176.84,305.47 177.07,305.51 177.29,305.54 177.51,305.57 177.96,305.61 178.44,305.64 178.92,305.65 179.35,305.65 
	179.78,305.64 180.18,305.62 180.59,305.59 180.99,305.54 181.39,305.49 181.78,305.42 182.17,305.34 182.56,305.25 182.94,305.16 
	183.31,305.05 183.68,304.93 184.05,304.79 184.41,304.65 184.75,304.5 185.1,304.34 185.43,304.17 185.76,303.99 186.08,303.81 
	186.38,303.61 186.68,303.4 186.83,303.3 186.98,303.19 187.26,302.96 187.4,302.85 187.53,302.73 187.67,302.61 187.8,302.49 
	187.93,302.36 188.06,302.23 188.17,302.11 188.17,294.82 179.11,294.82 179.11,297.86 184.91,297.86 184.91,300.77 184.82,300.86 
	184.72,300.94 184.61,301.02 184.51,301.1 184.4,301.18 184.3,301.25 184.19,301.33 184.08,301.4 183.95,301.47 183.83,301.54 
	183.7,301.61 183.58,301.68 183.45,301.74 183.32,301.81 183.19,301.86 183.06,301.92 182.91,301.98 182.77,302.04 182.47,302.15 
	182.31,302.2 182.15,302.25 181.99,302.3 181.82,302.34 181.65,302.39 181.48,302.43 181.31,302.46 181.14,302.5 180.8,302.56 
	180.45,302.61 180.09,302.64 179.73,302.67 179.37,302.68 179.01,302.68 178.7,302.67 178.39,302.66 178.24,302.64 178.09,302.63 
	177.94,302.61 177.78,302.59 177.64,302.56 177.5,302.54 177.37,302.51 177.23,302.48 177.09,302.45 176.95,302.41 176.82,302.37 
	176.68,302.33 176.56,302.28 176.43,302.24 176.31,302.19 176.18,302.14 176.06,302.08 175.94,302.03 175.82,301.97 175.7,301.9 
	175.59,301.84 175.48,301.77 175.37,301.7 175.26,301.63 175.15,301.56 175.05,301.48 174.94,301.4 174.84,301.32 174.74,301.23 
	174.64,301.14 174.54,301.05 174.45,300.96 174.35,300.86 174.26,300.77 174.17,300.67 174.09,300.57 174,300.46 173.92,300.35 
	173.83,300.25 173.75,300.14 173.68,300.02 173.6,299.91 173.53,299.79 173.46,299.68 173.39,299.55 173.33,299.43 173.26,299.31 
	173.2,299.18 173.14,299.05 173.09,298.92 173.03,298.79 172.98,298.66 172.93,298.52 172.88,298.38 172.83,298.24 172.79,298.09 
	172.75,297.95 172.71,297.81 172.64,297.51 172.61,297.36 172.58,297.2 172.53,296.88 172.49,296.56 172.45,296.23 172.43,295.89 
	172.42,295.54 172.41,295.18 172.41,294.82 172.43,294.48 172.45,294.14 172.48,293.81 172.52,293.47 172.56,293.16 172.62,292.86 
	172.68,292.56 172.72,292.41 172.76,292.26 172.8,292.12 172.84,291.99 172.88,291.85 172.93,291.72 172.98,291.58 173.03,291.45 
	173.08,291.32 173.14,291.19 173.19,291.07 173.25,290.95 173.31,290.83 173.38,290.72 173.44,290.6 173.51,290.49 173.58,290.37 
	173.65,290.26 173.73,290.16 173.8,290.05 173.88,289.95 173.96,289.85 174.04,289.75 174.12,289.66 174.21,289.56 174.3,289.47 
	174.39,289.38 174.48,289.3 174.57,289.21 174.67,289.13 174.76,289.05 174.86,288.98 174.96,288.9 175.06,288.83 175.17,288.76 
	175.28,288.7 175.39,288.63 175.5,288.57 175.61,288.51 175.72,288.45 175.84,288.4 175.95,288.35 176.08,288.3 176.2,288.25 
	176.32,288.2 176.45,288.16 176.58,288.12 176.71,288.08 176.84,288.05 176.97,288.02 177.12,287.98 177.26,287.95 177.41,287.93 
	177.55,287.9 177.7,287.88 177.84,287.87 178.13,287.84 178.45,287.82 178.77,287.81 178.96,287.81 179.16,287.81 179.36,287.82 
	179.55,287.83 179.74,287.84 179.92,287.85 180.11,287.87 180.3,287.9 180.48,287.93 180.66,287.96 180.85,287.99 181.03,288.04 
	181.19,288.08 181.35,288.12 181.5,288.17 181.66,288.22 181.81,288.28 181.96,288.34 182.11,288.41 182.26,288.48 182.41,288.55 
	182.48,288.59 182.55,288.63 182.62,288.67 182.69,288.72 182.76,288.76 182.82,288.81 182.89,288.85 182.95,288.9 183.01,288.94 
	183.07,288.99 183.19,289.09 183.3,289.19 183.41,289.3 183.52,289.41 183.62,289.52 183.73,289.63 183.83,289.76 183.93,289.9 
	184.03,290.03 184.12,290.17 184.21,290.31 184.29,290.46 184.37,290.6 184.45,290.75 184.6,291.06 184.94,290.96 187.91,290.08 
	187.71,289.65 187.59,289.38 187.45,289.12 187.31,288.87 187.17,288.61 187.02,288.38 186.86,288.15 186.7,287.92 186.61,287.81 
	186.52,287.71 186.44,287.6 186.35,287.5 186.26,287.4 186.17,287.3 186.07,287.2 185.98,287.11 185.88,287.02 185.78,286.92 
	185.68,286.84 185.58,286.75 185.48,286.67 185.38,286.58 185.27,286.5 185.16,286.42 185.06,286.35 184.95,286.27 184.83,286.2 
	184.72,286.13 184.61,286.06 184.49,286 184.27,285.88 184.04,285.77 183.82,285.67 183.58,285.57 183.32,285.47 183.05,285.38 
	182.77,285.3 182.5,285.22 182.2,285.15 181.9,285.08 181.6,285.03 181.3,284.98 180.97,284.94 180.64,284.9 180.32,284.87 
	179.99,284.85 179.64,284.83 179.29,284.82 178.69,284.83 178.21,284.84 177.72,284.87 177.48,284.9 177.24,284.92 176.99,284.95 
	176.75,284.99 176.53,285.03 176.31,285.07 176.09,285.12 175.87,285.17 175.65,285.22 175.43,285.28 175.21,285.34 175,285.41 
	174.8,285.48 174.6,285.56 174.4,285.64 174.2,285.72 174.01,285.81 173.82,285.9 173.63,286 173.44,286.1 173.26,286.21 
	173.08,286.31 172.91,286.43 172.73,286.54 172.57,286.66 172.4,286.79 172.24,286.92 172.08,287.05 171.92,287.19 171.77,287.33 
	171.62,287.48 171.47,287.63 171.33,287.78 171.2,287.94 171.06,288.1 170.93,288.26 170.8,288.43 170.68,288.6 170.56,288.77 
	170.45,288.95 170.34,289.13 170.24,289.31 170.13,289.49 170.04,289.68 169.94,289.88 169.85,290.08 169.77,290.28 169.68,290.48 
	169.61,290.69 169.53,290.89 169.47,291.1 169.4,291.31 169.34,291.53 169.28,291.76 169.23,291.99 169.18,292.21 169.13,292.44 
	169.09,292.67 169.06,292.9 169.03,293.13 169,293.39 168.97,293.64 168.93,294.14 168.91,294.65 "/>
<polygon class="st0" points="251.83,292.73 255.28,305.38 259.05,305.38 265.02,285.11 261.4,285.11 261.32,285.42 257.55,299.05 
	257.44,299.48 257.12,300.81 256.3,297.52 252.83,285.11 249.68,285.11 249.59,285.42 245.87,298.8 245.76,299.24 245.4,300.74 
	244.66,297.76 241.08,285.11 237.46,285.11 243.43,305.38 247.21,305.38 247.29,305.07 250.95,291.68 251.06,291.24 251.26,290.39 
	251.42,291.1 251.64,292.03 "/>
<polygon class="st0" points="314.83,297.31 314.83,294.39 314.83,288.06 314.83,285.11 311.36,285.11 311.36,305.38 314.83,305.38 
	"/>
<polygon class="st0" points="323.71,296.87 323.91,296.82 324.1,296.76 324.29,296.7 324.48,296.63 324.66,296.56 324.85,296.48 
	325.03,296.39 325.21,296.3 325.32,296.24 325.43,296.17 325.55,296.1 325.66,296.03 325.77,295.96 325.87,295.88 325.98,295.8 
	326.08,295.72 326.18,295.64 326.28,295.56 326.38,295.47 326.47,295.38 326.56,295.29 326.65,295.19 326.74,295.1 326.83,295 
	326.91,294.9 326.99,294.8 327.07,294.7 327.15,294.59 327.22,294.48 327.29,294.38 327.36,294.27 327.43,294.15 327.49,294.04 
	327.55,293.93 327.61,293.81 327.66,293.7 327.71,293.58 327.76,293.46 327.81,293.34 327.85,293.22 327.89,293.09 327.93,292.97 
	327.97,292.84 328,292.71 328.03,292.58 328.06,292.45 328.08,292.32 328.11,292.19 328.13,292.05 328.14,291.92 328.16,291.78 
	328.17,291.64 328.18,291.5 328.19,291.36 328.19,291.23 328.19,291.09 328.19,290.92 328.18,290.76 328.17,290.59 328.16,290.43 
	328.15,290.26 328.13,290.1 328.1,289.93 328.07,289.77 328.04,289.62 328.01,289.47 327.97,289.32 327.92,289.17 327.88,289.02 
	327.82,288.88 327.77,288.73 327.71,288.59 327.65,288.45 327.58,288.32 327.51,288.18 327.44,288.05 327.36,287.92 327.28,287.8 
	327.19,287.67 327.1,287.55 327.01,287.43 326.91,287.31 326.81,287.2 326.7,287.09 326.59,286.98 326.48,286.88 326.37,286.77 
	326.25,286.68 326.13,286.58 326,286.48 325.87,286.39 325.74,286.3 325.61,286.22 325.47,286.14 325.33,286.06 325.19,285.98 
	325.04,285.91 324.89,285.84 324.73,285.77 324.58,285.71 324.42,285.65 324.26,285.6 324.1,285.54 323.94,285.5 323.77,285.45 
	323.59,285.4 323.41,285.36 323.24,285.32 323.06,285.29 322.88,285.26 322.52,285.21 322.32,285.18 322.12,285.16 321.72,285.13 
	321.32,285.12 320.92,285.11 315.98,285.11 315.98,288.06 320.66,288.06 320.9,288.06 321.14,288.07 321.39,288.08 321.63,288.11 
	321.84,288.14 322.05,288.17 322.15,288.19 322.26,288.21 322.36,288.24 322.46,288.26 322.55,288.29 322.64,288.32 322.73,288.34 
	322.81,288.37 322.9,288.41 322.99,288.44 323.07,288.48 323.16,288.52 323.23,288.55 323.3,288.59 323.38,288.63 323.45,288.67 
	323.52,288.72 323.59,288.76 323.65,288.81 323.72,288.86 323.78,288.91 323.84,288.95 323.89,289 323.95,289.06 324,289.11 
	324.05,289.17 324.1,289.22 324.15,289.28 324.2,289.34 324.24,289.4 324.28,289.46 324.32,289.53 324.36,289.59 324.39,289.66 
	324.43,289.72 324.46,289.79 324.49,289.86 324.52,289.94 324.54,290.01 324.57,290.09 324.59,290.16 324.61,290.24 324.63,290.32 
	324.64,290.4 324.66,290.49 324.67,290.57 324.69,290.66 324.69,290.75 324.7,290.84 324.71,290.93 324.71,291.02 324.71,291.11 
	324.71,291.21 324.71,291.3 324.7,291.4 324.69,291.49 324.69,291.59 324.67,291.68 324.66,291.77 324.64,291.87 324.63,291.95 
	324.61,292.03 324.59,292.11 324.57,292.19 324.54,292.27 324.52,292.35 324.49,292.43 324.46,292.51 324.43,292.58 324.39,292.65 
	324.36,292.72 324.32,292.79 324.28,292.86 324.24,292.93 324.2,292.99 324.15,293.06 324.1,293.12 324.05,293.18 324,293.24 
	323.95,293.3 323.89,293.36 323.84,293.42 323.78,293.47 323.72,293.52 323.65,293.58 323.59,293.63 323.52,293.68 323.45,293.72 
	323.38,293.77 323.31,293.81 323.24,293.86 323.16,293.9 323.08,293.94 323,293.98 322.92,294.01 322.84,294.05 322.75,294.08 
	322.67,294.11 322.58,294.14 322.49,294.17 322.4,294.2 322.3,294.22 322.2,294.25 322.1,294.27 322,294.29 321.9,294.31 
	321.8,294.32 321.7,294.34 321.58,294.35 321.46,294.36 321.23,294.38 321,294.39 320.77,294.39 315.98,294.39 315.98,297.31 
	320.23,297.31 325.28,305.38 329.32,305.38 "/>
<path class="st4" d="M144.22,245.36c-2.08,0-3.92-0.46-5.53-1.39c-1.61-0.92-2.87-2.2-3.8-3.82c-0.92-1.62-1.39-3.46-1.39-5.51
	c0-2.08,0.46-3.93,1.39-5.55c0.92-1.62,2.19-2.89,3.8-3.82c1.61-0.92,3.45-1.39,5.53-1.39c2.06,0,3.88,0.46,5.47,1.39
	c1.59,0.92,2.85,2.2,3.78,3.82c0.92,1.62,1.4,3.47,1.43,5.55c0,2.06-0.46,3.89-1.39,5.51c-0.92,1.62-2.19,2.89-3.8,3.82
	C148.11,244.89,146.28,245.36,144.22,245.36z M144.22,242.43c1.44,0,2.72-0.34,3.85-1.02c1.13-0.68,2.02-1.61,2.66-2.77
	c0.64-1.17,0.96-2.5,0.96-3.99c0-1.49-0.32-2.83-0.96-4.01c-0.64-1.18-1.53-2.11-2.66-2.79c-1.13-0.68-2.42-1.02-3.85-1.02
	c-1.44,0-2.73,0.34-3.87,1.02c-1.14,0.68-2.04,1.61-2.7,2.79c-0.66,1.18-0.98,2.52-0.98,4.01c0,1.49,0.33,2.82,0.98,3.99
	c0.66,1.17,1.55,2.09,2.7,2.77C141.49,242.09,142.78,242.43,144.22,242.43z"/>
<path class="st4" d="M162.3,245.16c-0.51,0-0.91-0.14-1.19-0.42c-0.28-0.28-0.42-0.68-0.42-1.19V225.7c0-0.51,0.14-0.91,0.42-1.19
	c0.28-0.28,0.68-0.42,1.19-0.42c0.51,0,0.91,0.14,1.18,0.42c0.27,0.28,0.4,0.68,0.4,1.19v17.84c0,0.51-0.13,0.91-0.4,1.19
	C163.2,245.02,162.81,245.16,162.3,245.16z M162.1,232.1c0.05-1.57,0.46-2.97,1.21-4.22c0.76-1.25,1.76-2.23,3.01-2.95
	c1.25-0.72,2.61-1.08,4.1-1.08c1.31,0,2.31,0.19,2.99,0.58c0.68,0.39,0.93,0.91,0.75,1.58c-0.08,0.36-0.24,0.62-0.48,0.77
	c-0.24,0.15-0.53,0.23-0.85,0.23c-0.32,0-0.69-0.03-1.1-0.08c-1.52-0.18-2.86-0.08-4.03,0.29c-1.17,0.37-2.1,0.98-2.79,1.83
	c-0.69,0.85-1.04,1.86-1.04,3.04H162.1z"/>
<path class="st4" d="M186.58,245.36c-2.03,0-3.84-0.47-5.43-1.41c-1.59-0.94-2.85-2.22-3.76-3.83c-0.91-1.62-1.37-3.44-1.37-5.47
	c0-2.06,0.44-3.89,1.33-5.51c0.89-1.62,2.09-2.9,3.62-3.83c1.53-0.94,3.3-1.41,5.3-1.41c1.54,0,2.97,0.3,4.28,0.91
	c1.31,0.6,2.47,1.51,3.47,2.72c0.31,0.36,0.42,0.73,0.33,1.1c-0.09,0.37-0.33,0.7-0.71,0.98c-0.31,0.21-0.65,0.28-1.02,0.21
	c-0.37-0.06-0.71-0.26-1.02-0.6c-1.41-1.59-3.19-2.39-5.32-2.39c-1.41,0-2.65,0.33-3.72,1c-1.07,0.67-1.9,1.59-2.49,2.76
	c-0.59,1.17-0.89,2.52-0.89,4.07c0,1.49,0.31,2.82,0.94,3.99c0.63,1.17,1.5,2.09,2.62,2.77c1.12,0.68,2.4,1.02,3.83,1.02
	c0.98,0,1.86-0.13,2.64-0.39c0.78-0.26,1.48-0.66,2.1-1.19c0.36-0.28,0.72-0.44,1.08-0.46c0.36-0.03,0.69,0.08,1,0.31
	c0.33,0.31,0.53,0.66,0.58,1.04c0.05,0.39-0.08,0.73-0.39,1.04C191.71,244.49,189.38,245.36,186.58,245.36z"/>
<path class="st4" d="M209.28,245.36c-1.95,0-3.7-0.47-5.24-1.41c-1.54-0.94-2.76-2.22-3.66-3.83c-0.9-1.62-1.35-3.44-1.35-5.47
	c0-2.06,0.47-3.89,1.41-5.51c0.94-1.62,2.22-2.9,3.83-3.83c1.62-0.94,3.44-1.41,5.47-1.41c2,0,3.81,0.47,5.42,1.41
	c1.61,0.94,2.88,2.22,3.82,3.83c0.94,1.62,1.42,3.46,1.45,5.51l-1.31,0.66c0,1.9-0.43,3.61-1.29,5.13c-0.86,1.52-2.03,2.72-3.51,3.6
	C212.83,244.91,211.15,245.36,209.28,245.36z M209.74,242.43c1.44,0,2.72-0.34,3.83-1.02c1.12-0.68,2-1.61,2.66-2.79
	c0.66-1.18,0.98-2.51,0.98-3.97c0-1.49-0.33-2.82-0.98-3.99c-0.66-1.17-1.54-2.1-2.66-2.79c-1.12-0.69-2.4-1.04-3.83-1.04
	c-1.41,0-2.69,0.35-3.83,1.04c-1.14,0.69-2.05,1.63-2.72,2.79c-0.67,1.17-1,2.5-1,3.99c0,1.46,0.33,2.79,1,3.97
	c0.67,1.18,1.57,2.11,2.72,2.79C207.05,242.09,208.32,242.43,209.74,242.43z M218.76,245.16c-0.46,0-0.85-0.15-1.18-0.44
	c-0.32-0.3-0.48-0.69-0.48-1.18v-6.36l0.73-3.35l2.58,0.81v8.9c0,0.49-0.15,0.88-0.46,1.18
	C219.64,245.02,219.24,245.16,218.76,245.16z"/>
<path class="st5" d="M244.93,245.36c-1.59,0-3.14-0.26-4.64-0.79c-1.5-0.53-2.7-1.28-3.6-2.25c-0.31-0.33-0.44-0.72-0.39-1.16
	c0.05-0.44,0.26-0.8,0.62-1.08c0.41-0.31,0.83-0.44,1.25-0.39c0.42,0.05,0.78,0.23,1.06,0.54c0.56,0.67,1.35,1.2,2.35,1.6
	c1,0.4,2.11,0.6,3.31,0.6c1.77,0,3.08-0.3,3.91-0.91c0.83-0.6,1.27-1.35,1.29-2.25c0-0.87-0.42-1.61-1.25-2.2
	c-0.84-0.59-2.25-1.05-4.26-1.39c-2.6-0.44-4.49-1.17-5.68-2.2c-1.19-1.03-1.79-2.26-1.79-3.7c0-1.31,0.36-2.4,1.08-3.28
	c0.72-0.87,1.66-1.53,2.83-1.97c1.17-0.44,2.43-0.66,3.8-0.66c1.72,0,3.21,0.29,4.47,0.87c1.26,0.58,2.27,1.36,3.04,2.33
	c0.28,0.36,0.4,0.74,0.37,1.14c-0.04,0.4-0.25,0.71-0.64,0.94c-0.33,0.23-0.73,0.31-1.18,0.23c-0.45-0.08-0.83-0.28-1.14-0.62
	c-0.64-0.69-1.37-1.2-2.2-1.52c-0.82-0.32-1.76-0.48-2.81-0.48c-1.34,0-2.42,0.26-3.24,0.79c-0.82,0.53-1.23,1.2-1.23,2.02
	c0,0.57,0.15,1.05,0.44,1.46c0.29,0.41,0.82,0.78,1.58,1.1c0.76,0.32,1.84,0.61,3.26,0.87c1.93,0.33,3.45,0.8,4.57,1.41
	c1.12,0.6,1.91,1.3,2.39,2.1c0.48,0.8,0.71,1.68,0.71,2.66c0,1.21-0.34,2.27-1.02,3.18c-0.68,0.91-1.64,1.64-2.87,2.18
	C248.09,245.09,246.62,245.36,244.93,245.36z"/>
<path class="st5" d="M263,245.16c-1.08,0-2.03-0.29-2.85-0.87c-0.82-0.58-1.46-1.38-1.93-2.41c-0.46-1.03-0.69-2.21-0.69-3.55
	v-21.66c0-0.49,0.15-0.88,0.44-1.18c0.3-0.3,0.69-0.44,1.18-0.44c0.46,0,0.84,0.15,1.14,0.44c0.29,0.3,0.44,0.69,0.44,1.18v21.66
	c0,1.05,0.21,1.92,0.64,2.6c0.42,0.68,0.97,1.02,1.64,1.02h0.96c0.41,0,0.74,0.15,1,0.44c0.26,0.3,0.39,0.67,0.39,1.14
	c0,0.49-0.19,0.88-0.56,1.18c-0.37,0.3-0.85,0.44-1.45,0.44H263z"/>
<path class="st5" d="M271.56,220.27c-0.62,0-1.14-0.22-1.58-0.67c-0.44-0.45-0.66-0.98-0.66-1.6c0-0.64,0.22-1.17,0.67-1.58
	c0.45-0.41,0.97-0.62,1.56-0.62c0.59,0,1.11,0.21,1.56,0.62c0.45,0.41,0.67,0.94,0.67,1.58c0,0.62-0.22,1.15-0.66,1.6
	C272.7,220.04,272.17,220.27,271.56,220.27z M271.59,245.16c-0.49,0-0.89-0.15-1.19-0.44c-0.31-0.3-0.46-0.7-0.46-1.21v-17.77
	c0-0.51,0.15-0.92,0.46-1.21c0.31-0.3,0.71-0.44,1.19-0.44c0.49,0,0.88,0.15,1.18,0.44c0.3,0.3,0.44,0.7,0.44,1.21v17.77
	c0,0.51-0.15,0.92-0.44,1.21C272.47,245.02,272.08,245.16,271.59,245.16z"/>
<path class="st5" d="M290.13,245.36c-2.03,0-3.84-0.47-5.43-1.41c-1.59-0.94-2.85-2.22-3.76-3.83c-0.91-1.62-1.37-3.44-1.37-5.47
	c0-2.06,0.44-3.89,1.33-5.51c0.89-1.62,2.09-2.9,3.62-3.83c1.53-0.94,3.3-1.41,5.3-1.41c1.54,0,2.97,0.3,4.28,0.91
	c1.31,0.6,2.47,1.51,3.47,2.72c0.31,0.36,0.42,0.73,0.33,1.1c-0.09,0.37-0.33,0.7-0.71,0.98c-0.31,0.21-0.65,0.28-1.02,0.21
	c-0.37-0.06-0.71-0.26-1.02-0.6c-1.41-1.59-3.19-2.39-5.32-2.39c-1.41,0-2.65,0.33-3.72,1c-1.07,0.67-1.9,1.59-2.49,2.76
	c-0.59,1.17-0.89,2.52-0.89,4.07c0,1.49,0.31,2.82,0.94,3.99c0.63,1.17,1.5,2.09,2.62,2.77c1.12,0.68,2.4,1.02,3.83,1.02
	c0.98,0,1.86-0.13,2.64-0.39c0.78-0.26,1.48-0.66,2.1-1.19c0.36-0.28,0.72-0.44,1.08-0.46c0.36-0.03,0.69,0.08,1,0.31
	c0.33,0.31,0.53,0.66,0.58,1.04c0.05,0.39-0.08,0.73-0.39,1.04C295.27,244.49,292.93,245.36,290.13,245.36z"/>
<path class="st5" d="M313.37,245.36c-2.11,0-3.97-0.46-5.59-1.37c-1.62-0.91-2.89-2.18-3.82-3.8c-0.92-1.62-1.39-3.47-1.39-5.55
	c0-2.11,0.44-3.96,1.31-5.57c0.87-1.61,2.07-2.87,3.6-3.8c1.53-0.92,3.3-1.39,5.3-1.39c1.95,0,3.65,0.44,5.11,1.33
	c1.45,0.89,2.57,2.11,3.35,3.68c0.78,1.57,1.18,3.35,1.18,5.36c0,0.44-0.14,0.79-0.42,1.06c-0.28,0.27-0.64,0.4-1.08,0.4h-16.11
	v-2.66h16.3l-1.66,1.16c0.03-1.41-0.23-2.68-0.77-3.82c-0.54-1.13-1.31-2.02-2.31-2.66c-1-0.64-2.2-0.96-3.58-0.96
	c-1.46,0-2.74,0.33-3.83,1c-1.09,0.67-1.93,1.6-2.51,2.79c-0.58,1.19-0.87,2.55-0.87,4.07c0,1.52,0.33,2.87,1,4.05
	c0.67,1.18,1.59,2.11,2.76,2.78c1.17,0.67,2.51,1,4.03,1c0.87,0,1.77-0.15,2.68-0.46c0.91-0.31,1.64-0.69,2.18-1.16
	c0.31-0.23,0.66-0.35,1.06-0.37c0.4-0.01,0.73,0.1,0.98,0.33c0.39,0.33,0.58,0.69,0.6,1.08c0.01,0.39-0.16,0.72-0.52,1
	c-0.85,0.72-1.93,1.31-3.24,1.77C315.8,245.12,314.55,245.36,313.37,245.36z"/>
<path class="st5" d="M329.06,245.16c-0.51,0-0.91-0.14-1.19-0.42c-0.28-0.28-0.42-0.68-0.42-1.19V225.7c0-0.51,0.14-0.91,0.42-1.19
	c0.28-0.28,0.68-0.42,1.19-0.42c0.51,0,0.91,0.14,1.18,0.42c0.27,0.28,0.4,0.68,0.4,1.19v17.84c0,0.51-0.13,0.91-0.4,1.19
	C329.96,245.02,329.57,245.16,329.06,245.16z M328.86,232.1c0.05-1.57,0.46-2.97,1.21-4.22c0.76-1.25,1.76-2.23,3.01-2.95
	c1.25-0.72,2.61-1.08,4.1-1.08c1.31,0,2.31,0.19,2.99,0.58c0.68,0.39,0.93,0.91,0.75,1.58c-0.08,0.36-0.24,0.62-0.48,0.77
	c-0.24,0.15-0.53,0.23-0.85,0.23c-0.32,0-0.69-0.03-1.1-0.08c-1.52-0.18-2.86-0.08-4.03,0.29c-1.17,0.37-2.1,0.98-2.79,1.83
	c-0.69,0.85-1.04,1.86-1.04,3.04H328.86z"/>
<path class="st5" d="M224.2,261.41c-0.22,0-0.39-0.06-0.51-0.19c-0.13-0.13-0.19-0.28-0.19-0.46c0-0.19,0.06-0.35,0.19-0.48
	c0.13-0.13,0.3-0.19,0.51-0.19h4.62c0.2,0,0.37,0.06,0.49,0.19c0.13,0.13,0.19,0.28,0.19,0.48c0,0.18-0.06,0.33-0.19,0.46
	c-0.13,0.13-0.29,0.19-0.49,0.19H224.2z M225.96,269.57c-0.19,0-0.36-0.07-0.5-0.21c-0.14-0.14-0.22-0.33-0.22-0.57v-9.03
	c0-0.85,0.15-1.59,0.45-2.23c0.3-0.64,0.74-1.13,1.32-1.48c0.58-0.35,1.27-0.53,2.08-0.53c0.23,0,0.41,0.07,0.56,0.2
	c0.14,0.13,0.22,0.29,0.22,0.49c0,0.2-0.07,0.37-0.22,0.5c-0.14,0.13-0.33,0.2-0.56,0.2c-0.5,0-0.93,0.12-1.28,0.35
	c-0.35,0.23-0.61,0.56-0.79,0.97c-0.18,0.41-0.27,0.89-0.27,1.43v9.14c0,0.24-0.07,0.43-0.21,0.57
	C226.41,269.5,226.21,269.57,225.96,269.57z"/>
<path class="st5" d="M235.49,269.66c-0.97,0-1.83-0.22-2.58-0.65c-0.75-0.43-1.34-1.02-1.77-1.78c-0.43-0.76-0.65-1.61-0.65-2.57
	c0-0.97,0.22-1.83,0.65-2.59c0.43-0.76,1.02-1.35,1.77-1.78c0.75-0.43,1.61-0.65,2.58-0.65c0.96,0,1.81,0.22,2.55,0.65
	c0.74,0.43,1.33,1.03,1.76,1.78c0.43,0.76,0.65,1.62,0.67,2.59c0,0.96-0.22,1.82-0.65,2.57c-0.43,0.76-1.02,1.35-1.77,1.78
	C237.3,269.45,236.45,269.66,235.49,269.66z M235.49,268.29c0.67,0,1.27-0.16,1.8-0.48c0.53-0.32,0.94-0.75,1.24-1.3
	c0.3-0.55,0.45-1.17,0.45-1.86c0-0.7-0.15-1.32-0.45-1.87c-0.3-0.55-0.71-0.99-1.24-1.3c-0.53-0.32-1.13-0.48-1.8-0.48
	c-0.67,0-1.27,0.16-1.81,0.48c-0.53,0.32-0.95,0.75-1.26,1.3c-0.31,0.55-0.46,1.18-0.46,1.87c0,0.7,0.15,1.32,0.46,1.86
	c0.31,0.55,0.73,0.98,1.26,1.3C234.22,268.14,234.82,268.29,235.49,268.29z"/>
<path class="st5" d="M243.93,269.57c-0.24,0-0.43-0.07-0.56-0.2c-0.13-0.13-0.2-0.32-0.2-0.56v-8.33c0-0.24,0.07-0.43,0.2-0.56
	c0.13-0.13,0.32-0.2,0.56-0.2c0.24,0,0.42,0.07,0.55,0.2c0.13,0.13,0.19,0.32,0.19,0.56v8.33c0,0.24-0.06,0.43-0.19,0.56
	C244.35,269.51,244.17,269.57,243.93,269.57z M243.84,263.47c0.02-0.73,0.21-1.39,0.57-1.97c0.35-0.58,0.82-1.04,1.4-1.38
	c0.58-0.34,1.22-0.5,1.92-0.5c0.61,0,1.08,0.09,1.39,0.27c0.32,0.18,0.43,0.43,0.35,0.74c-0.04,0.17-0.11,0.29-0.22,0.36
	c-0.11,0.07-0.25,0.11-0.4,0.11c-0.15,0-0.32-0.01-0.51-0.04c-0.71-0.08-1.33-0.04-1.88,0.13c-0.55,0.17-0.98,0.46-1.3,0.85
	c-0.32,0.4-0.49,0.87-0.49,1.42H243.84z"/>
</svg>
