<?xml version="1.0" encoding="utf-8"?>
<!-- Generator: Adobe Illustrator 24.3.0, SVG Export Plug-In . SVG Version: 6.00 Build 0)  -->
<svg version="1.1" id="레이어_1" xmlns="http://www.w3.org/2000/svg" xmlns:xlink="http://www.w3.org/1999/xlink" x="0px"
	 y="0px" viewBox="0 0 480 480" enable-background="new 0 0 480 480" xml:space="preserve">
<g>
	<polygon fill-rule="evenodd" clip-rule="evenodd" fill="#D3D3D3" points="263.6,91.65 280.06,63.15 281.6,64.19 283.12,65.27 
		284.61,66.39 286.07,67.56 287.5,68.76 288.89,70 290.25,71.27 291.58,72.59 292.87,73.93 294.12,75.32 295.34,76.73 296.51,78.18 
		297.65,79.66 298.75,81.16 299.81,82.7 300.82,84.26 301.8,85.86 302.73,87.47 303.61,89.11 304.46,90.78 305.25,92.46 
		306.01,94.17 306.71,95.9 307.37,97.64 307.98,99.4 308.55,101.18 309.07,102.97 309.54,104.78 309.96,106.6 310.33,108.43 
		310.65,110.26 310.92,112.11 311.15,113.96 311.32,115.82 311.44,117.68 311.52,119.54 311.54,121.41 311.51,123.27 311.44,125.14 
		311.31,127 311.14,128.86 310.91,130.71 310.63,132.55 310.31,134.39 309.94,136.22 309.51,138.03 309.04,139.84 308.52,141.63 
		307.96,143.41 307.34,145.17 306.68,146.91 305.97,148.64 305.22,150.34 304.42,152.03 303.57,153.69 302.68,155.33 301.75,156.95 
		300.77,158.54 299.76,160.1 298.7,161.64 297.6,163.14 296.46,164.62 295.28,166.06 294.06,167.48 292.8,168.86 291.51,170.2 
		290.18,171.51 288.82,172.79 287.43,174.02 286,175.22 284.54,176.39 283.05,177.51 281.53,178.59 279.98,179.63 278.4,180.63 
		276.8,181.58 275.17,182.49 273.52,183.36 271.85,184.18 270.15,184.96 268.44,185.7 266.7,186.38 264.95,187.02 263.18,187.61 
		261.4,188.16 259.6,188.65 257.79,189.1 255.97,189.5 254.13,189.85 252.29,190.15 250.44,190.41 248.59,190.61 246.73,190.76 
		244.87,190.86 243,190.92 241.14,190.92 239.27,190.87 237.41,190.77 235.55,190.63 233.7,190.43 231.85,190.18 230.01,189.88 
		228.17,189.54 226.35,189.14 224.54,188.7 222.74,188.21 220.95,187.67 219.18,187.08 217.43,186.45 215.69,185.76 213.97,185.04 
		212.28,184.26 210.6,183.44 220.29,166.66 221.26,167.12 222.25,167.55 223.25,167.97 224.27,168.36 225.31,168.74 226.37,169.1 
		227.44,169.44 228.52,169.75 229.62,170.04 230.73,170.31 231.85,170.56 232.99,170.78 234.14,170.97 235.29,171.14 236.46,171.28 
		237.64,171.4 238.82,171.49 240.01,171.55 241.21,171.58 242.41,171.59 243.61,171.56 244.82,171.51 246.03,171.42 247.25,171.31 
		248.46,171.17 249.67,171 250.87,170.79 252.08,170.56 253.28,170.3 254.47,170.01 255.66,169.69 256.84,169.34 258.01,168.96 
		259.17,168.56 260.32,168.12 261.46,167.66 262.58,167.17 263.69,166.65 264.79,166.11 265.87,165.54 266.93,164.95 267.97,164.34 
		269,163.7 270.01,163.04 271,162.36 271.97,161.65 272.92,160.93 273.84,160.19 274.75,159.43 275.63,158.65 276.49,157.85 
		277.33,157.05 278.14,156.22 278.93,155.38 279.69,154.53 280.43,153.67 281.15,152.8 281.84,151.92 282.51,151.03 283.15,150.13 
		283.77,149.23 284.36,148.31 284.93,147.4 285.48,146.47 286,145.54 286.5,144.6 286.99,143.65 287.45,142.68 287.89,141.7 
		288.31,140.71 288.71,139.71 289.08,138.7 289.42,137.68 289.74,136.66 290.03,135.62 290.3,134.58 290.53,133.53 290.74,132.48 
		290.92,131.42 291.06,130.36 291.18,129.29 291.27,128.23 291.32,127.16 291.34,126.09 291.33,125.03 291.29,123.96 291.21,122.9 
		291.1,121.84 290.95,120.79 290.78,119.74 290.57,118.7 290.32,117.66 290.04,116.64 289.73,115.62 289.39,114.62 289.01,113.62 
		288.6,112.64 288.15,111.67 287.68,110.72 287.17,109.78 286.64,108.85 286.07,107.94 285.47,107.05 284.85,106.18 284.2,105.32 
		283.52,104.49 282.81,103.67 282.08,102.88 281.32,102.1 280.54,101.35 279.74,100.62 278.91,99.91 278.07,99.22 277.2,98.55 
		276.32,97.91 275.42,97.29 274.5,96.69 273.56,96.12 272.62,95.57 271.65,95.04 270.68,94.54 269.69,94.05 268.7,93.6 
		267.69,93.16 266.68,92.75 265.66,92.36 264.63,91.99 	"/>
	<polygon fill-rule="evenodd" clip-rule="evenodd" fill="#D3D3D3" points="220.36,151.08 203.9,179.58 202.36,178.54 200.84,177.45 
		199.35,176.33 197.89,175.17 196.46,173.96 195.07,172.72 193.71,171.45 192.38,170.14 191.09,168.79 189.84,167.41 188.62,165.99 
		187.45,164.55 186.31,163.07 185.21,161.56 184.15,160.02 183.14,158.46 182.16,156.87 181.23,155.25 180.34,153.61 179.5,151.95 
		178.7,150.26 177.95,148.55 177.25,146.83 176.59,145.08 175.97,143.32 175.41,141.54 174.89,139.75 174.42,137.94 174,136.13 
		173.63,134.3 173.31,132.46 173.04,130.62 172.81,128.76 172.64,126.91 172.52,125.04 172.44,123.18 172.42,121.32 172.44,119.45 
		172.52,117.59 172.65,115.73 172.82,113.87 173.05,112.02 173.32,110.17 173.65,108.33 174.02,106.51 174.44,104.69 174.92,102.89 
		175.44,101.09 176,99.32 176.62,97.56 177.28,95.81 177.99,94.09 178.74,92.38 179.54,90.69 180.39,89.03 181.28,87.39 
		182.21,85.78 183.18,84.19 184.2,82.62 185.26,81.09 186.36,79.58 187.5,78.11 188.68,76.66 189.9,75.25 191.16,73.87 
		192.45,72.52 193.77,71.21 195.14,69.94 196.53,68.7 197.96,67.5 199.42,66.34 200.91,65.22 202.43,64.14 203.98,63.1 205.56,62.1 
		207.16,61.14 208.79,60.23 210.44,59.36 212.11,58.54 213.81,57.76 215.52,57.03 217.26,56.34 219.01,55.7 220.78,55.11 
		222.56,54.57 224.36,54.07 226.17,53.62 227.99,53.22 229.82,52.87 231.67,52.57 233.51,52.32 235.37,52.12 237.23,51.96 
		239.09,51.86 240.95,51.81 242.82,51.81 244.68,51.85 246.55,51.95 248.41,52.1 250.26,52.3 252.11,52.54 253.95,52.84 
		255.79,53.18 257.61,53.58 259.42,54.02 261.22,54.51 263.01,55.05 264.78,55.64 266.53,56.28 268.27,56.96 269.98,57.69 
		271.68,58.46 273.36,59.28 263.67,76.06 262.7,75.61 261.71,75.17 260.71,74.76 259.68,74.36 258.65,73.98 257.59,73.62 
		256.52,73.29 255.44,72.97 254.34,72.68 253.23,72.41 252.11,72.17 250.97,71.95 249.82,71.75 248.67,71.58 247.5,71.44 
		246.32,71.32 245.14,71.23 243.95,71.17 242.75,71.14 241.55,71.14 240.34,71.16 239.13,71.22 237.92,71.3 236.71,71.41 
		235.5,71.55 234.29,71.73 233.08,71.93 231.88,72.16 230.68,72.42 229.49,72.71 228.3,73.03 227.12,73.38 225.95,73.76 
		224.79,74.17 223.64,74.6 222.5,75.07 221.38,75.55 220.27,76.07 219.17,76.61 218.09,77.18 217.03,77.77 215.98,78.39 
		214.96,79.02 213.95,79.69 212.96,80.37 211.99,81.07 211.04,81.79 210.11,82.54 209.21,83.3 208.33,84.08 207.47,84.87 
		206.63,85.68 205.82,86.5 205.03,87.34 204.27,88.19 203.53,89.05 202.81,89.92 202.12,90.8 201.45,91.69 200.81,92.59 
		200.19,93.5 199.6,94.41 199.03,95.33 198.48,96.25 197.96,97.18 197.45,98.12 196.97,99.08 196.51,100.04 196.07,101.02 
		195.65,102.01 195.25,103.01 194.88,104.02 194.54,105.04 194.22,106.07 193.93,107.1 193.66,108.14 193.43,109.19 193.22,110.25 
		193.04,111.3 192.89,112.36 192.78,113.43 192.69,114.5 192.64,115.56 192.62,116.63 192.63,117.7 192.67,118.76 192.75,119.83 
		192.86,120.88 193,121.94 193.18,122.99 193.39,124.03 193.64,125.06 193.92,126.09 194.23,127.1 194.57,128.11 194.95,129.1 
		195.36,130.08 195.8,131.05 196.28,132.01 196.78,132.95 197.32,133.87 197.89,134.78 198.48,135.67 199.11,136.54 199.76,137.4 
		200.44,138.23 201.15,139.05 201.88,139.85 202.64,140.62 203.42,141.38 204.22,142.11 205.05,142.82 205.89,143.51 206.76,144.17 
		207.64,144.81 208.54,145.44 209.46,146.03 210.39,146.61 211.34,147.16 212.3,147.68 213.28,148.19 214.26,148.67 215.26,149.13 
		216.27,149.56 217.28,149.97 218.3,150.36 219.33,150.73 	"/>
	<g id="HATCH_34_">
		<path fill-rule="evenodd" clip-rule="evenodd" fill="#292927" d="M220.36,151.08l43.31-75.02l-0.97-0.45l-0.99-0.43l-1.01-0.42
			l-1.02-0.4l-1.04-0.38l-1.05-0.36l-1.07-0.34l-1.08-0.31l-1.1-0.29l-1.11-0.27l-1.12-0.24l-1.14-0.22l-1.15-0.2l-1.16-0.17
			l-1.17-0.14l-1.18-0.12l-1.18-0.09l-1.19-0.06l-1.2-0.03l-1.2,0l-1.21,0.02l-1.21,0.05l-1.21,0.08l-1.21,0.11l-1.21,0.14
			l-1.21,0.17l-1.21,0.2l-1.2,0.23l-1.2,0.26l-1.19,0.29l-1.19,0.32l-1.18,0.35l-1.17,0.38l-1.16,0.41l-1.15,0.43l-1.14,0.46
			l-1.12,0.49l-1.11,0.52l-1.1,0.54l-1.08,0.57l-1.06,0.59l-1.05,0.62l-1.03,0.64l-1.01,0.66l-0.99,0.68l-0.97,0.7l-0.95,0.72
			l-0.93,0.74l-0.9,0.76l-0.88,0.78l-0.86,0.79l-0.84,0.81l-0.81,0.82l-0.79,0.84l-0.76,0.85l-0.74,0.86l-0.72,0.87l-0.69,0.88
			l-0.67,0.89l-0.64,0.9l-0.62,0.91l-0.59,0.91l-0.57,0.92l-0.55,0.92l-0.52,0.93l-0.5,0.94l-0.48,0.96l-0.46,0.97l-0.44,0.98
			l-0.42,0.99l-0.39,1l-0.37,1.01l-0.34,1.02l-0.32,1.03l-0.29,1.03l-0.26,1.04l-0.24,1.05l-0.21,1.05l-0.18,1.06l-0.15,1.06
			l-0.12,1.06l-0.09,1.07l-0.05,1.07l-0.02,1.07l0.01,1.07l0.04,1.07l0.08,1.06l0.11,1.06l0.14,1.05l0.18,1.05l0.21,1.04l0.24,1.03
			l0.28,1.03l0.31,1.02l0.35,1.01l0.38,0.99l0.41,0.98l0.44,0.97l0.47,0.95l0.51,0.94l0.54,0.92l0.57,0.91l0.6,0.89l0.62,0.87
			l0.65,0.85l0.68,0.84l0.71,0.82l0.73,0.8l0.76,0.78l0.78,0.75l0.8,0.73l0.82,0.71l0.85,0.69l0.87,0.67l0.88,0.64l0.9,0.62
			l0.92,0.6l0.93,0.57l0.95,0.55l0.96,0.53l0.97,0.5l0.99,0.48l1,0.46l1.01,0.43l1.01,0.41l1.02,0.39l1.03,0.37L220.36,151.08z
			 M243.85,84.36l0.04,0.06l0.04,0.06l0.04,0.06l0.04,0.07l0.04,0.07l0.04,0.07l0.04,0.07l0.04,0.07l0.04,0.07l0.03,0.07l0.03,0.07
			l0.03,0.08l0.03,0.08l0.03,0.08l0.03,0.08l0.03,0.08l0.02,0.08l0.02,0.08l0.02,0.08l0.02,0.08l0.02,0.09l0.02,0.09l0.02,0.09
			l0.01,0.09l0.01,0.09l0.01,0.09l0.01,0.09l0.01,0.09l0.01,0.09l0.01,0.1l0.01,0.19l0,0.2l-0.01,0.2l-0.02,0.21l-0.02,0.21
			l-0.03,0.21l-0.04,0.22l-0.04,0.22l-0.05,0.22l-0.06,0.22l-0.06,0.23l-0.07,0.23l-0.08,0.23l-0.09,0.23L243.98,90l-0.1,0.24
			l-0.11,0.24l-0.11,0.24l-0.12,0.24l-0.13,0.24l-0.13,0.24l-0.14,0.24L243,91.9l-0.15,0.24l-0.16,0.24l-0.16,0.24l-0.17,0.23
			l-0.35,0.46l-0.37,0.46l-0.38,0.45l-0.4,0.44l-0.41,0.43l-0.42,0.41l-0.43,0.4l-0.44,0.38l-0.44,0.37l-0.44,0.35l-0.45,0.33
			l-0.45,0.32l-0.47,0.32l-0.48,0.31l-0.5,0.3l-0.51,0.29l-0.52,0.28l-0.53,0.26l-0.54,0.25l-0.54,0.23l-0.55,0.21l-0.55,0.19
			l-0.27,0.09l-0.27,0.08l-0.27,0.08l-0.27,0.07l-0.27,0.07l-0.27,0.06l-0.27,0.05l-0.27,0.05l-0.26,0.04l-0.26,0.04l-0.26,0.03
			l-0.25,0.02l-0.25,0.02l-0.25,0.01l-0.24,0.01l-0.24,0l-0.24-0.01l-0.23-0.01l-0.23-0.02l-0.22-0.03l-0.22-0.03l-0.21-0.04
			l-0.21-0.04l-0.2-0.05l-0.2-0.05l-0.19-0.06l-0.18-0.06l-0.09-0.03l-0.09-0.04l-0.09-0.04l-0.09-0.04l-0.08-0.04l-0.08-0.04
			l-0.08-0.04l-0.08-0.04l-0.08-0.04l-0.08-0.04l-0.07-0.05l-0.07-0.05l-0.07-0.05l-0.07-0.05l-0.07-0.05l-0.07-0.05l-0.07-0.05
			l-0.06-0.05l-0.06-0.05l-0.06-0.05l-0.06-0.05l-0.06-0.06l-0.06-0.06l-0.05-0.06l-0.05-0.06l-0.05-0.06l-0.05-0.06l-0.05-0.06
			l-0.05-0.06l-0.05-0.06l-0.04-0.06L223.57,99l-0.04-0.06l-0.04-0.07l-0.04-0.07l-0.04-0.07l-0.04-0.07l-0.04-0.07l-0.04-0.07
			l-0.03-0.07l-0.03-0.07l-0.03-0.08l-0.03-0.08l-0.03-0.08l-0.03-0.08l-0.03-0.08l-0.02-0.08l-0.02-0.08l-0.02-0.08l-0.02-0.08
			l-0.02-0.09l-0.02-0.09l-0.02-0.09l-0.01-0.09l-0.01-0.09l-0.01-0.09l-0.01-0.09l-0.01-0.09l-0.01-0.09l-0.01-0.1l-0.01-0.19
			l0-0.2l0.01-0.2l0.02-0.21l0.02-0.21l0.03-0.21l0.04-0.22l0.04-0.22l0.05-0.22l0.06-0.22l0.06-0.23l0.07-0.23l0.08-0.23l0.09-0.23
			l0.09-0.23l0.1-0.24l0.11-0.24l0.11-0.24l0.12-0.24l0.13-0.24l0.13-0.24l0.14-0.24l0.15-0.24l0.15-0.24l0.16-0.24l0.16-0.24
			l0.17-0.23l0.35-0.46l0.37-0.46l0.38-0.45l0.4-0.44l0.41-0.43l0.42-0.41l0.43-0.4l0.44-0.38l0.44-0.37l0.44-0.35l0.45-0.33
			l0.45-0.32l0.47-0.32l0.48-0.31l0.5-0.3l0.51-0.29l0.52-0.28l0.53-0.26l0.54-0.25l0.54-0.23l0.55-0.21l0.55-0.19l0.27-0.09
			l0.27-0.08l0.27-0.08l0.27-0.07l0.27-0.07l0.27-0.06l0.27-0.05l0.27-0.05l0.26-0.04l0.26-0.04l0.26-0.03l0.25-0.02l0.25-0.02
			l0.25-0.01l0.24-0.01l0.24,0l0.24,0.01l0.23,0.01l0.23,0.02l0.22,0.03l0.22,0.03l0.21,0.04l0.21,0.04l0.2,0.05l0.2,0.05l0.19,0.06
			l0.18,0.06l0.09,0.03l0.09,0.04l0.09,0.04l0.09,0.04l0.08,0.04l0.08,0.04l0.08,0.04l0.08,0.04l0.08,0.04l0.08,0.04l0.07,0.05
			l0.07,0.05l0.07,0.05l0.07,0.05l0.07,0.05l0.07,0.05l0.07,0.05l0.06,0.05l0.06,0.05l0.06,0.05l0.06,0.05l0.06,0.06l0.06,0.06
			l0.05,0.06l0.05,0.06l0.05,0.06l0.05,0.06l0.05,0.06l0.05,0.06L243.85,84.36z"/>
	</g>
	<g id="HATCH_33_">
		<polygon fill-rule="evenodd" clip-rule="evenodd" fill="#292927" points="263.6,91.65 220.29,166.66 221.26,167.12 222.25,167.55 
			223.25,167.97 224.27,168.36 225.31,168.74 226.37,169.1 227.44,169.44 228.52,169.75 229.62,170.04 230.73,170.31 231.85,170.56 
			232.99,170.78 234.14,170.97 235.29,171.14 236.46,171.28 237.64,171.4 238.82,171.49 240.01,171.55 241.21,171.58 242.41,171.59 
			243.61,171.56 244.82,171.51 246.03,171.42 247.25,171.31 248.46,171.17 249.67,171 250.87,170.79 252.08,170.56 253.28,170.3 
			254.47,170.01 255.66,169.69 256.84,169.34 258.01,168.96 259.17,168.56 260.32,168.12 261.46,167.66 262.58,167.17 
			263.69,166.65 264.79,166.11 265.87,165.54 266.93,164.95 267.97,164.34 269,163.7 270.01,163.04 271,162.36 271.97,161.65 
			272.92,160.93 273.84,160.19 274.75,159.43 275.63,158.65 276.49,157.85 277.33,157.05 278.14,156.22 278.93,155.38 
			279.69,154.53 280.43,153.67 281.15,152.8 281.84,151.92 282.51,151.03 283.15,150.13 283.77,149.23 284.36,148.31 284.93,147.4 
			285.48,146.47 286,145.54 286.5,144.6 286.99,143.65 287.45,142.68 287.89,141.7 288.31,140.71 288.71,139.71 289.08,138.7 
			289.42,137.68 289.74,136.66 290.03,135.62 290.3,134.58 290.53,133.53 290.74,132.48 290.92,131.42 291.06,130.36 291.18,129.29 
			291.27,128.23 291.32,127.16 291.34,126.09 291.33,125.03 291.29,123.96 291.21,122.9 291.1,121.84 290.95,120.79 290.78,119.74 
			290.57,118.7 290.32,117.66 290.04,116.64 289.73,115.62 289.39,114.62 289.01,113.62 288.6,112.64 288.15,111.67 287.68,110.72 
			287.17,109.78 286.64,108.85 286.07,107.94 285.47,107.05 284.85,106.18 284.2,105.32 283.52,104.49 282.81,103.67 282.08,102.88 
			281.32,102.1 280.54,101.35 279.74,100.62 278.91,99.91 278.07,99.22 277.2,98.55 276.32,97.91 275.42,97.29 274.5,96.69 
			273.56,96.12 272.62,95.57 271.65,95.04 270.68,94.54 269.69,94.05 268.7,93.6 267.69,93.16 266.68,92.75 265.66,92.36 
			264.63,91.99 		"/>
	</g>
	<g id="HATCH_32_">
		<polygon fill-rule="evenodd" clip-rule="evenodd" fill="#00FFFF" points="213.59,162.8 214.88,163.65 216.2,164.47 217.54,165.24 
			218.9,165.97 220.29,166.66 270.37,79.93 269.08,79.07 267.76,78.26 266.42,77.48 265.05,76.75 263.67,76.06 		"/>
	</g>
	<g id="HATCH_31_">
		<polygon fill-rule="evenodd" clip-rule="evenodd" fill="#FFFFFF" points="243.85,84.36 243.89,84.42 243.94,84.49 243.98,84.55 
			244.02,84.62 244.06,84.68 244.1,84.75 244.14,84.82 244.17,84.89 244.21,84.96 244.24,85.04 244.28,85.11 244.31,85.19 
			244.34,85.26 244.37,85.34 244.39,85.42 244.42,85.5 244.45,85.58 244.47,85.66 244.49,85.75 244.51,85.83 244.53,85.92 
			244.55,86 244.57,86.09 244.58,86.18 244.59,86.27 244.6,86.36 244.61,86.46 244.62,86.55 244.63,86.64 244.63,86.74 
			244.64,86.93 244.64,87.13 244.63,87.33 244.62,87.54 244.59,87.75 244.56,87.96 244.53,88.18 244.48,88.4 244.43,88.62 
			244.38,88.84 244.31,89.07 244.24,89.3 244.16,89.53 244.07,89.76 243.98,90 243.88,90.23 243.77,90.47 243.66,90.71 
			243.54,90.94 243.41,91.18 243.28,91.42 243.14,91.66 243,91.9 242.85,92.14 242.69,92.37 242.53,92.61 242.36,92.84 
			242.01,93.31 241.64,93.77 241.26,94.21 240.86,94.65 240.45,95.08 240.03,95.49 239.6,95.89 239.16,96.27 238.72,96.64 
			238.28,96.99 237.83,97.32 237.38,97.64 236.91,97.96 236.42,98.27 235.93,98.57 235.42,98.86 234.9,99.14 234.37,99.4 
			233.83,99.65 233.29,99.88 232.74,100.09 232.19,100.28 231.92,100.37 231.64,100.45 231.37,100.53 231.1,100.6 230.82,100.66 
			230.56,100.73 230.29,100.78 230.02,100.83 229.76,100.87 229.5,100.91 229.24,100.94 228.98,100.96 228.73,100.98 228.49,100.99 
			228.24,100.99 228,100.99 227.77,100.99 227.53,100.97 227.31,100.95 227.09,100.93 226.87,100.9 226.66,100.86 226.45,100.82 
			226.25,100.77 226.06,100.72 225.87,100.66 225.68,100.59 225.59,100.56 225.51,100.52 225.42,100.49 225.33,100.45 
			225.25,100.41 225.17,100.37 225.09,100.33 225.01,100.29 224.93,100.25 224.86,100.2 224.78,100.16 224.71,100.11 224.64,100.06 
			224.57,100.01 224.5,99.96 224.43,99.91 224.37,99.86 224.3,99.81 224.24,99.76 224.18,99.7 224.12,99.65 224.06,99.59 
			224.01,99.54 223.95,99.48 223.9,99.42 223.85,99.36 223.8,99.3 223.75,99.24 223.7,99.18 223.66,99.12 223.61,99.06 223.57,99 
			223.53,98.93 223.48,98.87 223.44,98.8 223.4,98.73 223.37,98.66 223.33,98.59 223.29,98.52 223.26,98.45 223.23,98.37 
			223.2,98.3 223.17,98.22 223.14,98.14 223.11,98.06 223.08,97.98 223.06,97.9 223.03,97.82 223.01,97.74 222.99,97.65 
			222.97,97.57 222.95,97.48 222.94,97.39 222.92,97.3 222.91,97.21 222.9,97.12 222.89,97.03 222.88,96.93 222.87,96.84 
			222.87,96.74 222.86,96.55 222.86,96.35 222.87,96.15 222.89,95.94 222.91,95.73 222.94,95.52 222.98,95.31 223.02,95.09 
			223.07,94.86 223.13,94.64 223.19,94.41 223.26,94.18 223.34,93.95 223.43,93.72 223.52,93.49 223.62,93.25 223.73,93.01 
			223.84,92.78 223.96,92.54 224.09,92.3 224.22,92.06 224.36,91.82 224.51,91.58 224.66,91.35 224.81,91.11 224.97,90.87 
			225.14,90.64 225.49,90.17 225.86,89.72 226.24,89.27 226.64,88.83 227.05,88.41 227.47,88 227.9,87.6 228.34,87.21 228.78,86.85 
			229.23,86.5 229.67,86.16 230.13,85.84 230.6,85.52 231.08,85.21 231.58,84.91 232.09,84.62 232.61,84.35 233.14,84.08 
			233.67,83.84 234.22,83.61 234.76,83.39 235.31,83.2 235.59,83.11 235.86,83.03 236.13,82.95 236.41,82.88 236.68,82.82 
			236.95,82.76 237.22,82.7 237.48,82.65 237.74,82.61 238.01,82.58 238.26,82.55 238.52,82.52 238.77,82.51 239.02,82.49 
			239.26,82.49 239.5,82.49 239.74,82.5 239.97,82.51 240.2,82.53 240.42,82.55 240.63,82.59 240.85,82.62 241.05,82.66 
			241.25,82.71 241.45,82.77 241.64,82.83 241.82,82.89 241.91,82.92 242,82.96 242.08,82.99 242.17,83.03 242.25,83.07 
			242.34,83.11 242.42,83.15 242.49,83.19 242.57,83.24 242.65,83.28 242.72,83.33 242.8,83.37 242.87,83.42 242.94,83.47 
			243,83.52 243.07,83.57 243.14,83.62 243.2,83.67 243.26,83.73 243.32,83.78 243.38,83.83 243.44,83.89 243.5,83.95 243.55,84 
			243.6,84.06 243.66,84.12 243.71,84.18 243.75,84.24 243.8,84.3 		"/>
	</g>
</g>
<g>
	<g id="HATCH_30_">
		<polygon fill-rule="evenodd" clip-rule="evenodd" fill="#292927" points="117.73,301.05 117.73,280.72 121.21,280.72 
			121.21,298.05 131.06,298.05 131.06,301.05 		"/>
	</g>
	<g id="HATCH_29_">
		<polygon fill-rule="evenodd" clip-rule="evenodd" fill="#292927" points="355.6,301.05 355.6,280.72 371.22,280.72 371.22,283.71 
			359.08,283.71 359.08,289.13 370.39,289.13 370.39,292.09 359.08,292.09 359.08,298.05 371.79,298.05 371.79,301.05 		"/>
	</g>
	<g id="HATCH_28_">
		<polygon fill-rule="evenodd" clip-rule="evenodd" fill="#292927" points="298.43,286.59 298.25,286.11 298.06,285.6 
			297.68,284.49 297.33,285.48 296.92,286.61 291.28,301.05 287.63,301.05 295.93,280.72 299.49,280.72 307.66,301.05 
			304.06,301.05 301.83,295.35 294.77,295.35 295.89,292.45 300.72,292.45 		"/>
	</g>
	<g id="HATCH_27_">
		<polygon fill-rule="evenodd" clip-rule="evenodd" fill="#292927" points="227.53,286.41 230,282.13 230.31,282.34 230.6,282.55 
			230.88,282.77 231.16,283.01 231.43,283.25 231.69,283.51 231.95,283.77 232.19,284.04 232.42,284.32 232.65,284.61 232.86,284.9 
			233.06,285.2 233.25,285.51 233.43,285.83 233.6,286.15 233.76,286.48 233.91,286.81 234.05,287.15 234.17,287.49 234.28,287.84 
			234.38,288.19 234.47,288.54 234.54,288.9 234.61,289.25 234.66,289.62 234.69,289.98 234.72,290.34 234.73,290.7 234.73,291.07 
			234.72,291.43 234.69,291.79 234.65,292.16 234.6,292.52 234.54,292.88 234.46,293.23 234.38,293.58 234.28,293.93 234.16,294.28 
			234.04,294.62 233.9,294.96 233.75,295.29 233.59,295.62 233.42,295.94 233.24,296.25 233.05,296.56 232.84,296.87 232.63,297.16 
			232.41,297.45 232.17,297.73 231.93,298 231.68,298.26 231.42,298.51 231.15,298.75 230.87,298.99 230.58,299.21 230.29,299.43 
			229.98,299.63 229.68,299.82 229.36,300.01 229.04,300.18 228.71,300.34 228.38,300.49 228.04,300.62 227.7,300.75 227.36,300.86 
			227.01,300.96 226.65,301.05 226.3,301.13 225.94,301.19 225.58,301.24 225.22,301.28 224.85,301.31 224.49,301.32 224.13,301.32 
			223.76,301.31 223.4,301.28 223.04,301.25 222.68,301.2 222.32,301.14 221.96,301.06 221.61,300.97 221.26,300.87 220.91,300.76 
			220.57,300.64 220.23,300.5 219.9,300.36 219.57,300.2 221.03,297.68 221.17,297.75 221.32,297.81 221.47,297.87 221.63,297.93 
			221.78,297.99 221.94,298.04 222.1,298.09 222.26,298.14 222.43,298.19 222.6,298.23 222.76,298.26 222.93,298.3 223.11,298.33 
			223.28,298.35 223.46,298.37 223.63,298.39 223.81,298.4 223.99,298.41 224.17,298.42 224.35,298.42 224.53,298.41 224.71,298.41 
			224.89,298.39 225.08,298.38 225.26,298.36 225.44,298.33 225.62,298.3 225.8,298.26 225.98,298.22 226.16,298.18 226.34,298.13 
			226.52,298.08 226.69,298.02 226.87,297.96 227.04,297.9 227.21,297.83 227.38,297.75 227.55,297.68 227.71,297.6 227.87,297.51 
			228.03,297.42 228.19,297.33 228.34,297.23 228.5,297.13 228.64,297.03 228.79,296.93 228.93,296.82 229.07,296.71 229.21,296.59 
			229.34,296.47 229.47,296.36 229.59,296.23 229.72,296.11 229.83,295.98 229.95,295.86 230.06,295.73 230.17,295.6 230.27,295.46 
			230.37,295.33 230.47,295.2 230.56,295.06 230.65,294.92 230.74,294.78 230.82,294.65 230.9,294.51 230.97,294.36 231.05,294.22 
			231.12,294.08 231.18,293.93 231.24,293.78 231.3,293.63 231.36,293.48 231.41,293.33 231.46,293.17 231.5,293.02 231.54,292.86 
			231.58,292.7 231.61,292.54 231.64,292.39 231.66,292.23 231.68,292.07 231.69,291.91 231.7,291.75 231.7,291.58 231.7,291.42 
			231.69,291.26 231.68,291.11 231.66,290.95 231.64,290.79 231.61,290.63 231.58,290.47 231.55,290.32 231.5,290.16 231.46,290.01 
			231.41,289.86 231.35,289.71 231.29,289.56 231.22,289.42 231.15,289.28 231.07,289.13 230.99,289 230.91,288.86 230.82,288.73 
			230.72,288.59 230.63,288.47 230.52,288.34 230.42,288.22 230.31,288.1 230.19,287.98 230.08,287.87 229.96,287.76 229.83,287.65 
			229.71,287.55 229.58,287.45 229.44,287.35 229.31,287.26 229.17,287.17 229.03,287.08 228.89,287 228.74,286.92 228.6,286.85 
			228.45,286.77 228.3,286.7 228.15,286.64 228,286.58 227.84,286.52 227.69,286.46 		"/>
	</g>
	<g id="HATCH_26_">
		<polygon fill-rule="evenodd" clip-rule="evenodd" fill="#292927" points="221.04,295.34 218.57,299.62 218.27,299.41 
			217.97,299.2 217.69,298.97 217.41,298.74 217.14,298.49 216.88,298.24 216.62,297.98 216.38,297.71 216.15,297.43 215.93,297.14 
			215.71,296.85 215.51,296.54 215.32,296.23 215.14,295.92 214.97,295.6 214.81,295.27 214.66,294.94 214.52,294.6 214.4,294.26 
			214.29,293.91 214.19,293.56 214.1,293.21 214.03,292.85 213.96,292.49 213.91,292.13 213.88,291.77 213.85,291.41 213.84,291.04 
			213.84,290.68 213.85,290.32 213.88,289.95 213.92,289.59 213.97,289.23 214.03,288.87 214.11,288.52 214.2,288.16 214.3,287.81 
			214.41,287.47 214.53,287.13 214.67,286.79 214.82,286.46 214.98,286.13 215.15,285.81 215.33,285.49 215.52,285.18 
			215.73,284.88 215.94,284.59 216.16,284.3 216.4,284.02 216.64,283.75 216.89,283.49 217.16,283.24 217.43,282.99 217.7,282.76 
			217.99,282.54 218.28,282.32 218.59,282.12 218.89,281.92 219.21,281.74 219.53,281.57 219.86,281.41 220.19,281.26 
			220.53,281.13 220.87,281 221.21,280.89 221.56,280.79 221.92,280.7 222.27,280.62 222.63,280.56 222.99,280.51 223.35,280.47 
			223.72,280.44 224.08,280.43 224.44,280.43 224.81,280.44 225.17,280.46 225.53,280.5 225.89,280.55 226.25,280.61 226.61,280.69 
			226.96,280.77 227.31,280.87 227.66,280.99 228,281.11 228.34,281.24 228.67,281.39 229,281.55 227.54,284.07 227.4,284 
			227.25,283.94 227.1,283.87 226.94,283.81 226.79,283.76 226.63,283.7 226.47,283.65 226.31,283.61 226.14,283.56 225.98,283.52 
			225.81,283.49 225.64,283.45 225.46,283.42 225.29,283.4 225.11,283.38 224.94,283.36 224.76,283.35 224.58,283.34 224.4,283.33 
			224.22,283.33 224.04,283.33 223.86,283.34 223.68,283.36 223.49,283.37 223.31,283.39 223.13,283.42 222.95,283.45 
			222.77,283.48 222.59,283.52 222.41,283.57 222.23,283.62 222.05,283.67 221.88,283.73 221.7,283.79 221.53,283.85 221.36,283.92 
			221.19,283.99 221.02,284.07 220.86,284.15 220.7,284.24 220.54,284.33 220.38,284.42 220.23,284.52 220.08,284.61 219.93,284.72 
			219.78,284.82 219.64,284.93 219.5,285.04 219.36,285.16 219.23,285.27 219.1,285.39 218.98,285.51 218.85,285.64 218.74,285.76 
			218.62,285.89 218.51,286.02 218.4,286.15 218.3,286.28 218.2,286.42 218.1,286.55 218.01,286.69 217.92,286.83 217.83,286.96 
			217.75,287.1 217.67,287.24 217.6,287.38 217.53,287.53 217.46,287.67 217.39,287.82 217.33,287.97 217.27,288.12 217.21,288.27 
			217.16,288.42 217.11,288.58 217.07,288.73 217.03,288.89 216.99,289.05 216.96,289.2 216.94,289.36 216.91,289.52 216.9,289.68 
			216.88,289.84 216.87,290 216.87,290.16 216.87,290.32 216.88,290.48 216.89,290.64 216.91,290.8 216.93,290.96 216.96,291.12 
			216.99,291.27 217.02,291.43 217.07,291.58 217.11,291.74 217.17,291.89 217.22,292.04 217.28,292.18 217.35,292.33 
			217.42,292.47 217.5,292.61 217.58,292.75 217.66,292.89 217.75,293.02 217.85,293.15 217.94,293.28 218.05,293.41 218.15,293.53 
			218.26,293.65 218.38,293.77 218.49,293.88 218.61,293.99 218.74,294.1 218.87,294.2 218.99,294.3 219.13,294.4 219.26,294.49 
			219.4,294.58 219.54,294.67 219.68,294.75 219.83,294.83 219.97,294.9 220.12,294.98 220.27,295.04 220.42,295.11 220.58,295.17 
			220.73,295.23 220.88,295.29 		"/>
	</g>
	<g id="HATCH_25_">
		<polygon fill-rule="evenodd" clip-rule="evenodd" fill="#292927" points="154.76,301.32 155.22,301.31 155.45,301.3 
			155.68,301.29 155.91,301.27 156.14,301.25 156.37,301.22 156.6,301.19 156.81,301.16 157.02,301.12 157.23,301.07 157.44,301.03 
			157.65,300.97 157.85,300.92 158.06,300.86 158.26,300.79 158.45,300.72 158.64,300.65 158.83,300.57 159.02,300.49 159.2,300.41 
			159.38,300.32 159.56,300.22 159.74,300.12 159.91,300.02 160.07,299.91 160.23,299.81 160.39,299.69 160.55,299.57 160.7,299.45 
			160.85,299.33 160.99,299.2 161.13,299.06 161.27,298.93 161.4,298.78 161.53,298.64 161.65,298.49 161.77,298.34 161.89,298.19 
			162,298.03 162.11,297.87 162.21,297.7 162.31,297.53 162.41,297.36 162.5,297.18 162.59,297 162.67,296.82 162.75,296.63 
			162.82,296.44 162.89,296.25 162.95,296.05 163.01,295.85 163.06,295.66 163.11,295.46 163.15,295.25 163.19,295.05 
			163.23,294.83 163.26,294.62 163.28,294.4 163.31,294.18 163.32,293.96 163.33,293.74 163.34,293.52 163.34,293.3 163.34,280.72 
			159.88,280.72 159.88,293.14 159.87,293.45 159.87,293.61 159.86,293.76 159.84,293.91 159.83,294.07 159.81,294.22 
			159.79,294.37 159.77,294.51 159.74,294.64 159.72,294.77 159.69,294.91 159.65,295.04 159.62,295.17 159.58,295.3 159.53,295.43 
			159.49,295.54 159.45,295.66 159.4,295.77 159.35,295.88 159.3,295.99 159.24,296.1 159.18,296.2 159.12,296.31 159.06,296.41 
			158.99,296.5 158.92,296.59 158.85,296.69 158.78,296.78 158.7,296.86 158.62,296.95 158.54,297.03 158.46,297.11 158.37,297.19 
			158.28,297.26 158.19,297.33 158.1,297.4 158.01,297.47 157.91,297.54 157.81,297.6 157.71,297.66 157.6,297.72 157.5,297.77 
			157.39,297.83 157.28,297.88 157.17,297.92 157.06,297.97 156.94,298.01 156.82,298.05 156.69,298.09 156.57,298.12 
			156.44,298.16 156.31,298.19 156.18,298.21 156.05,298.24 155.92,298.26 155.78,298.28 155.63,298.3 155.48,298.31 155.34,298.32 
			155.19,298.33 155.04,298.34 154.75,298.34 154.46,298.34 154.32,298.33 154.17,298.32 154.03,298.31 153.89,298.3 153.75,298.28 
			153.61,298.26 153.48,298.24 153.36,298.22 153.23,298.19 153.11,298.16 152.99,298.13 152.87,298.1 152.75,298.06 152.63,298.02 
			152.52,297.98 152.41,297.94 152.31,297.89 152.21,297.85 152.1,297.8 152,297.74 151.9,297.69 151.81,297.63 151.72,297.57 
			151.63,297.51 151.54,297.44 151.45,297.38 151.37,297.31 151.29,297.23 151.21,297.16 151.13,297.08 151.05,297 150.98,296.92 
			150.91,296.84 150.84,296.75 150.78,296.66 150.71,296.57 150.65,296.48 150.6,296.39 150.54,296.29 150.48,296.19 150.43,296.08 
			150.38,295.97 150.33,295.87 150.29,295.76 150.25,295.65 150.21,295.54 150.17,295.41 150.13,295.29 150.1,295.16 150.07,295.03 
			150.04,294.91 150.02,294.78 149.99,294.65 149.97,294.52 149.95,294.37 149.94,294.22 149.92,294.07 149.91,293.92 149.9,293.62 
			149.89,293.32 149.89,280.72 146.42,280.72 146.42,293.54 146.42,293.76 146.42,293.97 146.43,294.19 146.45,294.4 146.47,294.61 
			146.5,294.83 146.53,295.04 146.56,295.25 146.6,295.45 146.64,295.64 146.69,295.84 146.74,296.03 146.8,296.22 146.86,296.41 
			146.93,296.6 147,296.79 147.07,296.97 147.15,297.14 147.24,297.32 147.33,297.49 147.42,297.66 147.52,297.82 147.62,297.98 
			147.73,298.14 147.84,298.29 147.95,298.44 148.07,298.59 148.19,298.73 148.32,298.87 148.45,299.01 148.58,299.14 
			148.72,299.27 148.86,299.4 149,299.52 149.15,299.64 149.3,299.75 149.46,299.86 149.62,299.97 149.78,300.07 149.94,300.16 
			150.11,300.26 150.29,300.35 150.46,300.44 150.64,300.52 150.82,300.6 151.01,300.67 151.19,300.74 151.38,300.81 151.58,300.87 
			151.77,300.93 151.97,300.99 152.18,301.04 152.38,301.08 152.58,301.12 152.78,301.16 152.99,301.19 153.21,301.23 
			153.43,301.25 153.65,301.27 153.87,301.29 154.09,301.31 154.32,301.31 		"/>
	</g>
	<g id="HATCH_24_">
		<polygon fill-rule="evenodd" clip-rule="evenodd" fill="#292927" points="179.18,290.79 179.19,291.27 179.21,291.75 
			179.25,292.23 179.3,292.7 179.37,293.15 179.4,293.37 179.45,293.59 179.49,293.81 179.54,294.03 179.6,294.25 179.66,294.46 
			179.72,294.67 179.78,294.87 179.85,295.08 179.92,295.28 180,295.48 180.08,295.68 180.16,295.87 180.25,296.07 180.34,296.25 
			180.43,296.44 180.53,296.62 180.63,296.8 180.74,296.98 180.85,297.16 180.96,297.33 181.08,297.5 181.2,297.66 181.32,297.82 
			181.45,297.98 181.57,298.13 181.71,298.28 181.84,298.43 181.98,298.58 182.13,298.72 182.27,298.85 182.42,298.99 
			182.58,299.12 182.73,299.25 182.89,299.37 183.06,299.49 183.22,299.6 183.39,299.72 183.56,299.83 183.74,299.93 183.92,300.04 
			184.1,300.13 184.29,300.23 184.47,300.32 184.66,300.4 184.85,300.49 185.05,300.57 185.25,300.64 185.45,300.71 185.66,300.78 
			185.86,300.84 186.07,300.9 186.27,300.96 186.48,301.01 186.7,301.06 186.93,301.1 187.15,301.14 187.37,301.18 187.6,301.21 
			187.82,301.23 188.27,301.28 188.75,301.31 189.23,301.32 189.66,301.32 190.09,301.31 190.5,301.29 190.91,301.25 191.31,301.21 
			191.71,301.15 192.11,301.09 192.49,301.01 192.88,300.92 193.26,300.82 193.64,300.71 194.01,300.59 194.38,300.46 
			194.74,300.31 195.08,300.17 195.43,300.01 195.76,299.84 196.1,299.65 196.41,299.47 196.72,299.27 197.02,299.06 197.17,298.96 
			197.32,298.85 197.6,298.62 197.74,298.51 197.87,298.39 198.01,298.27 198.14,298.14 198.27,298.02 198.4,297.89 198.52,297.77 
			198.52,290.46 189.42,290.46 189.42,293.51 195.25,293.51 195.25,296.42 195.15,296.51 195.05,296.59 194.94,296.68 
			194.84,296.76 194.73,296.83 194.63,296.91 194.52,296.98 194.41,297.05 194.28,297.13 194.16,297.2 194.03,297.27 193.9,297.33 
			193.78,297.4 193.65,297.46 193.52,297.52 193.38,297.58 193.24,297.64 193.09,297.69 192.8,297.8 192.64,297.86 192.47,297.91 
			192.31,297.96 192.14,298 191.97,298.04 191.8,298.09 191.63,298.12 191.46,298.16 191.12,298.22 190.77,298.26 190.41,298.3 
			190.05,298.33 189.69,298.34 189.32,298.34 189.01,298.33 188.71,298.31 188.55,298.3 188.4,298.29 188.25,298.27 188.09,298.24 
			187.95,298.22 187.81,298.2 187.67,298.17 187.54,298.14 187.4,298.1 187.26,298.07 187.12,298.03 186.99,297.98 186.86,297.94 
			186.74,297.89 186.61,297.84 186.49,297.79 186.37,297.74 186.24,297.68 186.13,297.62 186.01,297.56 185.89,297.49 
			185.78,297.43 185.67,297.36 185.56,297.29 185.45,297.21 185.35,297.13 185.24,297.05 185.14,296.97 185.04,296.89 184.94,296.8 
			184.84,296.71 184.75,296.61 184.65,296.52 184.56,296.42 184.47,296.32 184.38,296.22 184.3,296.11 184.21,296.01 184.13,295.9 
			184.05,295.79 183.97,295.67 183.9,295.56 183.83,295.44 183.76,295.33 183.69,295.2 183.62,295.08 183.56,294.95 183.5,294.83 
			183.44,294.7 183.38,294.57 183.33,294.44 183.28,294.31 183.22,294.17 183.18,294.02 183.13,293.88 183.09,293.74 183.05,293.59 
			183.01,293.45 182.94,293.16 182.91,293 182.88,292.84 182.82,292.52 182.78,292.19 182.75,291.87 182.72,291.53 182.71,291.18 
			182.7,290.82 182.71,290.46 182.72,290.12 182.74,289.78 182.77,289.44 182.81,289.1 182.86,288.79 182.91,288.49 182.98,288.18 
			183.02,288.03 183.05,287.88 183.09,287.75 183.13,287.61 183.18,287.48 183.22,287.34 183.27,287.21 183.32,287.08 
			183.38,286.94 183.44,286.81 183.49,286.69 183.55,286.57 183.61,286.46 183.67,286.34 183.74,286.22 183.81,286.11 
			183.88,285.99 183.95,285.88 184.02,285.78 184.1,285.67 184.18,285.57 184.26,285.47 184.34,285.37 184.42,285.28 184.51,285.18 
			184.6,285.09 184.69,285 184.78,284.92 184.87,284.83 184.97,284.75 185.06,284.67 185.16,284.59 185.26,284.52 185.36,284.45 
			185.47,284.38 185.58,284.31 185.69,284.25 185.8,284.18 185.91,284.12 186.03,284.07 186.14,284.01 186.26,283.96 186.38,283.91 
			186.5,283.86 186.63,283.82 186.75,283.78 186.88,283.74 187.02,283.7 187.15,283.66 187.28,283.63 187.43,283.6 187.57,283.57 
			187.71,283.54 187.86,283.52 188.01,283.5 188.15,283.48 188.44,283.45 188.76,283.43 189.08,283.42 189.28,283.42 189.47,283.42 
			189.67,283.43 189.87,283.44 190.05,283.45 190.24,283.47 190.43,283.49 190.61,283.51 190.8,283.54 190.98,283.57 191.17,283.61 
			191.35,283.65 191.51,283.69 191.67,283.73 191.82,283.78 191.98,283.84 192.13,283.89 192.29,283.95 192.44,284.02 
			192.58,284.09 192.73,284.17 192.8,284.21 192.87,284.25 192.94,284.29 193.01,284.33 193.08,284.38 193.15,284.42 193.21,284.47 
			193.27,284.51 193.34,284.56 193.4,284.61 193.51,284.71 193.63,284.81 193.74,284.91 193.85,285.02 193.95,285.14 194.05,285.25 
			194.16,285.38 194.26,285.52 194.36,285.65 194.45,285.79 194.54,285.93 194.62,286.08 194.7,286.22 194.78,286.37 194.93,286.68 
			195.27,286.59 198.25,285.7 198.05,285.26 197.92,285 197.79,284.74 197.65,284.48 197.5,284.23 197.35,283.99 197.2,283.76 
			197.03,283.54 196.95,283.43 196.86,283.32 196.77,283.21 196.68,283.11 196.59,283.01 196.5,282.91 196.41,282.82 196.31,282.72 
			196.22,282.63 196.12,282.53 196.02,282.45 195.92,282.36 195.81,282.28 195.71,282.19 195.6,282.11 195.5,282.03 195.39,281.96 
			195.28,281.88 195.17,281.81 195.05,281.74 194.94,281.67 194.82,281.61 194.6,281.49 194.37,281.38 194.14,281.27 193.91,281.18 
			193.64,281.08 193.37,280.98 193.1,280.9 192.82,280.82 192.52,280.75 192.22,280.69 191.92,280.63 191.62,280.58 191.29,280.54 
			190.96,280.5 190.63,280.48 190.3,280.45 189.96,280.44 189.61,280.43 189.01,280.43 188.52,280.45 188.03,280.48 187.79,280.5 
			187.54,280.53 187.3,280.56 187.06,280.59 186.84,280.63 186.61,280.67 186.39,280.72 186.17,280.77 185.95,280.83 185.73,280.89 
			185.52,280.95 185.3,281.02 185.1,281.09 184.9,281.16 184.7,281.24 184.5,281.33 184.31,281.42 184.11,281.51 183.92,281.61 
			183.73,281.71 183.55,281.81 183.38,281.92 183.2,282.04 183.03,282.15 182.86,282.27 182.69,282.4 182.53,282.53 182.37,282.66 
			182.21,282.8 182.06,282.94 181.91,283.09 181.76,283.24 181.62,283.39 181.48,283.55 181.35,283.71 181.22,283.87 181.09,284.04 
			180.97,284.21 180.85,284.39 180.74,284.56 180.63,284.74 180.52,284.93 180.42,285.11 180.32,285.3 180.23,285.5 180.14,285.7 
			180.05,285.9 179.97,286.1 179.89,286.31 179.82,286.51 179.75,286.72 179.69,286.93 179.62,287.16 179.57,287.38 179.51,287.61 
			179.46,287.84 179.42,288.07 179.38,288.3 179.34,288.53 179.31,288.76 179.28,289.02 179.25,289.27 179.21,289.78 179.19,290.28 
					"/>
	</g>
	<g id="HATCH_23_">
		<polygon fill-rule="evenodd" clip-rule="evenodd" fill="#292927" points="262.36,288.36 265.82,301.05 269.6,301.05 
			275.59,280.72 271.96,280.72 271.88,281.02 268.1,294.7 267.99,295.13 267.67,296.47 266.85,293.16 263.37,280.72 260.21,280.72 
			260.12,281.02 256.39,294.45 256.28,294.88 255.92,296.4 255.17,293.41 251.58,280.72 247.95,280.72 253.94,301.05 257.73,301.05 
			257.81,300.74 261.48,287.31 261.59,286.86 261.79,286.01 261.95,286.72 262.17,287.65 		"/>
	</g>
	<g id="HATCH_22_">
		<polygon fill-rule="evenodd" clip-rule="evenodd" fill="#292927" points="325.55,292.95 325.55,290.03 325.55,283.67 
			325.55,280.72 322.07,280.72 322.07,301.05 325.55,301.05 		"/>
	</g>
	<g id="HATCH_21_">
		<polygon fill-rule="evenodd" clip-rule="evenodd" fill="#292927" points="334.46,292.51 334.66,292.46 334.85,292.4 
			335.04,292.34 335.23,292.27 335.42,292.2 335.6,292.12 335.78,292.03 335.96,291.94 336.08,291.87 336.19,291.81 336.3,291.74 
			336.41,291.67 336.52,291.6 336.63,291.52 336.73,291.44 336.84,291.36 336.94,291.28 337.04,291.19 337.14,291.1 337.23,291.01 
			337.32,290.92 337.41,290.83 337.5,290.73 337.59,290.63 337.67,290.53 337.75,290.43 337.83,290.33 337.91,290.22 337.98,290.12 
			338.05,290.01 338.12,289.9 338.19,289.79 338.25,289.67 338.31,289.56 338.37,289.44 338.42,289.33 338.47,289.21 338.52,289.09 
			338.57,288.97 338.61,288.85 338.66,288.72 338.7,288.59 338.73,288.47 338.76,288.34 338.8,288.21 338.82,288.08 338.85,287.95 
			338.87,287.82 338.89,287.68 338.91,287.54 338.92,287.4 338.93,287.27 338.94,287.13 338.95,286.99 338.95,286.85 338.95,286.71 
			338.95,286.54 338.95,286.38 338.94,286.21 338.93,286.05 338.91,285.88 338.89,285.72 338.86,285.55 338.83,285.39 338.8,285.24 
			338.77,285.09 338.73,284.94 338.69,284.79 338.64,284.64 338.59,284.49 338.53,284.35 338.47,284.2 338.41,284.07 338.34,283.93 
			338.27,283.8 338.2,283.67 338.12,283.54 338.04,283.41 337.95,283.29 337.86,283.16 337.77,283.04 337.67,282.93 337.57,282.81 
			337.46,282.7 337.35,282.59 337.24,282.49 337.13,282.38 337.01,282.29 336.89,282.19 336.76,282.09 336.63,282 336.5,281.91 
			336.36,281.82 336.22,281.74 336.09,281.67 335.94,281.59 335.79,281.52 335.64,281.45 335.49,281.38 335.33,281.32 
			335.17,281.26 335.01,281.2 334.85,281.15 334.69,281.1 334.52,281.05 334.34,281.01 334.16,280.97 333.99,280.93 333.81,280.9 
			333.63,280.86 333.27,280.81 333.07,280.79 332.87,280.77 332.46,280.74 332.06,280.72 331.66,280.72 326.71,280.72 
			326.71,283.67 331.4,283.67 331.64,283.67 331.89,283.68 332.13,283.7 332.37,283.72 332.58,283.75 332.79,283.79 332.9,283.81 
			333,283.83 333.1,283.85 333.21,283.88 333.3,283.9 333.39,283.93 333.47,283.96 333.56,283.99 333.65,284.02 333.73,284.06 
			333.82,284.09 333.9,284.13 333.98,284.17 334.05,284.21 334.12,284.25 334.2,284.29 334.27,284.33 334.34,284.38 334.4,284.42 
			334.47,284.47 334.53,284.52 334.59,284.57 334.64,284.62 334.7,284.67 334.75,284.73 334.8,284.78 334.85,284.84 334.9,284.9 
			334.95,284.96 334.99,285.02 335.03,285.08 335.07,285.14 335.11,285.21 335.14,285.27 335.18,285.34 335.21,285.41 
			335.24,285.48 335.27,285.56 335.3,285.63 335.32,285.71 335.34,285.78 335.36,285.86 335.38,285.94 335.4,286.02 335.41,286.11 
			335.43,286.2 335.44,286.29 335.45,286.38 335.45,286.47 335.46,286.56 335.46,286.65 335.46,286.74 335.46,286.83 335.46,286.93 
			335.45,287.02 335.45,287.12 335.44,287.21 335.43,287.3 335.41,287.4 335.4,287.49 335.38,287.57 335.36,287.66 335.34,287.74 
			335.32,287.82 335.3,287.9 335.27,287.98 335.24,288.06 335.21,288.14 335.18,288.21 335.14,288.28 335.11,288.35 335.07,288.42 
			335.03,288.49 334.99,288.56 334.95,288.62 334.9,288.69 334.85,288.75 334.8,288.81 334.75,288.87 334.7,288.93 334.64,288.99 
			334.59,289.05 334.53,289.1 334.47,289.15 334.4,289.21 334.34,289.26 334.27,289.31 334.2,289.36 334.13,289.4 334.06,289.45 
			333.99,289.49 333.91,289.53 333.83,289.57 333.75,289.61 333.67,289.65 333.58,289.68 333.5,289.71 333.41,289.75 333.33,289.77 
			333.24,289.8 333.14,289.83 333.04,289.86 332.94,289.88 332.84,289.9 332.74,289.92 332.64,289.94 332.54,289.96 332.44,289.97 
			332.32,289.98 332.21,290 331.97,290.01 331.74,290.02 331.51,290.03 326.71,290.03 326.71,292.95 330.97,292.95 336.04,301.05 
			340.09,301.05 		"/>
	</g>
</g>
<g>
	<path fill="#019687" d="M154.43,240.84c-2.09,0-3.94-0.46-5.55-1.39c-1.61-0.93-2.88-2.2-3.81-3.83c-0.93-1.62-1.39-3.47-1.39-5.53
		c0-2.09,0.46-3.94,1.39-5.57c0.93-1.62,2.2-2.9,3.81-3.83c1.61-0.93,3.46-1.39,5.55-1.39c2.06,0,3.89,0.46,5.49,1.39
		c1.6,0.93,2.86,2.2,3.79,3.83c0.93,1.62,1.4,3.48,1.43,5.57c0,2.06-0.46,3.9-1.39,5.53c-0.93,1.62-2.2,2.9-3.81,3.83
		C158.33,240.38,156.49,240.84,154.43,240.84z M154.43,237.9c1.44,0,2.73-0.34,3.87-1.02c1.13-0.68,2.02-1.61,2.67-2.78
		c0.64-1.17,0.97-2.51,0.97-4c0-1.49-0.32-2.83-0.97-4.02c-0.64-1.19-1.53-2.12-2.67-2.8c-1.13-0.68-2.42-1.02-3.87-1.02
		c-1.44,0-2.74,0.34-3.88,1.02c-1.15,0.68-2.05,1.62-2.71,2.8c-0.66,1.19-0.99,2.53-0.99,4.02c0,1.49,0.33,2.83,0.99,4
		c0.66,1.17,1.56,2.1,2.71,2.78C151.69,237.56,152.99,237.9,154.43,237.9z"/>
	<path fill="#019687" d="M172.56,240.65c-0.52,0-0.92-0.14-1.2-0.43c-0.28-0.28-0.43-0.68-0.43-1.2v-17.9c0-0.52,0.14-0.91,0.43-1.2
		c0.28-0.28,0.68-0.43,1.2-0.43c0.52,0,0.91,0.14,1.18,0.43c0.27,0.28,0.41,0.68,0.41,1.2v17.9c0,0.52-0.14,0.92-0.41,1.2
		C173.47,240.51,173.07,240.65,172.56,240.65z M172.37,227.54c0.05-1.57,0.46-2.98,1.22-4.23c0.76-1.25,1.77-2.24,3.02-2.96
		c1.25-0.72,2.62-1.08,4.12-1.08c1.31,0,2.31,0.19,3,0.58c0.68,0.39,0.93,0.91,0.75,1.58c-0.08,0.36-0.24,0.62-0.48,0.77
		c-0.25,0.15-0.53,0.23-0.85,0.23c-0.32,0-0.69-0.03-1.1-0.08c-1.52-0.18-2.87-0.08-4.04,0.29c-1.17,0.37-2.11,0.99-2.8,1.84
		c-0.7,0.85-1.04,1.87-1.04,3.05H172.37z"/>
	<path fill="#019687" d="M196.91,240.84c-2.04,0-3.85-0.47-5.45-1.41c-1.6-0.94-2.85-2.22-3.77-3.85c-0.92-1.62-1.37-3.45-1.37-5.49
		c0-2.06,0.44-3.9,1.33-5.53c0.89-1.62,2.1-2.91,3.63-3.85c1.53-0.94,3.31-1.41,5.32-1.41c1.55,0,2.98,0.3,4.29,0.91
		c1.31,0.61,2.47,1.51,3.48,2.73c0.31,0.36,0.42,0.73,0.33,1.1c-0.09,0.37-0.33,0.7-0.72,0.99c-0.31,0.21-0.65,0.28-1.02,0.21
		c-0.37-0.06-0.72-0.26-1.02-0.6c-1.42-1.6-3.2-2.4-5.33-2.4c-1.42,0-2.66,0.34-3.73,1.01c-1.07,0.67-1.9,1.59-2.49,2.76
		c-0.59,1.17-0.89,2.53-0.89,4.08c0,1.49,0.32,2.83,0.95,4c0.63,1.17,1.51,2.1,2.63,2.78c1.12,0.68,2.4,1.02,3.85,1.02
		c0.98,0,1.86-0.13,2.65-0.39c0.79-0.26,1.49-0.66,2.11-1.2c0.36-0.28,0.72-0.44,1.08-0.46c0.36-0.03,0.7,0.08,1.01,0.31
		c0.33,0.31,0.53,0.66,0.58,1.04c0.05,0.39-0.08,0.73-0.39,1.04C202.07,239.98,199.72,240.84,196.91,240.84z"/>
	<path fill="#019687" d="M219.68,240.84c-1.96,0-3.71-0.47-5.26-1.41c-1.55-0.94-2.77-2.22-3.67-3.85c-0.9-1.62-1.35-3.45-1.35-5.49
		c0-2.06,0.47-3.9,1.41-5.53c0.94-1.62,2.22-2.91,3.85-3.85c1.62-0.94,3.45-1.41,5.49-1.41c2.01,0,3.82,0.47,5.43,1.41
		c1.61,0.94,2.89,2.22,3.83,3.85c0.94,1.62,1.42,3.47,1.45,5.53l-1.31,0.66c0,1.91-0.43,3.62-1.29,5.14
		c-0.86,1.52-2.04,2.73-3.52,3.61C223.24,240.4,221.56,240.84,219.68,240.84z M220.14,237.9c1.44,0,2.73-0.34,3.85-1.02
		c1.12-0.68,2.01-1.62,2.67-2.8c0.66-1.19,0.99-2.51,0.99-3.98c0-1.49-0.33-2.83-0.99-4c-0.66-1.17-1.55-2.11-2.67-2.8
		c-1.12-0.7-2.4-1.04-3.85-1.04c-1.42,0-2.7,0.35-3.85,1.04c-1.15,0.7-2.06,1.63-2.73,2.8c-0.67,1.17-1.01,2.51-1.01,4
		c0,1.47,0.33,2.8,1.01,3.98c0.67,1.19,1.58,2.12,2.73,2.8C217.44,237.56,218.73,237.9,220.14,237.9z M229.19,240.65
		c-0.46,0-0.86-0.15-1.18-0.44c-0.32-0.3-0.48-0.69-0.48-1.18v-6.38l0.73-3.36l2.59,0.81v8.93c0,0.49-0.15,0.88-0.46,1.18
		C230.08,240.5,229.68,240.65,229.19,240.65z"/>
	<path fill="#7C8282" d="M255.44,240.84c-1.6,0-3.15-0.26-4.66-0.79c-1.51-0.53-2.71-1.28-3.61-2.26c-0.31-0.33-0.44-0.72-0.39-1.16
		c0.05-0.44,0.26-0.8,0.62-1.08c0.41-0.31,0.83-0.44,1.26-0.39c0.43,0.05,0.78,0.23,1.06,0.54c0.57,0.67,1.35,1.21,2.36,1.6
		c1.01,0.4,2.11,0.6,3.32,0.6c1.78,0,3.09-0.3,3.92-0.91c0.84-0.61,1.27-1.36,1.3-2.26c0-0.88-0.42-1.61-1.26-2.2
		c-0.84-0.59-2.26-1.06-4.27-1.39c-2.6-0.44-4.5-1.17-5.7-2.2c-1.2-1.03-1.8-2.27-1.8-3.71c0-1.31,0.36-2.41,1.08-3.29
		c0.72-0.88,1.67-1.53,2.84-1.97c1.17-0.44,2.44-0.66,3.81-0.66c1.73,0,3.22,0.29,4.48,0.87c1.26,0.58,2.28,1.36,3.05,2.34
		c0.28,0.36,0.41,0.74,0.37,1.14c-0.04,0.4-0.25,0.72-0.64,0.95c-0.34,0.23-0.73,0.31-1.18,0.23c-0.45-0.08-0.83-0.28-1.14-0.62
		c-0.64-0.7-1.38-1.2-2.2-1.53c-0.83-0.32-1.77-0.48-2.82-0.48c-1.34,0-2.42,0.26-3.25,0.79c-0.83,0.53-1.24,1.21-1.24,2.03
		c0,0.57,0.15,1.06,0.44,1.47c0.3,0.41,0.82,0.78,1.58,1.1c0.76,0.32,1.85,0.61,3.27,0.87c1.93,0.34,3.46,0.81,4.58,1.41
		c1.12,0.61,1.92,1.31,2.4,2.11c0.48,0.8,0.72,1.69,0.72,2.67c0,1.21-0.34,2.27-1.02,3.19c-0.68,0.92-1.64,1.64-2.88,2.18
		C258.61,240.57,257.14,240.84,255.44,240.84z"/>
	<path fill="#7C8282" d="M273.57,240.65c-1.08,0-2.04-0.29-2.86-0.87c-0.82-0.58-1.47-1.38-1.93-2.42c-0.46-1.03-0.7-2.22-0.7-3.56
		v-21.72c0-0.49,0.15-0.88,0.44-1.18c0.3-0.3,0.69-0.44,1.18-0.44c0.46,0,0.84,0.15,1.14,0.44c0.3,0.3,0.44,0.69,0.44,1.18v21.72
		c0,1.06,0.21,1.93,0.64,2.61c0.43,0.68,0.97,1.02,1.64,1.02h0.97c0.41,0,0.75,0.15,1,0.44c0.26,0.3,0.39,0.68,0.39,1.14
		c0,0.49-0.19,0.88-0.56,1.18c-0.37,0.3-0.86,0.44-1.45,0.44H273.57z"/>
	<path fill="#7C8282" d="M282.15,215.67c-0.62,0-1.15-0.23-1.58-0.68c-0.44-0.45-0.66-0.99-0.66-1.6c0-0.64,0.23-1.17,0.68-1.58
		c0.45-0.41,0.97-0.62,1.57-0.62c0.59,0,1.11,0.21,1.57,0.62c0.45,0.41,0.68,0.94,0.68,1.58c0,0.62-0.22,1.15-0.66,1.6
		C283.3,215.45,282.77,215.67,282.15,215.67z M282.19,240.65c-0.49,0-0.89-0.15-1.2-0.44c-0.31-0.3-0.46-0.7-0.46-1.22v-17.82
		c0-0.51,0.15-0.92,0.46-1.22c0.31-0.3,0.71-0.44,1.2-0.44c0.49,0,0.88,0.15,1.18,0.44c0.3,0.3,0.44,0.7,0.44,1.22v17.82
		c0,0.52-0.15,0.92-0.44,1.22C283.07,240.5,282.68,240.65,282.19,240.65z"/>
	<path fill="#7C8282" d="M300.78,240.84c-2.04,0-3.85-0.47-5.45-1.41c-1.6-0.94-2.85-2.22-3.77-3.85c-0.92-1.62-1.37-3.45-1.37-5.49
		c0-2.06,0.44-3.9,1.33-5.53c0.89-1.62,2.1-2.91,3.63-3.85c1.53-0.94,3.31-1.41,5.32-1.41c1.55,0,2.98,0.3,4.29,0.91
		c1.31,0.61,2.47,1.51,3.48,2.73c0.31,0.36,0.42,0.73,0.33,1.1c-0.09,0.37-0.33,0.7-0.72,0.99c-0.31,0.21-0.65,0.28-1.02,0.21
		c-0.37-0.06-0.72-0.26-1.02-0.6c-1.42-1.6-3.2-2.4-5.33-2.4c-1.42,0-2.66,0.34-3.73,1.01c-1.07,0.67-1.9,1.59-2.49,2.76
		c-0.59,1.17-0.89,2.53-0.89,4.08c0,1.49,0.32,2.83,0.95,4c0.63,1.17,1.51,2.1,2.63,2.78c1.12,0.68,2.4,1.02,3.85,1.02
		c0.98,0,1.86-0.13,2.65-0.39c0.79-0.26,1.49-0.66,2.11-1.2c0.36-0.28,0.72-0.44,1.08-0.46c0.36-0.03,0.7,0.08,1.01,0.31
		c0.33,0.31,0.53,0.66,0.58,1.04c0.05,0.39-0.08,0.73-0.39,1.04C305.94,239.98,303.59,240.84,300.78,240.84z"/>
	<path fill="#7C8282" d="M324.09,240.84c-2.11,0-3.98-0.46-5.61-1.37c-1.62-0.91-2.9-2.18-3.83-3.81c-0.93-1.62-1.39-3.48-1.39-5.57
		c0-2.11,0.44-3.98,1.31-5.59c0.88-1.61,2.08-2.88,3.61-3.81c1.53-0.93,3.31-1.39,5.32-1.39c1.96,0,3.67,0.44,5.12,1.33
		c1.46,0.89,2.58,2.12,3.36,3.69c0.79,1.57,1.18,3.36,1.18,5.37c0,0.44-0.14,0.79-0.43,1.06c-0.28,0.27-0.64,0.41-1.08,0.41h-16.16
		v-2.67h16.35l-1.66,1.16c0.03-1.42-0.23-2.69-0.77-3.83c-0.54-1.13-1.31-2.02-2.32-2.67c-1.01-0.64-2.2-0.97-3.6-0.97
		c-1.47,0-2.75,0.34-3.85,1.01c-1.1,0.67-1.93,1.6-2.51,2.8c-0.58,1.2-0.87,2.56-0.87,4.08c0,1.52,0.33,2.87,1.01,4.06
		c0.67,1.19,1.59,2.11,2.76,2.78c1.17,0.67,2.52,1,4.04,1c0.88,0,1.77-0.15,2.69-0.46c0.91-0.31,1.64-0.7,2.18-1.16
		c0.31-0.23,0.66-0.35,1.06-0.37c0.4-0.01,0.73,0.1,0.99,0.33c0.39,0.34,0.59,0.7,0.6,1.08c0.01,0.39-0.16,0.72-0.52,1.01
		c-0.85,0.72-1.93,1.31-3.25,1.78C326.53,240.61,325.28,240.84,324.09,240.84z"/>
	<path fill="#7C8282" d="M339.82,240.65c-0.52,0-0.92-0.14-1.2-0.43c-0.28-0.28-0.43-0.68-0.43-1.2v-17.9c0-0.52,0.14-0.91,0.43-1.2
		c0.28-0.28,0.68-0.43,1.2-0.43c0.52,0,0.91,0.14,1.18,0.43c0.27,0.28,0.41,0.68,0.41,1.2v17.9c0,0.52-0.14,0.92-0.41,1.2
		C340.73,240.51,340.34,240.65,339.82,240.65z M339.63,227.54c0.05-1.57,0.46-2.98,1.22-4.23c0.76-1.25,1.77-2.24,3.02-2.96
		c1.25-0.72,2.62-1.08,4.12-1.08c1.31,0,2.31,0.19,3,0.58c0.68,0.39,0.93,0.91,0.75,1.58c-0.08,0.36-0.24,0.62-0.48,0.77
		c-0.25,0.15-0.53,0.23-0.85,0.23c-0.32,0-0.69-0.03-1.1-0.08c-1.52-0.18-2.87-0.08-4.04,0.29c-1.17,0.37-2.11,0.99-2.8,1.84
		c-0.7,0.85-1.04,1.87-1.04,3.05H339.63z"/>
	<path fill="#292927" d="M234.65,256.94c-0.22,0-0.39-0.06-0.51-0.19c-0.13-0.13-0.19-0.28-0.19-0.46c0-0.19,0.06-0.35,0.19-0.48
		c0.13-0.13,0.3-0.19,0.51-0.19h4.64c0.2,0,0.37,0.06,0.5,0.19c0.13,0.13,0.19,0.29,0.19,0.48c0,0.18-0.06,0.33-0.19,0.46
		c-0.13,0.13-0.29,0.19-0.5,0.19H234.65z M236.41,265.13c-0.19,0-0.36-0.07-0.5-0.21c-0.14-0.14-0.22-0.33-0.22-0.57v-9.06
		c0-0.85,0.15-1.6,0.45-2.24c0.3-0.64,0.74-1.13,1.33-1.49c0.58-0.35,1.28-0.53,2.08-0.53c0.23,0,0.41,0.07,0.56,0.2
		c0.14,0.13,0.22,0.29,0.22,0.49c0,0.2-0.07,0.37-0.22,0.51c-0.14,0.13-0.33,0.2-0.56,0.2c-0.5,0-0.93,0.12-1.28,0.35
		c-0.35,0.23-0.61,0.56-0.79,0.97c-0.18,0.41-0.27,0.89-0.27,1.43v9.16c0,0.24-0.07,0.43-0.21,0.57
		C236.86,265.06,236.67,265.13,236.41,265.13z"/>
	<path fill="#292927" d="M245.98,265.22c-0.97,0-1.84-0.22-2.59-0.65c-0.75-0.43-1.34-1.03-1.78-1.79
		c-0.43-0.76-0.65-1.62-0.65-2.58c0-0.97,0.22-1.84,0.65-2.6c0.43-0.76,1.03-1.35,1.78-1.79c0.75-0.43,1.61-0.65,2.59-0.65
		c0.96,0,1.82,0.22,2.56,0.65c0.75,0.43,1.34,1.03,1.77,1.79c0.43,0.76,0.66,1.62,0.67,2.6c0,0.96-0.22,1.82-0.65,2.58
		c-0.43,0.76-1.03,1.35-1.78,1.79C247.79,265,246.94,265.22,245.98,265.22z M245.98,263.85c0.67,0,1.27-0.16,1.8-0.48
		c0.53-0.32,0.94-0.75,1.24-1.3c0.3-0.55,0.45-1.17,0.45-1.87c0-0.7-0.15-1.32-0.45-1.88c-0.3-0.55-0.72-0.99-1.24-1.31
		c-0.53-0.32-1.13-0.48-1.8-0.48c-0.67,0-1.28,0.16-1.81,0.48c-0.54,0.32-0.96,0.75-1.26,1.31c-0.31,0.55-0.46,1.18-0.46,1.88
		c0,0.7,0.15,1.32,0.46,1.87c0.31,0.55,0.73,0.98,1.26,1.3C244.7,263.69,245.3,263.85,245.98,263.85z"/>
	<path fill="#292927" d="M254.44,265.13c-0.24,0-0.43-0.07-0.56-0.2c-0.13-0.13-0.2-0.32-0.2-0.56v-8.35c0-0.24,0.07-0.43,0.2-0.56
		c0.13-0.13,0.32-0.2,0.56-0.2c0.24,0,0.42,0.07,0.55,0.2c0.13,0.13,0.19,0.32,0.19,0.56v8.35c0,0.24-0.06,0.43-0.19,0.56
		C254.86,265.06,254.68,265.13,254.44,265.13z M254.35,259.01c0.02-0.73,0.21-1.39,0.57-1.98c0.35-0.58,0.82-1.04,1.41-1.38
		c0.58-0.34,1.22-0.5,1.92-0.5c0.61,0,1.08,0.09,1.4,0.27c0.32,0.18,0.44,0.43,0.35,0.74c-0.04,0.17-0.11,0.29-0.23,0.36
		c-0.11,0.07-0.25,0.11-0.4,0.11s-0.32-0.01-0.51-0.04c-0.71-0.08-1.34-0.04-1.89,0.14c-0.55,0.17-0.98,0.46-1.31,0.86
		c-0.32,0.4-0.49,0.87-0.49,1.43H254.35z"/>
</g>
</svg>
