<?xml version="1.0" encoding="utf-8"?>
<!-- Generator: Adobe Illustrator 24.3.0, SVG Export Plug-In . SVG Version: 6.00 Build 0)  -->
<svg version="1.1" id="레이어_1" xmlns="http://www.w3.org/2000/svg" xmlns:xlink="http://www.w3.org/1999/xlink" x="0px"
	 y="0px" viewBox="0 0 40 40" enable-background="new 0 0 40 40" xml:space="preserve">
<path fill="#009789" d="M27.9,34.9h-4.4c-0.5,0-0.8,0-1-0.4c-0.1-0.3,0.1-0.6,0.4-0.7c0.8-0.4,1.3-1.3,1.2-2.2
	c0-1.8,1.5-3.3,3.3-3.3c1.8,0,3.3,1.5,3.3,3.3C30.6,33.3,29.4,34.6,27.9,34.9L27.9,34.9z M24.3,33.9h3c1.2,0,2.3-1,2.3-2.3
	c0-1.2-1-2.3-2.3-2.3s-2.3,1-2.3,2.3C25.1,32.5,24.8,33.3,24.3,33.9z"/>
<path fill="#009789" d="M30.5,30.3l-0.8-0.5l4.4-6.9c0.1-0.1,0-0.2-0.1-0.3c-0.1-0.1-0.2,0-0.3,0l-5.4,6.6l-0.8-0.6l5.4-6.6
	c0.4-0.5,1.2-0.6,1.7-0.2c0.5,0.4,0.6,1.1,0.3,1.6L30.5,30.3z"/>
<path fill="#B6B6B6" d="M33.5,35h-1c-0.3,0-0.5-0.2-0.5-0.5s0.2-0.5,0.5-0.5h1c0.3,0,0.5-0.2,0.5-0.5v-5c0-0.3,0.2-0.5,0.5-0.5
	s0.5,0.2,0.5,0.5v5C35,34.3,34.3,35,33.5,35z"/>
<path fill="#B6B6B6" d="M19.5,35h-14C4.7,35,4,34.3,4,33.5v-28C4,4.7,4.7,4,5.5,4h28C34.3,4,35,4.7,35,5.5v13c0,0.3-0.2,0.5-0.5,0.5
	S34,18.8,34,18.5v-13C34,5.2,33.8,5,33.5,5h-28C5.2,5,5,5.2,5,5.5v28C5,33.8,5.2,34,5.5,34h14c0.3,0,0.5,0.2,0.5,0.5
	S19.8,35,19.5,35z"/>
<g>
	<g>
		<polyline fill="none" stroke="#009789" stroke-miterlimit="10" points="27.4,24.9 27.4,25.9 26.4,25.9 		"/>
		
			<line fill="none" stroke="#009789" stroke-miterlimit="10" stroke-dasharray="1.9107,1.9107" x1="24.5" y1="25.9" x2="10.1" y2="25.9"/>
		<polyline fill="none" stroke="#009789" stroke-miterlimit="10" points="9.2,25.9 8.2,25.9 8.2,24.9 		"/>
		
			<line fill="none" stroke="#009789" stroke-miterlimit="10" stroke-dasharray="1.786,1.786" x1="8.2" y1="23.1" x2="8.2" y2="9.7"/>
		<polyline fill="none" stroke="#009789" stroke-miterlimit="10" points="8.2,8.8 8.2,7.8 9.2,7.8 		"/>
		
			<line fill="none" stroke="#009789" stroke-miterlimit="10" stroke-dasharray="1.9107,1.9107" x1="11.1" y1="7.8" x2="25.4" y2="7.8"/>
		<polyline fill="none" stroke="#009789" stroke-miterlimit="10" points="26.4,7.8 27.4,7.8 27.4,8.8 		"/>
		
			<line fill="none" stroke="#009789" stroke-miterlimit="10" stroke-dasharray="1.786,1.786" x1="27.4" y1="10.6" x2="27.4" y2="24"/>
	</g>
</g>
</svg>
