<?xml version="1.0" encoding="utf-8"?>
<!-- Generator: Adobe Illustrator 24.3.0, SVG Export Plug-In . SVG Version: 6.00 Build 0)  -->
<svg version="1.1" id="레이어_1" xmlns="http://www.w3.org/2000/svg" xmlns:xlink="http://www.w3.org/1999/xlink" x="0px"
	 y="0px" viewBox="0 0 64 64" style="enable-background:new 0 0 64 64;" xml:space="preserve">
<style type="text/css">
	.st0{fill:#CECECE;}
	.st1{fill-rule:evenodd;clip-rule:evenodd;fill:#7F7F7F;}
	.st2{fill-rule:evenodd;clip-rule:evenodd;fill:#292927;}
	.st3{fill-rule:evenodd;clip-rule:evenodd;fill:#019687;}
	.st4{fill-rule:evenodd;clip-rule:evenodd;fill:#FFFFFF;}
	.st5{fill:none;stroke:#000000;stroke-width:0.1;stroke-linecap:round;stroke-linejoin:round;stroke-miterlimit:10;}
</style>
<g>
	<path class="st0" d="M17.73,0h28.54C56.06,0,64,7.94,64,17.73v28.54C64,56.06,56.06,64,46.27,64H17.73C7.94,64,0,56.06,0,46.27
		V17.73C0,7.94,7.94,0,17.73,0z"/>
	<polygon class="st1" points="25.27,41.56 20.04,50.62 19.54,50.29 19.06,49.95 18.59,49.59 18.12,49.22 17.67,48.84 17.23,48.44 
		16.79,48.04 16.37,47.62 15.96,47.19 15.56,46.75 15.18,46.3 14.8,45.84 14.44,45.37 14.09,44.89 13.75,44.4 13.43,43.91 
		13.12,43.4 12.82,42.89 12.54,42.36 12.27,41.83 12.02,41.3 11.78,40.75 11.56,40.21 11.35,39.65 11.15,39.09 10.97,38.52 
		10.81,37.95 10.66,37.38 10.53,36.8 10.41,36.22 10.3,35.64 10.22,35.05 10.15,34.46 10.09,33.87 10.05,33.28 10.03,32.68 
		10.02,32.09 10.03,31.5 10.05,30.9 10.09,30.31 10.15,29.72 10.22,29.13 10.31,28.55 10.41,27.96 10.53,27.38 10.67,26.8 
		10.82,26.23 10.98,25.66 11.16,25.09 11.36,24.53 11.57,23.98 11.79,23.43 12.03,22.89 12.29,22.35 12.56,21.82 12.84,21.3 
		13.14,20.78 13.45,20.28 13.77,19.78 14.11,19.29 14.46,18.81 14.82,18.34 15.2,17.88 15.58,17.44 15.98,17 16.39,16.57 
		16.81,16.15 17.25,15.75 17.69,15.35 18.15,14.97 18.61,14.6 19.09,14.24 19.57,13.9 20.06,13.57 20.56,13.25 21.07,12.95 
		21.59,12.66 22.12,12.38 22.65,12.12 23.19,11.87 23.73,11.64 24.28,11.42 24.84,11.22 25.4,11.03 25.97,10.86 26.54,10.7 
		27.12,10.56 27.7,10.43 28.28,10.32 28.87,10.22 29.46,10.14 30.05,10.08 30.64,10.03 31.23,10 31.82,9.98 32.42,9.98 33.01,9.99 
		33.6,10.02 34.19,10.07 34.78,10.13 35.37,10.21 35.96,10.31 36.54,10.42 37.12,10.54 37.7,10.68 38.27,10.84 38.84,11.01 
		39.4,11.2 39.96,11.4 40.51,11.62 41.06,11.85 41.6,12.1 42.13,12.36 39.05,17.69 38.74,17.55 38.43,17.41 38.11,17.28 
		37.78,17.15 37.45,17.03 37.12,16.92 36.78,16.81 36.43,16.71 36.08,16.62 35.73,16.53 35.37,16.46 35.01,16.39 34.65,16.32 
		34.28,16.27 33.91,16.22 33.53,16.19 33.15,16.16 32.78,16.14 32.4,16.13 32.01,16.13 31.63,16.14 31.24,16.15 30.86,16.18 
		30.47,16.22 30.09,16.26 29.7,16.32 29.32,16.38 28.94,16.45 28.56,16.54 28.18,16.63 27.8,16.73 27.42,16.84 27.05,16.96 
		26.68,17.09 26.32,17.23 25.95,17.38 25.6,17.53 25.24,17.7 24.89,17.87 24.55,18.05 24.21,18.24 23.88,18.43 23.55,18.64 
		23.23,18.85 22.92,19.06 22.61,19.29 22.31,19.52 22.01,19.75 21.73,20 21.44,20.24 21.17,20.5 20.91,20.75 20.65,21.02 
		20.4,21.28 20.15,21.55 19.92,21.83 19.69,22.1 19.47,22.38 19.26,22.67 19.05,22.95 18.86,23.24 18.67,23.53 18.49,23.82 
		18.31,24.12 18.15,24.41 17.99,24.71 17.83,25.02 17.68,25.32 17.54,25.63 17.41,25.95 17.29,26.27 17.17,26.59 17.06,26.91 
		16.96,27.24 16.86,27.57 16.78,27.9 16.7,28.23 16.64,28.57 16.58,28.91 16.53,29.24 16.5,29.58 16.47,29.92 16.45,30.26 
		16.45,30.6 16.45,30.94 16.46,31.28 16.49,31.62 16.52,31.95 16.57,32.29 16.63,32.62 16.69,32.95 16.77,33.28 16.86,33.61 
		16.96,33.93 17.07,34.25 17.19,34.57 17.32,34.88 17.46,35.19 17.61,35.49 17.77,35.79 17.94,36.08 18.12,36.37 18.31,36.66 
		18.51,36.93 18.72,37.21 18.94,37.47 19.16,37.73 19.39,37.99 19.63,38.23 19.88,38.47 20.14,38.7 20.4,38.93 20.67,39.15 
		20.94,39.36 21.23,39.57 21.51,39.76 21.8,39.95 22.1,40.14 22.4,40.31 22.71,40.48 23.02,40.64 23.33,40.79 23.65,40.94 
		23.97,41.08 24.29,41.21 24.62,41.33 24.94,41.45 	"/>
	<polygon class="st1" points="39.03,22.65 44.26,13.59 44.75,13.92 45.24,14.26 45.71,14.62 46.18,14.99 46.63,15.37 47.07,15.77 
		47.51,16.17 47.93,16.59 48.34,17.02 48.74,17.46 49.12,17.91 49.5,18.37 49.86,18.84 50.21,19.32 50.55,19.81 50.87,20.3 
		51.18,20.81 51.47,21.32 51.76,21.85 52.02,22.38 52.28,22.91 52.52,23.46 52.74,24 52.95,24.56 53.15,25.12 53.33,25.69 
		53.49,26.26 53.64,26.83 53.77,27.41 53.89,27.99 53.99,28.57 54.08,29.16 54.15,29.75 54.21,30.34 54.25,30.93 54.27,31.53 
		54.28,32.12 54.27,32.71 54.25,33.31 54.21,33.9 54.15,34.49 54.08,35.08 53.99,35.66 53.89,36.25 53.77,36.83 53.63,37.41 
		53.48,37.98 53.32,38.55 53.14,39.12 52.94,39.68 52.73,40.23 52.51,40.78 52.27,41.32 52.01,41.86 51.74,42.39 51.46,42.91 
		51.16,43.43 50.85,43.93 50.53,44.43 50.19,44.92 49.84,45.4 49.48,45.87 49.1,46.33 48.72,46.77 48.32,47.21 47.91,47.64 
		47.48,48.06 47.05,48.46 46.61,48.86 46.15,49.24 45.69,49.61 45.21,49.97 44.73,50.31 44.24,50.64 43.74,50.96 43.23,51.26 
		42.71,51.55 42.18,51.83 41.65,52.09 41.11,52.34 40.57,52.57 40.01,52.79 39.46,52.99 38.89,53.18 38.33,53.35 37.75,53.51 
		37.18,53.65 36.6,53.78 36.02,53.89 35.43,53.99 34.84,54.07 34.25,54.13 33.66,54.18 33.07,54.21 32.48,54.23 31.88,54.23 
		31.29,54.22 30.7,54.19 30.1,54.14 29.51,54.08 28.93,54 28.34,53.9 27.76,53.79 27.18,53.67 26.6,53.53 26.03,53.37 25.46,53.2 
		24.9,53.01 24.34,52.81 23.79,52.59 23.24,52.36 22.7,52.12 22.17,51.85 25.25,46.52 25.56,46.66 25.87,46.8 26.19,46.93 
		26.52,47.06 26.85,47.18 27.18,47.29 27.52,47.4 27.87,47.5 28.22,47.59 28.57,47.68 28.93,47.75 29.29,47.82 29.65,47.89 
		30.02,47.94 30.39,47.99 30.77,48.02 31.14,48.05 31.52,48.07 31.9,48.08 32.29,48.08 32.67,48.07 33.05,48.06 33.44,48.03 
		33.83,47.99 34.21,47.95 34.6,47.89 34.98,47.83 35.36,47.76 35.74,47.67 36.12,47.58 36.5,47.48 36.88,47.37 37.25,47.25 
		37.62,47.12 37.98,46.98 38.35,46.83 38.7,46.68 39.06,46.51 39.4,46.34 39.75,46.16 40.09,45.97 40.42,45.78 40.75,45.57 
		41.07,45.36 41.38,45.15 41.69,44.92 41.99,44.69 42.29,44.46 42.57,44.21 42.85,43.97 43.13,43.71 43.39,43.46 43.65,43.19 
		43.9,42.93 44.15,42.66 44.38,42.38 44.61,42.11 44.83,41.83 45.04,41.54 45.25,41.26 45.44,40.97 45.63,40.68 45.81,40.39 
		45.99,40.09 46.15,39.8 46.31,39.5 46.47,39.19 46.62,38.89 46.76,38.58 46.89,38.26 47.01,37.94 47.13,37.62 47.24,37.3 
		47.34,36.97 47.44,36.64 47.52,36.31 47.6,35.98 47.66,35.64 47.72,35.3 47.76,34.97 47.8,34.63 47.83,34.29 47.85,33.95 
		47.85,33.61 47.85,33.27 47.84,32.93 47.81,32.59 47.78,32.26 47.73,31.92 47.67,31.59 47.61,31.26 47.53,30.93 47.44,30.6 
		47.34,30.28 47.23,29.96 47.11,29.64 46.98,29.33 46.84,29.02 46.69,28.72 46.53,28.42 46.36,28.13 46.18,27.84 45.99,27.55 
		45.79,27.28 45.58,27 45.36,26.74 45.14,26.48 44.91,26.22 44.67,25.98 44.42,25.74 44.16,25.51 43.9,25.28 43.63,25.06 
		43.35,24.85 43.07,24.64 42.79,24.45 42.49,24.26 42.2,24.07 41.9,23.9 41.59,23.73 41.28,23.57 40.97,23.42 40.65,23.27 
		40.33,23.13 40.01,23 39.68,22.88 39.36,22.76 	"/>
	<g id="HATCH_8_">
		<path class="st2" d="M39.03,22.65L25.25,46.52l0.31,0.14l0.31,0.14l0.32,0.13l0.33,0.13l0.33,0.12l0.34,0.11l0.34,0.11l0.34,0.1
			l0.35,0.09l0.35,0.09l0.36,0.08l0.36,0.07l0.36,0.06l0.37,0.05l0.37,0.05l0.37,0.04l0.38,0.03l0.38,0.02l0.38,0.01l0.38,0
			l0.38-0.01l0.38-0.02l0.39-0.03l0.39-0.04l0.39-0.05l0.38-0.05l0.38-0.06l0.38-0.07l0.38-0.08l0.38-0.09l0.38-0.1l0.38-0.11
			l0.37-0.12l0.37-0.13l0.37-0.14l0.36-0.15l0.36-0.16l0.35-0.16l0.35-0.17l0.34-0.18l0.34-0.19l0.33-0.2l0.33-0.2l0.32-0.21
			l0.31-0.22l0.31-0.22l0.3-0.23l0.29-0.24l0.29-0.24l0.28-0.25l0.27-0.25l0.27-0.26l0.26-0.26l0.25-0.27l0.24-0.27l0.24-0.27
			l0.23-0.28l0.22-0.28l0.21-0.28l0.2-0.29l0.2-0.29l0.19-0.29l0.18-0.29l0.17-0.29l0.17-0.3l0.16-0.3l0.15-0.3l0.15-0.31l0.14-0.31
			l0.13-0.31l0.13-0.32l0.12-0.32l0.11-0.32l0.1-0.33l0.09-0.33l0.08-0.33l0.08-0.33l0.07-0.34l0.06-0.34l0.05-0.34l0.04-0.34
			l0.03-0.34l0.02-0.34l0.01-0.34l0-0.34l-0.01-0.34l-0.02-0.34l-0.04-0.34l-0.05-0.34l-0.06-0.33l-0.07-0.33l-0.08-0.33l-0.09-0.33
			l-0.1-0.32l-0.11-0.32l-0.12-0.32l-0.13-0.31l-0.14-0.31l-0.15-0.3l-0.16-0.3l-0.17-0.29l-0.18-0.29l-0.19-0.28l-0.2-0.28
			L45.58,27l-0.22-0.27l-0.22-0.26l-0.23-0.25l-0.24-0.25l-0.25-0.24l-0.26-0.23l-0.26-0.23l-0.27-0.22l-0.28-0.21l-0.28-0.2
			l-0.29-0.2l-0.29-0.19l-0.3-0.18l-0.3-0.18l-0.31-0.17l-0.31-0.16l-0.31-0.15l-0.32-0.15l-0.32-0.14L40.01,23l-0.32-0.12
			l-0.33-0.12L39.03,22.65z M31.56,43.88l-0.01-0.02l-0.01-0.02l-0.01-0.02l-0.01-0.02l-0.01-0.02l-0.01-0.02l-0.01-0.02l-0.01-0.02
			l-0.01-0.02l-0.01-0.02l-0.01-0.02l-0.01-0.02l-0.01-0.02l-0.01-0.02l-0.01-0.03l-0.01-0.03l-0.01-0.03l-0.01-0.03l-0.01-0.03
			l-0.01-0.03l-0.01-0.03l-0.01-0.03l-0.01-0.03l0-0.03l0-0.03l0-0.03l0-0.03l0-0.03l0-0.03l0-0.03l0-0.06l0-0.06l0-0.06l0-0.07
			l0.01-0.07l0.01-0.07l0.01-0.07l0.01-0.07l0.02-0.07l0.02-0.07l0.02-0.07l0.02-0.07l0.03-0.07l0.03-0.07l0.03-0.07l0.03-0.07
			l0.03-0.08l0.04-0.08l0.04-0.08l0.04-0.08l0.04-0.08l0.04-0.08l0.05-0.08l0.05-0.08l0.05-0.08l0.05-0.08l0.05-0.07l0.11-0.15
			l0.12-0.15l0.12-0.14l0.13-0.14l0.13-0.14l0.13-0.13l0.14-0.13l0.14-0.12l0.14-0.12l0.14-0.11l0.14-0.11l0.14-0.1l0.15-0.1
			l0.15-0.1l0.16-0.1l0.16-0.09l0.17-0.09l0.17-0.08l0.17-0.08l0.17-0.07l0.17-0.07l0.17-0.06l0.09-0.03l0.09-0.03l0.09-0.02
			l0.09-0.02l0.09-0.02l0.09-0.02l0.09-0.02l0.08-0.02l0.08-0.01l0.08-0.01l0.08-0.01l0.08-0.01l0.08-0.01l0.08,0l0.08,0l0.08,0
			l0.07,0l0.07,0l0.07,0.01l0.07,0.01l0.07,0.01l0.07,0.01l0.07,0.01l0.06,0.02l0.06,0.02l0.06,0.02l0.06,0.02l0.03,0.01l0.03,0.01
			l0.03,0.01l0.03,0.01l0.03,0.01l0.03,0.01l0.03,0.01l0.03,0.01l0.02,0.01l0.02,0.01l0.02,0.01l0.02,0.01l0.02,0.02l0.02,0.02
			l0.02,0.02l0.02,0.02l0.02,0.02l0.02,0.02l0.02,0.02L37.81,39l0.02,0.02l0.02,0.02l0.02,0.02l0.02,0.02l0.02,0.02l0.02,0.02
			l0.02,0.02l0.02,0.02l0.02,0.02l0.01,0.02l0.01,0.02l0.01,0.02l0.01,0.02l0.01,0.02l0.01,0.02l0.01,0.02l0.01,0.02l0.01,0.02
			l0.01,0.02l0.01,0.02l0.01,0.02l0.01,0.02l0.01,0.02l0.01,0.02l0.01,0.03l0.01,0.03l0.01,0.03l0.01,0.03l0.01,0.03l0.01,0.03
			l0.01,0.03l0.01,0.03l0.01,0.03l0,0.03l0,0.03l0,0.03l0,0.03l0,0.03l0,0.03l0,0.03l0,0.06l0,0.06l0,0.06l0,0.07l-0.01,0.07
			l-0.01,0.07l-0.01,0.07l-0.01,0.07l-0.02,0.07l-0.02,0.07l-0.02,0.07l-0.02,0.07l-0.03,0.07l-0.03,0.07l-0.03,0.07l-0.03,0.07
			l-0.03,0.08l-0.04,0.08l-0.04,0.08l-0.04,0.08l-0.04,0.08l-0.04,0.08l-0.05,0.08l-0.05,0.08l-0.05,0.08l-0.05,0.08l-0.05,0.07
			l-0.11,0.15l-0.12,0.15l-0.12,0.14l-0.13,0.14l-0.13,0.14l-0.13,0.13l-0.14,0.13l-0.14,0.12l-0.14,0.12l-0.14,0.11l-0.14,0.11
			l-0.14,0.1l-0.15,0.1l-0.15,0.1l-0.16,0.1l-0.16,0.09l-0.17,0.09l-0.17,0.08l-0.17,0.08l-0.17,0.07l-0.17,0.07l-0.17,0.06
			l-0.09,0.03L34.1,44.3l-0.09,0.02l-0.09,0.02l-0.09,0.02l-0.09,0.02l-0.09,0.02l-0.08,0.02l-0.08,0.01l-0.08,0.01l-0.08,0.01
			l-0.08,0.01l-0.08,0.01l-0.08,0l-0.08,0l-0.08,0l-0.07,0l-0.07,0l-0.07-0.01l-0.07-0.01l-0.07-0.01l-0.07-0.01l-0.07-0.01
			l-0.06-0.02l-0.06-0.02l-0.06-0.02l-0.06-0.02l-0.03-0.01l-0.03-0.01l-0.03-0.01l-0.03-0.01l-0.03-0.01l-0.03-0.01l-0.03-0.01
			l-0.03-0.01l-0.02-0.01l-0.02-0.01l-0.02-0.01l-0.02-0.01l-0.02-0.02l-0.02-0.02l-0.02-0.02l-0.02-0.02l-0.02-0.02l-0.02-0.02
			l-0.02-0.02l-0.02-0.02l-0.02-0.02l-0.02-0.02l-0.02-0.02l-0.02-0.02l-0.02-0.02l-0.02-0.02l-0.02-0.02l-0.02-0.02l-0.02-0.02
			L31.56,43.88z"/>
	</g>
	<g id="HATCH_7_">
		<polygon class="st2" points="25.27,41.56 39.05,17.69 38.74,17.55 38.43,17.41 38.11,17.28 37.78,17.15 37.45,17.03 37.12,16.92 
			36.78,16.81 36.43,16.71 36.08,16.62 35.73,16.53 35.37,16.46 35.01,16.39 34.65,16.32 34.28,16.27 33.91,16.22 33.53,16.19 
			33.15,16.16 32.78,16.14 32.4,16.13 32.01,16.13 31.63,16.14 31.24,16.15 30.86,16.18 30.47,16.22 30.09,16.26 29.7,16.32 
			29.32,16.38 28.94,16.45 28.56,16.54 28.18,16.63 27.8,16.73 27.42,16.84 27.05,16.96 26.68,17.09 26.32,17.23 25.95,17.38 
			25.6,17.53 25.24,17.7 24.89,17.87 24.55,18.05 24.21,18.24 23.88,18.43 23.55,18.64 23.23,18.85 22.92,19.06 22.61,19.29 
			22.31,19.52 22.01,19.75 21.73,20 21.44,20.24 21.17,20.5 20.91,20.75 20.65,21.02 20.4,21.28 20.15,21.55 19.92,21.83 
			19.69,22.1 19.47,22.38 19.26,22.67 19.05,22.95 18.86,23.24 18.67,23.53 18.49,23.82 18.31,24.12 18.15,24.41 17.99,24.71 
			17.83,25.02 17.68,25.32 17.54,25.63 17.41,25.95 17.29,26.27 17.17,26.59 17.06,26.91 16.96,27.24 16.86,27.57 16.78,27.9 
			16.7,28.23 16.64,28.57 16.58,28.91 16.53,29.24 16.5,29.58 16.47,29.92 16.45,30.26 16.45,30.6 16.45,30.94 16.46,31.28 
			16.49,31.62 16.52,31.95 16.57,32.29 16.63,32.62 16.69,32.95 16.77,33.28 16.86,33.61 16.96,33.93 17.07,34.25 17.19,34.57 
			17.32,34.88 17.46,35.19 17.61,35.49 17.77,35.79 17.94,36.08 18.12,36.37 18.31,36.66 18.51,36.93 18.72,37.21 18.94,37.47 
			19.16,37.73 19.39,37.99 19.63,38.23 19.88,38.47 20.14,38.7 20.4,38.93 20.67,39.15 20.94,39.36 21.23,39.57 21.51,39.76 
			21.8,39.95 22.1,40.14 22.4,40.31 22.71,40.48 23.02,40.64 23.33,40.79 23.65,40.94 23.97,41.08 24.29,41.21 24.62,41.33 
			24.94,41.45 		"/>
	</g>
	<g id="HATCH_6_">
		<polygon class="st3" points="41.18,18.92 40.77,18.65 40.35,18.39 39.92,18.15 39.49,17.91 39.05,17.69 23.12,45.29 23.53,45.56 
			23.95,45.82 24.37,46.06 24.81,46.3 25.25,46.52 		"/>
	</g>
	<g id="HATCH_5_">
		<polygon class="st4" points="31.56,43.88 31.54,43.86 31.53,43.84 31.51,43.82 31.5,43.79 31.49,43.77 31.48,43.75 31.46,43.73 
			31.45,43.71 31.44,43.68 31.43,43.66 31.42,43.64 31.41,43.61 31.4,43.59 31.39,43.56 31.38,43.54 31.37,43.51 31.36,43.49 
			31.36,43.46 31.35,43.43 31.34,43.41 31.34,43.38 31.33,43.35 31.33,43.32 31.32,43.3 31.32,43.27 31.31,43.24 31.31,43.21 
			31.31,43.18 31.31,43.15 31.3,43.12 31.3,43.06 31.3,42.99 31.31,42.93 31.31,42.86 31.32,42.8 31.33,42.73 31.34,42.66 
			31.35,42.59 31.37,42.52 31.39,42.45 31.41,42.38 31.43,42.31 31.46,42.23 31.48,42.16 31.51,42.08 31.54,42.01 31.58,41.93 
			31.61,41.86 31.65,41.78 31.69,41.71 31.74,41.63 31.78,41.55 31.83,41.48 31.87,41.4 31.92,41.33 31.97,41.25 32.03,41.18 
			32.14,41.03 32.26,40.88 32.38,40.74 32.51,40.6 32.64,40.47 32.77,40.34 32.91,40.21 33.05,40.09 33.19,39.97 33.33,39.86 
			33.47,39.75 33.61,39.65 33.76,39.55 33.92,39.45 34.08,39.36 34.24,39.26 34.4,39.18 34.57,39.09 34.74,39.01 34.92,38.94 
			35.09,38.87 35.26,38.81 35.35,38.78 35.44,38.76 35.53,38.73 35.61,38.71 35.7,38.69 35.78,38.67 35.87,38.65 35.95,38.64 
			36.04,38.62 36.12,38.61 36.2,38.6 36.28,38.6 36.36,38.59 36.44,38.59 36.52,38.58 36.6,38.59 36.67,38.59 36.74,38.59 
			36.82,38.6 36.89,38.61 36.96,38.62 37.02,38.63 37.09,38.64 37.15,38.66 37.22,38.67 37.28,38.69 37.33,38.71 37.36,38.72 
			37.39,38.73 37.42,38.75 37.44,38.76 37.47,38.77 37.5,38.78 37.52,38.8 37.55,38.81 37.57,38.82 37.6,38.84 37.62,38.85 
			37.64,38.87 37.67,38.88 37.69,38.9 37.71,38.91 37.73,38.93 37.75,38.94 37.77,38.96 37.79,38.98 37.81,39 37.83,39.01 
			37.85,39.03 37.87,39.05 37.88,39.07 37.9,39.08 37.92,39.1 37.93,39.12 37.95,39.14 37.96,39.16 37.98,39.18 37.99,39.2 
			38.01,39.22 38.02,39.24 38.03,39.26 38.05,39.28 38.06,39.3 38.07,39.33 38.08,39.35 38.09,39.37 38.1,39.4 38.11,39.42 
			38.12,39.44 38.13,39.47 38.14,39.49 38.15,39.52 38.16,39.54 38.17,39.57 38.18,39.59 38.18,39.62 38.19,39.65 38.2,39.68 
			38.2,39.7 38.21,39.73 38.21,39.76 38.22,39.79 38.22,39.82 38.22,39.85 38.23,39.88 38.23,39.91 38.23,39.94 38.23,40 
			38.23,40.06 38.23,40.13 38.22,40.19 38.22,40.26 38.21,40.33 38.2,40.39 38.18,40.46 38.17,40.53 38.15,40.61 38.13,40.68 
			38.1,40.75 38.08,40.82 38.05,40.9 38.02,40.97 37.99,41.05 37.96,41.12 37.92,41.2 37.88,41.27 37.84,41.35 37.8,41.43 
			37.75,41.5 37.71,41.58 37.66,41.65 37.61,41.73 37.56,41.8 37.51,41.88 37.39,42.03 37.28,42.17 37.16,42.31 37.03,42.45 
			36.9,42.59 36.76,42.72 36.63,42.85 36.49,42.97 36.35,43.08 36.21,43.2 36.06,43.3 35.92,43.41 35.77,43.51 35.62,43.61 
			35.46,43.7 35.3,43.79 35.13,43.88 34.96,43.96 34.79,44.04 34.62,44.12 34.44,44.18 34.27,44.24 34.18,44.27 34.1,44.3 
			34.01,44.32 33.92,44.35 33.84,44.37 33.75,44.39 33.67,44.4 33.58,44.42 33.5,44.43 33.41,44.44 33.33,44.45 33.25,44.46 
			33.17,44.47 33.09,44.47 33.01,44.47 32.94,44.47 32.86,44.47 32.79,44.46 32.72,44.46 32.65,44.45 32.58,44.44 32.51,44.43 
			32.44,44.42 32.38,44.4 32.32,44.38 32.26,44.36 32.2,44.34 32.17,44.33 32.14,44.32 32.12,44.31 32.09,44.3 32.06,44.29 
			32.04,44.27 32.01,44.26 31.99,44.25 31.96,44.23 31.94,44.22 31.91,44.2 31.89,44.19 31.87,44.17 31.85,44.16 31.82,44.14 
			31.8,44.13 31.78,44.11 31.76,44.09 31.74,44.08 31.72,44.06 31.7,44.04 31.69,44.03 31.67,44.01 31.65,43.99 31.63,43.97 
			31.62,43.95 31.6,43.93 31.59,43.91 31.57,43.9 		"/>
	</g>
	<g>
		<g id="LINE_5_">
			<line class="st5" x1="42.13" y1="12.36" x2="20.04" y2="50.62"/>
		</g>
		<g id="ARC_5_">
			<path class="st5" d="M20.04,50.62c-9.43-6.17-12.72-18.44-7.64-28.5c5.51-10.91,18.82-15.28,29.73-9.77"/>
		</g>
		<g id="LINE_4_">
			<line class="st5" x1="44.26" y1="13.59" x2="22.17" y2="51.85"/>
		</g>
		<g id="ARC_4_">
			<path class="st5" d="M22.17,51.85c10.91,5.51,24.22,1.14,29.73-9.77c5.08-10.06,1.8-22.33-7.64-28.5"/>
		</g>
	</g>
</g>
</svg>
