<?xml version="1.0" encoding="utf-8"?>
<!-- Generator: Adobe Illustrator 24.3.0, SVG Export Plug-In . SVG Version: 6.00 Build 0)  -->
<svg version="1.1" xmlns="http://www.w3.org/2000/svg" xmlns:xlink="http://www.w3.org/1999/xlink" x="0px" y="0px"
	 viewBox="0 0 480 480" style="enable-background:new 0 0 480 480;" xml:space="preserve">
<style type="text/css">
	.st0{fill-rule:evenodd;clip-rule:evenodd;fill:#7F7F7F;}
	.st1{fill-rule:evenodd;clip-rule:evenodd;fill:#292927;}
	.st2{fill-rule:evenodd;clip-rule:evenodd;fill:#019687;}
	.st3{fill-rule:evenodd;clip-rule:evenodd;fill:#FFFFFF;}
	.st4{fill:none;stroke:#000000;stroke-width:0.25;stroke-miterlimit:10;}
	.st5{fill:#019687;}
	.st6{font-family:'Comfortaa-Medium';}
	.st7{font-size:60px;}
	.st8{fill:#7C8282;}
	.st9{fill:#292927;}
	.st10{font-size:28px;}
</style>
<g id="레이어_1">
</g>
<g id="레이어_2">
	<g>
		<g>
			<polygon class="st0" points="268.53,99.88 294.08,55.65 296.48,57.26 298.84,58.94 301.15,60.69 303.41,62.49 305.63,64.36 
				307.79,66.28 309.9,68.26 311.96,70.3 313.96,72.39 315.91,74.54 317.79,76.73 319.62,78.98 321.39,81.27 323.09,83.61 
				324.73,86 326.31,88.42 327.82,90.89 329.27,93.4 330.64,95.95 331.95,98.53 333.19,101.15 334.36,103.8 335.45,106.48 
				336.48,109.19 337.43,111.92 338.3,114.68 339.11,117.46 339.83,120.27 340.49,123.09 341.06,125.93 341.56,128.78 
				341.99,131.64 342.33,134.52 342.6,137.4 342.79,140.29 342.91,143.18 342.95,146.08 342.91,148.97 342.79,151.86 342.59,154.75 
				342.32,157.63 341.97,160.51 341.54,163.37 341.04,166.22 340.46,169.06 339.8,171.88 339.07,174.68 338.26,177.46 
				337.38,180.22 336.43,182.95 335.4,185.66 334.3,188.34 333.13,190.99 331.89,193.6 330.58,196.18 329.2,198.73 327.75,201.24 
				326.23,203.7 324.65,206.13 323.01,208.51 321.3,210.85 319.53,213.14 317.7,215.39 315.81,217.58 313.86,219.72 311.86,221.81 
				309.8,223.84 307.68,225.82 305.52,227.74 303.3,229.61 301.03,231.41 298.72,233.15 296.36,234.83 293.96,236.44 291.51,237.99 
				289.02,239.47 286.5,240.89 283.94,242.23 281.34,243.51 278.71,244.72 276.04,245.86 273.35,246.92 270.63,247.92 
				267.89,248.83 265.12,249.68 262.33,250.45 259.52,251.15 256.69,251.77 253.84,252.31 250.99,252.78 248.12,253.17 
				245.24,253.48 242.35,253.72 239.46,253.88 236.57,253.96 233.67,253.96 230.78,253.89 227.89,253.74 225,253.51 222.12,253.2 
				219.25,252.82 216.39,252.36 213.55,251.82 210.72,251.21 207.91,250.52 205.11,249.76 202.34,248.92 199.59,248.01 
				196.87,247.02 194.18,245.97 191.51,244.84 188.88,243.64 186.27,242.36 201.31,216.32 202.82,217.02 204.35,217.69 
				205.91,218.34 207.5,218.96 209.11,219.54 210.74,220.1 212.4,220.62 214.09,221.11 215.79,221.56 217.51,221.98 219.26,222.36 
				221.02,222.7 222.8,223.01 224.6,223.27 226.41,223.49 228.24,223.67 230.07,223.81 231.92,223.9 233.78,223.95 235.64,223.96 
				237.52,223.92 239.39,223.84 241.27,223.71 243.15,223.53 245.03,223.31 246.91,223.04 248.78,222.73 250.65,222.37 
				252.51,221.96 254.37,221.51 256.21,221.01 258.04,220.47 259.86,219.89 261.66,219.25 263.44,218.58 265.21,217.86 
				266.95,217.1 268.68,216.3 270.38,215.46 272.05,214.58 273.7,213.66 275.33,212.71 276.92,211.72 278.49,210.69 280.02,209.63 
				281.53,208.54 283,207.42 284.43,206.26 285.84,205.08 287.21,203.88 288.54,202.65 289.84,201.39 291.1,200.11 292.33,198.81 
				293.51,197.49 294.66,196.16 295.77,194.8 296.85,193.43 297.88,192.05 298.88,190.66 299.84,189.25 300.76,187.84 
				301.64,186.41 302.49,184.98 303.3,183.54 304.09,182.08 304.84,180.59 305.56,179.09 306.24,177.57 306.89,176.04 307.5,174.48 
				308.08,172.92 308.61,171.34 309.11,169.74 309.56,168.14 309.97,166.52 310.34,164.89 310.66,163.26 310.94,161.62 
				311.16,159.97 311.35,158.32 311.48,156.66 311.56,155 311.59,153.35 311.58,151.69 311.51,150.04 311.39,148.39 311.22,146.75 
				310.99,145.11 310.72,143.48 310.39,141.87 310.01,140.26 309.58,138.67 309.09,137.09 308.56,135.53 307.97,133.99 
				307.33,132.47 306.65,130.96 305.91,129.48 305.13,128.02 304.29,126.59 303.41,125.18 302.49,123.79 301.52,122.44 
				300.5,121.11 299.45,119.82 298.35,118.55 297.22,117.31 296.04,116.11 294.83,114.94 293.58,113.8 292.3,112.7 290.99,111.63 
				289.65,110.6 288.28,109.6 286.88,108.64 285.45,107.71 284,106.82 282.53,105.97 281.04,105.15 279.52,104.37 277.99,103.62 
				276.45,102.91 274.89,102.23 273.32,101.59 271.73,100.99 270.14,100.42 			"/>
			<polygon class="st0" points="201.42,192.12 175.88,236.36 173.48,234.74 171.12,233.06 168.81,231.32 166.54,229.51 
				164.33,227.65 162.17,225.73 160.05,223.75 158,221.71 155.99,219.62 154.05,217.47 152.16,215.28 150.33,213.03 148.57,210.74 
				146.86,208.4 145.22,206.01 143.64,203.58 142.13,201.11 140.69,198.6 139.31,196.06 138,193.47 136.77,190.86 135.6,188.21 
				134.5,185.53 133.48,182.82 132.53,180.08 131.65,177.33 130.85,174.54 130.12,171.74 129.47,168.92 128.89,166.08 
				128.39,163.23 127.97,160.37 127.62,157.49 127.35,154.61 127.16,151.72 127.05,148.83 127.01,145.93 127.05,143.04 
				127.17,140.14 127.36,137.26 127.64,134.37 127.99,131.5 128.42,128.64 128.92,125.78 129.5,122.95 130.16,120.13 130.89,117.33 
				131.69,114.55 132.57,111.79 133.53,109.05 134.56,106.35 135.66,103.67 136.83,101.02 138.07,98.41 139.38,95.82 140.76,93.28 
				142.21,90.77 143.72,88.3 145.3,85.88 146.95,83.49 148.65,81.16 150.42,78.86 152.25,76.62 154.14,74.43 156.09,72.29 
				158.1,70.2 160.16,68.16 162.27,66.19 164.44,64.26 166.65,62.4 168.92,60.6 171.24,58.86 173.59,57.18 176,55.57 178.44,54.02 
				180.93,52.54 183.46,51.12 186.02,49.77 188.62,48.5 191.25,47.29 193.91,46.15 196.6,45.08 199.32,44.09 202.07,43.17 
				204.84,42.33 207.63,41.56 210.44,40.86 213.27,40.24 216.11,39.7 218.97,39.23 221.84,38.84 224.72,38.52 227.6,38.29 
				230.49,38.13 233.39,38.05 236.28,38.04 239.18,38.12 242.07,38.27 244.95,38.5 247.83,38.8 250.7,39.19 253.56,39.65 
				256.41,40.18 259.24,40.8 262.05,41.48 264.84,42.25 267.61,43.09 270.36,44 273.08,44.98 275.78,46.04 278.44,47.17 
				281.08,48.37 283.68,49.64 268.64,75.69 267.14,74.99 265.6,74.31 264.04,73.67 262.46,73.05 260.85,72.46 259.21,71.91 
				257.55,71.39 255.87,70.9 254.17,70.44 252.44,70.03 250.7,69.65 248.93,69.31 247.15,69 245.36,68.74 243.54,68.52 
				241.72,68.34 239.88,68.2 238.03,68.11 236.18,68.06 234.31,68.05 232.44,68.09 230.56,68.17 228.68,68.3 226.8,68.48 
				224.92,68.7 223.05,68.96 221.17,69.28 219.3,69.64 217.44,70.04 215.59,70.5 213.74,70.99 211.91,71.54 210.1,72.12 
				208.3,72.75 206.51,73.43 204.75,74.15 203,74.91 201.28,75.71 199.58,76.55 197.9,77.43 196.25,78.34 194.63,79.3 193.03,80.29 
				191.47,81.32 189.93,82.38 188.43,83.47 186.96,84.59 185.52,85.74 184.12,86.92 182.75,88.13 181.41,89.36 180.12,90.62 
				178.85,91.9 177.63,93.2 176.44,94.52 175.29,95.85 174.18,97.21 173.11,98.57 172.07,99.96 171.07,101.35 170.12,102.76 
				169.19,104.17 168.31,105.59 167.46,107.03 166.65,108.47 165.87,109.93 165.12,111.41 164.4,112.92 163.71,114.44 
				163.06,115.97 162.45,117.52 161.88,119.09 161.34,120.67 160.85,122.27 160.39,123.87 159.98,125.49 159.62,127.12 
				159.29,128.75 159.02,130.39 158.79,132.04 158.61,133.69 158.48,135.35 158.39,137 158.36,138.66 158.38,140.32 158.45,141.97 
				158.57,143.62 158.74,145.26 158.96,146.9 159.24,148.52 159.57,150.14 159.95,151.75 160.38,153.34 160.86,154.91 161.4,156.48 
				161.98,158.02 162.62,159.54 163.31,161.05 164.04,162.53 164.83,163.99 165.66,165.42 166.54,166.83 167.47,168.21 
				168.44,169.57 169.45,170.9 170.51,172.19 171.6,173.46 172.74,174.69 173.91,175.9 175.12,177.07 176.37,178.2 177.65,179.31 
				178.96,180.37 180.31,181.41 181.68,182.41 183.08,183.37 184.5,184.3 185.95,185.19 187.43,186.04 188.92,186.86 190.43,187.64 
				191.96,188.39 193.51,189.1 195.07,189.77 196.64,190.41 198.22,191.02 199.82,191.59 			"/>
			<g id="HATCH_49_">
				<path class="st1" d="M201.42,192.12l67.22-116.43l-1.51-0.7l-1.53-0.67l-1.56-0.65l-1.59-0.62l-1.61-0.59l-1.64-0.56l-1.66-0.52
					l-1.68-0.49l-1.7-0.45l-1.72-0.42l-1.74-0.38l-1.76-0.34l-1.78-0.3l-1.8-0.26l-1.81-0.22l-1.83-0.18l-1.84-0.14l-1.85-0.09
					l-1.86-0.05l-1.87-0.01l-1.87,0.04l-1.88,0.08l-1.88,0.13l-1.88,0.18l-1.88,0.22l-1.88,0.27l-1.87,0.31l-1.87,0.36l-1.86,0.41
					l-1.85,0.45l-1.84,0.5l-1.83,0.54l-1.82,0.59l-1.8,0.63l-1.78,0.67l-1.77,0.72L203,74.91l-1.72,0.8l-1.7,0.84l-1.68,0.88
					l-1.65,0.92l-1.62,0.96l-1.6,0.99l-1.57,1.03l-1.54,1.06l-1.5,1.09l-1.47,1.12l-1.44,1.15l-1.4,1.18l-1.37,1.21l-1.33,1.23
					l-1.3,1.26l-1.26,1.28l-1.22,1.3l-1.19,1.32l-1.15,1.34l-1.11,1.35l-1.07,1.37l-1.04,1.38l-1,1.39l-0.96,1.41l-0.92,1.42
					l-0.88,1.42l-0.85,1.43l-0.81,1.44l-0.78,1.46l-0.75,1.48l-0.72,1.5l-0.68,1.52l-0.65,1.54l-0.61,1.55l-0.57,1.57l-0.54,1.58
					l-0.49,1.59l-0.45,1.61l-0.41,1.62l-0.37,1.63l-0.32,1.63l-0.28,1.64l-0.23,1.65l-0.18,1.65l-0.13,1.66l-0.08,1.66l-0.03,1.66
					l0.02,1.66l0.07,1.65l0.12,1.65l0.17,1.64l0.22,1.64l0.28,1.63l0.33,1.62l0.38,1.6l0.43,1.59l0.48,1.58l0.54,1.56l0.59,1.54
					l0.64,1.52l0.69,1.5l0.74,1.48l0.79,1.46l0.83,1.43l0.88,1.41l0.93,1.38l0.97,1.36l1.01,1.33l1.06,1.3l1.1,1.27l1.14,1.24
					l1.17,1.2l1.21,1.17l1.25,1.14l1.28,1.1l1.31,1.07l1.34,1.03l1.37,1l1.4,0.96l1.43,0.93l1.45,0.89l1.47,0.85l1.49,0.82
					l1.51,0.78l1.53,0.75l1.55,0.71l1.56,0.67l1.57,0.64l1.58,0.6l1.59,0.57L201.42,192.12z M237.88,88.57l0.07,0.1l0.07,0.1
					l0.07,0.1l0.06,0.1l0.06,0.1l0.06,0.11l0.06,0.11l0.06,0.11l0.06,0.11l0.05,0.11l0.05,0.12l0.05,0.12l0.05,0.12l0.05,0.12
					l0.04,0.12l0.04,0.12l0.04,0.13l0.04,0.13l0.03,0.13l0.03,0.13l0.03,0.13l0.03,0.13l0.03,0.14l0.02,0.14l0.02,0.14l0.02,0.14
					l0.02,0.14l0.01,0.15l0.01,0.15l0.01,0.15l0.01,0.3l0,0.31l-0.01,0.31l-0.02,0.32l-0.03,0.32l-0.05,0.33l-0.06,0.34l-0.07,0.34
					l-0.08,0.34l-0.09,0.35l-0.1,0.35l-0.11,0.36l-0.12,0.36l-0.13,0.36l-0.14,0.36l-0.16,0.37l-0.17,0.37l-0.18,0.37l-0.19,0.37
					l-0.2,0.37L237,99.53l-0.22,0.37l-0.23,0.37l-0.23,0.37l-0.24,0.37l-0.25,0.37l-0.26,0.36l-0.54,0.72l-0.57,0.71l-0.6,0.69
					l-0.62,0.68l-0.64,0.66l-0.65,0.64l-0.67,0.62l-0.68,0.59l-0.69,0.57l-0.69,0.55l-0.69,0.52l-0.7,0.5l-0.73,0.49l-0.75,0.48
					l-0.77,0.47l-0.79,0.45l-0.81,0.43l-0.82,0.41l-0.83,0.38l-0.84,0.36l-0.85,0.33l-0.85,0.3l-0.43,0.14l-0.43,0.13l-0.42,0.12
					l-0.42,0.11l-0.42,0.1l-0.42,0.09l-0.42,0.08l-0.41,0.07l-0.41,0.07l-0.4,0.06l-0.4,0.05l-0.4,0.04l-0.39,0.03l-0.38,0.02
					l-0.38,0.01l-0.37,0l-0.37-0.01l-0.36-0.02l-0.35-0.03l-0.34-0.04l-0.34-0.05l-0.33-0.06l-0.32-0.07l-0.31-0.07l-0.3-0.08
					l-0.29-0.09l-0.28-0.1l-0.14-0.05l-0.14-0.05l-0.13-0.06l-0.13-0.06l-0.13-0.06l-0.13-0.06l-0.12-0.06l-0.12-0.07l-0.12-0.07
					l-0.12-0.07l-0.12-0.07l-0.11-0.07l-0.11-0.07l-0.11-0.08l-0.11-0.08l-0.1-0.08l-0.1-0.08l-0.1-0.08l-0.1-0.08l-0.09-0.08
					l-0.09-0.09l-0.09-0.09l-0.09-0.09l-0.08-0.09l-0.08-0.09l-0.08-0.09l-0.08-0.09l-0.08-0.09l-0.07-0.09l-0.07-0.1l-0.07-0.1
					l-0.07-0.1l-0.07-0.1l-0.06-0.1l-0.06-0.1l-0.06-0.11l-0.06-0.11l-0.06-0.11l-0.06-0.11l-0.05-0.11l-0.05-0.12l-0.05-0.12
					l-0.05-0.12l-0.05-0.12l-0.04-0.12l-0.04-0.12l-0.04-0.13l-0.04-0.13l-0.03-0.13l-0.03-0.13l-0.03-0.13l-0.03-0.13l-0.03-0.14
					l-0.02-0.14l-0.02-0.14l-0.02-0.14l-0.02-0.14l-0.01-0.15l-0.01-0.15l-0.01-0.15l-0.01-0.3l0-0.31l0.01-0.31l0.02-0.32
					l0.03-0.32l0.05-0.33l0.06-0.34l0.07-0.34l0.08-0.34l0.09-0.35l0.1-0.35l0.11-0.36l0.12-0.36l0.13-0.36l0.14-0.36l0.16-0.37
					l0.17-0.37l0.18-0.37l0.19-0.37l0.2-0.37l0.21-0.37l0.22-0.37l0.23-0.37l0.23-0.37l0.24-0.37l0.25-0.37l0.26-0.36l0.54-0.72
					l0.57-0.71l0.6-0.69l0.62-0.68l0.64-0.66l0.65-0.64l0.67-0.62l0.68-0.59l0.69-0.57l0.69-0.55l0.69-0.52l0.7-0.5l0.73-0.49
					l0.75-0.48l0.77-0.47l0.79-0.45l0.81-0.43l0.82-0.41l0.83-0.38l0.84-0.36l0.85-0.33l0.85-0.3l0.43-0.14l0.43-0.13l0.42-0.12
					l0.42-0.11l0.42-0.1l0.42-0.09l0.42-0.08l0.41-0.07l0.41-0.07l0.4-0.06l0.4-0.05l0.4-0.04l0.39-0.03l0.38-0.02l0.38-0.01l0.37,0
					l0.37,0.01l0.36,0.02l0.35,0.03l0.34,0.04l0.34,0.05l0.33,0.06l0.32,0.07l0.31,0.07l0.3,0.08l0.29,0.09l0.28,0.1l0.14,0.05
					l0.14,0.05l0.13,0.06l0.13,0.06l0.13,0.06l0.13,0.06l0.12,0.06l0.12,0.07l0.12,0.07l0.12,0.07l0.12,0.07l0.11,0.07l0.11,0.07
					l0.11,0.08l0.11,0.08l0.1,0.08l0.1,0.08l0.1,0.08l0.1,0.08l0.09,0.08l0.09,0.09l0.09,0.09l0.09,0.09l0.08,0.09l0.08,0.09
					l0.08,0.09l0.08,0.09l0.08,0.09l0.07,0.09L237.88,88.57z"/>
			</g>
			<g id="HATCH_48_">
				<polygon class="st1" points="268.53,99.88 201.31,216.32 202.82,217.02 204.35,217.69 205.91,218.34 207.5,218.96 
					209.11,219.54 210.74,220.1 212.4,220.62 214.09,221.11 215.79,221.56 217.51,221.98 219.26,222.36 221.02,222.7 222.8,223.01 
					224.6,223.27 226.41,223.49 228.24,223.67 230.07,223.81 231.92,223.9 233.78,223.95 235.64,223.96 237.52,223.92 
					239.39,223.84 241.27,223.71 243.15,223.53 245.03,223.31 246.91,223.04 248.78,222.73 250.65,222.37 252.51,221.96 
					254.37,221.51 256.21,221.01 258.04,220.47 259.86,219.89 261.66,219.25 263.44,218.58 265.21,217.86 266.95,217.1 
					268.68,216.3 270.38,215.46 272.05,214.58 273.7,213.66 275.33,212.71 276.92,211.72 278.49,210.69 280.02,209.63 
					281.53,208.54 283,207.42 284.43,206.26 285.84,205.08 287.21,203.88 288.54,202.65 289.84,201.39 291.1,200.11 292.33,198.81 
					293.51,197.49 294.66,196.16 295.77,194.8 296.85,193.43 297.88,192.05 298.88,190.66 299.84,189.25 300.76,187.84 
					301.64,186.41 302.49,184.98 303.3,183.54 304.09,182.08 304.84,180.59 305.56,179.09 306.24,177.57 306.89,176.04 
					307.5,174.48 308.08,172.92 308.61,171.34 309.11,169.74 309.56,168.14 309.97,166.52 310.34,164.89 310.66,163.26 
					310.94,161.62 311.16,159.97 311.35,158.32 311.48,156.66 311.56,155 311.59,153.35 311.58,151.69 311.51,150.04 311.39,148.39 
					311.22,146.75 310.99,145.11 310.72,143.48 310.39,141.87 310.01,140.26 309.58,138.67 309.09,137.09 308.56,135.53 
					307.97,133.99 307.33,132.47 306.65,130.96 305.91,129.48 305.13,128.02 304.29,126.59 303.41,125.18 302.49,123.79 
					301.52,122.44 300.5,121.11 299.45,119.82 298.35,118.55 297.22,117.31 296.04,116.11 294.83,114.94 293.58,113.8 292.3,112.7 
					290.99,111.63 289.65,110.6 288.28,109.6 286.88,108.64 285.45,107.71 284,106.82 282.53,105.97 281.04,105.15 279.52,104.37 
					277.99,103.62 276.45,102.91 274.89,102.23 273.32,101.59 271.73,100.99 270.14,100.42 				"/>
			</g>
			<g id="HATCH_47_">
				<polygon class="st2" points="190.92,210.32 192.92,211.64 194.96,212.91 197.04,214.11 199.16,215.25 201.31,216.32 
					279.04,81.69 277.04,80.36 274.99,79.1 272.91,77.9 270.79,76.76 268.64,75.69 				"/>
			</g>
			<g id="HATCH_46_">
				<polygon class="st3" points="237.88,88.57 237.95,88.67 238.01,88.77 238.08,88.87 238.14,88.97 238.21,89.08 238.27,89.18 
					238.33,89.29 238.38,89.4 238.44,89.51 238.49,89.62 238.54,89.74 238.59,89.86 238.64,89.97 238.68,90.09 238.73,90.22 
					238.77,90.34 238.81,90.47 238.84,90.6 238.88,90.72 238.91,90.86 238.94,90.99 238.97,91.12 238.99,91.26 239.01,91.4 
					239.03,91.54 239.05,91.68 239.07,91.82 239.08,91.97 239.09,92.12 239.1,92.26 239.11,92.57 239.11,92.87 239.09,93.19 
					239.07,93.51 239.03,93.83 238.99,94.16 238.93,94.5 238.87,94.84 238.79,95.18 238.7,95.53 238.6,95.88 238.49,96.24 
					238.36,96.59 238.23,96.96 238.09,97.32 237.93,97.69 237.76,98.05 237.59,98.42 237.4,98.79 237.21,99.16 237,99.53 
					236.78,99.9 236.56,100.27 236.32,100.64 236.08,101.01 235.83,101.38 235.57,101.74 235.03,102.46 234.46,103.17 
					233.86,103.87 233.24,104.54 232.61,105.2 231.95,105.84 231.28,106.46 230.61,107.06 229.92,107.63 229.23,108.17 
					228.54,108.69 227.83,109.19 227.11,109.68 226.35,110.16 225.58,110.63 224.79,111.08 223.98,111.51 223.16,111.92 
					222.33,112.3 221.48,112.66 220.63,112.98 219.78,113.28 219.36,113.42 218.93,113.55 218.51,113.67 218.09,113.78 
					217.66,113.88 217.25,113.97 216.83,114.06 216.42,114.13 216.01,114.2 215.6,114.25 215.2,114.3 214.81,114.34 214.42,114.36 
					214.03,114.38 213.65,114.39 213.28,114.39 212.92,114.38 212.56,114.36 212.2,114.33 211.86,114.29 211.52,114.24 
					211.2,114.18 210.88,114.12 210.56,114.04 210.26,113.96 209.97,113.87 209.68,113.77 209.54,113.72 209.41,113.66 
					209.27,113.61 209.14,113.55 209.01,113.49 208.88,113.42 208.76,113.36 208.64,113.3 208.52,113.23 208.4,113.16 
					208.28,113.09 208.17,113.02 208.06,112.94 207.95,112.87 207.85,112.79 207.74,112.71 207.64,112.63 207.54,112.55 
					207.45,112.47 207.35,112.39 207.26,112.3 207.17,112.22 207.08,112.13 207,112.04 206.92,111.95 206.84,111.86 206.76,111.77 
					206.68,111.67 206.61,111.58 206.54,111.48 206.47,111.39 206.4,111.29 206.34,111.19 206.27,111.09 206.21,110.98 
					206.15,110.88 206.09,110.77 206.03,110.66 205.98,110.55 205.92,110.43 205.87,110.32 205.82,110.2 205.78,110.08 
					205.73,109.96 205.69,109.84 205.65,109.72 205.61,109.59 205.57,109.46 205.54,109.33 205.51,109.2 205.48,109.07 
					205.45,108.93 205.42,108.8 205.4,108.66 205.38,108.52 205.36,108.38 205.35,108.23 205.33,108.09 205.32,107.94 
					205.32,107.79 205.31,107.49 205.31,107.18 205.32,106.87 205.35,106.55 205.38,106.23 205.43,105.9 205.48,105.56 
					205.55,105.22 205.63,104.88 205.72,104.53 205.82,104.18 205.93,103.82 206.05,103.46 206.18,103.1 206.33,102.74 
					206.48,102.37 206.65,102 206.83,101.64 207.01,101.27 207.21,100.9 207.42,100.52 207.63,100.15 207.86,99.78 208.09,99.42 
					208.33,99.05 208.58,98.68 208.84,98.32 209.39,97.6 209.96,96.89 210.55,96.19 211.17,95.51 211.81,94.85 212.46,94.21 
					213.13,93.6 213.81,93 214.49,92.43 215.18,91.89 215.88,91.37 216.58,90.87 217.31,90.37 218.06,89.89 218.83,89.43 
					219.62,88.98 220.43,88.55 221.25,88.14 222.09,87.76 222.93,87.4 223.78,87.07 224.63,86.78 225.06,86.64 225.48,86.51 
					225.91,86.39 226.33,86.28 226.75,86.18 227.17,86.08 227.58,86 228,85.93 228.41,85.86 228.81,85.8 229.21,85.76 229.61,85.72 
					230,85.69 230.38,85.68 230.76,85.67 231.13,85.67 231.5,85.68 231.86,85.7 232.21,85.73 232.55,85.77 232.89,85.82 
					233.22,85.88 233.54,85.94 233.85,86.02 234.15,86.1 234.45,86.19 234.73,86.29 234.87,86.34 235.01,86.4 235.14,86.45 
					235.27,86.51 235.4,86.57 235.53,86.63 235.65,86.7 235.78,86.76 235.9,86.83 236.02,86.9 236.13,86.97 236.24,87.04 
					236.35,87.11 236.46,87.19 236.57,87.27 236.67,87.34 236.77,87.42 236.87,87.5 236.97,87.59 237.06,87.67 237.16,87.76 
					237.24,87.84 237.33,87.93 237.42,88.02 237.5,88.11 237.58,88.2 237.66,88.29 237.73,88.38 237.81,88.48 				"/>
			</g>
			<g>
				<g id="LINE_13_">
					<line class="st4" x1="186.27" y1="242.36" x2="294.08" y2="55.65"/>
				</g>
				<g id="ARC_13_">
					<path class="st4" d="M294.08,55.65c46.02,30.1,62.07,89.98,37.26,139.06c-26.9,53.22-91.84,74.55-145.06,47.66"/>
				</g>
				<g id="LINE_12_">
					<line class="st4" x1="175.88" y1="236.36" x2="283.68" y2="49.64"/>
				</g>
				<g id="ARC_12_">
					<path class="st4" d="M283.68,49.64c-53.22-26.9-118.16-5.56-145.06,47.66c-24.81,49.08-8.76,108.96,37.26,139.06"/>
				</g>
			</g>
		</g>
		<g>
			<g id="HATCH_45_">
				<polygon class="st1" points="42.12,424.9 42.12,393.34 47.52,393.34 47.52,420.25 62.81,420.25 62.81,424.9 				"/>
			</g>
			<g id="HATCH_43_">
				<polygon class="st1" points="411.33,424.9 411.33,393.34 435.58,393.34 435.58,397.99 416.73,397.99 416.73,406.4 434.29,406.4 
					434.29,411 416.73,411 416.73,420.25 436.46,420.25 436.46,424.9 				"/>
			</g>
			<g id="HATCH_42_">
				<polygon class="st1" points="322.6,402.46 322.31,401.71 322.02,400.92 321.43,399.2 320.9,400.73 320.25,402.49 311.5,424.9 
					305.84,424.9 318.71,393.34 324.25,393.34 336.92,424.9 331.33,424.9 327.87,416.05 316.91,416.05 318.66,411.55 326.14,411.55 
									"/>
			</g>
			<g id="HATCH_41_">
				<polygon class="st1" points="212.55,402.18 216.39,395.54 216.86,395.86 217.31,396.19 217.76,396.54 218.19,396.9 
					218.61,397.28 219.01,397.67 219.4,398.08 219.78,398.5 220.14,398.94 220.49,399.38 220.82,399.84 221.14,400.31 
					221.43,400.79 221.71,401.28 221.98,401.78 222.23,402.29 222.45,402.8 222.66,403.33 222.86,403.86 223.03,404.4 
					223.19,404.94 223.32,405.49 223.44,406.04 223.53,406.6 223.61,407.16 223.67,407.72 223.71,408.28 223.73,408.85 
					223.73,409.41 223.71,409.97 223.67,410.54 223.61,411.1 223.53,411.66 223.43,412.21 223.31,412.77 223.18,413.32 
					223.02,413.86 222.84,414.4 222.65,414.93 222.44,415.45 222.21,415.97 221.96,416.47 221.7,416.97 221.41,417.46 
					221.12,417.94 220.8,418.41 220.47,418.87 220.12,419.31 219.76,419.74 219.38,420.16 218.99,420.57 218.58,420.96 
					218.16,421.34 217.73,421.7 217.28,422.05 216.83,422.38 216.36,422.7 215.88,423 215.39,423.28 214.89,423.55 214.39,423.8 
					213.87,424.03 213.35,424.24 212.82,424.43 212.28,424.61 211.74,424.77 211.19,424.9 210.64,425.02 210.08,425.12 
					209.52,425.2 208.96,425.26 208.4,425.3 207.83,425.32 207.27,425.32 206.7,425.31 206.14,425.27 205.58,425.21 205.02,425.13 
					204.46,425.04 203.91,424.92 203.36,424.78 202.82,424.63 202.28,424.46 201.75,424.27 201.22,424.06 200.71,423.83 
					200.2,423.58 202.46,419.67 202.68,419.78 202.91,419.88 203.15,419.97 203.39,420.07 203.63,420.15 203.87,420.24 
					204.12,420.32 204.38,420.39 204.63,420.46 204.89,420.52 205.15,420.58 205.42,420.63 205.69,420.67 205.96,420.71 
					206.23,420.75 206.5,420.77 206.78,420.8 207.06,420.81 207.33,420.82 207.61,420.82 207.9,420.81 208.18,420.8 208.46,420.78 
					208.74,420.75 209.02,420.72 209.31,420.68 209.59,420.63 209.87,420.58 210.15,420.52 210.43,420.45 210.7,420.38 
					210.98,420.29 211.25,420.21 211.52,420.11 211.79,420.01 212.05,419.9 212.32,419.79 212.58,419.67 212.83,419.54 
					213.08,419.41 213.33,419.27 213.57,419.13 213.81,418.98 214.05,418.82 214.28,418.67 214.51,418.5 214.73,418.33 
					214.94,418.16 215.15,417.98 215.36,417.8 215.56,417.62 215.75,417.43 215.94,417.24 216.13,417.04 216.31,416.84 
					216.48,416.64 216.65,416.44 216.81,416.23 216.96,416.03 217.11,415.82 217.26,415.6 217.39,415.39 217.53,415.18 
					217.65,414.96 217.78,414.75 217.89,414.53 218.01,414.3 218.11,414.08 218.22,413.85 218.32,413.62 218.41,413.39 
					218.49,413.15 218.57,412.91 218.65,412.67 218.72,412.43 218.78,412.19 218.83,411.95 218.88,411.7 218.92,411.45 
					218.96,411.21 218.98,410.96 219,410.71 219.02,410.46 219.02,410.21 219.02,409.96 219.01,409.72 218.99,409.47 218.97,409.22 
					218.93,408.98 218.89,408.73 218.84,408.49 218.78,408.25 218.72,408.01 218.65,407.77 218.57,407.54 218.48,407.3 
					218.38,407.08 218.28,406.85 218.17,406.63 218.05,406.41 217.93,406.19 217.79,405.98 217.65,405.77 217.51,405.57 
					217.36,405.37 217.2,405.18 217.03,404.99 216.86,404.8 216.69,404.62 216.5,404.44 216.32,404.27 216.12,404.11 215.93,403.95 
					215.73,403.79 215.52,403.64 215.31,403.5 215.1,403.36 214.88,403.22 214.66,403.1 214.43,402.97 214.2,402.86 213.98,402.74 
					213.74,402.64 213.51,402.54 213.27,402.44 213.03,402.35 212.8,402.26 				"/>
			</g>
			<g id="HATCH_40_">
				<polygon class="st1" points="202.47,416.04 198.64,422.68 198.17,422.36 197.71,422.03 197.27,421.68 196.84,421.32 
					196.42,420.94 196.02,420.54 195.62,420.14 195.25,419.72 194.89,419.28 194.54,418.84 194.21,418.38 193.89,417.91 
					193.6,417.43 193.31,416.94 193.05,416.44 192.8,415.93 192.57,415.42 192.36,414.89 192.17,414.36 192,413.82 191.84,413.28 
					191.71,412.73 191.59,412.18 191.49,411.62 191.42,411.06 191.36,410.5 191.32,409.94 191.3,409.37 191.3,408.81 191.32,408.24 
					191.36,407.68 191.42,407.12 191.5,406.56 191.6,406 191.72,405.45 191.85,404.9 192.01,404.36 192.18,403.82 192.38,403.29 
					192.59,402.77 192.82,402.25 193.07,401.75 193.33,401.25 193.61,400.76 193.91,400.28 194.23,399.81 194.56,399.35 
					194.91,398.91 195.27,398.48 195.65,398.06 196.04,397.65 196.45,397.26 196.87,396.88 197.3,396.51 197.74,396.17 
					198.2,395.83 198.67,395.52 199.15,395.22 199.64,394.94 200.13,394.67 200.64,394.42 201.16,394.19 201.68,393.98 
					202.21,393.78 202.75,393.61 203.29,393.45 203.84,393.32 204.39,393.2 204.95,393.1 205.51,393.02 206.07,392.96 
					206.63,392.92 207.2,392.9 207.76,392.89 208.32,392.91 208.89,392.95 209.45,393.01 210.01,393.09 210.57,393.18 211.12,393.3 
					211.67,393.43 212.21,393.59 212.75,393.76 213.28,393.95 213.8,394.16 214.32,394.39 214.83,394.64 212.57,398.55 
					212.34,398.44 212.11,398.34 211.88,398.24 211.64,398.15 211.4,398.06 211.15,397.98 210.9,397.9 210.65,397.83 210.4,397.76 
					210.14,397.7 209.88,397.64 209.61,397.59 209.34,397.54 209.07,397.5 208.8,397.47 208.53,397.44 208.25,397.42 207.97,397.41 
					207.69,397.4 207.41,397.4 207.13,397.41 206.85,397.42 206.57,397.44 206.29,397.47 206,397.5 205.72,397.54 205.44,397.59 
					205.16,397.64 204.88,397.7 204.6,397.77 204.33,397.84 204.05,397.92 203.78,398.01 203.51,398.11 203.24,398.21 
					202.97,398.32 202.71,398.43 202.45,398.55 202.2,398.68 201.95,398.81 201.7,398.95 201.45,399.09 201.21,399.24 
					200.98,399.39 200.75,399.55 200.52,399.72 200.3,399.89 200.09,400.06 199.88,400.24 199.67,400.42 199.47,400.6 
					199.27,400.79 199.08,400.98 198.9,401.18 198.72,401.38 198.55,401.58 198.38,401.78 198.22,401.99 198.07,402.19 
					197.92,402.4 197.77,402.61 197.63,402.83 197.5,403.04 197.37,403.25 197.25,403.47 197.13,403.69 197.02,403.91 
					196.91,404.14 196.81,404.37 196.71,404.6 196.62,404.83 196.53,405.07 196.45,405.3 196.38,405.54 196.31,405.79 
					196.25,406.03 196.2,406.27 196.15,406.52 196.11,406.76 196.07,407.01 196.04,407.26 196.02,407.51 196.01,407.76 
					196.01,408.01 196.01,408.26 196.02,408.5 196.04,408.75 196.06,409 196.1,409.24 196.14,409.49 196.19,409.73 196.24,409.97 
					196.31,410.21 196.38,410.45 196.46,410.68 196.55,410.91 196.65,411.14 196.75,411.37 196.86,411.59 196.98,411.81 
					197.1,412.03 197.24,412.24 197.37,412.45 197.52,412.65 197.67,412.85 197.83,413.04 198,413.23 198.17,413.42 198.34,413.6 
					198.52,413.77 198.71,413.95 198.9,414.11 199.1,414.27 199.3,414.43 199.51,414.58 199.72,414.72 199.93,414.86 200.15,414.99 
					200.37,415.12 200.6,415.25 200.82,415.36 201.05,415.48 201.29,415.58 201.52,415.68 201.76,415.78 201.99,415.87 
					202.23,415.96 				"/>
			</g>
			<g id="HATCH_39_">
				<polygon class="st1" points="99.6,425.33 100.32,425.31 100.68,425.3 101.03,425.28 101.39,425.25 101.75,425.21 102.1,425.17 
					102.46,425.12 102.78,425.07 103.11,425.01 103.44,424.94 103.76,424.87 104.08,424.79 104.4,424.7 104.72,424.6 105.04,424.5 
					105.33,424.39 105.63,424.28 105.92,424.16 106.21,424.04 106.5,423.9 106.78,423.76 107.06,423.61 107.33,423.46 107.59,423.3 
					107.85,423.14 108.1,422.97 108.34,422.8 108.58,422.61 108.82,422.42 109.05,422.23 109.28,422.03 109.49,421.82 109.7,421.61 
					109.91,421.39 110.11,421.16 110.3,420.93 110.49,420.7 110.67,420.46 110.84,420.21 111.01,419.96 111.17,419.7 111.33,419.44 
					111.47,419.17 111.62,418.9 111.75,418.62 111.88,418.33 112,418.05 112.11,417.75 112.22,417.45 112.32,417.15 112.41,416.84 
					112.49,416.53 112.56,416.22 112.63,415.91 112.69,415.59 112.75,415.26 112.79,414.92 112.83,414.58 112.87,414.24 
					112.89,413.89 112.91,413.55 112.92,413.21 112.92,412.87 112.92,393.34 107.54,393.34 107.54,412.63 107.54,413.11 
					107.53,413.35 107.51,413.59 107.49,413.83 107.47,414.07 107.44,414.3 107.41,414.54 107.38,414.75 107.34,414.96 
					107.3,415.16 107.25,415.37 107.2,415.57 107.14,415.78 107.08,415.98 107.01,416.18 106.95,416.36 106.88,416.53 
					106.81,416.71 106.73,416.88 106.65,417.05 106.56,417.22 106.46,417.38 106.37,417.54 106.27,417.7 106.17,417.84 
					106.06,417.99 105.95,418.13 105.84,418.27 105.72,418.4 105.6,418.54 105.47,418.66 105.34,418.79 105.21,418.91 
					105.07,419.02 104.93,419.14 104.79,419.25 104.64,419.35 104.49,419.45 104.34,419.55 104.18,419.64 104.02,419.73 
					103.85,419.82 103.68,419.9 103.51,419.98 103.34,420.05 103.17,420.12 102.99,420.18 102.8,420.25 102.6,420.31 102.41,420.36 
					102.21,420.41 102.01,420.46 101.81,420.5 101.61,420.54 101.41,420.57 101.18,420.6 100.95,420.63 100.73,420.65 100.5,420.67 
					100.27,420.68 100.04,420.69 99.58,420.7 99.14,420.69 98.91,420.68 98.69,420.67 98.47,420.65 98.25,420.63 98.03,420.6 
					97.81,420.57 97.62,420.54 97.42,420.51 97.23,420.47 97.04,420.42 96.85,420.37 96.66,420.32 96.48,420.26 96.29,420.2 
					96.13,420.14 95.96,420.07 95.8,420 95.64,419.93 95.48,419.85 95.32,419.77 95.17,419.68 95.02,419.59 94.88,419.5 
					94.74,419.4 94.6,419.3 94.47,419.2 94.34,419.09 94.21,418.98 94.09,418.87 93.97,418.75 93.85,418.62 93.74,418.5 
					93.63,418.37 93.52,418.23 93.42,418.1 93.32,417.96 93.23,417.82 93.14,417.67 93.05,417.51 92.96,417.35 92.88,417.19 
					92.81,417.03 92.73,416.86 92.66,416.69 92.6,416.52 92.54,416.35 92.48,416.16 92.42,415.96 92.37,415.76 92.32,415.56 
					92.28,415.37 92.24,415.17 92.2,414.97 92.17,414.76 92.14,414.53 92.12,414.3 92.1,414.07 92.08,413.84 92.06,413.37 
					92.05,412.91 92.05,393.34 86.65,393.34 86.65,413.25 86.65,413.59 86.66,413.92 86.68,414.25 86.7,414.58 86.74,414.91 
					86.77,415.25 86.82,415.57 86.88,415.9 86.93,416.21 87,416.51 87.07,416.81 87.15,417.11 87.24,417.41 87.34,417.71 87.44,418 
					87.56,418.29 87.67,418.57 87.8,418.84 87.93,419.11 88.07,419.38 88.21,419.64 88.37,419.89 88.53,420.14 88.69,420.39 
					88.86,420.63 89.04,420.86 89.22,421.09 89.41,421.31 89.6,421.53 89.8,421.74 90.01,421.94 90.22,422.14 90.44,422.34 
					90.67,422.53 90.9,422.71 91.13,422.89 91.37,423.06 91.62,423.22 91.87,423.38 92.12,423.53 92.39,423.68 92.66,423.82 
					92.93,423.96 93.21,424.08 93.49,424.21 93.78,424.32 94.07,424.43 94.35,424.53 94.66,424.63 94.97,424.72 95.28,424.81 
					95.59,424.88 95.9,424.95 96.22,425.02 96.53,425.08 96.85,425.13 97.19,425.18 97.54,425.22 97.88,425.25 98.22,425.28 
					98.57,425.3 98.91,425.31 				"/>
			</g>
			<g id="HATCH_38_">
				<polygon class="st1" points="137.51,408.98 137.52,409.72 137.55,410.47 137.61,411.21 137.69,411.95 137.79,412.64 
					137.85,412.98 137.92,413.32 137.99,413.66 138.07,414 138.15,414.34 138.24,414.68 138.34,415 138.44,415.32 138.54,415.63 
					138.65,415.94 138.77,416.25 138.9,416.56 139.03,416.87 139.17,417.17 139.31,417.46 139.45,417.75 139.6,418.03 
					139.76,418.31 139.92,418.59 140.09,418.86 140.27,419.13 140.45,419.39 140.64,419.64 140.83,419.89 141.02,420.14 
					141.22,420.38 141.43,420.61 141.64,420.84 141.86,421.06 142.08,421.28 142.31,421.5 142.54,421.7 142.78,421.91 143.02,422.1 
					143.27,422.29 143.52,422.48 143.78,422.66 144.04,422.83 144.31,423 144.58,423.17 144.86,423.33 145.15,423.48 145.43,423.63 
					145.72,423.77 146.01,423.9 146.31,424.03 146.62,424.15 146.93,424.27 147.24,424.38 147.56,424.48 147.87,424.58 
					148.19,424.67 148.52,424.76 148.84,424.84 149.18,424.91 149.53,424.98 149.87,425.04 150.22,425.1 150.57,425.15 
					150.92,425.19 151.62,425.26 152.36,425.3 153.1,425.32 153.77,425.32 154.44,425.3 155.07,425.27 155.7,425.22 156.33,425.15 
					156.96,425.06 157.57,424.96 158.17,424.84 158.77,424.7 159.37,424.55 159.95,424.38 160.52,424.19 161.09,423.98 
					161.65,423.76 162.19,423.53 162.72,423.28 163.25,423.02 163.76,422.74 164.25,422.45 164.73,422.14 165.2,421.82 
					165.43,421.65 165.65,421.48 166.09,421.13 166.31,420.95 166.52,420.77 166.73,420.58 166.93,420.39 167.13,420.2 167.33,420 
					167.52,419.81 167.52,408.46 153.4,408.46 153.4,413.19 162.44,413.19 162.44,417.72 162.29,417.85 162.13,417.99 
					161.97,418.11 161.81,418.24 161.65,418.36 161.48,418.47 161.31,418.59 161.14,418.7 160.95,418.81 160.75,418.93 
					160.56,419.03 160.36,419.14 160.16,419.24 159.96,419.33 159.75,419.42 159.55,419.51 159.33,419.61 159.1,419.7 
					158.64,419.86 158.39,419.95 158.14,420.03 157.88,420.1 157.63,420.17 157.36,420.24 157.1,420.3 156.83,420.36 156.57,420.41 
					156.03,420.5 155.49,420.58 154.93,420.64 154.37,420.68 153.81,420.7 153.25,420.7 152.77,420.69 152.29,420.66 152.05,420.64 
					151.81,420.61 151.58,420.58 151.34,420.55 151.12,420.51 150.9,420.47 150.69,420.43 150.47,420.38 150.26,420.33 
					150.05,420.27 149.83,420.21 149.62,420.14 149.43,420.07 149.23,420 149.04,419.93 148.85,419.85 148.66,419.76 148.47,419.67 
					148.28,419.58 148.1,419.48 147.92,419.38 147.75,419.28 147.58,419.17 147.41,419.06 147.24,418.94 147.08,418.82 
					146.92,418.7 146.76,418.57 146.6,418.44 146.44,418.3 146.29,418.16 146.14,418.02 146,417.87 145.86,417.72 145.72,417.56 
					145.58,417.4 145.45,417.24 145.32,417.07 145.19,416.9 145.07,416.73 144.95,416.56 144.83,416.38 144.72,416.2 144.61,416.02 
					144.5,415.83 144.4,415.63 144.3,415.44 144.2,415.24 144.11,415.04 144.03,414.84 143.94,414.64 143.86,414.44 143.78,414.22 
					143.71,414 143.63,413.78 143.57,413.55 143.5,413.33 143.45,413.1 143.34,412.65 143.29,412.4 143.24,412.16 143.16,411.66 
					143.09,411.16 143.04,410.66 143.01,410.12 142.98,409.58 142.97,409.02 142.98,408.46 143,407.93 143.03,407.4 143.08,406.88 
					143.14,406.35 143.21,405.88 143.3,405.4 143.4,404.93 143.46,404.7 143.52,404.47 143.58,404.26 143.64,404.04 143.71,403.83 
					143.78,403.63 143.86,403.42 143.94,403.21 144.02,403.01 144.11,402.81 144.2,402.62 144.29,402.43 144.38,402.25 
					144.48,402.07 144.58,401.89 144.69,401.71 144.79,401.54 144.91,401.36 145.02,401.2 145.14,401.04 145.26,400.88 
					145.38,400.72 145.51,400.57 145.64,400.42 145.78,400.27 145.91,400.13 146.05,399.99 146.19,399.86 146.34,399.73 
					146.48,399.6 146.64,399.48 146.79,399.36 146.95,399.25 147.1,399.14 147.27,399.03 147.44,398.92 147.61,398.82 
					147.78,398.73 147.95,398.63 148.13,398.55 148.31,398.46 148.49,398.38 148.68,398.3 148.87,398.23 149.06,398.16 
					149.26,398.09 149.46,398.03 149.67,397.97 149.87,397.91 150.08,397.86 150.3,397.81 150.53,397.77 150.75,397.73 
					150.98,397.69 151.2,397.66 151.43,397.63 151.89,397.59 152.38,397.56 152.87,397.54 153.18,397.54 153.48,397.54 
					153.79,397.55 154.09,397.57 154.38,397.59 154.67,397.61 154.96,397.64 155.25,397.68 155.54,397.72 155.82,397.77 
					156.11,397.83 156.39,397.9 156.64,397.96 156.89,398.03 157.13,398.1 157.37,398.18 157.61,398.27 157.85,398.37 
					158.08,398.47 158.31,398.58 158.54,398.7 158.65,398.76 158.76,398.82 158.87,398.89 158.97,398.96 159.08,399.03 
					159.19,399.1 159.28,399.17 159.38,399.24 159.48,399.31 159.57,399.38 159.75,399.53 159.93,399.69 160.1,399.86 
					160.27,400.03 160.43,400.2 160.59,400.38 160.75,400.59 160.91,400.79 161.06,401 161.2,401.22 161.34,401.44 161.47,401.66 
					161.6,401.89 161.71,402.12 161.96,402.61 162.48,402.45 167.1,401.08 166.79,400.4 166.6,399.99 166.39,399.59 166.18,399.19 
					165.94,398.8 165.71,398.43 165.47,398.07 165.21,397.72 165.08,397.55 164.94,397.38 164.81,397.22 164.67,397.06 
					164.53,396.91 164.39,396.75 164.25,396.6 164.1,396.45 163.95,396.31 163.79,396.17 163.64,396.03 163.48,395.89 
					163.32,395.76 163.16,395.63 163,395.51 162.83,395.39 162.66,395.27 162.49,395.15 162.32,395.04 162.14,394.93 161.96,394.83 
					161.78,394.72 161.44,394.54 161.09,394.37 160.73,394.21 160.37,394.06 159.95,393.9 159.53,393.76 159.11,393.63 
					158.68,393.51 158.21,393.4 157.75,393.3 157.28,393.21 156.81,393.14 156.3,393.07 155.79,393.01 155.28,392.97 154.77,392.94 
					154.23,392.91 153.69,392.9 152.76,392.9 152,392.92 151.24,392.97 150.86,393.01 150.49,393.05 150.11,393.1 149.73,393.15 
					149.39,393.21 149.04,393.28 148.7,393.35 148.36,393.43 148.02,393.51 147.68,393.61 147.34,393.71 147.01,393.81 
					146.69,393.92 146.38,394.04 146.07,394.16 145.76,394.29 145.46,394.43 145.16,394.57 144.87,394.73 144.57,394.88 
					144.29,395.05 144.02,395.21 143.75,395.39 143.48,395.57 143.22,395.76 142.96,395.96 142.7,396.16 142.46,396.37 
					142.21,396.58 141.98,396.8 141.74,397.03 141.52,397.26 141.3,397.5 141.08,397.74 140.87,397.99 140.67,398.24 140.47,398.5 
					140.28,398.77 140.1,399.04 139.92,399.32 139.75,399.59 139.59,399.88 139.43,400.17 139.28,400.46 139.13,400.76 
					138.99,401.07 138.86,401.39 138.73,401.7 138.61,402.02 138.5,402.34 138.39,402.67 138.29,402.99 138.19,403.34 138.1,403.69 
					138.02,404.05 137.94,404.4 137.87,404.76 137.81,405.11 137.76,405.47 137.71,405.83 137.66,406.23 137.62,406.62 
					137.56,407.4 137.52,408.19 				"/>
			</g>
			<g id="HATCH_37_">
				<polygon class="st1" points="266.61,405.2 271.98,424.9 277.86,424.9 287.15,393.34 281.52,393.34 281.38,393.82 275.51,415.05 
					275.34,415.71 274.86,417.79 273.58,412.66 268.18,393.34 263.27,393.34 263.13,393.82 257.34,414.66 257.17,415.33 
					256.61,417.68 255.45,413.04 249.88,393.34 244.25,393.34 253.55,424.9 259.42,424.9 259.55,424.42 265.25,403.58 
					265.42,402.88 265.72,401.56 265.97,402.66 266.32,404.11 				"/>
			</g>
			<g id="HATCH_36_">
				<polygon class="st1" points="364.69,412.33 364.69,407.79 364.69,397.93 364.69,393.34 359.29,393.34 359.29,424.9 
					364.69,424.9 				"/>
			</g>
			<g id="HATCH_35_">
				<polygon class="st1" points="378.52,411.65 378.82,411.57 379.12,411.48 379.42,411.38 379.71,411.28 380,411.16 380.29,411.04 
					380.57,410.9 380.85,410.76 381.03,410.66 381.2,410.56 381.38,410.45 381.55,410.34 381.72,410.23 381.89,410.11 
					382.05,409.99 382.21,409.86 382.37,409.73 382.52,409.6 382.67,409.47 382.82,409.33 382.96,409.18 383.1,409.04 
					383.24,408.89 383.37,408.74 383.5,408.58 383.63,408.42 383.75,408.26 383.87,408.1 383.98,407.93 384.09,407.77 384.2,407.6 
					384.3,407.42 384.4,407.25 384.49,407.07 384.58,406.89 384.67,406.71 384.75,406.52 384.83,406.34 384.9,406.15 384.97,405.96 
					385.03,405.77 385.09,405.57 385.15,405.37 385.2,405.17 385.25,404.97 385.29,404.77 385.33,404.57 385.36,404.37 
					385.4,404.15 385.42,403.94 385.44,403.72 385.46,403.51 385.48,403.29 385.49,403.08 385.49,402.86 385.49,402.65 
					385.49,402.39 385.48,402.13 385.47,401.87 385.45,401.62 385.42,401.36 385.39,401.1 385.35,400.85 385.31,400.6 
					385.26,400.36 385.21,400.12 385.15,399.89 385.08,399.66 385.01,399.43 384.93,399.2 384.84,398.98 384.75,398.75 
					384.65,398.54 384.55,398.33 384.44,398.12 384.32,397.92 384.2,397.72 384.07,397.52 383.94,397.33 383.8,397.14 
					383.65,396.96 383.5,396.77 383.34,396.6 383.18,396.42 383.01,396.25 382.84,396.09 382.66,395.93 382.48,395.78 
					382.28,395.62 382.09,395.48 381.89,395.33 381.68,395.2 381.47,395.06 381.26,394.94 381.04,394.82 380.82,394.7 
					380.59,394.59 380.35,394.48 380.11,394.37 379.87,394.28 379.63,394.18 379.38,394.1 379.13,394.02 378.88,393.94 
					378.61,393.87 378.34,393.8 378.06,393.73 377.78,393.67 377.5,393.62 377.23,393.57 376.67,393.49 376.36,393.46 
					376.04,393.42 375.42,393.38 374.8,393.35 374.17,393.34 366.49,393.34 366.49,397.93 373.77,397.93 374.14,397.93 
					374.52,397.95 374.9,397.97 375.28,398.01 375.61,398.05 375.93,398.11 376.09,398.14 376.25,398.17 376.41,398.21 
					376.57,398.25 376.71,398.29 376.85,398.33 376.99,398.38 377.12,398.42 377.26,398.47 377.39,398.53 377.53,398.58 
					377.66,398.64 377.77,398.7 377.89,398.76 378,398.82 378.11,398.89 378.22,398.95 378.33,399.03 378.43,399.1 378.53,399.18 
					378.63,399.25 378.72,399.33 378.8,399.4 378.89,399.49 378.97,399.57 379.05,399.66 379.13,399.74 379.21,399.84 
					379.28,399.93 379.34,400.02 379.41,400.12 379.47,400.22 379.53,400.32 379.58,400.42 379.63,400.52 379.68,400.63 
					379.73,400.74 379.78,400.86 379.82,400.97 379.86,401.09 379.89,401.21 379.92,401.33 379.95,401.45 379.97,401.57 380,401.71 
					380.02,401.85 380.04,401.99 380.05,402.13 380.06,402.27 380.07,402.41 380.07,402.55 380.07,402.69 380.07,402.84 
					380.07,402.98 380.06,403.13 380.05,403.28 380.04,403.42 380.02,403.57 380,403.71 379.97,403.86 379.95,403.99 379.92,404.12 
					379.89,404.24 379.86,404.37 379.82,404.49 379.78,404.62 379.73,404.74 379.68,404.86 379.63,404.98 379.58,405.09 
					379.53,405.2 379.47,405.3 379.41,405.41 379.34,405.51 379.27,405.61 379.2,405.71 379.13,405.81 379.05,405.91 378.97,406 
					378.89,406.1 378.8,406.18 378.71,406.27 378.62,406.36 378.53,406.44 378.43,406.52 378.33,406.6 378.22,406.68 378.12,406.75 
					378.01,406.82 377.9,406.89 377.78,406.96 377.67,407.02 377.54,407.08 377.42,407.15 377.29,407.2 377.16,407.26 
					377.03,407.31 376.89,407.36 376.76,407.4 376.63,407.44 376.47,407.49 376.32,407.53 376.16,407.57 376.01,407.6 
					375.85,407.63 375.7,407.66 375.54,407.68 375.38,407.71 375.2,407.73 375.02,407.75 374.66,407.77 374.3,407.79 373.94,407.79 
					366.49,407.79 366.49,412.33 373.11,412.33 380.97,424.9 387.25,424.9 				"/>
			</g>
		</g>
		<text transform="matrix(1 0 0 1 77.5479 331.1497)"><tspan x="0" y="0" class="st5 st6 st7">orca</tspan><tspan x="144.96" y="0" class="st6 st7"> </tspan><tspan x="162.54" y="0" class="st8 st6 st7">slicer</tspan><tspan x="144.17" y="38" class="st9 st6 st10">for</tspan></text>
	</g>
</g>
</svg>
