<?xml version="1.0" encoding="utf-8"?>
<!-- Generator: Adobe Illustrator 24.3.0, SVG Export Plug-In . SVG Version: 6.00 Build 0)  -->
<svg version="1.1" id="레이어_1" xmlns="http://www.w3.org/2000/svg" xmlns:xlink="http://www.w3.org/1999/xlink" x="0px"
	 y="0px" viewBox="0 0 480 480" style="enable-background:new 0 0 480 480;" xml:space="preserve">
<style type="text/css">
	.st0{fill-rule:evenodd;clip-rule:evenodd;fill:#D3D3D3;}
	.st1{fill-rule:evenodd;clip-rule:evenodd;fill:#292927;}
	.st2{fill-rule:evenodd;clip-rule:evenodd;fill:#019687;}
	.st3{fill-rule:evenodd;clip-rule:evenodd;fill:#FFFFFF;}
	.st4{fill:none;stroke:#000000;stroke-width:0.25;stroke-miterlimit:10;}
	.st5{fill:#019687;}
	.st6{font-family:'Comfortaa-Medium';}
	.st7{font-size:60px;}
	.st8{fill:#D3D3D3;}
	.st9{font-size:28px;}
</style>
<polygon class="st0" points="269.4,113.72 294.94,69.48 297.35,71.1 299.7,72.78 302.01,74.52 304.28,76.33 306.49,78.19 
	308.66,80.11 310.77,82.09 312.83,84.13 314.83,86.22 316.77,88.37 318.66,90.56 320.49,92.81 322.26,95.1 323.96,97.44 
	325.6,99.83 327.18,102.26 328.69,104.73 330.13,107.24 331.51,109.78 332.82,112.37 334.06,114.98 335.22,117.63 336.32,120.31 
	337.34,123.02 338.29,125.76 339.17,128.51 339.97,131.3 340.7,134.1 341.35,136.92 341.93,139.76 342.43,142.61 342.85,145.47 
	343.2,148.35 343.47,151.23 343.66,154.12 343.78,157.01 343.81,159.91 343.77,162.8 343.65,165.7 343.46,168.58 343.19,171.47 
	342.84,174.34 342.41,177.2 341.9,180.06 341.32,182.89 340.67,185.71 339.94,188.51 339.13,191.29 338.25,194.05 337.29,196.79 
	336.27,199.49 335.17,202.17 334,204.82 332.76,207.44 331.44,210.02 330.06,212.56 328.62,215.07 327.1,217.54 325.52,219.96 
	323.88,222.35 322.17,224.68 320.4,226.98 318.57,229.22 316.68,231.41 314.73,233.55 312.73,235.64 310.67,237.68 308.55,239.65 
	306.39,241.58 304.17,243.44 301.9,245.24 299.59,246.98 297.23,248.66 294.82,250.27 292.38,251.82 289.89,253.3 287.37,254.72 
	284.8,256.07 282.21,257.34 279.57,258.55 276.91,259.69 274.22,260.76 271.5,261.75 268.75,262.67 265.98,263.51 263.19,264.28 
	260.38,264.98 257.56,265.6 254.71,266.14 251.85,266.61 248.99,267 246.11,267.32 243.22,267.55 240.33,267.71 237.44,267.79 
	234.54,267.8 231.65,267.72 228.76,267.57 225.87,267.34 222.99,267.04 220.12,266.65 217.26,266.19 214.42,265.66 211.59,265.04 
	208.77,264.36 205.98,263.59 203.21,262.75 200.46,261.84 197.74,260.86 195.04,259.8 192.38,258.67 189.74,257.47 187.14,256.2 
	202.18,230.15 203.69,230.85 205.22,231.53 206.78,232.17 208.37,232.79 209.98,233.38 211.61,233.93 213.27,234.45 214.95,234.94 
	216.66,235.4 218.38,235.81 220.13,236.19 221.89,236.53 223.67,236.84 225.47,237.1 227.28,237.32 229.1,237.5 230.94,237.64 
	232.79,237.73 234.65,237.78 236.51,237.79 238.38,237.75 240.26,237.67 242.14,237.54 244.02,237.36 245.9,237.14 247.78,236.88 
	249.65,236.56 251.52,236.2 253.38,235.8 255.24,235.34 257.08,234.85 258.91,234.3 260.73,233.72 262.53,233.09 264.31,232.41 
	266.08,231.69 267.82,230.93 269.54,230.13 271.24,229.29 272.92,228.41 274.57,227.5 276.19,226.54 277.79,225.55 279.35,224.52 
	280.89,223.46 282.39,222.37 283.87,221.25 285.3,220.1 286.71,218.92 288.08,217.71 289.41,216.48 290.71,215.22 291.97,213.94 
	293.19,212.64 294.38,211.33 295.53,209.99 296.64,208.63 297.71,207.27 298.75,205.88 299.75,204.49 300.71,203.08 301.63,201.67 
	302.51,200.25 303.36,198.82 304.17,197.37 304.95,195.91 305.71,194.43 306.43,192.92 307.11,191.41 307.76,189.87 308.37,188.32 
	308.95,186.75 309.48,185.17 309.98,183.57 310.43,181.97 310.84,180.35 311.21,178.73 311.53,177.09 311.8,175.45 312.03,173.8 
	312.21,172.15 312.35,170.49 312.43,168.84 312.46,167.18 312.44,165.52 312.38,163.87 312.26,162.22 312.09,160.58 311.86,158.94 
	311.59,157.32 311.26,155.7 310.88,154.09 310.45,152.5 309.96,150.93 309.43,149.36 308.84,147.82 308.2,146.3 307.51,144.79 
	306.78,143.31 305.99,141.85 305.16,140.42 304.28,139.01 303.36,137.63 302.39,136.27 301.37,134.94 300.32,133.65 299.22,132.38 
	298.08,131.15 296.91,129.94 295.7,128.77 294.45,127.64 293.17,126.53 291.86,125.47 290.52,124.43 289.14,123.43 287.74,122.47 
	286.32,121.54 284.87,120.65 283.4,119.8 281.9,118.98 280.39,118.2 278.86,117.45 277.32,116.74 275.76,116.07 274.18,115.43 
	272.6,114.82 271.01,114.25 "/>
<polygon class="st0" points="202.29,205.96 176.75,250.19 174.35,248.58 171.99,246.9 169.68,245.15 167.41,243.35 165.2,241.48 
	163.03,239.56 160.92,237.58 158.86,235.54 156.86,233.45 154.92,231.3 153.03,229.11 151.2,226.86 149.44,224.57 147.73,222.23 
	146.09,219.84 144.51,217.42 143,214.95 141.56,212.44 140.18,209.89 138.87,207.31 137.63,204.69 136.47,202.04 135.37,199.36 
	134.35,196.65 133.4,193.92 132.52,191.16 131.72,188.38 130.99,185.57 130.34,182.75 129.76,179.92 129.26,177.06 128.84,174.2 
	128.49,171.32 128.22,168.44 128.03,165.55 127.91,162.66 127.88,159.76 127.92,156.87 128.04,153.98 128.23,151.09 128.51,148.21 
	128.86,145.33 129.28,142.47 129.79,139.62 130.37,136.78 131.02,133.96 131.76,131.16 132.56,128.38 133.44,125.62 134.4,122.89 
	135.42,120.18 136.52,117.5 137.69,114.85 138.94,112.24 140.25,109.66 141.63,107.11 143.07,104.6 144.59,102.14 146.17,99.71 
	147.81,97.33 149.52,94.99 151.29,92.7 153.12,90.45 155.01,88.26 156.96,86.12 158.97,84.03 161.03,82 163.14,80.02 165.31,78.1 
	167.52,76.23 169.79,74.43 172.1,72.69 174.46,71.01 176.87,69.4 179.31,67.85 181.8,66.37 184.33,64.95 186.89,63.61 189.49,62.33 
	192.12,61.12 194.78,59.98 197.47,58.92 200.19,57.92 202.94,57.01 205.71,56.16 208.5,55.39 211.31,54.69 214.14,54.07 
	216.98,53.53 219.84,53.06 222.71,52.67 225.58,52.36 228.47,52.12 231.36,51.96 234.26,51.88 237.15,51.88 240.04,51.95 
	242.94,52.1 245.82,52.33 248.7,52.64 251.57,53.02 254.43,53.48 257.28,54.02 260.1,54.63 262.92,55.32 265.71,56.08 268.48,56.92 
	271.23,57.83 273.95,58.82 276.65,59.87 279.31,61 281.95,62.21 284.55,63.48 269.51,89.52 268,88.82 266.47,88.15 264.91,87.5 
	263.32,86.88 261.71,86.3 260.08,85.74 258.42,85.22 256.74,84.73 255.03,84.28 253.31,83.86 251.56,83.48 249.8,83.14 
	248.02,82.84 246.22,82.57 244.41,82.35 242.59,82.17 240.75,82.03 238.9,81.94 237.04,81.89 235.18,81.88 233.31,81.92 231.43,82 
	229.55,82.13 227.67,82.31 225.79,82.53 223.91,82.8 222.04,83.11 220.17,83.47 218.31,83.88 216.46,84.33 214.61,84.83 
	212.78,85.37 210.97,85.96 209.17,86.59 207.38,87.26 205.62,87.98 203.87,88.74 202.15,89.54 200.45,90.38 198.77,91.26 
	197.12,92.18 195.5,93.13 193.9,94.12 192.34,95.15 190.8,96.21 189.3,97.3 187.83,98.42 186.39,99.58 184.98,100.76 183.61,101.96 
	182.28,103.19 180.98,104.45 179.72,105.73 178.5,107.03 177.31,108.35 176.16,109.68 175.05,111.04 173.98,112.41 172.94,113.79 
	171.94,115.18 170.98,116.59 170.06,118 169.18,119.43 168.33,120.86 167.52,122.3 166.74,123.76 165.98,125.25 165.27,126.75 
	164.58,128.27 163.93,129.8 163.32,131.36 162.74,132.92 162.21,134.5 161.71,136.1 161.26,137.7 160.85,139.32 160.48,140.95 
	160.16,142.58 159.89,144.22 159.66,145.87 159.48,147.52 159.35,149.18 159.26,150.84 159.23,152.49 159.25,154.15 159.31,155.8 
	159.43,157.45 159.61,159.09 159.83,160.73 160.11,162.36 160.43,163.97 160.81,165.58 161.25,167.17 161.73,168.75 162.27,170.31 
	162.85,171.85 163.49,173.37 164.18,174.88 164.91,176.36 165.7,177.82 166.53,179.25 167.41,180.66 168.34,182.05 169.31,183.4 
	170.32,184.73 171.37,186.02 172.47,187.29 173.61,188.53 174.78,189.73 175.99,190.9 177.24,192.04 178.52,193.14 179.83,194.21 
	181.17,195.24 182.55,196.24 183.95,197.2 185.37,198.13 186.82,199.02 188.29,199.87 189.79,200.69 191.3,201.47 192.83,202.22 
	194.37,202.93 195.93,203.61 197.51,204.25 199.09,204.85 200.69,205.42 "/>
<g id="HATCH_14_">
	<path class="st1" d="M202.29,205.96l67.22-116.43l-1.51-0.7l-1.53-0.67l-1.56-0.65l-1.59-0.62l-1.61-0.59l-1.64-0.56l-1.66-0.52
		l-1.68-0.49l-1.7-0.45l-1.72-0.42l-1.74-0.38l-1.76-0.34l-1.78-0.3l-1.8-0.26l-1.81-0.22l-1.83-0.18l-1.84-0.14l-1.85-0.09
		l-1.86-0.05l-1.87-0.01l-1.87,0.04L231.43,82l-1.88,0.13l-1.88,0.18l-1.88,0.22l-1.88,0.27l-1.87,0.31l-1.87,0.36l-1.86,0.41
		l-1.85,0.45l-1.84,0.5l-1.83,0.54l-1.82,0.59l-1.8,0.63l-1.78,0.67l-1.77,0.72l-1.75,0.76l-1.72,0.8l-1.7,0.84l-1.68,0.88
		l-1.65,0.92l-1.62,0.96l-1.6,0.99l-1.57,1.03l-1.54,1.06l-1.5,1.09l-1.47,1.12l-1.44,1.15l-1.4,1.18l-1.37,1.21l-1.33,1.23
		l-1.3,1.26l-1.26,1.28l-1.22,1.3l-1.19,1.32l-1.15,1.34l-1.11,1.35l-1.07,1.37l-1.04,1.38l-1,1.39l-0.96,1.41l-0.92,1.42
		l-0.88,1.42l-0.85,1.43l-0.81,1.44l-0.78,1.46l-0.75,1.48l-0.72,1.5l-0.68,1.52l-0.65,1.54l-0.61,1.55l-0.57,1.57l-0.54,1.58
		l-0.49,1.59l-0.45,1.61l-0.41,1.62l-0.37,1.63l-0.32,1.63l-0.28,1.64l-0.23,1.65l-0.18,1.65l-0.13,1.66l-0.08,1.66l-0.03,1.66
		l0.02,1.66l0.07,1.65l0.12,1.65l0.17,1.64l0.22,1.64l0.28,1.63l0.33,1.62l0.38,1.6l0.43,1.59l0.48,1.58l0.54,1.56l0.59,1.54
		l0.64,1.52l0.69,1.5l0.74,1.48l0.79,1.46l0.83,1.43l0.88,1.41l0.93,1.38l0.97,1.36l1.01,1.33l1.06,1.3l1.1,1.27l1.14,1.24l1.17,1.2
		l1.21,1.17l1.25,1.14l1.28,1.1l1.31,1.07l1.34,1.03l1.37,1l1.4,0.96l1.43,0.93l1.45,0.89l1.47,0.85l1.49,0.82l1.51,0.78l1.53,0.75
		l1.55,0.71l1.56,0.67l1.57,0.64l1.58,0.6l1.59,0.57L202.29,205.96z M238.75,102.41l0.07,0.1l0.07,0.1l0.07,0.1l0.06,0.1l0.06,0.1
		l0.06,0.11l0.06,0.11l0.06,0.11l0.06,0.11l0.05,0.11l0.05,0.12l0.05,0.12l0.05,0.12l0.05,0.12l0.04,0.12l0.04,0.12l0.04,0.13
		l0.04,0.13l0.03,0.13l0.03,0.13l0.03,0.13l0.03,0.13l0.03,0.14l0.02,0.14l0.02,0.14l0.02,0.14l0.02,0.14l0.01,0.15l0.01,0.15
		l0.01,0.15l0.01,0.3l0,0.31l-0.01,0.31l-0.02,0.32l-0.03,0.32l-0.05,0.33l-0.06,0.34l-0.07,0.34l-0.08,0.34l-0.09,0.35l-0.1,0.35
		l-0.11,0.36l-0.12,0.36l-0.13,0.36l-0.14,0.36l-0.16,0.37l-0.17,0.37l-0.18,0.37l-0.19,0.37l-0.2,0.37l-0.21,0.37l-0.22,0.37
		l-0.23,0.37l-0.23,0.37l-0.24,0.37l-0.25,0.37l-0.26,0.36l-0.54,0.72l-0.57,0.71l-0.6,0.69l-0.62,0.68l-0.64,0.66l-0.65,0.64
		l-0.67,0.62l-0.68,0.59l-0.69,0.57L230.1,122l-0.69,0.52l-0.7,0.5l-0.73,0.49l-0.75,0.48l-0.77,0.47l-0.79,0.45l-0.81,0.43
		l-0.82,0.41l-0.83,0.38l-0.84,0.36l-0.85,0.33l-0.85,0.3l-0.43,0.14l-0.43,0.13l-0.42,0.12l-0.42,0.11l-0.42,0.1l-0.42,0.09
		l-0.42,0.08l-0.41,0.07l-0.41,0.07l-0.4,0.06l-0.4,0.05l-0.4,0.04l-0.39,0.03l-0.38,0.02l-0.38,0.01l-0.37,0l-0.37-0.01l-0.36-0.02
		l-0.35-0.03l-0.34-0.04l-0.34-0.05l-0.33-0.06l-0.32-0.07l-0.31-0.07l-0.3-0.08l-0.29-0.09l-0.28-0.1l-0.14-0.05l-0.14-0.05
		l-0.13-0.06l-0.13-0.06l-0.13-0.06l-0.13-0.06l-0.12-0.06l-0.12-0.07l-0.12-0.07l-0.12-0.07l-0.12-0.07l-0.11-0.07l-0.11-0.07
		l-0.11-0.08l-0.11-0.08l-0.1-0.08l-0.1-0.08l-0.1-0.08l-0.1-0.08l-0.09-0.08l-0.09-0.09l-0.09-0.09l-0.09-0.09l-0.08-0.09
		l-0.08-0.09l-0.08-0.09l-0.08-0.09l-0.08-0.09l-0.07-0.09l-0.07-0.1l-0.07-0.1l-0.07-0.1l-0.07-0.1l-0.06-0.1l-0.06-0.1l-0.06-0.11
		l-0.06-0.11l-0.06-0.11l-0.06-0.11l-0.05-0.11l-0.05-0.12l-0.05-0.12l-0.05-0.12l-0.05-0.12l-0.04-0.12l-0.04-0.12l-0.04-0.13
		l-0.04-0.13l-0.03-0.13l-0.03-0.13l-0.03-0.13l-0.03-0.13l-0.03-0.14l-0.02-0.14l-0.02-0.14l-0.02-0.14l-0.02-0.14l-0.01-0.15
		l-0.01-0.15l-0.01-0.15l-0.01-0.3l0-0.31l0.01-0.31l0.02-0.32l0.03-0.32l0.05-0.33l0.06-0.34l0.07-0.34l0.08-0.34l0.09-0.35
		l0.1-0.35l0.11-0.36l0.12-0.36l0.13-0.36l0.14-0.36l0.16-0.37l0.17-0.37l0.18-0.37l0.19-0.37l0.2-0.37l0.21-0.37l0.22-0.37
		l0.23-0.37l0.23-0.37l0.24-0.37l0.25-0.37l0.26-0.36l0.54-0.72l0.57-0.71l0.6-0.69l0.62-0.68l0.64-0.66l0.65-0.64l0.67-0.62
		l0.68-0.59l0.69-0.57l0.69-0.55l0.69-0.52l0.7-0.5l0.73-0.49l0.75-0.48l0.77-0.47l0.79-0.45l0.81-0.43l0.82-0.41l0.83-0.38
		l0.84-0.36l0.85-0.33l0.85-0.3l0.43-0.14l0.43-0.13l0.42-0.12l0.42-0.11l0.42-0.1l0.42-0.09l0.42-0.08l0.41-0.07l0.41-0.07
		l0.4-0.06l0.4-0.05l0.4-0.04l0.39-0.03l0.38-0.02l0.38-0.01l0.37,0l0.37,0.01l0.36,0.02l0.35,0.03l0.34,0.04l0.34,0.05l0.33,0.06
		l0.32,0.07l0.31,0.07l0.3,0.08l0.29,0.09l0.28,0.1l0.14,0.05l0.14,0.05l0.13,0.06l0.13,0.06l0.13,0.06l0.13,0.06l0.12,0.06
		l0.12,0.07l0.12,0.07l0.12,0.07l0.12,0.07l0.11,0.07l0.11,0.07l0.11,0.08l0.11,0.08l0.1,0.08l0.1,0.08l0.1,0.08l0.1,0.08l0.09,0.08
		l0.09,0.09l0.09,0.09l0.09,0.09l0.08,0.09l0.08,0.09l0.08,0.09l0.08,0.09l0.08,0.09l0.07,0.09L238.75,102.41z"/>
</g>
<g id="HATCH_13_">
	<polygon class="st1" points="269.4,113.72 202.18,230.15 203.69,230.85 205.22,231.53 206.78,232.17 208.37,232.79 209.98,233.38 
		211.61,233.93 213.27,234.45 214.95,234.94 216.66,235.4 218.38,235.81 220.13,236.19 221.89,236.53 223.67,236.84 225.47,237.1 
		227.28,237.32 229.1,237.5 230.94,237.64 232.79,237.73 234.65,237.78 236.51,237.79 238.38,237.75 240.26,237.67 242.14,237.54 
		244.02,237.36 245.9,237.14 247.78,236.88 249.65,236.56 251.52,236.2 253.38,235.8 255.24,235.34 257.08,234.85 258.91,234.3 
		260.73,233.72 262.53,233.09 264.31,232.41 266.08,231.69 267.82,230.93 269.54,230.13 271.24,229.29 272.92,228.41 274.57,227.5 
		276.19,226.54 277.79,225.55 279.35,224.52 280.89,223.46 282.39,222.37 283.87,221.25 285.3,220.1 286.71,218.92 288.08,217.71 
		289.41,216.48 290.71,215.22 291.97,213.94 293.19,212.64 294.38,211.33 295.53,209.99 296.64,208.63 297.71,207.27 298.75,205.88 
		299.75,204.49 300.71,203.08 301.63,201.67 302.51,200.25 303.36,198.82 304.17,197.37 304.95,195.91 305.71,194.43 306.43,192.92 
		307.11,191.41 307.76,189.87 308.37,188.32 308.95,186.75 309.48,185.17 309.98,183.57 310.43,181.97 310.84,180.35 311.21,178.73 
		311.53,177.09 311.8,175.45 312.03,173.8 312.21,172.15 312.35,170.49 312.43,168.84 312.46,167.18 312.44,165.52 312.38,163.87 
		312.26,162.22 312.09,160.58 311.86,158.94 311.59,157.32 311.26,155.7 310.88,154.09 310.45,152.5 309.96,150.93 309.43,149.36 
		308.84,147.82 308.2,146.3 307.51,144.79 306.78,143.31 305.99,141.85 305.16,140.42 304.28,139.01 303.36,137.63 302.39,136.27 
		301.37,134.94 300.32,133.65 299.22,132.38 298.08,131.15 296.91,129.94 295.7,128.77 294.45,127.64 293.17,126.53 291.86,125.47 
		290.52,124.43 289.14,123.43 287.74,122.47 286.32,121.54 284.87,120.65 283.4,119.8 281.9,118.98 280.39,118.2 278.86,117.45 
		277.32,116.74 275.76,116.07 274.18,115.43 272.6,114.82 271.01,114.25 	"/>
</g>
<g id="HATCH_12_">
	<polygon class="st2" points="191.78,224.15 193.79,225.48 195.83,226.74 197.91,227.94 200.03,229.08 202.18,230.15 279.91,95.52 
		277.9,94.2 275.86,92.93 273.78,91.73 271.66,90.59 269.51,89.52 	"/>
</g>
<g id="HATCH_11_">
	<polygon class="st3" points="238.75,102.41 238.81,102.5 238.88,102.6 238.95,102.7 239.01,102.8 239.07,102.91 239.13,103.01 
		239.19,103.12 239.25,103.23 239.31,103.34 239.36,103.46 239.41,103.57 239.46,103.69 239.51,103.81 239.55,103.93 239.59,104.05 
		239.64,104.17 239.67,104.3 239.71,104.43 239.75,104.56 239.78,104.69 239.81,104.82 239.83,104.96 239.86,105.09 239.88,105.23 
		239.9,105.37 239.92,105.51 239.94,105.66 239.95,105.8 239.96,105.95 239.97,106.1 239.98,106.4 239.97,106.71 239.96,107.02 
		239.94,107.34 239.9,107.66 239.86,107.99 239.8,108.33 239.73,108.67 239.66,109.01 239.57,109.36 239.47,109.71 239.35,110.07 
		239.23,110.43 239.1,110.79 238.95,111.15 238.8,111.52 238.63,111.89 238.46,112.25 238.27,112.62 238.07,112.99 237.87,113.37 
		237.65,113.74 237.43,114.11 237.19,114.47 236.95,114.84 236.7,115.21 236.44,115.57 235.9,116.29 235.33,117 234.73,117.7 
		234.11,118.38 233.47,119.04 232.82,119.68 232.15,120.29 231.47,120.89 230.79,121.46 230.1,122 229.41,122.52 228.7,123.02 
		227.97,123.52 227.22,124 226.45,124.46 225.66,124.91 224.85,125.34 224.03,125.75 223.19,126.13 222.35,126.49 221.5,126.82 
		220.65,127.11 220.23,127.25 219.8,127.38 219.38,127.5 218.95,127.61 218.53,127.71 218.11,127.81 217.7,127.89 217.29,127.96 
		216.88,128.03 216.47,128.09 216.07,128.13 215.68,128.17 215.29,128.2 214.9,128.21 214.52,128.22 214.15,128.22 213.78,128.21 
		213.42,128.19 213.07,128.16 212.73,128.12 212.39,128.07 212.06,128.01 211.74,127.95 211.43,127.87 211.13,127.79 210.84,127.7 
		210.55,127.6 210.41,127.55 210.28,127.49 210.14,127.44 210.01,127.38 209.88,127.32 209.75,127.26 209.63,127.19 209.51,127.13 
		209.39,127.06 209.27,126.99 209.15,126.92 209.04,126.85 208.93,126.78 208.82,126.7 208.71,126.62 208.61,126.55 208.51,126.47 
		208.41,126.39 208.31,126.3 208.22,126.22 208.13,126.13 208.04,126.05 207.95,125.96 207.87,125.87 207.78,125.78 207.7,125.69 
		207.63,125.6 207.55,125.51 207.48,125.41 207.41,125.32 207.34,125.22 207.27,125.12 207.2,125.02 207.14,124.92 207.08,124.81 
		207.02,124.71 206.96,124.6 206.9,124.49 206.85,124.38 206.79,124.27 206.74,124.15 206.69,124.04 206.64,123.92 206.6,123.8 
		206.56,123.67 206.52,123.55 206.48,123.42 206.44,123.3 206.41,123.17 206.37,123.03 206.34,122.9 206.32,122.77 206.29,122.63 
		206.27,122.49 206.25,122.35 206.23,122.21 206.21,122.07 206.2,121.92 206.19,121.77 206.18,121.63 206.18,121.32 206.18,121.02 
		206.19,120.7 206.21,120.38 206.25,120.06 206.29,119.73 206.35,119.39 206.42,119.05 206.5,118.71 206.58,118.36 206.69,118.01 
		206.8,117.65 206.92,117.3 207.05,116.93 207.2,116.57 207.35,116.2 207.52,115.84 207.69,115.47 207.88,115.1 208.08,114.73 
		208.28,114.36 208.5,113.99 208.72,113.62 208.96,113.25 209.2,112.88 209.45,112.51 209.71,112.15 210.25,111.43 210.82,110.72 
		211.42,110.02 212.04,109.35 212.68,108.69 213.33,108.05 214,107.43 214.68,106.83 215.36,106.26 216.05,105.72 216.74,105.2 
		217.45,104.7 218.18,104.21 218.93,103.73 219.7,103.26 220.49,102.81 221.3,102.38 222.12,101.98 222.96,101.59 223.8,101.23 
		224.65,100.91 225.5,100.61 225.93,100.47 226.35,100.34 226.77,100.22 227.2,100.11 227.62,100.01 228.04,99.92 228.45,99.83 
		228.86,99.76 229.27,99.69 229.68,99.64 230.08,99.59 230.47,99.55 230.87,99.53 231.25,99.51 231.63,99.5 232,99.5 232.37,99.51 
		232.73,99.53 233.08,99.56 233.42,99.6 233.76,99.65 234.09,99.71 234.41,99.77 234.72,99.85 235.02,99.93 235.31,100.02 
		235.6,100.12 235.74,100.17 235.87,100.23 236.01,100.29 236.14,100.34 236.27,100.4 236.4,100.47 236.52,100.53 236.65,100.59 
		236.77,100.66 236.88,100.73 237,100.8 237.11,100.87 237.22,100.95 237.33,101.02 237.44,101.1 237.54,101.18 237.64,101.26 
		237.74,101.34 237.84,101.42 237.93,101.5 238.02,101.59 238.11,101.67 238.2,101.76 238.28,101.85 238.37,101.94 238.45,102.03 
		238.53,102.12 238.6,102.22 238.67,102.31 	"/>
</g>
<g>
	<g id="LINE_2_">
		<line class="st4" x1="187.14" y1="256.2" x2="294.94" y2="69.48"/>
	</g>
	<g id="ARC_2_">
		<path class="st4" d="M294.94,69.48c46.02,30.1,62.07,89.98,37.26,139.06c-26.9,53.22-91.84,74.55-145.06,47.66"/>
	</g>
	<g id="LINE_1_">
		<line class="st4" x1="176.75" y1="250.19" x2="284.55" y2="63.48"/>
	</g>
	<g id="ARC_1_">
		<path class="st4" d="M284.55,63.48c-53.22-26.9-118.16-5.56-145.06,47.66c-24.81,49.08-8.76,108.96,37.26,139.06"/>
	</g>
</g>
<g>
	<g id="HATCH_10_">
		<polygon class="st0" points="42.99,438.73 42.99,407.18 48.39,407.18 48.39,434.08 63.68,434.08 63.68,438.73 		"/>
	</g>
	<g id="HATCH_9_">
		<polygon class="st0" points="412.2,438.73 412.2,407.18 436.45,407.18 436.45,411.82 417.6,411.82 417.6,420.23 435.16,420.23 
			435.16,424.84 417.6,424.84 417.6,434.08 437.33,434.08 437.33,438.73 		"/>
	</g>
	<g id="HATCH_8_">
		<polygon class="st0" points="323.47,416.29 323.18,415.54 322.88,414.75 322.3,413.03 321.76,414.57 321.12,416.32 312.36,438.73 
			306.7,438.73 319.58,407.18 325.11,407.18 337.79,438.73 332.2,438.73 328.74,429.88 317.78,429.88 319.53,425.39 327.01,425.39 
					"/>
	</g>
	<g id="HATCH_7_">
		<polygon class="st0" points="213.42,416.01 217.26,409.37 217.73,409.69 218.18,410.02 218.63,410.37 219.06,410.73 
			219.48,411.11 219.88,411.51 220.27,411.91 220.65,412.34 221.01,412.77 221.36,413.22 221.69,413.67 222,414.14 222.3,414.62 
			222.58,415.11 222.85,415.61 223.09,416.12 223.32,416.64 223.53,417.16 223.72,417.69 223.9,418.23 224.05,418.77 224.19,419.32 
			224.31,419.87 224.4,420.43 224.48,420.99 224.54,421.55 224.58,422.11 224.6,422.68 224.6,423.24 224.58,423.81 224.54,424.37 
			224.48,424.93 224.4,425.49 224.3,426.05 224.18,426.6 224.04,427.15 223.89,427.69 223.71,428.23 223.52,428.76 223.31,429.28 
			223.08,429.8 222.83,430.31 222.57,430.8 222.28,431.29 221.98,431.77 221.67,432.24 221.34,432.7 220.99,433.14 220.63,433.58 
			220.25,434 219.86,434.4 219.45,434.79 219.03,435.17 218.6,435.54 218.15,435.88 217.7,436.22 217.23,436.53 216.75,436.83 
			216.26,437.12 215.76,437.38 215.26,437.63 214.74,437.86 214.22,438.07 213.69,438.27 213.15,438.44 212.61,438.6 212.06,438.74 
			211.51,438.85 210.95,438.95 210.39,439.03 209.83,439.09 209.27,439.13 208.7,439.15 208.14,439.16 207.57,439.14 207.01,439.1 
			206.45,439.04 205.89,438.96 205.33,438.87 204.78,438.75 204.23,438.62 203.69,438.46 203.15,438.29 202.62,438.1 202.09,437.89 
			201.58,437.66 201.07,437.41 203.33,433.5 203.55,433.61 203.78,433.71 204.02,433.81 204.26,433.9 204.5,433.99 204.74,434.07 
			204.99,434.15 205.24,434.22 205.5,434.29 205.76,434.35 206.02,434.41 206.29,434.46 206.55,434.51 206.82,434.55 207.1,434.58 
			207.37,434.61 207.65,434.63 207.92,434.64 208.2,434.65 208.48,434.65 208.76,434.64 209.05,434.63 209.33,434.61 209.61,434.59 
			209.89,434.55 210.17,434.51 210.46,434.47 210.74,434.41 211.02,434.35 211.29,434.28 211.57,434.21 211.85,434.13 
			212.12,434.04 212.39,433.94 212.66,433.84 212.92,433.73 213.18,433.62 213.44,433.5 213.7,433.37 213.95,433.24 214.2,433.1 
			214.44,432.96 214.68,432.81 214.92,432.66 215.15,432.5 215.37,432.33 215.59,432.17 215.81,431.99 216.02,431.82 216.23,431.63 
			216.43,431.45 216.62,431.26 216.81,431.07 217,430.87 217.17,430.68 217.35,430.47 217.51,430.27 217.67,430.07 217.83,429.86 
			217.98,429.65 218.12,429.44 218.26,429.22 218.4,429.01 218.52,428.8 218.64,428.58 218.76,428.36 218.88,428.14 218.98,427.91 
			219.09,427.68 219.18,427.45 219.28,427.22 219.36,426.98 219.44,426.75 219.52,426.51 219.58,426.27 219.65,426.02 219.7,425.78 
			219.75,425.53 219.79,425.29 219.83,425.04 219.85,424.79 219.87,424.54 219.88,424.29 219.89,424.04 219.89,423.8 219.88,423.55 
			219.86,423.3 219.83,423.05 219.8,422.81 219.76,422.56 219.71,422.32 219.65,422.08 219.59,421.84 219.51,421.6 219.43,421.37 
			219.35,421.14 219.25,420.91 219.15,420.68 219.04,420.46 218.92,420.24 218.79,420.03 218.66,419.81 218.52,419.61 218.38,419.4 
			218.22,419.2 218.07,419.01 217.9,418.82 217.73,418.63 217.55,418.45 217.37,418.28 217.18,418.11 216.99,417.94 216.8,417.78 
			216.59,417.62 216.39,417.47 216.18,417.33 215.96,417.19 215.75,417.06 215.52,416.93 215.3,416.81 215.07,416.69 214.84,416.58 
			214.61,416.47 214.38,416.37 214.14,416.27 213.9,416.18 213.66,416.1 		"/>
	</g>
	<g id="HATCH_6_">
		<polygon class="st0" points="203.34,429.87 199.51,436.51 199.04,436.2 198.58,435.86 198.14,435.51 197.71,435.15 197.29,434.77 
			196.88,434.38 196.49,433.97 196.12,433.55 195.75,433.11 195.41,432.67 195.08,432.21 194.76,431.74 194.46,431.26 
			194.18,430.77 193.92,430.27 193.67,429.76 193.44,429.25 193.23,428.72 193.04,428.19 192.87,427.66 192.71,427.11 
			192.58,426.56 192.46,426.01 192.36,425.46 192.28,424.9 192.23,424.33 192.19,423.77 192.17,423.21 192.17,422.64 192.19,422.08 
			192.23,421.51 192.29,420.95 192.37,420.39 192.47,419.84 192.58,419.28 192.72,418.74 192.88,418.19 193.05,417.66 
			193.25,417.13 193.46,416.6 193.69,416.09 193.93,415.58 194.2,415.08 194.48,414.59 194.78,414.11 195.1,413.64 195.43,413.19 
			195.78,412.74 196.14,412.31 196.52,411.89 196.91,411.48 197.32,411.09 197.73,410.71 198.17,410.35 198.61,410 199.07,409.67 
			199.54,409.35 200.02,409.05 200.5,408.77 201,408.5 201.51,408.25 202.03,408.02 202.55,407.81 203.08,407.62 203.62,407.44 
			204.16,407.29 204.71,407.15 205.26,407.03 205.82,406.93 206.37,406.85 206.94,406.79 207.5,406.75 208.06,406.73 208.63,406.73 
			209.19,406.75 209.76,406.78 210.32,406.84 210.88,406.92 211.43,407.02 211.99,407.13 212.54,407.27 213.08,407.42 
			213.62,407.59 214.15,407.78 214.67,407.99 215.19,408.22 215.7,408.47 213.44,412.38 213.21,412.28 212.98,412.17 212.75,412.08 
			212.51,411.98 212.27,411.9 212.02,411.81 211.77,411.73 211.52,411.66 211.26,411.59 211.01,411.53 210.74,411.47 210.48,411.42 
			210.21,411.38 209.94,411.34 209.67,411.3 209.4,411.28 209.12,411.26 208.84,411.24 208.56,411.23 208.28,411.23 208,411.24 
			207.72,411.25 207.44,411.27 207.15,411.3 206.87,411.33 206.59,411.37 206.31,411.42 206.03,411.47 205.75,411.53 205.47,411.6 
			205.19,411.68 204.92,411.76 204.65,411.85 204.38,411.94 204.11,412.04 203.84,412.15 203.58,412.26 203.32,412.38 
			203.07,412.51 202.81,412.64 202.57,412.78 202.32,412.92 202.08,413.07 201.85,413.23 201.62,413.39 201.39,413.55 
			201.17,413.72 200.95,413.89 200.74,414.07 200.54,414.25 200.34,414.43 200.14,414.62 199.95,414.82 199.77,415.01 
			199.59,415.21 199.42,415.41 199.25,415.61 199.09,415.82 198.93,416.03 198.78,416.24 198.64,416.45 198.5,416.66 198.37,416.87 
			198.24,417.09 198.12,417.3 198,417.52 197.89,417.75 197.78,417.97 197.68,418.2 197.58,418.43 197.49,418.66 197.4,418.9 
			197.32,419.14 197.25,419.38 197.18,419.62 197.12,419.86 197.06,420.1 197.02,420.35 196.97,420.6 196.94,420.84 196.91,421.09 
			196.89,421.34 196.88,421.59 196.88,421.84 196.88,422.09 196.89,422.34 196.91,422.58 196.93,422.83 196.97,423.08 
			197.01,423.32 197.06,423.56 197.11,423.8 197.18,424.04 197.25,424.28 197.33,424.51 197.42,424.75 197.51,424.98 197.62,425.2 
			197.73,425.42 197.85,425.64 197.97,425.86 198.1,426.07 198.24,426.28 198.39,426.48 198.54,426.68 198.7,426.88 198.86,427.07 
			199.03,427.25 199.21,427.43 199.39,427.61 199.58,427.78 199.77,427.94 199.97,428.1 200.17,428.26 200.38,428.41 200.59,428.55 
			200.8,428.69 201.02,428.83 201.24,428.96 201.46,429.08 201.69,429.2 201.92,429.31 202.15,429.41 202.39,429.52 202.62,429.61 
			202.86,429.7 203.1,429.79 		"/>
	</g>
	<g id="HATCH_5_">
		<polygon class="st0" points="100.47,439.16 101.19,439.15 101.54,439.13 101.9,439.11 102.26,439.08 102.61,439.05 102.97,439 
			103.32,438.95 103.65,438.9 103.98,438.84 104.3,438.77 104.63,438.7 104.95,438.62 105.27,438.53 105.59,438.43 105.9,438.33 
			106.2,438.23 106.5,438.11 106.79,438 107.08,437.87 107.36,437.74 107.65,437.6 107.92,437.45 108.2,437.29 108.46,437.14 
			108.71,436.97 108.96,436.8 109.21,436.63 109.45,436.44 109.69,436.26 109.92,436.06 110.14,435.86 110.36,435.65 110.57,435.44 
			110.78,435.22 110.98,435 111.17,434.77 111.36,434.53 111.54,434.29 111.71,434.05 111.88,433.79 112.04,433.53 112.2,433.27 
			112.34,433 112.49,432.73 112.62,432.45 112.75,432.17 112.87,431.88 112.98,431.58 113.09,431.28 113.18,430.98 113.28,430.67 
			113.36,430.36 113.43,430.05 113.5,429.74 113.56,429.43 113.61,429.09 113.66,428.75 113.7,428.41 113.73,428.07 113.76,427.73 
			113.78,427.38 113.79,427.04 113.79,426.7 113.79,407.18 108.41,407.18 108.41,426.46 108.4,426.94 108.39,427.18 108.38,427.42 
			108.36,427.66 108.34,427.9 108.31,428.14 108.28,428.37 108.24,428.58 108.21,428.79 108.16,429 108.12,429.2 108.07,429.41 
			108.01,429.61 107.95,429.81 107.88,430.01 107.82,430.19 107.75,430.36 107.67,430.54 107.6,430.71 107.51,430.88 107.43,431.05 
			107.33,431.21 107.24,431.38 107.14,431.53 107.04,431.68 106.93,431.82 106.82,431.96 106.71,432.1 106.59,432.24 106.47,432.37 
			106.34,432.5 106.21,432.62 106.08,432.74 105.94,432.86 105.8,432.97 105.66,433.08 105.51,433.18 105.36,433.28 105.21,433.38 
			105.05,433.47 104.89,433.56 104.72,433.65 104.55,433.73 104.38,433.81 104.21,433.88 104.04,433.95 103.86,434.01 
			103.67,434.08 103.47,434.14 103.28,434.19 103.08,434.24 102.88,434.29 102.68,434.33 102.48,434.37 102.28,434.4 102.05,434.43 
			101.82,434.46 101.59,434.48 101.37,434.5 101.14,434.52 100.91,434.52 100.45,434.53 100.01,434.52 99.78,434.52 99.56,434.5 
			99.34,434.48 99.12,434.46 98.9,434.44 98.68,434.41 98.49,434.37 98.29,434.34 98.1,434.3 97.91,434.25 97.72,434.21 
			97.53,434.15 97.35,434.1 97.16,434.03 96.99,433.97 96.83,433.91 96.67,433.84 96.51,433.76 96.35,433.69 96.19,433.6 
			96.04,433.52 95.89,433.42 95.74,433.33 95.61,433.24 95.47,433.14 95.34,433.03 95.21,432.93 95.08,432.81 94.96,432.7 
			94.84,432.58 94.72,432.46 94.61,432.33 94.5,432.2 94.39,432.07 94.29,431.93 94.19,431.79 94.1,431.65 94.01,431.5 
			93.92,431.35 93.83,431.19 93.75,431.02 93.67,430.86 93.6,430.69 93.53,430.52 93.47,430.35 93.41,430.18 93.35,429.99 
			93.29,429.79 93.24,429.6 93.19,429.4 93.15,429.2 93.11,429 93.07,428.8 93.04,428.6 93.01,428.37 92.99,428.14 92.96,427.9 
			92.95,427.67 92.92,427.21 92.92,426.74 92.92,407.18 87.52,407.18 87.52,427.09 87.52,427.42 87.53,427.75 87.55,428.08 
			87.57,428.42 87.6,428.75 87.64,429.08 87.69,429.41 87.74,429.74 87.8,430.04 87.87,430.34 87.94,430.65 88.02,430.95 
			88.11,431.24 88.21,431.54 88.31,431.83 88.42,432.12 88.54,432.4 88.67,432.67 88.8,432.94 88.94,433.21 89.08,433.47 
			89.23,433.72 89.39,433.98 89.56,434.22 89.73,434.46 89.91,434.69 90.09,434.92 90.28,435.14 90.47,435.36 90.67,435.57 
			90.88,435.78 91.09,435.98 91.31,436.17 91.54,436.36 91.77,436.54 92,436.72 92.24,436.89 92.49,437.05 92.74,437.21 
			92.99,437.36 93.26,437.51 93.53,437.65 93.8,437.79 94.08,437.92 94.36,438.04 94.65,438.15 94.93,438.26 95.22,438.36 
			95.53,438.46 95.84,438.55 96.15,438.64 96.46,438.72 96.77,438.79 97.09,438.85 97.4,438.91 97.72,438.96 98.06,439.01 
			98.4,439.05 98.75,439.08 99.09,439.11 99.44,439.13 99.78,439.15 		"/>
	</g>
	<g id="HATCH_4_">
		<polygon class="st0" points="138.38,422.81 138.39,423.56 138.42,424.3 138.48,425.04 138.56,425.78 138.66,426.47 138.72,426.81 
			138.79,427.16 138.86,427.5 138.94,427.84 139.02,428.17 139.11,428.51 139.21,428.83 139.31,429.15 139.41,429.46 139.52,429.78 
			139.64,430.09 139.77,430.39 139.9,430.7 140.03,431 140.17,431.29 140.32,431.58 140.47,431.86 140.63,432.14 140.79,432.42 
			140.96,432.69 141.14,432.96 141.32,433.22 141.51,433.48 141.69,433.72 141.89,433.97 142.09,434.21 142.3,434.44 142.51,434.67 
			142.73,434.9 142.95,435.11 143.18,435.33 143.41,435.54 143.65,435.74 143.89,435.94 144.14,436.13 144.39,436.31 144.65,436.49 
			144.91,436.67 145.18,436.84 145.45,437 145.73,437.16 146.01,437.31 146.3,437.46 146.59,437.6 146.88,437.73 147.18,437.86 
			147.48,437.98 147.8,438.1 148.11,438.21 148.43,438.32 148.74,438.41 149.06,438.51 149.38,438.59 149.71,438.67 150.05,438.74 
			150.4,438.81 150.74,438.87 151.09,438.93 151.44,438.98 151.79,439.02 152.49,439.09 153.23,439.13 153.97,439.16 154.64,439.16 
			155.31,439.14 155.94,439.1 156.57,439.05 157.2,438.98 157.83,438.89 158.44,438.79 159.04,438.67 159.64,438.53 160.23,438.38 
			160.81,438.21 161.39,438.02 161.96,437.82 162.52,437.59 163.06,437.36 163.59,437.11 164.11,436.85 164.63,436.57 
			165.12,436.28 165.6,435.97 166.06,435.65 166.29,435.48 166.52,435.31 166.96,434.97 167.18,434.79 167.39,434.6 167.59,434.42 
			167.8,434.22 168,434.03 168.2,433.83 168.38,433.64 168.38,422.29 154.27,422.29 154.27,427.03 163.31,427.03 163.31,431.55 
			163.16,431.69 163,431.82 162.84,431.95 162.68,432.07 162.51,432.19 162.35,432.31 162.18,432.42 162.01,432.53 161.81,432.65 
			161.62,432.76 161.43,432.87 161.23,432.97 161.03,433.07 160.83,433.16 160.62,433.26 160.42,433.35 160.19,433.44 
			159.97,433.53 159.51,433.69 159.26,433.78 159,433.86 158.75,433.93 158.49,434 158.23,434.07 157.97,434.13 157.7,434.19 
			157.44,434.24 156.9,434.34 156.36,434.41 155.8,434.47 155.24,434.51 154.68,434.53 154.12,434.53 153.64,434.52 153.16,434.49 
			152.92,434.47 152.68,434.45 152.44,434.42 152.21,434.38 151.99,434.35 151.77,434.31 151.56,434.26 151.34,434.21 
			151.13,434.16 150.91,434.1 150.7,434.04 150.49,433.97 150.3,433.91 150.1,433.84 149.91,433.76 149.72,433.68 149.53,433.6 
			149.34,433.51 149.15,433.41 148.97,433.32 148.79,433.22 148.62,433.11 148.45,433.01 148.28,432.89 148.11,432.78 
			147.94,432.66 147.78,432.53 147.63,432.41 147.47,432.27 147.31,432.13 147.16,431.99 147.01,431.85 146.87,431.7 146.72,431.55 
			146.59,431.39 146.45,431.24 146.32,431.07 146.19,430.91 146.06,430.74 145.93,430.56 145.81,430.39 145.7,430.21 145.59,430.03 
			145.48,429.85 145.37,429.66 145.27,429.47 145.17,429.27 145.07,429.07 144.98,428.88 144.89,428.68 144.81,428.47 
			144.73,428.27 144.65,428.05 144.57,427.83 144.5,427.61 144.44,427.39 144.37,427.16 144.31,426.94 144.21,426.48 144.16,426.24 
			144.11,425.99 144.03,425.49 143.96,424.99 143.91,424.49 143.87,423.95 143.85,423.41 143.84,422.85 143.85,422.29 
			143.87,421.77 143.9,421.24 143.95,420.71 144.01,420.18 144.08,419.71 144.17,419.24 144.27,418.77 144.33,418.53 144.39,418.3 
			144.45,418.09 144.51,417.88 144.58,417.67 144.65,417.46 144.73,417.25 144.81,417.05 144.89,416.84 144.98,416.64 
			145.06,416.45 145.15,416.27 145.25,416.08 145.35,415.9 145.45,415.72 145.55,415.54 145.66,415.37 145.78,415.2 145.89,415.03 
			146.01,414.87 146.13,414.71 146.25,414.56 146.38,414.4 146.51,414.25 146.64,414.11 146.78,413.96 146.92,413.83 147.06,413.69 
			147.21,413.56 147.35,413.44 147.5,413.31 147.66,413.19 147.81,413.08 147.97,412.97 148.14,412.86 148.3,412.75 148.47,412.65 
			148.65,412.56 148.82,412.47 149,412.38 149.18,412.29 149.36,412.21 149.55,412.14 149.74,412.06 149.93,411.99 150.13,411.93 
			150.33,411.86 150.54,411.8 150.74,411.75 150.95,411.7 151.17,411.65 151.4,411.6 151.62,411.56 151.85,411.52 152.07,411.49 
			152.3,411.46 152.75,411.42 153.25,411.39 153.74,411.37 154.04,411.37 154.35,411.38 154.66,411.39 154.96,411.4 155.25,411.42 
			155.54,411.44 155.83,411.48 156.12,411.51 156.41,411.56 156.69,411.61 156.98,411.66 157.26,411.73 157.51,411.79 
			157.75,411.86 158,411.93 158.24,412.02 158.48,412.1 158.71,412.2 158.95,412.3 159.18,412.41 159.4,412.53 159.51,412.59 
			159.63,412.66 159.73,412.72 159.84,412.79 159.95,412.86 160.05,412.93 160.15,413 160.25,413.07 160.34,413.14 160.44,413.21 
			160.62,413.37 160.8,413.53 160.97,413.69 161.14,413.86 161.3,414.04 161.46,414.22 161.62,414.42 161.78,414.62 161.93,414.84 
			162.07,415.05 162.21,415.27 162.34,415.49 162.46,415.72 162.58,415.95 162.83,416.44 163.35,416.28 167.97,414.91 
			167.66,414.23 167.47,413.82 167.26,413.42 167.04,413.02 166.81,412.63 166.58,412.26 166.34,411.9 166.08,411.55 165.95,411.38 
			165.81,411.21 165.68,411.05 165.54,410.89 165.4,410.74 165.26,410.58 165.11,410.43 164.97,410.29 164.81,410.14 164.66,410 
			164.51,409.86 164.35,409.73 164.19,409.59 164.03,409.47 163.86,409.34 163.7,409.22 163.53,409.1 163.36,408.99 163.18,408.87 
			163.01,408.76 162.83,408.66 162.65,408.56 162.31,408.37 161.96,408.2 161.6,408.04 161.24,407.89 160.82,407.73 160.4,407.59 
			159.97,407.46 159.54,407.34 159.08,407.23 158.62,407.13 158.15,407.05 157.68,406.97 157.17,406.9 156.66,406.85 156.15,406.8 
			155.64,406.77 155.1,406.74 154.56,406.73 153.62,406.73 152.87,406.75 152.11,406.8 151.73,406.84 151.35,406.88 150.98,406.93 
			150.6,406.99 150.26,407.04 149.91,407.11 149.57,407.18 149.22,407.26 148.88,407.35 148.54,407.44 148.21,407.54 147.87,407.65 
			147.56,407.75 147.25,407.87 146.94,407.99 146.63,408.12 146.33,408.26 146.03,408.41 145.74,408.56 145.44,408.72 
			145.16,408.88 144.89,409.05 144.61,409.22 144.35,409.4 144.08,409.59 143.83,409.79 143.57,409.99 143.32,410.2 143.08,410.41 
			142.84,410.63 142.61,410.86 142.39,411.09 142.16,411.33 141.95,411.57 141.74,411.82 141.54,412.07 141.34,412.34 141.15,412.6 
			140.97,412.87 140.79,413.15 140.62,413.43 140.46,413.71 140.3,414 140.15,414.29 140,414.6 139.86,414.9 139.73,415.22 
			139.6,415.53 139.48,415.85 139.37,416.17 139.26,416.5 139.16,416.82 139.06,417.17 138.97,417.52 138.89,417.88 138.81,418.23 
			138.74,418.59 138.68,418.95 138.62,419.31 138.57,419.67 138.53,420.06 138.49,420.45 138.43,421.24 138.39,422.02 		"/>
	</g>
	<g id="HATCH_3_">
		<polygon class="st0" points="267.48,419.04 272.85,438.73 278.72,438.73 288.02,407.18 282.38,407.18 282.25,407.65 
			276.38,428.88 276.21,429.55 275.72,431.62 274.44,426.49 269.05,407.18 264.13,407.18 264,407.65 258.21,428.49 258.04,429.17 
			257.48,431.51 256.32,426.87 250.75,407.18 245.12,407.18 254.41,438.73 260.29,438.73 260.42,438.25 266.11,417.41 
			266.29,416.71 266.59,415.4 266.84,416.49 267.19,417.94 		"/>
	</g>
	<g id="HATCH_2_">
		<polygon class="st0" points="365.56,426.17 365.56,421.63 365.56,411.76 365.56,407.18 360.16,407.18 360.16,438.73 
			365.56,438.73 		"/>
	</g>
	<g id="HATCH_1_">
		<polygon class="st0" points="379.39,425.48 379.69,425.4 379.99,425.31 380.29,425.21 380.58,425.11 380.87,424.99 381.16,424.87 
			381.44,424.74 381.72,424.59 381.9,424.49 382.07,424.39 382.25,424.29 382.42,424.18 382.59,424.06 382.76,423.94 382.92,423.82 
			383.08,423.7 383.24,423.57 383.39,423.43 383.54,423.3 383.69,423.16 383.83,423.02 383.97,422.87 384.11,422.72 384.24,422.57 
			384.37,422.41 384.5,422.26 384.62,422.1 384.74,421.93 384.85,421.77 384.96,421.6 385.07,421.43 385.17,421.25 385.27,421.08 
			385.36,420.9 385.45,420.72 385.54,420.54 385.62,420.36 385.7,420.17 385.77,419.98 385.84,419.79 385.9,419.6 385.96,419.4 
			386.02,419.2 386.07,419 386.12,418.8 386.16,418.6 386.2,418.4 386.23,418.2 386.26,417.98 386.29,417.77 386.31,417.56 
			386.33,417.34 386.35,417.13 386.36,416.91 386.36,416.69 386.36,416.48 386.36,416.22 386.35,415.96 386.34,415.71 
			386.32,415.45 386.29,415.19 386.26,414.94 386.22,414.68 386.18,414.43 386.13,414.19 386.07,413.96 386.01,413.72 
			385.95,413.49 385.87,413.26 385.79,413.03 385.71,412.81 385.61,412.59 385.52,412.37 385.41,412.16 385.3,411.96 385.19,411.75 
			385.07,411.55 384.94,411.36 384.8,411.16 384.67,410.97 384.52,410.79 384.37,410.61 384.21,410.43 384.05,410.25 383.88,410.09 
			383.7,409.92 383.53,409.76 383.35,409.61 383.15,409.46 382.96,409.31 382.75,409.17 382.55,409.03 382.34,408.9 382.13,408.77 
			381.91,408.65 381.69,408.53 381.46,408.42 381.22,408.31 380.98,408.21 380.74,408.11 380.5,408.02 380.25,407.93 380,407.85 
			379.75,407.77 379.48,407.7 379.2,407.63 378.93,407.56 378.65,407.51 378.37,407.45 378.09,407.4 377.53,407.32 377.22,407.29 
			376.91,407.26 376.29,407.21 375.67,407.18 375.04,407.18 367.36,407.18 367.36,411.76 374.63,411.76 375.01,411.76 
			375.39,411.78 375.77,411.8 376.15,411.84 376.47,411.88 376.8,411.94 376.96,411.97 377.12,412 377.28,412.04 377.44,412.08 
			377.58,412.12 377.72,412.16 377.86,412.21 377.99,412.25 378.13,412.3 378.26,412.36 378.39,412.41 378.52,412.47 378.64,412.53 
			378.75,412.59 378.87,412.65 378.98,412.72 379.09,412.79 379.19,412.86 379.3,412.93 379.4,413.01 379.49,413.08 379.58,413.16 
			379.67,413.24 379.76,413.32 379.84,413.4 379.92,413.49 380,413.58 380.08,413.67 380.15,413.76 380.21,413.85 380.28,413.95 
			380.34,414.05 380.4,414.15 380.45,414.25 380.5,414.35 380.55,414.46 380.6,414.57 380.64,414.69 380.69,414.8 380.72,414.92 
			380.76,415.04 380.79,415.16 380.82,415.28 380.84,415.4 380.87,415.54 380.89,415.68 380.91,415.82 380.92,415.96 380.93,416.1 
			380.94,416.24 380.94,416.38 380.94,416.52 380.94,416.67 380.94,416.82 380.93,416.96 380.92,417.11 380.91,417.26 380.89,417.4 
			380.87,417.55 380.84,417.69 380.82,417.82 380.79,417.95 380.76,418.08 380.72,418.2 380.69,418.33 380.64,418.45 380.6,418.57 
			380.55,418.7 380.5,418.81 380.45,418.92 380.39,419.03 380.34,419.14 380.27,419.24 380.21,419.35 380.14,419.45 380.07,419.55 
			380,419.65 379.92,419.74 379.84,419.84 379.76,419.93 379.67,420.02 379.58,420.1 379.49,420.19 379.4,420.27 379.3,420.35 
			379.2,420.43 379.09,420.51 378.98,420.58 378.88,420.66 378.76,420.72 378.65,420.79 378.54,420.85 378.41,420.92 378.29,420.98 
			378.16,421.04 378.03,421.09 377.89,421.14 377.76,421.19 377.63,421.23 377.49,421.28 377.34,421.32 377.19,421.36 377.03,421.4 
			376.88,421.43 376.72,421.46 376.57,421.49 376.41,421.52 376.25,421.54 376.07,421.56 375.89,421.58 375.53,421.61 
			375.17,421.62 374.81,421.63 367.36,421.63 367.36,426.17 373.97,426.17 381.83,438.73 388.12,438.73 		"/>
	</g>
</g>
<text transform="matrix(1 0 0 1 78.416 344.9821)"><tspan x="0" y="0" class="st5 st6 st7">orca</tspan><tspan x="144.96" y="0" class="st6 st7"> </tspan><tspan x="162.54" y="0" class="st8 st6 st7">slicer</tspan><tspan x="144.17" y="38" class="st8 st6 st9">for</tspan></text>
</svg>
